<svg height="743.623" width="847.157" xml:space="preserve" xmlns="http://www.w3.org/2000/svg"><path style="display:inline;fill:#c1121c;fill-opacity:1;fill-rule:nonzero;stroke:none" d="M338.867 587.143c-7.124.051-14.949-3.589-18.78-10.404L10.791 40.846C9.007 37.2 8.26 34.026 8.235 30.398c0-6.496 2.874-12.66 7.846-16.84 4.383-3.394 8.537-5.16 14.122-5.16H648.11c3.77-.035 7.547.87 10.976 3.133a21.552 21.552 0 0 1 10.41 18.426c-.185 3.894-1.144 8-2.879 10.89l-309.114 535.98a2.367 2.367 0 0 1-.089.141 20.002 20.002 0 0 1-4.133 4.778 22 22 0 0 1-12.825 5.316 19.73 19.73 0 0 1-1.589.081zm-.32-106.21L574.25 72.397H102.513z" transform="matrix(1.25 0 0 -1.25 0 743.622)"/><path style="display:inline;fill:#000;fill-opacity:1;fill-rule:nonzero;stroke:none" d="M338.867 594.898c-7.616 0-15.23-2.907-21.039-8.716a29.747 29.747 0 0 1-4.773-6.232l-15.128-25.958h-.072L4.64 45.754c-.067-.118-.114-.22-.161-.301a29.79 29.79 0 0 1-3.46-7.996C-3.23 21.587 6.193 5.27 22.06 1.015A29.88 29.88 0 0 1 29.902 0h618.067c16.428 0 29.758 13.328 29.758 29.757a29.628 29.628 0 0 1-3.935 14.774c-.012.019-.026.051-.05.098L369.378 573.043c-3.87 6.668-5.695 9.363-9.469 13.14-5.807 5.808-13.426 8.715-21.039 8.715zm0-.398c7.512 0 15.023-2.867 20.753-8.597 3.754-3.754 5.544-6.395 9.407-13.06L673.39 44.433a29.209 29.209 0 0 0 3.933-14.675c0-16.215-13.141-29.355-29.355-29.355H29.902a29.236 29.236 0 0 0-7.738 1C6.505 5.597-2.788 21.696 1.406 37.35a29.273 29.273 0 0 0 3.425 7.91c.055.097.1.196.154.293l293.101 508.04h.07l15.246 26.156a29.356 29.356 0 0 0 4.707 6.153c5.731 5.73 13.244 8.597 20.758 8.597z" transform="matrix(1.25 0 0 -1.25 0 743.622)"/></svg>