<svg xml:space="preserve" width="140" height="45" xmlns="http://www.w3.org/2000/svg"><path style="opacity:.9;fill:#fff;fill-opacity:1;stroke:none;stroke-width:.52894" d="M0 0h140v45H0z"/><path d="M23.79 26.467h1.399V27.9H23.79zm0 2.226h1.399v1.434H23.79zm4.339-11.08h1.398v1.434h-1.398zM4.413 35.32h1.398v1.435H4.413zm0 2.226h1.398v1.434H4.413zm2.17-11.08H7.98V27.9H6.582zm0 2.226H7.98v1.434H6.582zm0 2.176H7.98v1.435H6.582zm0 2.226H7.98v1.435H6.582zm0 2.226H7.98v1.435H6.582zm0 2.226H7.98v1.434H6.582zm0 2.176H7.98v1.435H6.582zm2.12-19.885h1.398v1.435H8.703zm0 2.226h1.398V23.5H8.703zm0 2.177h1.398v1.434H8.703zm0 2.226h1.398V27.9H8.703zm0 2.226h1.398v1.434H8.703zm0 2.176h1.398v1.435H8.703zm0 2.226h1.398v1.435H8.703zm0 2.226h1.398v1.435H8.703zm0 2.226h1.398v1.434H8.703zm0 2.176h1.398v1.435H8.703zm2.17-22.11h1.397v1.434h-1.398zm0 2.225h1.397v1.435h-1.398zm0 2.226h1.397V23.5h-1.398zm0 2.177h1.397v1.434h-1.398zm0 2.226h1.397V27.9h-1.398zm0 2.226h1.397v1.434h-1.398zm0 2.176h1.397v1.435h-1.398zm0 2.226h1.397v1.435h-1.398zm0 2.226h1.397v1.435h-1.398zm0 2.226h1.397v1.434h-1.398zm0 2.176h1.397v1.435h-1.398zm2.168-28.739h1.398v1.435h-1.398zm0 2.226h1.398v1.435h-1.398zm0 2.176h1.398v1.435h-1.398zm0 2.226h1.398v1.435h-1.398zm0 2.226h1.398v1.435h-1.398zm0 2.226h1.398V23.5h-1.398zm0 2.177h1.398v1.434h-1.398zm0 2.226h1.398V27.9h-1.398zm0 2.226h1.398v1.434h-1.398zm0 2.176h1.398v1.435h-1.398zm0 2.226h1.398v1.435h-1.398zm0 2.226h1.398v1.435h-1.398zm0 2.226h1.398v1.434h-1.398zm0 2.176h1.398v1.435h-1.398zm2.121-33.141h1.398v1.434h-1.398zm0 2.176h1.398v1.435h-1.398zm0 2.226h1.398v1.435h-1.398zm0 2.226h1.398v1.435h-1.398zm0 2.176h1.398v1.435h-1.398zm0 2.226h1.398v1.435h-1.398zm0 2.226h1.398v1.435h-1.398zm0 2.226h1.398V23.5h-1.398zm0 2.177h1.398v1.434h-1.398zm0 2.226h1.398V27.9h-1.398zm0 2.226h1.398v1.434h-1.398zm0 2.176h1.398v1.435h-1.398zm0 2.226h1.398v1.435h-1.398zm0 2.226h1.398v1.435h-1.398zm2.17-26.563h1.397v1.435h-1.398zm0 2.226h1.397v1.435h-1.398zm0 2.226h1.397v1.435h-1.398zm0 2.176h1.397v1.435h-1.398zm0 2.226h1.397v1.435h-1.398zm0 2.226h1.397v1.435h-1.398zm0 2.226h1.397V23.5h-1.398zm0 2.177h1.397v1.434h-1.398zm0 2.226h1.397V27.9h-1.398zm0 2.226h1.397v1.434h-1.398zm0 2.176h1.397v1.435h-1.398zm0 2.226h1.397v1.435h-1.398zm0 2.226h1.397v1.435h-1.398zM19.5 10.984h1.397v1.435h-1.397zm0 2.226h1.397v1.435h-1.397zm0 2.176h1.397v1.435h-1.397zm0 2.226h1.397v1.435h-1.397zm0 2.226h1.397v1.435h-1.397zm0 2.226h1.397V23.5h-1.397zm0 2.177h1.397v1.434h-1.397zm0 2.226h1.397V27.9h-1.397zm0 2.226h1.397v1.434h-1.397zm0 2.176h1.397v1.435h-1.397zm0 2.226h1.397v1.435h-1.397zm0 2.226h1.397v1.435h-1.397zm0 2.226h1.397v1.434h-1.397zM21.67 8.758h1.398v1.435H21.67zm0 2.226h1.398v1.435H21.67zm0 2.226h1.398v1.435H21.67zm0 2.176h1.398v1.435H21.67zm0 2.226h1.398v1.435H21.67zm0 2.226h1.398v1.435H21.67zm0 2.226h1.398V23.5H21.67zm0 2.177h1.398v1.434H21.67zm0 2.226h1.398V27.9H21.67zm0 2.226h1.398v1.434H21.67zm0 2.176h1.398v1.435H21.67zm0 2.226h1.398v1.435H21.67zm0 2.226h1.398v1.435H21.67zm0 2.226h1.398v1.434H21.67zm2.12-33.191h1.399V5.79H23.79zm0 2.226h1.399v1.434H23.79zm0 2.176h1.399v1.435H23.79zm0 2.226h1.399v1.435H23.79zm0 2.226h1.399v1.435H23.79zm0 2.176h1.399v1.435H23.79zm0 2.226h1.399v1.435H23.79zm0 2.226h1.399v1.435H23.79zm0 2.226h1.399V23.5H23.79zm0 8.805h1.399v1.435H23.79zm0 2.226h1.399v1.435H23.79zm0 2.226h1.399v1.435H23.79zm0 2.226h1.399v1.434H23.79zm2.17-33.191h1.398V5.79H25.96zm0 2.226h1.398v1.434H25.96zm0 2.176h1.398v1.435H25.96zm0 2.226h1.398v1.435H25.96zm0 2.226h1.398v1.435H25.96zm0 2.176h1.398v1.435H25.96zm0 2.226h1.398v1.435H25.96zm0 2.226h1.398v1.435H25.96zm0 2.226h1.398V23.5H25.96zm0 2.177h1.398v1.434H25.96zm0 2.226h1.398V27.9H25.96zm0 4.402h1.398v1.435H25.96zm0 2.226h1.398v1.435H25.96zm0 2.226h1.398v1.435H25.96zm0 2.226h1.398v1.434H25.96zm0 2.176h1.398v1.435H25.96zm2.169-33.141h1.398v1.434h-1.398zm0 2.176h1.398v1.435h-1.398zm0 2.226h1.398v1.435h-1.398zm0 2.226h1.398v1.435h-1.398zm0 2.176h1.398v1.435h-1.398zm0 4.452h1.398v1.435h-1.398zm0 2.226h1.398V23.5h-1.398zm0 2.177h1.398v1.434h-1.398zm0 2.226h1.398V27.9h-1.398zm0 2.226h1.398v1.434h-1.398zm0 2.176h1.398v1.435h-1.398zm0 4.452h1.398v1.435h-1.398zm0 2.226h1.398v1.434h-1.398zm2.12-28.789h1.399v1.435H30.25zm0 2.226h1.399v1.435H30.25zm0 2.226h1.399v1.435H30.25zm0 2.176h1.399v1.435H30.25zm0 2.226h1.399v1.435H30.25zm0 2.226h1.399v1.435H30.25zm0 2.226h1.399V23.5H30.25zm0 2.177h1.399v1.434H30.25zm0 2.226h1.399V27.9H30.25zm0 2.226h1.399v1.434H30.25zm0 2.176h1.399v1.435H30.25zm0 2.226h1.399v1.435H30.25zm0 2.226h1.399v1.435H30.25zm0 2.226h1.399v1.434H30.25zm2.17-24.337h1.398v1.435h-1.398zm0 2.176h1.398v1.435h-1.398zm0 2.226h1.398v1.435h-1.398zm0 2.226h1.398v1.435h-1.398zm0 2.226h1.398V23.5h-1.398zm0 2.177h1.398v1.434h-1.398zm2.17-6.629h1.397v1.435h-1.398zm0 2.226h1.397v1.435h-1.398zM23.79 24.241h1.398v1.434H23.79zm2.169 4.452h1.398v1.434H25.96zm2.169 4.402h1.398v1.435h-1.398zm4.29-22.11h1.398v1.434h-1.398z" style="stroke-width:.488302;fill:#fc0;enable-background:new"/><path d="m48.085 17.563-3.182 7.47-.289-7.47H39.94l-2.266 11.03h2.603l1.784-9.348.578 9.349h2.7l4.386-9.25-1.977 9.25h2.844l2.17-11.08zm11.569-.297c-.772 0-2.893.1-4.531 1.534-1.64 1.385-2.218 3.61-2.362 4.353-.82 4.105 1.494 5.738 4.386 5.738 2.555 0 5.88-1.336 6.748-5.738.579-2.721.049-5.887-4.241-5.887zm1.253 5.788c-.338 1.533-1.06 3.561-3.23 3.561-1.976 0-2.12-1.731-1.783-3.512.385-1.88 1.253-3.66 3.23-3.66.674 0 1.3.198 1.638.791.241.495.434 1.286.145 2.82zm10.797-.149c.579-.148 2.41-.593 2.796-2.523.193-.989-.145-1.582-.434-1.88-.82-.89-2.169-.89-3.519-.89h-4.29l-2.265 10.982h4.772c.964 0 2.073 0 2.989-.445 1.301-.644 1.831-1.633 1.976-2.523.482-2.276-1.398-2.622-2.025-2.72zm-.916 2.375c-.24 1.286-1.446 1.286-1.783 1.286h-1.639l.53-2.622h1.543c.385 0 1.59 0 1.35 1.336zm.675-4.502c-.096.495-.385.89-.771 1.088-.29.149-.578.149-1.06.149h-1.398l.482-2.473h1.639c.337 0 .626 0 .915.247.241.247.29.643.193.99zm5.206-3.215-2.217 11.03h3.037l2.217-11.03zm12.003 1.336c-.772-.89-2.025-1.336-4.001-1.336-1.06 0-2.073.099-2.94.247L79.61 28.396c.674.099 1.494.148 2.458.148 2.024 0 3.76-.544 4.965-1.533 1.205-.99 2.024-2.424 2.362-4.205.337-1.78.048-3.017-.723-3.907zm-.723 3.957c-.579 2.918-2.507 4.6-5.399 4.6-.53 0-1.012 0-1.35-.099l1.687-8.508c.386-.099.916-.148 1.64-.148 2.843-.05 3.952 1.583 3.422 4.155zm6.073-5.244-5.736 10.833h1.398l1.783-3.413h3.76l.434 3.413h1.446l-1.446-10.833zm-2.072 6.332 1.638-3.116c.338-.643.627-1.336.916-1.979h.048c.049.643.049 1.286.145 1.979l.386 3.116zm13.737-6.332h-7.809l-.24 1.188h3.23l-1.93 9.645h1.35l1.929-9.645h3.23zm2.652 0-5.737 10.833H104l1.784-3.413h3.76l.433 3.413h1.446l-1.446-10.833zm-2.073 6.332 1.639-3.116c.337-.643.626-1.336.916-1.979h.048c.048.643.048 1.286.144 1.979l.386 3.116zm12.725-6.381c-.964 0-1.928.099-2.506.247l-2.17 10.586c.435.05 1.158.148 2.073.148 1.736 0 2.989-.297 3.857-.989.626-.544 1.156-1.237 1.35-2.177.337-1.582-.676-2.473-1.64-2.72v-.05c1.205-.395 2.073-1.335 2.266-2.374.145-.84-.048-1.484-.482-1.93-.579-.494-1.398-.741-2.748-.741zm1.109 7.815c-.29 1.583-1.735 2.078-3.133 2.078-.482 0-.868 0-1.109-.05l.82-4.105h1.108c1.543-.05 2.651.594 2.314 2.077zm.675-4.996c-.193 1.04-1.205 1.83-2.651 1.83h-1.254l.723-3.462c.241-.05.579-.099 1.206-.099 1.397-.05 2.265.495 1.976 1.732zm13.882-2.77-2.506 5.442c-.579 1.335-1.157 2.572-1.591 3.759h-.048c.096-1.138.048-2.424 0-3.71l-.193-5.49h-1.446l-2.507 5.44c-.626 1.386-1.205 2.672-1.639 3.76h-.048c0-1.039 0-2.374-.048-3.76l-.144-5.49h-1.447l.482 10.833h1.447l2.65-5.64c.675-1.384 1.11-2.472 1.543-3.511h.048c-.096 1.088-.048 2.127 0 3.512l.193 5.639h1.446l5.158-10.833h-1.35z" style="stroke-width:.488302;fill:#3a4044"/><path d="M49.194 33.837zm-1.447-.297c-.192 0-1.06.1-1.156.149 0-.149-.049-.396-.097-.495.097.099.386.297.482.198.097-.1.145-.247.145-.495-.145.198-.29.149-.338-.099 0 .05.482.05.53.05.193 0 .434-.05.58-.198.096-.099.144-.198.144-.297.048-.148 0-.396-.048-.544-.049.099-.049.247-.097.346-.048.1-.096.198-.193.297-.096.099-.289.148-.434.148-.144 0-.289 0-.433-.049.048-.05.048-.148.096-.198.048-.05.145-.05.193-.05.048.05.096.1.096.149.048-.198.097-.445.145-.643v-.05c0-.049-.048-.049-.097-.049-.626-.346-1.397-.495-2.072-.297 0 0-.434-.148-.627-.148 0 .247.145.346.145.346-.29.148-.627.99-.675 1.534-.53.247-1.543.84-3.712-.05a4.087 4.087 0 0 0-1.35-.247c-.337 0-.674.05-.963.05-.29-.05-.579-.248-.483-.594.049-.347.386-.495.675-.545.338-.049.723 0 1.013.1.77.247 1.542.593 2.313.89.29.099.579.198.916.198.29 0 .627-.1.868-.297.24-.198.337-.544.24-.841-.096-.346-.481-.544-.819-.693h-.144c0 .05 0 .05.048.1.096.148.241.346.29.494.096.297-.097.594-.338.742-.241.099-.482.05-.723 0-1.013-.297-1.88-.84-2.892-1.039-.193-.05-.434-.05-.627-.05-.434 0-.964.199-1.205.644-.097.247-.145.544-.048.791.096.198.289.445.482.445-.29.396-.579 1.435-.627 1.781l-.916.297.048 1.336h1.64s.192-.545-.772-.644c.434-.098 1.494-.741 1.832-1.088.53.643.867 1.732.867 1.732h1.929s.24-.594-1.206-.693c0-.495-.048-1.187-.048-1.484.771.05 1.543 1.286 3.52 1.286 0 .05.047.198.047.198.53.198 2.121.643 2.362.643h2.362c0-.148.145-.643-1.301-.544-.241-.247-.868-.643-1.06-.742.481-.247 1.686-.94 1.927-1.286 0-.346.241-.594.916-.297.145-.643-.916-.94-1.35-.198zm3.23 3.117h.386l.916-5.293h-.386zm6.218-1.83c-.193-.693-1.012-2.622-1.494-3.463h-.964l-.916 5.293h.964l.627-3.66c.385.741 1.157 2.72 1.446 3.66h.964l.916-5.293h-.964zm1.64 1.83h3.229l.144-.89H60.04l.193-1.386h1.88l.145-.89h-1.832l.193-1.237h2.169l.193-.89h-3.23zm7.181-1.93c-.144.742-.482 1.138-1.06 1.138-.434 0-.723-.247-.723-.791 0-.1 0-.297.048-.544l.53-3.216h-1.06l-.53 3.216c-.049.247-.049.445-.049.643 0 .989.723 1.533 1.688 1.533 1.156 0 1.88-.643 2.12-1.979l.579-3.413h-.964zm1.64 1.93h3.229l.144-.89H68.86l.241-1.386h1.832l.145-.89h-1.832l.193-1.237h2.169l.193-.89h-3.23zm8.194-2.276c-.097-.791-.338-2.325-.627-3.017H73.97l-1.109 5.293h1.012l.82-3.859c.193.742.386 1.88.482 2.87h1.012c.434-.99 1.012-2.128 1.494-2.87l-.482 3.859h1.013l.626-5.293h-1.35c-.481.692-1.3 2.226-1.638 3.017zm5.977-3.116c-1.735 0-2.7 1.632-2.7 3.462 0 1.188.675 2.029 1.88 2.029 1.736 0 2.7-1.633 2.7-3.463 0-1.237-.675-2.028-1.88-2.028zm-.723 4.6c-.627 0-.868-.495-.868-1.138 0-1.088.434-2.522 1.543-2.522.675 0 .867.494.867 1.137-.048 1.089-.482 2.523-1.542 2.523zm6.893-3.265c0-.84-.579-1.286-1.784-1.286-.433 0-1.253.05-1.446.1l-.916 5.243c.386.05.82.099 1.543.099 1.735 0 2.41-.693 2.41-1.781 0-.544-.29-.94-.771-1.088.53-.149.964-.693.964-1.287zm-2.217 3.216h-.675l.24-1.435h.531c.675 0 .916.248.916.594 0 .494-.338.84-1.012.84zm.096-2.325h-.434l.193-1.286c.145 0 .29-.05.482-.05.53 0 .771.149.771.495.048.544-.289.84-1.012.84zm2.555 3.166h1.012l.916-5.293h-1.012zm4.097-5.293h-1.06l-.868 5.293h2.796l.144-.94h-1.783zm1.494 5.293h1.06L96 31.364h-1.06zm6.363-5.293h-3.663l-.145.94h1.302l-.724 4.353h1.013l.771-4.353h1.301zm1.398 0c-.482.84-2.025 3.957-2.507 5.293h1.11c.144-.396.337-.792.53-1.237h1.686c.048.445.048.84.048 1.237h1.06c-.047-1.336-.481-4.452-.722-5.293h-1.205zm-.53 3.116c.289-.692.723-1.583.964-2.077.096.494.193 1.385.24 2.077zm2.072-4.7c-.289 0-.53.248-.53.545 0 .297.241.544.53.544.29 0 .53-.247.53-.544a.542.542 0 0 0-.53-.544zm-1.542 1.09c.29 0 .53-.248.53-.545a.542.542 0 0 0-.53-.544c-.29 0-.53.247-.53.544 0 .297.24.544.53.544zm2.507.494-.193.94h1.301l-.723 4.353h1.012l.772-4.353h1.301l.193-.94z" style="stroke-width:.488302;fill:#006eaf"/></svg>