<svg id="Ebene_1" version="1.1" width="800" height="320" xmlns="http://www.w3.org/2000/svg"><defs id="defs141"><style id="style139">.cls-1{fill:#0070ae}</style></defs><path d="M0 0h800v320H0z" fill="#fff" style="clip-rule:evenodd;fill-rule:evenodd;stroke-width:.8;stroke-linejoin:round;stroke-miterlimit:2" id="path2"/><path class="cls-1" d="M484.164 188.333c-.777-10.1-9.29-17.965-19.422-17.965h-2.46v-31.01c0-16.8-13.66-30.491-30.491-30.491H326.33c-16.799 0-30.49 13.66-30.49 30.491v31.01h-2.46c-10.747 0-19.487 8.74-19.487 19.486v8.772c0 10.747 8.74 19.486 19.486 19.486h2.46v59.592c0 8.384 5.341 15.764 13.174 18.45v7.899c0 8.319 6.766 15.116 15.117 15.116h17.576c8.32 0 15.117-6.765 15.117-15.116v-6.863h44.475v6.863c0 8.319 6.765 15.116 15.116 15.116h17.577c8.319 0 15.116-6.765 15.116-15.116v-7.898a19.505 19.505 0 0 0 13.174-18.45v-59.593h2.46c8.158 0 15.505-5.146 18.29-12.785.129-.292.226-.615.323-.907a19.198 19.198 0 0 0 .874-5.761v-9.614c0-.227 0-.453-.065-.712zm-12.56 1.521v8.805a6.866 6.866 0 0 1-6.861 6.862h-2.46v-22.53h2.46a6.866 6.866 0 0 1 6.862 6.863zm-35.152 107.401v6.862c0 1.36-1.1 2.46-2.46 2.46h-17.577c-1.36 0-2.46-1.1-2.46-2.46v-6.862zm-92.252 0v6.862c0 1.36-1.1 2.46-2.46 2.46h-17.577c-1.36 0-2.46-1.1-2.46-2.46v-6.862zm18.385-140.547c1.23 0 2.493-.032 3.885-.032h25.28c1.262 0 2.492 0 3.787.032 18.58.453 36.772 4.176 54.057 11.038v48.65c-18.483 7.349-37.97 11.104-57.909 11.104H366.34c-19.94 0-39.393-3.723-57.908-11.103v-48.651c17.285-6.895 35.476-10.585 54.089-11.038zm29.036-12.689h-25.313c-1.457 0-2.687 0-3.82.033-1.165 0-2.233.065-3.43.13a168.484 168.484 0 0 0-50.561 10.034v-14.858c0-9.84 7.995-17.835 17.835-17.835h105.426c9.84 0 17.836 7.995 17.836 17.835v14.858a168.484 168.484 0 0 0-50.56-10.035 128.8 128.8 0 0 0-3.464-.13c-1.133 0-2.331-.032-4.014-.032zm.097 96.105c19.874 0 39.328-3.432 57.908-10.197v47.81a6.866 6.866 0 0 1-6.862 6.862H315.359a6.866 6.866 0 0 1-6.863-6.863v-47.809c18.58 6.765 38.034 10.197 57.909 10.197h25.345zm-105.2-50.237a6.866 6.866 0 0 1 6.862-6.863h2.46v22.53h-2.46a6.866 6.866 0 0 1-6.862-6.863v-8.772z" id="path143" style="stroke-width:3.23692"/><path class="cls-1" d="M332.935 277.866c-8.545 0-15.505-6.96-15.505-15.505 0-8.545 6.96-15.472 15.505-15.472 8.546 0 15.473 6.959 15.473 15.472s-6.96 15.505-15.473 15.505zm0-18.353a2.853 2.853 0 0 0-2.848 2.848c0 1.554 1.294 2.849 2.848 2.849 1.554 0 2.849-1.295 2.849-2.849 0-1.554-1.295-2.848-2.849-2.848z" id="path145" style="stroke-width:3.23692"/><path class="cls-1" d="M425.187 277.866c-8.545 0-15.504-6.96-15.504-15.505 0-8.545 6.959-15.472 15.504-15.472 8.546 0 15.473 6.959 15.473 15.472s-6.96 15.505-15.473 15.505zm0-18.353a2.853 2.853 0 0 0-2.848 2.848c0 1.554 1.295 2.849 2.848 2.849 1.554 0 2.849-1.295 2.849-2.849 0-1.554-1.295-2.848-2.849-2.848z" id="path147" style="stroke-width:3.23692"/><path d="M454.223 171.048c46.87 0 84.871-38.002 84.871-84.872s-38-84.872-84.871-84.872c-46.871 0-84.872 38.001-84.872 84.872 0 46.87 38 84.872 84.872 84.872zm0 0" id="path149" style="stroke-width:3.23692;fill:#fc0;fill-rule:evenodd"/><path class="cls-1" d="M517.828 47.365c-1.262-1.262-3.205-2.784-5.211-2.784-1.23 0-2.396.583-3.593 1.78l-69.886 69.886-1.715 1.715-1.716-1.715-37.062-37.03c-1.198-1.198-2.363-1.749-3.658-1.749-1.554 0-3.237.842-4.758 2.396-1.684 1.683-4.014 5.05-.615 8.448l44.67 44.67c1.164 1.165 2.362 1.715 3.657 1.715H438.523c1.263 0 2.428-.583 3.593-1.748l.55-.55.065-.065v-.032L518.8 56.234c1.068-1.068 3.917-3.916-1.003-8.804z" id="path151" style="stroke-width:3.23692"/></svg>