<svg width="800" height="320" xmlns="http://www.w3.org/2000/svg"><path d="M0 0h800v320H0z" fill="#fff" style="clip-rule:evenodd;fill-rule:evenodd;stroke-width:.8;stroke-linejoin:round;stroke-miterlimit:2"/><path d="M399.619 453.831c-1.257.055-2.547.553-3.719 1.719-20.602 20.489-29.385 35.607-39.969 63.344-2.437-8.116-5.69-15.088-8.562-20.344-3.825-6.998-7.063-11.094-7.063-11.094-4.648-5.954-13.586 1.014-8.937 6.969 7.084 9.138 13.072 23.32 15.406 34.406.597 2.836 1.195 6.335 1.844 8.375 2.228 7.009 10.36 7.85 13.031-.469 7.542-23.49 17.152-45.603 33.688-64.062 4.695-5.24 8.562-9.063 8.562-9.063 4.184-4.163.206-9.977-4.281-9.781zm-13.844 101.906-5.406 1.032v10.437s-1.051-2.812-3.469-2.812c-4.945 0-6.062 4.337-6.062 8.437 0 4.032 1.365 8.406 5.687 8.406 2.967 0 3.844-2.968 3.844-2.968v3.28l5.406-1.093zm59.594 0-5.469 1.094v24.719l5.406-1.063v-10.156c0-1.95.66-2.969 2.125-2.969 1.355 0 2.125.885 2.125 2.969v10.219h5.438V570.33c0-2.654-1.186-5.656-4.813-5.656-1.977 0-4.153 1.323-4.812 2.5zm168.281.657-3 .593V580.8l3-.594zm-72.531.03-3.031.563v23.563h14.906v-2.782h-11.875zm64.187 0-3.03.563v10.969c-.697-1.41-2.255-3.563-4.782-3.563-4.652 0-7.125 4.203-7.125 8.438 0 4.233 2.493 8.406 7.219 8.406 2.417 0 4.138-2.13 4.687-3.844v3.407l3.031-.532zm-328.687.188-9.469.719v23.219h10.75c3.846 0 6.938-2.85 6.938-6.344 0-3.293-1.326-4.826-4-5.969 1.758-1.344 2.78-3.116 2.78-5.469 0-3.728-3.3-6.39-7-6.156zm133.875 0-9.469.719v23.219h10.75c3.846 0 6.938-2.85 6.938-6.344 0-3.293-1.326-4.826-4-5.969 1.758-1.344 2.78-3.116 2.78-5.469 0-3.728-3.3-6.39-7-6.156zm-137.969 2.719h2.875c2.125 0 3.813 1.414 3.813 3.531 0 2.15-1.2 3.906-3.25 3.906h-3.438zm133.875 0h2.906c2.125 0 3.813 1.414 3.813 3.531 0 2.15-1.23 3.906-3.281 3.906H406.4zm84.969.219c-.733 0-1.344.578-1.344 1.25s.61 1.219 1.344 1.219c.732 0 1.344-.547 1.344-1.22 0-.671-.612-1.25-1.344-1.25zm169.969 0c-.733 0-1.344.578-1.344 1.25s.611 1.219 1.344 1.219c.733 0 1.375-.547 1.375-1.22 0-.671-.642-1.25-1.375-1.25zm-358.157 4.156-5.468 1.094v10.125c0 2.62-.686 3.25-2.188 3.25-1.392 0-2.031-.63-2.031-3.25v-10.25h-5.438v10.25c0 4.032 2.161 6.187 5.75 6.187 1.356 0 3.907-1.517 3.907-3.062v2.719l6.312-1.375-.844-1.22zm44.094 0-5.5 1.094v10.125c0 2.62-.654 3.25-2.156 3.25-1.392 0-2.063-.63-2.063-3.25v-10.25h-5.406v10.25c0 4.032 2.161 6.187 5.75 6.187 1.356 0 3.875-1.517 3.875-3.062v2.719l6.344-1.375-.844-1.22zm-34.969.5c-2.673 0-5.187 1.992-5.187 4.781 0 2.789 1.796 4.086 4.25 5.094 1.758.706 3.25 1.456 3.25 2.969 0 .907-.642 1.812-2.656 1.812-1.356 0-3.611-.522-4.563-1.093v1.375c.88 1.176 2.782 2.218 4.906 2.218 3.004 0 6.125-1.65 6.125-5.312 0-3.226-2.115-5.022-5.375-6.031-1.685-.504-2.375-1.096-2.375-1.97 0-.873.796-1.468 2.188-1.468 1.721 0 3.187.469 3.187.469v-1.219c-1.135-1.21-2.65-1.625-3.75-1.625zm359.407 0c-2.894 0-4.844 1.884-4.844 4.438 0 2.486 1.668 3.643 4.562 4.718 2.161.807 3.125 1.565 3.125 2.875 0 1.546-1.066 2.719-3.593 2.719-1.173 0-2.5-.481-3.782-1.187v1.375c.88 1.176 2.407 2.218 4.532 2.218 3.15 0 5.562-1.911 5.562-4.968 0-2.823-2.062-4.321-4.406-5.094-2.418-.807-3.344-1.605-3.344-2.781 0-1.378 1.442-2 2.688-2 1.355 0 2.193.162 3.218.53v-1.218a5.183 5.183 0 0 0-3.718-1.625zm-22.72.156c-4.578 0-7.405 4.176-7.405 8.375 0 4.234 2.352 8.469 7.406 8.469 2.015 0 3.49-.781 4.625-2.125V577.8c-1.282.672-2.404 1.156-4.125 1.156-3.187 0-4.781-3.212-4.781-5.531l10.937-1.344c0-3.998-2.26-7.719-6.656-7.719zm-221.5.031c-1.51.119-2.939.656-4.093 1.625v2.22c.88-.773 2.052-1.438 3.188-1.438 1.867 0 2.843 1.224 2.843 2.937v1.094l-2.218.281c-3.92.471-6.375 2.19-6.375 5.281 0 3.025 3.13 4.844 6.28 4.844 2.052 0 3.506-.651 4.75-2.062l3.782 1.375-.75-2.782v-8.156c0-3.26-2.647-5.219-6.75-5.219-.22 0-.44-.016-.656 0zm133.876 0c-1.685 0-3.629.761-5.094 1.938v1.906c1.795-1.04 2.558-1.312 4.719-1.312 2.308 0 3.844 1.412 3.844 3.125v.781l-4.75.375c-3.92.301-6.375 2.13-6.375 5.187 0 2.99 2.908 4.844 5.875 4.844 1.832 0 3.33-.651 5.125-2.062l3.812 1.375-.75-2.782v-7.812c0-3.495-2.487-5.563-6.406-5.563zm-203.719.094-5.406.688v16.375l5.344-1.094V570.33c0-1.95.66-2.969 2.125-2.969 1.355 0 2.125.885 2.125 2.969v10.25h5.437v-10.25c0-2.654-1.186-5.656-4.812-5.656-1.978 0-4.153 1.323-4.813 2.5zm107.25 0-5.406.688v16.375l5.344-1.094V570.33c0-1.95.66-2.969 2.125-2.969 1.355 0 2.125.885 2.125 2.969v10.25h5.437v-10.25c0-2.654-1.186-5.656-4.812-5.656-1.979 0-4.153 1.323-4.813 2.5zm36.406 0-3 .594v16.062l3-.562v-9.188c0-2.318 2.182-4.25 4.563-4.25 2.272 0 3.219 1.097 3.219 3.282v10.156h3.062v-10.25c0-2.05 2.292-3.25 4.344-3.25 2.49 0 3.406 1.134 3.406 3.25v10.25h3.063v-10.25c0-3.931-2.644-5.75-5.282-5.75-2.344 0-4.623 1.268-5.906 3.25-.879-2.117-2.937-3.25-5.281-3.25-2.418 0-4.491 1.99-5.188 3.906zm74.344 0-3 .594v16.062l3-.562v-9.188c0-2.318 2.04-4.25 4.531-4.25 2.235 0 3.282 1.15 3.282 3.032v10.406h3.03v-11.063c0-2.722-2.37-4.937-5.374-4.937-2.894 0-4.7 1.993-5.469 3.875zm-82.687.469-4.782.812.438 1.875h1.219v13.125l3.125-.562zm128.906 0-8.125 6.75 8.344 8.844h4.218l-8.468-8.532 8.375-7.062zm15.625 0c-2.381.065-3.763 3.064-4.313 4.375v-4.344l-4.78.813.405 1.875h1.22v13.093l3.155-.562v-8.5c0-2.15 1.952-3.75 4.407-3.75.732 0 .995-.051 2.093.5v-3.188c-.805-.268-1.345-.345-2.187-.312zm25.437 0-4.78.812.437 1.875h1.218v13.125l3.125-.562zm-13.937 1.875c2.308 0 4.094 2.115 4.094 3.594l-8.313.937c0-1.881 1.765-4.531 4.219-4.531zm-270.5.219c1.025 0 1.875 1.836 1.875 3.28v5.032c0 1.445-.85 3.344-1.875 3.344-1.612 0-1.75-3.43-1.75-5.781 0-2.353.21-5.875 1.75-5.875zm219.312 0c2.38 0 4.47 1.227 4.47 3.343v4.47c0 2.184-2.09 3.843-4.47 3.843-3.04 0-4.468-3.12-4.468-5.875 0-2.756 1.465-5.781 4.468-5.781zm-325.28 2.375h2.374c2.637 0 4.656 2.11 4.656 4.562 0 2.05-1.64 3.781-3.875 3.781h-3.156zm133.874 0h2.375c2.637 0 4.656 2.11 4.656 4.562 0 2.05-1.64 3.781-3.875 3.781H406.4zm158.313 2.78v4.626c-1.173.873-2.516 1.844-4.75 1.844-2.051 0-3.344-1.046-3.344-2.625 0-2.554 2.203-3.363 4.437-3.532zm-135.407.188v4.97c-.18.738-.871 1.312-1.53 1.312-.99 0-1.532-.736-1.532-2.282 0-2.755 1.09-3.774 1.969-3.875zm-156.75 22.782c-3.626 0-6.656 2.97-6.656 6.062 0 7.493 11.406 6.516 11.406 12.094 0 2.352-2.112 4.438-4.75 4.438-3.297 0-4.472-.41-5.937-1.688v1.469c1.538 1.881 3.336 2.75 5.937 2.75 4.469 0 7.594-3.172 7.594-6.969 0-7.695-11.312-7.289-11.312-12.094 0-1.78 1.704-3.343 3.718-3.343 2.418 0 3.34.244 5.282 1.218v-1.375c-.843-1.21-3.194-2.562-5.282-2.562zm174.813.437-3.063.625v23.813l3.063-.594v-10.781h9.187v11.094h3v-23.907h-3v10.157h-9.187zm-84.188.031-3 .625v23.938l3-.688v-2.906c.55 1.714 2.27 3.875 4.688 3.875 4.725 0 7.219-4.204 7.219-8.437 0-4.234-2.473-8.438-7.125-8.438-2.528 0-4.086 2.152-4.782 3.563zm122.47.22-4.657.905.562 1.782h1.094v21.218h3zm9.437 0-4.625.905.53 1.782h1.095v21.218h3zm-193.5.093-3 .656v23.781l3-.562v-9.188c0-2.319 2.04-4.28 4.53-4.28 2.235 0 3.25 1.149 3.25 3.03v10.375h3.063v-11c0-2.72-2.403-4.937-5.406-4.937-2.894 0-4.669 1.962-5.437 3.844zm116.593 0-3.03.656v23.781l3.03-.562v-9.188c0-2.319 2.041-4.28 4.532-4.28 2.234 0 3.25 1.149 3.25 3.03v10.375h3.03v-11c0-2.72-2.371-4.937-5.374-4.937-2.894 0-4.668 1.962-5.438 3.844zm-36.78 2.812c-.733 0-1.376.578-1.376 1.25s.643 1.25 1.375 1.25c.733 0 1.344-.578 1.344-1.25s-.611-1.25-1.344-1.25zm-35.97.313c-1.026 0-1.843.777-1.843 1.719 0 .94.817 1.687 1.843 1.687s1.875-.747 1.875-1.687c0-.942-.85-1.72-1.875-1.72zm6.782 0c-1.026 0-1.875.777-1.875 1.719 0 .94.85 1.687 1.875 1.687s1.875-.747 1.875-1.687c0-.942-.85-1.72-1.875-1.72zm-24.282 4.25-2.53 1.187.312.72-3.72 9.062-4.25-10.094h-3.124l7.469 16.281 5.312-11.594 5.313 11.594 7.593-16.281h-3.468l-4.25 10.094-4.657-10.969zm63.813.125c-2.894 0-4.813 1.884-4.813 4.437 0 2.488 1.638 3.613 4.532 4.688 2.161.806 3.156 1.596 3.156 2.906 0 1.547-1.066 2.719-3.594 2.719-1.172 0-2.53-.513-3.812-1.219v1.375c.879 1.175 2.407 2.219 4.53 2.219 3.151 0 5.563-1.91 5.563-4.969 0-2.823-2.03-4.288-4.375-5.062-2.417-.806-3.375-1.636-3.375-2.813 0-1.377 1.474-1.969 2.72-1.969 1.355 0 2.192.13 3.218.5v-1.218c-1.136-1.21-2.65-1.594-3.75-1.594zm-101.031.156c-4.615 0-7.5 4.204-7.5 8.438 0 4.099 2.513 8.406 7.53 8.406 1.612 0 2.887-.77 3.876-1.813v-1.218s-1.7.625-3.531.625c-3.188 0-4.813-3.278-4.813-6 0-2.755 1.625-5.938 4.813-5.938 1.83 0 3.53.594 3.53.594v-1.219c-1.134-1.21-2.403-1.875-3.905-1.875zm58.187 0c-1.685 0-3.628.792-5.094 1.969v1.906c1.796-1.042 2.558-1.312 4.72-1.312 2.306 0 3.843 1.41 3.843 3.125v.78l-4.75.376c-3.92.301-6.375 2.098-6.375 5.156 0 2.99 2.939 4.875 5.906 4.875 1.831 0 3.33-.682 5.125-2.094l3.813 1.375-.782-2.78v-7.782c0-3.494-2.487-5.594-6.406-5.594zm58.375 0c-4.615 0-7.469 4.204-7.469 8.438 0 4.099 2.513 8.406 7.532 8.406 1.61 0 2.886-.77 3.875-1.813v-1.218s-1.7.625-3.532.625c-3.186 0-4.812-3.278-4.812-6 0-2.755 1.626-5.938 4.812-5.938 1.832 0 3.532.594 3.532.594v-1.219c-1.136-1.21-2.436-1.875-3.938-1.875zm63.719 0c-1.685 0-3.629.792-5.094 1.969v1.906c1.795-1.042 2.558-1.312 4.719-1.312 2.308 0 3.844 1.41 3.844 3.125v.78l-4.75.376c-3.92.301-6.375 2.098-6.375 5.156 0 2.99 2.939 4.875 5.906 4.875 1.83 0 3.33-.682 5.125-2.094l3.812 1.375-.78-2.78v-7.782c0-3.494-2.488-5.594-6.407-5.594zm-88.031.594-4.75.781.437 1.906h1.188v13.125l3.125-.562zm-15.313 2.062c3.004 0 4.469 3.027 4.469 5.782s-1.429 5.875-4.469 5.875c-2.38 0-4.469-1.63-4.469-3.813v-4.469c0-2.116 2.088-3.375 4.47-3.375zm-15.375 5.188v4.594c-1.172.874-2.547 1.843-4.781 1.843-2.051 0-3.313-1.045-3.313-2.625 0-2.553 2.172-3.364 4.407-3.53zm122.094 0v4.594c-1.172.874-2.547 1.843-4.781 1.843-2.051 0-3.313-1.045-3.313-2.625 0-2.553 2.203-3.364 4.438-3.53z" style="fill:#74a41a;fill-opacity:1;fill-rule:evenodd;stroke:none" transform="matrix(1.21738 0 0 1.21738 -25.807 -485.207)"/><path d="M80.838 444.144c-.993.002-1.998.01-3 .062-32.082 1.678-56.717 29.043-55.032 61.125 1.686 32.083 29.043 56.74 61.125 55.063 32.082-1.677 56.718-29.043 55.032-61.125-1.634-31.08-27.35-55.175-58.125-55.125zm469.156 29.28-12.625 2.72v62.375l12.531-2.72v-25.593c0-4.915 1.517-7.469 4.906-7.469 3.136 0 4.938 2.215 4.938 7.469v25.75h12.531v-25.75c0-6.694-2.705-14.25-11.094-14.25-4.575 0-9.662 3.315-11.187 6.281zm-81.656.094-12.47 2.532v62.468l12.47-2.812zm-299.375.594-12.438 2.969v58.875h12.438zm24.062 1.531-23.562 29.063 25.687 33.812 11.344-8.562-23.719-30.25 19.5-24.063zm98.75 2.438c-2.119 0-3.906 1.788-3.906 3.906 0 2.12 1.787 3.813 3.906 3.813 2.118 0 3.906-1.694 3.906-3.813 0-2.118-1.788-3.906-3.906-3.906zm-65.625 16.344-16.281 4.25 1.031 4.75h2.781v34.656l12.47-3.719v-20.781c0-5.423 3.54-5.915 4.812-6 4.237-.167 9.062 5 9.062 5v-16.969s-1.163-.75-3.875-.75c-5.508 0-8.645 9.414-10 12.719zm208.813 0-16.25 4.25 1 4.75h2.812v34.656l12.438-3.719v-20.781c0-5.423 3.572-5.915 4.843-6 4.237-.167 9.063 5 9.063 5v-16.969s-1.195-.75-3.906-.75c-5.508 0-8.645 9.414-10 12.719zm161.03 0-16.28 4.25 1.03 4.75h2.782v34.656l12.469-3.719v-20.781c0-5.423 3.541-5.915 4.812-6 4.237-.167 9.063 5 9.063 5v-16.969s-1.163-.75-3.875-.75c-5.508 0-8.645 9.414-10 12.719zm-276.343.343c-6.185 0-12.031 5-12.031 12.032 0 7.033 4.135 10.364 9.812 12.906 4.068 1.78 7.563 3.624 7.563 7.437 0 2.288-1.527 4.594-6.188 4.594-3.135 0-8.327-1.372-10.53-2.812v3.468c2.033 2.967 6.46 5.594 11.374 5.594 6.948 0 14.156-4.138 14.156-13.375 0-8.134-4.927-12.645-12.468-15.187-3.898-1.27-5.5-2.797-5.5-5s1.842-3.719 5.062-3.719c3.983 0 7.375 1.187 7.375 1.187v-3.062c-2.626-3.05-6.083-4.063-8.625-4.063zm-57.687.344c-10.592 0-17.125 10.596-17.125 21.188 0 10.677 5.431 21.343 17.125 21.343 4.66 0 8.03-2.016 10.656-5.406v-3.219c-2.965 1.695-2.857 2.72-7.094 2.72-3.304 0-7.719-2.312-7.719-13.75l19.563-3.126c0-10.083-5.237-19.75-15.406-19.75zm136.437 0c-10.592 0-17.125 10.596-17.125 21.188 0 10.677 5.431 21.343 17.125 21.343 4.66 0 8.03-2.016 10.656-5.406v-3.219c-2.965 1.695-2.888 2.72-7.125 2.72-3.304 0-7.687-2.312-7.687-13.75l19.562-3.126c0-10.083-5.238-19.75-15.406-19.75zm115.688 0c-10.592 0-17.125 10.596-17.125 21.188 0 10.677 5.431 21.343 17.125 21.343 4.66 0 8.029-2.016 10.656-5.406v-3.219c-2.966 1.695-2.857 2.72-7.094 2.72-3.304 0-7.719-2.312-7.719-13.75l19.563-3.126c0-10.083-5.238-19.75-15.406-19.75zm-215.532.844-16.28 2.719.937 4.75h2.78v35.093l12.563-2.812zm180.532.937-10.5 17.032 8.812 22.281h14.75l-10.75-23.813 10.5-15.5zm-216.625 4.5c3.982 0 5.593 4.662 5.593 9.407l-10.093 1.781c0-6.44 1.703-11.188 4.5-11.188zm136.437 0c3.983 0 5.594 4.662 5.594 9.407L394.4 512.58c0-6.44 1.704-11.188 4.5-11.188zm115.688 0c3.983 0 5.593 4.662 5.593 9.407l-10.093 1.781c0-6.44 1.703-11.188 4.5-11.188z" style="fill:#0058a5;fill-opacity:1;fill-rule:evenodd;stroke:none" transform="matrix(1.21738 0 0 1.21738 -25.807 -485.207)"/><path d="m55.338 459.956-3.688 18.813 7.875-4.72c8.375 12.815 22.792 22.29 39.531 14.126l-2.875-5.938c-12.236 5.968-23.68-.38-31-11.593l8.5-5.094zm60.53 28.594.157 9.187c-15.284.846-30.7 8.579-32 27.157l6.594.468c.95-13.582 12.16-20.299 25.531-21.031l.156 9.906 14.032-13.093zm-56.28 4.906-3.688 5.5c11.287 7.614 11.49 20.68 5.438 32.625l-8.657-4.812 4.344 18.687 18.125-6.219-8.031-4.468c6.908-13.66 7.908-30.897-7.531-41.313z" style="fill:#fff;fill-opacity:1;fill-rule:nonzero;stroke:#fff;stroke-width:1.80079;stroke-linecap:butt;stroke-linejoin:miter;stroke-miterlimit:3.8636;stroke-dasharray:none;stroke-opacity:1" transform="matrix(1.21738 0 0 1.21738 -25.807 -485.207)"/></svg>