<svg id="Ebene_2" data-name="Ebene 2" version="1.1" width="800" height="320" xmlns="http://www.w3.org/2000/svg"><defs id="defs1"><style id="style1">.cls-1{fill:#fff}</style></defs><path d="M0 0h800v320H0z" fill="#fff" style="display:inline;fill:none;stroke-width:.800003" id="path1-8"/><path class="cls-1" d="M247.659 213.571c-13.567 0-24.64-11.765-22.146-26.715l10.846-64.36c1.659-9.963-1.945-18.542-13.566-18.542-6.646 0-11.932 2.219-17.158 5.536a209.234 209.234 0 0 1-1.945 14.95l-11.765 69.61c-2.076 11.933-11.347 19.521-22.277 19.521-13.566 0-24.639-11.765-22.145-26.715l10.739-64.074c1.67-10.25-.824-18.828-12.732-18.828a31.452 31.452 0 0 0-17.432 5.262l-13.984 84.835c-1.933 11.932-11.347 19.52-22.289 19.52-13.554 0-24.627-11.765-22.133-26.715l16.346-97.018c1.384-8.03 4.153-11.347 10.25-15.511a90.05 90.05 0 0 1 49.803-15.213c17.158 0 28.78 4.975 39.03 15.225 12.73-9.689 27.68-15.225 46.223-15.225 31.56 0 57.022 22.42 50.376 63.107l-11.765 71.83c-1.933 11.908-11.478 19.52-22.276 19.52z" id="path1" style="fill:#002236;fill-opacity:1;stroke-width:1.19318"/><path class="cls-1" d="M350.642 49.7c-13.018 0-22.42-9.963-22.42-22.67a24.687 24.687 0 0 1 24.914-24.39c12.457 0 21.632 9.69 21.632 22.146 0 12.457-10.285 24.914-24.126 24.914z" id="path2" style="fill:#002236;fill-opacity:1;stroke-width:1.19318"/><path class="cls-1" d="m364.09 85.686-4.678 29.615h1.933c5.536 0 6.085-.275 11.932-6.36l37.37-39.864c5.536-5.81 11.479-8.579 18.125-8.579a21.084 21.084 0 0 1 21.167 21.167c0 5.13-2.22 11.216-7.756 16.705l-40.413 39.303 29.627 39.59c3.865 4.975 5.81 9.545 5.81 15.356 0 11.49-10.25 20.904-21.596 20.904-6.085 0-13.006-2.219-19.378-11.072l-29.889-41.523c-3.042-4.152-6.371-4.152-11.072-4.152h-2.494l-6.085 37.227a22.969 22.969 0 0 1-22.289 19.52c-13.566 0-24.64-11.764-22.145-26.715l17.42-108.365c1.933-11.931 11.204-19.508 22.277-19.508a22.67 22.67 0 0 1 22.133 26.751z" id="path3" style="fill:#002236;fill-opacity:1;stroke-width:1.19318"/><path class="cls-1" d="M566.047 201.389c-4.152 2.768-22.145 13.566-50.937 13.566-42.954 0-58.68-25.188-58.68-46.534 0-32.932 26.846-47.882 60.064-47.882a86.792 86.792 0 0 1 28.243 4.152l1.658-9.414c1.659-9.104-2.768-15.989-17.993-15.989-9.14 0-17.444 2.482-23.53 3.866a34.9 34.9 0 0 1-8.173.692 18.602 18.602 0 0 1-18.673-18.685c0-8.853 5.524-15.225 14.939-19.09 12.456-4.988 29.066-6.921 39.864-6.921 40.687 0 61.449 24.078 54.803 62.045l-11.347 64.778c-.824 4.618-1.933 9.88-10.238 15.416zm-29.901-27.682 3.281-19.377a61.664 61.664 0 0 0-18.828-3.317c-8.854 0-21.31 3.317-21.31 14.95 0 8.353 6.36 13.28 16.609 13.28a37.287 37.287 0 0 0 20.248-5.536z" id="path4" style="fill:#002236;fill-opacity:1;stroke-width:1.19318"/><path class="cls-1" d="M721.77 84.72a21.358 21.358 0 0 1-21.311 21.477 51.832 51.832 0 0 1-10.798-1.384 52.345 52.345 0 0 0-11.073-1.384c-7.756 0-12.457 4.426-14.115 14.664l-12.326 75.982c-1.933 11.931-11.347 19.52-22.277 19.52-13.566 0-24.639-11.765-22.145-26.715l13.28-78.476c6.228-36.559 25.2-49.29 55.638-49.29a85.181 85.181 0 0 1 29.054 4.701c10.81 3.878 16.072 11.908 16.072 20.905z" id="path5" style="fill:#002236;fill-opacity:1;stroke-width:1.19318"/><path class="cls-1" d="M282.118 286.45a6.24 6.24 0 0 1 5.154-2.958 5.62 5.62 0 0 1 5.68 5.68 7.994 7.994 0 0 1-.537 2.887c-1.718 4.522-7.016 9.736-16.836 9.736-10.44 0-19.246-6.539-18.47-18.78a71.89 71.89 0 0 1 1.563-9.654c2.386-10.285 10.046-15.427 19.472-15.427 8.186 0 14.187 4.438 15.977 8.96a9.355 9.355 0 0 1 .74 3.58 5.966 5.966 0 0 1-5.966 5.966 5.894 5.894 0 0 1-5.143-2.84 6.216 6.216 0 0 0-6.192-3.58c-3.663 0-5.966 2.494-6.933 6.157a43.253 43.253 0 0 0-1.085 7.016 5.966 5.966 0 0 0 6.383 6.539 6.407 6.407 0 0 0 6.193-3.281z" id="path6" style="fill:#002236;fill-opacity:1;stroke-width:1.19318"/><path class="cls-1" d="M328.64 297.977a26.334 26.334 0 0 1-14.318 3.818c-12.075 0-16.526-7.087-16.526-13.125 0-9.271 7.565-13.483 16.92-13.483a24.556 24.556 0 0 1 7.946 1.193l.465-2.649c.466-2.565-.775-4.51-5.07-4.51a28.445 28.445 0 0 0-6.623 1.086 9.891 9.891 0 0 1-2.29.19 5.238 5.238 0 0 1-5.263-5.25c0-2.493 1.551-4.295 4.2-5.38a33.266 33.266 0 0 1 11.204-1.886c11.455 0 17.301 6.778 15.428 17.457l-3.198 18.231a5.691 5.691 0 0 1-2.875 4.308zm-8.424-7.78.943-5.453a17.409 17.409 0 0 0-5.298-.93c-2.494 0-5.966.93-5.966 4.2 0 2.386 1.79 3.746 4.677 3.746a10.464 10.464 0 0 0 5.644-1.563z" id="path7" style="fill:#002236;fill-opacity:1;stroke-width:1.19318"/><path class="cls-1" d="M372.716 265.14a5.966 5.966 0 0 1-5.966 6.038 14.45 14.45 0 0 1-3.043-.394 15.201 15.201 0 0 0-3.114-.382c-2.183 0-3.508 1.194-3.973 4.129l-3.472 21.382a6.336 6.336 0 1 1-12.505-2.017l3.735-22.098c1.754-10.237 7.075-13.817 15.642-13.817a23.864 23.864 0 0 1 8.186 1.325 6.169 6.169 0 0 1 4.51 5.834z" id="path8" style="fill:#002236;fill-opacity:1;stroke-width:1.19318"/><path class="cls-1" d="M405.48 287.93c0 8.102-6.538 13.865-16.704 13.865-5.524 0-12.075-1.706-15.511-4.832a5.966 5.966 0 0 1-2.387-4.666 5.56 5.56 0 0 1 5.537-5.536 6.694 6.694 0 0 1 3.58 1.086 15.702 15.702 0 0 0 8.495 2.97c3.281 0 4.677-1.49 4.677-2.732 0-2.386-4.284-3.042-8.65-4.772-5.453-2.255-9.343-5.692-9.343-11.455 0-8.96 8.102-13.865 17.062-13.865a22.456 22.456 0 0 1 12.85 3.735 6.061 6.061 0 0 1 2.888 5.023 5.489 5.489 0 0 1-5.452 5.5 9.689 9.689 0 0 1-4.284-1.192 14.903 14.903 0 0 0-6.86-1.945c-1.015 0-3.902.155-3.902 2.255 0 1.408 1.193 2.028 3.197 2.649 6.24 1.861 14.808 4.713 14.808 13.912z" id="path9" style="fill:#002236;fill-opacity:1;stroke-width:1.19318"/><path class="cls-1" d="M438.878 257.981c8.65 0 15.81 5.966 13.865 17.767l-3.306 20.212a6.479 6.479 0 0 1-6.276 5.5 6.324 6.324 0 0 1-6.24-7.516l2.971-17.576c.656-3.818-1.647-5.763-5.381-5.763a9.33 9.33 0 0 0-5.763 2.494l-3.783 22.861a6.467 6.467 0 0 1-6.276 5.5 6.312 6.312 0 0 1-6.228-7.516l7.242-43.91a6.3 6.3 0 0 1 6.276-5.5 6.372 6.372 0 0 1 6.229 7.517l-1.432 8.114a15.022 15.022 0 0 1 8.102-2.184z" id="path10" style="fill:#002236;fill-opacity:1;stroke-width:1.19318"/><path class="cls-1" d="M488.359 297.977a26.334 26.334 0 0 1-14.318 3.818c-12.075 0-16.514-7.087-16.514-13.125 0-9.271 7.553-13.483 16.908-13.483a24.556 24.556 0 0 1 7.946 1.193l.465-2.649c.466-2.565-.775-4.51-5.07-4.51a28.445 28.445 0 0 0-6.623 1.086 9.891 9.891 0 0 1-2.29.19 5.238 5.238 0 0 1-5.263-5.25c0-2.493 1.564-4.295 4.212-5.38a33.159 33.159 0 0 1 11.216-1.945c11.455 0 17.301 6.777 15.428 17.456l-3.198 18.232a5.668 5.668 0 0 1-2.899 4.367zm-8.424-7.78.943-5.453a17.409 17.409 0 0 0-5.298-.93c-2.494 0-5.966.93-5.966 4.2 0 2.386 1.79 3.746 4.677 3.746a10.464 10.464 0 0 0 5.644-1.563z" id="path11" style="fill:#002236;fill-opacity:1;stroke-width:1.19318"/><path class="cls-1" d="M532.447 265.14a5.966 5.966 0 0 1-5.966 6.038 14.45 14.45 0 0 1-3.042-.394 15.201 15.201 0 0 0-3.115-.382c-2.183 0-3.508 1.194-3.973 4.129l-3.472 21.382a6.336 6.336 0 1 1-12.505-2.017l3.735-22.098c1.718-10.237 7.064-13.817 15.63-13.817a23.864 23.864 0 0 1 8.186 1.325 6.169 6.169 0 0 1 4.522 5.834z" id="path12" style="fill:#002236;fill-opacity:1;stroke-width:1.19318"/><path class="cls-1" d="M543.102 258.315a6.372 6.372 0 0 1 6.229 7.53l-4.94 30.068a6.339 6.339 0 1 1-12.517-2.017l4.952-30.08a6.3 6.3 0 0 1 6.276-5.5zm2.494-3.03a6.205 6.205 0 0 1-6.312-6.396 6.956 6.956 0 0 1 7.016-6.86 6.037 6.037 0 0 1 6.073 6.24 7.04 7.04 0 0 1-6.777 7.016z" id="path13" style="fill:#002236;fill-opacity:1;stroke-width:1.19318"/><path class="cls-1" d="M585.15 301.413a6.3 6.3 0 0 1-6.24-7.517l3.042-17.659c.656-3.735-1.635-5.68-5.381-5.68a13.209 13.209 0 0 0-5.608 1.48l-3.938 23.864a6.336 6.336 0 1 1-12.504-2.017l4.606-27.312a5.56 5.56 0 0 1 2.875-4.367 29.233 29.233 0 0 1 15.667-4.224c11.06 0 19.007 6.384 17.134 17.767l-3.389 20.212a6.3 6.3 0 0 1-6.264 5.453z" id="path14" style="fill:#002236;fill-opacity:1;stroke-width:1.19318"/><path class="cls-1" d="M614.896 317.378a26.25 26.25 0 0 1-13.006-3.58c-2.183-1.48-3.436-3.197-3.436-5.572a5.966 5.966 0 0 1 5.882-5.882 7.815 7.815 0 0 1 3.58 1.014 16.168 16.168 0 0 0 8.185 2.386c5.071 0 6.86-3.663 7.326-6.848a18.828 18.828 0 0 1-6.777 1.193c-9.546 0-16.37-5.966-15.667-17.146a68.56 68.56 0 0 1 1.563-9.653c2.256-10.285 9.188-15.428 19.628-15.428a27.909 27.909 0 0 1 16.597 5.143 4.928 4.928 0 0 1 2.112 4.772l-5.07 31.083c-2.065 12.683-9.701 18.518-20.917 18.518zm-.465-41.213a59.23 59.23 0 0 0-1.086 7.016c-.239 4.439 2.171 6.539 5.966 6.539a7.863 7.863 0 0 0 5.691-2.028l2.72-15.894a11.574 11.574 0 0 0-6.073-1.634c-4.26 0-6.288 2.255-7.218 6.001z" id="path15" style="fill:#002236;fill-opacity:1;stroke-width:1.19318"/></svg>