<svg xmlns="http://www.w3.org/2000/svg" viewBox="0 0 800 320" xmlns:v="https://vecta.io/nano"><path d="M0 0h800v320H0Z" fill="#fff"/><path d="m503.21 306.175-31.047-62.967a31.796 31.796 0 0 0 18.13-28.727V84.005a31.864 31.864 0 0 0-31.827-31.828h-9.605l-4.69-20.992a8.967 8.967 0 0 0-8.59-6.49H410.19v-5.008h61.253l8.044 12.936a8.892 8.892 0 0 0 5.567 3.996 8.888 8.888 0 0 0 6.743-1.116 8.905 8.905 0 0 0 3.992-5.558 8.897 8.897 0 0 0-1.112-6.752L484.011 6.027a8.888 8.888 0 0 0-7.593-4.221H326.083a8.89 8.89 0 0 0-7.593 4.226l-10.662 17.151a8.891 8.891 0 0 0-1.112 6.752 8.903 8.903 0 0 0 3.988 5.558 8.874 8.874 0 0 0 6.747 1.107 8.86 8.86 0 0 0 5.563-3.987l8.044-12.944h61.257v5.011h-25.392c-3.974 0-7.51 2.669-8.595 6.486l-4.69 20.996h-9.604a31.864 31.864 0 0 0-31.828 31.832v130.472a31.796 31.796 0 0 0 18.135 28.728L299.29 306.16a8.957 8.957 0 0 0 3.266 12.205 8.842 8.842 0 0 0 6.78.896 8.879 8.879 0 0 0 5.443-4.166l6.922-13.84h159.043l6.991 13.84a9.012 9.012 0 0 0 7.772 4.474 8.944 8.944 0 0 0 7.703-13.4zM372.224 52.177l1.433-9.6h55.18l1.434 9.6zm-42.145 41.18v-9.352a13.964 13.964 0 0 1 13.946-13.946h114.44a13.964 13.964 0 0 1 13.95 13.95v9.357H330.08Zm0 52.627v-34.75h142.337v34.75zm141.712 137.408H330.635l4.805-9.6h131.546Zm-141.712-68.91v-50.62h142.337v50.62c0 7.661-6.234 13.917-14.056 13.95H343.983a13.973 13.973 0 0 1-13.904-13.95zm14.304 41.432 4.805-9.6h104.12l4.74 9.6z" fill="#0070ae"/><path d="M330.08 214.481v-50.62h142.34v50.62c0 7.662-6.233 13.918-14.056 13.95H343.988a13.973 13.973 0 0 1-13.909-13.95z" fill="#fc0"/><path d="M362.283 218.124a22.003 22.003 0 0 1-21.98-21.98 22.003 22.003 0 0 1 21.98-21.98 22.003 22.003 0 0 1 21.975 21.98 22.003 22.003 0 0 1-21.975 21.98zm0-26.04a4.065 4.065 0 1 0 0 8.13 4.065 4.065 0 0 0 0-8.13zm77.932 26.045a22.003 22.003 0 0 1-21.98-21.984 22.003 22.003 0 0 1 21.98-21.98 22.003 22.003 0 0 1 21.98 21.98 22.003 22.003 0 0 1-21.98 21.98zm0-26.045a4.065 4.065 0 1 0 0 8.13 4.065 4.065 0 0 0 0-8.13z" fill="#0070ae"/><path d="M330.08 93.357v-9.352a13.964 13.964 0 0 1 13.945-13.946h114.44a13.964 13.964 0 0 1 13.95 13.95v9.357H330.08Z" fill="#fc0"/></svg>