<svg width="800" height="320.008" viewBox="0 0 599.998 240.005" preserveAspectRatio="xMidYMid" xmlns="http://www.w3.org/2000/svg"><path d="M0 0h599.998v239.999H0z" fill="#fff" style="stroke-width:.8"/><g fill="#e20917"><path d="m286.521 176.466 86.716-67.133c-7.347-12.352-7.036-11.634-19.113-29.525-35.922 54.339-40.795 56.138-67.603 96.658z"/><path d="m183.363 186.684 92.387-.066c39.595-63.64 39.374-62.56 73.828-114.27L301.61.714c-118.4 185.61-.317.412-118.247 185.97z" fill="#c6c6c5"/><path d="M289.804 180.645c103.156-33.831.172.237 103.767-34.412-16.606-29.548-.157.193-16.815-29.892-86.846 64.595-.174.464-86.952 64.301z" fill="#ffcc03"/><path d="M291.093 186.72c125.528-.04 5.663.162 125.502-.16-18.784-32.225-.007.091-19.005-32.41z"/><text xml:space="preserve" x="-41.403" y="216.736" transform="translate(188.662 188.14) scale(.23518)" font-size="227.471" font-family="Arial" fill="#000" stroke="#000" paint-order="stroke markers fill"><tspan x="-41.403" y="216.736" font-weight="700" font-family="'Segoe UI'" stroke-width="2.037">Karlsruhe</tspan></text></g></svg>