<svg fill-rule="evenodd" stroke-linejoin="round" stroke-miterlimit="2" xmlns="http://www.w3.org/2000/svg" viewBox="0 0 800.685 320"><path d="M.542 0h800v320h-800Z" fill="#fff" style="stroke-width:.8"/><g fill-rule="nonzero"><path d="M218.525 248.198c-7.252-.506-64.367-3.548-124.184-15.974 0 0 .373 17.762 20.242 22.26 44.526 10.065 168.397-.337 197.018-2.354l-46.113-1.235a1854.695 1854.695 0 0 1-46.964-2.698zm196.67.096-8.065.01c-172.102-.001-319.254-11.811-383.27-44.036 10.193 1.953 21.313 3.71 33.272 5.298 70.178 21.486 196.525 31.287 349.998 31.287l43.488-.309zM.712 128.808C45.188 68.72 218.077 64.435 410.066 64.803c132.533.253 249.444 11.032 324.82 32.882l-19.74 2.41C642.607 82.309 535.675 72.502 410.05 72.26 220.358 71.894 62.613 77.36 13.21 125.736A301.938 301.938 0 0 0 .71 128.808z" fill="#00b9f3"/><path d="M787.378 189.606h13.307V142.07h-8.28v36.4h-.89l-18.943-36.4H759.19v47.537h8.287v-36.738h.879zm-49.87 0v-7.334h-22.006v-13.377h15.075v-7.201h-15.075v-12.29h21.522v-7.334h-31.439v47.537zm-50.775-39.93v-7.604h-31.718v47.534h9.978v-19.282h15.756v-7.54h-15.756v-13.109zm-50.33 39.93-16.98-47.534h-13.107l-17.72 47.534h10.587l3.606-10.865h19.22l3.66 10.865zm-16.644-17.654H605.03l6.854-21.802h1.22zm-49.054 17.654V142.07h-9.85v19.359h-20.301v-19.359h-9.849v47.537h9.849v-20.78h20.302v20.78zm-82.403.814c9.233 0 20.437-3.667 20.437-14.869 0-17.999-25.467-10.389-25.467-20.85 0-5.026 6.86-6.046 10.527-6.046 4.003 0 8.962.75 11.275 1.291v-7.334a56.588 56.588 0 0 0-12.23-1.359c-10.453 0-19.824 3.467-19.824 14.603 0 16.773 25.263 11.13 25.263 20.579 0 5.294-6.727 6.656-10.872 6.656-4.888 0-11.609-1.426-14.055-1.974v7.608c1.698.41 7.54 1.695 14.945 1.695zm-37.118-.814V142.07h-9.851v19.359h-20.305v-19.359h-9.845v47.537h9.845v-20.78h20.305v20.78zm-70.794-40.883c3.464 0 6.657.41 9.233.749v-7.129c-2.037-.412-6.996-1.088-12.154-1.088-14.194 0-25.741 7.538-25.741 24.585s11.546 24.579 25.74 24.579c4.616 0 10.321-.675 12.155-1.085v-7.133c-1.695.203-5.16.754-9.233.754-11.956 0-17.997-4.69-17.997-17.116 0-12.43 6.041-17.118 17.997-17.118zm-60.205 40.883h9.846V142.07h-9.846zm-20.09-.002-13.784-19.556.136-.41c6.253-2.308 9.374-6.919 9.374-12.903 0-10.73-6.996-14.665-17.794-14.665H261.05v47.534h9.71v-17.79h5.772l11.416 17.79zm-14.462-32.728c0 6.112-2.986 7.945-8.76 7.945h-6.114V148.93h6.113c5.775 0 8.761 1.833 8.761 7.946zm-45.169 8.965c0-22.89-15.552-23.77-24.652-23.77h-16.974v47.536h16.84c9.1 0 24.786-.814 24.786-23.766zm-10.46 0c0 15.615-7.875 16.564-13.24 16.564h-8.151v-33.207h8.013c5.3 0 13.38.952 13.38 16.642zm-52.618 23.766v-7.334h-22v-13.377h15.077v-7.202h-15.078v-12.29h21.528v-7.334h-31.438v47.537zm-67.116 0h9.846V142.07h-9.846zm-20.647-.002L75.84 170.05l.133-.41c6.252-2.308 9.374-6.919 9.374-12.903 0-10.73-6.995-14.665-17.793-14.665h-16.98v47.534h9.714v-17.79h5.772l11.411 17.79ZM75.16 156.877c0 6.112-2.988 7.945-8.762 7.945h-6.111V148.93h6.111c5.774 0 8.762 1.833 8.762 7.946zm-65.181-7.2v13.107h15.759v7.541H9.982v19.282H0v-47.534h31.716v7.603z"/></g></svg>