<svg xmlns="http://www.w3.org/2000/svg" viewBox="0 0 800.765 320"><path d="M.337 0h800v320h-800z" fill="#fff" style="stroke-width:.8"/><path d="M11.385 288.402H0V186.864h11.385v43.385h47.384v-43.385h11.23v101.538H58.77v-47.845H11.385Zm137.845-34.307H98.46c1.078 16.308 8.77 26.615 21.232 26.615 8.923 0 14-2.615 21.076-7.23l5.077 7.846c-9.23 5.692-16 8.769-27.385 8.769-14 0-30.923-10.155-30.923-40 0-24.153 13.384-39.23 31.538-39.23 19.846 0 30.616 15.693 30.616 37.384 0 2.462-.154 4.154-.462 5.847zm-30.308-34c-11.385 0-19.077 8.153-20.461 25.076h41.076c-.922-14.769-7.23-25.076-20.615-25.076zm86.153 3.538c-3.077-1.692-6.307-2.923-11.385-2.923-10.615 0-16.615 8.615-16.615 23.077v44.615h-10.923V212.25h10.923v9.385c3.539-6.154 10.77-11.077 18.923-11.077 5.692 0 9.23.769 11.846 1.846zm55.23 0c-3.077-1.692-6.307-2.923-11.385-2.923-10.615 0-16.615 8.615-16.615 23.077v44.615h-10.923V212.25h10.923v9.385c3.539-6.154 10.77-11.077 18.923-11.077 5.692 0 9.23.769 11.846 1.846zm70.308 30.462h-50.77c1.078 16.308 8.77 26.615 21.232 26.615 8.768 0 14-2.615 21.076-7.23l5.077 7.846c-9.078 5.846-15.847 8.923-27.232 8.923-13.846 0-30.923-10.154-30.923-40 0-24.152 13.385-39.23 31.539-39.23 19.845 0 30.615 15.693 30.615 37.385-.154 2.308-.307 4-.615 5.692zm-30.308-34c-11.385 0-19.23 8.153-20.461 25.076h41.076c-.923-14.769-7.23-25.076-20.615-25.076zm95.075 68.307v-44.461c0-16.462-5.846-23.846-17.999-23.846-10.615 0-18.923 7.077-18.923 23.846v44.461h-10.923V212.25h10.923v9.23c4.308-6.461 11.385-10.922 21.076-10.922 16.154 0 26.77 9.384 26.77 31.384v46.461zm63.077 1.693c-9.539 0-16.153-4-21.538-10.155v8.616h-10.923v-99.692l10.923-6.154v38.924c5.385-5.847 12.615-10.924 22.922-10.924 15.23 0 27.231 11.539 27.231 38.462 0 26.923-12.769 40.923-28.615 40.923zm-1.384-70c-8.154 0-14.77 4.308-20.154 11.077v38c4.154 6.307 11.538 11.385 20.615 11.385 12.616 0 18.923-10.923 18.923-31.384 0-19.077-7.384-29.077-19.384-29.077zm103.845 34H510.15c1.077 16.309 8.77 26.616 21.231 26.616 8.924 0 14-2.615 21.077-7.23l5.076 7.846c-9.077 5.846-15.846 8.923-27.23 8.923-14.001 0-30.924-10.154-30.924-39.999 0-24.153 13.384-39.23 31.538-39.23 19.846 0 30.616 15.692 30.616 37.384-.154 2.308-.309 4-.616 5.692zm-30.308-34c-11.385 0-19.076 8.154-20.46 25.077h41.076c-.924-14.769-7.231-25.076-20.616-25.076zm86.154 3.54c-3.077-1.693-6.308-2.924-11.385-2.924-10.615 0-16.615 8.615-16.615 23.077v44.615H577.84V212.25h10.924v9.385c3.538-6.154 10.77-11.077 18.923-11.077 5.692 0 9.23.769 11.845 1.846zm30.768 92.768-3.538-8.308c25.385-.769 31.23-7.384 31.23-25.077v-3.845c-5.385 5.846-12.616 10.923-22.922 10.923-15.231 0-27.231-11.539-27.231-38.462 0-26.923 12.769-40.923 28.769-40.923 9.538 0 16.153 4 21.538 10.155v-8.617H686.3v69.384c-.154 22.922-10.461 34-38.769 34.77zm27.692-84.769c-4.154-6.307-11.538-11.385-20.615-11.385-12.616 0-18.923 10.923-18.923 31.384 0 19.077 7.23 29.231 19.23 29.231 8.153 0 14.769-4.308 20.154-11.077v-38.153Z" fill="#857865" style="stroke-width:1.02392"/><path d="M800.765 254.557c-44.77-78.461-126.153-130.923-216.768-138.307-11.23-.923-22.461-1.077-33.692-.615-31.846 1.384-63.23 8.153-92.769 20.307 14.308 2.461 28.308 6.462 41.692 11.692 13.692-2.923 27.847-4.923 42.307-6 107.846-7.846 203.845 39.538 245.076 112.923z" fill="#86bc25" style="stroke-width:1.02392"/><path d="M706.918 60.096c-5.538-4-11.538-6.769-17.076-9.692-2.924-1.693-20.616-12.923-18.923-37.693 0 0-7.847-3.692-12.154-7.384 0 0-14 30.308 10 65.23h.307c8.462 0 16.924 2.616 24.154 7.847 14.461 10.77 18.923 29.846 13.691 46.768v.154l-.923 2.77c-.924 2.461-2.154 4.77-3.539 6.922a273.867 273.867 0 0 1 20.77 11.539c3.845-6.462 6.769-13.692 8.153-21.538 5.076-24-3.692-49.538-24.462-64.923" fill="#857865" style="stroke-width:1.02392"/><path d="M647.996 45.79c-16.923 3.845-31.23 14.153-40.615 28-.153.306-.307.46-.461.768-.616.924-1.231 1.846-1.693 2.77-.153.307-.308.462-.462.769-.615 1.077-1.077 2-1.692 3.077-.154.153-.154.307-.308.461-.616 1.231-1.078 2.308-1.693 3.539-.154.154-.154.462-.307.615l-1.384 3.693c0 .153-.154.461-.154.615-.308.924-.615 2-.924 3.077-.153.307-.153.769-.308 1.077-.308 1.077-.462 2-.769 3.077-.153.615-.308 1.23-.308 1.846 0 .462-.154.924-.154 1.23-.153 1.385-.461 2.77-.461 4.155v.307c0 .615-.154 1.23-.154 1.846 7.846.462 15.846 1.23 23.692 2.462.154-2 .309-4.154.77-6.154l.461-2.462v-.153c3.23-12.616 11.846-23.077 23.23-28.462-.306-3.692-.153-7.538.309-11.539.615-5.23 1.846-10.154 3.385-14.615" fill="#b2a697" style="stroke-width:1.02392"/></svg>