<svg version="1.1" id="svg13" width="800" height="320" xmlns="http://www.w3.org/2000/svg"><defs id="defs5"><clipPath id="clip-path"><path class="cls-1" id="rect1" d="M0 0h39.21v39.21H0z"/></clipPath><clipPath id="clip-path-2"><path class="cls-1" id="rect2" d="M19.5 9.34h18.43V30.7H19.5z"/></clipPath><clipPath id="clip-path-3"><path class="cls-1" id="rect3" d="M19.5 9.34h18.43v21.35H19.5z"/></clipPath><clipPath id="clip-path-4"><path class="cls-1" id="rect4" d="M1.28 9.34h18.43V30.7H1.28z"/></clipPath><clipPath id="clip-path-5"><path class="cls-1" id="rect5" d="M1.28 9.34h18.43v21.35H1.28z"/></clipPath><style id="style1">.cls-1{fill:none}.cls-5{mix-blend-mode:multiply}</style></defs><path d="M0 0h800v320H0z" fill="#fff" image-rendering="optimizeQuality" shape-rendering="geometricPrecision" style="clip-rule:evenodd;display:inline;fill-rule:evenodd;stroke-width:1;stroke-linejoin:round;stroke-miterlimit:2" id="path1"/><g id="g13" transform="matrix(15.05715 0 0 15.05715 102.72 -141.962)" style="isolation:isolate"><g id="Ebene_2" data-name="Ebene 2"><g id="Ebene_1-2" data-name="Ebene 1"><g clip-path="url(#clip-path)" id="g12" style="clip-path:url(#clip-path)"><g class="cls-5" id="g8"><g clip-path="url(#clip-path-2)" id="g7" style="clip-path:url(#clip-path-2)"><g clip-path="url(#clip-path-3)" id="g6" style="clip-path:url(#clip-path-3)"><path d="M37.82 20a10.56 10.56 0 0 0-17.44-8 12.06 12.06 0 0 1 2.95 5.37 4.73 4.73 0 1 1-.81 2.95 2.71 2.71 0 0 0 0-.29l-2.9.41v6.91A10.57 10.57 0 0 0 37.82 20" id="path6" style="fill:#72bf44"/></g></g></g><g class="cls-5" id="g11"><g clip-path="url(#clip-path-4)" id="g10" style="clip-path:url(#clip-path-4)"><g clip-path="url(#clip-path-5)" id="g9" style="clip-path:url(#clip-path-5)"><path d="M19.61 12.73a10.56 10.56 0 1 0-.77 15.32 12.09 12.09 0 0 1-3-5.37 4.74 4.74 0 1 1 .81-3v.25h.7l2.23-.31z" id="path8" style="fill:#ec008c"/></g></g></g><path d="M16.69 19.72v.6a10.55 10.55 0 0 0 2.92 7 10.54 10.54 0 0 0 2.91-7v-.6a10.51 10.51 0 0 0-2.91-7 10.52 10.52 0 0 0-2.92 7" id="path11" style="fill:#009360"/></g></g></g></g></svg>