<svg width="801.989" xml:space="preserve" height="320" xmlns="http://www.w3.org/2000/svg"><path d="M0 0h800v320H0z" fill="#fff" style="clip-rule:evenodd;fill-rule:evenodd;stroke-width:.8;stroke-linejoin:round;stroke-miterlimit:2"/><path fill="#211d1c" d="M644.83 216.062c.71-1.489 1.697-2.927 2.8-4.536h-49.16c-.085-1.476-.2-2.541-.2-3.607-.01-26.013.047-52.026-.082-78.038-.016-3.12.934-3.819 3.899-3.806 25.682.11 51.364.112 77.046-.003 3-.013 3.962.736 3.88 3.83-.216 8.24-.073 16.49-.073 24.691.482.086.69.168.89.152 7.063-.584 7.063-.585 7.063-7.736v-20.666c1.43-.083 2.495-.198 3.561-.198 26.013-.01 52.026.048 78.038-.081 3.125-.016 3.913.932 3.806 3.903a241.101 241.101 0 0 0 .033 17.85c.051 1.352.997 3.115 2.096 3.907 6.443 4.648 9.921 10.729 9.699 18.737-.12 4.271-.314 8.547-.67 12.804-.33 3.94-2.302 7.181-5.442 9.44-4.412 3.175-5.973 7.372-5.822 12.63.177 6.138.041 6.142-6.014 6.142h-79.072l-.38-7.272c-2.182.26-4.757-.146-6.192.945-1.372 1.042-1.557 3.644-2.489 6.173-.462.026-1.618.142-2.775.145-6.834.017-13.711-.448-20.485.19-3.704.35-7.234 2.552-10.868 4.146-.955.254-1.884.281-3.088.258m32.327-48.596c.135-.141.295-.244 1.114-.182l1.44-8.633-1.163-.91-29.458 9.534c.854-1.047 1.876-2.023 3.09-2.43 8.224-2.76 16.502-5.365 24.725-8.132.928-.312 2.305-1.307 2.32-2.008.163-8.108.104-16.22.104-24.583-25.957 0-51.51 0-77.442.142-.052.252-.104.503-.06 1.336-.028 17.923-.056 35.846-.126 54.194.388.387.775.775.692 1.512v20.4h3.39c16.204 0 32.425.419 48.608-.174 8.334-.305 16.602-2.412 25.022-3.724v-20.649c0-4.264-.458-4.619-4.579-3.62-17.355 4.208-34.28 9.722-50.717 16.718-.894.38-1.84.638-2.762.952l-.448-.983c1.018-.663 1.96-1.511 3.065-1.96 7.682-3.114 15.398-6.145 23.46-9.377.16-.206.322-.412 1.019-.492.541-.005 1.118.112 1.618-.034 7.656-2.219 15.301-4.473 23.334-6.675.02-.428.041-.856.62-1.287l5.21 1.577c-.927-3.614 1.956-7.592-2.075-10.512m87.002-.67c-1.36.304-2.707.792-4.08.883-8.564.57-17.13 1.135-25.703 1.523-3.936.178-7.372 1.65-10.637 3.551-2.262 1.317-4.115 3.17-3.948 6.184 3.515.61 3.022-1.841 2.974-3.708 3.72-.274 4.524 1.056 3.516 4.647-1.643.431-2.976.97-4.345 1.084-1.227.102-2.927.161-3.62-.545-.682-.696-.785-2.536-.388-3.59.746-1.976 2.037-3.748 3.356-6.05-4.813.745-9.263 1.37-13.69 2.134-5.804 1.001-6.768 2.277-6.418 8.164.059.988.104 1.995.324 2.954 1.081 4.702 3.025 8.813 7.773 11.328 2.326-5.802 6.451-8.83 12.086-10.007-2.103 4.388-9.635 3.984-9.11 11.193 6.318-.342 12.563-.68 18.808-1.02l.4-1.06c-2.004-1.78-4.06-3.504-5.98-5.371-.645-.628-.939-1.618-1.394-2.442 1.037-.135 2.48-.771 3.041-.317 2.534 2.05 4.782 4.451 7.215 6.635.77.693 1.83 1.621 2.694 1.56 4.052-.29 8.117-.706 12.103-1.47 1.481-.284 3.16-1.34 4.064-2.554 7.514-10.104 19.487-9.83 24.753.673.082.163.353.231.54.337 4.46-1.746 5.976-4.03 5.924-9.052l-5.107-.232c2.305-3.893-1.246-10.13 6.345-10.945-.485-1.75-.917-3.31-1.38-5.357-1.713-5.745-5.669-9.625-10.72-12.418-10.941-6.05-22.703-4.63-33.7-3.942l-4.19 17.257c6.01-.452 12.708-.966 19.407-1.455 8.968-.656 8.939-.649 9.417-9.898.063-1.22.617-2.415.944-3.621l1.086.26c.373 4.879-.26 9.64-2.36 14.687m-69.371-19.88v5.954c11.638-1.654 22.945-3.352 34.278-4.85 14.287-1.887 28.6-4.015 42.857.68v-18.394h-77.135v16.61m40.46 15.818 1.74-13.187c-5.048.965-9.126 1.767-13.214 2.515-2.194.402-2.86 1.627-3.069 3.856-.281 3.011-1.15 5.99-2.013 8.91-.228.773-1.36 1.277-2.248 2.053l2.303-12.86c-7.464 4.525-11.928 10.152-15.385 17.011.86 0 1.408.064 1.937-.01 8.158-1.133 16.296-2.454 24.48-3.342 3.071-.334 4.365-1.98 5.469-4.947m-2.28 45.023h39.068v-5.331c-4.28 1.015-8.058 3.712-12.681 1.756-4.11-1.739-8.531-2.818-8.506-8.577-4.861.501-9.457.948-14.043 1.483-.55.064-1.389.511-1.513.946-1.22 4.268-4.325 6.92-7.755 9.723h5.43m30.621-13.6-9.72 1.211c.911 3.694 4.997 6.11 10.76 6.53 3.679.268 9.845-3.267 10.894-6.48l-3.765.636-.588-.78 3.553-3.2c-1.69-3.303-4.272-6.017-8.677-5.864-4.742.165-8.78 1.902-11.934 6.387l11.438-.886c-.778 1.063-1.153 1.575-1.96 2.446m-47.46-41.244c-.367-.323-.779-.964-1.093-.92-6.212.882-12.422 1.794-18.603 2.864-.641.111-1.559 1.248-1.576 1.928-.13 5.268-.072 10.54-.072 15.805 3.85.101 6.27-1.031 7.995-4.61 2.904-6.024 7.527-10.819 13.349-15.067m-33.188 47.322c.436.545.924 1.591 1.3 1.552 2.142-.221 4.258-.701 6.3-1.079v-24.33l-7.602 1.683v22.174m11.836-20.757v20.908l10.897-1.75c-2.14-3.708-5.113-7.177-6.166-11.155-1.067-4.03-.236-8.563-.236-13.17l-4.495.957v4.21m-6.186-5.702c.762-.73 2.155-1.435 2.185-2.193.197-5.032.102-10.076.102-15.327-2.244.367-4.212.537-6.076 1.07-.735.21-1.745 1.219-1.764 1.889-.147 5.145-.08 10.296-.08 15.77 1.941-.45 3.508-.815 5.633-1.21m21.76 33.982h6.039c-2.063-2.176-3.717-4.031-5.505-5.746-.608-.584-1.603-1.23-2.336-1.142-4.537.542-9.05 1.286-13.525 1.955v4.933h15.326m21.335-6.955 1.176-3.282-18.782 2.482c4.442 6.746 11.738 7.129 17.606.8m51.051-22.683 3.494 1.754-.28-4.999c-2.864-.917-3.045.883-3.214 3.245m-60.464-7.282s-.06-.063 0 0z" style="display:inline;stroke-width:.661658"/><path fill="#e2001a" d="M.838 127.759c1.707-6.255 3.666-11.972 8.377-16.428 5.572-5.271 12.295-7.763 19.675-8.265 6.555-.445 13.165-.093 20.439-.093l-1.017 5.914c-4.676-.445-9.116-1.407-13.49-1.167-8.52.468-17.231 1.523-22.816 9.046-2.629 3.54-4.97 7.869-5.678 12.133-1.274 7.675-.925 15.438 2.892 22.756 3.628 6.956 9.423 10.732 16.731 12.07 5.01.918 10.218.748 16.024 1.107v-35.149h5.118v9.803c0 8.49-.07 16.982.041 25.472.035 2.64-.224 4.044-3.545 4.375-10.82 1.076-21.333 1.15-30.729-5.45-6.805-4.78-10.511-11.405-11.765-19.739-.241-5.458-.274-10.769-.257-16.385z" style="stroke-width:.661658"/><path fill="#19181b" d="M757.453 79.874c2.279 4.574 4.396 9.053 6.198 13.656.39.996-.349 2.434-.568 3.668-1.01-.301-2.488-.28-2.954-.956-3.269-4.738-5.209-10.019-5.727-16.063.92-.303 1.848-.329 3.05-.305zM801.985 116.606c-3.914.248-7.783.287-11.64.11-.496-.023-1.423-1.626-1.333-1.722.757-.798 1.698-1.973 2.597-1.985 3.24-.04 6.487.33 10.029.54.33.925.364 1.853.347 3.057z" style="stroke-width:.661658"/><path fill="#221e19" d="M565.833 126.137c7.823.037 15.315.071 22.808.122.19.001.38.182.834.413.051.925.163 1.994.163 3.063.01 26.015-.032 52.03.067 78.043.01 2.79-.551 3.787-3.6 3.772a8956.533 8956.533 0 0 0-78.372-.013c-2.789.012-3.755-.82-3.464-3.544.193-1.81.036-3.657.036-5.966l-6.109 1.425-.447-.882c1.069-.556 2.09-1.433 3.217-1.603 2.723-.409 3.42-1.748 3.406-4.448-.119-21.936-.067-43.872-.067-65.808v-4.574h61.528m19.99 11.582v-7.38h-77.21v68.603c25.639-4.758 51.764-3.712 77.21-9.547V137.72m-20.526 56.345c-10.966 1.012-21.945 1.904-32.894 3.078-7.325.785-14.62 1.899-21.895 3.073-.82.132-1.82 1.524-2.038 2.489-.342 1.522-.09 3.178-.09 4.766h77.261v-16.382c-6.723.972-13.245 1.915-20.345 2.976z" style="stroke-width:.661658"/><path fill="#e2001a" d="M258.162 136.717v34.202h-5.293v-3.671c0-13.669.12-27.339-.055-41.005-.079-6.09-2.5-11.36-7.415-15.175-8.634-6.7-19.98-2.607-22.25 9.057-.557 2.866-.67 5.851-.686 8.783-.071 12.786-.03 25.573-.03 38.36v3.699h-5.294v-3.515c0-13.228-.032-26.456.013-39.683.023-6.61.815-13.163 5.237-18.391 1.998-2.362 4.783-4.874 7.631-5.553 10.23-2.44 17.966-.964 24.193 9.057.15.243.392.43.695.753 3.192-5.142 7.077-9.392 13.218-10.301 7.524-1.113 14.943-.94 20.529 5.38 3.255 3.682 5.055 8.296 5.132 13.073.26 16.293.1 32.594.1 49.113h-5.29v-3.6c0-14.551.17-29.105-.08-43.65-.106-6.09-1.983-11.916-8.41-14.207-11.321-4.034-20.675.966-21.872 13.062-.454 4.585-.074 9.252-.074 14.212zM81.514 136.717c2.641 0 4.958.043 7.272-.01 4.215-.097 10.636-4.505 12.587-10.86 1.512-4.923.4-10.274-3.486-13.359-3.724-2.957-8.19-4.322-12.891-4.874-.544-.064-1.102-.01-1.653-.01H68.137v63.249h-5.392V102.31c7.104 0 13.786-.112 20.463.032 6.625.143 12.762 1.733 18.085 6.1 5.297 4.344 6.705 9.864 5.734 16.25-.863 5.673-3.63 10.297-8.849 13.945 6.563 3.037 9.461 8.502 10.264 14.746.708 5.503.148 11.17.148 16.918h-5.256c0-4.142-.214-8.302.043-12.433.597-9.603-6.296-16.488-15.934-15.908-4.704.284-9.44.05-14.111.05-.877-4.886-.579-5.27 3.888-5.293 1.323-.006 2.646 0 4.294 0zM120.537 161.855c0-12.45.218-24.577-.087-36.69-.167-6.588 7.417-17.611 14.094-20.201 9.137-3.545 17.823-2.763 25.325 3.555 4.771 4.018 8.278 9.26 8.296 15.979.037 14.325.011 28.65.011 42.974v3.447h-4.555v-22.711h-37.744v22.752h-5.34v-9.105m43.002-36.387c-1.08-2.563-1.996-5.21-3.272-7.672-3.59-6.922-9.576-10.01-17.155-9.452-6.968.514-12.097 4.236-15.313 10.528-3.898 7.626-1.014 15.685-2.107 23.575h37.852c0-5.608 0-10.993-.005-16.98zM309.11 144.657c0-6.837.337-13.364-.083-19.843-.568-8.773 8.677-20.104 18.514-21.877 14.666-2.645 25.398 5.77 29.025 18.834.116.418.172.866.172 1.3.008 15.643.006 31.286.006 47.16h-5.176v-22.67h-37.772v22.736h-4.688v-25.64m4.632-5.09c-.387 2.19.772 2.49 2.647 2.478 11.019-.072 22.038-.032 33.057-.048.619-.001 1.237-.172 2.01-.286 0-5.229-.036-10.286.008-15.342.07-7.9-4.265-13.308-10.687-16.678-10.386-5.452-21.657.352-25.77 11.019-2.31 5.991-.776 12.156-1.265 18.857zM433.502 125.028c1.99-11.055 7.04-19.125 18.595-21.453 13.518-2.725 28.004 3.15 28.876 19.46.836 15.645.18 31.37.18 47.245h-4.644v-3.422c0-13.115.044-26.231-.011-39.347-.076-18.212-16.748-22.88-27.98-17.08-6.193 3.198-9.532 8.97-9.656 15.964-.236 13.332-.068 26.671-.068 40.007v3.827H433.5v-45.201zM418.944 168.931c-.616.922-1.185 1.977-1.856 2.047-.993.104-2.058-.493-3.437-.89v-3.42c0-13.342.133-26.687-.042-40.028-.137-10.358-6.75-17.583-17.763-17.801-9.574-.19-15.78 4.588-18.872 13.38-.775 2.203-.961 4.695-.993 7.06-.113 8.49-.15 16.983-.005 25.472.088 5.116.569 10.225.875 15.373l-5.546 1.023c0-7.336.077-14.483-.029-21.628-.063-4.262-.765-8.537-.548-12.774.305-5.94.478-12.045 2.003-17.732 2.53-9.434 11.315-15.611 20.955-15.274 4.472.157 9.258.63 13.282 2.383 7.909 3.443 11.608 10.573 11.855 18.838.434 14.543.121 29.108.12 43.971zM196.804 136.578c1.885 3.405 3.926 6.507 5.262 9.889 5.198 13.156-6.09 23.752-16.801 23.324-3.141-.125-6.278-.35-9.884-.557l.934-5.287c2.892.196 5.58.49 8.272.536 5.449.092 9.563-2.326 12.199-7.073 2.532-4.56 1.142-8.855-1.34-12.894-3.451-5.616-7.37-10.97-10.482-16.76-2.5-4.651-3.136-9.73-1.157-15.058 3.217-8.664 13.726-12.42 22.042-9.34l-1.448 4.787c-8.872-1.896-17.242 1.807-16.165 12.064.405 3.86 2.986 7.541 4.818 11.182.912 1.813 2.371 3.35 3.75 5.187z" style="stroke-width:.661658"/><path fill="#1d1b1a" d="M782.56 97.172c3.636-3.264 7.008-6.49 10.539-9.532 1.86-1.603 4-2.883 6.404-3.826-.287 4.38-3.913 5.72-6.456 7.955-2.616 2.298-5.355 4.456-8.03 6.669 5.909 7.566 5.217 12.89-1.31 20.031-6.3 6.893-20.302 8.133-25.461 4.077-3.737-2.938-5.55-7.191-4.045-11.84 2.673-8.25 8.737-12.568 16.945-14.346 3.848-.833 7.566-.454 11.414.812m-26.164 14.089c.03 4.018 2.013 6.901 5.371 8.847 6.393 3.705 17.7 1.56 22.42-4.17 3.484-4.227 2.975-10.53-1.446-13.753-1.884-1.373-4.26-2.32-6.554-2.836-6.864-1.547-18.936 2.257-19.791 11.912z" style="stroke-width:.661658"/><path fill="#19181b" d="M127.717 186.827c-7.263 7.839-4.529 18.716 5.052 21.15 4.71 1.197 11.828-2.634 11.194-9.069-2.017 0-4.093.129-6.137-.07-.718-.07-1.358-.941-2.034-1.447.697-.594 1.368-1.66 2.098-1.701 3.278-.186 6.572-.081 9.773-.081 2.267 7.474-3.574 15.32-11.001 15.947-13.77 1.161-19.162-11.282-16.089-20.869 3.317-10.349 17.77-13.322 25.104-5.34 1.788 1.946 1.78 2.02-.751 4.38-4.81-5.34-10.385-7.507-17.209-2.9zM14.71 208.903a1297.5 1297.5 0 0 0-7.321-10.255l-.658.15c0 3.118.116 6.243-.072 9.35-.055.908-.977 1.763-1.502 2.642-.578-.826-1.644-1.645-1.657-2.48-.126-8.031-.039-16.066-.104-24.098-.014-1.814.545-2.666 2.448-2.52 1.313.1 2.64.015 3.96.018 4.751.01 7.642 1.876 8.603 5.548 1.192 4.554-.421 8.209-4.592 10.421-.478.254-.939.542-1.683.974l8.293 11.706-.719 1.035c-1.63-.756-3.259-1.512-4.997-2.49m-3.463-14.03c3.635-1.699 4.6-3.518 3.495-6.59-1.029-2.86-3.492-3.76-7.795-2.758v9.404c1.39 0 2.567 0 4.3-.056z" style="stroke-width:.661658"/><path fill="#19181B" d="M226.402 189.661c0 6.388.064 12.449-.072 18.505-.02.886-.99 1.75-1.522 2.625-.571-.834-1.574-1.639-1.635-2.509-.206-2.96-.123-5.944-.063-8.918.031-1.566-.332-2.502-2.175-2.456-3.414.086-6.832.086-10.245 0-1.849-.046-2.2.902-2.168 2.463.058 2.973.143 5.958-.064 8.918-.06.868-1.068 1.67-1.641 2.502-.529-.767-1.506-1.527-1.516-2.3a890.66 890.66 0 0 1 0-24.456c.011-.771.992-1.53 1.523-2.294.57.724 1.563 1.411 1.632 2.18.215 2.405.13 4.842.066 7.264-.041 1.57.335 2.5 2.177 2.454 3.413-.086 6.838.1 10.239-.12.757-.05 1.957-1.247 2.052-2.026.279-2.28-.066-4.633.183-6.92.108-.992 1.07-1.89 1.646-2.831.527.988 1.333 1.927 1.517 2.976.261 1.496.066 3.073.066 4.943z" style="fill:#000;stroke-width:.661658"/><path fill="#19181b" d="M169.735 195.668c-1.134 1.68-2.492 3.244-2.77 4.98-.427 2.682-.01 5.49-.192 8.228-.045.671-1.017 1.281-1.563 1.92-.553-.631-1.529-1.227-1.583-1.898-.196-2.405.03-4.842-.123-7.253-.094-1.502-.334-3.103-.988-4.422-.384-.776-1.713-1.504-2.604-1.489-.843.015-2.235.897-2.403 1.624-.632 2.737-.901 5.562-1.223 8.363-.124 1.086.19 2.26-.104 3.277-.203.7-1.106 1.2-1.696 1.789-.505-.564-1.435-1.119-1.448-1.693-.113-5.251-.066-10.506-.066-16.103 4.533.863 8.88-2.772 12.39.638 2.177-.508 3.928-1.178 5.711-1.278 3.507-.195 5.584 1.777 5.68 5.237.102 3.628.114 7.265-.049 10.889-.035.791-.975 1.543-1.498 2.313-.578-.825-1.595-1.619-1.656-2.48-.209-2.956-.002-5.94-.112-8.906-.08-2.124-.683-3.99-3.703-3.736zM71.966 204.279c3.72 5.5 5.954 5.488 10.828.177 3.36 1.912 3.147 1.817.955 4.557-2.505 3.133-7.852 3.06-10.334 1.94-3.432-1.546-5.164-4.398-5.209-8.388-.048-4.24.574-8.003 5.007-9.696 3.345-1.277 6.822-1.076 9.64 1.28 2.3 1.923 3.189 4.614 2.205 8.073-3.705 0-7.41-.02-11.115.011-1.157.01-2.69-.276-1.977 2.045m2.614-8.166-2.544 2.56.602.733h9.208c-1.284-3.54-3.666-4.262-7.266-3.293zM25.806 209.712c-5.28-5.364-4.303-14.466 1.723-16.832 3.334-1.309 6.818-1.088 9.645 1.249 2.314 1.912 3.198 4.609 2.226 8.148H25.958c.379 3.172 1.876 5.046 4.271 5.785 3.202.987 5.047-1.279 6.841-3.882l2.773 1.974c-2.98 5.888-8.536 7.297-14.037 3.558m8.012-10.137 2.412-.168c-1.013-2.943-2.941-4.035-5.581-3.749-1.959.212-3.761.917-3.972 3.917h7.14zM89.535 209.811c-.073-5.018-.024-9.748-.121-14.476-.045-2.196.88-2.683 2.841-2.202.66.161 1.489.107 2.116-.151 5.15-2.116 10.133.22 9.676 5.57-.28 3.276.045 6.6-.124 9.891-.04.805-.954 1.564-1.466 2.344-.59-.812-1.627-1.592-1.688-2.443-.211-2.954.202-5.974-.21-8.885-.196-1.377-1.492-3.29-2.702-3.681-2.211-.715-4.149.457-4.422 3.08a144.928 144.928 0 0 0-.665 9.475c-.096 2.495-.948 3.269-3.235 1.478zM60.72 211.476c-5.431 0-6.607-.768-7.73-5.828 1.776.645 2.982 1.128 4.216 1.518 1.071.34 2.2.85 3.254.753.629-.058 1.754-1.347 1.623-1.728-.346-1.01-1.131-1.974-1.974-2.68-.82-.687-1.904-1.09-2.917-1.513-2.293-.956-3.222-2.844-2.723-5.039.346-1.521 1.343-3.724 2.49-4.045 1.852-.518 4.089.155 6.115.563.612.123 1.064 1.033 1.656 1.652-.984 1.703-1.947 2.16-3.742 1.04-.671-.42-2.038.275-3.087.462.507.827.898 1.765 1.557 2.443.504.519 1.323.776 2.044 1.033 2.778.991 4.33 2.724 4.148 5.881-.178 3.09-1.633 4.9-4.93 5.488zM44.446 198.949c.005-1.644-.15-2.992.083-4.269.116-.63.922-1.535 1.468-1.573.544-.037 1.643.841 1.656 1.34.126 4.942.127 9.891.005 14.834-.013.517-1.053 1.008-1.616 1.51-.53-.651-1.483-1.28-1.518-1.958-.164-3.18-.076-6.372-.078-9.884zM789.872 139.138c-1.053.085-2.42.314-2.806-.198-1.978-2.614-3.85-5.34-5.424-8.21-.446-.814.237-2.247.402-3.395 1.013.404 2.37.528 2.973 1.267a46.344 46.344 0 0 1 4.61 6.78c.534.96.279 2.36.245 3.756zM733.462 112.919c1.104-1.054 2.304-2.53 3.525-2.547 4.244-.057 8.496.391 12.943.659-.228 2.128-1.281 3.292-3.352 3.163a184.005 184.005 0 0 1-13.116-1.275zM44.4 184.223c1.44.203 2.766.45 3.869 1.085.233.134-.106 1.914-.648 2.518-.38.424-2.075.447-2.272.113-.614-1.041-.794-2.338-.95-3.716zM772.258 90.43c1.023-1.75 1.949-3.271 2.875-4.793l1.314.756-3.43 7.359-1.23-.34c.125-.918.249-1.836.47-2.982z" style="stroke-width:.661658"/><path fill="#fcc200" d="M602.266 130.123h77.062c0 8.362.06 16.475-.104 24.583-.015.7-1.392 1.695-2.32 2.007-8.223 2.767-16.5 5.372-24.726 8.133-1.213.407-2.235 1.382-3.089 2.43l29.458-9.534 1.163.91c-.48 2.877-.96 5.755-1.914 8.37-1.035-.334-1.595-.407-2.143-.501.013-.022-.024.011.14-.222-.536-.472-1.234-.711-1.932-.95-.046.392-.092.785-.158 1.16-.02-.016.024.012-.238-.12-.312.182-.362.495-.427.787-.015-.021.028.008-.235-.124-.313.18-.362.493-.427.786-.016-.021.013.024-.153-.197-4.516 1.967-8.958 3.995-13.183 6.403-2.366 1.349-4.372 3.328-6.707 5.152-.219.762-.27 1.394-.323 2.026l.656.167c.392-.715.784-1.43 1.385-2.247 4.276-4.007 8.93-5.443 14.424-3.573.358.122.897-.287 1.545-.453.501.172.81.348 1.16.698.429.116.814.059 1.36-.059.3.108.436.277.543.685-.042.562-.054.884-.067 1.205-7.648 2.246-15.293 4.5-22.948 6.719-.501.145-1.078.028-1.77-.22.677-.773 1.504-1.294 2.348-1.825-3.02.194-5.811.792-8.465.416-2.296-.325-4.537-1.573-6.627-2.73-7.05-3.899-14.041-4.554-21.21-.305-3.106 1.842-6.332 3.494-9.57 5.098-.888.439-2.014.394-3.031.571.028-17.923.056-35.846.145-54.197.167-.635.273-.842.378-1.05z" style="stroke-width:.661658"/><path fill="#fac100" d="M647.073 185.063c-7.705 3.058-15.42 6.09-23.102 9.204-1.105.448-2.048 1.296-3.065 1.96l.447.983c.922-.315 1.868-.572 2.762-.953 16.437-6.996 33.362-12.51 50.717-16.717 4.121-1 4.577-.644 4.58 3.62.004 6.6 0 13.2 0 20.648-8.42 1.312-16.687 3.42-25.022 3.724-16.183.593-32.403.174-48.609.174h-3.389c0-7.078 0-13.739.476-20.589 5.619-2.985 10.527-4.801 16.15-.599 2.949 2.204 8.356.146 10.324-2.855.016.022-.023-.01.211.143 2.014.033 3.813-.317 5.57-.166 3.994.344 7.968.933 11.95 1.423z" style="stroke-width:.661658"/><path fill="#dc001a" d="m784.306 166.414 1.348 4.87c-7.59.814-4.04 7.051-6.345 10.945l5.107.232c.053 5.02-1.464 7.306-5.926 9.054-.185-.108-.456-.176-.537-.339-5.267-10.504-17.24-10.777-24.754-.673-.903 1.214-2.582 2.27-4.064 2.554-3.985.763-8.05 1.179-12.103 1.469-.864.062-1.923-.867-2.694-1.56-2.432-2.183-4.68-4.584-7.215-6.635-.56-.454-2.004.183-3.04.317.454.825.748 1.814 1.394 2.442 1.918 1.867 3.975 3.592 5.978 5.372l-.398 1.06-18.809 1.02c-.525-7.21 7.007-6.805 9.11-11.194-5.634 1.177-9.76 4.205-12.086 10.007-4.747-2.514-6.692-6.625-7.772-11.328-.22-.959-.266-1.965-.325-2.954-.35-5.887.614-7.162 6.419-8.163 4.426-.764 8.877-1.39 13.689-2.134-1.32 2.302-2.61 4.073-3.355 6.05-.398 1.053-.294 2.893.388 3.59.692.706 2.392.647 3.62.545 1.368-.114 2.702-.653 4.344-1.085 1.009-3.59.205-4.92-3.516-4.646.048 1.866.541 4.317-2.974 3.707-.167-3.013 1.686-4.867 3.948-6.183 3.265-1.9 6.701-3.374 10.637-3.552 8.573-.387 17.139-.953 25.703-1.523 1.373-.091 2.72-.578 4.51-1.081 1.461-.212 2.494-.225 3.732-.032 4.399.077 8.591-.052 13.103-.154 1.174.018 2.028.01 2.882.003m-16.496 5.098-3.424.842-3.252-1.786c-.467 1.968-.961 3.93-1.354 5.913-.036.18.579.49 1.096.903l1.085-1.702c1.989.555 3.502.977 5.224 1.77l2.05-1.402c1.039.247 2.948.98 3.114.696 1.343-2.304 2.36-4.799 3.476-7.236l-1.178-.666-3.252 4.263c-1.371-3.135-1.622-3.262-3.585-1.595m-39.384 3.078-.952 4.777c1.774-.487 2.75-.873 3.758-1 1.208-.152 2.445-.118 3.668-.094.779.016 1.56.126 2.33.255.844.14 1.677.513 2.512.505 3.357-.032 6.864.247 8.962-3.85l1.551 3.142h1.13l.63-6.662h-2.096l-1.298-3.356-1.62 3.376c-1.355-.293-2.968-1.162-3.695-.684-1.26.827-1.969 2.49-3.276 4.315l-1.468-5.623-4.632 6.413-2.448-4.742c-.993.906-1.986 1.811-3.056 3.228m29.845 3.636c1.721-3.403.99-6.9-2.14-8.785l-3.542 8.029c2.257.294 3.715.485 5.682.756z" style="stroke-width:.661658"/><path fill="#fbc200" d="M694.787 146.593v-16.287h77.136V148.7c-14.258-4.695-28.57-2.567-42.858-.68-11.333 1.498-22.64 3.195-34.278 4.85v-6.277z" style="stroke-width:.661658"/><path fill="#fbfafa" d="M768.115 166.36c-1.033.013-2.066.026-3.355.03 1.498-4.64 2.132-9.402 1.758-14.28l-1.086-.26c-.327 1.206-.88 2.4-.944 3.62-.478 9.25-.449 9.243-9.416 9.898-6.7.49-13.397 1.004-19.407 1.455l4.19-17.257c10.997-.688 22.758-2.108 33.699 3.942 5.051 2.793 9.007 6.674 10.736 12.662-.839.252-1.693.26-2.772-.014-.312-.659-.4-1.364-.488-1.364-3.909.003-7.82.025-11.724.187-.416.018-.795.9-1.191 1.382z" style="stroke-width:.661658"/><path fill="#f9f9f9" d="M735.172 162.988c-1.028 2.713-2.322 4.359-5.394 4.692-8.184.888-16.322 2.21-24.48 3.342-.529.074-1.077.01-1.937.01 3.458-6.858 7.921-12.486 15.385-17.011l-2.303 12.86c.887-.776 2.02-1.28 2.249-2.052.863-2.92 1.731-5.9 2.012-8.911.209-2.229.875-3.454 3.069-3.855 4.088-.748 8.166-1.551 13.213-2.515-.636 4.827-1.188 9.007-1.814 13.44z" style="stroke-width:.661658"/><path fill="#f9c000" d="M732.649 207.756h-5.112c3.43-2.802 6.536-5.455 7.755-9.722.125-.436.962-.883 1.513-.947 4.586-.535 9.182-.981 14.043-1.482-.025 5.758 4.395 6.837 8.506 8.576 4.623 1.956 8.4-.74 12.681-1.756v5.331H732.65z" style="stroke-width:.661658"/><path fill="#f7f7f7" d="M763.806 193.977c.591-.691.966-1.204 1.744-2.267l-11.438.886c3.154-4.484 7.192-6.222 11.934-6.387 4.405-.152 6.988 2.56 8.677 5.864l-3.553 3.2.588.78 3.765-.635c-1.05 3.212-7.215 6.747-10.895 6.479-5.762-.42-9.848-2.835-10.76-6.53 3.253-.405 6.487-.808 9.938-1.39z" style="stroke-width:.661658"/><path fill="#f9c000" d="M715.938 153.065c-5.63 4.096-10.253 8.89-13.157 14.914-1.725 3.579-4.146 4.711-7.995 4.61 0-5.265-.059-10.537.073-15.805.016-.68.934-1.817 1.575-1.928 6.181-1.07 12.39-1.982 18.603-2.864.314-.044.726.598.901 1.073z" style="stroke-width:.661658"/><path fill="#f6be00" d="M694.778 179.16v-3.893l4.495-.956c0 4.607-.831 9.14.236 13.17 1.053 3.977 4.026 7.446 6.166 11.154l-10.897 1.75V179.16z" style="stroke-width:.661658"/><path fill="#4f4217" d="M629.327 183.642c-1.953 3.022-7.36 5.08-10.31 2.876-5.622-4.202-10.53-2.386-15.914.424-.628-.373-1.015-.76-1.381-1.36 1.037-.39 2.164-.345 3.051-.784 3.239-1.604 6.465-3.256 9.572-5.098 7.168-4.249 14.16-3.594 21.209.306 2.09 1.156 4.33 2.404 6.627 2.73 2.654.375 5.445-.223 8.465-.417-.844.531-1.672 1.052-2.616 1.763-.278.396-.44.602-.779.894-4.16-.403-8.134-.992-12.128-1.335-1.757-.152-3.556.198-5.554-.08 2.03-.91 4.276-1.423 6.168-1.855-7.463-5.15-14.814-5.138-22.671.345.86.455 1.823.79 2.576 1.391 4.059 3.24 8.19 3.236 12.47.488.33-.212.806-.198 1.215-.289z" style="stroke-width:.661658"/><path fill="#f9c000" d="M710.029 207.756h-15.004v-4.933c4.475-.67 8.988-1.413 13.525-1.955.734-.088 1.728.558 2.336 1.142 1.788 1.715 3.442 3.57 5.505 5.746h-6.362z" style="stroke-width:.661658"/><path fill="#f7f6f7" d="M731.524 200.996c-5.706 6.134-13.001 5.751-17.444-.995l18.783-2.482c-.493 1.373-.835 2.328-1.339 3.477z" style="stroke-width:.661658"/><path fill="#f6f6f6" d="M671.138 175.64a20.925 20.925 0 0 1-1.232-.753c-1.925-.642-3.541-1.058-4.905-1.41l7.387-5.615s-.028-.045.193-.01c.31-.2.397-.434.484-.668 0 0-.042-.03.177.006.308-.2.396-.435.485-.67 0 0-.044-.027.218.013.736.026 1.21.013 1.684 0 0 0 .037-.034.01.189.436.477.899.732 1.362.986 4.186 2.679 1.303 6.657 2.23 10.27-2.023-.612-3.616-1.095-5.558-1.657-.348-.08-.56-.121-.56-.121-.137-.169-.273-.337-.779-.479a8.896 8.896 0 0 1-1.196-.081z" style="stroke-width:.661658"/><path fill="#ddd" d="M782.767 177.875c.14-2.119.32-3.919 3.185-3.001l.279 4.998c-1.52-.763-2.507-1.258-3.464-1.997z" style="stroke-width:.661658"/><path fill="#322c1c" d="M677.078 167.588c-.54-.134-1.003-.388-1.452-.844.575-.13 1.135-.056 1.853.216-.027.262-.188.365-.4.628z" style="stroke-width:.661658"/><path fill="#f2bb00" d="M673.083 176.44c.03-.24.241-.199.31-.117.05.51.03.938-.184 1.344-.18-.343-.168-.665-.126-1.227z" style="stroke-width:.661658"/><path fill="#4f4217" d="M602.076 130.194c.084.136-.02.343-.236.688-.057-.114-.006-.366.236-.688z" style="stroke-width:.661658"/><path fill="#dc001a" d="M722.243 170.804c-.029-.031.03.032 0 0z" style="stroke-width:.661658"/><path fill="#fbc100" d="M585.823 138.048v51.348c-25.447 5.834-51.571 4.788-77.21 9.546V130.34h77.21v7.708m-72.917 6.613s.051.02-.373-.093c-.346.606-.692 1.212-1.274 2.114.096.453.191.907.18 1.713-.167.327-.334.654-.905 1.232-1.525 2.801-1.178 4.426 1.51 5.51 1.784.719 3.742 1.373 5.633 1.402 8.881.136 17.788.414 26.642-.105 5.164-.302 10.55-1.049 14.893-4.507 0 0-.067-.008.402-.034.09-.222.179-.444.266-.617 0 0-.05.001.437.14 2.646-3.965 1.511-6.44-3.216-6.728-2.703-.165-5.425-.03-8.35-.03-.555-3.558-3.663-3.338-6.659-3.391.643-3.132.508-6.054-2.773-7.034-4.02-1.2-7.957-.72-11.292 2.922-.873.94-1.745 1.88-3.108 3.005-1.233.38-2.444.958-3.704 1.095-2.479.27-5.238-.577-7.371 2.24-.318.406-.635.813-.938 1.166m69.992 23.354a44.146 44.146 0 0 0-.577-2.14c-.553-.262-1.106-.524-2.026-1.042-.697.09-1.395.178-2.34.246 0 0-.213.129-.738.189-.47-.111-.94-.222-1.368-.807-1.908-4.368-7.834-5.282-10.98-1.26-1.265.802-2.53 1.604-4.207 2.396-1.463.324-2.967.527-4.379 1.005-1.493.506-2.897 1.275-4.338 1.88 0 0 .048.007-.422-.072-1.744 2.771.255 4.063 2.286 4.595 9.097 2.383 18.323 2.03 27.536.695.615-.09 1.132-.858 1.692-1.252 0 0-.059-.002.42-.07 1.365-1.47 1.22-2.772-.56-4.363zM565.585 194.005c6.811-1.002 13.333-1.944 20.056-2.916v16.381H508.38c0-1.588-.251-3.244.091-4.766.217-.965 1.217-2.356 2.038-2.489 7.275-1.174 14.57-2.288 21.895-3.073 10.949-1.174 21.928-2.066 33.182-3.137z" style="stroke-width:.661658"/><path fill="#fac100" d="M756.404 110.988c.847-9.382 12.92-13.186 19.783-11.639 2.293.517 4.67 1.463 6.554 2.836 4.42 3.224 4.93 9.526 1.447 13.753-4.721 5.73-16.028 7.874-22.42 4.17-3.359-1.946-5.343-4.83-5.364-9.12z" style="stroke-width:.661658"/><path fill="#322c1c" d="M672.223 167.641c-2.334 2.12-4.833 4.02-7.222 5.836 1.364.352 2.98.768 4.711 1.414-.34.39-.88.8-1.237.678-5.494-1.87-10.148-.434-14.645 3.526-.73.028-1.03 0-1.33-.028 2.168-1.695 4.174-3.674 6.54-5.023 4.225-2.408 8.667-4.436 13.183-6.403z" style="stroke-width:.661658"/><path fill="#f2bb00" d="M652.333 179.196c.467-.101.767-.073 1.289.002-.172.762-.564 1.476-.956 2.19l-.656-.166c.052-.632.104-1.264.323-2.026z" style="stroke-width:.661658"/><path fill="#322c1c" d="M675.792 166.3c-.637.246-1.11.26-1.827.25-.196-.416-.15-.809-.104-1.201.698.239 1.396.478 1.931.95z" style="stroke-width:.661658"/><path fill="#f2bb00" d="M671.18 175.814c.233-.138.51-.102.992-.032-.178.091-.563.148-.991.032z" style="stroke-width:.661658"/><path fill="#322c1c" d="M672.803 167.052c.175.367.087.601-.206.821-.156-.328-.107-.64.206-.821zM673.465 166.389c.173.366.085.601-.208.822-.154-.327-.105-.64.208-.822z" style="stroke-width:.661658"/><path fill="#26161b" d="M728.464 174.335c1.031-1.161 2.024-2.067 3.017-2.972l2.448 4.741 4.632-6.413 1.468 5.623c1.307-1.824 2.017-3.487 3.276-4.315.727-.478 2.34.391 3.695.685l1.62-3.376 1.299 3.355h2.095l-.63 6.662h-1.13l-1.551-3.141c-2.098 4.096-5.605 3.818-8.962 3.85-.835.008-1.668-.364-2.511-.506-.77-.129-1.552-.24-2.331-.255-1.223-.024-2.46-.057-3.668.095-1.008.126-1.984.513-3.758 1 .333-1.67.643-3.224.99-5.033m15.637.966 1.89.008-1.591-2.51-.622.396c0 .618 0 1.235.323 2.106z" style="stroke-width:.661658"/><path fill="#2f151b" d="m766.976 177.082-5.016-1.4-1.085 1.702c-.517-.412-1.132-.722-1.096-.902.393-1.983.887-3.945 1.354-5.913l3.252 1.786c1.04-.256 2.232-.55 3.583-.532-.225 1.96-.608 3.61-.992 5.26z" style="stroke-width:.661658"/><path fill="#26161b" d="M767.08 177.267c.28-1.835.663-3.485 1.113-5.382 1.58-2.04 1.83-1.912 3.201 1.222l3.252-4.263 1.178.667c-1.116 2.436-2.133 4.931-3.476 7.235-.166.284-2.075-.449-3.115-.696-.51.349-1.279.875-2.153 1.217z" style="stroke-width:.661658"/><path fill="#22171b" d="M758.016 178.186c-1.713-.23-3.17-.421-5.428-.716l3.542-8.028c3.13 1.885 3.861 5.382 1.886 8.744z" style="stroke-width:.661658"/><path fill="#422c32" d="M768.32 166.566c.19-.687.57-1.57.986-1.587 3.904-.163 7.815-.185 11.724-.188.088 0 .176.705.17 1.338-4.289.385-8.481.514-12.88.437z" style="stroke-width:.661658"/><path fill="#f5f5f5" d="M629.342 183.663c-.424.07-.9.055-1.23.267-4.28 2.748-8.411 2.752-12.47-.488-.753-.6-1.717-.936-2.576-1.39 7.857-5.484 15.208-5.496 22.67-.346-1.89.432-4.138.944-6.4 1.701-.017.245.022.278.005.256z" style="stroke-width:.661658"/><path fill="#fbfbfb" d="M525.41 139.975c.872-.94 1.744-1.88 2.97-3.028a33.075 33.075 0 0 1 3.197-.883c6.453-1.507 9.078.522 8.881 6.196l8.565 4.396c1.37 0 3.989-.083 6.6.02 3.625.145 4.306.956 4.207 4.602 0 0 .05-.001-.174-.001-.32.214-.416.428-.511.641 0 0 .067.008-.177-.165-13.583 4.216-27.27 3.997-40.987 2.644-2.692-.266-5.745-.935-6.718-4.247 1.37-.52 2.51-.957 3.392-1.295l-1.698-4.173s-.051-.02.153-.037c.77-.43 1.338-.844 2.2-1.265 2.362.019 4.454-.151 6.488.117 3.383.447 3.741.204 3.612-3.522z" style="stroke-width:.661658"/><path fill="#f9f9f9" d="M561.073 165.607c1.265-.802 2.531-1.604 4.146-2.693 5.57-1.53 7.143-.845 9.593 3.571.134.241 1.062.04 1.904.013 4.247-.488 5.27.537 6.262 5.948 0 0 .06.002-.23-.074-8.501-.024-16.716.143-24.925.011-2.52-.04-5.058-.85-5.83-3.894 0 0-.048-.006.253-.024 3.019-.018 5.736-.018 8.388-.018l.439-2.84z" style="stroke-width:.661658"/><path fill="#252321" d="M511.031 150.235c1.205 3.226 4.258 3.895 6.95 4.161 13.716 1.354 27.404 1.573 40.986-2.677-4.099 3.666-9.484 4.413-14.648 4.715-8.854.519-17.76.241-26.642.105-1.89-.028-3.849-.683-5.633-1.403-2.688-1.083-3.035-2.708-1.296-5.418.237.232.26.374.283.517zM560.074 151.347c-.145-3.715-.826-4.526-4.451-4.67-2.611-.104-5.23-.02-6.6-.02l-8.565-4.397c.197-5.674-2.428-7.703-8.88-6.196-.949.221-1.896.45-3.106.688 2.89-3.24 6.826-3.719 10.847-2.519 3.28.98 3.416 3.902 2.773 7.034 2.996.053 6.104-.167 6.66 3.391 2.924 0 5.646-.135 8.349.03 4.727.289 5.862 2.763 2.973 6.66z" style="stroke-width:.661658"/><path fill="#353127" d="M551.758 168.45c1.007 3.083 3.545 3.893 6.065 3.934 8.21.13 16.424-.036 24.926-.042-.272.5-.789 1.269-1.404 1.358-9.213 1.335-18.439 1.688-27.536-.695-2.03-.532-4.03-1.824-2.051-4.555z" style="stroke-width:.661658"/><path fill="#302d27" d="M525.164 140.067c.375 3.634.017 3.876-3.366 3.43-2.034-.269-4.126-.099-6.687-.134-.629-.016-.762-.024-.895-.032 1.761-2.653 4.52-1.805 7-2.076 1.259-.137 2.47-.716 3.948-1.188z" style="stroke-width:.661658"/><path fill="#3c3728" d="M576.433 166.53c-.559-.004-1.487.196-1.62-.045-2.451-4.416-4.024-5.102-9.495-3.772 2.697-3.534 8.623-2.62 10.557 2.185.21.632.396.827.572 1.174-.008.153-.014.459-.014.459z" style="stroke-width:.661658"/><path fill="#413c2d" d="M560.868 165.602c.053.99-.1 1.974-.234 2.845-2.652 0-5.37 0-8.39.042 1.142-.612 2.546-1.38 4.04-1.887 1.41-.478 2.915-.681 4.584-1z" style="stroke-width:.661658"/><path fill="#353127" d="M576.716 166.498c-.283.033-.277-.273-.08-.465.499-.404.802-.614 1.106-.825 0 0 .213-.13.644-.095 1.046.014 1.661-.005 2.277-.024.552.262 1.105.524 1.702 1.216.248 1.009.453 1.588.657 2.167 1.656 1.134 1.8 2.435.195 3.94-1.23-5.378-2.254-6.402-6.5-5.914z" style="stroke-width:.661658"/><path fill="#302d27" d="M511.263 150.15c-.255-.058-.278-.2-.313-.558.155-.543.322-.87.55-1.65a12.3 12.3 0 0 0-.005-1.556c.346-.606.692-1.212 1.25-1.761.715 1.293 1.217 2.529 1.91 4.23-.883.338-2.022.774-3.392 1.295z" style="stroke-width:.661658"/><path fill="#322d22" d="M514.03 143.413c.32-.074.452-.066.785-.042-.367.43-.935.844-1.712 1.3.106-.363.423-.77.927-1.258z" style="stroke-width:.661658"/><path fill="#39321e" d="M582.96 168.243a10.81 10.81 0 0 1-.528-1.758c.171.344.318.937.528 1.758zM580.479 164.961c-.432.147-1.047.166-1.969.163.39-.113 1.088-.202 1.969-.163zM577.48 165.238c-.042.18-.345.391-.836.642-.373-.155-.559-.35-.79-.745.423-.09.893.022 1.626.103z" style="stroke-width:.661658"/><path fill="#322d22" d="M511.377 146.534c.14.22.162.588.176 1.232-.103-.177-.198-.63-.176-1.232z" style="stroke-width:.661658"/><path fill="#252321" d="M559.38 151.906c-.14-.202-.044-.416.277-.654.136.197.046.42-.278.654z" style="stroke-width:.661658"/><path fill="#29151b" d="M743.939 175.174c-.162-.744-.162-1.362-.162-1.98l.622-.396 1.59 2.51c-.63-.003-1.26-.005-2.05-.134z" style="stroke-width:.661658"/><text xml:space="preserve" style="font-weight:700;font-size:44.1106px;font-family:'Typewalk 1965';-inkscape-font-specification:'Typewalk 1965 Bold';fill:#000;fill-rule:evenodd;stroke-width:6.61658;paint-order:stroke fill markers" x="177.47" y="210.716"><tspan x="177.47" y="210.716" style="font-style:normal;font-variant:normal;font-weight:400;font-stretch:normal;font-size:44.1106px;font-family:'Segoe UI Emoji';-inkscape-font-specification:'Segoe UI Emoji';stroke-width:6.61658">b</tspan></text></svg>