<svg width="800" height="320" style="clip-rule:evenodd;fill-rule:evenodd;image-rendering:optimizeQuality;shape-rendering:geometricPrecision;text-rendering:geometricPrecision" xmlns="http://www.w3.org/2000/svg"><defs><path id="a" d="M91.881 22.526h149.472v68.89H91.881z"/></defs><path d="M0 0h800v320H0z" fill="#fff" style="clip-rule:evenodd;fill-rule:evenodd;stroke-width:.8;image-rendering:optimizeQuality;shape-rendering:geometricPrecision;text-rendering:geometricPrecision"/><path style="opacity:1;stroke-width:4.02663" fill="#fbae2d" d="M221.852 56.175v209.386h-24.16V56.175z"/><path d="M18.636 238.828c39.45-17.617 79.667-33.703 139.797 6.704 1.305 4.059.423 12.829-2.948 11.106-39.066-26.427-81.962-34.468-132.903-5.746-5.363-1.378-7.087-10.876-3.906-12.064" stroke-linejoin="round" stroke-linecap="round" color="#000" stroke="#000" stroke-width=".227"/><g stroke-linejoin="round" stroke-linecap="round" style="fill:#fff"><g color="#000" style="fill:#fff;stroke:#000;stroke-width:2.09909;stroke-dasharray:none;stroke-opacity:1"><path d="M162 520c.5-20.9 3.4-38 7.8-52" fill="none" stroke="#fff" stroke-width="5.9" style="fill:#fff;stroke:#000;stroke-width:2.09909;stroke-dasharray:none;stroke-opacity:1" transform="matrix(.38301 0 0 .38301 -11.238 33.807)"/><path d="m200 457 13.9-8.7c7.6 11.5 11.3 20 15.5 29 12.2.4 21.8 4 30 9.1 7.8 4.5 5.3 6.3-1.2 2.8-10.9-1.3-20.8-2-24.6.8 4.7 9.3 6.8 18.7 8.6 28 .6 4.9-1.6 3.1-4.6.9-7.3-7.2-11.2-23.6-17.5-27-11 7.4-16.6 14.7-20.5 21.4-1.6 7.7-5.6 7.8-3.9 0 .5-11.5 10.7-24.8 18.5-33-4.9-6.6-9.9-15-14.2-23zm68 2 14.8-5.1c8.6 9.4 15.7 19.6 21.8 30 4 3.2 9.8 5.2 16.5 6.7 14.9-.4 19.9 4.5 22.8 10.7.5 5.9 1.8 5.7-4 2.3-6.5-3.7-13.5-5.5-22-2.8 6.4 8.3 6.5 15 5.9 21.8-.8 11.2-1.9 8-4.3 1.2-4.5-9.4-10.2-22.9-17.3-25-9.2-1.4-10 8.4-17.3 17.7-2 .6-2.2-1.3-1.8-4.7.7-4.4 2.8-11.5 4.7-19l-4.7-13.6z" style="fill:#fff;stroke:#000;stroke-width:2.09909;stroke-dasharray:none;stroke-opacity:1" transform="matrix(.38301 0 0 .38301 -11.238 33.807)" fill="#da121a"/></g><path d="M148 303c-23.3 6.1-28.7 15.7-38.9 24.5-21.8 22-16.4 23.9-18.2 31-12 15.4-17.6 25.6-12.9 29-1.8 14.2-7.4 34-2.5 38 .2 6.1-2.1 13 3.2 17.5.9 12-10.6 43 3.2 35.4 4.3 14.8-1 42 12.9 44 8.2 14.4 10 36.5 31 35.5 19.7 27.4 30 32.8 43.5 37 7.7 4.7 15.5 10.7 20.3.9" fill="none" stroke="#fff" stroke-width="7.9" style="fill:#fff" transform="matrix(.38301 0 0 .38301 -11.238 33.807)"/></g><path d="M62.684 262.573c-11.033-10.53-16.852-25.662-9.463-47.112 1.264-8.041 6.898-18.381 11.878-6.7l5.59-3.713c-3.564-5.746 7.006-9.382 14.938-7.546.037 1.53-.616 1.112-.54 3.56-.152 2.875 4.6 5.863 5.976 8.198L97 207.267c-1.49-1.836-1.99-5.972-.995-6.052 1.84.729 16.851-2.106 16.276-4.478 29.112 49.025 15.703 46.343 7.203 62.43 24.051 5.898 54.002-18 30.643-85.027 1.796-5.17 8.806-14.858 9.571-26.044 1.57-1.188 2.795-1.651 2.223-2.988l2.106-.576c.652-.652.958-1.53.765-2.106.958-.23 1.417-.689 1.953-1.264.5-.959 1.071-1.877.576-2.642 1.07-.153 1.453-1.57 1.912-2.106.347-1.84.23-1.687-.459-1.916 1.494-.882 1.112-1.8 1.724-2.642-.536-3.221-.306-2.645-.649-3.447.919-.692.878-1.876.766-2.798.04-.918-.04-2.718-.194-4.212 1.764-3.6 3.065-3.37 3.946-11.875-1.34.922-2.87 2.952-5.705 4.865-1.188-5.517-5.17-6.395 7.276-13.405-2.605-1.99-9.342.382-11.645.805-6.43 2.336-2.601 1.112-7.965 2.565-3.41.922-5.746 3.753-7.276 7.663-.5.648-9.881 32.555-34.09 19.529-14.552-7.659-33.703 2.493-39.449 3.298 3.677-8.428-.189-6.435 3.065-10.304l10.727-7.276c4.977-3.987 3.946-12.14-1.265-12.986 1.683-9.113-2.416-10.913-5.746-10.723 4.442-7.164-1.417-15.322-6.817-12.257-.08-10.228-4.828-12.14-9.845-9.576-.725-13.404-11.87-10.34-11.834-6.893-2.26-9.688-11.259-8.271-12.87-1.913-9.116-7.892-13.21.842-12.603 6.894-8.04-6.781-12.023 1.647-9.301 8.423-13.791-9.188-13.328 10.458-8.81 10.953-11.839-.725-5.976 11.645-5.9 12.257-3.6 1.188-6.857 7.663.725 12.18-4.288 2.799-1.836 12.487 1.61 12.028-3.293 1.071-3.216 13.634 4.523 11.412-4.293 3.946-.117 10.686 5.36 8.35-1.53.653-5.743 10.724 9.804 8.042 10.187-1.224 14.516-4.824 15.128-3.825.729 1.796 2.529.571 3.987.455-8.928 2.335-10.993 6.015-14.899 9.382-8.351 8.427-6.282 9.156-6.898 11.878-4.59 5.895-6.74 9.801-4.94 11.106-.685 5.436-2.831 13.022-.955 14.552.077 2.335-.805 4.981 1.224 6.704.347 4.595-4.058 16.47 1.225 13.558 1.65 5.67-.383 16.087 4.94 16.852 3.141 5.516 3.834 13.98 11.875 13.598 7.546 10.493 12.64 12.64 17.999 14.363 2.911 1.8 5.899 4.095 7.775.342z" style="stroke-width:.383003"/><path d="M157.668 114.352a1.224 2.835 26 1 1-1.61-2.146 1.224 2.835 26 1 1 1.61 2.146z" fill="none" stroke="#fff" stroke-linejoin="round" stroke-linecap="round" stroke-width=".909"/><path d="M164.179 101.33c1.99 6.201-.652 14.552 4.594 18.386.653.266 1.228.684 2.147-.31 3.253-3.177 4.976-8.311 3.752-10.912l-5.629 4.976c-1.34-6.088 1.53-10.11 7.659-12.603-2.376-2.565-7.47-1.53-12.604.463z" fill="#ed1c24" style="fill:#fff;stroke:#000;stroke-width:.803954;stroke-dasharray:none;stroke-opacity:1"/><g fill="none" stroke-linejoin="round" stroke-linecap="round" color="#000"><path d="M25.53 149.473c-34.85-78.898 42.13-94.22 59.368-33.32" stroke="#fff" stroke-width="3.7930948800000004"/><path d="m128 294 58.7-14.5M116 273l61-2.2M106 243l70 14.5M100 214l73 23.4M101 183l74 45m-64-78 72 71m-47-96 55 82m-30-102 33.8 92M190 85l10 108m24-106-1.4 115m32.4-96-18.4 99m43.4-74-29.7 77m45.7-44-33.9 53.8M309 193l-35 36" transform="matrix(.37903 0 0 .37971 -31.037 33.272)" stroke="#000" stroke-width="10"/><path d="m127 294 58.7-14.5M114 273l62-1.7M102 243l74 14.5M98 212l75 24.8M96 181l79 47.8M110 149l74 72m-50-100 57 86M159 98l35.9 99M191 81l10 112m23-108-1.4 116m32.4-98-18.4 102m43.4-76-29 78.9m45-45.9-34.7 56m51.7-29-38 39.5" transform="matrix(.37903 0 0 .37971 -31.037 33.272)" stroke="#fff" stroke-width="4"/><g stroke="#fff" stroke-width=".561"><path d="M50.809 149.855c-7.2 1.993-16.316-3.37-10.457-9.958-4.212-1.377-7.43-7.16-3.906-8.963-3.33-1.647-3.753-13.018 6.322-12.636-4.522-15.933 10.34-15.59 12.603-2.569 2.525-8.806 11.488-3.946 8.806 2.457 7.277-6.781 9.805 1.719 7.393 5.589 7.276-4.752 8.041 3.636 4.019 11.105" stroke-width="2.2589450400000004"/><path d="M56.937 127.64c1.57 2.758 7.007 11.798 18.31 8.045" stroke-width="2.2589450400000004"/></g></g><g stroke="#fff" stroke-linejoin="round" stroke-linecap="round" color="#000"><g stroke-width=".561"><path d="M101.75 152.154c7.087-.076 11.335 3.218 12.257 7.929" fill="#fff" stroke-width="2.2589450400000004"/><path d="M70.342 147.177c-2.182 3.214-1.76 6.624-2.03 9.958-2.069 4.212-.958 6.507-.535 9.113-.535 3.487-1.264 6.092 3.254 9.156.346 1.647.54 2.678 4.026 5.517.608 2.983-.998 6.47 1.144 8.423.922 2.147.805 4.671-.805 7.772m-17.693-42.28c-.685 1.913-1.53 3.79-.685 6.588.113 1.57.036 3.789-1.192 5.246-.612 1.647-1.224 3.64.153 5.517.576 2.106.04 2.907-.535 4.67-.5 2.417-.153 3.335.805 5.248 0 2.91.765 4.405 1.876 4.94.882 1.265 0 4.136 2.147 6.362.805.99.918 2.142 3.37 1.72m56.49-1.224c11.109-2.376 17.234-3.753 25.661-14.516" fill="none" stroke-width="2.2589450400000004"/><path d="M133.536 216.5c1.035-2.186 1.534-4.369.423-6.511 1.071-1.993.383-3.14-.266-4.445.496-2.22-.423-4.406-.386-9.805m10.574-2.988c-.23 4.1.265 7.47 1.03 9.575 1.305 1.305 1.57 2.682.423 4.558 2.718 4.293 1.265 9.346 2.295 10.993" fill="#fff" stroke-width="2.2589450400000004"/><path d="M147.71 225.689c.113 1.65.689 2.529-.153 5.746m-23.979 27.196.54-.423c5.053-3.14 9.805-6.398 12.064-10.61m1.57 6.052c1.99-.846 3.254-1.84 4.288-2.835m-83.955-106.32c-3.56.995-5.323 3.025-7.236 4.978.612 2.295-.459 4.98-3.064 8.045-.346 2.83-.882 5.553-3.753 6.394.04 2.376.46 4.788-1.993 6.894.535 1.304.153 3.946-1.071 7.775.382 2.183.765 4.329-.959 6.129.576 1.49 1.265 2.87.806 5.746 2.678.878 2.488 2.524 2.412 4.059 1.989-.23 3.753.112 4.67 3.793 1.458 1.377 3.065 3.024 6.053 3.33m-23.44-42.973c3.447-2.641 10.458-1.61 15.624-1.417m-22.9 13.675c7.047-5.247 14.44-7.663 19.916-7.587m-24.933 19.84c5.283-4.212 11.106-9.918 22.98-11.758m-23.749 25.166c7.933-8.657 16.087-16.662 22.521-17.62m-20.95 26.044c6.321-6.282 12.833-16.851 20.684-19.53M20.17 218.414c4.405-8.807 10.34-21.829 20.146-28.34m-15.169 44.809c2.722-12.253 7.164-26.045 17.62-39.832m-5.363 53.236c-1.264-14.552-.04-31.786 10.075-48.255m-.5 17.617c-2.605 17.999-3.1 35.233 7.66 44.812" fill="none" stroke-width="2.2589450400000004"/></g><path d="m143.152 125.075-.995 3.222 3.866-.733-1.61 3.45 4.215-.386-1.683 3.487 3.946-.846-2.376 3.105 4.019-.689-2.106 2.871 4.059-.684-1.341 3.56 3.527-1.229-1.035 3.6 3.294-1.337-.306 3.294 3.024-1.494m-32.708 84.491c7.852 3.29 15.623 7.389 24.127 12.865" stroke-width="1.1475924" fill="none"/><path d="M58.472 203.208c6.2-10.11 12.253-14.133 17.193-16.469 17.887 2.682 26.81-15.893 31.026-31.408 1.49-2.87 1.953-2.488 4.518-4.018" fill="none" stroke-width="2.2589450400000004"/></g><text xml:space="preserve" style="font-size:21.3333px;line-height:1.45;font-family:Constantia;-inkscape-font-specification:Constantia;white-space:pre;shape-inside:url(#a);fill:#000;stroke:#000;stroke-width:.191;stroke-dasharray:none;stroke-opacity:1;paint-order:stroke markers fill" transform="translate(-166.364 -69.279) scale(4.43655)"><tspan x="91.881" y="43.875"><tspan style="font-family:Arial;-inkscape-font-specification:Arial">Landkreis
</tspan></tspan><tspan x="91.881" y="75.337"><tspan style="font-family:Arial;-inkscape-font-specification:Arial">Freudenstadt</tspan></tspan></text></svg>