<svg width="800" xml:space="preserve" height="320" xmlns="http://www.w3.org/2000/svg"><path d="M0 0h800v320H0z" fill="#fff" image-rendering="optimizeQuality" shape-rendering="geometricPrecision" style="clip-rule:evenodd;fill-rule:evenodd;stroke-linejoin:round;stroke-miterlimit:2"/><path fill="#ff0202" d="M105.477 140.667c1.24-1.207 2.342-2.583 3.744-3.044 5.422-1.783 10.98-3.155 16.409-4.92 3.225-1.047 6.305-2.541 9.695-3.936-7.6-7.25-7.921-15.587-5.133-24.253 2.867-8.913 8.891-14.917 18.235-16.974 6.196-1.364 11.412 3.036 12.237 10.07.958 8.168-1.57 15.405-6.26 22.344-.182.401-.176.546-.17.69l.647-.188 35.717-18.4c-5.503-4.25-8.146-9.412-8.616-15.624-.464-6.126 1.416-11.7 4.686-16.774 4.8-7.447 10.822-13.504 19.777-15.705 5.58-1.371 9.756 1.245 10.997 6.878 1.39 6.308.62 12.495-1.856 18.425-1.08 2.589-2.502 5.035-3.945 7.846-.154.438-.132.575-.11.712l.507-.347c8.3-6.78 16.64-13.51 24.876-20.367 2.861-2.383 5.46-5.08 8.171-7.627-.081-.21-.095-.422-.193-.475-8.73-4.65-10.874-12.717-8.665-22.215 2.391-10.277 7.69-18.96 15.547-26.046.337-.305.691-.593 1.051-.87 7.565-5.84 16.378-2.418 17.503 7.203.554 4.73-.346 9.632-.597 14.634 1.933-1.607 3.417-4.126 5.174-6.355a144.175 144.175 0 0 0 5.485-7.478c1.7-2.468 3.296-5.012 4.88-7.558 1.557-2.501 3.043-5.047 5.273-7.493.356 1.719.921 3.424 1.033 5.16.54 8.374.409 16.719-1.152 25.015-.838 4.457-2.936 8.306-5.865 11.52-5.195 5.7-6.758 12.243-7.23 19.822-1.514 24.243-3.7 48.445-5.65 72.66-1.307 16.234-2.467 32.484-4.106 48.685-.466 4.606-1.921 9.256-3.71 13.559-8.798 21.16-19.5 41.234-34.778 58.566-1.176 1.334-2.394 2.631-4.123 4.529.741-35.253 3.792-69.63 5.711-103.598-3.818 3.562-7.79 7.227-11.69 10.966-.369.354-.381 1.175-.402 1.784-1.146 33.385-2.257 66.771-3.46 100.154-.058 1.617-.584 3.412-1.443 4.775-8.702 13.803-20.844 23.9-34.84 31.954-.128.074-.324.029-.928.066V198.815c-3.69 2.487-6.76 4.49-9.728 6.632-.421.304-.493 1.29-.488 1.958.261 34.136.526 68.272.892 102.406.02 1.893-.536 3.065-2.187 3.498-4.366 1.144-8.776 2.12-13.282 3.359-2.675.196-5.237.196-8.162.009-2.14-.553-3.929-.864-5.687-1.298-2.561-.632-3.792-2.051-4.007-4.962-1.403-19.054-3-38.093-4.582-57.133-2.236-26.928-4.518-53.852-6.767-80.779-.33-3.946-.589-7.898-.877-11.804-9.38-.367-13.84-3.776-16.645-12.436-.208-.644-.604-1.227-.913-1.84z" style="stroke-width:.546277"/><path fill="#fffefe" d="M105.477 146.681c.309.356.705.94.913 1.584 2.804 8.66 7.265 12.068 16.645 12.435.288 3.906.547 7.858.877 11.804 2.25 26.927 4.531 53.85 6.767 80.778 1.581 19.04 3.179 38.08 4.582 57.134.215 2.91 1.446 4.33 4.007 4.962 1.758.434 3.547.744 5.432 1.298-12.986.188-26.082.188-39.223.188V146.68z" style="stroke-width:.546277"/><path fill="#050505" d="M578.837 129.014c7.759 1.375 14.177 4.788 19.707 10.305-1.494 1.397-2.93 2.74-4.449 4.158-4.933-4.927-10.745-7.734-17.47-8.866-8.263-1.392-18.716 3.435-23.253 10.95-4.778 7.914-4.25 17.767 1.336 24.946 8.038 10.33 24.28 12.518 34.085 4.555 3.525-2.862 5.362-6.69 6.312-11.38h-16.933v-5.66h23.115c1.513 12.091-7.325 24.403-19.348 26.576-9.478 1.714-18.713.995-26.614-5.201-9.337-7.323-13.194-17.076-10.514-28.677 2.633-11.4 10.193-18.553 21.585-21.115 3.914-.88 8.122-.453 12.441-.591z" style="stroke-width:.546277"/><path fill="#060606" d="M375.179 180.172c-10.588 7.557-25.23 6.137-33.72-.367-8.67-6.64-13.187-18.154-10.7-28.642 2.772-11.686 11.823-20.414 22.984-22.163 15.914-2.493 30.668 7.863 32.896 23.627 1.424 10.071-1.355 19.014-9.471 25.791-.628.524-1.222 1.088-1.99 1.754m-18.51-45.75c-14.74 1.72-22.945 14.784-19.944 28.34 2.635 11.902 14.983 19.338 27.231 16.292 12.703-3.159 18.853-14.437 16.527-26.586-2.201-11.496-11.135-18.092-23.814-18.045z" style="stroke-width:.546277"/><path fill="#070707" d="M397.29 156.258v-26.526c6.242.338 12.353.175 18.281 1.138 5.16.838 8.521 4.486 9.68 9.808 1.086 4.992-.459 9.08-4.228 12.413-.51.452-1.026.9-1.22 1.071 2.47 1.964 5.442 3.497 7.246 5.906 6.723 8.979 1.065 22.006-10.343 23.39-6.26.758-12.686.135-19.415.135v-27.335m24.773 6.63c-5.22-5.887-12.175-4.19-18.77-4.56v19.766c3.853 0 7.586.264 11.27-.055 7.887-.683 11.559-7.887 7.5-15.15m-8.281-11.51c3.984-1.599 6.1-4.8 5.799-8.767-.254-3.329-2.298-5.802-6.017-6.384-3.363-.527-6.818-.46-10.263-.658v17.193c3.5-.403 6.801-.783 10.48-1.384z" style="stroke-width:.546277"/><path fill="#040404" d="M303.19 184.097H290v-54.309c5.888.276 11.72.16 17.43.929 5.373.724 8.941 4.234 10.193 9.618 1.154 4.964-.03 9.318-4.082 12.678-.487.404-.962.824-1.435 1.245-.044.039-.031.141.039-.238 2.606 2.093 5.588 3.643 7.37 6.072 6.536 8.912 1.11 21.56-9.832 23.429-2.048.35-4.149.392-6.493.576m7.001-6.73c4.326-1.982 6.35-5.14 6.153-9.6-.168-3.776-2.687-7.322-7.037-8.294-4.412-.985-9.031-1.04-13.548-1.5v20.646c4.807-.38 9.41-.742 14.432-1.253m-14.61-39.798v15.098c3.375-.287 6.553-.285 9.614-.882 4.524-.881 6.777-4.866 6.806-7.903.04-4.166-1.4-6.628-5.518-7.475-3.245-.667-6.662-.526-10.007-.632-.284-.008-.595.834-.894 1.794z" style="stroke-width:.546277"/><path fill="#050505" d="M434.337 105.446V57.618c4.168 0 8.251-.245 12.293.06 5.488.412 11.127.586 16.374 2.042 9.297 2.58 16.078 11.917 16.654 21.603.346 5.836.098 11.572-2.631 16.976-4.185 8.287-11.056 12.571-20.097 13.05-7.424.395-14.885.081-22.593.081v-5.984m5.506-19.384v20.199c6.334-.288 12.352-.224 18.28-.924 5.946-.702 10.573-3.881 13.354-9.398 2.935-5.82 2.975-11.9 1.336-18.003-1.625-6.048-5.42-10.416-11.376-12.544-6.965-2.487-14.22-2.062-21.594-1.935z" style="stroke-width:.546277"/><path fill="#080808" d="M392.351 70.957c7.742 8.936 15.366 17.719 23.426 27.006V57.779h5.852v54.597c-6.994-6.57-12.33-13.685-18.246-20.24-6.022-6.674-11.817-13.551-18.037-20.713v39.925h-5.985V57.056c1.123.872 1.993 1.363 2.622 2.067 3.449 3.865 6.839 7.782 10.368 11.834z" style="stroke-width:.546277"/><path fill="#070707" d="M651.242 134.463v-4.281l.79-.528c6.35 6.286 11.846 13.38 17.792 20.04 5.966 6.682 11.765 13.512 18.152 20.87v-40.442h5.664v54.801c-6.769-6.679-12.234-13.667-18.095-20.28-5.968-6.733-11.86-13.533-18.097-20.659v39.925h-6.206z" style="stroke-width:.546277"/><path fill="#060606" d="M518.143 159.304 528 170.555V130.15h5.697v54.53c-1.124-.923-1.959-1.436-2.576-2.14a17648.053 17648.053 0 0 1-32.278-36.956c-.392-.45-.627-1.037-.934-1.56l-.663.456v39.486h-5.898v-53.872c.454 0 .98-.154 1.135.022 8.53 9.663 17.029 19.354 25.659 29.188z" style="stroke-width:.546277"/><path fill="#050505" d="M567.674 68.882c2.337 10.069-3.298 15.845-17.704 18.083l18.935 24.548c-2.194 0-3.994.116-5.765-.055-.763-.073-1.692-.567-2.165-1.17-5.66-7.197-11.306-14.408-16.811-21.724-1.167-1.55-2.319-2.12-4.278-1.52v24.303h-5.617V57.604c2.025 0 4.073-.074 6.113.014 5.615.243 11.293.122 16.823.96 5.523.837 9.035 4.563 10.469 10.304m-27.855 11.032c.317.344.635.988.952.987 4.621-.006 9.28.244 13.853-.263 4.67-.517 7.496-4.13 7.52-8.506.025-4.336-2.514-7.738-7.307-8.267-4.884-.539-9.874-.119-15.021-.119 0 5.16 0 10.402.003 16.168z" style="stroke-width:.546277"/><path fill="#060606" d="M611.332 140.417v-10.224h30.972v5.447h-24.861v16.234h24.733v5.806h-24.681v20.54h24.689v5.744h-30.852z" style="stroke-width:.546277"/><path fill="#070707" d="M602.583 111.516h-23.326V57.728h30.866v5.541h-24.985v16.36h24.548v5.65h-24.571v20.562h24.59v5.675z" style="stroke-width:.546277"/><path fill="#050505" d="M336.273 75.648c2.65-5.552 5.165-10.942 7.746-16.3.318-.66.993-1.15 1.502-1.72.525.537 1.244.983 1.545 1.624 8.113 17.283 16.183 34.586 24.255 51.888.032.07-.017.178-.027.268-5.894.341-5.907.348-8.409-4.892-1.748-3.662-3.378-7.383-5.24-10.984-.378-.73-1.551-1.468-2.37-1.483a525.918 525.918 0 0 0-19.64.003c-.788.015-1.906.82-2.28 1.558-2.115 4.178-4.22 8.38-5.984 12.712-1.056 2.592-2.533 3.699-5.274 3.212-.773-.137-1.59-.021-2.734-.021 5.69-12.094 11.243-23.894 16.91-35.865m17.645 11.537-8.37-17.58-8.834 18.82c5.621 0 10.796.02 15.97-.037.45-.006.895-.533 1.234-1.203z" style="stroke-width:.546277"/><path fill="#0a0a0a" d="M500.288 83.723c8.678 9.203 17.217 18.266 26.012 27.6-4.077.28-7.463.764-10.577-2.886-6.251-7.327-13.102-14.143-20.016-21.5v24.445h-5.818v-53.57h5.655v19.713c1.273-1.146 2.11-1.876 2.921-2.635 5.778-5.409 11.501-10.877 17.376-16.177.86-.777 2.414-.919 3.681-1.077 1.423-.178 2.885-.041 5.108-.041l-26.005 24.214c.523.61 1.024 1.192 1.663 1.914z" style="stroke-width:.546277"/><path fill="#060606" d="M659.301 62.926c.69.856 1.266 1.55 1.938 2.359l-4.048 3.073c-1.758-1.479-3.281-2.75-4.793-4.035-2.958-2.513-7.587-2.77-10.279-.562-2.83 2.322-3.635 6.35-1.14 9.31 2.408 2.86 5.597 5.051 8.357 7.628 3.478 3.247 7.29 6.26 10.192 9.972 3.697 4.73 3.626 10.21.254 15.22-3.579 5.316-8.757 7.658-15.2 6.902-7.078-.831-11.043-5.58-14.304-11.47l4.201-2.626c2.563 2.554 4.717 5.38 7.497 7.3 3.53 2.438 9.202 1.18 11.86-2.003 2.55-3.05 2.674-8.608-.265-11.226a1044.348 1044.348 0 0 0-12.391-10.897c-3.537-3.052-6.878-6.207-7.45-11.206-1.248-10.934 9.706-16.9 17.99-13.427 2.774 1.163 4.994 3.646 7.581 5.688z" style="stroke-width:.546277"/><path fill="#0a0a0a" d="M446.447 178.206c6.793.052 13.323.052 19.98.052v5.707h-26.335v-53.776h5.721v2.494c0 14.196-.007 28.393.016 42.589.001.96.232 1.92.618 2.934z" style="stroke-width:.546277"/><path fill="#050505" d="M314.587 111.514h-24.768V57.74h5.619v48.138h21.016c-1.002 2.03 1.488 4.416-1.867 5.635z" style="stroke-width:.546277"/><path fill="#070707" d="M473.668 158.443v-28.246h5.783v53.78h-5.783z" style="stroke-width:.546277"/><path fill="#030303" d="M618.253 77.594V57.792h5.56v53.563h-5.56v-33.76z" style="stroke-width:.546277"/><path fill="#070707" d="M363.556 125.57c-1.924-1.445-2.588-3.417-1.643-5.16.698-1.29 2.477-2.674 3.833-2.735 1.348-.062 3.36 1.174 3.987 2.4.605 1.185.295 3.384-.47 4.597-1.238 1.967-3.41 2.112-5.707.898z" style="stroke-width:.546277"/><path fill="#060606" d="M352.977 125.971c-2.42.665-4.58.295-5.516-1.871-.555-1.282-.576-3.426.166-4.466.816-1.142 2.91-2.173 4.217-1.943 1.37.24 2.957 1.818 3.566 3.2.91 2.068-.441 3.771-2.433 5.08z" style="stroke-width:.546277"/><path fill="#fffefe" d="M154.787 120.357c-.122.162-.337.225-.553.288-.006-.145-.012-.29.125-.508.143-.073.335.12.428.22zm57.157-32.975c-.075.2-.244.317-.413.432-.022-.137-.044-.274.025-.541.09-.13.294.023.388.109z" style="stroke-width:.546277"/></svg>