<svg width="800" height="320" xmlns="http://www.w3.org/2000/svg"><path d="M0 0h800v320H0z" fill="#fff" style="clip-rule:evenodd;fill-rule:evenodd;stroke-width:.8;stroke-linejoin:round;stroke-miterlimit:2"/><path d="M486.03 497.29c6.907 0 12.472-5.5 12.472-11.96 0-6.653-5.565-11.962-12.473-11.962-6.588 0-11.96 5.309-11.96 11.961 0 6.46 5.372 11.961 11.96 11.961" style="fill:#e31f25;fill-opacity:1;fill-rule:evenodd;stroke:none" transform="matrix(7.23413 0 0 -7.23413 -2819.06 3672.766)"/><path d="m389.861 473.396 5.098 23.983h6.237l8.355-14.669 3.117 14.669h6.238l-5.098-23.983h-6.237l-8.35 14.687-3.123-14.687zm38.326 23.983 2.682-14.586 8.941 14.586h6.759l-15.323-23.983h-4.852l-4.983 23.983zm25.16-9.255h8.995l1.967 9.255h6.237l-5.098-23.983h-6.237l2.122 9.979h-8.997l-2.12-9.979h-6.237l5.097 23.983h6.237z" style="fill:#2b2b2a;fill-opacity:1;fill-rule:evenodd;stroke:none" transform="matrix(7.23413 0 0 -7.23413 -2819.06 3672.766)"/><text x="443.082" y="-553.648" transform="matrix(8.10905 0 0 6.4536 -2819.06 3672.766)" style="font-size:10.7053px"><tspan x="443.082" y="-553.648" style="font-variant:normal;font-weight:500;font-size:4.23354px;font-family:Futura;-inkscape-font-specification:Futura-Medium;writing-mode:lr-tb;fill:#2b2b2a;fill-opacity:1;fill-rule:nonzero;stroke:none">R</tspan></text><path d="M497.924 493.116a2.053 2.053 0 1 0 0 4.107 2.053 2.053 0 0 0 0-4.107z" style="fill:none;stroke:#2b2b2a;stroke-width:.4252;stroke-linecap:butt;stroke-linejoin:miter;stroke-miterlimit:22.9256;stroke-dasharray:none;stroke-opacity:1" transform="matrix(7.23413 0 0 -7.23413 -2819.06 3672.766)"/></svg>