<svg width="800" height="320" xmlns="http://www.w3.org/2000/svg"><path d="M0 0h800v320H0z" fill="#fff" style="clip-rule:evenodd;fill-rule:evenodd;stroke-width:.8;stroke-linejoin:round;stroke-miterlimit:2"/><path d="m472.027 2.681 8.776.026c45.474.209 89.078 2.99 133.292 14.383l7.638 1.895c31.594 8 64.462 17.888 93.027 33.825l3.247 9.742-9.678-2.5C560.55 22.96 402.142 26.397 266.639 101.52c-30.387 18.259-62.006 39.41-73.597 74.522-2.378 14.519 1.81 27.547 10.275 39.538l4.87 6.088c9.823 20.628 6.874 41.48-.405 62.51-9.055 13.28-20.844 24.426-35.314 31.66-25.755 2.038-47.541 3.709-68.193-12.988-19.656-19.76-20.464-37.745-20.512-64.35.864-53.66 26.047-93.192 62.727-130.486l6.773-6.9C196.06 60.385 257.368 36.1 313.723 20.946l6.624-1.797C370.491 6.626 420.49 2.311 472.027 2.68zm-358.01 218.987c-9.043 14.257-10.7 25.782-7.103 42.214 1.212 4.351 2.473 8.69 3.856 12.99l4.339 4.311 5.403 5.43c13.94 9.2 29.379 9.006 45.461 6.495 10.346-5.3 16.935-12.877 23.949-22.122 4.778-16.724 4.326-28.735-3.653-43.838-8.426-10.065-14.761-17.455-27.983-19.877-18.379-.03-30.488.952-44.269 14.397z" fill="#3173bb" style="fill:#1863b5;fill-opacity:1;stroke-width:3.24726"/><path d="m244.11 208.476 9.54.203 12.988 58.45 3.806-7.014c9.38-17.251 18.843-34.433 28.667-51.436h25.978c-12.938 74.585-12.938 74.585-19.484 87.676-8.32 2.03-8.32 2.03-16.236 3.247.466-4.466.942-8.93 1.42-13.395l.8-7.534c1.151-9.298 2.734-18.538 4.275-27.78l-25.978 45.462h-19.484l-9.742-42.214-9.742 42.214h-16.236c2.113-19.21 5.483-37.782 9.742-56.624l1.75-8.01c5.138-22.984 5.138-22.984 17.936-23.245z" fill="#457FC0" style="fill:#1863b5;fill-opacity:1;stroke-width:3.24726"/><path d="M165.973 215.174c9.54 8.118 9.54 8.118 16.237 16.236l3.247 3.247c1.465 13.639 1.367 25.733-3.653 38.561-9.135 10.353-17.964 16.135-32.042 17.074-12.206-.783-18.792-3.191-29.047-10.173-8.8-12.8-10.956-23.529-9.945-38.967 4.612-10.608 10.593-18.57 19.483-25.978 12.488-4.163 23.224-3.654 35.72 0z" fill="#3474BC" style="fill:#1863b5;fill-opacity:1;stroke-width:3.24726"/><path d="M338.078 208.679h22.73l16.237 51.956c5.757-11.514 8.808-20.89 11.771-33.284l2.563-10.605 1.902-8.067h16.237c-11.02 79.212-11.02 79.212-19.484 87.676-6.493.132-12.99.138-19.483 0l-3.438-9.83-4.478-12.698-2.264-6.488c-3.198-10.676-3.198-10.676-9.304-19.693l-9.742 48.709h-19.483c4.653-29.396 10.262-58.525 16.236-87.676z" fill="#7CA3D1" style="fill:#1863b5;fill-opacity:1;stroke-width:3.24726"/><path d="M601.106 208.679c16.749-.578 29.81-.377 45.461 6.495 4.902 9.802 3.816 18.421 3.248 29.225l-6.495 9.742h-6.494l2.13 7.47 2.74 9.78 2.74 9.704c2.131 8.765 2.67 5.532 2.67 15.273l-20.022-.013-1.675-6.989-2.384-9.044-2.283-9.019-3.4-7.42-12.989-3.247-3.247 35.72h-19.484a22167.14 22167.14 0 0 1 7.915-40.185l2.265-11.569 2.188-11.035 2.01-10.203c1.859-8.19 1.859-8.19 5.106-14.685zm12.989 16.236-3.247 22.731c11.722-2.13 11.722-2.13 22.73-6.494v-12.99z" fill="#525252" style="fill:#000;fill-opacity:1;stroke-width:3.24726"/><path d="M545.902 208.679h12.99c7.516 29.08 14.704 57.993 19.483 87.676h-19.484l-3.247-19.484c-12.104.226-23.854.744-35.72 3.248-6.226 7.933-6.226 7.933-9.741 16.236-8.727 1.015-8.727 1.015-16.237 0 1.482-17.37 11.094-29.749 20.499-43.838l4.788-7.344c18.227-27.72 18.227-27.72 26.67-36.494zm0 25.978c-9.535 11.858-9.535 11.858-12.989 25.978h19.484l-3.247-25.978h-3.248z" fill="#4D4D4E" style="fill:#000;fill-opacity:1;stroke-width:3.24726"/><path d="M470.2 207.867c13.216.143 22.207 3.4 33.488 10.554 4.633 9.265 4.255 15.699 3.247 25.978-5.845 8.767-10.013 14.749-19.483 19.483-8.678.436-17.284.14-25.978 0l-6.495 32.473h-16.236c1.454-19.986 5.175-38.981 9.742-58.45l1.753-7.54c5.156-21.494 5.156-21.494 19.963-22.498zm1.016 17.048c-4.775 12.7-4.775 12.7-6.495 25.978 9.55-.598 9.55-.598 19.484-3.247 4.664-6.337 4.664-6.337 6.494-12.989-4.26-5.074-4.26-5.074-9.742-9.742h-9.742z" fill="#595959" style="fill:#000;fill-opacity:1;stroke-width:3.24726"/><path d="M662.804 208.679h61.698v16.236h-25.978l-1.193 9.032c-2.894 21.192-6.027 41.803-11.796 62.408l-18.945-.526c3.423-25.692 7.375-46.336 15.697-70.914H656.31z" fill="#5B5B5B" style="fill:#000;fill-opacity:1;stroke-width:3.24726"/><path d="M425.754 208.679h12.989c.771 18.582-2.04 34.917-6.292 52.97l-1.794 7.973c-4.408 19.248-4.408 19.248-8.15 26.733-8.321 2.03-8.321 2.03-16.237 3.247 1.347-21.216 4.883-41.254 9.742-61.9l1.754-7.503c4.311-17.843 4.311-17.843 7.988-21.52z" fill="#739ECF" style="fill:#1863b5;fill-opacity:1;stroke-width:3.24726"/></svg>