<svg width="800" height="320" xml:space="preserve" version="1.0" xmlns="http://www.w3.org/2000/svg"><defs><clipPath clipPathUnits="userSpaceOnUse" id="a"><path d="M0 596.126h1191.118V0H0z"/></clipPath></defs><path d="M0 0h800v320H0z" fill="#fff" style="clip-rule:evenodd;fill-rule:evenodd;stroke-width:.8;stroke-linejoin:round;stroke-miterlimit:2"/><g clip-path="url(#a)" transform="matrix(2.763 0 0 -2.763 -2501.585 812.384)"><path d="M1117.225 196.159c27.21-8.58 56.223 6.52 64.804 33.73 7.914 25.088-4.31 51.712-27.593 62.436l-17.467-3.578 12.068-13.539c20.24-8.191 32.15-26.887 26.94-43.41-5.56-17.632-28.51-26.11-51.26-18.934l-1.135.371-.886.266-12.888-15.288z" style="display:inline;fill:#c6c6c6;fill-opacity:1;stroke:#fff;stroke-width:1.1948;stroke-linecap:butt;stroke-linejoin:miter;stroke-miterlimit:3.864;stroke-dasharray:none;stroke-opacity:1"/><path d="M1069.675 213.092c10.919-26.36 41.138-38.88 67.5-27.961 24.31 10.066 36.846 36.544 30.098 61.274L1153.3 257.49l-2.614-17.951c6.737-20.773.07-41.917-15.94-48.546-17.08-7.073-38.327 5.06-47.458 27.102l-.443 1.11-.367.848-19.994.044z" style="fill:#50af47;fill-opacity:1;stroke:#fff;stroke-width:1.1948;stroke-linecap:butt;stroke-linejoin:miter;stroke-miterlimit:3.864;stroke-dasharray:none;stroke-opacity:1"/><path d="M1014.567 230.703c.57-.432 1.239-.814 2.1-1.197.86-.383 1.815-.57 2.864-.62 1.482.05 2.582.573 3.298 1.625.67 1.004 1.146 2.34 1.338 3.917.238 1.576.334 3.25.285 4.92.049 1.91-.144 3.63-.667 5.064-.526 1.481-1.72 2.244-3.585 2.338-1.338 0-2.387-.237-3.105-.667a40.2 40.2 0 0 1-2.528-1.72zm-85.552 1.958c.909 2.483 1.289 5.826 1.244 10.077.045 4.204-.335 7.547-1.244 10.033-.906 2.437-2.627 3.725-5.253 3.772-2.58-.047-4.348-1.335-5.254-3.772-.908-2.486-1.289-5.829-1.244-10.033-.045-4.25.336-7.594 1.244-10.077.86-2.437 2.627-3.726 5.254-3.775 2.626.05 4.394 1.338 5.253 3.775m58.134 5.11a24.1 24.1 0 0 1-3.251-.24 8.88 8.88 0 0 1-3.822-1.288c-1.192-.716-1.812-1.91-1.861-3.535 0-1.003.286-1.909.814-2.77.573-.815 1.479-1.242 2.674-1.289.81 0 1.624.237 2.34.62.716.382 1.385.812 1.909 1.289.528.43.957.812 1.197 1.051zm27.418 9.744c.666.67 1.575 1.242 2.673 1.72 1.148.48 2.247.717 3.39.717 2.868-.096 4.873-1.148 6.02-3.153 1.194-2.007 1.766-4.537 1.72-7.547 0-2.34-.24-4.537-.717-6.591-.478-2.054-1.338-3.679-2.532-4.967-1.193-1.291-2.817-1.96-4.92-2.01-1.623 0-2.96.193-4.012.625-1.003.382-1.909.953-2.627 1.718a8.672 8.672 0 0 0-.67-1.432c-.283-.528-.572-.861-.858-.91-.096 0-.19.049-.336.096-.14.096-.237.145-.333.239l-1.193.765c-.192.096-.382.24-.479.334-.145.047-.24.192-.24.286 0 .096.095.289.24.479.144.192.287.526.48.906.236.383.382.861.523 1.385.143.575.237 1.244.237 2.01v27.513c0 .141.049.284.096.38.049.095.145.144.24.19l2.387.574c.192.049.288.049.288.049.05 0 .143.047.287.047.143 0 .24-.096.286-.237.049-.146.049-.242.049-.383zm-7.31-20.3c0-.05.047-.096.047-.143.049-.094.049-.144.049-.19-.05-.287-.526-.526-1.385-.815a9.862 9.862 0 0 0-2.676-.383c-1.195 0-2.148.242-2.913.672-.766.38-1.29.955-1.576 1.624-.241.524-.382 1.24-.478 2.101a24.684 24.684 0 0 0-.144 2.627c-.047.861-.047 1.624-.047 2.197v24.793c0 .141.047.284.094.38.047.095.144.144.24.19l2.39.574c.19.049.286.049.286.049.047 0 .143.047.284.047.145 0 .24-.096.286-.237.05-.146.05-.242.05-.383v-25.51c0-.811 0-1.67.046-2.58 0-.954.05-1.574.096-1.908.05-.286.19-.669.477-1.051.286-.383.765-.573 1.434-.62.62 0 1.148.141 1.577.286.428.188.714.285.907.334.143 0 .24-.05.24-.096.046-.05.095-.094.095-.19zm-16.48 6.688c0-1.432.048-2.437.144-3.01.05-.573.24-1.195.432-1.77.094-.284.284-.62.474-1.002.242-.333.336-.62.383-.763a.263.263 0 0 0-.141-.24l-.289-.14-1.861-1.148c-.097-.05-.193-.096-.242-.096-.045-.05-.094-.05-.14-.05-.238.05-.48.242-.717.672-.286.43-.479.906-.669 1.382-.192.528-.336.911-.432 1.148-.188-.19-.57-.573-1.143-1.051-.575-.524-1.34-1.003-2.296-1.432-.953-.43-2.1-.67-3.439-.719-1.908 0-3.439.625-4.537 1.768-1.097 1.197-1.625 2.82-1.672 4.97.047 2.006.575 3.582 1.529 4.68a8.656 8.656 0 0 0 3.631 2.484c1.432.479 2.817.814 4.155.955 1.338.096 2.437.193 3.202.193v1.72c.047 1.385-.24 2.435-.862 3.197-.572.719-1.72 1.1-3.392 1.1-1.622-.048-2.913-.334-3.962-.762-1.003-.431-1.625-.718-1.864-.765-.096 0-.143.047-.19.047-.096.047-.096.143-.146.19l-.62 1.672a.907.907 0 0 0-.096.335c-.047.047-.047.193-.047.287.047.288.43.572 1.242.908.812.383 1.768.67 2.913.906 1.148.24 2.247.383 3.298.383 2.721-.047 4.632-.62 5.73-1.864 1.1-1.192 1.672-2.77 1.625-4.824zm-18.485-5.782c.047-.19.096-.333.096-.477-.049-.239-.382-.478-1.051-.763-.62-.335-1.432-.572-2.388-.814-.908-.237-1.817-.383-2.723-.383-1.051 0-1.96.193-2.77.48-.765.335-1.338.717-1.72 1.194a4.932 4.932 0 0 0-1.195 2.58c-.141.955-.237 1.91-.19 2.819v13.566h-3.582a.32.32 0 0 0-.287.19c-.049.143-.049.237-.049.382v1.815c0 .19 0 .286.05.43.046.096.142.143.286.143h3.582v6.544c0 .287.19.48.523.573l2.533.716h.19c.05.05.096.05.146.05.096 0 .19-.05.19-.146.047-.094.047-.237.047-.38v-7.357h7.07c.143 0 .287 0 .383-.047.094-.05.143-.146.143-.287 0-.049 0-.096-.05-.145v-.19l-.619-1.864a.504.504 0 0 0-.24-.286.546.546 0 0 0-.382-.141h-6.305v-13.566c-.047-1.005.05-1.864.336-2.676.333-.765 1.145-1.146 2.53-1.195 1.148.05 2.15.287 2.962.62.86.383 1.385.624 1.625.669.094 0 .19-.045.24-.094.046-.047.095-.096.095-.192zm-20.35 18.01c-.094-.19-.19-.334-.237-.43a.44.44 0 0 0-.335-.144c-.193.05-.716.287-1.623.67-.861.333-1.913.572-3.201.62-1.003 0-1.815-.238-2.484-.764-.669-.476-1.002-1.29-1.052-2.39.05-1.288.62-2.243 1.672-2.912a23.542 23.542 0 0 1 3.631-1.864 12.26 12.26 0 0 0 3.63-2.291c1.051-.958 1.626-2.343 1.67-4.155-.044-2.247-.81-3.918-2.29-5.066-1.435-1.146-3.247-1.72-5.35-1.72-.812 0-1.768.145-2.913.382-1.101.242-2.104.528-2.963.91-.859.334-1.335.667-1.385 1.003 0 .096.05.237.05.286.047.097.094.19.14.287l.67 1.481c.096.141.143.286.239.333.047.05.143.097.19.097.24-.097.908-.334 2.007-.862 1.148-.479 2.484-.763 4.155-.812 1.052 0 1.958.289 2.676.861.716.573 1.099 1.432 1.146 2.578-.047 1.195-.62 2.15-1.672 2.82a23.346 23.346 0 0 1-3.631 1.863c-1.385.62-2.578 1.385-3.63 2.34-1.05.956-1.624 2.291-1.67 4.06.046 1.96.715 3.583 2.053 4.776 1.29 1.195 3.01 1.817 5.16 1.864.857 0 1.861-.19 2.96-.479 1.099-.286 2.005-.62 2.674-.955.192-.097.335-.19.382-.285a.519.519 0 0 0 .146-.335c0-.047-.05-.143-.096-.237-.05-.05-.05-.146-.097-.242zm-19.917-15.714c-1.721-3.106-4.491-4.636-8.263-4.733-3.82.097-6.592 1.627-8.263 4.733-1.719 3.056-2.58 7.164-2.533 12.321-.047 5.16.814 9.317 2.533 12.324 1.72 3.057 4.488 4.587 8.263 4.683 3.772-.096 6.542-1.626 8.263-4.683 1.718-3.056 2.532-7.164 2.532-12.324.047-5.157-.814-9.265-2.532-12.321M1125.763 254.203c-.765-.716-1.671-1.099-2.772-1.146-1.145.047-2.052.43-2.817 1.146-.718.763-1.098 1.674-1.145 2.817.047 1.148.427 2.056 1.145 2.772.765.716 1.672 1.099 2.817 1.146 1.101-.047 2.007-.43 2.772-1.146.716-.716 1.099-1.624 1.146-2.772-.047-1.143-.43-2.054-1.146-2.817m-26.798-22.88c.146-.146.432-.336.813-.573.382-.286.908-.383 1.577-.43 1.432.047 2.53.48 3.296 1.29.763.811 1.242 1.863 1.528 3.105.286 1.242.383 2.483.383 3.772.047 2.007-.19 3.725-.766 5.207-.572 1.434-1.767 2.246-3.533 2.295-.812-.049-1.48-.241-2.009-.624-.57-.383-1.002-.716-1.289-1.002zm-18.96 1.242c.524 1.432.761 3.295.714 5.589.047 2.293-.19 4.155-.714 5.589-.528 1.432-1.577 2.197-3.202 2.246-1.624-.049-2.673-.814-3.201-2.246-.524-1.434-.766-3.296-.716-5.59-.05-2.293.192-4.156.716-5.588.478-1.432 1.577-2.198 3.201-2.245 1.625.047 2.723.763 3.202 2.245m46.045-5.54c0-.24-.05-.43-.143-.526-.047-.096-.24-.143-.526-.143h-4.728c-.286 0-.479.047-.526.143-.096.096-.143.286-.143.526v18.485h-3.678c-.289 0-.48.047-.526.141-.096.097-.143.29-.143.528v3.104c0 .24.047.432.143.526.047.096.237.143.526.143h9.075c.286 0 .479-.047.526-.143.094-.094.143-.287.143-.526zm-64.913.333c0-.43-.047-.667-.193-.812-.14-.143-.427-.19-.81-.19h-4.204c-.382 0-.669.047-.812.19-.143.145-.19.382-.19.812l-.383 16.195c0 .62-.049 1.385-.049 2.34 0 1.002 0 1.958-.047 2.96v2.34h-.094a58.212 58.212 0 0 0-.431-2.34c-.193-.955-.43-1.861-.62-2.819-.24-.955-.43-1.718-.622-2.34l-2.913-9.315a2.383 2.383 0 0 0-.287-.669c-.143-.096-.382-.14-.765-.14h-2.96c-.383 0-.622.044-.765.14a2.268 2.268 0 0 0-.287.67l-2.77 9.314c-.192.622-.382 1.385-.62 2.34-.192.958-.431 1.864-.624 2.82-.19.955-.333 1.718-.427 2.34h-.096v-2.34c-.05-1.003-.05-1.959-.05-2.96 0-.956-.046-1.722-.046-2.341l-.477-16.195c0-.43-.096-.667-.24-.812-.093-.143-.382-.19-.764-.19h-3.486c-.383 0-.67.047-.813.19-.145.145-.239.382-.19.812l1.338 30.714c0 .43.047.669.19.812.144.145.43.192.813.192h4.584c.383 0 .622-.047.716-.096.143-.096.24-.333.333-.669l3.871-12.035c.334-.958.573-1.913.862-2.869a35.14 35.14 0 0 0 .573-2.866h.096c.14.862.284 1.671.474 2.387.192.719.528 1.864 1.051 3.348l4.061 12.035c.096.336.193.526.334.622.143.096.382.143.812.143h4.587c.382 0 .669-.096.763-.288.143-.19.192-.62.24-1.24zm82.49-.096c0-.096.05-.19.05-.237.046-.047.046-.097.046-.144-.047-.335-.575-.669-1.577-.908-.956-.289-2.054-.43-3.247-.43-1.913.047-3.298.524-4.157 1.435-.812.906-1.336 2.051-1.481 3.439a25.88 25.88 0 0 0-.237 4.345v24.361c0 .334.096.575.237.622.145.094.383.19.669.237l4.014.815c.094 0 .19.044.336.044.14.05.284.097.333.097.19 0 .333-.047.383-.19a2.96 2.96 0 0 0 .093-.813v-26.032a8.114 8.114 0 0 1 .144-2.007c.143-.573.573-.86 1.192-.86.48 0 .862.097 1.197.19.287.144.524.24.667.24.19 0 .336-.096.383-.289zm-44.662 21.401c.48.383 1.148.86 2.007 1.338.909.474 2.007.716 3.296.763 2.148-.047 3.822-.622 5.064-1.718 1.194-1.099 2.053-2.582 2.577-4.35.479-1.812.718-3.772.718-5.875 0-4.106-.859-7.355-2.53-9.698-1.72-2.338-4.157-3.533-7.357-3.58-1.338.047-2.34.287-3.01.766-.668.476-1.194.906-1.53 1.335-.094-.333-.286-.716-.474-1.241-.24-.526-.575-.813-.91-.86-.238 0-.477.047-.67.097l-3.82.955c-.142.047-.239.096-.333.141a.267.267 0 0 0-.143.242c0 .188.143.474.284.81.193.333.383.908.573 1.671.096.479.146.958.193 1.481V259.123c0 .334.096.575.24.622.142.094.382.19.668.237l4.012.815c.094 0 .19.044.335.044.141.05.287.097.334.097.19 0 .335-.047.38-.19.05-.144.096-.43.096-.813zm-14.568-19.68c-1.814-2.247-4.347-3.393-7.594-3.44-3.248.047-5.779 1.193-7.596 3.44-1.814 2.194-2.72 5.3-2.77 9.17.05 3.87.956 6.975 2.77 9.172 1.817 2.244 4.348 3.392 7.596 3.439 3.247-.047 5.78-1.195 7.594-3.439 1.815-2.197 2.723-5.303 2.773-9.171-.05-3.871-.958-6.977-2.773-9.172" style="fill:#000;fill-opacity:1;fill-rule:nonzero;stroke:none"/></g></svg>