<svg xmlns="http://www.w3.org/2000/svg" viewBox="0 0 800 320" xmlns:v="https://vecta.io/nano"><path d="M0 0h800v320H0Z" fill="#fff"/><path d="M426.512 199.921c30.03 0 59.447-5.187 87.52-15.413v72.272a10.388 10.388 0 0 1-10.379 10.384H311.057a10.388 10.388 0 0 1-10.373-10.379v-72.282a254.661 254.661 0 0 0 87.52 15.414h38.308z" fill="#fc0"/><path d="M566.237 121.64c-1.194-15.242-14.063-27.157-29.374-27.157h-3.734l-.005-46.901c0-25.405-20.669-46.08-46.074-46.08H327.66c-25.405 0-46.08 20.67-46.08 46.08v46.9h-3.733a29.506 29.506 0 0 0-29.472 29.478v13.28a29.506 29.506 0 0 0 29.472 29.471h3.734v90.064a29.472 29.472 0 0 0 19.925 27.887v11.959a22.856 22.856 0 0 0 22.831 22.832h26.565a22.856 22.856 0 0 0 22.832-22.832v-10.373h67.237v10.373a22.856 22.856 0 0 0 22.831 22.832h26.566a22.86 22.86 0 0 0 22.836-22.832v-11.96a29.467 29.467 0 0 0 19.92-27.89v-90.05h3.739a29.57 29.57 0 0 0 28.145-20.718 29.452 29.452 0 0 0 1.321-8.758v-14.523a6.28 6.28 0 0 0-.093-1.077zm-19 2.3v13.305a10.392 10.392 0 0 1-10.379 10.373h-3.729v-34.032h3.734c5.71 0 10.359 4.648 10.374 10.354zm-53.135 162.317v10.373a3.738 3.738 0 0 1-3.734 3.738h-26.566a3.743 3.743 0 0 1-3.733-3.738v-10.373zm-139.466 0v10.373a3.738 3.738 0 0 1-3.729 3.738h-26.565a3.738 3.738 0 0 1-3.728-3.738v-10.373zM382.47 73.809l5.89-.068 18.996.009 19.24-.01a235.734 235.734 0 0 1 87.436 16.765v73.554a235.626 235.626 0 0 1-87.52 16.77h-38.308a235.51 235.51 0 0 1-87.519-16.77V90.505a235.626 235.626 0 0 1 81.785-16.696zm43.872-19.171h-10.633l-8.353.009-8.358-.01h-10.931a247.071 247.071 0 0 0-10.966.24 254.524 254.524 0 0 0-76.421 15.18v-22.48A27.01 27.01 0 0 1 327.655 20.6h159.39a27.01 27.01 0 0 1 26.977 26.976V70.05a254.372 254.372 0 0 0-81.628-15.355 365.139 365.139 0 0 0-6.053-.063zm.17 145.278c30.03 0 59.448-5.187 87.52-15.414v72.282a10.388 10.388 0 0 1-10.378 10.374H311.057a10.388 10.388 0 0 1-10.373-10.374v-72.28a254.661 254.661 0 0 0 87.52 15.413zm-159.033-75.947a10.39 10.39 0 0 1 10.374-10.378h3.734v34.032h-3.734a10.384 10.384 0 0 1-10.374-10.373z" fill="#0070ae"/><path d="M426.34 54.638h-10.632l-8.353.009-8.358-.01h-10.931a247.071 247.071 0 0 0-10.966.24 254.524 254.524 0 0 0-76.421 15.18v-22.48A27.01 27.01 0 0 1 327.655 20.6h159.39a27.01 27.01 0 0 1 26.977 26.976V70.05a254.372 254.372 0 0 0-81.628-15.355 365.139 365.139 0 0 0-6.053-.063z" fill="#fc0"/><path d="M337.623 256.956a23.439 23.439 0 0 1-23.414-23.409 23.439 23.439 0 0 1 23.414-23.414 23.439 23.439 0 0 1 23.408 23.414 23.439 23.439 0 0 1-23.408 23.414zm0-27.734a4.33 4.33 0 1 0 0 8.66 4.33 4.33 0 0 0 0-8.66zm139.465 27.74a23.439 23.439 0 0 1-23.414-23.415 23.439 23.439 0 0 1 23.414-23.414 23.439 23.439 0 0 1 23.409 23.414 23.439 23.439 0 0 1-23.409 23.414Zm0-27.745a4.33 4.33 0 1 0 0 8.66 4.33 4.33 0 0 0 0-8.66z" fill="#0070ae"/></svg>