<svg xmlns="http://www.w3.org/2000/svg" viewBox="0 0 800 320"><path d="M0 0h800v320H0Z" fill="#fff" style="stroke-width:.8"/><g fill="#115268"><path d="M434.277 251.884c0 8.31-5.002 12.004-8.542 13.082h-13.928v-25.318h8.08c7.618.077 14.39 2.924 14.39 12.236m14.698-.462c0-17.237-12.236-23.086-29.627-23.009h-21.701v76.876h14.159v-29.473h7.772l12.697 20.085c3.232 5.001 8.003 10.004 18.007 10.004 1.232 0 2.694.077 3.771 0l3.463-9.543c-9.08-.923-10.619-3.924-14.159-9.157l-9.465-13.928c7.926-2.77 15.083-9.85 15.083-21.855m-102.04 24.01 9.85-31.474h.308l9.62 31.474zm17.391-47.018H350.09l-27.703 76.876H337.7l5.772-18.161h26.318l6.31 18.16h16.083zm-241.324 52.635-34.86-52.635H74.367v76.876h13.928v-52.713l35.245 52.713h13.39v-76.876h-13.928Zm68.334-21.008H164.71V240.42h31.32v-12.005h-45.402v76.876h46.71V293.13H164.71v-21.239h26.626zm11.774 7.387c0 24.395 13.005 39.246 35.86 39.246 6.54 0 11.62-.846 15.39-2v-12.39c-3.694 1.155-8.387 2.078-13.928 2.078-13.467 0-22.7-8.31-22.7-27.626 0-17.777 7.771-27.858 22.854-27.858 5.31 0 10.081 1.001 13.851 2.155v-12.236c-3.54-1-8.387-1.77-14.159-1.77-23.393 0-37.168 14.93-37.168 40.401m101.347-39.015-26.01 32.166h-.231v-32.166h-14.16v76.876h14.16V273.43c.308-.077.539-.077.77-.077.461 0 .77.077 1.231.539l17.237 22.162c4.848 6.388 9.928 9.158 18.47 9.235l3.77-10.466c-4.54-.77-7.465-3.078-10.927-7.388L290.53 264.58l30.32-36.245h-16.392Zm263.026 0v46.71c0 10.466-.924 21.855-15.853 21.855s-15.852-11.389-15.852-21.855v-46.71h-11.466v43.402c0 4.156.154 7.618.462 10.696 1.615 20.008 15.544 24.163 26.856 24.163 11.312 0 25.241-4.155 26.857-24.163.308-3.078.462-6.541.462-10.696v-43.402zm25.164 76.877v-76.876h11.697v67.026h31.166v9.85zm-81.648-76.184c-5.694-1.693-10.158-1.924-15.698-1.924-15.699 0-25.241 8.08-25.318 21.778-.077 8.542 5.848 14.236 15.237 19.085l2.847 1.462c7.465 3.771 14.236 7.311 14.236 15.237 0 7.85-5.387 11.543-14.852 11.928-4.464.154-11.928.154-18.392.077l-3.386 9.542c8.157.385 16.776.231 21.24.231 12.466 0 27.01-5.54 27.01-21.624 0-12.466-7.465-17.083-15.622-21.162l-1.692-.847c-8.003-4.001-14.852-7.465-14.852-14.698 0-7.31 5.155-11.312 13.39-11.312 6.08 0 12.312.693 16.083 2.001v-9.773zm195.307-.693-16.314 43.71-1.539 4.078a535.584 535.584 0 0 1-5.771 14.544L676.91 276.2c-.461-1.309-1-2.693-1.538-4.079l-16.315-43.709H643.36v76.876h11.312V247.65l23.316 57.715h9.312l23.316-57.715v57.638h11.312v-76.876ZM336.546 66.735c-11.157 4.77-21.931 6.618-31.935 5.617-19.776-2.077-32.397-14.467-45.787-27.626-13.697-13.313-29.088-28.473-52.328-28.473-23.317 0-38.708 15.16-52.252 28.473-13.467 13.16-26.164 25.548-45.864 27.626-10.081 1.078-20.854-.846-31.935-5.617 0 0-1.924-.924-1.924.616v10.543c0 .692.462 1.308 1.078 1.538a87.933 87.933 0 0 0 11.62 3.463c5.31 1.078 10.542 1.77 15.698 1.77 2.309 0 4.617-.154 6.85-.385 24.163-2.54 39.707-17.776 53.405-31.166 13.543-13.314 25.317-24.856 43.401-24.856 18.084 0 29.781 11.542 43.402 24.856 13.698 13.39 29.165 28.626 53.406 31.166 2.231.23 4.54.385 6.849.385 5.155 0 10.312-.693 15.698-1.77 4.925-1 9.543-2.693 11.62-3.463.693-.23 1.078-.846 1.078-1.538V67.428c-.231-1.616-2.078-.693-2.078-.693zM549.399 142.072v15.545c0 .77-.385 1.615-.924 1.923-2.154 1.155-6.618 2.386-11.466 3.386-5.925 1.232-11.235 1.77-16.237 1.77-2.386 0-4.848-.154-7.157-.385-25.164-2.616-41.016-18.161-55.022-31.935-13.16-12.929-24.548-24.01-41.477-24.01-16.93 0-28.32 11.158-41.478 24.01-14.005 13.774-29.858 29.319-55.022 31.935-2.462.23-8.157.308-8.695.308-.616 0-6.31-.077-8.773-.308-25.164-2.616-41.016-18.161-55.022-31.935-13.159-12.929-24.548-24.01-41.477-24.01-16.93 0-28.32 11.158-41.478 24.01-14.005 13.774-29.858 29.319-55.022 31.935-2.308.23-4.77.385-7.156.385-5.002 0-10.313-.616-16.238-1.77-4.925-1-9.311-2.308-11.466-3.463-.616-.308-.923-1.231-.923-1.923v-15.545c0-.847.384-1.155.923-1.155.693 0 1.539.385 2.078.616.154.077.23.154.385.154 9.157 3.694 17.622 5.618 25.24 5.618 1.77 0 3.54-.077 5.233-.308 18.777-2 31.09-14.082 44.171-26.857 13.928-13.62 29.704-29.165 54.021-29.242h.154c24.394 0 40.247 15.545 54.175 29.242 9.157 8.927 17.7 17.391 28.32 22.394 7.54 3.001 15.005 4.54 22.085 4.694h1.078c7.08-.154 14.544-1.693 22.162-4.694 10.62-5.002 19.162-13.467 28.32-22.394 13.928-13.697 29.78-29.165 54.174-29.242h.154c24.318.077 40.093 15.545 54.021 29.242 13.083 12.775 25.395 24.933 44.171 26.857 1.693.154 3.463.308 5.233.308 7.618 0 16.083-1.924 25.24-5.618.078-.077.232-.077.386-.154.616-.308 1.385-.616 2.077-.616.847.077 1.232.308 1.232 1.232z"/></g></svg>