<svg xmlns="http://www.w3.org/2000/svg" viewBox="0 0 800 320" xmlns:v="https://vecta.io/nano"><path d="M0 0h800v320H0Z" fill="#fff"/><path d="M57.16 145.23a46.782 46.782 0 0 0-7.612-4.239 78.104 78.104 0 0 0-7.354-2.704 106.429 106.429 0 0 0-8.684-2.402c-3.269-.816-5.819-1.69-7.61-2.556-2.608-1.226-3.938-3.115-3.938-5.722 0-2.91 1.279-5.106 3.782-6.583 2.505-1.484 5.774-2.197 9.813-2.197 7.656 0 14.76 2.145 21.297 6.486l6.333-12.568c-8.278-5.465-17.012-8.17-26.306-8.17-9.3 0-16.808 2.248-22.576 6.738-5.779 4.495-8.688 10.48-8.688 17.93 0 10.572 8.374 18.13 25.08 22.679.405.102 1.021.307 1.786.615 10.674 3.218 16.037 6.847 16.037 10.88 0 2.704-1.124 4.952-3.32 6.737-2.198 1.791-5.261 2.659-9.089 2.659-8.785 0-17.829-3.526-27.225-10.572L.77 175.318c4.85 3.828 10.418 6.79 16.705 8.935 6.275 2.1 12.357 3.172 18.233 3.172 8.684 0 15.781-2.299 21.297-6.903 5.517-4.593 8.33-10.726 8.33-18.382 0-7.61-2.762-13.28-8.176-16.91zm58.18 27.533c-3.628 0-6.436-1.124-8.478-3.424-2.042-2.247-3.018-5.306-3.018-9.139v-40.815h21.149v-13.59h-21.15V80.567H86.94v25.228H76.819v13.59h10.115v40.352c0 8.478 2.555 15.176 7.61 20.174 5.107 5.01 11.24 7.462 18.44 7.462s13.788-2.658 19.716-8.022l-6.948-11.952c-3.32 3.578-6.79 5.364-10.418 5.364zm85.509-60.988c-5.98-4.803-13.744-7.2-23.191-7.2-12.415 0-23.5 3.879-33.255 11.638l7.559 10.578c8.073-5.466 15.838-8.17 23.294-8.17 11.9 0 17.829 5.363 17.829 16.036v3.013H171.17c-9.96 0-17.88 1.94-23.756 5.876-5.819 3.937-8.785 9.859-8.785 17.777s2.761 14.245 8.227 18.947c5.517 4.752 12.414 7.103 20.789 7.103 11.182 0 20.121-3.988 26.763-11.952v10.726h15.427v-51.802c0-10.27-3.012-17.823-8.991-22.576zm-7.97 44.49c0 5.157-1.997 9.241-6.03 12.26-4.034 3.012-8.729 4.547-14.149 4.547-5.414 0-9.602-1.027-12.614-3.116-3.013-2.048-4.547-5.06-4.547-8.991 0-7.662 6.076-11.496 18.285-11.496h19.055zm99.194-40.964c-5.568-6.486-13.538-10.423-24.058-10.423a41.322 41.322 0 1 0 0 82.644c10.52 0 18.484-3.93 24.058-10.418v8.992h16.905V74.03h-16.905zm-24.11 55.677a24.743 24.743 0 0 1-24.725-24.727 24.743 24.743 0 0 1 24.726-24.72c13.635 0 23.956 11.085 23.956 24.72s-10.321 24.727-23.962 24.727zm96.338 1.786c-3.628 0-6.44-1.124-8.484-3.424-1.99-2.247-3.012-5.306-3.012-9.139v-40.815h21.149v-13.59h-21.149V80.568H335.89v25.228h-10.1v13.59h10.11v40.352c0 8.478 2.555 15.176 7.61 20.174 5.112 5.01 11.24 7.462 18.445 7.462s13.79-2.658 19.711-8.022l-6.943-11.952c-3.32 3.578-6.79 5.364-10.424 5.364zM523.36 186.2v-49.293c0-10.468-2.813-18.49-8.381-24.058-5.62-5.517-12.922-8.33-22.016-8.33-11.9 0-21.81 5.266-29.78 15.735-4.542-10.469-13.122-15.729-25.845-15.729a30.979 30.979 0 0 0-15.78 4.239 26.842 26.842 0 0 0-10.983 11.644v-14.606h-16.91V186.2h16.91v-43.525c0-7.462 2.145-13.127 6.487-17.012a22.119 22.119 0 0 1 15.273-5.819c5.819 0 10.115 1.786 12.87 5.363 2.71 3.571 4.085 9.192 4.085 16.854v44.135h16.91V141.45c.205-7.051 2.453-12.415 6.744-16.089a22.364 22.364 0 0 1 15.016-5.517c12.312 0 18.44 7.405 18.44 22.216v44.135zM751.114 71.475c-2.91 0-5.466 1.073-7.56 3.167a10.384 10.384 0 0 0-3.166 7.559c0 2.91 1.073 5.465 3.167 7.559a10.384 10.384 0 0 0 7.559 3.166c2.91 0 5.465-1.072 7.559-3.166 2.145-2.094 3.172-4.65 3.172-7.56s-1.072-5.465-3.172-7.558a10.304 10.304 0 0 0-7.56-3.167zm-8.581 34.322h16.904v80.397h-16.904zm39.896-31.766h16.905v112.168h-16.905zM409.96 236.307c-2.094 0-3.93-.719-5.51-2.094-1.587-1.432-2.352-3.371-2.352-5.928s.765-4.547 2.351-5.973c1.58-1.432 3.47-2.145 5.665-2.145 1.38 0 2.762.303 4.142.97 1.375.61 2.55 1.529 3.52 2.652l4.342-5.67a16.556 16.556 0 0 0-5.819-3.932 17.794 17.794 0 0 0-6.538-1.33c-4.29 0-8.021 1.427-11.136 4.29s-4.7 6.59-4.7 11.189 1.534 8.273 4.65 11.136 6.897 4.239 11.386 4.239c4.496 0 8.638-1.997 12.518-6.03l-4.953-5.562c-2.298 2.756-4.803 4.188-7.565 4.188zm52.716-20.79c-2.299-1.842-5.26-2.709-8.888-2.709-5.055 0-9.55 1.432-13.43 4.29l3.725 5.42c1.124-.873 2.452-1.586 4.085-2.15s3.172-.869 4.598-.869c3.371 0 5.06 1.587 5.06 4.804v.154h-6.235c-3.828 0-6.892.765-9.14 2.294-2.247 1.54-3.32 3.834-3.32 6.903 0 3.059 1.073 5.511 3.218 7.348 2.144 1.843 4.797 2.762 7.963 2.762 3.173 0 5.825-1.38 7.97-4.085v3.623h7.816v-19.1c0-3.989-1.123-6.847-3.423-8.684zm-4.952 16.346a4.348 4.348 0 0 1-1.69 3.623c-1.123.925-2.452 1.38-3.936 1.38-1.478 0-2.602-.307-3.424-.867-.81-.559-1.17-1.38-1.17-2.453 0-2.094 1.684-3.115 5.004-3.115h5.215zm41.116-17.726c-1.637.868-2.966 1.888-4.034 3.116v-3.937h-8.33v29.934h8.33v-12.973c0-2.91.611-5.208 1.837-6.994 1.227-1.74 3.064-2.66 5.569-2.66h1.632l-.051-7.866a11.696 11.696 0 0 0-4.953 1.38zm42.395 13.487a19.42 19.42 0 0 0-2.858-1.483 102.447 102.447 0 0 0-4.04-1.38c-1.882-.61-3.268-1.124-4.033-1.58-.816-.457-1.226-1.073-1.226-1.843 0-1.427 1.278-2.094 3.879-2.094 2.607 0 5.163.872 7.765 2.658l3.12-5.568c-3.526-2.35-7.051-3.577-10.578-3.577-3.52 0-6.383.873-8.631 2.608a8.09 8.09 0 0 0-3.32 6.743c0 2.756 1.123 4.85 3.37 6.282a25.54 25.54 0 0 0 2.967 1.632c.868.36 2.145.822 3.777 1.33 1.638.513 2.91 1.072 3.782 1.688s1.324 1.227 1.324 1.94a1.866 1.866 0 0 1-.97 1.684 4.593 4.593 0 0 1-2.55.667c-3.527 0-6.847-1.226-9.961-3.628l-3.68 5.208a19.458 19.458 0 0 0 6.486 3.527 21.594 21.594 0 0 0 6.949 1.175c3.32 0 6.076-.868 8.272-2.659 2.145-1.786 3.27-4.135 3.27-7.097 0-2.858-1.022-5.003-3.116-6.23zm39.075-14.816c-3.115 0-5.973 1.278-8.478 3.834v-14.713h-8.33v41.27h8.33v-16.14c0-2.35.611-4.084 1.838-5.306a5.92 5.92 0 0 1 4.341-1.79c3.372 0 5.06 2.298 5.06 6.89V243.2h8.324v-18.182c0-3.725-1.072-6.693-3.217-8.889a10.492 10.492 0 0 0-7.867-3.32zm53.377 2.71c-2.298-1.843-5.26-2.71-8.888-2.71-5.054 0-9.55 1.432-13.43 4.29l3.725 5.42c1.123-.873 2.453-1.586 4.085-2.15s3.172-.869 4.599-.869c3.37 0 5.06 1.587 5.06 4.804v.154H622.6c-3.828 0-6.891.765-9.14 2.294-2.247 1.54-3.32 3.834-3.32 6.903 0 3.059 1.073 5.511 3.218 7.348 2.145 1.843 4.797 2.762 7.964 2.762s5.825-1.38 7.97-4.085v3.623h7.816v-19.1c.05-3.989-1.124-6.847-3.424-8.684zm-4.952 16.345a4.348 4.348 0 0 1-1.69 3.623c-1.123.925-2.452 1.38-3.936 1.38-1.477 0-2.602-.307-3.417-.867s-1.176-1.38-1.176-2.453c0-2.094 1.69-3.115 5.004-3.115h5.214zm41.117-17.726c-1.637.868-2.967 1.888-4.034 3.116v-3.937h-8.33v29.934h8.33v-12.973c0-2.91.61-5.208 1.837-6.994 1.226-1.74 3.063-2.66 5.568-2.66h1.632l-.05-7.866a11.867 11.867 0 0 0-4.953 1.38zm27.43-13.025a4.587 4.587 0 0 0-3.475 1.426 4.866 4.866 0 0 0-1.426 3.48c0 1.376.457 2.551 1.426 3.47.97.97 2.094 1.432 3.474 1.432s2.551-.457 3.475-1.426a4.679 4.679 0 0 0 1.426-3.48 4.587 4.587 0 0 0-1.426-3.47 4.952 4.952 0 0 0-3.48-1.432zm-4.188 12.209h8.323v29.934h-8.323zm45.818-.514c-3.172 0-5.979 1.278-8.535 3.834v-3.32h-8.323v29.93h8.33v-16.7c0-2.35.61-4.091 1.836-5.311a5.933 5.933 0 0 1 4.336-1.791c3.377 0 5.06 2.298 5.06 6.897v16.904h8.33v-18.182c0-3.731-1.078-6.693-3.223-8.889-2.042-2.248-4.644-3.366-7.816-3.366zm52.248.462v3.937c-2.345-2.916-5.26-4.393-8.832-4.393s-6.743 1.426-9.505 4.233c-2.755 2.863-4.136 6.486-4.136 10.931s1.33 7.97 4.04 10.629c2.704 2.652 5.972 3.982 9.903 3.982 3.937 0 7.206-1.484 9.813-4.393 0 3.32-.872 5.722-2.658 7.251s-4.188 2.299-7.252 2.299c-3.07 0-5.979-1.022-8.683-3.116l-3.224 6.282c1.74 1.33 3.783 2.351 6.082 3.07 2.3.713 4.599 1.072 6.79 1.072 4.193 0 7.816-1.226 10.885-3.68 1.53-1.175 2.807-2.813 3.725-4.906s1.38-4.445 1.38-7.098v-26.1zm-1.883 20.121a6.573 6.573 0 0 1-5.01 2.145c-1.997 0-3.68-.713-5.106-2.197-1.38-1.483-2.094-3.366-2.094-5.768 0-2.35.714-4.238 2.145-5.619s3.115-2.042 5.106-2.042c1.94 0 3.629.662 4.953 2.042s1.997 3.27 1.997 5.671-.668 4.336-1.997 5.768zM683.69 104.93c-10.669 0-18.696 4.039-24.31 10.628V74.025h-16.91v112.18h16.91v-9.242c5.562 6.634 13.635 10.617 24.31 10.617a41.322 41.322 0 1 0 0-82.644zm0 66.048c-13.635 0-23.956-11.086-23.956-24.727 0-13.635 10.32-24.72 23.962-24.72a24.743 24.743 0 0 1 24.72 24.72 24.777 24.777 0 0 1-24.726 24.727z"/><path d="M625.867 146.302a41.23 41.23 0 0 0-41.22-41.22 41.203 41.203 0 0 0-41.219 41.22 41.23 41.23 0 0 0 41.22 41.22c22.73.057 41.22-18.44 41.22-41.22zm-44.436-21.246 36.774 21.246-36.724 21.2a40.815 40.815 0 0 0 5.82-21.149 41.239 41.239 0 0 0-5.871-21.297z" fill="#f1883b"/></svg>