<svg width="800" height="320" xmlns="http://www.w3.org/2000/svg"><defs><clipPath id="a"><path data-name="Pfad 8250" d="m283.3 135.015-1.754.632c-.037-.04-.076-.013-.114 0a12.292 12.292 0 0 1-1.425.339 14.9 14.9 0 0 1-13.865-4.79 14.072 14.072 0 0 1-2.042-3.029c-.32-.637-.579-1.3-.84-1.957q-.883-2.233-1.77-4.463-.737-1.856-1.472-3.713c-.616-1.551-1.228-3.1-1.849-4.652-.329-.82-.672-1.633-.974-2.463-.011-.032-.02-.067-.066-.063l-.393-1.09 9.641-3.472q9.632-3.467 19.262-6.941c.21-.076.273-.031.335.167.18.586.4 1.163.567 1.751.124.425.28.838.414 1.258q.648 2.04 1.3 4.078c.334 1.037.678 2.071 1.015 3.109q.926 2.854 1.848 5.71a23.136 23.136 0 0 1 1 3.664 14.329 14.329 0 0 1-.716 7.258 14.829 14.829 0 0 1-7.59 8.4 1.773 1.773 0 0 0-.512.267z" transform="translate(-256.736 -99.317)" fill="none"/></clipPath></defs><path d="M0 0h800v320H0Z" fill="#fff" style="stroke-width:1.06667"/><g data-name="Gruppe 883"><g data-name="Gruppe 876" fill="#2e2e2d"><path data-name="Pfad 8183" d="M46.495 169.22c0 10.982-5.448 15.308-14.426 15.308H1.525v-55.866h30.062c11.14 0 13.707 5.21 13.707 13.383 0 7.378-1.604 12.024-11.622 12.905 10.659.482 12.823 5.933 12.823 14.27zM12.11 150.957h17.152c3.524 0 4.808-2.564 4.808-6.732 0-4.487-1.204-6.57-4.808-6.57H12.11zm17.622 24.688c3.85 0 5.372-2.808 5.372-7.857 0-5.286-1.845-8.255-5.692-8.255H12.109v16.094z"/><path data-name="Pfad 8184" d="M91.136 182.446a56.756 56.756 0 0 1-18.45 3.204c-12.904 0-17.236-2.966-17.236-13.625 0-11.542 6.493-13.383 16.033-13.383a48.051 48.051 0 0 1 10.097 1.119c0-7.134-1.683-8.9-10.18-8.9a38.336 38.336 0 0 0-12.335 2.004l-1.844-8.176a67.779 67.779 0 0 1 16.27-2.165c12.106 0 17.637 3.689 17.637 15.86zm-9.539-15.954a40.491 40.491 0 0 0-8.097-.731c-5.61 0-7.612.643-7.612 5.85 0 5.53 1.524 6.412 7.536 6.412a26.086 26.086 0 0 0 8.176-1.363z"/><path data-name="Pfad 8185" d="M137.94 182.687a55.07 55.07 0 0 1-17.793 2.966c-13.465 0-19.639-4.808-19.639-21.563 0-16.512 6.814-21.563 17.716-21.563a19.149 19.149 0 0 1 9.78 2.326v-18.209h9.938zM128 154.874c0-2.406-3.523-3.927-8.014-3.927-6.972 0-9.216 2.805-9.216 12.987 0 11.14 2.323 13.216 9.377 13.216a26.045 26.045 0 0 0 7.857-1.204z"/><path data-name="Pfad 8186" d="M207.342 138.923a50.583 50.583 0 0 0-14.746-2.003c-8.9 0-12.585 1.845-12.585 7.293 0 4.247 2.082 6.167 12.265 7.134 12.984 1.365 18.755 6.167 18.755 16.74 0 13.146-8.015 17.554-24.124 17.554a59.015 59.015 0 0 1-17.393-2.485l2.32-9.136a54.968 54.968 0 0 0 14.911 2.003c8.9 0 12.905-1.604 12.905-7.375 0-4.17-2.006-6.814-12.743-7.774-12.335-1.204-18.118-5.052-18.118-15.39 0-13.145 8.176-18.209 23.807-18.209a59.482 59.482 0 0 1 17.072 2.485z"/><path data-name="Pfad 8187" d="M254.312 182.446a56.76 56.76 0 0 1-18.438 3.204c-12.902 0-17.234-2.966-17.234-13.625 0-11.542 6.494-13.383 16.033-13.383a48.051 48.051 0 0 1 10.097 1.119c0-7.134-1.683-8.9-10.182-8.9a38.318 38.318 0 0 0-12.335 2.004l-1.845-8.176a67.743 67.743 0 0 1 16.271-2.165c12.106 0 17.636 3.689 17.636 15.86zm-21.48-48.093c0 4.247-1.204 4.97-4.811 4.97s-4.728-.723-4.728-4.97c0-3.847 1.121-4.405 4.728-4.405 3.607 0 4.808.558 4.808 4.405zm11.941 32.142a40.51 40.51 0 0 0-8.097-.72c-5.61 0-7.612.644-7.612 5.851 0 5.53 1.52 6.411 7.536 6.411a26.086 26.086 0 0 0 8.176-1.362zm5.128-32.142c0 4.247-1.201 4.97-4.728 4.97-3.69 0-4.808-.723-4.808-4.97 0-3.847 1.119-4.405 4.808-4.405 3.527-.003 4.728.558 4.728 4.405z"/><path data-name="Pfad 8188" d="M296.305 183.565a38.767 38.767 0 0 1-12.427 2.085c-12.423 0-20.2-4.97-20.2-21.733 0-16.673 7.857-21.405 20.2-21.405a42.5 42.5 0 0 1 12.427 1.927l-2.244 8.493a28.8 28.8 0 0 0-9.463-1.762c-7.213 0-10.661 1.6-10.661 12.902 0 10.82 3.448 12.905 10.661 12.905a26.106 26.106 0 0 0 9.463-1.924z"/><path data-name="Pfad 8189" d="M329.806 184.528c-9.219-13.384-14.828-20.597-17.072-21.56v21.56h-9.939V126.67h9.939v36.298a150.58 150.58 0 0 0 15.789-19.237h11.783a126.511 126.511 0 0 1-15.63 18.503c2.085 1.28 8.176 8.737 16.834 22.282z"/><path data-name="Pfad 8190" d="M357.692 131.628c0 4.728-1.36 5.53-5.688 5.53-4.406 0-5.772-.802-5.772-5.53 0-4.247 1.363-4.89 5.772-4.89 4.329 0 5.688.643 5.688 4.89zm-.798 52.906h-9.933V143.73h9.938z"/><path data-name="Pfad 8191" d="M377.89 184.528h-9.939v-38.474a59.62 59.62 0 0 1 19.316-3.524c11.454 0 16.591 4.57 16.591 19.237v22.761h-9.939v-21.733c0-9.058-1.682-11.302-8.74-11.302a27.554 27.554 0 0 0-7.292.96z"/><path data-name="Pfad 8192" d="M430.381 185.488c-11.222 0-17.151-4.649-17.151-21.24 0-16.672 6.167-21.733 19.639-21.733a52.991 52.991 0 0 1 17.792 3.046v35.83c0 15.95-8.896 19.478-21.8 19.478a46.321 46.321 0 0 1-14.348-2.405l2.003-8.015a43.094 43.094 0 0 0 12.265 2.003c7.533 0 11.941-2.085 11.941-9.619a19.804 19.804 0 0 1-10.34 2.655zm10.341-33.422a23.819 23.819 0 0 0-7.856-1.363c-7.049 0-9.378 1.845-9.378 13.466 0 10.18 2.165 12.744 9.137 12.744 4.406 0 8.097-1.363 8.097-3.848z"/><path data-name="Pfad 8193" d="M494.41 183.406a51.44 51.44 0 0 1-14.268 2.244c-11.78 0-19.798-4.97-19.798-21.733 0-16.353 7.134-21.405 18.996-21.405 12.905 0 18.503 4.406 17.795 24.21h-26.37c.079 8.737 3.447 10.499 10.572 10.499a49.575 49.575 0 0 0 11.454-1.683zm-23.564-24.288h17.152c-.32-7.213-2.405-8.738-8.094-8.738-6.241.003-8.403 2.006-9.046 8.738z"/><path data-name="Pfad 8194" d="M515.967 184.528h-9.927v-38.474a59.62 59.62 0 0 1 19.316-3.524c11.454 0 16.59 4.57 16.59 19.237v22.761h-9.938v-21.733c0-9.058-1.683-11.302-8.737-11.302a27.554 27.554 0 0 0-7.293.96z"/></g><g data-name="Gruppe 877" fill="#2e2e2d"><path data-name="Pfad 8195" d="M93.363 234.75h-1.948v-18.873h1.948v7.88h10.02v-7.88h1.921v18.873h-1.92v-9.231H93.362z"/><path data-name="Pfad 8196" d="M120.914 234.048a15.008 15.008 0 0 1-5.524 1.083c-3.924 0-5.551-1.057-5.551-4.605 0-3.897 2.35-4.52 5.413-4.52a17.231 17.231 0 0 1 3.9.432c0-3.357-.881-4.062-4.035-4.062a10.867 10.867 0 0 0-3.927.652l-.514-1.653a17.01 17.01 0 0 1 4.546-.676c3.983 0 5.69 1.175 5.69 5.307zm-1.762-1.137v-4.993a16.638 16.638 0 0 0-3.683-.352c-2.734 0-3.654.293-3.654 2.816 0 2.735.785 3.14 3.654 3.14a11.122 11.122 0 0 0 3.686-.614z"/><path data-name="Pfad 8197" d="M132.321 220.779v1.815a10.723 10.723 0 0 0-1.41-.11c-2.03 0-3.844.57-3.844 1.816v10.461h-1.762V221.09h1.762v.975a5.078 5.078 0 0 1 3.844-1.354 11.68 11.68 0 0 1 1.41.068z"/><path data-name="Pfad 8198" d="M140.392 235.131a5.756 5.756 0 0 1-3.765-1.136v5.956h-1.763v-18.165a15.328 15.328 0 0 1 5.525-1.084c4.226 0 6.2 1.568 6.2 7.149 0 5.58-1.945 7.28-6.197 7.28zm0-12.755a11.642 11.642 0 0 0-3.765.57v8.555c0 1.272 1.732 1.947 3.765 1.947 3.192 0 4.252-1.11 4.252-5.55 0-4.655-1.06-5.522-4.252-5.522z"/><path data-name="Pfad 8199" d="M150.283 227.848c0-5.58 1.977-7.149 6.2-7.149s6.226 1.569 6.226 7.149-1.947 7.283-6.226 7.283-6.2-1.68-6.2-7.283zm1.95.053c0 4.44 1.055 5.603 4.25 5.603 3.196 0 4.28-1.175 4.28-5.603 0-4.658-1.058-5.58-4.28-5.58-3.222 0-4.25.922-4.25 5.58z"/><path data-name="Pfad 8200" d="M168.513 231.231a3.524 3.524 0 0 0 1.3 2.937l-1.353 1.134a4.7 4.7 0 0 1-1.703-3.98v-16.12h1.762z"/><path data-name="Pfad 8201" d="M175.071 216.943c0 1.004-.273 1.175-1.113 1.175s-1.134-.162-1.134-1.175c0-.92.268-1.057 1.134-1.057.866 0 1.113.129 1.113 1.057zm-.273 4.141h-1.762v13.671h1.762z"/><path data-name="Pfad 8202" d="M180.95 234.761h-1.761v-12.966a15.328 15.328 0 0 1 5.524-1.084c3.953 0 5.386 1.354 5.386 6.335v7.715h-1.762v-7.363c0-4.17-.88-5.01-3.953-5.01a11.254 11.254 0 0 0-3.436.461z"/><path data-name="Pfad 8203" d="M205.838 233.748c0 5.063-2.517 6.5-6.755 6.5a14.925 14.925 0 0 1-4.405-.788l.514-1.677a11.53 11.53 0 0 0 3.897.785c3.193 0 5.01-.92 5.01-4.576a5.756 5.756 0 0 1-3.764 1.136c-4.25 0-6.2-1.68-6.2-7.283 0-5.604 1.976-7.149 6.2-7.149a15.328 15.328 0 0 1 5.524 1.084zm-9.774-5.847c0 4.44 1.055 5.55 4.25 5.55 2.032 0 3.765-.675 3.765-1.947v-8.555a11.642 11.642 0 0 0-3.765-.57c-3.195-.003-4.247.864-4.247 5.522z"/><path data-name="Pfad 8204" d="M221.604 228.091h-9.774c.026 4.441 1.436 5.387 4.605 5.387a13.666 13.666 0 0 0 3.924-.731l.408 1.624a18.097 18.097 0 0 1-4.497.757c-4.14 0-6.388-1.68-6.388-7.283 0-5.36 2.083-7.149 6.145-7.149 3.873.003 5.577 1.572 5.577 7.395zm-9.748-1.597h7.733c-.161-3.413-1.054-4.144-3.574-4.144-2.858 0-3.942.919-4.159 4.144z"/><path data-name="Pfad 8205" d="M227.055 234.761h-1.762v-12.966a15.351 15.351 0 0 1 5.527-1.084c3.95 0 5.386 1.354 5.386 6.335v7.715h-1.762v-7.363c0-4.17-.881-5.01-3.953-5.01a11.269 11.269 0 0 0-3.44.461z"/><path data-name="Pfad 8206" d="M273.731 215.877a4.817 4.817 0 0 1 5.36 5.471c0 2.644-1.298 4.993-5.442 4.993 1.351.461 3.736 3.654 6.605 8.42h-2.434c-3.005-5.286-5.498-8.176-6.902-8.176h-3.657v8.176h-1.953V215.89zm-6.46 1.627v7.369h6.337a3.128 3.128 0 0 0 3.333-3.548c0-2.464-1.14-3.818-3.198-3.818z"/><path data-name="Pfad 8207" d="M285.215 216.943c0 1.004-.27 1.175-1.11 1.175-.84 0-1.137-.162-1.137-1.175 0-.92.27-1.057 1.137-1.057.866 0 1.11.129 1.11 1.057zm-.27 4.141h-1.763v13.671h1.763z"/><path data-name="Pfad 8208" d="M294.863 235.131a5.756 5.756 0 0 1-3.766-1.136v5.956h-1.762v-18.165a15.348 15.348 0 0 1 5.525-1.084c4.226 0 6.2 1.568 6.2 7.149 0 5.58-1.945 7.28-6.197 7.28zm0-12.755a11.65 11.65 0 0 0-3.766.57v8.555c0 1.272 1.733 1.947 3.766 1.947 3.195 0 4.252-1.11 4.252-5.55 0-4.655-1.057-5.522-4.252-5.522z"/><path data-name="Pfad 8209" d="M310.631 235.131a5.75 5.75 0 0 1-3.765-1.136v5.956h-1.762v-18.165a15.328 15.328 0 0 1 5.524-1.084c4.223 0 6.2 1.568 6.2 7.149 0 5.58-1.947 7.28-6.197 7.28zm0-12.755a11.642 11.642 0 0 0-3.765.57v8.555c0 1.272 1.73 1.947 3.765 1.947 3.192 0 4.25-1.11 4.25-5.55 0-4.655-1.058-5.522-4.25-5.522z"/><path data-name="Pfad 8210" d="M320.52 227.848c0-5.58 1.976-7.149 6.2-7.149 4.223 0 6.226 1.569 6.226 7.149s-1.947 7.283-6.226 7.283c-4.28 0-6.2-1.68-6.2-7.283zm1.95.053c0 4.44 1.054 5.603 4.25 5.603 3.195 0 4.279-1.175 4.279-5.603 0-4.658-1.058-5.58-4.28-5.58-3.221 0-4.25.922-4.25 5.58z"/><path data-name="Pfad 8211" d="M338.746 231.231a3.524 3.524 0 0 0 1.301 2.937l-1.354 1.134a4.7 4.7 0 0 1-1.706-3.98v-16.12h1.762z"/><path data-name="Pfad 8212" d="M345.304 216.943c0 1.004-.27 1.175-1.11 1.175-.84 0-1.133-.162-1.133-1.175 0-.92.267-1.057 1.133-1.057.867 0 1.11.129 1.11 1.057zm-.27 4.141h-1.762v13.671h1.762z"/><path data-name="Pfad 8213" d="M351.181 234.761h-1.762v-12.966a15.351 15.351 0 0 1 5.527-1.084c3.953 0 5.387 1.354 5.387 6.335v7.715h-1.762v-7.363c0-4.17-.882-5.01-3.954-5.01a11.28 11.28 0 0 0-3.439.461z"/><path data-name="Pfad 8214" d="M376.078 233.748c0 5.063-2.52 6.5-6.755 6.5a14.896 14.896 0 0 1-4.406-.788l.514-1.677a11.545 11.545 0 0 0 3.9.785c3.193 0 4.993-.92 4.993-4.576a5.742 5.742 0 0 1-3.762 1.136c-4.253 0-6.2-1.68-6.2-7.283 0-5.604 1.974-7.149 6.2-7.149a15.34 15.34 0 0 1 5.524 1.084zm-9.777-5.847c0 4.44 1.057 5.55 4.252 5.55 2.03 0 3.762-.675 3.762-1.947v-8.555a11.616 11.616 0 0 0-3.762-.57c-3.19-.003-4.252.864-4.252 5.522z"/><path data-name="Pfad 8215" d="M391.843 228.091h-9.768c.026 4.441 1.436 5.387 4.605 5.387a13.666 13.666 0 0 0 3.924-.731l.408 1.624a18.115 18.115 0 0 1-4.497.757c-4.14 0-6.39-1.68-6.39-7.283 0-5.36 2.085-7.149 6.147-7.149 3.868.003 5.571 1.572 5.571 7.395zm-9.748-1.597h7.742c-.161-3.413-1.054-4.144-3.574-4.144-2.867 0-3.95.919-4.168 4.144z"/><path data-name="Pfad 8216" d="M397.291 234.761h-1.762v-12.966a15.34 15.34 0 0 1 5.524-1.084c3.953 0 5.387 1.354 5.387 6.335v7.715h-1.763v-7.363c0-4.17-.863-5.01-3.953-5.01a11.269 11.269 0 0 0-3.439.461z"/><path data-name="Pfad 8217" d="M455.199 215.877h1.923c-1.597 6.311-3.413 12.564-5.58 18.873h-2.517c-1.057-5.63-2.52-11.481-3.712-16.083a164.342 164.342 0 0 1-4.273 16.083h-2.465c-1.677-6.335-3.709-13.643-5.603-18.873h2.194c1.677 5.066 3.23 10.452 4.763 16.87 1.469-4.902 3.44-12.042 4.388-16.87h2.003c1.245 4.822 3.143 11.806 4.036 16.87 2.082-6.365 3.41-10.964 4.843-16.87z"/><path data-name="Pfad 8218" d="M470.218 234.048a15.02 15.02 0 0 1-5.527 1.083c-3.924 0-5.548-1.057-5.548-4.605 0-3.897 2.35-4.52 5.413-4.52a17.231 17.231 0 0 1 3.9.432c0-3.357-.881-4.062-4.036-4.062a10.867 10.867 0 0 0-3.926.652l-.514-1.653a17.01 17.01 0 0 1 4.546-.676c3.983 0 5.69 1.175 5.69 5.307zm-1.762-1.137v-4.993a16.652 16.652 0 0 0-3.683-.352c-2.737 0-3.657.293-3.657 2.816 0 2.735.788 3.14 3.657 3.14a11.143 11.143 0 0 0 3.686-.614z"/><path data-name="Pfad 8219" d="M476.37 231.231a3.507 3.507 0 0 0 1.299 2.937l-1.351 1.134a4.679 4.679 0 0 1-1.706-3.98v-16.12h1.762z"/><path data-name="Pfad 8220" d="M482.653 231.231a3.507 3.507 0 0 0 1.298 2.937l-1.354 1.134a4.7 4.7 0 0 1-1.703-3.98v-16.12h1.762z"/><path data-name="Pfad 8221" d="M498.903 227.948c0 5.603-1.974 7.177-6.197 7.177a15.351 15.351 0 0 1-5.527-1.083v-18.84h1.762v6.607a5.774 5.774 0 0 1 3.765-1.11c4.25 0 6.197 1.668 6.197 7.249zm-1.947-.027c0-4.44-1.057-5.55-4.25-5.55-2.032 0-3.765.678-3.765 1.923v8.582a11.657 11.657 0 0 0 3.765.57c3.193.005 4.25-.89 4.25-5.519z"/><path data-name="Pfad 8222" d="M513.508 234.048a14.996 14.996 0 0 1-5.524 1.083c-3.924 0-5.55-1.057-5.55-4.605 0-3.897 2.349-4.52 5.415-4.52a17.21 17.21 0 0 1 3.897.432c0-3.357-.88-4.062-4.035-4.062a10.84 10.84 0 0 0-3.927.652l-.514-1.653a17.034 17.034 0 0 1 4.547-.676c3.982 0 5.688 1.175 5.688 5.307zm-1.762-1.137v-4.993a16.638 16.638 0 0 0-3.683-.352c-2.734 0-3.653.293-3.653 2.816 0 2.735.787 3.14 3.653 3.14a11.12 11.12 0 0 0 3.686-.614z"/><path data-name="Pfad 8223" d="M528.052 234.37a11.066 11.066 0 0 1-3.897.758c-4.25 0-6.605-1.68-6.605-7.283 0-5.604 2.381-7.149 6.605-7.149a13.09 13.09 0 0 1 3.897.676l-.57 1.653a8.015 8.015 0 0 0-3.33-.652c-3.196 0-4.658.881-4.658 5.525 0 4.44 1.468 5.55 4.658 5.55a8.438 8.438 0 0 0 3.33-.701z"/><path data-name="Pfad 8224" d="M541.709 227.034v7.716h-1.762v-7.363c0-4.17-.881-5.01-3.601-5.01-1.95 0-3.795.678-3.795 1.923v10.45h-1.762V215.2h1.762v6.608a7.049 7.049 0 0 1 3.983-1.11c3.71 0 5.175 1.354 5.175 6.335z"/></g><g data-name="Gruppe 878" fill="#2e2e2d"><path data-name="Pfad 8225" d="M154.68 98.579V82.78h-6.361v-3.075h16.329v3.075h-6.364v15.783z"/><path data-name="Pfad 8226" d="M168.096 84.796h3.357v1.03a3.888 3.888 0 0 1 3.524-1.436 12.746 12.746 0 0 1 1.413.083v3.195a8.855 8.855 0 0 0-1.762-.19c-1.68 0-3.17.542-3.17 1.544v9.548h-3.362z"/><path data-name="Pfad 8227" d="M181.397 91.618c0-5.63 2.191-7.228 6.552-7.228 4.406 0 6.609 1.598 6.609 7.228s-2.168 7.342-6.609 7.342c-4.387-.005-6.552-1.682-6.552-7.342zm3.466.053c0 3.818.731 4.576 3.086 4.576 2.409 0 3.143-.758 3.143-4.576 0-3.953-.731-4.576-3.143-4.576-2.355.003-3.086.626-3.086 4.576z"/><path data-name="Pfad 8228" d="M204.693 98.57h-3.357V85.583a19.09 19.09 0 0 1 6.361-1.193 5.689 5.689 0 0 1 3.525.92 15.207 15.207 0 0 1 4.899-.92c3.87 0 5.412 1.542 5.412 6.5v7.68h-3.357v-7.342c0-3.058-.543-3.818-2.763-3.818a10.28 10.28 0 0 0-2.682.378 10.787 10.787 0 0 1 .382 3.087v7.695h-3.357v-7.342c0-3.058-.543-3.818-2.76-3.818a9.36 9.36 0 0 0-2.306.326z"/><path data-name="Pfad 8229" d="M228.723 85.418a17.953 17.953 0 0 1 6.035-1.028c4.547 0 6.608 1.65 6.608 7.281 0 5.63-2.302 7.284-5.982 7.284a6.831 6.831 0 0 1-3.304-.787v5.603h-3.357zm3.357 9.37c0 .813 1.219 1.324 2.708 1.324 2.35 0 3.142-.946 3.142-4.359 0-3.791-.784-4.467-3.169-4.467a8.203 8.203 0 0 0-2.681.405z"/><path data-name="Pfad 8230" d="M259.194 98.197a17.348 17.348 0 0 1-4.823.758c-3.98 0-6.687-1.68-6.687-7.343 0-5.521 2.408-7.228 6.414-7.228 4.358 0 6.253 1.49 6.012 8.177h-8.908c.027 2.937 1.175 3.548 3.574 3.548a16.755 16.755 0 0 0 3.871-.567zm-7.96-8.203h5.792c-.109-2.435-.813-2.937-2.734-2.937-2.112-.015-2.84.664-3.058 2.937z"/><path data-name="Pfad 8231" d="M270.712 87.72v5.942c0 1.707.458 2.409 2.082 2.409a7.636 7.636 0 0 0 2.35-.38l.587 2.644a12.224 12.224 0 0 1-3.794.623c-3.087 0-4.602-.92-4.602-5.01V87.72h-2.27v-2.937h2.302v-2.33l3.36-1.38v3.71h4.576v2.937z"/><path data-name="Pfad 8232" d="M292.434 98.197a17.328 17.328 0 0 1-4.82.758c-3.98 0-6.687-1.68-6.687-7.343 0-5.521 2.408-7.228 6.414-7.228 4.359 0 6.253 1.49 6.01 8.177h-8.897c.027 2.937 1.175 3.548 3.571 3.548a16.717 16.717 0 0 0 3.871-.567zm-7.96-8.203h5.792c-.108-2.435-.813-2.937-2.737-2.937-2.106-.015-2.837.664-3.051 2.937z"/><path data-name="Pfad 8233" d="M299.89 84.796h3.36v1.03a3.888 3.888 0 0 1 3.525-1.436 12.779 12.779 0 0 1 1.41.08v3.195a8.858 8.858 0 0 0-1.763-.19c-1.68 0-3.169.542-3.169 1.544v9.55h-3.36z"/><path data-name="Pfad 8234" d="M322.834 87.774a13.989 13.989 0 0 0-4.009-.65c-1.653 0-2.493.165-2.493 1.598 0 .946.587 1.275 2.843 1.492 3.33.353 4.793 1.38 4.793 4.141 0 3.575-2.382 4.605-5.904 4.605a17.395 17.395 0 0 1-4.925-.73l.702-2.644a14.07 14.07 0 0 0 4.088.649c1.842 0 2.708-.244 2.708-1.68 0-.975-.54-1.436-2.937-1.65-3.03-.244-4.658-1.084-4.658-3.927 0-3.574 2.408-4.576 5.903-4.576a15.986 15.986 0 0 1 4.632.758z"/><path data-name="Pfad 8235" d="M334.567 87.72v5.942c0 1.707.458 2.409 2.085 2.409a7.657 7.657 0 0 0 2.35-.38l.587 2.644a12.209 12.209 0 0 1-3.791.614c-3.087 0-4.603-.92-4.603-5.01v-6.227h-2.302v-2.937h2.302v-2.329l3.357-1.38v3.71h4.576v2.936z"/><path data-name="Pfad 8236" d="M356.773 97.87a19.134 19.134 0 0 1-6.226 1.085c-4.359 0-5.818-1.002-5.818-4.606 0-3.897 2.19-4.52 5.413-4.52a16.262 16.262 0 0 1 3.412.382c0-2.41-.57-3.007-3.439-3.007a12.878 12.878 0 0 0-4.17.678l-.626-2.763a22.97 22.97 0 0 1 5.501-.732c4.085 0 5.953 1.246 5.953 5.36zm-3.23-5.385a13.783 13.783 0 0 0-2.735-.244c-1.9 0-2.573.217-2.573 1.976 0 1.868.514 2.165 2.547 2.165a8.81 8.81 0 0 0 2.76-.458z"/><path data-name="Pfad 8237" d="M376.116 97.956a18.614 18.614 0 0 1-6.01 1.002c-4.546 0-6.63-1.625-6.63-7.284 0-5.58 2.299-7.28 5.982-7.28a6.488 6.488 0 0 1 3.304.783V79.03h3.357zm-3.357-9.398c0-.814-1.193-1.325-2.708-1.325-2.35 0-3.113.946-3.113 4.385 0 3.765.784 4.467 3.166 4.467a8.81 8.81 0 0 0 2.643-.405z"/><path data-name="Pfad 8238" d="M387.473 87.72v5.942c0 1.707.458 2.409 2.082 2.409a7.636 7.636 0 0 0 2.35-.38l.587 2.644a12.224 12.224 0 0 1-3.794.623c-3.087 0-4.603-.92-4.603-5.01V87.72h-2.302v-2.937h2.302v-2.33l3.36-1.38v3.71h4.576v2.937z"/></g><g data-name="Gruppe 882"><path data-name="Pfad 8239" d="M600.741 74.07a18.726 18.726 0 0 0 1.545-3.66c1.574-5.248 1.424-13.336-3.072-16.722-.846-.638-2.71-1.762-11.486-.952a91.996 91.996 0 0 0-14.447 2.523c-.435.117-1.668.326-1.939 1.307a16.547 16.547 0 0 0-.56 3.398 17.721 17.721 0 0 0 .367 4.84z" fill="#2e2e2d"/><path data-name="Pfad 8240" d="M713.649 234.752a28.647 28.647 0 0 1 .023-16.61 885.495 885.495 0 0 0-26.306 6.231 27.02 27.02 0 0 0-11.41 5.24 20.127 20.127 0 0 0-6.74 9.307c-.17.52-3.293 10.517 2.802 16.884a15.33 15.33 0 0 0 7.357 3.998c5.873 1.709 12.596.722 13.063-1.293.264-1.122-1.618-1.697-1.97-3.918a6.535 6.535 0 0 1 2.231-5.545c4.324-3.665 14.559-.123 19.117 1.469a18.603 18.603 0 0 0 7.342.963 12.232 12.232 0 0 0 1.26-.182 48.03 48.03 0 0 1-6.77-16.544z" fill="#2e2e2d"/><path data-name="Pfad 8241" d="M706.532 166.454s21.851-6.64 40.903.267a18.614 18.614 0 0 1 12.978 16.057 42.033 42.033 0 0 0 .479-26.56c-7.795-25.668-23.275-26.52-23.384-26.602-.975 6.823-11.12 10.685-20.655-2.643-5.166-7.21-9.334 3.562-16.007-4.7-1.5-3.168-2.232-6.372-3.524-9.691a93.753 93.753 0 0 0-15.648.053c-1.71.173-2.778.22-3.433 1.856a17.721 17.721 0 0 0-.588 4.946c-.293 3.562.344 15.968-4.44 17.146a24.391 24.391 0 0 1-11.792.25 79.426 79.426 0 0 1-18.482-8.647c-.608-.4-2.247-1.51-3.498-.928-1.319.61-1.498 2.76-1.51 2.887a5.113 5.113 0 0 0 .75 2.92 29.622 29.622 0 0 0 7.36 7.77 39.81 39.81 0 0 0 11.93 7.02c11.16 2.936 19.406-3.275 29.186-7.266a53.158 53.158 0 0 1 28.489-2.38 50.454 50.454 0 0 1 24.356 9.919c2.176 1.812-.949 4.904-3.108 3.107-7.251-6.035-17.715-8.547-26.931-9.301a49.866 49.866 0 0 0-15.434.88 65.787 65.787 0 0 0-13.856 5.833c-7.766 3.798-17.017 6.37-24.932 3.134a45.72 45.72 0 0 1-9.442-4.837c-2.2-1.35-5.163-4.209-6.426-3.483-.658.376-.787 1.392-.79 2.708a26.606 26.606 0 0 0 2.863 11.533c4.993 10.056 12.288 23.93 25.452 26.189 12.576 2.147 13.66-11.466 39.134-17.437z" fill="#2e2e2d"/><path data-name="Pfad 8242" d="M764.827 221.134a70.892 70.892 0 0 0-4.07-15.586c-6.273-14.979-19.11-35.117-21.352-35.951a53.502 53.502 0 0 0-11.454-1.175 74.178 74.178 0 0 0-22.908 3.548 63.655 63.655 0 0 0-8.567 3.683 66.98 66.98 0 0 1 6.235 5.82c12.26 13.002 10.092 21.196 19.21 27.02 7.24 4.614 15.86 4.07 16.083 7.51a2.937 2.937 0 0 1-1.16 2.414c-.793.808-13.06 3.498-19.589 5.246a38.994 38.994 0 0 0 5.378 21.715 157.334 157.334 0 0 0 23.598-.957c12.191-1.425 14.65-3.19 16.124-4.884 4.006-4.617 3.477-11.58 2.472-18.403z" fill="#2e2e2d"/><path data-name="Pfad 8243" d="M780.72 105.31a65.285 65.285 0 0 0-23.576-4.966 2.458 2.458 0 0 1 0-4.91 89.609 89.609 0 0 1 13.416 1.597c2.162.429 5.783 1.656 7.566 2.217a46.43 46.43 0 0 0-8.867-15.098 48.656 48.656 0 0 0-27.22-15.21 56.833 56.833 0 0 0-7.2-13.846 30.409 30.409 0 0 0-20.815-10.925 33.872 33.872 0 0 1 4.638 4.887 34.656 34.656 0 0 1 7.02 20.35c.09 2.834-4.303 2.823-4.406 0a30.186 30.186 0 0 0-7.39-19.272 53.614 53.614 0 0 0-11.225-9.02c-38.614-23.938-41.263 13.132-38.526 18.116a5.187 5.187 0 0 0 5.744 3.395c1.093-.15 8.518-2.194 11.16-2.937a20.5 20.5 0 0 1 10.257-.256 21.146 21.146 0 0 1 12.822 8.861c2.282 3.21 8.67 19.049 11.619 22.708 2.596 3.216 11.577 12.291 13.02 14.03a15.86 15.86 0 0 1 3.459 7.525c.317 1.83.605 3.674 1.019 5.486a10.547 10.547 0 0 0 1.342 3.483 9.715 9.715 0 0 0 4.435 3.912c.294.12 4.258 1.762 5.545.203.743-.905.367-2.617.246-3.172a5.988 5.988 0 0 0-.67-1.71c-4.278-7.25-8.243-14.57-8.275-23.295a2.444 2.444 0 0 1 4.88 0c.033 8.567 4.547 15.739 8.812 22.849a2.62 2.62 0 0 0 .252.382 3.88 3.88 0 0 0 4.461.954 3.927 3.927 0 0 0 2.156-4.176c2.54 3.001 5.58 5.548 8.223 8.45 6.647 7.26 11.222 1.207 11.625-4.62 9.695 25.536 42.26 3.756 4.452-15.992z" fill="#2e2e2d"/><path data-name="Pfad 8244" d="M576.802 128.6a32.6 32.6 0 0 1 6.494-6.966 35.81 35.81 0 0 1 6.106-3.839 76.948 76.948 0 0 1 22.388-7.636 73.655 73.655 0 0 1 7.562-.849 92.983 92.983 0 0 1-13.327-11.565 85.673 85.673 0 0 1-6.538-7.578c-8.705-2.617-17.369-5.101-26.074-7.718.67 2.881 1.307 5.994 1.885 9.33.188 1.079 1.131 6.609 1.642 12.121a137.76 137.76 0 0 1-.138 24.7z" fill="#2e2e2d"/><path data-name="Pfad 8245" d="M591.89 140.101a32.327 32.327 0 0 1 6.798-17.915 28.635 28.635 0 0 1 6.57-5.845 65.335 65.335 0 0 0-6.49 2.38 54.72 54.72 0 0 0-12.356 7.186c-2.247 1.762-3.363 2.643-3.789 3.583-2.722 6.003 7.68 15.692 9.202 17.081a37.367 37.367 0 0 1 .064-6.47z" fill="#2e2e2d"/><path data-name="Pfad 8246" d="M695.152 89.186a9.016 9.016 0 0 1-2.558-3.882 12.752 12.752 0 0 1 .658-7.369c.88-3.328 1.809-3.771 1.62-5.472a7.636 7.636 0 0 0-3.206-4.807c-4.937-3.939-11.701-2.08-13.164-1.627a9.301 9.301 0 0 0-5.286 3.148 11.633 11.633 0 0 0-1.96 5.257 7.372 7.372 0 0 1-3.576 5.874c-2.323 1.607-8.027 6.027-8.33 6.34a1.363 1.363 0 0 0 .086 2.274 20.987 20.987 0 0 0 3.965 1.703c.687.185.073 2.036-.729 3.454l-.543.223a1.97 1.97 0 0 0-1.104.702 1.78 1.78 0 0 0-.124 1.522 1.468 1.468 0 0 0-1.395.807 7.671 7.671 0 0 0-.24 2.999s.173.975.355 1.783a2.056 2.056 0 0 1-.588 1.063c-.426.443-.728.411-1.148.86a3.128 3.128 0 0 0-.438 4.015 6.837 6.837 0 0 0 3.31 2.937 11.627 11.627 0 0 0 6.976.94 2.305 2.305 0 0 1 2.936 1.574 49.208 49.208 0 0 0 2.467 5.668l.021.044c.135-1.048.261-2.096.367-3.142.311-3.119.787-6.285 3.924-7.683a27.167 27.167 0 0 1 10.684-.957q3.848-.027 7.683.108c-2.173-5.924 6.764-11.424-.663-18.356z" fill="#2e2e2d"/><g data-name="Gruppe 879" fill="#e4b952"><path data-name="Pfad 8247" d="M516.084 49.273c6.931-2.094 25.845 5.09 25.845 5.09s14.365 5.46 24.233 8.879l-2.188-.758 2.167.752a11.193 11.193 0 0 1 .458-6.99l-.147-.044.147.044a203.424 203.424 0 0 1-32.943-16.115c-12.415-7.812-4.893-19.89-11.748-22.239-3.257-1.113-11.275 1.225-16.335 17.86-6.802 22.338-2.074 26.092 2.202 27.777 6.024 2.373 9.651-3.524 11.011-6.755.364-.863.411-1.468.144-1.888-.232-.355-.643-.311-1.965-.626a5.695 5.695 0 0 1-1.844-.587 2.834 2.834 0 0 1-.34-3.524 2.643 2.643 0 0 1 1.303-.876z"/><path data-name="Pfad 8248" d="M657.36 91.847a1.486 1.486 0 0 0-.905-.508c-.47-.067-.717.112-1.337.294a6.197 6.197 0 0 1-1.468.232q-4.872-1.428-9.777-2.884c-2.74-.817-4.614-1.38-4.614-1.38a7.557 7.557 0 0 0-5.527-8.855c-1.86-.69-19.2-6.656-26.083-8.785a30.333 30.333 0 0 1-2.083 5.65c5.081 1.68 20.955 6.72 22.72 7.267 2.368.746 4.406 1.53 3.819 3.624-.588 2.094-3.014 1.222-4.42.805-11.393-3.525-38.107-11.983-49.517-15.463-9.586-2.937-19.234-5.654-28.753-8.782a16.473 16.473 0 0 1-7.298-4.749 4.244 4.244 0 0 0-1.912-.784 3.436 3.436 0 0 0-.978 0 3.372 3.372 0 0 0-2.423 1.78c-.837 1.742.511 3.797 1.13 4.746a6.118 6.118 0 0 0 1.267 1.495 10.517 10.517 0 0 0 2.3 1.571 63.637 63.637 0 0 0 6.252 2.59c2.687.902 5.466 1.528 8.176 2.35l59.23 18.297c3.768 1.175 7.515 2.429 11.333 3.404 4.33 1.107 10.182.728 11.9-2.643.136.038 7.88 2.825 14.277 5.58a4.485 4.485 0 0 1 .746.881 1.745 1.745 0 0 0 .52.626 1.116 1.116 0 0 0 .587.19 1.157 1.157 0 0 0 .65-.205c.795-.5 1.435-2.452 1.438-2.455.972-2.978 1.078-3.475.75-3.889z"/></g><path data-name="Pfad 8249" d="M663.967 249.978a67.949 67.949 0 0 0-2.937-10.761l-5.427-16.77c-.99-3.046-2-6.083-2.981-9.131q-1.93-5.983-3.818-11.977c-.394-1.236-.852-2.45-1.216-3.695-.502-1.727-1.134-3.421-1.665-5.142-.18-.588-.367-.714-.984-.49q-28.277 10.214-56.571 20.385l-28.315 10.197 1.154 3.2c.135 0 .162.095.194.186.881 2.435 1.894 4.825 2.86 7.233 1.824 4.547 3.622 9.105 5.43 13.663q2.165 5.451 4.324 10.905l5.198 13.107c.767 1.942 1.528 3.877 2.467 5.748a41.329 41.329 0 0 0 5.998 8.896 43.76 43.76 0 0 0 40.72 14.068 36.1 36.1 0 0 0 4.185-.996c.109-.035.226-.111.335 0l5.152-1.856a5.148 5.148 0 0 1 1.524-.775 43.552 43.552 0 0 0 22.291-24.67 42.083 42.083 0 0 0 2.082-21.325zm-38.1-16.538a6.708 6.708 0 0 1 5.06.801 3.087 3.087 0 0 1 .62 4.764 10.781 10.781 0 0 0-2.382 2.937.379.379 0 0 0-.03.053c-.173 1.148-1.072 1.35-1.99 1.533-.271.053-.377.03-.42-.294a20.315 20.315 0 0 1 .278-5.286 2.382 2.382 0 0 0-.082-1.228 1.786 1.786 0 0 0-.731-.88 4.943 4.943 0 0 1-.846-.767.993.993 0 0 1 .526-1.633zm3.594 12.67c.024.25-.014.41-.317.452a54.448 54.448 0 0 0-8.767 2.37 103.26 103.26 0 0 0-9.891 3.853 15.084 15.084 0 0 0-2.726 1.44c-.293.196-.493.21-.672-.11q-.535-.948-1.075-1.89c-.2-.35.094-.427.294-.524 1.512-.722 3.013-1.468 4.549-2.146 2.094-.917 4.18-1.86 5.891-2.412a111.965 111.965 0 0 1 11.748-3.445c.364-.088.529-.038.614.382.144.679.288 1.348.355 2.033zm-4.907-10.993c.587.587 1.09 1.066 1.568 1.577a1.048 1.048 0 0 1 .194 1.33.834.834 0 0 1-1.01.326 1.23 1.23 0 0 1-1.09-1.042 6.273 6.273 0 0 1 .34-2.191zm-5.924 1.591a1.595 1.595 0 0 1 1.554-1.051 3.404 3.404 0 0 1 2.625 1.175c.382.382.726.807 1.113 1.175a2.57 2.57 0 0 0 2.162.88c.34-.04.361.1.294.38a24.441 24.441 0 0 0-.561 4.188c0 .235-.062.405-.35.472-.705.17-1.4.382-2.103.588l-2.117.602a17.854 17.854 0 0 1-.088-3.325 2.957 2.957 0 0 0-1.519-3.042 2.576 2.576 0 0 1-.476-.37 1.468 1.468 0 0 1-.531-1.672zm1.266 2.826a.749.749 0 0 1 .379 1.104c-.323.632-.896 1.02-1.354.881-.514-.161-.538-.622-.567-1.034-.053-.678-.053-1.362-.076-2.094a7.683 7.683 0 0 0 1.62 1.143zm-6.711-.235a2.141 2.141 0 0 1 2.112-.773 1.366 1.366 0 0 1 1.136 1.252 3.116 3.116 0 0 0 .808 1.785 2.264 2.264 0 0 0 3.404 0c-.053.658-.097 1.237-.15 1.806-.059.658.085 1.469-.253 1.93-.337.461-1.148.485-1.762.702-1.5.55-3.001 1.09-4.496 1.66a.443.443 0 0 1-.57-.148c-.775-.81-1.565-1.612-2.39-2.458a2.402 2.402 0 0 0 2.349-3.524 3.997 3.997 0 0 0-.259-.546 1.348 1.348 0 0 1 .074-1.686zm-2.881 3.645c.103-.294.226-.605.314-.917.088-.311.138-.617.209-.93.44.566.88 1.106 1.286 1.673.252.359.51.767.13 1.207a1.504 1.504 0 0 1-1.69.03c-.431-.27-.378-.658-.246-1.063zm-3.325-2.118a2.502 2.502 0 0 1 .673-.687 1.618 1.618 0 0 1 1.826-.124 1.468 1.468 0 0 1 .629 1.636 4.505 4.505 0 0 1-.19.826 2.66 2.66 0 0 0 .613 2.796 27.675 27.675 0 0 1 2.276 2.884 352.664 352.664 0 0 0-3.974 1.762.423.423 0 0 1-.587-.088 25.69 25.69 0 0 0-3.187-2.937c-.158-.124-.243-.238-.04-.367a3.154 3.154 0 0 0 1.239-2.917 4.808 4.808 0 0 1 .725-2.787zm-3.107 1.745a5.639 5.639 0 0 1 1.656 1.439 1.372 1.372 0 0 1-.643 1.912c-.555.193-1.116-.244-1.195-.94-.091-.79.208-1.548.185-2.411zm-4.661 1.762a9.248 9.248 0 0 1 2.37-2.124 1.098 1.098 0 0 1 1.201-.05.972.972 0 0 1 .467 1.04 6.514 6.514 0 0 1-.164.946 1.991 1.991 0 0 0 .672 2.117 24.705 24.705 0 0 1 3.116 3.175c.062.08.112.168.17.25.588.796.535.728-.275 1.222a1.53 1.53 0 0 1-1.81 0 7.102 7.102 0 0 0-3.26-.802 3.874 3.874 0 0 1-2.32-.737 2.89 2.89 0 0 1-.851-1.175 3.915 3.915 0 0 1 .687-3.86zm7.24 10.414a9.633 9.633 0 0 0-4.283 4.05 22.194 22.194 0 0 1-1.3 1.974 3.463 3.463 0 0 1-5.607.496 10.661 10.661 0 0 1-2.268-3.466 26.039 26.039 0 0 0-2.35-4.699 4.209 4.209 0 0 0-1.468-1.321 1.154 1.154 0 0 0-1.735.628 4.59 4.59 0 0 0 0 3.257c.587 1.977 1.057 3.983 1.553 5.983a12.611 12.611 0 0 0 1.742 4.185 4.943 4.943 0 0 0 3.912 2.214 17.528 17.528 0 0 1 2.699.259 3.844 3.844 0 0 1 3.248 2.725 5.21 5.21 0 0 1 .13 1.613 8.038 8.038 0 0 1-.094 1.14 3.395 3.395 0 0 0 1.697 3.817 7.363 7.363 0 0 1 3.589 6.036 19.172 19.172 0 0 0 .646 3.873c.076.253.115.397-.294.447a9.513 9.513 0 0 0-3.744 1.322c.097-1.422.194-2.744.158-4.071a6.881 6.881 0 0 0-1.556-4.773 11.636 11.636 0 0 0-1.96-1.512 3.897 3.897 0 0 1-1.79-2.056 4.7 4.7 0 0 1-.05-1.856c.05-.44.114-.881.129-1.322a2.411 2.411 0 0 0-2.276-2.743 16.682 16.682 0 0 0-2.77-.147 6.358 6.358 0 0 1-6.314-4.47 35.593 35.593 0 0 1-1.924-6.946c-.203-.948-.458-1.882-.608-2.842a4.112 4.112 0 0 1 1.686-4.191 15.434 15.434 0 0 1 2.846-1.821 3.621 3.621 0 0 1 3.23.108 15.504 15.504 0 0 1 2.67 1.666 3.571 3.571 0 0 1 1.398 3.06 10.127 10.127 0 0 0 .08 1.862 2.173 2.173 0 0 0 4.208.74 9.292 9.292 0 0 0 .881-2.13 4.831 4.831 0 0 1 4.038-3.48 2.673 2.673 0 0 0 .473-.102c.34-.153.5-.027.637.293.25.588.558 1.122.832 1.686.102.182.264.358-.086.514zm39.01 22.565a17.034 17.034 0 0 1-6.772 7.765 30.33 30.33 0 0 1-16.535 5.113 15.674 15.674 0 0 1-7.515-1.82c-.23-.124-.476-.21-.456-.556a10.353 10.353 0 0 0-1.953-5.874 48.336 48.336 0 0 1-4.246-8.352 17.445 17.445 0 0 1-.588-10.165 19.275 19.275 0 0 0 .714-6.873v-.24c0-.412-.338-.855-.03-1.216a5.266 5.266 0 0 1 1.86-1.322c.32-.147.293.209.34.361a9.36 9.36 0 0 1 .367 3.163 44.098 44.098 0 0 0-.24 4.817 5.92 5.92 0 0 0 1.066 3.283c-.15-.925-.432-1.641-.505-2.402a34.656 34.656 0 0 1 .114-5.06 17.651 17.651 0 0 0-.164-3.85.587.587 0 0 1 .232-.626 7.304 7.304 0 0 1 3.747-1.569c.347-.047.385.118.4.38a30.544 30.544 0 0 1-.294 4.625 8.908 8.908 0 0 0 .652 4.7c.179-.327-.038-.588-.08-.882a17.178 17.178 0 0 1 .121-4.7 17.299 17.299 0 0 0 .065-3.97.76.76 0 0 1 .27-.746 7.419 7.419 0 0 1 4.79-1.727.664.664 0 0 1 .628.294 22.376 22.376 0 0 0 3.68 4.138 11.028 11.028 0 0 1 2.432 3.307 5.093 5.093 0 0 0-1.119-2.643 26.115 26.115 0 0 0-2.857-3.02 19.287 19.287 0 0 1-1.586-1.811c-.147-.188-.268-.344.05-.544a7.287 7.287 0 0 1 3.94-1.175.455.455 0 0 1 .465.218 23.79 23.79 0 0 0 3.739 4.631 12.705 12.705 0 0 1 3.013 4.423 3.495 3.495 0 0 0-.529-2.038 15.733 15.733 0 0 0-3.022-3.665 12.411 12.411 0 0 1-2.523-3.366c-.32-.69-.326-.71.4-.831l.238-.044a1.93 1.93 0 0 1 2.42.996 13.334 13.334 0 0 0 3.774 4.026 21.877 21.877 0 0 1 4.878 4.635 21.575 21.575 0 0 1 2.987 6.46c.807 2.826 1.128 5.74 1.677 8.609a8.57 8.57 0 0 0 1.862 4.212.746.746 0 0 1 .097.942zm5.834-5.49c-.8-1.97-2.186-3.586-3.096-5.474a6.517 6.517 0 0 1-.326-4.49c.112-.47.247-.937.352-1.41a2.97 2.97 0 0 0-.816-2.89c-.479-.488-.966-.967-1.419-1.469a3.677 3.677 0 0 1-.293-4.922 10.573 10.573 0 0 1 1.906-2.012 5.477 5.477 0 0 0 1.577-6.167 34.133 34.133 0 0 0-2.435-5.551c-.558-1.143-.948-2.35-1.586-3.472a4.297 4.297 0 0 0-1.492-1.63 1.26 1.26 0 0 0-2.056.829 5.936 5.936 0 0 0-.047 2.693c.318 1.762.978 3.418 1.349 5.157a7.748 7.748 0 0 1-.021 4 3.269 3.269 0 0 1-3.55 2.376 16.32 16.32 0 0 1-3.502-.96 9.398 9.398 0 0 0-5.471-.294c-.264.07-.367 0-.423-.238a91.176 91.176 0 0 0-.488-2.056c-.04-.17-.058-.293.138-.405a11.986 11.986 0 0 1 2.538-.996 4.267 4.267 0 0 1 3.23.688 17.451 17.451 0 0 0 2.021 1.11 2.996 2.996 0 0 0 1.944.211 2.135 2.135 0 0 0 1.14-3.201 18.05 18.05 0 0 0-1.513-2.027 3.286 3.286 0 0 1-.64-2.678 13.16 13.16 0 0 1 1.099-3.33 3.839 3.839 0 0 1 3.2-2.189c.759-.1 1.525-.14 2.283-.211a4.112 4.112 0 0 1 4.326 2.364 64.234 64.234 0 0 1 3.977 8.376 10.632 10.632 0 0 1 .587 2.958 5.97 5.97 0 0 1-2.35 5.013 20.068 20.068 0 0 0-2.09 1.906 2.411 2.411 0 0 0 .032 3.65c.355.383.734.744 1.119 1.096a3.166 3.166 0 0 1 .983 3.398 7.765 7.765 0 0 1-.226.817 6.34 6.34 0 0 0 1.275 6.705q1.11 1.354 2.308 2.625l.49.523a10.35 10.35 0 0 0-4.032 1.577z" fill="#2e2e2d"/><g data-name="Gruppe 881"><g data-name="Gruppe 880" clip-path="url(#a)" transform="translate(560.03 191.908) scale(2.93693)"><path data-name="Rechteck 1910" fill="#d9000f" d="M-1.397 9.68 29.279-1.365l3.315 9.208L1.918 18.887z"/></g></g><path data-name="Pfad 8251" d="m620.13 195.58 18.145-6.535c-4.978-15.025-9.76-34.929-4.722-47.646.146-.37.232-.763.364-1.136a3.19 3.19 0 0 0-.958-3.616c-.211-.202-.37-.355-.405-.385-1.192-1.01-6.344-6.167-6.828-6.643a77.394 77.394 0 0 1-9.46-14.038 29.126 29.126 0 0 0-16.385 12.984 38.348 38.348 0 0 0-3.043 15.345 69.81 69.81 0 0 0-.24 9.172c4.422 7.02 9.659 15.63 14.754 25.023-.473-3.284-.67-6.623-.913-9.915-.623-8.4-.837-17.651 3.627-25.131a2.197 2.197 0 0 1 3.794 2.217c-4.405 7.369-3.553 16.817-2.86 25.02.117 1.377.25 2.693.426 4.09.129 1.035.567 4.47 1.553 9.158.685 3.242 1.677 7.33 3.152 12.036z" fill="#2e2e2d"/></g></g></svg>