<svg version="1.1" id="Gruppe_2653" x="0" y="0" xml:space="preserve" width="800" height="320" xmlns="http://www.w3.org/2000/svg"><style type="text/css" id="style1">.st0{fill:#005ea8}</style><path d="M0 0h800v320H0z" fill="#fff" style="display:inline;fill:none;stroke-width:.800003" id="path1"/><g id="g2" transform="translate(198.977 2.805) scale(.74402)"><path id="Pfad_1946" class="st0" d="M16.5 224.1h37.6V116h.6l77.5 108.1H178L93.4 107.6 171.9 2.1h-45.7L54.8 98.9h-.6V2.1H16.5z"/><path id="Pfad_1947" class="st0" d="M285.8 196.7c-9.4 3.5-19.3 5.4-29.3 5.8-43.1 0-57.6-43.1-57.6-64.4h90.7v-8.7c0-37.3-19.3-62.1-58.2-62.1-46.3 0-65.6 29.3-65.6 72.1 0 56.3 27.7 88.2 77.2 88.2 14.5.3 29-1.8 42.8-6.1zm-85.9-80.1c1.2-15 13.9-26.6 29-26.4 22.2 0 27 16.7 27 26.4z"/><path id="Pfad_1948" class="st0" d="M308.7 224.1h35.7v-66.3c0-24.1 11.9-57 36-57 12.6 0 15.8 4.5 15.8 35.7V224H432V117.9c0-35.1-19-50.5-41.5-50.5-28.3 0-40.5 20.6-45.4 32.2h-.6V2.1h-35.7v222z"/><path id="Pfad_1949" class="st0" d="M462 224.1h35.7V2.1H462z"/><path id="Pfad_1950" class="st0" d="M4.6 286.3H11l3.2-12.7h13.1l3.2 12.7H37l-12.4-46.8h-7.4zM20.7 247h.1l5 20.5H15.7z"/><path id="Pfad_1951" class="st0" d="M39.1 286.3h5.7v-36.9h.1l10 36.9h5.7l10-36.9h.1v36.9h5.7v-46.8H68l-10.2 37.4h-.1l-10.1-37.4h-8.5z"/><path id="Pfad_1952" class="st0" d="M97 286.3h6.2v-20.1h2.4c5.7 0 6.4 2.5 7.7 10l1.7 10.1h6.3l-2.2-13.2c-.8-5-1.4-9-6.5-10.4v-.1c4.9-1.2 8-5.9 7.2-10.9 0-9.1-4.9-12.3-11.7-12.3H97zm6.2-41.2h4.9c3.5 0 5.4 2.6 5.4 7.5 0 6.9-4 7.9-7.9 7.9h-2.4z"/><path id="Pfad_1953" class="st0" d="M124.8 286.3h6.2v-21.4h13.1v21.4h6.2v-46.8h-6.2v19.4H131v-19.4h-6.2z"/><path id="Pfad_1954" class="st0" d="M156.5 286.3h21.7v-6h-15.5v-15.2H177v-6h-14.3v-13.5h15.1v-6h-21.3z"/><path id="Pfad_1955" class="st0" d="M182.1 286.3h6.2v-46.8h-6.2z"/><path id="Pfad_1956" class="st0" d="M194.2 286.3h5.7v-36.1h.1l14.7 36.1h6.9v-46.8h-5.7V274h-.1l-14.1-34.5h-7.6z"/><path id="Pfad_1957" d="M229.1 238.5c20.5-.4 39.6 10.4 49.7 28.2.9 2.4-9.4 5.7-5.7 6 9.2 1.3 18.5-.2 26.9-4.3 24.6-16.7 36.1-30.4 68.2-35.3 34.5-5.4 60.3 1.2 84 18.9 7.5 4.7 11.5 11.2 21.9 9.7 26.5-3.7 45-1.3 68.7-10 3.6-1.3 6.2 2.4 2.5 3.8-27 10-35.2 29.9-65.5 34.2-23.4 3.4-39.4-6.1-56.3-16.6-14.4-10.7-28.8-19.1-49.8-15.8-24.7 3.8-35.3 17.7-54.3 30.6-18.9 7.5-33.8 15.5-54.6 13.1-17.9-1.8-23.4-10.5-27.7-22.5-3.8-6-1.6-13.1-8-14.9v-25.1" style="fill:#84d0f0"/><g id="Gruppe_1473"><g id="g1"><g id="Gruppe_1472"><path id="Pfad_1958" d="M146.3 331.3c.3.8.7 1.7 1 2.6 1.2 4 2.1 9.4 8.3 9.4 14.2.4 16.2-13.1 25.1-20.7 13.4-11.5 25.4-23.8 46.9-23.3 20.5-.4 39.6 10.4 49.7 28.2.9 2.4-9.4 5.7-5.8 6 9.2 1.3 18.5-.2 26.9-4.3 24.6-16.7 36.1-30.4 68.2-35.3 34.5-5.4 60.3 1.2 84 18.9 7.5 4.7 11.5 11.2 21.9 9.7 26.5-3.7 45-1.3 68.7-10 3.6-1.3 6.2 2.4 2.5 3.8-27 10-35.2 29.9-65.5 34.2-23.4 3.4-39.4-6.1-56.3-16.6-14.4-10.7-28.8-19.1-49.8-15.9-24.7 3.8-35.3 17.7-54.3 30.6-18.9 7.5-33.8 15.5-54.6 13.1-17.9-1.8-23.4-10.5-27.7-22.5-4.3-6.8-.8-15-11.2-15.3-9.2-.3-18.2 3-25 9.3-12.2 10.8-28.1 16.4-44.4 15.7-8 .1-15-5.5-16.8-13.3-1.1-3.4-4.5-6.3-2.2-9.1 2.9-3.3 6.9 3.2 10.4 4.8z" style="fill:#00b6e8"/><path id="Pfad_1959" d="M144.7 392.1c.3.8.7 1.7 1 2.6 1.2 4 2.1 9.4 8.3 9.4 14.2.4 16.2-13.1 25.1-20.7 13.4-11.5 25.4-23.8 46.9-23.3 20.5-.4 39.6 10.4 49.7 28.2.9 2.4-9.4 5.7-5.7 6 9.2 1.3 18.5-.2 26.9-4.3 24.6-16.7 36.1-30.4 68.2-35.3 34.5-5.4 60.3 1.2 84 18.9 7.5 4.7 11.5 11.2 21.9 9.7 26.5-3.7 45-1.3 68.7-10 3.6-1.3 6.2 2.4 2.5 3.8-27 10-35.2 29.9-65.5 34.2-23.4 3.4-39.4-6.1-56.3-16.6-14.4-10.7-28.8-19.1-49.8-15.9-24.7 3.8-35.3 17.7-54.3 30.6-18.9 7.5-33.8 15.5-54.6 13.1-17.9-1.8-23.4-10.5-27.7-22.5-4.3-6.8-.9-15-11.2-15.3-9.2-.3-18.2 3-25 9.3-12.2 10.8-28.1 16.4-44.4 15.7-8 .1-15-5.5-16.8-13.3-1.1-3.4-4.5-6.3-2.2-9.1 2.8-3.3 6.8 3.2 10.3 4.8z" style="fill:#009ee0"/></g></g></g></g></svg>