<svg width="800" height="320" xml:space="preserve" style="clip-rule:evenodd;fill-rule:evenodd;stroke-linejoin:round;stroke-miterlimit:2" xmlns="http://www.w3.org/2000/svg"><path d="M0 0h800v320H0z" fill="#fff" image-rendering="optimizeQuality" shape-rendering="geometricPrecision" style="clip-rule:evenodd;fill-rule:evenodd;stroke-linejoin:round;stroke-miterlimit:2"/><path d="M488.37 44.6h56.4v53.018h-56.4zM488.37 118.299h56.4v116.03h-56.4zM58.044 44.6l38.011 56.036L135.511 44.6h56.755l-69.705 98.19v91.537H70.057v-91.537L.667 44.601zM702.923 39.566c53.396 0 96.745 43.635 96.745 97.38 0 53.747-43.35 97.382-96.745 97.382-53.394 0-96.743-43.635-96.743-97.382 0-53.745 43.35-97.38 96.743-97.38zm0 42.846c27.916 0 50.58 24.136 50.58 53.867 0 29.73-22.664 53.867-50.58 53.867-27.916 0-50.58-24.137-50.58-53.867 0-29.73 22.664-53.867 50.58-53.867z"/><path d="M496.54 13.799c27.298 0 49.46 22.162 49.46 49.459 0 13.233-4.287 24.349-17.12 38.3l-32.34 35.16-32.943-35.16c-11.078-11.823-16.516-27.196-16.516-38.3 0-27.297 22.162-49.459 49.459-49.459zm0 21.761c14.272 0 25.859 12.259 25.859 27.359 0 15.1-11.587 27.359-25.859 27.359-14.272 0-25.859-12.259-25.859-27.359 0-15.1 11.587-27.359 25.859-27.359z" style="fill:#00cd80" transform="matrix(2.01303 0 0 1.97176 -670.905 12.358)"/></svg>