<svg width="800" height="320" version="1.1" id="svg1" xmlns="http://www.w3.org/2000/svg"><defs id="defs1"><style id="style1">.cls-1{fill:none}.cls-2{fill:#60c4e5}.cls-3{fill:#0081c7}</style></defs><path d="M0 0h800v320H0z" fill="#fff" style="display:inline;fill:none;stroke-width:.800002" id="path1"/><g id="Gruppe_1390" data-name="Gruppe 1390" transform="translate(87252.23 12144.968) scale(4.00931)"><path id="Pfad_1" data-name="Pfad 1" class="cls-1" d="M235.449 93.894h6.943L239 84.187z" transform="translate(-21914.707 -3089.722)"/><path id="Pfad_2" data-name="Pfad 2" class="cls-1" d="M415.469 100.328a4.522 4.522 0 0 0-4.376-3.386c-2.937 0-4.271 2.416-4.559 4.761h9.157a7.435 7.435 0 0 0-.222-1.375z" transform="translate(-22011.762 -3096.958)"/><path id="Pfad_3" data-name="Pfad 3" class="cls-1" d="M304.789 97.853a4.688 4.688 0 0 0-3.567 1.472c-.721.751-1.552 1.965-1.589 4.726a7.524 7.524 0 0 0 .761 3.618 4.733 4.733 0 0 0 4.4 2.646 4.592 4.592 0 0 0 2.6-.714c.727-.485 2.413-2.011 2.413-5.731v-.07a7.02 7.02 0 0 0-.76-3.447 4.751 4.751 0 0 0-4.258-2.5z" transform="translate(-21951.117 -3097.475)"/><path id="Pfad_4" data-name="Pfad 4" class="cls-2" d="M171.944 72.618a1.321 1.321 0 0 0-1.221.818l-.06.18-9.414 24.7h4.244v-.009a1.342 1.342 0 0 0 1.231-.892l9.446-24.795h-4.227z" transform="translate(-21872.615 -3083.159)"/><path id="Pfad_5" data-name="Pfad 5" class="cls-3" d="m145.738 72.853-2.938 7.859 6.516 17.736 2.934-7.859z" transform="translate(-21862.148 -3083.292)"/><path id="Pfad_6" data-name="Pfad 6" class="cls-2" d="M123.226 72.618h-1.282a1.321 1.321 0 0 0-1.221.818l-.06.18-9.414 24.7h4.244v-.009a1.342 1.342 0 0 0 1.231-.892l9.446-24.795z" transform="translate(-21844.25 -3083.159)"/><path id="Pfad_7" data-name="Pfad 7" class="cls-3" d="M95.738 72.853 92.8 80.712l6.516 17.736 2.934-7.859z" transform="translate(-21833.785 -3083.292)"/><path id="Pfad_8" data-name="Pfad 8" class="cls-2" d="M63.572 72.618H62.29a1.321 1.321 0 0 0-1.221.818l-.06.18-16.778 43.463h4.244v-.009a1.342 1.342 0 0 0 1.231-.892l16.81-43.56z" transform="translate(-21806.23 -3083.159)"/><path id="Pfad_9" data-name="Pfad 9" d="M301.06 80.48a7.2 7.2 0 0 0-5.161 1.955 4.253 4.253 0 0 0-.425.45V72.6h-3.081a.216.216 0 0 0-.216.216v25.5h3.081a.216.216 0 0 0 .216-.216v-1.56a6.145 6.145 0 0 0 1.575 1.282 7.306 7.306 0 0 0 3.975 1.032 8.473 8.473 0 0 0 3.418-.663 6.906 6.906 0 0 0 2.736-2.217 10.355 10.355 0 0 0 1.87-6.327 9.727 9.727 0 0 0-2.13-6.552 7.409 7.409 0 0 0-5.858-2.615zm4.511 9.063c0 3.72-1.686 5.246-2.413 5.731a4.592 4.592 0 0 1-2.6.714 4.733 4.733 0 0 1-4.4-2.646 7.524 7.524 0 0 1-.761-3.618c.037-2.761.868-3.974 1.589-4.726a4.688 4.688 0 0 1 3.567-1.472 4.75 4.75 0 0 1 4.253 2.5 7.019 7.019 0 0 1 .76 3.447z" transform="translate(-21946.889 -3083.149)"/><path id="Pfad_10" data-name="Pfad 10" d="M452.32 91.554a6.784 6.784 0 0 0-4.32 1.408 5.85 5.85 0 0 0-1.226 1.32V91.77h-3.082a.216.216 0 0 0-.216.216v17.086h3.082a.216.216 0 0 0 .216-.216v-7.808a10.029 10.029 0 0 1 .243-3.062 3.927 3.927 0 0 1 3.239-2.923 5.584 5.584 0 0 1 2.039 0 .213.213 0 0 0 .171-.051.215.215 0 0 0 .074-.163V91.77a.216.216 0 0 0-.22-.216z" transform="translate(-22032.717 -3093.901)"/><path id="Pfad_11" data-name="Pfad 11" d="m484.317 97.933-7.561-10.022 6.143-6.53a.216.216 0 0 0-.157-.364h-3.511a.218.218 0 0 0-.158.068l-6.359 6.766V72.6H469.6a.216.216 0 0 0-.216.216v25.5h3.116a.216.216 0 0 0 .216-.216v-5.856l1.806-1.9 5.9 7.889a.216.216 0 0 0 .173.087h3.59a.217.217 0 0 0 .135-.386z" transform="translate(-22047.414 -3083.149)"/><path id="Pfad_12" data-name="Pfad 12" d="M275.688 72.6h-.348a.216.216 0 0 0-.216.216v25.5h2.939a.216.216 0 0 0 .216-.216V72.6z" transform="translate(-21937.217 -3083.149)"/><path id="Pfad_13" data-name="Pfad 13" d="m414.342 103.062-2.9-.395a.216.216 0 0 0-.234.146c-.015.043-.033.109-.056.192a6.8 6.8 0 0 1-.6 1.556 4.536 4.536 0 0 1-.893 1.063 3.62 3.62 0 0 1-2.682.981 5.385 5.385 0 0 1-2.921-.822 5.993 5.993 0 0 1-2.343-5.05h12.606a.216.216 0 0 0 .216-.216 12.252 12.252 0 0 0-.842-5.1 7.381 7.381 0 0 0-4.387-4.129 8.424 8.424 0 0 0-2.724-.479 8.3 8.3 0 0 0-6.434 2.98 9.087 9.087 0 0 0-1.949 6.048c0 5.707 3.044 7.87 4.857 8.65a8.894 8.894 0 0 0 3.633.7 7.666 7.666 0 0 0 6.7-3.43 10.056 10.056 0 0 0 .832-1.63l.106-.279c.04-.1.076-.2.107-.281l.015-.039.164-.431-.269-.037zm-7.981-9.6a4.522 4.522 0 0 1 4.376 3.386 7.451 7.451 0 0 1 .223 1.374h-9.16c.29-2.343 1.624-4.759 4.561-4.759z" transform="translate(-22007.031 -3093.479)"/><path id="Pfad_14" data-name="Pfad 14" d="M357.641 72.6h-.783a.215.215 0 0 0-.211.169l-4.53 20.073-4.641-18.242-.508-2h-2.974l-.429 1.751-4.523 18.478-3.9-17.065-.392-1.717-.292-1.28-.039-.168h-3.009a.216.216 0 0 0-.21.268l5.617 22.842.642 2.609h2.863a.216.216 0 0 0 .21-.164l4.952-20.113 4.367 17.159.793 3.117h2.8a.216.216 0 0 0 .21-.165l5.666-23.147.478-1.951.046-.188.065-.268h-2.272z" transform="translate(-21969.023 -3083.149)"/><path id="Pfad_15" data-name="Pfad 15" d="m239.556 97.977-9.186-25.234a.216.216 0 0 0-.2-.142h-3.51a.216.216 0 0 0-.2.139l-9.635 25.286-.112.293h3.126a1.33 1.33 0 0 0 1.2-.759l.084-.232 2.468-6.745h9.33l.945 2.649.491 1.377 1.271 3.565.052.143h3.707a.216.216 0 0 0 .176-.343zm-14.738-10.656 3.554-9.707 3.389 9.707z" transform="translate(-21904.078 -3083.149)"/></g></svg>