<svg xmlns="http://www.w3.org/2000/svg" viewBox="-1.201 -1.201 140.365 56.135" xmlns:v="https://vecta.io/nano"><path d="M-1.13-1.201h140.338v56.135H-1.13Z" fill="#fff"/><path d="M127.75 17.197h11.374V11.51H127.75z" fill="#001e50"/><path d="M115.563 17.197h11.374V11.51h-11.375v5.688z" fill="#276699"/><path d="M103.375 17.197h11.374V11.51h-11.374z" fill="#77b3d7"/><path d="M91.187 17.197h11.375V11.51H91.187Z" fill="#a6d4ec"/><path d="M78.999 17.197h11.376V11.51H78.999Z" fill="#dff1fb"/><path d="M127.75 30.197h11.374V24.51H127.75z" fill="#002b62"/><path d="M115.563 30.196h11.374V24.51h-11.375v5.687z" fill="#0069a2"/><path d="M103.375 30.196h11.374V24.51h-11.374v5.687z" fill="#4aa5d2"/><path d="M91.187 30.196h11.375V24.51H91.187v5.687z" fill="#5bc5ed"/><path d="M78.999 30.196h11.376V24.51H78.999v5.687z" fill="#caeaf7"/><g transform="matrix(1.01462 0 0 1.01462 -1.177 -16.818)"><use href="#A" fill="#001e50"/><use href="#B" fill="#004c88"/><use href="#A" x="-24.024" fill="#4092c2"/></g><path d="M91.187 43.195h11.375v-5.687H91.187Z" fill="#94d5f3"/><path d="M78.999 43.195h11.376v-5.687H78.999Z" fill="#d5ecfa"/><use href="#C" fill="#00275b" transform="matrix(1.01462 0 0 1.01462 -1.177 -16.818)"/><path d="M115.563 23.697h11.374v-5.688h-11.375v5.687z" fill="#0085c8"/><use href="#C" x="-24.024" fill="#50afdb" transform="matrix(1.01462 0 0 1.01462 -1.177 -16.818)"/><path d="M91.187 23.697h11.375v-5.688H91.187v5.687z" fill="#8ac9e8"/><path d="M78.999 23.697h11.376v-5.688H78.999v5.687z" fill="#d5ecfa"/><g transform="matrix(1.01462 0 0 1.01462 -1.177 -16.818)"><use href="#A" y="-6.404" fill="#001e50"/><use href="#B" y="-6.404" fill="#003872"/><use href="#A" x="-24.024" y="-6.404" fill="#008dcf"/></g><path d="M91.187 36.697h11.375V31.01H91.187Z" fill="#8ac9e8"/><path d="M78.999 36.697h11.376V31.01H78.999Z" fill="#b1dff6"/><path d="M-1.23 27.014h4.146l1.06-2.836h5.366l1.122 2.835h4.223L8.56 12.258h-3.6l-6.187 14.757zm6.324-5.95l1.601-4.325 1.568 4.326zm16.794-8.806h-6.02v14.757h3.806V22.22H21.8c4.005 0 6.302-1.836 6.302-5.037 0-3.225-2.148-4.928-6.215-4.928m-.242 3.223c1.743 0 2.604.59 2.604 1.727 0 1.163-.953 1.837-2.67 1.837h-1.905V15.48h1.972zm7.622 4.134c0 4.512 3.333 7.786 7.928 7.786 2.338 0 4.372-.866 5.728-2.442l.1-.116-2.67-2.514-.107.15c-.636.89-1.701 1.401-2.927 1.401-2.318 0-3.938-1.754-3.938-4.265 0-2.469 1.682-4.262 4-4.262 1.153 0 2.221.482 2.785 1.26l.11.15 2.606-2.604-.1-.112c-1.147-1.32-3.314-2.175-5.524-2.175-4.703 0-7.988 3.184-7.988 7.744m14.147-.039c0 4.607 3.293 7.826 8.007 7.826 4.73 0 8.031-3.22 8.031-7.827s-3.225-7.703-8.03-7.703c-4.79 0-8.008 3.096-8.008 7.703m4.05 0c0-2.497 1.628-4.242 3.957-4.242 2.306 0 3.98 1.785 3.98 4.242 0 2.547-1.637 4.325-3.98 4.325-2.33 0-3.957-1.778-3.957-4.325m17.738-7.316l-6.19 14.757h4.147l1.059-2.835h5.368l1.12 2.835h4.222l-6.127-14.757h-3.601zm.133 8.807l1.603-4.326 1.567 4.326zM-.577 42.923H.702v-5.84h2.236c2.558 0 4.28-1.12 4.28-3.375s-1.687-3.356-4.245-3.356h-3.55zm1.279-11.47h2.165c1.936 0 3.072.71 3.072 2.254 0 1.493-1.084 2.291-3.072 2.291H.702zm9.488 8.168h6.499l1.385 3.302h1.42L14.097 30.35h-1.243L7.42 42.92h1.402l1.368-3.3zm3.25-7.848l2.771 6.675h-5.54l2.77-6.676zm9.639 5.273h2.132l3.479 5.877h1.563l-3.675-5.982c1.829-.196 3.214-1.37 3.214-3.233 0-2.45-1.811-3.356-4.297-3.356H21.8v12.57h1.278zm0-5.593h2.273c1.9 0 3.16.605 3.16 2.254 0 1.493-1.172 2.238-3.214 2.238h-2.22zm11.45-1.101h-1.277v12.57h1.277V36.23h.02l6.285 6.693h1.883l-6.697-6.87 6.339-5.701H40.53l-5.984 5.646h-.019v-5.647zm11.967 0h-1.278v12.57h1.278v-12.57zm5.342 0H50.24v12.57h1.279V32.11h.036l7.315 10.813h1.599V30.35H59.19v10.707h-.036L51.838 30.35zm22.647 1.367c-1.066-1.048-2.558-1.687-4.547-1.687-3.745 0-6.551 2.79-6.551 6.606s2.751 6.605 6.552 6.605c1.704 0 3.32-.406 4.687-1.224v-5.666h-4.208v1.12h2.93v3.817c-.73.48-1.971.816-3.392.816-3.231 0-5.22-2.539-5.22-5.469s1.989-5.486 5.22-5.486c1.562 0 2.77.533 3.64 1.456z" fill="#00315a"/><defs><path id="A" d="M127.07 59.148h11.21v-5.605h-11.21z"/><path id="B" d="M115.058 59.148h11.211v-5.605h-11.212v5.605z"/><path id="C" d="M127.07 39.931h11.21v-5.606h-11.21v5.605z"/></defs></svg>