<svg version="1.1" id="Ebene_1" x="0" y="0" width="800" height="320" xml:space="preserve" xmlns="http://www.w3.org/2000/svg"><style type="text/css" id="style1">.st0{fill:#002958}.st2{fill:#73a0cd}</style><path d="M0 0h800v320H0z" fill="#fff" id="path1-0" style="fill:none;stroke-width:5.70053"/><g id="g6" transform="matrix(2.19537 0 0 2.19537 223.932 3.355)"><path class="st0" id="polygon1" d="m1 31.1-1-8.5L78.6 0l78.6 22.6-1 8.5L78.6 9.7z"/><path d="M88.8 98.5z" id="path1" style="fill:#181716"/><path class="st2" d="M69.4 110.5c-1.8-1.3-5.3-2-10.6-2h-7.2v12.4h19.7c.5-1.1.8-2.4.8-4 0-2.9-.9-5-2.7-6.4z" id="path2"/><path class="st2" d="M57.7 77.7h-1.5v15.4h2.7c4.9 0 8.1-.7 9.7-2.1 1.5-1.4 2.2-3.3 2.2-5.6 0-2-.7-3.8-2-5.4-1.5-1.5-5.1-2.3-11.1-2.3z" id="path3"/><path class="st2" d="M139.8 84c-3.2-3.7-7.8-6.5-13.7-8.3 4.3-1.1 8-3.2 11.1-6.1 3-2.8 4.4-6.6 4.4-11.4 0-4.9-1.6-9.2-4.7-12.9-3.1-3.6-7.4-6-12.9-7.2-5.6-1.2-13.4-1.8-23.5-1.8H48.8v20.2h7.4V59h7.1c10.1 0 18 .6 23.5 1.8.7.2 1.4.3 2.1.5v-6.5H95c6 0 9.7.8 11 2.4 1.3 1.6 2 3.4 2 5.3 0 2.3-.7 4.2-2.2 5.6-.9.9-2.5 1.5-4.7 1.8 2.2 3.2 3.3 6.9 3.3 11 0 2-.3 3.8-.8 5.4 1.3.3 2.4.8 3.1 1.3 1.8 1.4 2.7 3.5 2.7 6.4 0 3.1-1 5.2-3 6.4-1.9 1.1-4.9 1.7-9 1.8 2 1.3 3.7 2.8 5.2 4.4 3.2 3.8 4.9 8.1 4.9 12.8v1.1c6.9-.3 12.5-.8 16.8-1.7 6.4-1.2 11.4-3.8 15-7.7 3.6-4 5.5-8.8 5.5-14.5-.2-4.5-1.8-8.8-5-12.6z" id="path4"/><path class="st0" d="M102.5 106.8c-3.2-3.7-7.8-6.5-13.7-8.3 4.3-1.1 8-3.2 11.1-6.1 3-2.8 4.4-6.6 4.4-11.4 0-4.9-1.6-9.2-4.7-12.9-3.1-3.6-7.4-6-12.9-7.2-5.6-1.2-13.4-1.8-23.5-1.8H11.5v20.2h7.4v44.1h-7.4v20.2h47.8c12.1 0 21.3-.6 27.5-1.9 6.4-1.2 11.4-3.8 15-7.7 3.6-4 5.5-8.8 5.5-14.5.1-4.6-1.5-8.9-4.8-12.7zM51.6 77.7h6.1c6 0 9.7.8 11 2.4 1.3 1.6 2 3.4 2 5.4 0 2.3-.7 4.2-2.2 5.6-1.5 1.4-4.8 2.1-9.7 2.1h-7.2zm17.5 45.6c-2.1 1.2-5.5 1.8-10.2 1.8h-7.4v-16.7h7.2c5.2 0 8.8.7 10.6 2 1.8 1.4 2.7 3.5 2.7 6.4.1 3.2-.9 5.3-2.9 6.5zm23.6.5V134h-5.8v-10.2H76.6V118h10.2v-10.2h5.8V118h10.2v5.8z" id="path5"/><path class="st2" d="M76.6 123.8V118h10.2v-10.2h5.8V118h10.2v5.8H92.7V134h-5.8v-10.2z" id="path6"/></g></svg>