<svg fill="none" xmlns="http://www.w3.org/2000/svg" viewBox="0 0 800 320"><path d="M0 0h800v320H0Z" fill="#fff" style="stroke-width:.8"/><path fill-rule="evenodd" d="M286.773 122.127c17.6-28.66 8.833-66.227-19.575-83.977a60.291 60.291 0 0 0-31.816-9.102H163.73v197.518h80.629c33.39 0 60.45-27.294 60.45-60.994 0-16.327-6.455-31.95-18.035-43.445zm-76.977-46.602H235.4c7.936 0 14.4 6.523 14.4 14.527a14.485 14.485 0 0 1-14.4 14.518h-25.604Zm34.562 104.566h-34.562v-29.053h34.562c7.937 0 14.402 6.522 14.402 14.526a14.485 14.485 0 0 1-14.402 14.526zM527.486 29.049v197.518H481.42V38.93Zm-134.38 56.096c-39.21 0-71.084 32.076-71.084 71.712 0 39.569 31.807 71.711 71.083 71.711 39.234 0 71.084-32.075 71.084-71.711-.05-39.57-31.85-71.712-71.084-71.712zm0 94.946c-12.727 0-23.025-10.382-23.025-23.234 0-12.843 10.298-23.234 23.024-23.234a23.116 23.116 0 0 1 23.05 23.234c0 12.843-10.298 23.242-23.041 23.242zm23.049 88.44c0 12.835-10.315 23.234-23.041 23.234-12.727 0-23.025-10.4-23.025-23.234 0-12.835 10.298-23.243 23.025-23.243 12.726 0 23.04 10.408 23.04 23.243zM615.783 87.79v46.41h-22.958v36.538c0 11.035 3.517 19.173 12.726 19.173a34.522 34.522 0 0 0 10.299-1.365v34.219a46.418 46.418 0 0 1-22.448 5.802h-.586c-.293 0-.586-.016-.87-.034a13.63 13.63 0 0 0-.787-.024h-.444l-.838-.067c-25.72-1.357-43.186-17.683-43.186-46.025V62.163l46.066-9.88v35.5z" fill="#2f313f" style="stroke-width:.82822"/></svg>