<svg fill="none" xmlns="http://www.w3.org/2000/svg" viewBox="0 0 800.671 320"><g fill="#fff"><path d="M0 0h800v320H0Z"/><path d="M184.384 188.62c0 1.968-2.464 3.496-5.278 3.496H21.477c-3.166 0-5.278-1.528-5.278-3.496v-63.305c0-1.967 2.464-3.495 5.278-3.495h157.629c3.166 0 5.278 1.528 5.278 3.495v63.303z"/></g><path d="M181.355 208.777c0 2.746-2.117 5.145-5.301 5.486H20.934c-2.83 0-5.301-2.398-5.301-5.141V114.83c0-2.74 2.117-5.14 4.946-5.482h155.475c2.825 0 5.3 2.398 5.3 5.14v94.292zm-5.297-112.802H20.933c-10.6 0-19.434 8.228-19.434 18.858v94.288c0 10.286 8.834 18.858 19.434 18.858h155.12c10.601 0 19.435-8.572 19.435-18.858v-94.292c0-10.28-8.48-18.855-19.431-18.855zM74.996 163.177c0-17.485-1.766-30.858-21.2-30.858h-4.24v58.63h7.42c11.305 0 18.02-8.569 18.02-27.772zm-14.133 41.83h-32.51v-86.402h32.51c22.968 0 35.688 14.058 35.688 42.858 0 25.029-8.483 43.202-35.688 43.542zm74.913-14.058h-8.833v-22.286h9.184c10.955 0 13.783 6.173 13.783 10.973.35 11.316-10.6 11.316-14.135 11.316zm-8.833-58.974h6.712c9.542 0 13.427 3.087 13.427 10.29 0 5.485-4.239 10.282-11.66 10.282h-8.478v-20.569zm25.793 27.775c9.187-2.746 15.55-10.971 15.55-20.229 0-1.717-.354-20.916-25.443-20.916H105.74v86.06h31.45c8.48 0 34.276 0 34.276-24.344 0-5.485-2.474-17.144-18.725-20.571z" fill="#e4131e" style="stroke-width:1.00428"/><path d="M438.554 155.773a33.53 33.53 0 0 0-13.885-3.077c-6.802-.563-13.036 3.636-15.586 9.79a60.866 60.866 0 0 0-4.249 19.857c0 7.553 4.249 11.47 12.182 11.47 5.102 0 10.488-1.117 15.306-3.358l-1.986 10.63c-4.817 2.237-10.203 3.355-15.868 3.355-15.586 0-24.65-8.39-24.65-22.935.28-9.511 2.832-18.743 7.65-26.851 5.951-8.672 14.732-12.87 27.486-12.87a33.085 33.085 0 0 1 15.583 3.077zm33.36 13.515a10.449 10.449 0 0 0-5.704-1.674c-4.563 0-8.556 2.789-9.694 6.975a39.36 39.36 0 0 0-2.567 14.226c0 4.19 1.71 6.419 5.131 6.419 3.425-.278 6.561-1.674 8.556-4.185l4.278-21.763zm-2.568 34.037-1.426-7.256c-5.132 5.863-9.697 8.371-15.397 8.371-7.987 0-12.55-5.3-12.55-14.789 0-7.808 1.996-15.623 5.989-22.32 3.993-5.855 10.554-9.206 17.683-9.206 4.56 0 9.125 1.674 12.261 5.022l2.852-3.904h8.553l-6.273 31.249c-.284 1.952-.57 3.903-.57 5.577-.284 1.674.285 3.352 1.427 4.745l-.573 2.233zm38.924.553c-11.415-.279-15.311-3.316-15.311-10.495 0-1.654.281-3.315.56-4.695l8.631-44.181c3.616.274 7.514-.553 10.574-2.763h3.341l-9.187 47.222c-.278.828-.278 1.654-.278 2.482 0 1.935 1.115 2.762 3.898 3.04zm26.286 0c-11.692-.279-15.682-3.316-15.682-10.495 0-1.654.281-3.315.566-4.695l8.843-44.181c3.71.274 7.702-.553 10.838-2.763h3.421l-9.412 47.222c-.284.828-.284 1.654-.284 2.482 0 1.935 1.142 2.762 3.993 3.04zm57.577-34.59a10.214 10.214 0 0 0-5.63-1.675c-4.514 0-8.457 2.789-9.582 6.975a23.99 23.99 0 0 0-1.694 6.418c-.562 2.508-.843 5.02-.843 7.808 0 4.19 1.69 6.419 5.071 6.419 3.382-.278 6.482-1.674 8.453-4.185l4.225-21.763zm-2.534 34.036-1.409-7.256c-5.071 5.863-9.577 8.371-15.215 8.371-7.891 0-12.397-5.3-12.397-14.789 0-7.808 1.971-15.623 5.92-22.32 3.943-5.855 10.424-9.206 17.467-9.206 4.51 0 9.016 1.674 12.116 5.022l2.82-3.904h8.452l-6.2 31.53c-.282 1.952-.563 3.903-.563 5.578-.28 1.674.281 3.348 1.41 4.744l-.563 2.23zm67.173-35.823c3.923.559 7.844-2.24 8.403-6.436v-1.958c0-3.64-2.24-5.317-6.441-5.317h-7.282l-2.52 13.71zm-4.2 25.74c7.842 0 11.485-3.355 11.485-10.072 0-4.476-2.521-6.435-8.126-6.435h-8.681l-3.361 16.787h8.685zm-13.445-49.803h21.846c12.047 0 18.488 4.754 18.488 13.432.278 3.914-1.122 7.554-3.923 10.63-2.518 2.518-5.601 3.918-8.963 4.477 7.845 1.4 11.203 5.316 11.203 12.591 0 12.592-8.962 19.306-26.325 19.306h-24.367zm70.233 3.852c0 3.88-3.134 7.212-7.124 7.212h-.288c-3.702.274-6.55-2.497-6.838-6.104v-.555c0-3.88 3.136-7.209 7.126-7.209h.284c3.706-.278 6.839 2.495 6.839 6.101zm-17.095 13.866c3.702.278 7.692-.556 10.825-2.773l3.136.83-8.833 44.1H684zm45.08 42.156-6.09-17.475-5.258 4.714-2.494 12.76H710.49l11.352-59.357c3.6.274 7.474-.833 10.52-2.775h3.045l-7.196 37.167c6.643-5.268 12.456-11.646 16.886-18.859h12.734c-4.152 7.213-9.412 13.591-15.778 18.859l8.857 24.688h-13.565zm50.564-31.334c.281-2.541-1.704-4.798-3.97-5.082h-1.135c-5.101 0-7.94 3.387-9.355 11.573 11.34-.846 14.461-1.975 14.461-6.491zm5.102 29.921c-4.82 2.26-10.207 3.11-15.311 3.11-12.476 0-19.278-5.932-19.278-17.224-.285-7.904 2.55-15.808 7.37-22.299a23.755 23.755 0 0 1 18.717-7.908c9.922 0 16.162 4.798 16.162 12.704 0 6.776-4.256 11.574-12.195 13.548-5.386 1.413-10.776 1.979-16.162 1.979v1.694c0 5.081 2.55 7.057 9.074 7.057 4.818 0 9.356-1.128 13.608-2.822l-1.985 10.163z" fill="#131821" style="stroke-width:1.00428"/></svg>