<svg width="800" xml:space="preserve" height="320" xmlns="http://www.w3.org/2000/svg"><path d="M0 0h800v320H0Z" fill="#fff" image-rendering="optimizeQuality" shape-rendering="geometricPrecision" style="clip-rule:evenodd;display:inline;fill-rule:evenodd;stroke-width:1;stroke-linejoin:round;stroke-miterlimit:2"/><path fill="#0766ad" d="M145.715 244.363c-54.985 17.748-112.788-9.978-134.582-61.64-22.647-53.685.456-113.914 50.807-139.792 49.918-25.657 107.789-8.867 137.434 31.642l-11.414 10.05c-4.786-4.92-9.137-9.972-14.076-14.362-15.122-13.441-32.78-21.226-53.035-23.048-29.006-2.61-53.922 6.547-74.613 26.659-15.464 15.03-24.376 33.594-27.058 55.14-5.375 43.183 20.164 82.9 57.856 97.928 19.413 7.74 39.233 9.035 59.848 3.581 1.496 5.747 4.296 10.327 8.833 13.842z" style="stroke-width:.679841"/><path fill="#24aae1" d="M798.256 182.027c.996 21.42-14.592 43.904-37.499 50.154-20.353 5.554-38.113.609-53.552-14.347-4.983-6.47-9.68-12.748-11.612-20.461-1.233-4.924-1.987-9.967-3.064-15.514h13.688c1.39-24.863 19.438-37.355 35.279-39.253 9.165-1.098 17.818 1.037 25.545 6.067 11.89 7.74 17.588 19.199 18.495 33.354h12.72m-56.985 42.607c19.073 2.004 34.947-9.676 39.45-20.89-2.859.862-5.88.834-7.132 2.308-6.223 7.324-13.821 11.775-23.35 12.923-12.24 1.476-22.471-2.692-30.482-11.768-2.41-2.73-4.7-2.54-8.338-2.45 6.963 11.599 16.742 17.654 29.852 19.877M730.48 174.46c-.564-.002-1.13.019-1.692-.013-4.098-.233-6.604 2.172-8.152 5.472-1.587 3.384-1.22 6.843 1.479 9.67 2.684 2.812 5.882 4.006 9.78 2.629 3.982-1.407 6.726-4.816 6.51-8.884-.196-3.671-1.924-7.703-7.925-8.874m22.365 9.175c.575 1.68.838 3.567 1.783 5.005 3.041 4.624 9.15 5.526 13.368 2.194 4.089-3.23 4.388-9.924.663-13.85-2.664-2.81-6.038-3.12-9.394-2.204-4.024 1.099-5.879 4.292-6.42 8.855z" style="stroke-width:.679841"/><path fill="#0464ad" d="M615.005 156.035c.122.526.245 1.052.178 2.078-.245.831-.35 1.163-.35 1.495-.007 20.197-.013 40.395.02 60.593 0 .855.342 1.71.525 2.566.022.282.044.563-.285 1.077-5.462-.002-10.573-.238-15.683-.472-.035-19.488-.07-38.976.088-58.998-.443-4.009-1.079-7.483-1.715-10.957 0 0 .041-.01.045-.22-.366-.768-.734-1.324-1.103-1.88-4.604-8.176-12.32-9.455-20.517-8.626-9.96 1.008-16.414 6.73-18.521 16.565-1.15 5.372-1.849 10.935-1.933 16.424-.248 16.186-.088 32.379-.088 48.832h-16.074V58.517h15.996v81.325l.702.565c6.6-7.75 14.787-12.132 24.898-12.452 9.893-.313 18.747 2.233 26.05 9.83 1.121 1.54 2.13 2.632 3.14 3.723 0 0 .016.076-.032.278.109.375.266.547.423.72 0 0-.03.017-.03.267 1.422 4.588 2.844 8.925 4.267 13.262z" style="stroke-width:.679841"/><path fill="#0866ae" d="M234.003 194.328c-3.56-13.89-3.59-27.465 2.314-40.366 6.598-14.417 18.008-23.207 33.848-25.648 15.072-2.322 27.835 2.297 38.272 13.402.293.31.72.494 1.673 1.13v-12.712h15.982v94.495h-15.765v-12.546c-2.585 2.291-4.422 3.97-6.312 5.587-17.455 14.925-44.71 12.803-59.714-4.58-4.717-5.465-8.312-11.503-10.298-18.762m17.946.566c5.022 9.895 12.561 16.547 23.923 17.726 12.834 1.331 23.121-3.383 29.959-14.385 5.835-9.39 6.413-19.88 4.377-30.456-2.285-11.874-9.562-19.921-20.896-23.676-11.512-3.813-22.191-1.612-30.961 7.079-10.671 10.575-13.212 28.11-6.402 43.712z" style="stroke-width:.679841"/><path fill="#26abe0" d="M145.89 244.52c-4.712-3.672-7.512-8.252-8.75-14.076-2.601-17.847 6.23-30.628 18.379-41.603 4.712-4.257 10.541-7.287 15.904-10.81 1.881-1.236 3.202-1.08 4.554 1.243 3.96 6.802 4.103 6.724 10.883 2.714 4.085-2.417 8.146-4.876 12.248-7.263 4.571-2.66 8.94-1.778 11.159 2.188 2.305 4.12.973 8.109-3.558 10.789-6.197 3.667-12.378 7.362-18.969 11.285 2.774 4.724 5.357 9.315 8.219 13.725.313.482 2.441.307 3.365-.21 6.01-3.363 11.807-7.118 17.898-10.317 4.503-2.366 9.403.171 10.576 4.954.738 3.011-.579 6.243-3.585 8.092-5.672 3.488-11.423 6.844-17.136 10.265-.76.455-1.487.967-2.554 1.666l5.77 10.111c-4.9 2.756-9.544 5.714-14.476 8.066-9.515 4.538-19.565 6.565-30.194 6.004-7.236-.382-13.72-2.44-19.733-6.822z" style="stroke-width:.679841"/><path fill="#0465ae" d="M798.365 181.72c-4.17.307-8.23.307-12.83.307-.906-14.155-6.604-25.614-18.494-33.354-7.727-5.03-16.38-7.165-25.545-6.067-15.841 1.898-33.89 14.39-35.28 39.253H692.53c1.077 5.547 1.831 10.59 3.064 15.514 1.933 7.713 6.63 13.99 11.373 20.43.12 1.575.068 3.017-.114 4.794-.205.521-.156.651.018.726.027 22.866.054 45.732.07 68.597.001.21-.141.418-.313.893h-14.815V133.285h15.147v11.49c5.943-3.764 11.368-8.056 17.465-10.917 30.343-14.241 67.06 4.848 73.13 37.801.59 3.2.628 6.5.812 10.061z" style="stroke-width:.679841"/><path fill="#0866ad" d="M465.647 222.381c-7.019-4.748-11.063-11.355-14.083-19l13.946-5.846c2.007 3.124 3.7 6.196 5.806 8.952 5.23 6.846 15.716 8.45 22.89 3.743 7.23-4.743 9.398-18.034.028-23.446-4.47-2.582-9.255-4.62-13.902-6.895-2.943-1.44-5.967-2.73-8.83-4.312-11.805-6.517-15.464-14.331-13.013-27.495 1.798-9.652 11.37-18.238 22.085-19.81 13.503-1.982 24.934 4.237 30.655 16.86l-13.21 6.838c-2.646-4.043-5.404-7.662-10.27-8.988-5.249-1.429-10.902.955-13.346 5.918-2.29 4.648-1.042 9.53 3.994 12.543 4.52 2.703 9.547 4.542 14.257 6.945 5.008 2.555 10.34 4.752 14.77 8.11 12.707 9.634 12.967 30.02.93 41.529-11.528 11.022-28.719 12.84-42.707 4.354z" style="stroke-width:.679841"/><path fill="#0766ad" d="M378.34 148.06c-4.517 4.96-6.155 10.837-6.222 17.036-.2 18.466-.122 36.935-.152 55.403-.002 1.238 0 2.476 0 3.997h-16.32v-94.29l16.327.001v9.838c5.341-6.9 10.795-11.807 18.865-12.384 5.927-.423 11.363 1.175 16.777 4.132l-7.61 14.659c-7.75-4.97-14.82-4.007-21.665 1.608z" style="stroke-width:.679841"/><path fill="#0265af" d="M659.025 130.206s.322-.108.587.216c.425 1.77.722 3.216.725 4.662.029 20.154.018 40.308.018 60.462 0 8.266-.083 16.533.047 24.796.043 2.724-.71 4.01-3.635 3.793-2.59-.191-5.212-.161-7.807-.012-2.615.15-3.702-.782-3.582-3.5.17-3.843.043-7.698.043-11.548 0-23.324-.108-46.65.137-69.972.03-2.889-1.285-6.507 1.927-8.88.114-.032.227-.066.692.17 3.85.117 7.35-.036 10.848-.188z" style="stroke-width:.679841"/><path fill="#f49625" d="M659.228 108.168c-8.418 3.635-16.49-.498-19.6-6.763-3.029-6.1-1.4-13.916 4.09-18.382 5.042-4.101 13.079-4.034 18.571.155 5.201 3.967 7.272 11.943 3.952 17.683-1.605 2.776-4.48 4.818-7.013 7.307z" style="stroke-width:.679841"/><path fill="#0264ae" d="M441.48 168.544c.284-.028.568-.056 1.121.207.71 3.558 1.367 6.812 1.536 10.091.2 3.879-.542 4.462-4.512 4.468-9.817.012-19.637-.095-29.452.057-2.902.044-5.274-.544-7.116-2.827-.038-3.154-.076-6.309.146-9.82.931-.96 1.603-1.565 2.275-2.17 11.551-.032 23.102-.063 35.037.049.577.077.77.012.965-.055z" style="stroke-width:.679841"/><path fill="#24608b" d="M647.276 130.119c-3.003 2.478-1.689 6.096-1.719 8.985-.245 23.322-.137 46.647-.136 69.971 0 3.85.127 7.705-.043 11.548-.12 2.718.966 3.651 3.581 3.5 2.596-.15 5.218-.18 7.808.013 2.925.217 3.677-1.07 3.635-3.794-.13-8.263-.048-16.53-.047-24.795 0-20.154.012-40.309-.019-60.463 0-1.445-.3-2.89-.564-4.607.352.736 1.202 1.74 1.206 2.746.079 18.671.056 37.343.055 56.014v35.388H644.96c-.076-.782-.23-1.636-.23-2.49-.013-29.761 0-59.523-.03-89.284 0-1.723-.106-3.289 2.575-2.732z" style="stroke-width:.679841"/><path fill="#327098" d="M402.973 180.828c1.926 1.996 4.298 2.584 7.2 2.539 9.815-.152 19.635-.044 29.452-.057 3.97-.006 4.712-.589 4.512-4.467-.169-3.28-.825-6.534-1.325-10.048 1.958-.862 2.266.407 2.273 1.918.019 4.276.006 8.552.006 13.073h-42.039c-.048-.785-.106-1.728-.08-2.958z" style="stroke-width:.679841"/><path fill="#3576a5" d="M615.437 222.451c-.243-.54-.584-1.395-.585-2.25-.031-20.198-.026-40.396-.021-60.593 0-.332.106-.664.326-1.223.23 11.166.32 22.56.354 33.954.029 9.932-.006 19.864-.075 30.112zM615.056 155.787c-1.474-4.09-2.896-8.426-4.305-13.025a282.85 282.85 0 0 1 4.305 13.025z" style="stroke-width:.679841"/><path fill="#24608b" d="M658.784 130.107c-3.258.25-6.757.403-10.439.341 3.277-.289 6.737-.364 10.439-.34z" style="stroke-width:.679841"/><path fill="#3576a5" d="M599.358 223.66c5.161-.054 10.272.18 15.69.392-.198.243-.703.732-1.215.74-4.226.062-8.453.07-12.678-.004-.62-.01-1.232-.547-1.797-1.128zM597.786 153.703c.632 3.188 1.268 6.662 1.746 10.354-.687-3.211-1.215-6.64-1.746-10.354zM610.296 141.304a27.222 27.222 0 0 1-2.95-3.322c.955.871 1.912 1.994 2.95 3.322z" style="stroke-width:.679841"/><path fill="#327098" d="M405.218 168.485c-.412.67-1.084 1.275-1.954 1.93-.813-1.785.182-2.13 1.954-1.93z" style="stroke-width:.679841"/><path fill="#3576a5" d="M596.748 151.521c.345.352.713.908 1.063 1.69-.358-.345-.698-.915-1.063-1.69z" style="stroke-width:.679841"/><path fill="#327098" d="M441.3 168.491c-.015.12-.208.185-.47.152.05-.134.17-.17.47-.152z" style="stroke-width:.679841"/><path fill="#24aae1" d="M706.944 223.209c-.248.04-.297-.09-.149-.309.074-.032.223.195.149.309z" style="stroke-width:.679841"/><path fill="#3576a5" d="M610.757 142.346c-.146-.013-.303-.185-.389-.529.272-.046.374.133.39.529z" style="stroke-width:.679841"/><path fill="#0269b1" d="M740.98 224.543c-12.82-2.132-22.598-8.187-29.561-19.785 3.637-.091 5.928-.28 8.338 2.45 8.011 9.075 18.242 13.243 30.482 11.767 9.529-1.148 17.127-5.6 23.35-12.923 1.252-1.474 4.273-1.446 7.132-2.308-4.503 11.214-20.377 22.894-39.74 20.799z" style="stroke-width:.679841"/><path fill="#0167b1" d="M730.766 174.468c5.715 1.163 7.443 5.195 7.638 8.866.217 4.068-2.527 7.477-6.51 8.884-3.897 1.377-7.095.183-9.779-2.628-2.7-2.828-3.066-6.287-1.479-9.671 1.548-3.3 4.054-5.705 8.152-5.472.562.032 1.128.008 1.978.021zM752.846 183.358c.54-4.286 2.395-7.48 6.419-8.578 3.356-.917 6.73-.605 9.394 2.203 3.725 3.927 3.426 10.62-.663 13.851-4.217 3.332-10.327 2.43-13.368-2.194-.945-1.437-1.208-3.324-1.782-5.282z" style="stroke-width:.679841"/></svg>