<svg fill="none" xmlns="http://www.w3.org/2000/svg" viewBox="0 0 800 320"><path d="M0 0h800v320H0Z" fill="#fff" style="stroke-width:.8"/><path fill-rule="evenodd" d="M673.706 238.601v-19.44c-15.492 0-24.67-8.925-24.67-25.165V86.71h-20.083v107.286c0 29.453 16.066 44.61 43.03 44.61h1.723zM1.364 176.974c0 37.186 22.48 64.55 58.35 64.55 23.68 0 42.09-10.914 52.614-28.795l-15.543-9.346c-9.327 13.353-19.61 20.5-35.634 20.5-24.87 0-39.218-18.306-39.218-46.908 0-28.609 14.348-46.963 39.218-46.963 16.023 0 26.307 7.153 35.634 20.501l15.543-9.297c-10.523-17.88-28.934-28.846-52.614-28.846-35.87 0-58.35 27.414-58.35 64.6zm130.277 24.553c0 21.926 18.175 39.996 47.114 39.996 16.5 0 29.415-7.153 38.262-16.163v13.353h20.088v-84.388c0-25.03-17.456-41.955-49.743-41.955-17.455 0-33.719 5.198-48.785 17.641l12.435 13.11c11.24-9.533 22.719-13.11 34.679-13.11 25.107 0 31.326 12.394 31.326 28.602v15.017c-10.76-7.384-22.479-12.153-38.262-12.153-28.94 0-47.114 18.068-47.114 40.047zm51.894-22.409c12.675 0 23.919 4.529 33.478 12.59v16.682c-8.608 8.87-20.803 15.496-33.478 15.496-18.891 0-31.327-7.578-31.327-22.359 0-14.824 12.436-22.409 31.327-22.409zm146.737-66.748c2.628 0 5.255 0 7.88.24v18.307c-4.065-.43-6.696-.67-10.52-.67-14.592 0-28.7 8.108-35.874 19.545v88.917h-20.089V115.184h20.088v14.541c9.088-10.914 22.243-17.354 38.502-17.354zm90.105 126.251 48.786-123.53H447.64l-38.023 101.361-38.026-101.36h-21.52l48.78 123.53h21.522zm174.054-20.938c-11.48 15.068-27.979 23.841-47.59 23.841-37.546 0-63.372-27.363-63.372-64.554 0-37.19 23.434-64.596 58.829-64.596 34.435 0 58.109 26.888 58.109 65.312v.012c0 2.38 0 4.997-.236 7.376h-95.66c2.633 24.078 17.936 38.808 41.135 38.808 13.871 0 23.915-5.674 33.958-16.875l14.827 10.679zm-52.133-87.67c-20.808 0-34.915 14.54-37.786 37.851h75.093c-1.436-23.07-17.7-37.852-37.306-37.852zM739.84 241.523c-36.83 0-59.785-27.363-59.785-64.554 0-37.19 22.956-64.596 59.785-64.596 36.83 0 59.785 27.41 59.785 64.596 0 37.186-22.96 64.554-59.785 64.554zm0-111.512c-24.87 0-39.222 18.353-39.222 46.96 0 28.605 14.352 46.911 39.222 46.911s39.218-18.306 39.218-46.908c0-28.609-14.347-46.963-39.218-46.963z" fill="#ff605f" style="stroke-width:.998576"/></svg>