<svg xmlns="http://www.w3.org/2000/svg" viewBox="0 0 800 320.614"><path d="M0 .614h800v320H0Z" fill="#fff" style="stroke-width:.8"/><path d="m489.324 121.484-53.25-12.278-48.284 16.417-9.52 32.695-77.806 2.07-5.656 28.97 24.418 9.381 1.242.414 33.109-6.346 14.623 15.037c3.449.414 60.976 10.347 62.08 8.83l37.661-12.555 25.522-40.145v-3.035z" fill="#fff"/><path d="m421.45 118.311-30.625 10.347-5.105 17.52 37.8 20.28z" fill="#2092d1"/><path d="m385.72 146.178-2.483 8.553 40.283 11.727z" fill="#d71017"/><path d="m383.237 154.731-2.207 7.588-77.393 2.07-4.414 22.348 16.83 6.484 107.467-26.625z" fill="#e34830"/><path d="m320.468 194.876 34.35-6.484 15.313 15.59c3.173.275 57.803 9.794 59.32 8.552l28.282-9.38-33.937-36.696-107.467 26.625Z" fill="#d60066"/><path d="m457.457 203.016 7.45-2.484 24.141-37.8v-1.793l-3.862-36.282h-.138l-61.39 41.8z" fill="#eb6808"/><path d="m421.45 118.311 2.208 48.147 61.39-41.8-48.974-11.313z" fill="#85ad28"/><path d="M417.312 189.358c0 1.38.828 1.518 1.793 1.38l-1.103 10.484c-.828 5.794 9.105 7.174 8.553.966 0-1.104-1.104-.138-1.794-.276-2.62-1.38-.276-2.897-.138-11.174 2.484.551 3.725-2.208 3.173-4.277-.275-.414-2.345-.138-2.759-.138.276-2.897 1.38-5.242-2.897-4.828-3.31-.414-2.345 2.897-2.759 4.828-1.38-.138-1.931.552-2.07 3.035m-15.588 8.553c-.552-3.725 2.207-10.07 6.484-6.484-.69 3.863-.414 2.346-.966 8.14-1.931 3.31-5.656 2.759-5.518-1.656m-3.31-8.553c-5.795 6.898-.415 23.866 8.966 14.071.828 4.553 9.933 3.035 7.588-1.793-.966.414-2.346.414-2.208-.966 0-.276 1.104-11.036 1.38-13.381-.276-1.518-5.104-1.518-5.104.827-2.897-3.31-8.416-2.483-10.623 1.242m6.622-18.21c-6.346-.414-1.931-14.899 3.863-9.933-.552 1.932.138 10.071-3.863 9.933m2.483 2.345c.414 5.932-5.932 7.312-10.209 4.415-3.035 3.863 2.07 6.346 6.208 5.932 12.416.414 9.52-18.762 11.175-26.625-.138-1.38-5.105-1.518-5.105.827-15.037-11.45-18.761 27.177-2.069 15.451m1.104-35.592-.828 8.14c-1.931 3.586-6.208 2.758-5.932-1.518-.552-3.863 2.345-10.07 6.76-6.622m6.897 12.968c0-.69.828-3.035-.413-2.621-4.001.551-.414-7.45.413-22.9-.275-1.38-2.207-1.105-3.173-1.242-1.517 0-2.345.413-2.345 1.241l-.965 8.691c-16.417-9.795-16.969 29.798-1.242 15.865.414 3.035 6.484 4.139 7.725.966m3.725 5.242c-1.931 0-2.483.276-2.345 1.518l4.139 17.52c.276 1.241 5.104 1.103 5.518 0l8.001-17.52c1.242-2.07-4.828-1.794-5.242-.69l-4.553 11.45h-.138c-.138-2.897-1.517-8.691-2.069-11.45 0-.966-2.345-.828-3.31-.828zm10.485-18.072c-.69 3.863-.414 2.345-.966 8.14-7.725 9.242-7.45-14.624.966-8.14m6.76 12.692c1.38-6.76-4.001 3.725-1.518-10.485l.69-6.484c-.276-1.38-5.242-1.517-5.242.828-15.727-11.726-17.797 29.384-1.656 15.451.414 3.035 6.484 4 7.726.69m.827 19.313c-1.241-.138-3.724 0-3.587 1.242-.137 1.655-1.241 5.242 1.794 4.69 1.241.138 3.725 0 3.587-1.241 0-1.794 1.655-5.104-1.794-4.69m11.45-34.075c1.242-2.76.69-3.587-2.207-3.173.276-2.897 1.38-5.243-2.897-4.69-3.31-.415-2.345 2.896-2.759 4.69-2.207-.966-3.587 4.966-.414 4.414l-1.103 10.485c-.828 5.794 9.105 7.173 8.553.965 0-.69-.414-.551-.828-.413-4 .275-1.242-2.897-.966-11.037.966.138 2.346 0 2.622-1.241m14.623 2.069c-.69 3.863-.414 2.345-.966 8.14-7.725 9.242-7.45-14.624.966-8.14m6.76 12.692c1.379-6.76-4.001 3.725-1.518-10.485l.69-6.484c-.276-1.38-5.105-1.517-5.105.828-15.726-11.726-17.796 29.384-1.655 15.451.276 3.035 6.346 4 7.587.69m9.795-2.897c.138-1.242-2.207-1.242-3.31-1.242-3.312-.414-2.346 2.76-2.76 4.69 0 1.656 2.345 1.104 3.311 1.242 3.311.414 2.345-2.759 2.76-4.69z" fill="#fff"/><path d="M433.59 53.335c28.557 9.519 52.285 30.074 65.667 56.975l42.904-21.52C507.258 19.811 428.348-14.816 353.99 6.015l15.589 44.836c21.107-5.38 43.317-4.415 64.01 2.483z" fill="#eb6808"/><path d="m243.075 111.966-2.07 7.173 46.767 10.76c11.037-39.04 42.353-69.253 81.808-78.91L353.99 6.017c-51.043 14.21-94.084 52.837-110.915 105.95Z" fill="#85ad28"/><path d="m287.359 277.097 33.66-33.937c-30.901-27.59-45.11-71.874-33.247-113.398l-46.766-10.76c-15.313 57.25 2.621 118.226 46.353 158.095z" fill="#2092d1"/><path d="m315.64 297.928 25.797-40.144a117.687 117.687 0 0 1-20.28-14.486l-33.66 34.075c8.69 7.864 18.072 14.761 28.142 20.555z" fill="#d71017"/><path d="M361.164 266.475c-6.76-2.208-13.381-5.105-19.59-8.691l-25.935 40.144c26.074 15.037 56.286 22.763 86.36 21.797l1.241-47.456c-14.209.69-28.556-1.242-42.076-5.794z" fill="#e34830"/><path d="M499.257 110.31c37.937 69.943-18.9 160.993-95.879 161.959l-1.241 47.456c112.295.414 194.792-130.229 140.024-230.936z" fill="#d60066"/></svg>