<svg id="Ebene_1" version="1.1" width="800" height="320" xmlns="http://www.w3.org/2000/svg"><defs id="defs4"><style id="style2">.cls-1{fill:#fff}.cls-3{fill:#e2001a}</style></defs><path d="M0 0h800v320H0z" fill="#fff" style="display:inline;stroke-width:.8" id="path35"/><path d="M797.539 142.845c-1.035 21.328-2.012 42.599-3.047 63.927-.46 9.888-.92 19.834-2.472 29.55-.69 4.426-1.725 9.083-4.37 12.187-2.759 3.22-6.61 5.346-12.532 6.266-8.45 1.322-22.88 1.725-37.483 1.955-9.428.172-630.133 0-644.965 0-14.833 0-60.766.23-69.792-.288-6.381-.402-11.382-2.357-15.062-7.53-3.737-5.29-4.196-12.936-4.426-20.007-1.323-41.507-2.357-83.013-3.047-124.52-.173-9.946 0-21.041 5.634-28.17 2.644-3.334 6.093-5.519 9.715-6.783 10.29-3.68 28.515-3.622 42.887-3.277 9.198.23 143.262.977 303.368.69 65.997-.115 391.958-1.38 400.811-1.035 9.83.402 16.097.747 24.893 6.496 8.795 5.749 11.153 16.557 11.21 26.215.115 14.774-.575 29.55-1.322 44.324z" id="path6" style="display:inline;stroke-width:5.74887;fill:#004171"/><path class="cls-1" d="M247.142 190.388c10.06 0 13.97-3.392 13.97-11.728 0-7.646-3.68-10.923-12.476-10.923H236.68v22.65h10.463m.115-34.837c6.84 0 9.888-2.932 9.888-9.37 0-6.44-2.932-9.084-9.486-9.084h-11.038v18.454H247.2zm-30.354-32.769h32.078c17.88 0 27.308 7.244 27.308 20.926 0 9.198-3.565 13.97-13.453 17.477 12.533 2.472 18.11 8.68 18.11 20.293 0 15.177-11.211 23.168-32.654 23.168h-31.39z" id="path8" style="display:inline;stroke-width:5.74887"/><path class="cls-1" d="M322.854 178.143c-7.358.345-9.485.575-12.187 1.265-3.91 1.092-5.404 3.161-5.404 7.875 0 4.715 2.012 7.072 6.726 7.072 3.852 0 7.416-1.61 10.865-4.83v-11.382m.633 18.109c-4.83 7.013-10.693 10.233-18.454 10.233-11.038 0-17.477-6.439-17.477-17.534 0-9.371 4.197-14.66 13.51-16.902 5.692-1.437 9.313-1.84 21.788-2.357v-3.277c0-6.841-2.702-9.486-9.83-9.486-5.864 0-10.348.805-20.696 3.852v-13.97c8.106-2.702 14.832-3.966 22.42-3.966 18.512 0 26.215 6.898 26.215 23.455v24.778c0 6.323.69 8.91 2.817 10.463v3.162h-17.534z" id="path10" style="stroke-width:5.74887"/><path class="cls-1" d="M353.84 123.184c7.014-.115 11.729-1.323 13.97-3.622h4.14v34.436c7.013-7.532 13.28-10.693 21.04-10.693 10.234 0 16.212 6.956 16.212 19.143v42.255h-18.109v-38.748c0-5.174-2.586-7.876-7.53-7.876-3.68 0-6.094.748-11.613 3.967v42.657h-18.11V123.24" id="path12" style="stroke-width:5.74887"/><path class="cls-1" d="M422.08 146.696c7.186-.23 11.728-1.437 13.912-3.736h4.14v11.038c6.553-7.187 13.452-10.693 21.098-10.693 10.233 0 16.212 7.128 16.212 19.143v42.255h-18.11v-38.518c0-5.404-2.471-8.048-7.53-8.048-3.737 0-6.21.747-11.613 3.966v42.657H422.08v-57.949" id="path14" style="stroke-width:5.74887"/><path class="cls-1" d="M530.044 160.321c2.817.46 6.553.69 9.888.69 9.37 0 13.05-3.507 13.05-12.245 0-8.336-3.277-11.498-11.67-11.498h-11.268v23.11m-19.776-37.482h32.883c18.799 0 29.147 8.968 29.147 25.468 0 16.499-10.693 26.1-30.527 26.1-3.621 0-8.335-.345-11.727-.805v31.101h-19.776z" id="path16" style="stroke-width:5.74887"/><path class="cls-1" d="M611.103 178.143c-7.359.345-9.428.575-12.13 1.265-3.967 1.15-5.404 3.161-5.404 7.875 0 4.715 2.012 7.072 6.726 7.072 3.794 0 7.416-1.61 10.75-4.83v-11.382m.69 18.109c-4.828 7.013-10.692 10.233-18.453 10.233-11.038 0-17.477-6.439-17.477-17.534 0-9.371 4.14-14.66 13.51-16.902 5.576-1.437 9.198-1.782 21.673-2.357v-3.277c0-6.841-2.702-9.486-9.773-9.486-5.864 0-10.348.805-20.696 3.852v-13.97c8.106-2.702 14.832-3.966 22.42-3.966 18.57 0 26.216 6.898 26.216 23.455v24.778c0 6.323.69 8.91 2.817 10.463v3.162h-17.534z" id="path18" style="stroke-width:5.74887"/><path class="cls-1" d="M642.204 146.696c7.186-.23 11.728-1.437 13.913-3.736h4.139v11.382c5.749-6.84 11.957-10.463 19.258-11.037v16.556c-7.646.46-14.314 1.668-19.258 3.392v41.392h-18.11v-57.949" id="path20" style="stroke-width:5.74887"/><path class="cls-1" d="M688.31 123.184c7.014-.115 11.728-1.323 13.97-3.622h4.139v49.555l18.684-24.318h18.971l-19.431 22.478 21.27 37.368h-19.718l-13.912-24.203-5.864 7.244v16.96h-18.166v-81.462" id="path22" style="stroke-width:5.74887"/><path class="cls-3" d="M184.192 196.252c0 7.3-5.922 13.107-12.935 13.107H67.087c-7.186 0-13.107-5.806-13.107-13.107v-64.848c0-7.358 5.921-12.992 13.107-12.992h104.17a12.93 12.93 0 0 1 12.935 12.992v64.848" id="path24" style="stroke-width:5.74887"/><path class="cls-1" d="M174.648 196.252c0 2.07-1.322 3.736-3.449 3.736H67.087c-2.07 0-3.622-1.667-3.622-3.736v-64.848c0-2.07 1.495-3.736 3.622-3.736h104.17c2.07 0 3.449 1.61 3.449 3.736v64.848" id="path26" style="stroke-width:5.74887"/><path class="cls-3" d="M143.145 184.007h-5.117v-15.292h5.29c5.633 0 9.485 1.38 9.485 7.416 0 6.036-4.542 7.876-9.6 7.876m-5.117-40.645h3.966c4.714 0 9.141 1.495 9.141 7.186 0 5.06-3.45 7.186-8.106 7.186h-5.001V143.42zm17.649 19.144c5.231-2.645 10.06-6.726 10.06-12.533 0-11.153-6.209-15.867-17.649-15.867h-24.26v59.501h23.168c10.75 0 20.926-5.116 20.926-17.246 0-7.416-4.944-11.843-12.245-13.913z" id="path28" style="stroke-width:5.74887"/><path class="cls-3" d="M91.29 184.007h-5.06v-40.53h2.875c12.935 0 14.2 9.37 14.2 21.386 0 13.107-4.427 19.144-12.015 19.144m2.472-49.843h-21.96v59.5h21.96c18.224-.114 23.685-12.82 23.685-30.008 0-19.834-8.278-29.492-23.685-29.492z" id="path30" style="stroke-width:5.74887"/></svg>