<svg height="320" width="800" xml:space="preserve" xmlns="http://www.w3.org/2000/svg"><path d="M0 0h800v320H0z" fill="#fff" style="clip-rule:evenodd;fill-rule:evenodd;stroke-width:.8;stroke-linejoin:round;stroke-miterlimit:2"/><path style="fill:#00aabe;fill-opacity:1;fill-rule:nonzero;stroke:none;stroke-width:4.73416" d="m411.689 44.911.066 29.39c-11.23 1.709-46.328 11.882-46.281 34.398.028 12.93 18.525 18.87 23.211 19.036l5.738.161-.052-23.178 31.36-.067-.176 24.58.275 20.357c-4.758 1.288-14.762 2.665-24.31 3.143-8.725.436-13.829.56-22.393-.478-12.337-1.491-22.866-4.7-30.37-9.667-9.06-6.003-16.848-18.558-17.109-27.804-.08-3.006-.279-3.687-.284-4.37-.038-16.081 13.36-32.812 29.75-44.396 18.704-13.218 42.796-20.901 50.575-21.105m-163.892 81.125.104 43.412 28.112-.062-28.169 29.205-29.943-29.077 28.703-.061-.1-43.323zM217.683 46.87l70.591 52.7-.118-51.71c2.244-.322 8.895.094 14.571.213 5.78.118 14.814.407 14.814.407l-5.734 104.44c-.01.246-.98.592-1.661.596-2.306.004-70.231-52.942-70.231-52.942l-.209.488.1 26.734.44 23.954-29.555-.937s1.538-32.902 2.594-53.936c.966-18.994 2.57-48.7 2.57-48.7-.003-.71 1.828-1.307 1.828-1.307M195.541.566l28.846 28.803-26.052.061.137 61.336h-1.288l-.137-61.336-31.317.071zm-40.69 48.19 33.348-.077s-.422 30.152-.299 49.434c.133 20.59.924 52.46 1.037 52.8l-33.759.076.123-52.473zm-110.495.364 33.944-.076 10.382.52c17.976 1.222 55.546 8.437 55.607 37.67.004.687.11 3.64-.53 7.4-8.015 44.775-60.005 54.419-90.659 56.8-.326-.303-.497-.265-8.37-.014l-.18-70.222-15.097.033.066 26.857L.177 79.65l29.271-30.492.071 30.767 14.908-.033zM76.747 71.98l.02 7.835 9.415-.019.01 1.312-9.283.014.1 43.483c17.435-2.116 32.674-16.31 32.632-32.377-.029-14.018-14.127-19.756-26.923-20.272-4.09-.16-4.668-.26-5.97.024m360.487-27.463 29.067 30.228-28.812 28.978-.056-25.996c-.64-.004-5.984-.085-9.137-.08-4.417.01-11.495 1.377-18.052 3.12-9.851 2.613-21.166 8.687-21.166 8.687l-.488-1.056c6.335-3.276 16.314-7.333 19.448-8.204 8.465-2.358 12.072-3.092 19.969-3.603 3.617-.232 9.298-.114 9.298-.114z"/><path d="M588.556 220.752c0-40.329-27.62-49.258-49.529-49.258-22.747 0-34.65 14.074-41.421 22.992h-.533v-71.705h-23.819v194.338h23.819v-77.15c0-35.722 20.028-47.098 39.512-47.098 22.737 0 28.153 12.448 28.153 31.676v92.572h23.818zM667.474 195.299v-19.746h-22.731v-39.512h-23.824v39.512h-19.218V195.3h19.218v93.397c0 17.06 5.144 30.312 28.696 30.312 2.442 0 9.196-1.082 17.859-1.893v-18.674h-8.386c-4.872 0-14.345 0-14.345-11.099V195.3z" style="clip-rule:evenodd;fill:#66696a;fill-rule:evenodd;stroke-width:5.43801;stroke-linejoin:round;stroke-miterlimit:2"/><path d="M732.053 290.856h-.528L694.71 175.554h-27.603l51.688 141.562h25.444l53.864-141.562H772.12z" style="clip-rule:evenodd;fill:#66696a;fill-rule:evenodd;stroke-width:5.43801;stroke-linejoin:round;stroke-miterlimit:2"/></svg>