<svg xml:space="preserve" width="800" height="320" xmlns="http://www.w3.org/2000/svg"><path d="M0 0h800v320H0z" fill="#fff"/><path d="M543.958 218.625c-19.544-2.66-18.52-23.74-18.52-39.6V144.54h33.87c2.66 0 4.808-2.25 4.808-4.911v-36.735c0-2.66-2.148-4.912-4.809-4.912h-33.87V64.931c0-2.66-2.149-4.912-4.81-4.912h-40.52c-2.66 0-4.81 2.251-4.81 4.912v108.26c0 20.773-.818 43.592 9.312 62.42 11.154 20.567 34.382 29.674 56.791 29.981h32.437c2.661 0 4.81-2.25 4.81-4.911V224.56c0-2.66-2.149-4.912-4.81-4.912-9.823.102-20.567.205-29.879-1.023zm124.531 0c-19.544-2.66-18.52-23.74-18.52-39.6V144.54h33.87c2.66 0 4.809-2.25 4.809-4.911v-36.735c0-2.66-2.15-4.912-4.81-4.912h-33.87V64.931c0-2.66-2.149-4.912-4.81-4.912h-40.52c-2.66 0-4.81 2.251-4.81 4.912v108.26c0 20.773-.818 43.592 9.312 62.42 11.154 20.567 34.382 29.674 56.791 29.981h32.438c2.66 0 4.809-2.25 4.809-4.911V224.56c0-2.66-2.149-4.912-4.81-4.912-9.823.102-20.567.205-29.879-1.023zM365.91 97.982c-46.046 0-83.395 37.758-83.395 84.42 0 46.558 37.349 84.418 83.395 84.418 46.047 0 83.396-37.758 83.396-84.419.103-46.66-37.144-84.419-83.396-84.419zm0 124.429c-21.897 0-39.702-18.01-39.702-40.112 0-22.103 17.805-40.112 39.702-40.112 21.898 0 39.703 18.01 39.703 40.112 0 22.205-17.805 40.112-39.703 40.112zM206.384 65.033v40.419c-56.689-25.48-121.257 20.772-116.96 83.191 4.094 59.042 68.457 96.187 120.643 69.377 27.936-14.53 45.74-43.59 45.843-75.312V65.033c0-2.66-2.15-4.912-4.81-4.912h-39.907c-2.763 0-4.81 2.251-4.81 4.912zm-33.46 157.378c-21.899 0-39.704-18.01-39.704-40.112 0-22.103 17.805-40.112 39.703-40.112 21.898 0 39.703 18.01 39.703 40.112-.205 22.205-17.907 39.907-39.703 40.112z" style="stroke-width:1.02326"/></svg>