<svg width="800" height="320" xml:space="preserve" style="clip-rule:evenodd;fill-rule:evenodd;stroke-linejoin:round;stroke-miterlimit:2" xmlns="http://www.w3.org/2000/svg"><path d="M0 0h800v320H0Z" fill="#fff" image-rendering="optimizeQuality" shape-rendering="geometricPrecision" style="clip-rule:evenodd;fill-rule:evenodd;stroke-linejoin:round;stroke-miterlimit:2"/><path d="M138.81 116.09a47.224 47.224 0 0 1-2.21 13.626 39.766 39.766 0 0 1-20.225 24.046c-5.344 2.821-11.837 4.224-19.48 4.209H42.085v-28.94h54.85c4.145 0 7.344-1.266 9.598-3.808a13.538 13.538 0 0 0 3.393-9.398 11.907 11.907 0 0 0-3.812-9.368 13.273 13.273 0 0 0-9.18-3.392H42.087c-4.137 0-7.337 1.267-9.598 3.8a13.635 13.635 0 0 0-3.366 9.467v42.456c0 4.058 1.27 7.216 3.808 9.477a13.639 13.639 0 0 0 9.444 3.4h54.562v29.004h-54.85a46.966 46.966 0 0 1-13.626-2.208 41.094 41.094 0 0 1-13.589-7.201 40.227 40.227 0 0 1-10.457-12.976C1.608 172.944.205 166.45.205 158.799v-42.71c.064-4.628.81-9.22 2.209-13.63a40.655 40.655 0 0 1 7.2-13.554 39.823 39.823 0 0 1 12.991-10.468c5.337-2.814 11.83-4.22 19.481-4.22h54.85c4.629.063 9.22.808 13.63 2.208a40.882 40.882 0 0 1 13.543 7.2 40.13 40.13 0 0 1 10.469 13.003c2.817 5.332 4.197 11.83 4.197 19.462zm155.899 41.881a46.473 46.473 0 0 1-1.978 14.137 41.269 41.269 0 0 1-5.268 10.979 35.888 35.888 0 0 1-7.598 8.086 44.014 44.014 0 0 1-9.07 5.434 47.616 47.616 0 0 1-9.587 3.102c-3.021.639-6.1.972-9.19.994H197.15a46.435 46.435 0 0 1-14.039-1.985 40.236 40.236 0 0 1-10.937-5.325 36.707 36.707 0 0 1-8.063-7.655 44.463 44.463 0 0 1-5.443-9.08 47.288 47.288 0 0 1-3.104-9.576 46.324 46.324 0 0 1-.995-9.077v-41.208c0-7.798 1.426-14.428 4.273-19.882a41.213 41.213 0 0 1 10.64-13.255 40.325 40.325 0 0 1 13.871-7.31 48.93 48.93 0 0 1 13.797-2.21h54.868v30.483h-54.626c-4.043 0-7.148 1.051-9.247 3.105-2.099 2.053-3.17 5.102-3.17 9.069v40.955c0 4.13 1.052 7.23 3.117 9.352s5.08 3.15 9.058 3.15h54.868c4.141 0 7.212-1.04 9.236-3.15 2.02-2.11 3.037-5.158 3.037-9.133V20.792h30.418zm136.362-53.348h-68.393c-4.13 0-7.246 1.051-9.353 3.105-2.11 2.053-3.162 5.102-3.162 9.069v83.872h-30.448v-83.872a45.59 45.59 0 0 1 1.986-14.039 40.236 40.236 0 0 1 5.325-10.937 36.367 36.367 0 0 1 7.654-8.063 43.766 43.766 0 0 1 9.058-5.442 46.715 46.715 0 0 1 18.675-4.1h68.658Zm47.569-56.328h-30.407V20.792h30.418V48.25m0 152.42h-30.418V74.216h30.418zm176.72-126.453a319.493 319.493 0 0 1-12.073 31.62 226.745 226.745 0 0 1-15.839 29.648 181.868 181.868 0 0 1-20.014 26.087 128.384 128.384 0 0 1-24.431 20.722 119.33 119.33 0 0 1-29.125 13.671 112.674 112.674 0 0 1-34.105 4.981 15.475 15.475 0 0 1-10.881-4.417 14.544 14.544 0 0 1-3.313-4.792 15.153 15.153 0 0 1-1.172-5.922V74.26h30.452v95.097a49.796 49.796 0 0 0 21.349-4.795 84.087 84.087 0 0 0 19.363-12.677 124.386 124.386 0 0 0 16.898-17.972 178.4 178.4 0 0 0 13.85-20.642 184.754 184.754 0 0 0 10.385-20.797 141.537 141.537 0 0 0 6.361-18.259zm143.584 41.874a47.484 47.484 0 0 1-2.208 13.626 40.902 40.902 0 0 1-7.201 13.577 39.91 39.91 0 0 1-12.991 10.469c-5.336 2.821-11.822 4.224-19.458 4.209h-54.872v-28.94h54.872c4.118 0 7.333-1.266 9.576-3.808a13.556 13.556 0 0 0 3.4-9.398 11.941 11.941 0 0 0-3.79-9.368 13.4 13.4 0 0 0-9.186-3.392h-54.872c-4.134 0-7.33 1.267-9.599 3.8a13.632 13.632 0 0 0-3.381 9.421v42.457c0 4.058 1.267 7.215 3.8 9.477a13.64 13.64 0 0 0 9.422 3.404h54.63v29.004h-54.872c-4.63-.065-9.22-.81-13.63-2.21a41.163 41.163 0 0 1-13.574-7.2 40.377 40.377 0 0 1-10.472-12.98c-2.791-5.34-4.194-11.833-4.21-19.484V116.09c.061-4.63.806-9.22 2.21-13.63a40.644 40.644 0 0 1 7.181-13.555 39.91 39.91 0 0 1 12.965-10.468c5.362-2.814 11.856-4.22 19.484-4.22h54.918c4.625.063 9.216.808 13.626 2.208a40.54 40.54 0 0 1 13.555 7.182 39.763 39.763 0 0 1 10.468 12.998c2.814 5.34 4.217 11.826 4.21 19.462z" style="fill:#8edd65;fill-rule:nonzero;stroke-width:3.78195"/><text x="-3.6" y="280.445" style="font-size:87.2533px;font-family:Inter-Regular,Inter;fill:#255b3f;stroke-width:3.78195">c<tspan x="42.925842 94.311142 128.09149 175.01025 226.1308 276.64246 311.29645 333.30353 383.92865" y="280.4455 280.4455 280.4455 280.4455 280.4455 280.4455 280.4455 280.4455 280.4455" style="stroke-width:3.78195">arsharing</tspan></text></svg>