<svg width="800" height="320" viewBox="-3.189 -3.189 470.642 187.779" xmlns="http://www.w3.org/2000/svg"><path d="M-3.189-3.428h470.643V184.83H-3.19z" fill="#fff" style="clip-rule:evenodd;fill-rule:evenodd;stroke-width:.470643;stroke-linejoin:round;stroke-miterlimit:2"/><path style="fill:#ffad00;fill-opacity:1;fill-rule:nonzero;stroke:none;stroke-width:1.49778" d="m426.847 90.453-23.16-31.915-28.94-40.02c-6.004-8.256-17.56-10.1-25.838-4.124h-.431c-8.264 6.005-10.108 17.558-4.124 25.837l36.178 49.855-36.178 49.929c-6.005 8.286-4.192 19.857 4.051 25.911h.43c8.28 5.975 19.835 4.132 25.84-4.124l21.706-29.385z"/><path d="M459.048 14.686h-.438c-8.272-5.981-19.827-4.132-25.831 4.125l-19.754 26.848 23.52 31.908 26.554-37.05c5.976-8.271 4.132-19.826-4.124-25.83m4.124 125.695-26.553-37.051-23.235 31.908 19.76 27.214c5.996 8.257 17.552 10.1 25.83 4.125h.433c8.264-6.004 10.107-17.56 4.125-25.839M297.533 57.667H272.71v-29.81c.043-8.22 6.691-14.867 14.905-14.912h9.917c8.211.045 14.867 6.691 14.905 14.912v14.905c-.038 8.221-6.693 14.868-14.905 14.905m14.905 110.358H272.71V87.052c.043-8.22 6.691-14.868 14.905-14.913h24.822zm-121.28-31.916c-3.998 0-7.24-3.239-7.24-7.232V27.93c.008-4-1.592-7.833-4.43-10.647a15.03 15.03 0 0 0-10.685-4.338h-24.968V153.04c0 8.279 6.706 14.985 14.977 14.985h81.478c8.279 0 14.985-6.706 14.985-14.985v-16.93zM12.495 12.945c-8.206 0-14.869 6.633-14.905 14.84v140.24h39.652V107.09h56.227c3.956 0 7.743-1.565 10.544-4.366a14.892 14.892 0 0 0 4.366-10.539V75.401H37.241V52.093c0-3.993 3.241-7.232 7.242-7.232h67.363c8.234 0 14.912-6.676 14.912-14.905v-17.01z" style="fill:#73d700;fill-opacity:1;fill-rule:nonzero;stroke:none;stroke-width:1.49778"/></svg>