<svg width="800" height="320" fill="none" xmlns="http://www.w3.org/2000/svg"><path d="M0 0h800v320H0z" fill="#fff" image-rendering="optimizeQuality" shape-rendering="geometricPrecision" style="clip-rule:evenodd;display:inline;fill-rule:evenodd;stroke-width:1;stroke-linejoin:round;stroke-miterlimit:2"/><g clip-path="url(#a)" transform="matrix(5.47475 0 0 5.47475 -12.431 79.836)" fill="#fff"><path d="M8.762 25.999a1.3 1.3 0 0 1-.668-.193 12.13 12.13 0 0 1-4.762-14.793c2.194-5.438 7.95-8.534 13.687-7.356.68.139 1.112.804.974 1.48-.139.68-.8 1.104-1.473.968-4.557-.936-9.126 1.527-10.868 5.843a9.634 9.634 0 0 0 3.776 11.744c.587.365.761 1.136.393 1.724a1.265 1.265 0 0 1-1.059.583zM14.605 27.693a11.83 11.83 0 0 1-2.445-.254 1.245 1.245 0 0 1-.972-1.468c.142-.68.802-1.12 1.477-.98a9.62 9.62 0 0 0 10.863-5.834 9.616 9.616 0 0 0-3.771-11.743 1.241 1.241 0 0 1-.387-1.726 1.236 1.236 0 0 1 1.716-.387 12.123 12.123 0 0 1 4.767 14.793 12.147 12.147 0 0 1-11.249 7.6z" style="fill:#1e0046;fill-opacity:1;stroke:none;stroke-opacity:1"/><path d="M18.746 21.534c-.346 0-.69-.142-.937-.42a1.242 1.242 0 0 1 .113-1.762 5.05 5.05 0 0 0 1.318-5.78 5.038 5.038 0 0 0-5.075-3.052 1.243 1.243 0 0 1-1.349-1.135 1.252 1.252 0 0 1 1.14-1.36 7.54 7.54 0 0 1 7.587 4.575c1.272 3 .49 6.472-1.973 8.626a1.22 1.22 0 0 1-.824.307zM14.585 23.098a7.54 7.54 0 0 1-6.943-4.591A7.529 7.529 0 0 1 9.615 9.88a1.242 1.242 0 0 1 1.761.114c.455.52.407 1.302-.113 1.761a5.033 5.033 0 0 0-1.318 5.77 5.045 5.045 0 0 0 5.069 3.06 1.242 1.242 0 0 1 1.354 1.137 1.248 1.248 0 0 1-1.14 1.349 6.495 6.495 0 0 1-.644.027zM51.7 12.927c0 .692-.564 1.282-1.281 1.282a3.895 3.895 0 0 0-3.897 3.897v5.152c0 .692-.564 1.282-1.256 1.282-.692 0-1.282-.59-1.282-1.282v-5.152a6.438 6.438 0 0 1 6.434-6.434c.718 0 1.282.564 1.282 1.256zM64.492 18.08c0 .692-.564 1.256-1.282 1.256h-8.844c.539 1.538 1.974 2.64 3.691 2.64.59 0 1.641-.051 2.871-.846.59-.385 1.385-.026 1.692.59.308.64-.025 1.307-.615 1.692-1.692 1.127-3 1.102-3.948 1.102a6.438 6.438 0 0 1-6.434-6.434 6.438 6.438 0 0 1 6.435-6.434c3.101 0 6.433 2.256 6.433 6.434zm-10.126-1.282h7.408c-.538-1.794-2.179-2.615-3.717-2.615a3.919 3.919 0 0 0-3.69 2.615zM78.898 18.08c0 .692-.564 1.256-1.281 1.256h-8.844c.538 1.538 1.974 2.64 3.691 2.64.59 0 1.64-.051 2.871-.846.59-.385 1.384-.026 1.692.59.308.64-.026 1.307-.615 1.692-1.692 1.127-3 1.102-3.948 1.102a6.438 6.438 0 0 1-6.434-6.434 6.438 6.438 0 0 1 6.434-6.434c3.102 0 6.434 2.256 6.434 6.434zm-10.125-1.282h7.408c-.538-1.794-2.179-2.615-3.717-2.615a3.92 3.92 0 0 0-3.691 2.615zM90.331 23.283c0 .692-.538 1.23-1.23 1.23H80.95c-.693 0-1.23-.538-1.23-1.23 0-.358.127-.564.332-.871l7.485-9.51c1.103-2.384-1.46-4.82-3.819-3.486-.769.46-1.282 1.307-1.282 2.23 0 .692-.564 1.256-1.282 1.256a1.264 1.264 0 0 1-1.281-1.256c0-1.384.59-2.64 1.486-3.538v-.025a5.304 5.304 0 0 1 5.87-1.103c1.257.564 2.256 1.564 2.743 2.82.564 1.333.641 3.153-.307 4.358l-6.178 7.87H89.1c.691 0 1.23.563 1.23 1.255zM109.814 16.926c.025.051.025.077.025.128v6.23c0 .717-.589 1.281-1.281 1.281a1.264 1.264 0 0 1-1.257-1.282v-6.46c0-1.435-1.179-2.588-2.614-2.588-1.436 0-2.615 1.153-2.615 2.589v6.46c0 .717-.564 1.281-1.256 1.281a1.285 1.285 0 0 1-1.282-1.282v-6.46a2.582 2.582 0 0 0-2.589-2.588c-1.435 0-2.614 1.153-2.614 2.589v6.46c0 .717-.564 1.281-1.256 1.281a1.286 1.286 0 0 1-1.282-1.282v-6.46c0-2.82 2.307-5.126 5.152-5.126 1.538 0 2.923.667 3.871 1.769a5.071 5.071 0 0 1 3.871-1.769c2.845 0 5.152 2.307 5.152 5.127 0 .05 0 .077-.026.102zM111.275 18.08a6.438 6.438 0 0 1 6.434-6.434 6.438 6.438 0 0 1 6.434 6.434 6.422 6.422 0 0 1-6.434 6.434 6.438 6.438 0 0 1-6.434-6.434zm2.538 0c0 2.127 1.743 3.896 3.897 3.896 2.153 0 3.896-1.768 3.896-3.896s-1.743-3.897-3.896-3.897a3.895 3.895 0 0 0-3.897 3.897zM134.782 13.415l-3.845 10.253c-.205.512-.692.846-1.205.846h-.026a1.309 1.309 0 0 1-1.205-.846l-3.845-10.253a1.251 1.251 0 0 1 .744-1.641c.666-.257 1.384.077 1.64.743l2.692 7.152 2.666-7.152c.256-.666.974-1 1.641-.743.666.23.999.974.743 1.64zM148.163 18.08c0 .692-.564 1.256-1.282 1.256h-8.843c.538 1.538 1.973 2.64 3.691 2.64.589 0 1.641-.051 2.871-.846.589-.385 1.384-.026 1.692.59.307.64-.026 1.307-.616 1.692-1.691 1.127-2.999 1.102-3.947 1.102a6.438 6.438 0 0 1-6.434-6.434 6.438 6.438 0 0 1 6.434-6.434c3.102 0 6.434 2.256 6.434 6.434zm-10.125-1.282h7.408c-.539-1.794-2.179-2.615-3.717-2.615a3.918 3.918 0 0 0-3.691 2.615zM43.01 6.596h-5.384c-.93 0-2.257.42-2.95 1.112-1.208 1.21-1.869 2.84-1.867 4.621v10.878a1.27 1.27 0 0 0 1.28 1.281 1.27 1.27 0 0 0 1.283-1.281v-6.332h5.819c.692 0 1.281-.564 1.281-1.282 0-.717-.589-1.282-1.281-1.282h-5.82v-1.837c0-1.153.101-1.972.87-2.741.587-.587 2.47-.574 3.036-.574h3.734c.692 0 1.282-.564 1.282-1.282 0-.717-.59-1.282-1.282-1.282z" style="fill:#1e0046;fill-opacity:1;stroke:none;stroke-opacity:1"/></g><defs><clipPath id="a"><path fill="#fff" transform="translate(2.45 3.408)" d="M0 0h145.714v24.285H0z"/></clipPath></defs></svg>