<svg width="800" height="320" xmlns="http://www.w3.org/2000/svg"><path d="M0 0h800v320H0z" fill="#fff" style="stroke-width:.8"/><path fill="#00508f" d="M21.446 39.979.108 233.973h136.008L157.49 39.979z" style="stroke-width:.581459"/><path d="M23.902 251.268v-46.455h74.345v18.565H42.495v27.89zm55.751-18.593h18.593v46.455H23.902v-18.565h55.751zm-27.862 0h18.593v18.593H51.791z" fill="#40baec" style="stroke-width:.42299"/><path d="M581.805 251.324h46.762v-13.68h-46.762v-16.666h49.61v-15.69h-67.756v78.392h68.957v-15.689h-50.81zm189.477-46.036-29.37 32.328h-2.205v-32.328h-18.063v78.364h18.063v-32.328h2.206l30.904 32.328h25.154l-40.397-39.726 36.237-38.638zM406.846 267.99v-47.013h27.974c13.4 0 16.22 12.619 16.22 23.619 0 10.888-3.434 23.395-16.834 23.395zm27.052-62.702h-45.226v78.392h45.199c26.493 0 35.204-14.963 35.204-39.084.028-24.26-8.683-39.308-35.177-39.308zm-147.431-.028c-5.556-.503-11.14-.893-16.696-.865-5.555 0-11.166.39-16.694.865-15.745 1.424-26.243 8.682-26.243 28.95v20.492c0 5.528 1.173 11.083 4.049 15.857 3.796 6.281 10.245 10.58 17.252 12.507 3.853 1.06 7.901 1.088 11.893 1.256l9.743.14 9.744-.14c3.964-.168 8.012-.195 11.892-1.256 7.008-1.926 13.456-6.226 17.253-12.507 2.876-4.774 4.048-10.33 4.048-15.857V234.21c0-20.268-10.497-27.527-26.242-28.95zm7.62 47.32c0 11.502-2.205 14.713-10.747 15.578-4.467.474-10.05.67-13.596.67-3.546 0-9.101-.196-13.596-.67-8.543-.865-10.748-4.076-10.748-15.578v-17.588c0-8.151.698-13.204 10.553-14.265 4.16-.447 8.543-.67 13.763-.67 5.22 0 9.603.223 13.763.67 9.855 1.06 10.553 6.114 10.553 14.265v17.588zm50.56 15.383c-1.285 0-2.513 0-3.602-.866-1.507-1.172-1.563-3.07-1.563-4.802V205.26h-18.147v56.45c0 6.756.252 14.098 6.03 18.62 4.188 3.267 8.962 3.323 13.96 3.323h38.832v-15.69zm198.716-22.307-2.848-.558v-1.2l2.764-.977c4.97-1.787 9.073-4.327 9.073-17.56 0-14.238-10.971-20.045-28.001-20.045h-46.595v78.393h52.485c8.376 0 24.596-2.652 24.596-20.38 0-11.055-3.21-16.024-11.474-17.671zm-47.46-24.65h30.85c6.56 0 7.872 4.382 7.872 8.542 0 4.244-1.787 8.096-7.872 8.096h-30.85zm32.33 47.012h-32.33v-16.666h32.33c6.56 0 7.872 4.383 7.872 8.543 0 4.243-1.787 8.124-7.873 8.124zm137.186-1.005c-5.64-2.624-6.198-8.487-6.198-16.443v-12.172c0-7.928.53-13.819 6.198-16.443 0 0 10.496-5.304 44.333 1.312l2.121-15.159c-1.228-.251-15.103-3.266-27.778-3.63-6.505-.195-13.316-.167-19.737 1.118-2.764.502-5.444 1.228-8.013 2.233-11.446 4.495-15.745 15.354-15.745 27.052v19.235c0 11.67 4.3 22.558 15.745 27.052 2.569 1.006 5.248 1.731 8.013 2.234 6.42 1.284 13.232 1.312 19.737 1.116 12.675-.363 26.522-3.378 27.779-3.629l-2.122-15.159c-33.837 6.56-44.333 1.285-44.333 1.285zm-485.374-29.508v13.819h21.58v10.72s.083 2.652-1.257 4.16c-1.228 1.396-2.791 1.926-5.025 2.177-4.466.503-8.961.53-13.428.475-4.718-.056-9.408-.196-14.126-.67-11.39-1.145-13.177-6.421-13.177-18.23V239.18c0-9.129.893-15.299 8.431-17.56 0 0 4.383-1.312 16.667-1.508h5.443c8.013.14 17.392.95 27.164 3.21l3.239-13.986c-13.122-3.769-25.908-4.774-36.014-4.746 0 0-10.497 0-19.207 1.312-4.523.67-9.073 1.927-12.898 4.523-6.952 4.83-10.944 13.456-10.944 25.014v18.063c0 13.204 4.104 22.25 12.173 26.69 6.365 3.656 13.679 4.131 20.993 4.215l11.335.14 11.446-.14c6.309 0 14.042-.894 19.067-5.081 5.137-4.272 6.477-10.637 6.477-17.002v-24.819z" style="stroke-width:.42299"/></svg>