<svg width="800" height="320" xmlns="http://www.w3.org/2000/svg"><defs><clipPath id="a"><path data-name="Rechteck 1" fill="none" d="M0 0h64.68v58.766H0z"/></clipPath></defs><path d="M0 0h800v320H0z" fill="#fff" style="display:inline;stroke-width:.800002"/><g data-name="Gruppe 2"><g data-name="Gruppe 1" clip-path="url(#a)" transform="translate(254.625 29.652) scale(4.43631)"><path data-name="Pfad 1" d="M40.162 29.028a.907.907 0 0 1-.364-.455l-.009-.025-4.905-13.307-.028-.068a1.32 1.32 0 0 1 .259-1.2l5.211-6.785a1.387 1.387 0 0 1 1.767-.473.884.884 0 0 1 .258.249l.125.269 2.241 6.639L54.884.631a1.389 1.389 0 0 1 1.768-.473l7.6 4.89a1.137 1.137 0 0 1 .116 1.682l-10.17 13.241 7.585-.32.317.016a.965.965 0 0 1 .343.138 1.136 1.136 0 0 1 .114 1.682l-5.21 6.785a1.578 1.578 0 0 1-1.146.63h-.078l-15.342.286h-.028a1.045 1.045 0 0 1-.592-.161" fill="#171716"/><path data-name="Pfad 2" d="M42.684 33.871a1.228 1.228 0 0 1 .573-.149h.023l13.323-.021h.069a.826.826 0 0 1 .781.526l2.173 5.794a1.26 1.26 0 0 1-.688 1.461 1.282 1.282 0 0 1-.35.124l-.284.02-6.521-.145 4.242 11.306a1.261 1.261 0 0 1-.69 1.462l-8.367 4.371a.939.939 0 0 1-1.382-.379l-4.243-11.3-4.292 5.8-.2.234a1.418 1.418 0 0 1-.314.222.939.939 0 0 1-1.38-.38l-2.174-5.79a1.118 1.118 0 0 1 .194-1.038l.049-.059 8.963-11.624.016-.024a1.447 1.447 0 0 1 .48-.4" fill="#171716"/><path data-name="Pfad 3" d="M37.328 33.618a1.78 1.78 0 0 1-.359.745l-.025.03-12.627 15.82-.062.083a1.878 1.878 0 0 1-1.4.692h-9.249a1.153 1.153 0 0 1-1.157-1.47 1.692 1.692 0 0 1 .177-.471l.245-.346 6.376-7.674H1.19A1.154 1.154 0 0 1 .028 39.56l2.53-11.88a1.916 1.916 0 0 1 1.782-1.47h18.057l-3.114-7.676-.1-.346a1.421 1.421 0 0 1 .023-.471 1.915 1.915 0 0 1 1.782-1.47h9.254a1.142 1.142 0 0 1 1.1.692l.028.083 5.9 15.821.013.03a1.319 1.319 0 0 1 .042.745" fill="#7fad13"/></g></g><path data-name="Rechteck 2" fill="none" d="M238.654.168H558.07v319.415H238.654z"/></svg>