<svg version="1.1" id="Ebene_1" x="0" y="0" xml:space="preserve" width="800" height="320" xmlns="http://www.w3.org/2000/svg"><style type="text/css" id="style5398">.st0{fill:#004f9f}.st2,.st3{fill:#1d1d1b}.st3{fill-rule:evenodd;clip-rule:evenodd}</style><path d="M0 0h800v320H0z" fill="#fff" style="clip-rule:evenodd;fill-rule:evenodd;stroke-width:.8;stroke-linejoin:round;stroke-miterlimit:2" id="path1181"/><g id="g5434" style="display:inline" transform="matrix(1.51815 0 0 1.51815 1.69 95.407)"><path class="st0" id="polygon5400" d="M175.2 58.7v31.1h-30.6V7.3h30.5v28.4h28.5V7.3h30.1v82.3h-30.1V58.7z"/><path class="st0" id="polygon5402" d="m472.2 45.7-.1-38.4h-25.4l.1 82.6 25.6.1-.1-23.4L492.5 90h31.9l-29.7-34.8 24.9-25-31.5-.1z"/><g id="g5410"><path d="M280.6 33.1c-.1-.9-.2-2.2.1-3.1h25.9v40.2c.1 2 2.2 3.9 4.5 4.3.7.1 2 .2 3.2-.1-1.9 4.3-6 15.5-6.1 16.5l-16.7-.1c-3.9-.7-7.8-3.6-8.7-7.2-6.8 6.5-16.1 9.7-25.1 7.1-11.2-2.7-17.6-14.4-19.3-24.4-2.5-12.9 1.4-25.4 12.3-32.7 8.1-5.8 21.2-6.2 29.9-.5m-.1 18c-3.7-2.4-9.4-2.8-12.8-.3-3.5 2.2-5.2 5.6-5.1 9.5-.2 4.4 1.8 8.5 6.1 10.8 3.3 2 8.6 1.2 11.9-1.2 0-6.1-.2-12.8-.1-18.8" id="path5404" style="fill-rule:evenodd;clip-rule:evenodd;fill:#004f9f"/><path class="st0" d="m442.2 32.7.1 20.6c-7.7-3.5-19.1-5.5-25.6.6-2.8 2.6-3.3 6.9-1.5 10.2 2.8 6.1 9.9 6.6 16.5 6.1 3.4-.7 7-1.4 10.6-3.2v20.7c-12.5 5.7-30.2 6.3-41.3-1.5-10.7-8.5-15.5-21.1-12.1-34.3 1.9-9.2 10.2-18.3 19.7-20.8 10.2-3.2 23.2-2.2 33.6 1.6" id="path5406"/><path class="st0" d="M341.3 65.7c0 1.4 1 2.8 2.5 3.9 1.8 1.8 5.1 1.1 7.7.3 1.6-1 3.5-2.1 5.1-3.8l-.2-36h25.1l.1 40.6c.1 1.1.9 2.3 2.3 3.1 1.1 1 3.1.8 5.2 1.1L383 91.4c-5.3.1-10.5-.1-15.5-.2-4.7-.7-8.9-4.7-9.8-8.8-.4-.4-.4-1.3-.7-.8-7.1 7.4-16.4 11.6-26.3 9.3-7.1-1.4-13.4-8-14.4-14.8l-.5-4.5c-.3-13.9-.3-27.8-.2-41.6h25.5l.2 35.7" id="path5408"/></g><path class="st2" d="M388 3.3c0-1.8 1.5-3.3 3.3-3.3 1.8 0 3.3 1.5 3.3 3.3 0 1.8-1.5 3.3-3.3 3.3-1.9 0-3.3-1.5-3.3-3.3" id="path5412"/><g id="g5432"><path class="st2" d="M271.6 12.3h-8.1v4.3h2.6V19c-4.5.6-7.3-1.6-7.3-5.3 0-3.5 2.5-5.8 6.3-5.8 1.9 0 4 .6 6.1 1.7V4.5c-2.3-.9-4.7-1.4-7.2-1.4-7.4 0-12.4 4.4-12.4 10.8 0 4.5 3.1 10.3 11.9 10.3 2.5 0 5.7-.4 8.1-1V12.3" id="path5414"/><path class="st2" d="M293.4 8h-6.3v9.4c-.8 1.1-1.5 1.6-2.5 1.6-1.3 0-1.9-.7-1.9-2.4V8h-6.3v10.1c0 4.6 2.8 6 5.4 6 2.2 0 3.9-.9 5.4-2.7.5 2 1.6 2.7 4 2.7 1 0 1.7-.1 2.7-.3l1.6-4.3c-1.5.5-2.3-.1-2.3-1.6V8" id="path5416"/><path class="st2" d="M312.1 17.6c-1.3.8-2.5 1.2-3.5 1.2-1.3 0-1.9-.6-1.9-2.1V12h5V8h-5V3.3h-1.4l-7.6 6.8v2h2.8v6.3c0 2.2.3 3.3 1.2 4.2 1.1 1.1 3 1.7 4.9 1.7 2.1 0 3.9-.6 5.5-1.8v-4.9" id="path5418"/><path class="st3" d="M321.4 14.8c-.2-2.5 1.1-3.5 2.7-3.5 1.8 0 2.7 1.2 2.7 3.5h-5.4m9.7 3.7c-1.8 1.3-3.4 1.8-5.1 1.8-2.4 0-4.3-1.5-4.4-3.2H332c.7-5.5-3.1-9.4-7.9-9.4-4.7 0-8.2 3.5-8.2 8.2 0 4.6 3.5 8.3 9 8.3 3 0 5.6-1.1 7.3-3.1z" id="path5420"/><path class="st3" d="M350.5 12.2V6.7h2.1c2.3 0 3.5.9 3.5 2.7 0 1.8-1.4 2.8-3.7 2.8h-1.9m-7.2 11.7h7.2v-8.6h2c2 0 3.1 2 4.6 5.5l1.3 3h7.1l-2.4-5.4c-1.1-2.4-1.9-3.9-3.4-4.5 2.2-1 3.3-2.6 3.3-4.8 0-3.2-2.4-5.9-7.9-5.9h-11.7v20.7z" id="path5422"/><path class="st3" d="M372.7 14.8c-.2-2.5 1.1-3.5 2.7-3.5 1.8 0 2.7 1.2 2.7 3.5h-5.4m9.7 3.7c-1.8 1.3-3.4 1.8-5.1 1.8-2.4 0-4.3-1.5-4.4-3.2h10.4c.7-5.5-3.1-9.4-7.9-9.4-4.7 0-8.2 3.5-8.2 8.2 0 4.6 3.5 8.3 9 8.3 3 0 5.6-1.1 7.3-3.1z" id="path5424"/><path class="st2" id="rect5426" d="M388.1 8h6.3v15.9h-6.3z"/><path class="st2" d="M410.5 9.1c-1.9-.9-3.4-1.3-5.7-1.3-5 0-6.4 2.6-6.4 4.7 0 4.7 6.7 4.7 6.7 6.6 0 .8-.7 1.2-1.7 1.2-1.5 0-2.9-.6-5-2.2v4.5c1.7 1 4.2 1.5 6.8 1.5 4.6 0 6.1-2.8 6.1-4.8 0-1.3-.6-2.4-1.4-3.3-2.1-2.1-5.2-1.8-5.2-3.4 0-.6.6-1.1 1.5-1.1 1.2 0 2.5.5 4.4 1.6v-4" id="path5428"/><path class="st3" d="M420 14.8c-.2-2.5 1.1-3.5 2.7-3.5 1.8 0 2.7 1.2 2.7 3.5H420m9.6 3.7c-1.8 1.3-3.4 1.8-5.1 1.8-2.4 0-4.3-1.5-4.4-3.2h10.4c.7-5.5-3.1-9.4-7.9-9.4-4.7 0-8.2 3.5-8.2 8.2 0 4.6 3.5 8.3 9 8.3 3 0 5.6-1.1 7.3-3.1z" id="path5430"/></g></g><path id="polygon5436" transform="matrix(1.51815 0 0 1.51815 1.69 95.407)" style="fill:#e30613" d="M114.8 90.2 73.3 48.9l42.5-41.6-32.7-.1L56 33.8l-39.9.1L0 49.3l15.7 16.2h41.2l24 24.6z"/><path id="polygon5438" transform="matrix(1.51815 0 0 1.51815 1.69 95.407)" style="fill:#fd0" d="m87.2 62.6-14-13.7 42.6-41.6 28.1.1z"/></svg>