<svg viewBox="0 0 800 320" version="1.1" id="svg2" xml:space="preserve" xmlns="http://www.w3.org/2000/svg"><defs id="defs1"><path id="B" d="M100.3-65.5h594.1v594.1H100.3z"/><path id="SVGID_1_" d="M97.97 68.4c0 7.41 6.04 13.42 13.49 13.42s13.48-6.01 13.48-13.42-6.04-13.42-13.48-13.42c-7.45 0-13.49 6-13.49 13.42"/><path id="SVGID_00000044898771460269573090000010456118392746125217_" d="M120.62 68.4c0 7.41 6.04 13.42 13.49 13.42s13.49-6.01 13.49-13.42-6.04-13.42-13.49-13.42-13.49 6-13.49 13.42"/><path id="SVGID_00000127743730624216497450000002043249572621365943_" d="M143.27 68.4c0 7.41 6.04 13.42 13.48 13.42 7.45 0 13.48-6.01 13.48-13.42s-6.04-13.42-13.48-13.42-13.48 6-13.48 13.42"/><path id="SVGID_00000162329239644862310090000004140755303673011123_" d="M165.92 68.4c0 7.41 6.04 13.42 13.48 13.42 7.45 0 13.49-6.01 13.49-13.42s-6.04-13.42-13.49-13.42c-7.44 0-13.48 6-13.48 13.42"/><path id="SVGID_00000079476757253046130470000001117058738893821098_" d="M188.57 68.4c0 7.41 6.04 13.42 13.49 13.42s13.49-6.01 13.49-13.42-6.04-13.42-13.49-13.42-13.49 6-13.49 13.42"/><path id="SVGID_00000132771776994441339210000010272632559138794632_" d="M211.22 68.4c0 7.41 6.04 13.42 13.49 13.42s13.48-6.01 13.48-13.42-6.04-13.42-13.48-13.42c-7.45 0-13.49 6-13.49 13.42"/><clipPath id="A"><use href="#B" id="use1"/></clipPath><clipPath id="clipPath6935"><path d="M549.227 732.295c-1.846-1.623-2.791-4.136-2.791-6.064v-8.709c0-1.684-.798-2.611-2.16-2.611-1.363 0-2.146.872-2.146 2.683v8.549c.21 3.412-2.252 8.278-8.329 8.278-7.689 0-8.539-7.051-8.539-8.286v-8.784c0-1.307-.385-2.481-2.063-2.481-1.401 0-2.104 1.421-2.104 2.519v8.949s.455 3.093-2.184 5.732c-2.638 2.638-6.146 2.269-6.146 2.269l-23.181-.004c-4.451-.001-7.423-2.486-7.423-7.008 0-1.157.411-4.411 4.453-6.847 4.041-2.437 4.701-3.627 4.661-4.329-.041-.702-.933-1.357-2.434-1.357h-10.597c-1.341 0-4.046.035-5.322 1.152-1.276 1.116-1.858 3.007-1.858 3.007l5.859.003c1.079 0 2.556.99 2.556 2.762 0 1.773-1.62 2.724-2.68 2.724h-5.858c.578 1.155 1.025 2.185 2.383 3.095 1.315.884 3.06.897 4.423.902l1.65.004v5.937l-3.258-.045c-7.382-.1-11.96-6.019-11.96-12.739 0-6.721 4.438-12.582 12.001-12.582h13.69c6.18 0 8.17 3.465 8.17 7.342s-3.34 6.106-5.445 7.631c-2.104 1.527-3.932 2.267-3.959 3.673-.016.866.977.739 1.773.739l11.794.004v-19.306h6.312v19.346l4.333-.004c.67-.001 1.156-.328 1.608-.779.451-.452.411-1.294.411-1.817v-9.198c0-5.954 4.701-7.793 8.291-7.793 5.47 0 8.456 4.243 8.456 8.204v9.087c0 1.558 1.155 2.276 2.101 2.214 1.405-.091 2.245-.536 2.245-2.514v-8.661c0-3.634 2.584-8.291 8.11-8.291 5.527 0 8.621 3.979 8.621 8.369v8.71c0 .729.117 1.275.737 1.906.689.702 1.572.567 1.572.567v6.061s-3.277-.013-5.773-2.209" id="path6937"/></clipPath><style type="text/css" id="style1-4"></style></defs><path d="M0 0h800v320H0z" fill="#fff" id="path1" style="fill:none"/><g id="g64" transform="matrix(3.48888 0 0 3.48891 0 85.512)" style="stroke-width:.286624" fill="#fff"><path d="M25 42.4v-24h-6.6v23.9H25zm5.5-24v23.9h6.3V23.7h5.1c3.6 0 4.2 1 4.2 4.3v14.4h6.3V27.2c0-6.4-2.9-8.8-10-8.8zm29.4 4.8v19.2h6.5V23.2h6v-4.8h-6v-1.9c0-1.6 1-2.1 3-2.1h3V9.7h-6c-5.1 0-6.5 1.4-6.5 6.2v2.5h-4.5v4.8zm15.6-4.8v23.9h6.3V23H84c2 0 2.8.2 2.8 2.4v3.1h6v-4c0-4.5-1.7-6-6.7-6H75.5zm21.9 0v5h10.5c4 0 5.7.8 5.7 3.9v.6h-8.3c-6.7 0-9.5 2.1-9.5 7.6 0 4.4 2.6 6.9 7.4 6.9h17v-15c0-5.9-3.3-9-9.9-9zm8.4 19.1c-2.3 0-3.5-.3-3.5-2.3 0-2.1 1.2-2.7 3.9-2.7h7.5v5zM0 0h6.7v6.7H0zm9.1 0h6.7v6.7H9.1zm.1 9h6.7v6.7H9.2zM0 9h6.7v6.7H0zm0 8.8h6.7v6.7H0zM18.3 9H25v6.7h-6.7z" id="path2" style="fill:#000;stroke-width:.286624"/><path d="M133.6 15.8v1.9h8V21h-8v21.7h-3.5V20.9h-4.3v-3.3h4.3v-1.9c0-4.6 2.2-6.8 6.8-6.8h4.7v3.3h-4.5c-2.7.1-3.5.9-3.5 3.6zm31.4 1.8h-3.5v21.7h-6c-4.9 0-6.7-1.8-6.7-6.7v-15h-3.5v14.8c0 7.1 3.1 10.2 10.2 10.2h9.3v-25zM159.7 9h-3.3v6.7h3.3zM154 9h-3.3v6.7h3.3zm31.6 16.4c0-5.1-2.6-7.8-7.8-7.8h-7.2v25h3.4V20.9h3.6c3 0 4.4 1.4 4.4 4.4v2.6h3.5v-2.5zm10.2-4.5h9.2v-3.3h-9.2v-6.1h-3.5v6.1H188v3.3h4.3v14.9c0 4.6 2.2 6.8 6.8 6.8h5.7v-3.3h-5.5c-2.7 0-3.5-.9-3.5-3.5zm33.4 7c0-7.1-3.2-10.2-10.2-10.2h-6.2V9h-3.5v33.6h3.5V20.9h6.3c4.8 0 6.7 1.9 6.7 6.7v15h3.5V27.9z" id="path4" style="fill:#009677;fill-opacity:1;stroke-width:.286624"/></g></svg>