<svg viewBox="0 0 800 320" version="1.1" id="svg2" xml:space="preserve" xmlns="http://www.w3.org/2000/svg"><defs id="defs1"><path id="SVGID_00000162329239644862310090000004140755303673011123_" d="M165.92 68.4c0 7.41 6.04 13.42 13.48 13.42 7.45 0 13.49-6.01 13.49-13.42s-6.04-13.42-13.49-13.42c-7.44 0-13.48 6-13.48 13.42"/><path id="SVGID_1_" d="M97.97 68.4c0 7.41 6.04 13.42 13.49 13.42s13.48-6.01 13.48-13.42-6.04-13.42-13.48-13.42c-7.45 0-13.49 6-13.49 13.42"/><path id="SVGID_00000044898771460269573090000010456118392746125217_" d="M120.62 68.4c0 7.41 6.04 13.42 13.49 13.42s13.49-6.01 13.49-13.42-6.04-13.42-13.49-13.42-13.49 6-13.49 13.42"/><path id="SVGID_00000127743730624216497450000002043249572621365943_" d="M143.27 68.4c0 7.41 6.04 13.42 13.48 13.42 7.45 0 13.48-6.01 13.48-13.42s-6.04-13.42-13.48-13.42-13.48 6-13.48 13.42"/><path id="B" d="M100.3-65.5h594.1v594.1H100.3z"/><path id="SVGID_00000079476757253046130470000001117058738893821098_" d="M188.57 68.4c0 7.41 6.04 13.42 13.49 13.42s13.49-6.01 13.49-13.42-6.04-13.42-13.49-13.42-13.49 6-13.49 13.42"/><path id="SVGID_00000132771776994441339210000010272632559138794632_" d="M211.22 68.4c0 7.41 6.04 13.42 13.49 13.42s13.48-6.01 13.48-13.42-6.04-13.42-13.48-13.42c-7.45 0-13.49 6-13.49 13.42"/><clipPath id="A"><use href="#B" id="use1"/></clipPath><clipPath id="clipPath6935"><path d="M549.227 732.295c-1.846-1.623-2.791-4.136-2.791-6.064v-8.709c0-1.684-.798-2.611-2.16-2.611-1.363 0-2.146.872-2.146 2.683v8.549c.21 3.412-2.252 8.278-8.329 8.278-7.689 0-8.539-7.051-8.539-8.286v-8.784c0-1.307-.385-2.481-2.063-2.481-1.401 0-2.104 1.421-2.104 2.519v8.949s.455 3.093-2.184 5.732c-2.638 2.638-6.146 2.269-6.146 2.269l-23.181-.004c-4.451-.001-7.423-2.486-7.423-7.008 0-1.157.411-4.411 4.453-6.847 4.041-2.437 4.701-3.627 4.661-4.329-.041-.702-.933-1.357-2.434-1.357h-10.597c-1.341 0-4.046.035-5.322 1.152-1.276 1.116-1.858 3.007-1.858 3.007l5.859.003c1.079 0 2.556.99 2.556 2.762 0 1.773-1.62 2.724-2.68 2.724h-5.858c.578 1.155 1.025 2.185 2.383 3.095 1.315.884 3.06.897 4.423.902l1.65.004v5.937l-3.258-.045c-7.382-.1-11.96-6.019-11.96-12.739 0-6.721 4.438-12.582 12.001-12.582h13.69c6.18 0 8.17 3.465 8.17 7.342s-3.34 6.106-5.445 7.631c-2.104 1.527-3.932 2.267-3.959 3.673-.016.866.977.739 1.773.739l11.794.004v-19.306h6.312v19.346l4.333-.004c.67-.001 1.156-.328 1.608-.779.451-.452.411-1.294.411-1.817v-9.198c0-5.954 4.701-7.793 8.291-7.793 5.47 0 8.456 4.243 8.456 8.204v9.087c0 1.558 1.155 2.276 2.101 2.214 1.405-.091 2.245-.536 2.245-2.514v-8.661c0-3.634 2.584-8.291 8.11-8.291 5.527 0 8.621 3.979 8.621 8.369v8.71c0 .729.117 1.275.737 1.906.689.702 1.572.567 1.572.567v6.061s-3.277-.013-5.773-2.209" id="path6937"/></clipPath><clipPath id="clipPath16"><path d="M-9-9h1209v1702H-9V-9z" id="path18"/></clipPath><style type="text/css" id="style1-4"></style></defs><path d="M0 0h800v320H0z" fill="#fff" id="path1" style="fill:none"/><g transform="matrix(3.68776 0 0 -3.68783 -189.211 1001.225)" id="g26951" style="stroke-width:1.0625"><g id="g26939" style="stroke-width:1.0625"><path d="M86.389 267.26h-7.077l-28.004-34.58v-8.738z" id="path11788" style="fill:#00a650;fill-opacity:1;fill-rule:nonzero;stroke:none;stroke-width:1.0625"/><path d="M93.463 267.26H86.39l-35.08-43.318v-8.735z" id="path11790" style="fill:#fcd205;fill-opacity:1;fill-rule:nonzero;stroke:none;stroke-width:1.0625"/><path d="M51.309 215.208v-8.74l49.229 60.793h-7.075z" id="path11792" style="fill:#e19914;fill-opacity:1;fill-rule:nonzero;stroke:none;stroke-width:1.0625"/><path d="M51.309 206.467v-8.736l56.304 69.529h-7.075z" id="path11794" style="fill:#66cef5;fill-opacity:1;fill-rule:nonzero;stroke:none;stroke-width:1.0625"/><path d="m107.613 267.26-56.305-69.53v-8.736l63.382 78.267z" id="path11796" style="fill:#ed192e;fill-opacity:1;fill-rule:nonzero;stroke:none;stroke-width:1.0625"/><path d="M114.69 258.524v8.737l-63.381-78.267h7.076z" id="path11798" style="fill:#80cc28;fill-opacity:1;fill-rule:nonzero;stroke:none;stroke-width:1.0625"/><path d="M114.69 249.788v8.736l-56.305-69.53h7.077z" id="path11800" style="fill:#b30f8e;fill-opacity:1;fill-rule:nonzero;stroke:none;stroke-width:1.0625"/><path d="m72.537 188.994 42.152 52.056v8.738l-49.226-60.794z" id="path11802" style="fill:#0e88d3;fill-opacity:1;fill-rule:nonzero;stroke:none;stroke-width:1.0625"/><path d="M72.537 188.994h7.074l35.078 43.32v8.736z" id="path11804" style="fill:#f89c0e;fill-opacity:1;fill-rule:nonzero;stroke:none;stroke-width:1.0625"/><path d="M79.612 188.994h7.074l28.004 34.58v8.74z" id="path11806" style="fill:#cce310;fill-opacity:1;fill-rule:nonzero;stroke:none;stroke-width:1.0625"/></g><g id="g26895" style="stroke-width:1.0625"><g id="g26774" style="stroke-width:1.0625"><path d="M127.602 251.18c-.667 0-1.334.438-1.334 1.336v13.51c0 .897.667 1.335 1.334 1.335.668 0 1.336-.438 1.336-1.336v-13.509c0-.897-.668-1.335-1.336-1.335" id="path11808" style="fill:#000;fill-opacity:1;fill-rule:nonzero;stroke:none;stroke-width:1.0625"/><path d="M141.779 251.18h-.253c-.853 0-1.197.553-1.45 1.152l-3.706 8.607v-8.423c0-.897-.666-1.335-1.335-1.335-.667 0-1.334.437-1.334 1.335v13.51c0 .713.621 1.335 1.334 1.335h.3c.851 0 1.173-.553 1.45-1.152l3.658-8.284v8.123c0 .875.668 1.313 1.336 1.313s1.335-.438 1.335-1.313v-13.532c0-.714-.622-1.335-1.335-1.335" id="path11810" style="fill:#000;fill-opacity:1;fill-rule:nonzero;stroke:none;stroke-width:1.0625"/><path d="m155.862 265.726-3.245-13.464c-.161-.644-.691-1.081-1.496-1.081-.783 0-1.334.437-1.496 1.081l-3.245 13.464c-.023.116-.046.23-.046.345 0 .805.69 1.29 1.381 1.29.529 0 1.081-.3 1.243-1.013l2.163-9.206 2.163 9.206c.162.714.714 1.013 1.266 1.013.668 0 1.358-.485 1.358-1.29 0-.115 0-.23-.046-.345" id="path11812" style="fill:#000;fill-opacity:1;fill-rule:nonzero;stroke:none;stroke-width:1.0625"/><path d="M163.547 251.18h-.206c-2.532 0-4.604 1.98-4.604 4.512v7.158c0 2.554 2.072 4.51 4.604 4.51h.206c2.326 0 4.258-1.565 4.51-3.752v-.137c0-.737-.643-1.105-1.287-1.105-.598 0-1.198.345-1.382 1.151-.183.874-.989 1.197-1.841 1.197h-.206c-1.082 0-1.933-.806-1.933-1.864v-7.136c0-1.081.874-1.886 1.933-1.886h.206c1.081 0 1.958.805 1.958 1.864v2.117h-1.658c-.875 0-1.313.667-1.313 1.335 0 .645.438 1.311 1.313 1.311h2.97c.712 0 1.334-.62 1.334-1.334v-3.406c0-2.555-2.05-4.534-4.604-4.534" id="path11814" style="fill:#000;fill-opacity:1;fill-rule:nonzero;stroke:none;stroke-width:1.0625"/></g><g id="g26857" style="stroke-width:1.0625"><g id="g26780" style="stroke-width:1.0625"><path d="M127.604 230.414c-.252 0-.527.168-.527.528v13.767c0 .359.275.527.527.527.253 0 .527-.168.527-.527v-13.767c0-.36-.274-.528-.527-.528" id="path11816" style="fill:#000;fill-opacity:1;fill-rule:nonzero;stroke:none;stroke-width:1.0625"/><path d="M141.246 230.414h-.38a.617.617 0 0 0-.527.357l-5.46 12.399v-12.228c0-.36-.274-.528-.527-.528-.254 0-.528.168-.528.528v13.767a.55.55 0 0 0 .528.527h.379c.126 0 .359-.105.464-.338l5.503-12.418v12.229c0 .359.274.527.526.527.254 0 .528-.168.528-.527v-13.747c0-.337-.232-.548-.506-.548" id="path11818" style="fill:#000;fill-opacity:1;fill-rule:nonzero;stroke:none;stroke-width:1.0625"/><path d="M151.177 230.414h-.211a3.86 3.86 0 0 0-3.858 3.858v7.106a3.846 3.846 0 0 0 3.858 3.858h.21c2.067 0 3.859-1.54 3.859-3.563v-.043a.508.508 0 0 0-.527-.526c-.295 0-.506.21-.526.506a2.78 2.78 0 0 1-2.805 2.593h-.211a2.826 2.826 0 0 1-2.825-2.825v-7.106a2.826 2.826 0 0 1 2.825-2.825h.21a2.825 2.825 0 0 1 2.826 2.825v2.889h-2.573c-.695 0-.695 1.033 0 1.033h3.08a.518.518 0 0 0 .526-.506v-3.416a3.86 3.86 0 0 0-3.858-3.858" id="path11820" style="fill:#000;fill-opacity:1;fill-rule:nonzero;stroke:none;stroke-width:1.0625"/><path d="M164.228 230.414h-.21a3.86 3.86 0 0 0-3.858 3.858v7.106a3.846 3.846 0 0 0 3.859 3.858h.209a3.846 3.846 0 0 0 3.858-3.858v-7.106a3.859 3.859 0 0 0-3.858-3.858zm2.825 10.964a2.825 2.825 0 0 1-2.825 2.825h-.21a2.826 2.826 0 0 1-2.826-2.825v-7.106a2.826 2.826 0 0 1 2.827-2.825h.209a2.825 2.825 0 0 1 2.825 2.825z" id="path11822" style="fill:#000;fill-opacity:1;fill-rule:nonzero;stroke:none;stroke-width:1.0625"/><path d="M179.958 230.54h-5.988a.55.55 0 0 0-.527.528v13.641c0 .359.254.527.527.527.274 0 .528-.168.528-.527v-13.136h5.46c.358 0 .528-.253.528-.505 0-.254-.17-.528-.528-.528" id="path11824" style="fill:#000;fill-opacity:1;fill-rule:nonzero;stroke:none;stroke-width:1.0625"/><path d="M187.739 230.414h-.21c-2.11 0-3.88 1.434-3.88 3.858 0 .358.253.528.527.528.273 0 .527-.17.527-.528 0-1.772 1.244-2.804 2.826-2.804h.21c1.644 0 2.91.949 2.91 2.593 0 4.26-6.768 3.015-6.768 7.57 0 2.171 1.664 3.605 3.648 3.605h.21c2.024 0 3.69-1.18 3.69-3.268 0-.338-.253-.506-.505-.506-.255 0-.528.168-.528.527 0 1.435-1.14 2.193-2.657 2.193h-.21c-1.393 0-2.614-.97-2.614-2.572 0-3.563 6.788-2.635 6.788-7.55 0-2.212-1.73-3.646-3.964-3.646" id="path11826" style="fill:#000;fill-opacity:1;fill-rule:nonzero;stroke:none;stroke-width:1.0625"/><path d="M202.097 244.076h-2.719V230.94c0-.359-.253-.528-.527-.528-.253 0-.506.17-.506.528v13.135h-2.72c-.358 0-.528.252-.528.506 0 .274.17.527.527.527h6.473c.36 0 .528-.253.528-.527 0-.254-.169-.506-.528-.506" id="path11828" style="fill:#000;fill-opacity:1;fill-rule:nonzero;stroke:none;stroke-width:1.0625"/><path d="M214.263 230.414c-.21 0-.4.105-.485.379l-1.116 3.374h-5.799l-1.055-3.374c-.083-.274-.273-.38-.483-.38-.275 0-.528.19-.528.507 0 .042 0 .105.021.168l4.47 13.768c.084.275.295.38.506.38.21 0 .4-.127.484-.38l4.492-13.768c.021-.063.021-.105.021-.168 0-.317-.254-.506-.528-.506zm-4.469 12.713L207.2 235.2h5.145zm-1.918 4.555c-.275 0-.528.19-.528.526v.696c0 .359.253.55.528.55.252 0 .526-.191.526-.55v-.696a.52.52 0 0 0-.526-.526zm3.836 0a.52.52 0 0 0-.526.526v.696c0 .359.274.528.526.528.274 0 .528-.17.528-.528v-.696a.51.51 0 0 0-.528-.526" id="path11830" style="fill:#000;fill-opacity:1;fill-rule:nonzero;stroke:none;stroke-width:1.0625"/><path d="M223.204 230.54h-3.542a.536.536 0 0 0-.528.528v13.513c0 .275.233.528.528.528h3.542a3.847 3.847 0 0 0 3.858-3.859v-6.852a3.86 3.86 0 0 0-3.858-3.858zm2.825 10.71a2.824 2.824 0 0 1-2.825 2.825h-3.036v-12.502h3.036a2.825 2.825 0 0 1 2.825 2.825z" id="path11832" style="fill:#000;fill-opacity:1;fill-rule:nonzero;stroke:none;stroke-width:1.0625"/><path d="M237.795 244.076h-2.72V230.94c0-.359-.253-.528-.528-.528-.253 0-.505.17-.505.528v13.135h-2.72c-.359 0-.528.252-.528.506 0 .274.17.527.528.527h6.473c.359 0 .528-.253.528-.527 0-.254-.17-.506-.528-.506" id="path11834" style="fill:#000;fill-opacity:1;fill-rule:nonzero;stroke:none;stroke-width:1.0625"/><path d="M249.961 230.54h-6.873a.535.535 0 0 0-.527.528v13.513c0 .275.231.528.527.528h6.873c.359 0 .527-.253.527-.528 0-.252-.168-.506-.527-.506h-6.262v-5.46h4.407c.357 0 .526-.273.526-.547 0-.254-.169-.507-.526-.507h-4.512v-5.988h6.367c.359 0 .527-.253.527-.505 0-.275-.168-.528-.527-.528" id="path11836" style="fill:#000;fill-opacity:1;fill-rule:nonzero;stroke:none;stroke-width:1.0625"/><path d="m259.955 237.224 2.888-6.052a.564.564 0 0 0 .064-.252c0-.296-.274-.507-.549-.507-.167 0-.337.085-.443.296l-3.077 6.473h-2.762v-6.24c0-.36-.254-.529-.528-.529-.252 0-.506.168-.506.528v13.64c0 .275.232.528.506.528h3.69a3.86 3.86 0 0 0 3.86-3.858v-.21c0-1.92-1.309-3.501-3.143-3.817zm2.108 4.027a2.826 2.826 0 0 1-2.825 2.825h-3.162v-5.86h3.162c1.581 0 2.825 1.2 2.825 2.824z" id="path11838" style="fill:#000;fill-opacity:1;fill-rule:nonzero;stroke:none;stroke-width:1.0625"/></g><g id="g26794" style="stroke-width:1.0625"><path d="m133.677 223.803-3.205-13.535c-.127-.485-.527-.633-.822-.633-.275 0-.696.148-.801.633l-3.227 13.535c-.02.063-.02.106-.02.148 0 .316.274.506.547.506a.494.494 0 0 0 .506-.4l2.995-13.178 3.014 13.178c.063.274.275.4.506.4.254 0 .528-.19.528-.506 0-.042 0-.085-.021-.148" id="path11840" style="fill:#000;fill-opacity:1;fill-rule:nonzero;stroke:none;stroke-width:1.0625"/><path d="M145.758 209.762h-6.873a.535.535 0 0 0-.527.527v13.514c0 .274.231.528.527.528h6.873c.36 0 .527-.254.527-.528 0-.252-.168-.506-.527-.506h-6.262v-5.461h4.407c.358 0 .527-.273.527-.547 0-.253-.17-.506-.527-.506h-4.512v-5.988h6.367c.36 0 .527-.253.527-.506 0-.275-.168-.527-.527-.527" id="path11842" style="fill:#000;fill-opacity:1;fill-rule:nonzero;stroke:none;stroke-width:1.0625"/><path d="m155.753 216.445 2.888-6.051a.552.552 0 0 0 .063-.253c0-.295-.273-.506-.548-.506-.168 0-.337.084-.442.295l-3.079 6.474h-2.762v-6.241c0-.36-.252-.528-.527-.528-.253 0-.505.168-.505.528v13.64c0 .275.232.527.505.527h3.691a3.86 3.86 0 0 0 3.858-3.857v-.212c0-1.919-1.307-3.5-3.142-3.816zm2.109 4.027a2.826 2.826 0 0 1-2.825 2.825h-3.163v-5.86h3.163c1.58 0 2.825 1.2 2.825 2.824z" id="path11844" style="fill:#000;fill-opacity:1;fill-rule:nonzero;stroke:none;stroke-width:1.0625"/><path d="M171.27 209.635c-.166 0-.336.085-.442.295l-3.648 7.507-2.255-3.333v-3.942c0-.359-.254-.527-.528-.527-.253 0-.505.168-.505.527v13.768c0 .36.252.527.505.527.274 0 .528-.168.528-.527v-7.949l5.608 8.245c.126.168.274.23.422.23.274 0 .548-.23.548-.526a.464.464 0 0 0-.105-.295l-3.542-5.208 3.9-8.033a.552.552 0 0 0 .064-.252c0-.296-.275-.507-.55-.507" id="path11846" style="fill:#000;fill-opacity:1;fill-rule:nonzero;stroke:none;stroke-width:1.0625"/><path d="M183.985 209.762h-6.872a.536.536 0 0 0-.528.527v13.514c0 .274.232.528.528.528h6.872c.36 0 .528-.254.528-.528 0-.252-.169-.506-.528-.506h-6.26v-5.461h4.405c.359 0 .527-.273.527-.547 0-.253-.168-.506-.527-.506h-4.512v-5.988h6.367c.36 0 .528-.253.528-.506 0-.275-.169-.527-.528-.527" id="path11848" style="fill:#000;fill-opacity:1;fill-rule:nonzero;stroke:none;stroke-width:1.0625"/><path d="M196.68 209.635c-.253 0-.507.168-.507.527v6.62h-5.862v-6.62c0-.359-.253-.527-.506-.527-.274 0-.527.168-.527.527v13.768c0 .36.253.527.527.527.253 0 .506-.168.506-.527v-6.094h5.862v6.094c0 .36.254.527.507.527.272 0 .526-.168.526-.527v-13.768c0-.359-.254-.527-.526-.527" id="path11850" style="fill:#000;fill-opacity:1;fill-rule:nonzero;stroke:none;stroke-width:1.0625"/><path d="m207.875 216.445 2.888-6.051a.564.564 0 0 0 .064-.253c0-.295-.275-.506-.548-.506-.169 0-.338.084-.443.295l-3.077 6.474h-2.763v-6.241c0-.36-.254-.528-.528-.528-.252 0-.505.168-.505.528v13.64c0 .275.232.527.505.527h3.69a3.86 3.86 0 0 0 3.86-3.857v-.212c0-1.919-1.308-3.5-3.143-3.816zm2.109 4.027a2.826 2.826 0 0 1-2.826 2.825h-3.162v-5.86h3.162c1.581 0 2.826 1.2 2.826 2.824z" id="path11852" style="fill:#000;fill-opacity:1;fill-rule:nonzero;stroke:none;stroke-width:1.0625"/><path d="M219.493 209.635h-.21c-2.11 0-3.88 1.434-3.88 3.858 0 .359.254.528.528.528.273 0 .527-.17.527-.528 0-1.772 1.243-2.804 2.824-2.804h.211c1.645 0 2.909.949 2.909 2.593 0 4.26-6.767 3.016-6.767 7.57 0 2.172 1.666 3.605 3.647 3.605h.211c2.024 0 3.69-1.18 3.69-3.268 0-.338-.253-.505-.506-.505-.254 0-.528.167-.528.526 0 1.435-1.138 2.194-2.656 2.194h-.21c-1.392 0-2.615-.97-2.615-2.573 0-3.563 6.79-2.635 6.79-7.549 0-2.213-1.73-3.647-3.965-3.647" id="path11854" style="fill:#000;fill-opacity:1;fill-rule:nonzero;stroke:none;stroke-width:1.0625"/><path d="M233.81 214.843h-5.524c-.358 0-.527.274-.527.527s.169.527.527.527h5.524c.359 0 .528-.274.528-.527s-.17-.527-.528-.527" id="path11856" style="fill:#000;fill-opacity:1;fill-rule:nonzero;stroke:none;stroke-width:1.0625"/></g><g id="g26805" style="stroke-width:1.0625"><path d="M130.514 188.856h-.211a3.86 3.86 0 0 0-3.858 3.858v7.106a3.846 3.846 0 0 0 3.858 3.858h.211c2.066 0 3.858-1.54 3.858-3.562v-.043a.508.508 0 0 0-.527-.527c-.295 0-.506.21-.527.507a2.78 2.78 0 0 1-2.804 2.592h-.211a2.825 2.825 0 0 1-2.825-2.825v-7.106a2.826 2.826 0 0 1 2.825-2.825h.211a2.825 2.825 0 0 1 2.825 2.825v2.89h-2.572c-.695 0-.695 1.033 0 1.033h3.078a.517.517 0 0 0 .527-.507v-3.416a3.86 3.86 0 0 0-3.858-3.858" id="path11858" style="fill:#000;fill-opacity:1;fill-rule:nonzero;stroke:none;stroke-width:1.0625"/><path d="M147.066 188.983h-6.874a.535.535 0 0 0-.526.527v13.514c0 .274.23.528.526.528h6.874c.358 0 .527-.254.527-.528 0-.252-.168-.506-.527-.506h-6.262v-5.46h4.407c.357 0 .527-.273.527-.549 0-.252-.17-.505-.527-.505h-4.513v-5.988h6.368c.358 0 .527-.253.527-.505 0-.275-.168-.528-.527-.528" id="path11860" style="fill:#000;fill-opacity:1;fill-rule:nonzero;stroke:none;stroke-width:1.0625"/><path d="M155.268 188.856h-.21c-2.11 0-3.88 1.435-3.88 3.858 0 .359.253.528.527.528s.527-.17.527-.528c0-1.771 1.243-2.803 2.825-2.803h.211c1.644 0 2.91.948 2.91 2.593 0 4.259-6.768 3.015-6.768 7.569 0 2.172 1.666 3.605 3.647 3.605h.211c2.025 0 3.69-1.18 3.69-3.268 0-.337-.254-.505-.506-.505-.254 0-.527.168-.527.527 0 1.434-1.139 2.193-2.657 2.193h-.21c-1.392 0-2.615-.97-2.615-2.572 0-3.564 6.79-2.636 6.79-7.55 0-2.212-1.73-3.647-3.965-3.647" id="path11862" style="fill:#000;fill-opacity:1;fill-rule:nonzero;stroke:none;stroke-width:1.0625"/><path d="M171.63 188.983h-6.874a.536.536 0 0 0-.527.527v13.514c0 .274.233.528.527.528h6.874c.357 0 .528-.254.528-.528 0-.252-.17-.506-.528-.506h-6.262v-5.46h4.407c.357 0 .526-.273.526-.549 0-.252-.169-.505-.526-.505h-4.512v-5.988h6.367c.357 0 .528-.253.528-.505 0-.275-.17-.528-.528-.528" id="path11864" style="fill:#000;fill-opacity:1;fill-rule:nonzero;stroke:none;stroke-width:1.0625"/><path d="M183.226 188.983h-5.988a.55.55 0 0 0-.526.527v13.641c0 .36.252.527.526.527s.528-.168.528-.527v-13.135h5.46c.358 0 .527-.253.527-.506s-.169-.527-.527-.527" id="path11866" style="fill:#000;fill-opacity:1;fill-rule:nonzero;stroke:none;stroke-width:1.0625"/><path d="M194.19 188.983h-5.988a.55.55 0 0 0-.526.527v13.641c0 .36.253.527.526.527.275 0 .527-.168.527-.527v-13.135h5.462c.357 0 .528-.253.528-.506s-.17-.527-.528-.527" id="path11868" style="fill:#000;fill-opacity:1;fill-rule:nonzero;stroke:none;stroke-width:1.0625"/><path d="M201.972 188.856h-.212c-2.108 0-3.88 1.435-3.88 3.858 0 .359.254.528.528.528.273 0 .527-.17.527-.528 0-1.771 1.244-2.803 2.825-2.803h.212c1.644 0 2.908.948 2.908 2.593 0 4.259-6.766 3.015-6.766 7.569 0 2.172 1.665 3.605 3.646 3.605h.212c2.023 0 3.689-1.18 3.689-3.268 0-.337-.253-.505-.506-.505s-.527.168-.527.527c0 1.434-1.138 2.193-2.656 2.193h-.212c-1.392 0-2.613-.97-2.613-2.572 0-3.564 6.789-2.636 6.789-7.55 0-2.212-1.73-3.647-3.964-3.647" id="path11870" style="fill:#000;fill-opacity:1;fill-rule:nonzero;stroke:none;stroke-width:1.0625"/><path d="M214.643 188.856h-.21c-2.132 0-3.88 1.73-3.88 3.858v7.106c0 2.15 1.748 3.858 3.88 3.858h.21a3.828 3.828 0 0 0 3.816-3.31v-.063a.518.518 0 0 0-.506-.528.542.542 0 0 0-.527.443 2.8 2.8 0 0 1-2.783 2.425h-.21c-1.561 0-2.848-1.265-2.848-2.825v-7.106c0-1.56 1.287-2.825 2.848-2.825h.21a2.8 2.8 0 0 1 2.783 2.425.541.541 0 0 0 .527.442.517.517 0 0 0 .506-.527v-.063a3.83 3.83 0 0 0-3.816-3.31" id="path11872" style="fill:#000;fill-opacity:1;fill-rule:nonzero;stroke:none;stroke-width:1.0625"/><path d="M230.731 188.856c-.252 0-.506.168-.506.528v6.62h-5.861v-6.62c0-.36-.254-.528-.506-.528-.275 0-.527.168-.527.528v13.767c0 .36.253.527.527.527.252 0 .506-.168.506-.527v-6.094h5.86v6.094c0 .36.254.527.507.527.273 0 .527-.168.527-.527v-13.767c0-.36-.254-.528-.527-.528" id="path11874" style="fill:#000;fill-opacity:1;fill-rule:nonzero;stroke:none;stroke-width:1.0625"/><path d="M245.28 188.856c-.212 0-.4.105-.485.38l-1.118 3.373h-5.798l-1.054-3.374c-.085-.274-.274-.379-.485-.379-.274 0-.528.19-.528.507 0 .041 0 .104.021.168l4.47 13.767c.085.275.296.38.507.38.211 0 .4-.126.484-.38l4.492-13.767c.021-.064.021-.105.021-.168 0-.317-.254-.507-.527-.507zm-4.47 12.713-2.594-7.926h5.145z" id="path11876" style="fill:#000;fill-opacity:1;fill-rule:nonzero;stroke:none;stroke-width:1.0625"/><path d="M257.551 202.519h-6.367v-5.461h4.512c.358 0 .527-.254.527-.527 0-.274-.17-.527-.527-.527h-4.512v-6.62c0-.359-.253-.528-.506-.528s-.528.17-.528.527v13.642c0 .274.233.526.528.526h6.873c.358 0 .527-.252.527-.505 0-.254-.17-.527-.527-.527" id="path11878" style="fill:#000;fill-opacity:1;fill-rule:nonzero;stroke:none;stroke-width:1.0625"/><path d="M267.714 202.519h-2.719v-13.136c0-.358-.252-.527-.528-.527-.252 0-.505.17-.505.527v13.136h-2.72c-.359 0-.528.252-.528.506 0 .274.17.526.528.526h6.472c.358 0 .528-.252.528-.526 0-.254-.17-.506-.528-.506" id="path11880" style="fill:#000;fill-opacity:1;fill-rule:nonzero;stroke:none;stroke-width:1.0625"/></g></g></g></g></svg>