<svg version="1.0" width="800" height="320" viewBox="-0.904 -0.904 49.175 19.684" xmlns="http://www.w3.org/2000/svg"><path d="M-.91-.904H48.3V18.78H-.91z" fill="#fff" style="clip-rule:evenodd;fill-rule:evenodd;stroke-width:.0492093;stroke-linejoin:round;stroke-miterlimit:2"/><path d="m5.395 11.08-1.73 7.563h2.03l.804-3.57 1.802 3.57h2.382L8.48 14.75l3.667-3.672H9.54L6.71 14.151l.716-3.072zm6.964 0 .837 7.563h2.494l4.323-7.564h-2.17l-3.044 5.692-.435-5.692zm8.04 0 .825 7.563h2.532l4.306-7.564h-2.17l-3.045 5.692-.44-5.692z" style="fill:#000;fill-opacity:1;fill-rule:nonzero;stroke:none;stroke-width:.645222"/><path d="M24.885-.749C20.79 3.195 14.771 6.218 6.37 6.32l-.654 2.868h36.68l.716-2.869H18.966C23.87 4.657 26.67 1.92 29.747-.749zM42.061 10.3c-9.408.02-13.875 4.457-16.594 8.385h4.094c4.272-5.418 9.576-5.635 11.827-5.658z" style="fill:#cf113f;fill-opacity:1;fill-rule:nonzero;stroke:none;stroke-width:.0396886"/></svg>