<svg width="800" height="320" xmlns="http://www.w3.org/2000/svg"><path d="M0 0h800v320H0Z" fill="#fff" style="stroke-width:1.06667"/><path d="M445.67 7.957 252.908 63.511l-167.393 48.12v155.29h626.995V98.507L592.503 49.223 471.918.231c-.437 0-12.247 3.498-26.247 7.726zm20.415 56.576v27.85l-13.124 42.869c-7.144 23.476-13.123 44.328-13.123 46.223 0 3.354 0 3.354 13.123 2.624l13.124-.728-.291 28.287-.438 28.287-31.642.437-31.786.291v-51.472l13.123-41.41c7.29-22.746 13.124-42.578 13.124-44.035 0-2.625-.585-2.625-10.5-.73-17.35 3.355-15.747 5.833-15.747-23.912V53.305l31.058-8.312 32.08-8.311c.583-.145 1.019 12.395 1.019 27.85zm26.976-23.038 13.124 4.958.436 69.407c.292 53.805.73 69.698 2.187 70.137.875.29 6.854 1.02 13.124 1.458l11.227 1.02v52.202H479.21v-102.07l.436-102.069c.146 0 6.27 2.187 13.416 4.958zM387.345 148.813v92.007l-13.414-.436-13.562-.438-9.331-34.704c-5.103-18.955-9.915-34.558-10.5-34.558-.728 0-1.311 15.749-1.311 34.997v34.995h-27.705V77.51l6.27-1.603c3.354-.875 9.33-2.625 13.268-3.791 5.25-1.459 7.581-1.604 8.311-.438.438.875 4.668 14.144 9.332 29.455 4.667 15.456 9.042 28.578 9.624 29.307.729.875 1.312-13.268 1.312-32.225V64.68l13.562-3.646 13.852-3.937c.145 0 .291 41.266.291 91.717zm195.827-73.49 22.892 8.603v21.581c0 20.558-.145 21.58-2.77 20.706l-13.56-3.791-13.124-3.646c-2.332-.729-2.625.292-2.625 6.562v7.29l6.27 1.604c6.416 1.75 8.02 2.042 14.582 3.5l3.937.874v22.018c0 18.227-.291 21.873-2.041 21.29-1.168-.438-6.708-1.314-12.395-1.897l-10.353-1.02v14.581l5.542.874c2.916.437 10.207 1.314 16.038 1.896l10.5 1.02v43.307H546.28V61.325l7 2.772 29.892 11.227zm-284.773 27.996v21.725l-15.602 2.77-15.748 2.772-.438 7c-.436 6.269-.145 6.997 2.188 6.269 2.917-.875 19.248-3.791 21.144-3.791.584 0 1.166 9.478 1.166 20.996v20.997l-4.52.875c-2.48.437-7.145.875-10.061.875-9.04 0-10.206 1.02-10.206 8.311v6.562l16.04-1.02 16.039-1.168v44.181l-30.183-.29-30.33-.438V97.048l27.705-7.435 30.33-7.73c2.187-.143 2.478 1.751 2.478 21.437zm366.866 3.937c9.185 5.394 17.79 15.893 20.705 25.371 1.895 6.124 2.478 13.269 2.478 27.85 0 18.371-.29 20.268-4.082 28.434l-3.937 8.75 3.646 19.684c2.041 10.788 3.645 20.559 3.645 21.435 0 1.457-3.645 1.895-13.706 1.895h-13.706l-.875-4.812c-.438-2.479-1.604-10.79-2.48-18.227-1.604-12.539-1.895-13.415-5.103-13.415-3.354 0-3.354.292-3.791 17.79l-.438 17.935-13.414.438-13.56.436V89.32l19.246 7.292c10.646 3.937 22.018 8.75 25.372 10.644zm-442.688 63.428v69.99h-27.706v-132.25l13.56-3.647 13.852-3.937c.147 0 .293 31.35.293 69.846zm-39.953-54.39c-.436 2.333-3.354 16.33-6.562 31.204l-5.54 27.12 6.998 31.934 7.146 32.953c0 .73-6.27 1.167-13.852 1.167H156.96l-1.02-4.083c-.438-2.188-2.626-10.79-4.813-19.248-3.353-13.269-4.228-15.311-6.998-15.747-3.208-.438-3.208-.293-3.208 19.393v19.83l-13.415-.437-13.561-.438-.438-54.826-.291-54.825 13.415-3.646L140.193 123l.436 19.83c.146 10.937.875 20.267 1.459 20.851 2.77 2.771 4.958-2.771 9.04-22.893l4.812-22.017c1.75-.73 22.893-6.125 24.789-6.27 2.187-.145 2.478.584 1.895 3.791zM648.35 152.31v13.706l4.375.584c6.853 1.02 9.769-4.812 8.019-15.894-1.02-7.144-4.957-12.102-9.478-12.102-2.771 0-2.916 1.02-2.916 13.706z" fill="#3b3d42" style="stroke-width:1.04602"/><path d="M85.6 286.76h626.836v32.901H85.602Z" fill="#cb2e27" paint-order="stroke markers fill" style="stroke-width:1.04602"/><text xml:space="preserve" transform="scale(.95334 1.04894)" style="white-space:pre;stroke-width:1.04258" font-size="28.262" font-family="sans-serif" fill="#fff" x="99.388" y="-42.88"><tspan x="118.646" y="298.219" style="stroke-width:1.04258"><tspan font-weight="700" font-family="'Segoe UI'" style="stroke-width:1.04258">S T A D T M O B I L I A R</tspan></tspan></text></svg>