<svg xmlns="http://www.w3.org/2000/svg" viewBox="0 0 211.667 84.667" xmlns:v="https://vecta.io/nano"><path d="M0 0h211.667v84.667H0Z" fill="#fff"/><path d="M.07 13.537v35.684c.017.26.444 6.426 3.87 12.697 2.02 3.697 4.669 6.648 7.871 8.765 4 2.647 8.872 3.987 14.476 3.987 5.535 0 10.322-1.342 14.23-3.991 3.126-2.12 5.693-5.07 7.625-8.77 3.274-6.27 3.588-12.437 3.6-12.697V13.538zM26.751 42.78v30.803"/><path d="M25.667 46.936 7.437 14.622H1.155V28.8L25.667 71.7Z" fill="#e53534"/><path d="M25.667 44.729V14.623H8.683Zm-.177 28.848L1.154 30.985v18.183s1.632 23.88 24.336 24.409" fill="#ffd500"/><path d="M50.66 49.277v-6.498H26.75v30.803s20.918 1.484 23.91-24.305" fill="#0076bd"/><path d="M26.767 41.713h23.91V14.638h-23.91Z" fill="#c5c6c8"/><g transform="matrix(1.0087 0 0 1.0087 -.885 -24.389)"><use href="#A"/><use href="#A" x="4.973"/><use href="#A" x="9.947"/></g><path d="M39.51 29.769l-.02-2.83a1.906 1.906 0 0 1 1.904-1.905 1.9 1.9 0 0 1 1.9 1.904v2.83s-1.9.674-1.9 1.83c0 0-.198-1.264-1.884-1.83m-5.08 0l-.02-2.83a1.906 1.906 0 0 1 1.902-1.904 1.906 1.906 0 0 1 1.902 1.904v2.83s-1.902.674-1.902 1.83c0 0-.196-1.264-1.881-1.83m2.447-5.598l-.021-2.832a1.903 1.903 0 0 1 3.804 0v2.832s-1.902.676-1.902 1.83c0 0-.194-1.264-1.881-1.83m-4.182 20.548s.36-1.09 1.277-1.103c0 0 .408-.089.47.297s.148 2.59 2.021 5.219c0 0 .297-.049.386.187s.122.31.21.074.198-.978.694-.955.46.36.46.47.42 1.44 1.373 2.246 1.899 2.132 1.538 3.098-.792 1.029-1.09 1.191-.273.51.112.533.593-.023.928.21.473.698.608 1.217.471.93 1.364.682 1.128-.496 1.92.387c0 0 .585.791.201 1.98-.086.264-2.083 6.324-6.1 4.872 0 0-1.475.236-2.071-.979 0 0-.06-.099-.223-.112s-.471-.162-.644-.51-.385-.431-.57-.445-.732-.173-1.226-1.103c0 0-.236-.296-.57-.408 0 0-.547-1.006-.907-1.376s-.644-.633-.816-1.389-.82-1.414-.744-1.86-.198-.831-.211-.905-.236-.806-.112-1.214.075-.535.025-.806-.188-.72-.087-.882.023-.471-.114-.717-.284-1.166-.023-1.5.013-.459.013-.583-.273-.943.297-1.488c0 0-.049-1.908.372-2.12 0 0 .261-.222.31-.656s.013-1.019.93-1.55"/><g fill="#c5c6c8"><path d="M34.131 48.07s1.149 1.842 1.703 2.302c0 0 .238.225.263-.077l.048-.448s.036-.074-.065-.263-1.744-2.919-1.959-4.487c0 0-.09-.796-.221-.876s-.876.08-.72 1.37.952 2.479.952 2.479m-1.826-1.872s.211-.963.347-.296c.122.583.95 2.76 2.674 4.68 0 0 .179.173.107.353s-.05.35-.065.421-.008.215-.202.116c-.581-.297-3.043-3.426-2.862-5.274m-.657 2.261s-.05-1.47.311-.862.326 1.354 1.711 3.022l1.323 1.332c.074.116.053.167 0 .21s-.166.19-.172.247-.1.109-.18.074-1.884-1.465-2.314-2.283-.629-1.21-.68-1.738m-.08 1.425s-.44-.643-.29.522a8.483 8.483 0 0 0 1.507 2.266l1.03.886c.325.252.774.614.904.455s.407-.057.45-.261-.126-.382-.21-.493c-.407-.534-1.958-.94-3.391-3.375m.282 2.479s-.89-1.229-.65-.116 1.496 1.968 1.618 2.069 1.538 1.056 1.997 1.195.783.084.49-.271-.42-.504-.604-.588-2.304-1.462-2.852-2.29m.084 1.82s-.496-.503-.419-.03.718 1.297 1.19 1.621 1.726 1.151 2.927 1.381c0 0 .54.16.572-.038 0 0 .063-.122-.151-.173s-.409-.304-.44-.362-.167-.337-.427-.44-1.342-.61-1.846-.852-1.368-1.025-1.406-1.107m-.133 1.458s-.324-.186-.267.157.827 1.107 1.201 1.337 2.408 1.242 3.788 1.26c0 0 .755.051.478-.267s-.823-.356-.899-.393-1.871-.459-2.68-.936-1.043-.616-1.621-1.157m.285 1.692s-.465-.337-.267.172.42.566.622.756.93.395 1.078.453 1.348.336 2.569.358c0 0 .663.023.368-.217l-1.532-.254c-.38-.093-1.412-.527-1.808-.632-.307-.08-1.03-.635-1.03-.635"/><path d="M33.013 59.011c-.187-.147-.565-.271-.42.175s1.025.864 1.317.892 1.82.4 3.024.177 1.233-.381 1.227-.475-.089-.248-.68-.198a22.585 22.585 0 0 1-2.61-.05c-.317-.047-1.712-.407-1.858-.52m1.993 1.854s-.884-.204-.93-.089.178.343.713.504 2.813.311 4.136-.248c0 0 .502-.198.35-.345s-.516-.363-.72-.26-1.546.61-3.55.438m.688 1.164c-.196-.038-.702-.095-.44.211s1.241.49 2.373.28 1.51-.268 2.399-.63c0 0 .446-.32.612-.173s-.05.274-.09.305-.661.381-.954.591-1.147.305-1.311.35-1.025.115-1.292.172-.37.12-.167.26a2.068 2.068 0 0 0 .727.28c.191.032 1.622.039 2.685-.431 0 0 .827-.522.968-.39s-.204.42-.364.54-1.088.644-1.837.72-1.292.173-.955.337 1.214.109 1.477.057 1.125-.457 1.24-.26-.167.316-.375.407-.562.254-.02.304 1.884-.534 2.634-1.553 1.744-3.098 1.662-3.798-.179-.751-.32-.897a.847.847 0 0 0-.997-.21c-.541.21-1.179.273-1.496.1s-.682-.445-.808-1.272-.745-.79-.878-.781-.986.107-1.006-.612.375-.89.956-1.12.635-1.132.526-1.337-.324-.699-.864-1.22l-1.164-1.236c-.388-.414-.623-1.025-.682-1.203s-.274-1.017-.407-.388.05.663.167.924.418.802.273.897-.376-.044-.65-.42-.777-1.132-.802-.432.26.896.4 1.182.319.273.394.408.23.541-.185.4-.217-.229-.516-.484-.437-.278-.469-.432-.376-.273-.292.082-.059.33.19.77.267.343.452.56 1.025.758.821 1.025-.654-.286-.654-.286-.51-.409-.86-.522-.324.095-.268.28a1.34 1.34 0 0 0 .994.94c.739.19.788.32.757.44s-.663.154-.871.026-1.229-.554-.853.063.667.535.89.626.68-.039.674.298-.425.299-.504.305-.978-.025-.424.459c0 0 .446.223.814.126s.84-.198.871-.02-.139.44-.546.454-.667.229-.305.482.471.326.833.395.446.045.566.025.77-.081.471.35-1.399.222-.941.584.642.384.953.396.262-.02.471-.122.585-.432.667.04c0 0-.031.312-.699.471s-.186.368-.097.419.204.248 1.037.153c0 0 .358-.046.732-.217s.421-.006.337.146-.61.383-.616.571.198.314.688.217.52-.217.66-.311.363-.142.312.088-.59.676-1.03.727-.777-.076-.853-.167-.312-.324-.763-.105a8.535 8.535 0 0 1-1.953.61s-1.56.278-2.106.171"/></g><path d="M67.855 35.276h8.635v2.04H65.554V20.285h2.301zm18.266-4.294q-.12.095-.309.19-.19.095-.569.19l-.996.189q-.593.095-1.566.214-.379.047-.854.166-.451.095-.855.309-.403.214-.687.593-.262.356-.262.95 0 1.02.522 1.589.545.569 1.732.569.735 0 1.423-.214.688-.237 1.21-.616.545-.404.877-.925.332-.546.332-1.162zm-7.639-2.3q.024-1.115.403-1.898.38-.783 1.044-1.281.664-.499 1.59-.712.95-.237 2.088-.237.237 0 .665.047.45.024.972.142.522.12 1.044.356.522.214.95.617.426.379.687.949.285.569.285 1.352v7.141q0 .735.688.735.142 0 .309-.024.19-.024.379-.071v1.518l-.522.142q-.26.095-.616.095-.688 0-1.115-.167-.426-.166-.663-.426-.214-.262-.309-.593-.095-.357-.119-.713-.309.332-.712.688-.38.356-.925.664-.546.285-1.257.474-.688.19-1.59.19-.854 0-1.565-.261-.712-.262-1.234-.736-.521-.474-.807-1.114-.284-.664-.284-1.471 0-.38.095-.973.119-.616.498-1.209.38-.593 1.114-1.067.76-.474 2.064-.64l3.44-.427q.19-.025.38-.072.189-.072.355-.214.167-.166.262-.427.094-.284.094-.76 0-2.015-2.918-2.015-.902 0-1.447.237-.522.237-.83.616-.285.356-.404.783-.119.403-.166.76zm22.656 8.634H99.05v-7.638q0-1.613-.57-2.42-.568-.83-2.087-.83-.451 0-1.02.166-.57.167-1.067.64-.499.452-.855 1.258-.332.807-.332 2.063v6.762h-2.088V24.91h1.97v1.755h.047q.166-.237.474-.593.309-.38.76-.712.473-.332 1.09-.57.617-.236 1.424-.236.712 0 1.47.19.784.166 1.424.64.64.474 1.044 1.328.404.83.404 2.159z"/><use href="#B" transform="matrix(1.0087 0 0 1.0087 -.885 -24.389)"/><path d="M127.85 37.316h-2.68l-3.867-6.263-1.732 1.565v4.698h-2.017V20.284h2.017v9.868l5.337-5.242h2.657l-4.745 4.626zm4.151 0h-2.088V24.909h1.969v2.063h.048q.616-1.091 1.447-1.755.854-.663 2.04-.663.19 0 .31.024.118 0 .236.047v2.159h-.782q-.736 0-1.329.261-.569.261-.996.735-.404.451-.641 1.068-.214.593-.214 1.257z"/><g transform="matrix(1.0087 0 0 1.0087 -.885 -24.389)"><use href="#C"/><use href="#D"/></g><path d="M161.582 28.444q0-.284-.094-.64-.095-.38-.404-.688-.309-.332-.877-.546-.57-.214-1.566-.214-.237 0-.664.072-.403.047-.807.237-.403.166-.712.521-.284.356-.284.925 0 .38.119.64.142.238.403.428.262.166.688.308.427.142 1.044.285l2.088.521q1.945.474 2.705 1.257.782.76.782 2.016 0 .973-.379 1.732-.38.76-1.044 1.281-.64.522-1.542.807-.902.285-1.945.285-1.234 0-2.111-.214-.855-.214-1.448-.569-.569-.38-.925-.83-.356-.451-.545-.925-.167-.498-.237-.95-.048-.473-.072-.854h2.016q.025.356.12.807.118.451.45.83.332.38.973.641.64.261 1.755.261.569 0 1.067-.119.522-.119.902-.356.403-.237.64-.593.237-.38.237-.902 0-.735-.569-1.091-.568-.356-1.897-.688l-2.42-.593q-1.304-.332-2.088-1.02-.783-.712-.783-1.992 0-1.02.38-1.755.403-.76 1.044-1.234.664-.498 1.495-.735.854-.237 1.779-.237 1.66 0 2.61.521.949.522 1.423 1.21.474.663.593 1.304.119.616.119.854zM78.364 63.197H65.79V46.164H78.2v2.04H68.092v5.22h9.323v2.04h-9.323v5.694h10.272zm.878-12.407h1.969v1.755h.047q.166-.237.45-.593.31-.38.76-.712.451-.332 1.068-.569.64-.237 1.47-.237t1.4.237q.57.214.95.522.379.308.593.663l.356.593q.38-.426.76-.807.379-.379.806-.64.427-.261.973-.404.545-.166 1.257-.166.498 0 1.162.166.664.167 1.256.617.594.45.997 1.28.427.808.427 2.112v8.587h-2.088v-8.018q0-1.281-.499-2.064-.474-.807-1.802-.807-.665 0-1.21.285-.521.284-.901.76-.38.45-.594 1.066-.213.594-.213 1.21v7.567h-2.088v-8.587q0-.38-.095-.783-.072-.426-.309-.76-.214-.331-.593-.545-.38-.214-.95-.214-.45 0-1.019.167-.569.166-1.067.64-.499.451-.855 1.257-.331.807-.331 2.064v6.761H79.24zm19.88 0h1.968v1.755h.048q.166-.237.45-.593.31-.38.76-.712.45-.332 1.067-.569.64-.237 1.47-.237.831 0 1.401.237.569.214.95.522.378.308.592.663l.356.593q.38-.426.76-.807.38-.379.807-.64.427-.261.972-.404.546-.166 1.257-.166.498 0 1.162.166.664.167 1.257.617.593.45.997 1.28.426.808.426 2.112v8.587h-2.088v-8.018q0-1.281-.498-2.064-.474-.807-1.803-.807-.663 0-1.209.285-.521.284-.902.76-.38.45-.593 1.066-.214.594-.214 1.21v7.567h-2.088v-8.587q0-.38-.095-.783-.071-.426-.308-.76-.214-.331-.593-.545-.38-.214-.95-.214-.45 0-1.02.167-.568.166-1.067.64-.498.451-.854 1.257-.332.807-.332 2.064v6.761H99.12zm28.419 5.22q-.048-.713-.238-1.377-.19-.688-.593-1.186-.403-.521-1.044-.83-.64-.309-1.59-.309-.712 0-1.351.309-.616.309-1.091.83-.451.498-.736 1.186-.261.664-.261 1.376zm1.992 3.297q-.024.213-.167.64-.119.404-.379.902-.261.474-.665.972-.403.499-.996.878-.214.142-.499.309-.26.142-.664.26-.38.12-.925.19-.546.095-1.281.095-1.305 0-2.349-.45-1.02-.475-1.732-1.305t-1.091-1.969q-.38-1.139-.38-2.49 0-1.448.357-2.705.356-1.257 1.067-2.183.735-.949 1.85-1.47 1.139-.546 2.68-.546 1.353 0 2.348.522.997.498 1.66 1.447.664.95.997 2.3.332 1.33.332 2.967h-9.062q0 1.944.902 3.013.901 1.067 2.704 1.067.735 0 1.304-.237.593-.262.997-.64.427-.38.64-.784.237-.426.262-.782z"/><g transform="matrix(1.0087 0 0 1.0087 -.885 -24.389)"><use href="#E"/><use href="#B" x="40.144" y="25.658"/><use href="#D" x="8.325" y="25.658"/><use href="#E" x="31.043"/></g><path d="M185.946 62.177q0 .451-.024 1.068-.025.64-.19 1.328-.166.712-.522 1.4-.331.688-.972 1.21-.64.545-1.637.877-.997.356-2.42.356-.546 0-1.304-.119-.76-.119-1.47-.498-.713-.38-1.282-1.115-.546-.735-.688-1.969h2.088q.142.736.522 1.14.379.403.83.568.45.19.854.214.404.047.593.047 1.305 0 2.017-.45.712-.427 1.044-1.092.332-.64.403-1.376.072-.712.072-1.28v-.689q-.451.76-1.281 1.257-.807.498-2.064.498-1.59 0-2.633-.663-1.044-.664-1.684-1.685-.617-1.02-.878-2.23-.261-1.234-.261-2.349 0-1.304.332-2.42.356-1.138 1.02-1.968.663-.855 1.612-1.329.973-.474 2.206-.474.855 0 1.471.237.616.237 1.044.569.451.332.736.712.308.38.498.664V50.79h1.969zm-8.73-5.219q0 1.02.19 1.898.213.877.615 1.518.427.64 1.044 1.02.64.356 1.495.356.499 0 1.092-.19.593-.19 1.091-.664.522-.474.855-1.28.356-.808.356-2.041 0-.76-.095-1.66-.095-.926-.451-1.733-.332-.807-.997-1.328-.663-.546-1.802-.546-1.21 0-1.898.499-.664.498-1.02 1.233-.331.712-.403 1.518-.072.807-.072 1.4z"/><g transform="matrix(1.0087 0 0 1.0087 -.885 -24.389)"><use href="#C" x="51.362" y="25.657"/><use href="#E" x="69.33"/></g><defs><path id="A" d="M32.443 56.631a1.887 1.887 0 0 1 3.772 0v4.264h-3.751z"/><path id="B" d="M105.305 54.987q0 1.011.188 1.881.212.87.611 1.505.423.635 1.035 1.011.635.353 1.482.353.494 0 1.082-.188.588-.188 1.082-.658.517-.47.847-1.27.353-.8.353-2.023 0-.753-.094-1.646-.094-.917-.447-1.717-.329-.8-.988-1.317-.658-.541-1.787-.541-1.199 0-1.881.494-.659.494-1.011 1.223-.329.706-.4 1.505-.071.8-.071 1.388zm8.772 6.185h-1.952v-1.693h-.047q-.329.635-.753 1.035-.423.376-.894.611-.447.235-.941.306-.47.094-.917.094-1.576 0-2.61-.658-1.035-.658-1.67-1.67-.611-1.011-.87-2.211-.259-1.223-.259-2.328 0-1.293.329-2.399.353-1.129 1.011-1.952.658-.847 1.599-1.317.964-.47 2.187-.47.847 0 1.435.235.611.212 1.035.541.447.329.729.706.282.353.47.611h.047v-6.326h2.07z"/><path id="C" d="M145.285 54.047q-.047-.706-.235-1.364-.188-.682-.588-1.176-.4-.517-1.035-.823-.635-.306-1.576-.306-.706 0-1.341.306-.611.306-1.082.823-.447.494-.729 1.176-.259.658-.259 1.364zm1.975 3.269q-.024.212-.165.635-.118.4-.376.894-.259.47-.658.964-.4.494-.988.87-.212.141-.494.306-.259.141-.658.259-.376.118-.917.188-.541.094-1.27.094-1.293 0-2.328-.447-1.011-.47-1.717-1.293-.706-.823-1.082-1.952-.376-1.129-.376-2.469 0-1.435.353-2.681t1.058-2.164q.729-.941 1.834-1.458 1.129-.541 2.658-.541 1.34 0 2.328.517.988.494 1.646 1.435.659.941.988 2.281.329 1.317.329 2.94h-8.984q0 1.928.894 2.987.894 1.058 2.681 1.058.729 0 1.293-.235.588-.259.988-.635.423-.376.635-.776.235-.423.259-.776z"/><path id="D" d="M149.236 46.638v-2.352h2.07v2.352zm2.07 14.534h-2.07v-12.3h2.07z"/><path id="E" d="M141.287 86.83h-2.07v-7.573q0-1.599-.564-2.399-.564-.823-2.07-.823-.447 0-1.011.165-.564.165-1.058.635-.494.447-.847 1.246-.329.8-.329 2.046v6.703h-2.07v-12.3h1.952v1.74h.047q.165-.235.47-.588.306-.376.753-.706.47-.329 1.082-.564.611-.235 1.411-.235.706 0 1.458.188.776.165 1.411.635t1.035 1.317q.4.823.4 2.14z"/></defs></svg>