<svg xmlns="http://www.w3.org/2000/svg" viewBox="0 0 800 320" xmlns:v="https://vecta.io/nano"><path d="M0 0h800v320H0Z" fill="#fff" image-rendering="optimizeQuality" shape-rendering="geometricPrecision"/><path d="M98.207 26.906h5.337c22.032 53.506 1.342 105.547-16.1 157.027-18.69 53.607-18.69 53.607-23.037 109.816H59.07c-9.628-16.677-6.348-36.6-2.404-54.717l.941-4.388c4.153-18.72 9.86-36.99 15.458-55.316 11.382-37.004 11.382-37.004 15.136-75.371v-3.805c-.147-8.104-1.64-14.7-4.225-22.435-4.149-14.897 3.939-27.418 10.86-40.315 1.634-3.468 2.567-6.756 3.371-10.496zM60.85 98.064h3.557c10.461 28.593 3.85 58.066-3.398 86.627l-.937 3.697-.953 3.76-1.939 7.65-.97 3.83c-5.594 22.25-8.665 44.03-9.592 66.995-3.558 0-3.558 0-7.29-3.543-4.248-6.717-4.392-12.127-4.162-19.82l.067-4.244c.46-15.87 3.176-31.308 6.048-46.887 6.295-30.69 6.295-30.69 3.447-61.485-1.746-6.632-1.887-8.848.11-15.232 2.528-3.943 5.038-7.551 7.895-11.23l2.2-2.964c1.874-2.462 3.886-4.818 5.916-7.154zm-40.917 44.474c8.686 7.107 9.474 17.917 10.674 28.463.229 6.374.208 12.74.174 19.117l-.008 5.45-.055 17.128-.024 11.657-.087 28.48c-9.203-4.488-9.203-4.488-12.453-8.894-1.174-5.233-1.174-5.233-1.89-11.675l-.421-3.518c-.77-6.552-1.402-13.115-2.004-19.685-1.742-18.37-4.987-33.916-13.474-50.512l3.829-3.051 4.954-3.954 4.941-3.94c3.013-2.432 3.013-2.432 5.844-5.066zm215.254 3.558h12.453l12.453 37.358 11.118-28.686 1.807-5.017 1.306-3.655h10.674v53.369h-7.116l-1.779-32.022-10.674 32.022h-8.894l-10.674-30.243-1.779 30.243h-8.895v-53.37zm7.116 12.453l1.779 5.336zm138.759-12.453h10.673l1.115 3.238 5 14.44 1.755 5.097 1.685 4.847 1.553 4.489c1.058 3.42 1.058 3.42 3.124 5.247l12.453-37.358h10.674v53.369h-7.116l-1.78-30.243-10.673 30.243h-8.895l-10.674-32.022-1.778 32.022h-7.116v-53.37zm110.295 0c23.126 0 23.126 0 29.02 3.78 3.488 5.944 4.033 9.01 3.001 15.788l-3.558 5.337h-3.558l2.446 3.225c4.11 8.061 5.126 16.349 6.45 25.239h-8.896l-.792-4.156-1.209-5.406-1.126-5.379-2.21-4.628-10.673-3.558v23.127h-8.895v-53.37zm8.895 7.116v16.01c5.188.297 5.188.297 10.674 0 4.15-3.364 4.15-3.364 3.891-9.006.257-5.027.257-5.027-2.113-7.004a346.9 346.9 0 0 0-12.452 0zm-350.455-7.116c23.127 0 23.127 0 32.021 7.116 1.296 8.909-.072 14.109-5.336 21.347l3.558 3.558c1.125 5.017 1.125 5.017 2 10.896l.904 5.907.653 4.545h-8.894l-3.558-21.348-12.453-1.779v23.127h-8.895v-53.37zm8.895 7.116v16.01c5.113.594 5.113.594 10.674 0 3.82-2.771 3.82-2.771 5.337-7.116-1.263-4.863-1.263-4.863-3.558-8.894h-12.453zm284.633-7.116h8.895l1.779 44.474c8.255 1.953 8.255 1.953 14.232 1.779l1.779-46.253h8.894l.334 19.79.135 5.643c.173 18.146.173 18.146-5.806 26.157-5.11 2.812-10.207 3.429-16.01 3.558-5.893-1.929-9.304-3.232-12.716-8.477-1.867-4.898-1.92-8.772-1.863-14.01l.034-5.768.09-5.99.05-6.074.173-14.83zm218.812 0c23.126 0 23.126 0 30.242 5.337 1.78 6.004 1.78 6.004 1.78 12.452-3.448 5.226-3.448 5.226-7.117 8.895l2.558 3.336c3.812 7.624 4.084 14.927 4.558 23.349h-7.116l-.73-4.156c-1.626-10.074-1.626-10.074-7.734-17.505-3.797-1.107-3.797-1.107-9.325-1.466v23.127h-7.116v-53.37zm7.116 7.116v16.01c8.52.417 8.52.417 16.01-3.558.593-5.411.593-5.411 0-10.673-1.748-2.145-1.748-2.145-5.066-1.953l-10.944.174zm-133.423-7.116h23.127c8.895 8.895 8.895 8.895 8.895 17.79-3.447 5.114-3.447 5.114-7.116 8.894l2.558 3.336c3.812 7.624 4.084 14.927 4.558 23.349h-7.116l-.73-4.156c-1.626-10.074-1.626-10.074-7.734-17.505-3.797-1.107-3.797-1.107-9.325-1.466v23.127h-7.116v-53.37zm7.117 7.116v16.01c8.52.417 8.52.417 16.01-3.558.594-5.411.594-5.411 0-10.673-1.748-2.145-1.748-2.145-5.065-1.953l-10.945.174zm74.716-7.116h8.895l1.779 17.79 2.8-3.892 3.76-5.003 3.69-5.004c3.981-3.891 3.981-3.891 8.908-4.447l3.968.556-9.965 14.947-2.932 4.399-2.808 4.211-2.084 3.127 4.28 5.386 5.504 6.956 2.828 3.554c6.956 8.808 6.956 8.808 6.956 10.789-3.912.611-3.912.611-8.895 0-4.37-4.281-4.37-4.281-8.56-9.785l-4.26-5.503-3.19-4.28-1.78 19.568h-8.894v-53.37zm-423.392 0h26.685v7.116h-17.79v14.231h17.79v7.116h-17.79v17.79h19.568v7.116h-28.463v-53.37zm133.422 0v7.116h-19.569c-.519 4.984-.519 4.984 1.78 10.673 4.358 3.195 8.825 5.693 13.613 8.193 4.176 2.481 4.176 2.481 7.734 7.818 1.077 7.079.633 9.783-3.558 15.677-8.075 5.888-15.174 6.311-24.905 4.892l-3.558-1v-8.895l21.347 1.779v-10.674c-3.66-3.727-3.66-3.727-8.561-6.449-6.171-3.793-10.808-6.824-14.565-13.12-.112-5.336-.112-5.336 1.779-10.673 8.934-8.083 17.164-9.103 28.463-5.337zm460.194-1.001l4.357.55 3.315.45v7.117H775.99c.805 8.757.805 8.757 5.72 12.3l4.843 3.043c5.726 3.642 8.75 5.622 12.564 11.341 1.077 7.079.633 9.783-3.558 15.677-8.075 5.888-15.175 6.311-24.906 4.892l-3.558-1v-8.895l3.315.451 4.357.55 4.315.562c4.323.478 4.323.478 9.36-1.563 1.494-4.873 1.494-4.873 0-10.674-4.307-3.324-8.745-5.82-13.55-8.367-4.239-2.307-4.239-2.307-7.797-5.865-.787-7.082-1.18-10.907 3.225-16.677 6.123-4.55 10.257-4.845 17.567-3.892zm-81.277 1.001h26.685v7.116h-19.568v14.231h17.79v7.116h-17.79v17.79h19.568v7.116h-26.684v-53.37zm40.917 0h7.116v53.369h-7.116v-53.37zm-167.222 30.242h24.905v7.116h-24.905v-7.116zm-238.38 0h24.905v7.116h-24.905v-7.116z" fill="#141414"/></svg>