<svg version="1.0" preserveAspectRatio="xMidYMid" width="800" height="320" xmlns="http://www.w3.org/2000/svg"><path d="M0 0h800v320H0Z" fill="#fff" style="display:inline;fill:#fff;stroke-width:.8"/><path d="M598.37 160.712v100.88l100.384-.297 100.385-.198V60.327l-100.385-.198-100.385-.297Zm63.197-58.352 11.67 11.374 12.067-11.473 12.066-11.473 2.175 1.78c1.187 1.089 6.825 6.231 12.462 11.572l10.187 9.692 9.593-9.395c5.242-5.143 10.682-10.286 12.264-11.473l2.67-2.176 13.154 12.56c7.121 6.924 13.154 12.858 13.253 13.254.1.296-1.088 2.176-2.571 4.055l-2.868 3.362-10.583-10.088-10.483-10.186-3.66 2.967c-1.978 1.582-7.22 6.527-11.571 10.879-4.352 4.45-8.506 8.01-9.297 8.01-.692 0-5.637-4.153-10.88-9.197-5.241-5.044-10.483-9.99-11.67-10.978-2.077-1.78-2.175-1.681-14.241 9.692l-12.165 11.473-9.99-9.693c-5.439-5.34-10.879-10.483-12.164-11.571l-2.275-1.88-10.286 10.287-10.286 10.285-2.175-1.879c-4.945-4.55-4.945-4.648 9.197-18.297 7.22-7.022 13.451-12.758 13.946-12.857.395 0 6.033 5.143 12.461 11.374zm11.473 43.517c4.747.989 12.66 4.351 24.725 10.384 21.56 10.682 28.286 12.66 38.67 11.176 8.803-1.286 20.276-6.725 25.616-12.165 2.176-2.176 4.352-3.956 4.945-3.956 1.385.1 6.429 4.649 6.429 5.835 0 .495-2.77 3.165-6.132 6.033-13.648 11.473-29.077 16.022-44.901 13.352-6.33-1.088-10.978-2.967-24.627-9.791-21.363-10.78-26.308-12.462-36.198-12.462s-18.692 2.77-27.297 8.506l-6.626 4.45-2.967-3.066-3.066-3.066 3.956-3.56c6.33-5.538 16.615-10.187 27.692-12.56 4.352-.89 13.253-.495 19.78.89zm.989 29.67c3.264.791 14.637 5.736 25.22 10.88 20.373 9.79 27.297 11.966 35.308 10.878 11.67-1.582 20.67-5.241 28.088-11.373l4.55-3.857 3.362 3.461c1.879 1.978 2.868 3.66 2.275 4.154-12.957 11.374-26.605 16.912-42.034 17.011-10.187 0-15.33-1.681-36-11.967-22.45-11.176-29.077-12.857-40.945-10.582-8.506 1.68-16.22 5.142-22.154 9.89l-3.857 2.967-2.868-2.77c-1.583-1.483-2.869-3.263-2.869-3.758 0-1.582 9.495-8.406 15.33-11.077 11.374-5.242 25.22-6.725 36.594-3.857zm4.055 30.66c4.055 1.384 13.45 5.538 20.868 9.296 7.517 3.66 16.121 7.517 19.286 8.407 14.242 4.055 35.604.099 45.99-8.703l2.966-2.473 3.264 3.363c3.264 3.362 3.264 3.461 1.385 5.044-10.88 8.703-22.352 12.956-37.78 13.945-11.375.692-20.078-1.681-37.781-10.286-18-8.802-23.935-11.077-31.055-11.77-11.374-1.087-26.605 3.858-34.418 11.276l-2.77 2.571-2.967-2.868c-1.582-1.583-2.967-3.363-2.967-4.055 0-1.484 7.715-7.22 13.847-10.286 12.857-6.626 28.879-7.912 42.132-3.461z" style="fill:#096;fill-opacity:1;stroke-width:.0989016"/><path d="m126.41 107.305.198 38.077h7.912v-27.198c0-14.934.297-27.198.792-27.099.395 0 6.923 6.725 14.538 14.835 7.616 8.11 19.682 20.869 26.901 28.286l13.055 13.649.1-37.88v-37.78h-8.902v26.703c0 14.638-.297 26.704-.692 26.605-.495 0-11.275-11.176-24.033-24.726-12.759-13.549-24.825-26.208-26.704-28.088l-3.461-3.362zM71.718 76.942c-1.583 3.66-5.242 11.67-8.11 17.901-2.868 6.132-5.242 11.374-5.242 11.473 0 .198-1.78 4.055-3.857 8.604-8.506 18.1-13.945 29.77-13.945 30.067 0 .197 2.275.395 4.945.395 2.77 0 4.945-.395 4.945-.89s1.78-4.747 3.956-9.396l3.956-8.505h33.726l4.351 9.395 4.352 9.396h4.45c2.473 0 4.55-.198 4.55-.395 0-.198-7.319-16.121-16.22-35.506S77.06 73.38 76.663 72.294c-.297-1.187-.89-2.077-1.286-2.077-.395 0-1.978 3.066-3.66 6.725zm10.286 26.803c3.263 7.615 6.033 14.044 6.033 14.34 0 .297-5.737.594-12.858.594-7.022 0-12.857-.198-12.857-.495 0-1.384 12.264-28.187 12.956-28.187.297 0 3.363 6.231 6.726 13.748zm447.826-32.44c-9.89 1.483-16.516 8.9-16.516 18.494 0 8.605 4.945 13.451 20.077 19.979 10.78 4.549 14.538 9.593 13.154 17.208-2.77 14.638-24.627 15.231-27.792.693-.395-1.978-1.088-2.77-2.275-2.572-.89.198-2.868.594-4.351.99l-2.77.494 1.979 5.143c3.659 9.593 10.879 14.538 21.066 14.637 13.45 0 22.648-9 22.747-22.154 0-6.725-1.88-11.571-6.132-15.23-2.967-2.671-11.67-7.22-17.11-9-9.297-3.067-12.461-10.781-6.923-17.012 4.648-5.242 15.725-5.044 19.484.396 1.186 1.78 1.681 1.879 4.45.692 3.956-1.681 4.352-2.472 2.374-5.44-3.758-5.736-12.363-8.604-21.462-7.318zM.014 108.789v36.593h32.44l.593-2.374c1.286-5.044.297-5.44-12.066-5.736l-11.571-.297-.198-28.681c-.099-15.824-.198-30.363-.198-32.44l-.099-3.66h-8.9Zm212.639 0v36.593h9.198c17.208 0 28.088-3.066 36-10.187 13.55-12.264 14.637-36.89 2.274-50.538-8.208-8.902-18.89-12.462-37.78-12.462h-9.692zm25.813-27.1c12.56 2.869 20.176 11.176 21.363 23.341 1.187 12.956-3.857 23.143-13.846 27.89-5.242 2.473-14.935 4.55-21.165 4.55h-3.264V80.107h5.044c2.67 0 8.01.692 11.868 1.582zm50.34 27.1v36.593h8.902v-15.626c0-13.945.198-15.924 1.78-17.308 1.682-1.583 2.572-.791 15.627 15.626l13.747 17.308h5.736c3.066 0 5.638-.297 5.638-.593 0-.297-4.55-5.934-10.088-12.56-5.539-6.627-12.264-14.737-15.033-18-2.67-3.265-5.539-6.627-6.231-7.517-1.187-1.385.692-3.56 15.23-18.1l16.517-16.417h-11.868l-15.132 15.33c-8.406 8.406-15.33 15.33-15.527 15.33-.198 0-.396-6.924-.396-15.33v-15.33h-8.901zm68.935-.297.198 36.396 3.956.296 3.956.297.297-15.626c.297-13.55.495-15.627 1.88-15.924 1.186-.197 5.043 4.55 12.659 15.528l11.077 15.923h4.846c2.769 0 4.945-.297 4.945-.593 0-.297-4.747-7.022-10.484-14.934-5.736-8.011-10.681-15.033-10.879-15.627-.297-.692.791-1.483 2.67-1.879 15.231-2.967 18.792-26.901 5.44-36-4.253-2.868-10.484-4.055-21.363-4.154h-9.395zm25.418-25.517c3.758 2.374 5.539 5.736 5.539 10.484 0 8.11-5.143 12.362-15.924 13.154l-6.824.494V79.81l6.923.594c4.45.395 8.21 1.285 10.286 2.571zm37.187 25.814v36.593h38.572v-7.912h-29.572l-.297-13.945c-.197-7.616-.098-14.143.1-14.34.197-.199 6.824-.396 14.637-.396h14.143v-7.913h-28.583l-.297-9.989c-.197-5.44-.098-10.187.1-10.384.197-.198 7.021-.396 15.131-.396h14.638v-7.912h-38.572zm60.33 0v36.593h8.901V72.195h-8.9zm-122.044 90.593c-5.935 12.957-13.649 29.77-17.11 37.385-3.462 7.517-6.231 13.846-6.231 14.044 0 .198 1.978.396 4.45.396h4.45l4.155-8.901 4.055-8.901h33.923l4.055 8.9 4.055 8.902h4.55c2.472 0 4.549-.198 4.549-.396 0-.395-5.934-13.351-19.78-43.615a7761.144 7761.144 0 0 0-11.077-24.132l-3.264-7.32zm17.802 11.572 6.033 14.044-12.857.297c-7.022.099-12.957.099-13.154-.1-.198-.197 1.78-5.241 4.45-11.175 2.67-5.934 5.539-12.56 6.429-14.638.89-2.175 1.879-3.56 2.275-3.164.395.395 3.461 7.022 6.824 14.736zm-84.165-32.638c-10.286 2.67-20.374 11.275-24.924 21.165-12.758 27.693 10.978 58.352 40.946 52.814 3.56-.693 7.813-1.88 9.395-2.67 2.473-1.286 2.77-1.979 2.77-6.231v-4.748l-6.132 3.066c-19.78 9.792-41.836-4.252-41.737-26.604.099-16.121 13.352-30.165 28.583-30.165 5.241 0 13.351 2.373 16.615 4.945l2.473 1.978.395-5.044.297-5.143-4.45-1.88c-5.54-2.472-17.506-3.164-24.231-1.483zm132.824.495-3.758.297v72.099h33.627v-7.912h-25.22l.296-31.847c.198-17.406-.098-32.044-.494-32.34-.396-.297-2.473-.495-4.45-.297zm82.287.395c0 .693-1.88 5.935-4.055 11.67-2.176 5.737-6.528 16.913-9.495 24.924-3.066 8.11-5.835 14.638-6.132 14.638-.297 0-5.044-11.572-10.483-25.715l-9.89-25.714h-4.847c-3.362 0-4.648.395-4.253 1.186 9.495 23.836 28.286 71.012 28.78 72.495.594 1.583 1.188.693 3.067-4.45 5.835-16.022 17.802-46.484 18.395-46.484.594 0 4.352 9.495 14.836 37.286 2.967 7.813 5.538 14.143 5.835 14.143.396 0 25.912-63.1 29.275-72.495.593-1.582.099-1.78-4.154-1.484l-4.747.297-2.077 5.44a3063.718 3063.718 0 0 0-9.99 25.417c-4.252 11.077-8.01 20.078-8.307 20.078-.297 0-4.945-11.77-10.385-26.21-8.9-23.538-11.373-28.879-11.373-25.022z" style="fill:#004b95;fill-opacity:1;stroke-width:.0989016"/></svg>