<svg width="801.193" height="320" xmlns="http://www.w3.org/2000/svg"><path d="M1.193 0h800v320h-800z" fill="#fff"/><path d="M515.196 161.175c0 8.69-2.172 15.443-6.517 20.263-4.346 4.819-10.497 7.23-18.456 7.23-8.056 0-14.244-2.394-18.565-7.174-4.32-4.785-6.48-11.58-6.48-20.39 0-8.811 2.172-15.578 6.518-20.3 4.345-4.72 10.544-7.083 18.602-7.083 7.934 0 14.067 2.398 18.4 7.192 4.333 4.795 6.498 11.549 6.498 20.262zm-132.85 12.997c0 4.454-1.636 7.983-4.91 10.587-3.274 2.605-7.625 3.906-13.053 3.906-6.522 0-11.525-.717-15.005-2.154v-3.724c3.845 1.63 8.75 2.446 14.713 2.446 4.382 0 7.857-1.004 10.424-3.01 2.567-2.01 3.852-4.643 3.852-7.905 0-2.02-.425-3.692-1.278-5.018-.853-1.327-2.24-2.539-4.162-3.634-1.923-1.095-4.746-2.275-8.47-3.54-5.452-1.875-9.219-3.9-11.3-6.08-2.081-2.178-3.12-5.081-3.12-8.708 0-3.99 1.562-7.245 4.69-9.766 3.128-2.517 7.15-3.778 12.067-3.778 5.013 0 9.724.95 14.13 2.849l-1.351 3.213c-4.43-1.85-8.665-2.775-12.706-2.775-3.943 0-7.084.913-9.42 2.738-2.335 1.824-3.505 4.308-3.505 7.448 0 1.971.36 3.591 1.077 4.857.718 1.266 1.893 2.405 3.523 3.413 1.631 1.01 4.43 2.221 8.398 3.633 4.162 1.437 7.29 2.83 9.384 4.18 2.093 1.353 3.62 2.886 4.582 4.6.96 1.715 1.44 3.789 1.44 6.222zM0 187.937V134.56h3.724v49.872H29.17v3.505zm255.533-53.377c6.58.009 11.447 1.233 14.598 3.669 3.164 2.448 4.746 6.128 4.746 11.045 0 3.578-.943 6.595-2.829 9.054-1.885 2.459-4.751 4.223-8.598 5.294l14.495 24.315h-4.455l-13.763-23.255h-13.254v23.253h-3.724V134.56zm169.47 32.055v21.322h-8.725V134.56h15.079c6.888 0 11.986 1.29 15.297 3.87 3.312 2.58 4.966 6.475 4.966 11.682 0 6.644-3.456 11.38-10.369 14.203l15.08 23.622H446.4l-12.779-21.322zm-241.706-5.878c0 8.956-2.348 15.73-7.046 20.318-4.698 4.587-11.598 6.88-20.7 6.88h-12.78V134.56h14.422c8.519 0 14.999 2.227 19.44 6.681 4.442 4.454 6.664 10.952 6.664 19.496zm585.688 27.198V134.56h8.725v45.891h22.598v7.484zm-436.81 0V134.56h3.724v53.375zm410.253 0V134.56h8.725v53.375zm-424.207 0H289.05V134.56h29.171v3.432h-25.447v20.19h24.023v3.432h-24.023v22.89h25.447zm408.933 0H696.96V134.56h30.193v7.375h-21.468v14.53h20.117v7.303h-20.117v16.758h21.468zm-55.4 0h-9.492l-9.055-31.836c-.39-1.387-.876-3.388-1.46-6.005s-.936-4.436-1.059-5.458c-.244 1.558-.639 3.578-1.187 6.06-.549 2.482-1.004 4.333-1.37 5.55l-8.835 31.69h-9.492l-6.9-26.726-7.011-26.652h8.908l7.63 31.106c1.193 4.99 2.044 9.395 2.557 13.217.267-2.069.67-4.381 1.205-6.936.536-2.554 1.022-4.625 1.46-6.206l8.69-31.18h8.652l8.908 31.326c.853 2.897 1.752 7.23 2.702 12.998.365-3.48 1.241-7.91 2.63-13.29l7.594-31.033h8.836zm-438.431 0h-4.563l-20.482-28.185-7.12 6.28v21.905h-3.724V134.56h3.725v27.747l5.914-5.914 20.92-21.833h4.746l-21.87 22.563zm-111.04-6.06h.218a250.69 250.69 0 0 1-.329-12.486v-34.83h3.614v53.376h-3.758L90.41 140.547h-.292c.292 5.647.438 9.905.438 12.778v34.61h-3.578V134.56h3.724zm426.555 6.06h-8.727v-45.891h-15.698v-7.484h40.123v7.484h-15.698zm46.052 0h-8.727v-45.891h-15.699v-7.484h40.124v7.484H594.89ZM65.942 169.097H44.255l-7.448 18.838h-4.125l21.468-53.594h2.373l21.029 53.594h-4.198Zm113.302-8.214c0-7.643-1.94-13.391-5.823-17.251-3.883-3.856-9.583-5.786-17.105-5.786h-9.821v46.805h8.835c15.942 0 23.914-7.922 23.914-23.768zm295.206.292c0 6.57 1.327 11.555 3.98 14.948 2.652 3.397 6.583 5.094 11.792 5.094 5.184 0 9.097-1.679 11.737-5.038 2.64-3.36 3.961-8.36 3.961-15.006 0-6.548-1.308-11.513-3.925-14.896-2.617-3.382-6.518-5.075-11.702-5.075-5.232 0-9.183 1.691-11.848 5.075-2.665 3.385-3.995 8.35-3.995 14.898zm-428.844 4.564h19.095l-7.266-19.24c-.608-1.51-1.338-3.602-2.19-6.28a58.3 58.3 0 0 1-2.153 6.352zm200.866-4.272h10.187c4.502 0 7.995-1.003 10.479-3.013 2.483-2.006 3.724-4.97 3.724-8.888 0-4.065-1.218-7.022-3.651-8.871-2.434-1.85-6.402-2.776-11.903-2.776h-8.836zm178.53-2.082h6.06c4.064 0 7.01-.754 8.835-2.262 1.825-1.508 2.738-3.748 2.738-6.717 0-3.018-.986-5.184-2.957-6.498-1.97-1.314-4.94-1.97-8.908-1.97h-5.768z" style="stroke-width:1.78026"/></svg>