<svg id="Ebene_1" data-name="Ebene 1" version="1.1" width="600" height="240" xmlns="http://www.w3.org/2000/svg"><defs id="defs1"><style id="style1">.cls-1{fill:#000;stroke-width:0}</style></defs><path d="M0 0h600v240H0Z" fill="#fff" style="fill:#fff;stroke-width:.6" id="path1-0"/><g id="g19" transform="matrix(2.9875 0 0 2.9875 -38.954 -123.418)"><path class="cls-1" d="M90.92 86.55v.94h-8.31V72.27h1.11v14.28z" id="path1"/><path class="cls-1" d="M106.44 87.49h-.85c-.1 0-.18-.03-.25-.08a.567.567 0 0 1-.15-.21l-1.79-4.42h-7.47l-1.79 4.42c-.03.08-.08.15-.15.2-.07.06-.16.09-.26.09h-.84l6.23-15.22h1.09zm-3.37-5.53-3.1-7.69c-.11-.25-.21-.55-.31-.9-.04.17-.09.33-.14.49-.05.15-.1.3-.16.42l-3.1 7.68z" id="path2"/><path class="cls-1" d="M120.42 72.27v15.22h-.52c-.09 0-.17-.02-.23-.05a.563.563 0 0 1-.18-.17l-9.88-13.2c.02.21.03.42.03.61v12.81h-.97V72.27h.55c.1 0 .18.01.23.04.05.03.11.08.18.17l9.86 13.17c-.02-.22-.03-.42-.03-.61V72.28h.96z" id="path3"/><path class="cls-1" d="M136.89 79.87c0 1.18-.18 2.23-.53 3.17-.35.94-.85 1.74-1.48 2.4-.64.66-1.4 1.17-2.3 1.52-.9.35-1.88.53-2.95.53h-5.56V72.27h5.56c1.07 0 2.06.18 2.95.53.89.35 1.66.86 2.3 1.52.64.66 1.13 1.46 1.48 2.4.35.94.53 1.99.53 3.16zm-1.14 0c0-1.06-.15-2.01-.44-2.84-.29-.83-.71-1.53-1.25-2.11a5.33 5.33 0 0 0-1.94-1.31c-.75-.3-1.58-.45-2.49-.45h-4.45v13.43h4.45c.91 0 1.74-.15 2.49-.45.75-.3 1.4-.74 1.94-1.31.54-.57.95-1.28 1.25-2.11.29-.83.44-1.78.44-2.85z" id="path4"/><path class="cls-1" d="M141.28 79.29h.9c.14 0 .25 0 .35-.02a1.008 1.008 0 0 0 .5-.18c.07-.05.14-.12.22-.2l6.14-6.31a1 1 0 0 1 .32-.25c.11-.05.23-.06.37-.06h.88l-6.65 6.83c-.14.14-.26.25-.36.33-.11.08-.22.14-.35.19.15.04.29.11.41.2.12.09.24.21.37.35l7 7.31h-.89c-.19 0-.32-.02-.4-.07a.96.96 0 0 1-.24-.22l-6.43-6.58c-.08-.08-.15-.15-.22-.2a.678.678 0 0 0-.23-.14 1.1 1.1 0 0 0-.29-.09c-.11-.02-.25-.03-.42-.03h-.98v7.33h-1.11V72.26h1.11v7.02z" id="path5"/><path class="cls-1" d="M164.32 87.49h-.95c-.12 0-.22-.02-.31-.06a.593.593 0 0 1-.23-.22l-4.88-6.17c-.06-.08-.12-.15-.18-.2a.625.625 0 0 0-.2-.13c-.08-.03-.17-.06-.27-.07-.1-.01-.23-.02-.38-.02h-1.99v6.88h-1.11V72.28h3.89c1.75 0 3.06.34 3.93 1.02.87.68 1.31 1.67 1.31 2.98 0 .58-.1 1.11-.3 1.59-.2.48-.49.9-.87 1.26s-.83.66-1.37.89c-.53.23-1.13.38-1.8.46.17.11.33.25.46.43l5.24 6.58zm-6.75-7.7c.67 0 1.28-.08 1.81-.24.53-.16.99-.39 1.35-.69.37-.3.65-.66.84-1.09.19-.43.29-.9.29-1.43 0-1.08-.35-1.89-1.06-2.41-.71-.52-1.74-.79-3.09-.79h-2.79v6.65h2.63z" id="path6"/><path class="cls-1" d="m176.02 86.57-.02.91h-9.12V72.26H176v.91h-8.01v6.15h6.67v.89h-6.67v6.34h8.03z" id="path7"/><path class="cls-1" d="M180.46 87.49h-1.11V72.27h1.11z" id="path8"/><path class="cls-1" d="M192.34 74.12c-.06.12-.16.18-.28.18-.09 0-.21-.07-.36-.2s-.35-.28-.6-.44c-.25-.16-.56-.31-.94-.45-.38-.14-.84-.2-1.39-.2-.55 0-1.04.08-1.46.24-.42.16-.77.37-1.05.65-.28.27-.5.59-.65.95-.15.36-.22.73-.22 1.13 0 .52.11.94.33 1.28.22.34.51.62.87.86s.77.44 1.22.6c.46.16.92.32 1.4.48.48.16.95.33 1.4.52.46.19.86.43 1.22.72s.65.64.87 1.06c.22.42.33.94.33 1.56 0 .62-.11 1.24-.33 1.8-.22.56-.54 1.05-.95 1.47-.42.42-.92.74-1.53.98-.6.24-1.29.36-2.07.36-1 0-1.87-.18-2.59-.53-.72-.35-1.36-.84-1.9-1.46l.3-.47c.08-.11.19-.16.3-.16.06 0 .15.04.25.13s.22.19.37.32.32.26.52.41c.2.15.43.28.7.41.26.13.57.23.91.32.34.09.74.13 1.17.13.6 0 1.14-.09 1.61-.27.47-.18.87-.43 1.2-.75.33-.32.58-.69.75-1.12.17-.43.26-.9.26-1.39 0-.54-.11-.98-.33-1.33-.22-.35-.51-.64-.87-.87-.36-.23-.77-.43-1.22-.59-.45-.16-.92-.31-1.4-.46-.48-.15-.95-.32-1.4-.51-.46-.19-.86-.42-1.22-.72-.36-.29-.65-.65-.87-1.09-.22-.43-.33-.98-.33-1.63 0-.51.1-1 .29-1.47.19-.47.48-.89.85-1.25s.83-.65 1.38-.87c.55-.22 1.17-.33 1.88-.33.79 0 1.5.13 2.12.38.63.25 1.2.63 1.71 1.15l-.26.49z" id="path9"/><path class="cls-1" d="M94.69 113.29H91.4c-.61 0-1.05-.23-1.31-.69l-2.6-4.55a1.27 1.27 0 0 0-.41-.42c-.15-.09-.37-.13-.65-.13h-.92v5.8h-3.63V97.63h5.1c1.13 0 2.1.12 2.9.35.8.23 1.45.56 1.96.97.51.41.87.91 1.1 1.47.23.57.34 1.18.34 1.85 0 .51-.07.99-.2 1.44-.14.45-.34.87-.6 1.25-.26.38-.59.73-.98 1.03-.39.3-.84.55-1.35.74.24.12.46.27.67.46.21.19.39.4.56.65l3.33 5.45zm-7.72-8.3c.49 0 .92-.06 1.26-.19.34-.13.63-.3.86-.52.22-.22.38-.48.48-.78.1-.3.15-.62.15-.96 0-.69-.22-1.23-.67-1.61-.45-.39-1.14-.58-2.08-.58h-1.46V105h1.46z" id="path10"/><path class="cls-1" d="M99.67 100.42v3.66h4.93v2.69h-4.93v3.73h6.43v2.8H96.01V97.63h10.09v2.8h-6.43z" id="path11"/><path class="cls-1" d="M114.88 110.42c.49 0 .92-.08 1.31-.24.38-.16.71-.39.97-.69.27-.3.47-.67.61-1.1.14-.43.21-.93.21-1.48v-9.28h3.63v9.28c0 .96-.16 1.84-.47 2.65a5.96 5.96 0 0 1-1.34 2.08c-.58.58-1.29 1.03-2.12 1.36-.83.33-1.77.48-2.81.48s-1.99-.16-2.82-.48c-.83-.32-1.54-.77-2.12-1.36a5.847 5.847 0 0 1-1.33-2.08c-.31-.8-.46-1.68-.46-2.65v-9.28h3.63v9.27c0 .55.07 1.04.21 1.48.14.43.34.8.61 1.11.26.31.59.54.97.7.38.16.82.24 1.31.24z" id="path12"/><path class="cls-1" d="M135.71 100.58h-4.41v12.71h-3.63v-12.71h-4.41v-2.96h12.45z" id="path13"/><path class="cls-1" d="M146.99 110.39v2.9h-9.44V97.62h3.63v12.76h5.81z" id="path14"/><path class="cls-1" d="M152.49 113.29h-3.66V97.62h3.66z" id="path15"/><path class="cls-1" d="M169.2 97.63v15.67h-1.89c-.28 0-.51-.04-.7-.13a1.69 1.69 0 0 1-.56-.47l-7.39-9.34c.03.28.05.55.06.81.01.26.02.51.02.74v8.4h-3.21V97.64h1.91c.16 0 .29 0 .4.02.11.01.2.04.29.08.09.04.17.1.25.17.08.07.17.17.27.29l7.45 9.41c-.04-.3-.06-.59-.08-.88-.01-.28-.02-.55-.02-.8v-8.29h3.2z" id="path16"/><path class="cls-1" d="M179.7 105.18h5.57v6.61c-.8.59-1.66 1.01-2.56 1.28-.91.27-1.86.4-2.84.4-1.29 0-2.46-.2-3.52-.61s-1.96-.96-2.72-1.68a7.377 7.377 0 0 1-1.74-2.54c-.41-.98-.61-2.04-.61-3.19s.19-2.24.58-3.22c.39-.98.94-1.82 1.66-2.53.72-.71 1.59-1.26 2.61-1.66 1.02-.39 2.16-.59 3.42-.59.65 0 1.26.05 1.84.16.57.11 1.1.25 1.59.44.48.19.93.41 1.33.67.4.26.76.54 1.08.84l-1.05 1.6c-.17.25-.38.4-.64.46s-.54 0-.84-.19c-.29-.17-.56-.32-.81-.45a4.37 4.37 0 0 0-.78-.31c-.26-.08-.54-.14-.84-.17-.29-.04-.62-.05-.99-.05-.68 0-1.29.12-1.84.36s-1.01.58-1.39 1.02c-.38.44-.68.96-.89 1.58-.21.61-.31 1.3-.31 2.05 0 .83.12 1.57.34 2.22.23.65.55 1.19.97 1.63.42.44.92.78 1.51 1.02.58.23 1.23.35 1.94.35.44 0 .83-.04 1.19-.13.35-.09.7-.2 1.04-.34v-2.38h-1.55c-.23 0-.41-.06-.54-.18a.604.604 0 0 1-.19-.46v-2z" id="path17"/><path class="cls-1" d="M191.37 100.42v3.66h4.93v2.69h-4.93v3.73h6.43v2.8h-10.09V97.63h10.09v2.8h-6.43z" id="path18"/><path class="cls-1" d="M213.72 97.63v15.67h-1.89c-.28 0-.51-.04-.7-.13a1.69 1.69 0 0 1-.56-.47l-7.39-9.34c.03.28.05.55.06.81.01.26.02.51.02.74v8.4h-3.21V97.64h1.91c.16 0 .29 0 .4.02.11.01.2.04.29.08.09.04.17.1.25.17.08.07.17.17.27.29l7.45 9.41c-.04-.3-.06-.59-.08-.88-.01-.28-.02-.55-.02-.8v-8.29h3.2z" id="path19"/></g><g id="g21" transform="matrix(2.9875 0 0 2.9875 -38.954 -123.418)"><path d="M51.76 92.36c10.62-10.62 10.62-27.83 0-38.45L32.54 73.13l19.22 19.22Z" id="path20" style="fill:#009650;stroke-width:0"/><path id="polygon20" style="fill:#fff028;stroke-width:0" d="M13.06 50.82v35.01l35.01-35.01z"/><path id="polygon21" style="fill:#a0c81e;stroke-width:0" d="M13.06 113.3h52.86L29.16 76.52l-16.1 16.09z"/></g></svg>