<svg xmlns="http://www.w3.org/2000/svg" viewBox="-153 -46 800.008 320" xmlns:v="https://vecta.io/nano"><path d="M-153-46h800v320h-800Z" fill="#fff"/><path d="M41.301 110.319h14.393v51.844H41.301zm46.246 0h14.393v51.844H87.548zM26.241 91.794h89.427v11.995H26.24zm89.427-7.064L71.02 55.277 26.241 84.73zm-228.298 19.991c-4.531-2-9.33-2.932-14.394-3.065-4.797 0-11.06 2.133-11.06 9.729 0 12.261 30.92 7.064 30.92 30.653 0 15.46-12.262 21.324-26.389 21.324-7.596 0-11.061-.933-17.992-2.665l1.333-12.66c4.931 2.664 10.396 4.263 15.992 4.397 5.332 0 12.529-2.665 12.529-9.063 0-13.461-30.92-7.863-30.92-31.186 0-15.727 12.262-21.457 24.656-21.457 6.13 0 11.728.8 16.926 2.532zm29.32-1.732h-20.125V91.927h54.509v11.062h-20.258v59.307h-14.127zm42.248-11.062h14.127v40.65c0 11.994 3.865 19.857 14.66 19.857s14.66-7.863 14.66-19.858V91.927h14.127v44.913c0 18.792-10.662 26.655-28.787 26.655-17.992 0-28.787-7.73-28.787-26.655zm222.3 13.594c-5.73-2.4-11.86-3.732-18.124-3.732-16.393 0-25.456 11.062-25.456 25.456 0 14.26 8.93 25.055 23.856 25.055 3.866 0 6.797-.4 9.33-.932v-18.392h-14.927v-11.062h28.387v37.85c-7.464 1.999-15.193 3.598-22.79 3.598-22.79 0-38.65-11.328-38.65-35.185 0-24.123 14.66-37.583 38.65-37.583 8.13 0 14.66 1.065 20.658 2.931zm38.65-13.594h15.993l27.588 70.369h-15.593l-5.997-16.126h-28.521l-6.13 16.126h-14.66zm7.73 13.994h-.267l-10.129 29.054h20.525zm46.512-13.994h15.194c15.193 0 33.185-.533 33.185 19.059.133 8.396-6.13 15.46-14.527 16.392v.134c3.865.266 6.13 4.132 7.464 7.197l11.328 27.455h-15.727l-8.53-21.99c-1.999-5.199-3.865-7.198-9.728-7.198h-4.531v29.32H274.13zm14.128 29.987h4.664c6.93 0 14.927-.933 14.927-9.729 0-8.53-7.863-9.196-14.927-9.196h-4.664zm61.439-19.059h-20.258V91.66h54.642v11.195h-20.258v59.573h-14.127zm240.693 23.99h-.134zm56.508-40.782c.4-.8-.4-1.466-.667-2-.932-1.065-2-1.599-2.932-2.531-.8 0-.932-.667-1.466-.667v.133c.534.4 1.2.933 1.866 1.333.267.667.8.667.933 1.199.133.4.4.932 0 1.333-.134-.134-.534 0-.534-.267-.8 0-1.199-.267-1.999 0-.4.267-.667 1.066-.533 1.599 0 .667.8.8.533 1.6 0 .133-.267.266-.267.4-.4.266-1.065.133-1.599.133-.133-.4-.667-.267-1.066-.267-.133-.134.134 0 0-.134-1.199-.266-2.399-.8-3.732-1.199l.134-.133c-.8 0-1.6-.4-2.4-.667a22.753 22.753 0 0 0-4.264 0c-.8.133-1.6.4-2.133.933-1.332 1.332-2.266 2.931-3.065 4.53-.4 0-.133.667-.667.534.267-.8 1.066-1.6 1.066-2.665.134-.667-.133-1.466-.533-1.733-.8-.666-1.333-1.599-2.133-2.266-.667-.266-1.332-.8-2-1.199h.134a.405.405 0 0 0-.533 0c0 .4.533.134.533.534.134 0 .267.133.4.133.8.8 1.466 1.466 2.133 2.266-.133.133.133.4.133.533.134.933-.133 1.733-.8 2.266-.667.667-1.332 1.066-2 1.6-2.132 2.531-.932 5.863 0 8.663.801 2.399 2.134 4.797 2 7.197-.267 1.466 0 3.065-1.066 4.397-.533 0-.533.534-.932.534l.133.133c-.266.133-.932 0-.932.4h-2.665c-.8-.4-1.2-.533-2-.8h.134c-1.333-.8-2.4-1.866-3.599-2.798-.666-.534-1.332-1.2-1.999-1.6l-.533-.133c-.933-.4-1.733-1.466-2.932-1.6l-1.333-.133c-1.466-.133-3.065-.8-4.53-.932-.4-.267-.933-.134-1.2-.267h.133c-.266-.267-.8-.133-1.199-.267h.134c-.267-.133-.667-.133-1.066-.266-.8-.134-.933-.667-1.866-.667-1.066-.534-2.266-.8-3.199-1.2v-.133c-.266-.133-.533 0-.8-.266-.533 0-.932-.534-1.332-.534l.133-.133c-.932-.267-1.866-.933-2.532-1.466l-.4-.267c-.133-.133-.666 0-.533-.4-.533-.267-.8-.667-1.333-.8v-.267c-.8-.667-1.732-1.066-2.266-1.866-.133-.8.134-2 .667-2.531.534-.4.933-.933 1.466-1.066.8-.134 1.2-.534 2.133-.667l.4-.133c.133-.4-.4-.134-.267-.534-.667-.4-1.332-.533-2-.8l-.666-.267c0-.133-.267-.266-.133-.4s.533-.133.8 0c.666.4 1.466.667 2.266.667.932-.267 1.866 0 2.798-.4.534.267 1.466.267 2.133.133.267-.133-.134-.267-.134-.4l-1.199-.8c-.667-.533-1.599-.267-2.266-.533-.266-.134-.667-.134-1.066-.267 0-.133-.666-.534-.932-.667.133-.267-.4-.133-.267-.533.133-.134.534-.134.667 0 .4.266 1.2.266 1.733.533.533-.267 1.332 0 1.599-.533 1.466-.134 3.198.133 4.53-.134.134-.4-.533-.533-.666-.8-.267 0-.667 0-.8-.133-.533-.134-.933-.4-1.333-.534h.134c-1.2 0-2.133-.533-3.332-.4-.267-.133-.8-.667-1.2-.932 0-.133-.133-.267.134-.267.534 0 1.2 0 1.6-.133l.133-.134c.8-.133 1.6 0 2.266-.266-.267-.134-.534-.4-.8-.534v-.133c-.8 0-1.333-.4-2-.4 0-.4-.8-.134-.8-.667.267-.4 1.2-.133 1.866-.133 0 0-.266 0 0 0 1.066.266 1.866.133 2.799-.267.133-.267.666-.134.666-.4 1.466-.267 2.799.8 4.265.133h-.134l.534-.133c.133-.267 0-.267 0-.534-1.2 0-2.4-1.332-3.465-.932-.933-.533-2.133-.133-3.199-.4 0-.267-.8-.134-1.2-.4l.134-.134c-.533 0-.932-.4-1.332-.8 1.066-.133 2.132.134 3.332 0l2.665-.8c1.332 0 2.531 0 3.865-.133-.133-.267.4-.134.533-.267-.133-.133.267-.133.134-.4-.534-.133-1.2-.4-1.6-.533-.666-.134-1.065-.667-1.599-.534-1.332 0-2.798.267-4.132.134-.8-.267-1.732-.8-2.4-1.333.268-.267.534-.533.801-.667.133-.533-.667-.266-.8-.8 1.066-.267 2-.4 3.065-.8 0-.267.667-.267.533-.533.933-.267 2.133 0 2.932-.267.8 0 1.2-.267 1.733-.8 0-.8-1.066-.4-1.6-.667-1.199-.667-2.531-.933-3.731-.8-.933.4-2.133.267-3.332.133-.4-.4-1.066-.133-1.466-.666.133-.267.533-.4.533-.534.933-.533 2-.667 2.799-1.066 0 0-.4-.266-.134-.266-.666-.267-1.199-.267-1.866-.534-.932-.133-2.132 0-3.198-.133l-.8-.267c0-.267.4 0 .533-.267h-.133c.667-.133 1.332-.133 2.133-.266 1.332-.4 2.399-1.333 3.598-1.466.8.4 1.466-.134 2.133-.134.133-.266.533-.533.533-.8h-1.332c-.134-.4-.933-.133-1.2-.4h.134c-.267-.266-.933 0-.933-.4l-1.466-.133h.134c-2.665-.534-5.198-.134-7.73-.134 0-.266.4-.4.4-.533.8-.533 1.733-.667 2.665-.933l.8-.133-.133-.133.534-.134c.133-.133.266-.533.4-.8h-.267c-.133.134-.133.134-.133.267-.667-.133-1.333-.267-2-.267-.133-.4-.8-.133-.932-.533-1.466-.267-3.065 0-4.398 0 .8-.667 2-.8 2.665-1.6-1.332.134-2.932 0-4.53-.133 0-.133.133-.133.133-.133-.4 0-.8-.134-1.2.133-.133 1.6-.666 2.799-.8 4.398.267 0 .4.133.534.133-.134 0 0 0-.134.134.534 0 .534.533.933.533l2 1.733c.666.932 1.465 1.866 2.132 2.798a17.392 17.392 0 0 1 2.133 4.132c1.732 4.132 1.199 9.329.4 14.128-.534 3.198-1.6 6.397-2.4 9.595-.133 0-.266.133-.4.133.134-.533-.533-.533-.4-.932-.8-.8 0-1.866.134-2.798 1.332-4.665 2.931-10.13 2.266-14.927-.134-.4 0-.8 0-1.066-.534-2.266-.933-4.264-2.133-6.13-.667-1.6-2-2.665-2.799-3.999-.666-.4-1.065-.932-1.599-1.599-.667 0-.8-.8-1.466-.8h.134c-.534-.267-1.2-.667-1.733-.933 0-.266.4-.133.534-.133.8-.133.666-1.066 1.065-1.6.134-1.999.8-4.264.8-5.996-.666 1.466-1.065 3.332-2.531 4.264-.4.667-.933.667-1.333 1.066-.4.133-.533.4-.932.667-.534.4-.4 1.466-1.066 1.332-.4-.4.133-1.332.133-1.732.267-.8 1.2-.667 1.866-1.2l.667-.266c.133-.134.133-.134.267-.4l-1.466-.134h.133a7.26 7.26 0 0 0-2.399 0c0 .134-.133.134-.133.134-.933.533-1.066 1.732-1.2 2.531-.8.134-1.466.534-2.266.933-.533 0-.8.533-1.332.533l-.8.267h.133c-1.066.533-2.133.932-3.198 1.466l-.8.267-.667.266c-.667.267-1.333.534-1.733.933l-.667.133c-.666.4-1.599.933-2.132 1.333-.933.533-1.866.667-2.932.932-.534-.133-.667.534-1.2.667-.133.267-.533.667-.666.932-1.2 1.333 0 2.932-.533 4.265 0 .533.8.266.932.533 1.333.267 2.532 0 3.732.267h-.133 1.199c.4.133.133.4.266.667-1.199.533-2.132 1.066-3.198 1.466h.133l-1.199.4c-.133.4.534.266.4.666.4.134.267.267.8.534h-.133c.133.133.4.133.667.267h-.134c.134.133.534 0 .534.4.8.4 1.732.133 2.665 0 0-.267.267-.134.4-.267.4-.134.533-.534.932-.667l1.866-1.2c1.066-.4 2.4-.532 3.599-.8.533.4 1.2 1.067 1.733 1.467.8 0 .932.4 1.732.266.933-.133 2.133-.4 3.065-.932.534-.133.8-.8 1.333-.8.667-.4.8-1.333 1.6-1.466.266.4-.134.8-.401 1.066-.267.4-.8.8-1.066 1.332-.667.534-1.066.8-1.6 1.2-.666 0-.932.533-1.598.533h.133c-.533.133-1.066 0-1.466.267-.533 0-.8.133-1.066.533-.932 1.066-2.266 2-3.065 3.065-2.532 2.665-4.132 5.997-6.13 9.196-.267.4-.8.8-1.333 1.199-.533.666-1.066 1.199-1.599 1.999-.667.667-.932 1.6-1.332 2.532-.534-.4-1.066-.933-1.733-1.333h.133c-.4-.266-.667-.4-.932-.667l-.534-.266c-.533 0-.266-.4-.8-.534-1.199-1.332-2.266-2.665-3.332-3.998-.133-.8-.533-1.333-.8-2.133-.133 0-.4-.4-.4-.533-.533-.134-.4-.534-.932-.534-1.333.667-3.065 0-4.132 1.333-.267.8-.8 1.466-1.2 2.4-.8 1.198-2.265 2.265-2.931 3.464-.8.534-.933.933-1.6 1.466s-1.199 1.066-1.865 1.6c-1.2.666-1.333 2.265-1.6 3.198.134.8.267 1.2.4 2 .4 1.465-.533 2.664-1.332 3.731-.667.4-1.466.8-2.266.8.133 0 0 .134 0 .134.667 0 1.199 0 1.732.266.134.267.267.667.267.933-.267.8-.267 2.133-.533 3.065l.266.133-.133.134c1.066.266 2.266 0 3.198 0 .134-.267.8-.134.933-.267.533-.267 1.066-.4 1.733-.667 0-.266.666-.266.666-.533.933-.667.8-2.133.933-3.199l-3.332-.133c.133-.267-.133-.533 0-.8a58.495 58.495 0 0 1 2.532-.8c.133-.667.133-1.333.666-1.733.267-.667 1.066-.932 1.733-1.466.667-.133-.133-.8 0-1.199-.267-.267-.267-.667-.533-.932-.534-.4-.8-.8-1.333-1.066 0-.4.4-.667.534-.933 1.599-1.466 3.198-2.798 4.53-4.264.134-.134.267-.134.4-.134.534-.133.4.267.8.534.534.8 1.333 1.466 1.733 2.133.667 1.065 1.466 1.866 1.6 2.931.8 1.333.666 2.532 1.065 3.866.134.266.267.4.4.666.667.4 1.6.933 2.4 1.2.8-.134.932.533 1.6.4 0-1.2-.401-2.532 0-3.999a13.877 13.877 0 0 1 .666-1.6c.133-.133.267 0 .533.134-.533 1.733-.133 3.465.134 5.065-.134.666.4 1.065.4 1.599-.8.667-1.733.267-2.665.267.133-.134.266 0 .266 0-.932-.134-1.732-.4-2.665-.667h.134c-1.6 0-2.799-1.333-4.265-1.466h.134c-.534-.134-1.2-.267-1.733 0h.133c-.932.267-1.199 1.6-1.599 2.4-1.2 1.465.267 2.798.4 4.264.134.666.4 1.332.4 1.999.134 2.665.267 5.464.667 7.996.133.667.8.933.932 1.6.534 0 .8.533 1.333.533h-.133c.266.133.533 0 .666.266.534.134.667.534 1.2.534.4.267.666.533.932.8.133.4.133.933.4 1.333.133.932.267 1.732 0 2.665.4.133.267-.4.533-.4.267-.267.667-.134.8-.134.534.667 1.066 1.066 1.733 1.6.134.266.4.533.534.8.133 0 .666.133.8-.134l.667-.8c.932-2.133 2.266-4.931.8-7.197-.534-.267-.667-.8-1.066-1.066-.534 1.333-1.2 2.133-1.733 3.599-.266 0-.533 0-.8-.134.133-1.332.8-2.531 1.333-3.598-.4 0-.8 0-1.2-.267-.133-.267-.266-.4-.533-.667-.267-1.332 0-2.266.267-3.732-.134-.133-.4 0-.4-.133l-2-.133h.534-1.2.134c-.534 0-1.066.266-1.6 0-.266-2-.266-3.999-.4-5.997 1.2-.4 2.4.4 3.732.666l-.133.134.8.133-.133.134c.533 0 .667.533 1.199.533l-.133.133c.266 0 .533 0 .8.134l-.134.133c.134 0 .534 0 .667.134l-.133.133c.533 0 .666.533 1.065.533l-.133.134.667.267-.133.133c.666-.133.533.533 1.065.533l-.133.134c.133 0 .4 0 .667.133h-.134c.8.4 1.733.8 2.532 1.333.8.133 1.733.533 2.665.932.667 0 1.466.267 2.133 0 .133-.4.533-.667.667-.932 1.065-1.6 1.199-3.599 1.332-5.331.134.133.267-.134.4 0 .534 2.132-.133 4.397-.133 6.663.533 0 .533.667 1.199.667l-.133.134c.133.133.533.133.533.266l.667.267.533.267-.133.133c.266 0 .533 0 .667.133-.134 0 0 .134 0 .134.133 0 .266.133.533.133h-.133c.666.534 1.332.534 1.732.933.667.133 1.2.667 1.733.932l.8.267-.134.133.8.134-.133.133c.267 0 .534 0 .667.267.133.133.533.133.667.266v.267c.666-.133.8.534 1.466.534h-.134c1.066.533 2.266.932 3.332 1.199v.133c1.466 0 3.065.933 4.264 1.333 1.2 0 1.6.533 2.665.533v.133c1.2.134 2.4.4 3.599.534h-.133c.666.267 1.465.133 2.266.267 1.866 0 3.465.666 5.33.666h-.133l.667.267c.133 1.6.267 3.199.533 4.798l.534 1.732c.533.534-.267.534 0 1.066-.267-.133-.4-.533-.667-.667-.4-.8-.533-1.332-.932-1.866-.4-.932-.8-1.999-.933-3.065 0-.8-1.199-.266-1.732-.533h.4l-3.199-.133h.134c-.8-.134-1.733-.134-2.532-.267h.133c-.266-.134-.667-.267-.932-.134a24.615 24.615 0 0 0 2.798 5.997c.8.8 1.6 1.733 2.266 2.532.534 0 .267.533.667.4.4.933 1.6 1.466 2 2.532 0 2.4.4 4.264-.267 6.53-1.733 2.133-3.066 4.798-4.931 6.53-.667.667-1.466 1.066-2.267 1.733-1.199.8-1.865 2.266-2.798 3.199-.932.4-2.133.8-3.065.8 0 .266.267.266.267.533 0 1.6-1.333 3.065-1.6 4.798.4 0 .8.533 1.333.267 1.066.4 2.532.133 3.732.133.667-.4 1.332 0 1.732-.4 1.2-.534 1.866-1.733 2.266-2.932-.133 0-.266-.133-.266-.133-1.066 0-2.133-.4-2.932-.4-.133-.267 0-.667.133-.933 1.2-.267 2.665.4 3.599-.4.533-.4.8-.933 1.466-1.066.932-.267 2.132-.8 3.065-.8l.8-.133c.133-.8.133-1.866-.4-2.4-.133-.266-.533-.533-.4-.8 1.332-1.733 2.665-3.865 4.398-5.198.666-.4 1.332-.666 1.866-.932.932-.667 1.866-1.066 2.531-1.733.134-.266.8-.932.4-1.466-.133-1.332-.533-2.665-.666-4.132.133 0 .4 0 .533.134h-.133c.8.133 1.332.932 1.999 1.199h-.134c.534.133.8.667 1.466.8l-.133.134c.267 0 .533 0 .8.133h-.133c1.065.4 1.999 1.066 3.065 1.199h-.134c.267.267.933 0 1.066.4 1.2 1.466 2.665 2.932 3.732 4.398.4.533 0 .932-.133 1.599-.8 2.4-1.866 4.531-3.332 6.53-1.333 1.466-2.4 2.532-3.465 4.132-.267.267-.534.667-.933.8-1.066.667-2.266 1.066-3.465 1.333.267.267.533.667.4.932-.267 1.333-.932 2.4-1.733 3.466-.266.266-.266.533 0 .666.534.134 1.066.267 1.733.4a32.095 32.095 0 0 0 5.064 0c1.6-.533 2.532-1.732 2.932-3.331-.133 0-.4 0-.4-.134l-1.866-.133c-.533-.134-1.199 0-1.599-.134.133-.4.267-.8.667-1.066h3.198c.534-.8.933-1.465 1.733-2.132.533-.4 1.332-.8 2-.8l1.998-.267c.267-.8.134-1.733-.533-2.266-.133-.267-.4-.667-.667-.667-.266-.266-.4-.533-.266-.932.533-1.6 1.332-3.065 1.999-4.665 1.066-2.399 3.465-3.732 3.865-6.397 0-.8.4-1.732-.533-2.132-.267-.4-.534-.667-.667-.8-.533 0-.267-.534-.8-.534-.534-.533-1.066-1.332-1.6-1.866-.8-1.332-1.599-2.266-2.265-3.332-.267-.133-.667-.533-.8-.666v-.4c1.199-2.4 2.931-4.665 3.998-7.064 1.066-2.532 2.798-6.13 1.333-9.063.133-.134.4-.134.533-.267h.8c.4.667.667.932.933 1.6.666 0 .266.4.8.533l-.134.133.667.134c.133.133-.133.133 0 .266.267 0 .533 0 .8.134h-.133l.8.266h-.134l.534.267h-.134c.134.133.534.133.267.4.8.8 0 2.266-.4 3.199.667-.8 1.066-2 1.733-2.665.133-.667.133-1.2.133-1.866.133 0 .267 0 .4.133.133.533.667.667.8 1.066.8.133 1.6 0 2.4.133 0 .267.666.134.533.534h.4c.133-.667 0-1.2-.133-1.733-.534-.8-1.466-1.332-1.6-2.4a3.108 3.108 0 0 1-.932-.932c.133-.133.533 0 .8.134l-.133.133c.133 0 .533 0 .666.133h-.133c.533.267 1.2.134 1.733 0 .666 0 .8.534 1.465.4.134-.133.667 0 .534-.266l1.732-.134c.134-.4-.266-.667-.4-.932-.533-.267-1.065-.534-1.465-.534l-.8-.8c-.134 0-.534 0-.667-.133 0-.134-.134-.4 0-.534.666-.133 1.466-.133 1.999.134 0 .267.533.133.667.533.932.267 1.466-.667 2.132-.8h-.133c.267-.267.667 0 .8-.267-.267-.133-.133-.666-.667-.666-.133-.267-.8-.134-1.066-.267l.134-.133-.667-.267c-.133-.267-.533-.534-.533-.8-.4-.134-.4-.534-.933-.534v-.266c.4-.134.933 0 1.333-.134.133-.4.666-.267.666-.4.667-.267 1.2-.533 1.866-.4.134.267.8.133 1.2 0l.533-.133c-.133-.267.267-.267.133-.534-.133 0-.266 0-.4-.266-.8-.4-1.466-.667-2-1.333-1.198-.267-2.53.134-3.598-.133-.266-.267-.8-.267-1.332-.4h.133c-.667-.134-1.333.133-1.866.4-.4 0-.667.266-1.066.133.4-.4.667-.932 1.2-1.066.266-.266.932-.667 1.465-.8 1.2-.267 2.665 0 3.866-.267l.8-.133c.533-.133.666-.4.932-.667.8 0 1.333.134 2.133.134.4-.267 1.066-.4 1.332-.8a1.845 1.845 0 0 1 1.2 0c.533.133.533-.4 1.065-.4 0-.267.267-.267.4-.534-.8-.267-1.465-.932-2.266-1.332-.4-.4-1.199-.134-1.732-.267 0-.4-.4 0-.534-.4.667.133 1.2-.4 1.733-.4v-.134c.667-.4 1.2-.666 1.733-.666.4 0 1.332.8 1.999.533 0-.267.4-.133.533-.267-.133-.133.134-.266.134-.533-.267 0-.667 0-.8-.133-.267-.134-.534-.4-.8-.534v-.133c-.667.133-.534-.534-1.066-.534-.667-.133-1.2-.133-1.866-.133-.667-.667-1.466-1.066-2.266-1.333.133-.533.8-.133 1.332-.133h-.133c.4.267 1.066.133 1.6.133.8-.266 1.332-.932 2.265-.8.134.4.933 0 1.066.534.8.133 1.6 0 2.133-.4 0-.134.4-.4.4-.667-.8 0-1.333-.267-1.866-.534-.267-.4-.8-.533-1.066-1.066-.133-.133-.667 0-.667-.266l-3.198-.134c-.667-.266-1.066-.666-1.6-.666h.134c-.267-.134-.8-.134-1.066-.267l.133-.134c-.533-.133-1.199 0-1.732-.133.266-.533 1.066-.533 1.466-.8h2.266c.533.533 1.466.133 1.866.533 1.199.134 2.266.134 3.598 0 .267-.133.8-.4 1.066-.666.133-.267.267-.534.533-.667.267-.667 0-1.866-.4-2.4-.133-.666-.932-.932-.8-1.599.933-.133 1.733.667 2.665.267 0 0-.133 0-.133-.133l.533-.134c-.4-2.132-.133-2.266 0-2.4zM551.74 67.537c-.133.134-.4.267-.4.267h-1.066c.267-.133.534-.4.667-.8.134-.267-.267-.667-.4-1.066-.267 0-.533-.267-.932 0 0-.267.533 0 .533-.4h1.333c-.134.267.533.267.533.534.133.266.267.533.267.932-.267.267-.4.267-.534.533zm11.328-4.797c-.4.266-1.065.133-1.599 0-.267-.4-.8-.667-.932-1.066-.4-.267-.8-.134-1.066-.134 0-.4.8-.133.667-.533.666-.133 1.332-.267 1.999-.533h-.134.534-.134c.4.133.667.266.8.533.267.667.134 1.2-.133 1.733zm33.052 40.515zm-4.531-19.457zM453.251 27.023h2.798V195.48h-2.798z"/></svg>