<svg xmlns="http://www.w3.org/2000/svg" viewBox="0 0 800 320" xmlns:v="https://vecta.io/nano"><path d="M0 0h800v320H0Z" fill="#fff"/><path d="M230.46 261.922h7.025v25.583h15.914v6.338h-22.937zm39.959-.226h6.474l13.682 32.15h-7.344l-2.915-7.163h-13.501l-2.918 7.163h-7.16zm7.386 18.788l-4.242-10.353-4.238 10.353zm16.91-18.562h6.476l14.956 19.656v-19.656h6.934v31.924h-5.976l-15.458-20.292v20.292h-6.93v-31.924zm36.029 0h12.447c2.492 0 4.775.404 6.862 1.21 2.08.806 3.877 1.922 5.38 3.348a14.915 14.915 0 0 1 3.49 5.042c.818 1.93 1.23 4.022 1.23 6.27v.093c0 2.249-.412 4.344-1.23 6.292a14.89 14.89 0 0 1-3.49 5.061 16.503 16.503 0 0 1-5.38 3.377 18.559 18.559 0 0 1-6.862 1.231h-12.45zm12.447 25.583c1.426 0 2.735-.226 3.922-.682s2.196-1.11 3.03-1.96a9.2 9.2 0 0 0 1.963-3.011 10.17 10.17 0 0 0 .706-3.877v-.093c0-1.398-.238-2.688-.706-3.876a9.166 9.166 0 0 0-1.964-3.054 8.673 8.673 0 0 0-3.029-1.985 10.534 10.534 0 0 0-3.922-.706h-5.426v19.243zm23.21-25.583h7.024v13.954l12.95-13.954h8.48l-12.993 13.545 13.588 18.378h-8.434l-9.898-13.591-3.69 3.83v9.758h-7.024v-31.92zm33.291 0h14.59c4.043 0 7.144 1.08 9.302 3.238 1.826 1.823 2.738 4.258 2.738 7.3v.09c0 2.582-.63 4.69-1.891 6.315s-2.915 2.823-4.949 3.579l7.8 11.401h-8.209l-6.84-10.214h-5.52v10.214h-7.02zm14.134 15.505c1.737 0 3.064-.41 3.99-1.232s1.393-1.913 1.393-3.283v-.093c0-1.52-.486-2.657-1.46-3.417s-2.326-1.142-4.063-1.142h-6.977v9.167zm18.835-15.505h24.032v6.248h-17.1v6.475h15.045v6.245h-15.046v6.704h17.328v6.245h-24.26zm30.873 0h7.024v31.924h-7.024zm26.404 32.38a21.13 21.13 0 0 1-7.16-1.256 18.974 18.974 0 0 1-6.386-3.851l4.152-4.97c1.458 1.184 2.955 2.127 4.49 2.825a12.01 12.01 0 0 0 5.039 1.05c1.457 0 2.589-.266 3.396-.8a2.512 2.512 0 0 0 1.209-2.21v-.093a2.744 2.744 0 0 0-.251-1.209 2.53 2.53 0 0 0-.961-.98 10.078 10.078 0 0 0-1.967-.912c-.837-.304-1.929-.62-3.268-.961a39.424 39.424 0 0 1-4.391-1.318 12.37 12.37 0 0 1-3.337-1.802 7.271 7.271 0 0 1-2.124-2.667c-.503-1.063-.757-2.387-.757-3.97v-.092c0-1.458.27-2.772.816-3.945a8.992 8.992 0 0 1 2.285-3.032 10.298 10.298 0 0 1 3.52-1.96c1.365-.456 2.865-.682 4.51-.682a19.101 19.101 0 0 1 6.453 1.048 18.677 18.677 0 0 1 5.405 3.008l-3.65 5.29a23.126 23.126 0 0 0-4.196-2.304 10.748 10.748 0 0 0-4.103-.84c-1.37 0-2.393.263-3.08.797s-1.022 1.193-1.022 1.984v.09c0 .515.099.964.294 1.346a2.692 2.692 0 0 0 1.073 1.026c.52.307 1.229.596 2.13.868l3.405.958c1.62.425 3.058.902 4.323 1.436a12.063 12.063 0 0 1 3.2 1.913 7.328 7.328 0 0 1 1.967 2.62c.44 1.005.66 2.204.66 3.603v.093c0 1.579-.285 2.986-.858 4.217a8.645 8.645 0 0 1-2.403 3.1c-1.029.837-2.251 1.473-3.674 1.913a15.877 15.877 0 0 1-4.738.667zm31.464-32.38h7.024v12.634h12.95v-12.634h7.023v31.924h-7.024V281.03h-12.95v12.816h-7.023zm34.656 0h24.032v6.248h-17.101v6.475h15.052v6.245h-15.052v6.704h17.33v6.245h-24.261zm30.873 0h7.024v31.924h-7.024zm13.628 0h7.024v25.583h15.914v6.338h-22.934v-31.92zm29.607 0h14.792c3.671 0 6.45.943 8.33 2.829 1.457 1.457 2.186 3.268 2.186 5.426v.09c0 .912-.115 1.718-.342 2.419s-.527 1.33-.905 1.89a7.151 7.151 0 0 1-1.311 1.483c-.5.428-1.036.791-1.61 1.098 1.848.697 3.3 1.646 4.36 2.849s1.588 2.865 1.588 4.992v.093c0 1.458-.28 2.736-.843 3.83a7.442 7.442 0 0 1-2.413 2.738 11.3 11.3 0 0 1-3.777 1.64c-1.473.366-3.1.546-4.897.546h-15.16zm13.312 12.906c1.551 0 2.781-.263 3.69-.797.915-.534 1.37-1.393 1.37-2.577v-.093c0-1.063-.392-1.876-1.183-2.438s-1.933-.843-3.42-.843H637v6.748zm1.87 12.86c1.551 0 2.766-.28 3.65-.844.881-.558 1.325-1.435 1.325-2.62v-.092a3.007 3.007 0 0 0-1.231-2.53c-.822-.62-2.146-.933-3.97-.933h-8.115v7.02zm17.74-25.766h14.593c4.043 0 7.144 1.08 9.302 3.238 1.823 1.823 2.738 4.258 2.738 7.3v.09c0 2.582-.632 4.69-1.895 6.315s-2.915 2.823-4.945 3.579l7.798 11.401h-8.208l-6.84-10.214h-5.52v10.214h-7.024zm14.137 15.505c1.733 0 3.06-.41 3.99-1.232.925-.822 1.39-1.913 1.39-3.283v-.093c0-1.52-.486-2.657-1.457-3.417s-2.326-1.142-4.063-1.142h-6.977v9.167zm34.34 16.962c-2.462 0-4.73-.432-6.797-1.297a16.869 16.869 0 0 1-5.355-3.513 15.706 15.706 0 0 1-3.513-5.196 16.375 16.375 0 0 1-1.255-6.407v-.093c0-2.28.427-4.416 1.277-6.406a16.488 16.488 0 0 1 3.535-5.24 16.485 16.485 0 0 1 5.38-3.558 17.542 17.542 0 0 1 6.819-1.302c2.462 0 4.725.434 6.794 1.302s3.85 2.035 5.358 3.51a15.74 15.74 0 0 1 3.513 5.197c.836 1.994 1.252 4.128 1.252 6.406v.093c0 2.28-.425 4.416-1.275 6.407a16.534 16.534 0 0 1-3.534 5.244 16.479 16.479 0 0 1-5.384 3.56 17.632 17.632 0 0 1-6.815 1.296zm.093-6.471c1.395 0 2.688-.258 3.876-.775a8.82 8.82 0 0 0 3.03-2.146 10.183 10.183 0 0 0 1.963-3.17c.474-1.2.707-2.483.707-3.85v-.094c0-1.364-.236-2.657-.707-3.876a9.613 9.613 0 0 0-5.086-5.358 9.396 9.396 0 0 0-3.876-.8c-1.427 0-2.73.26-3.898.775a8.9 8.9 0 0 0-3.007 2.145 10.091 10.091 0 0 0-1.963 3.17 10.463 10.463 0 0 0-.707 3.854v.093c0 1.365.235 2.657.707 3.877a9.622 9.622 0 0 0 5.06 5.355c1.17.533 2.47.8 3.898.8zm23.164-25.995h6.474l14.956 19.656v-19.656h6.934v31.924h-5.976l-15.458-20.292v20.292h-6.931zm36.022 0h6.475l14.959 19.656v-19.656h6.933v31.924h-5.975l-15.459-20.292v20.292h-6.934z"/><g transform="matrix(1.00113 0 0 1.00113 -.001 -81.822)"><use href="#A" fill="#85bc21"/><use href="#A" x="76.6" fill="#c7d300"/><use href="#A" x="153.2" fill="#e8e11c"/></g><path d="M38.75 294.53V64.474h191.712v153.37h38.343V26.13H.407v268.4z" fill="#e41e15"/><defs><path id="A" d="M306.801 107.832h38.3v191.497h-38.3z"/></defs></svg>