<svg xmlns="http://www.w3.org/2000/svg" viewBox="0 0 800 320"><path d="M0 0h800v320H0Z" fill="#fff" style="stroke-width:.8"/><path d="M.324 187.319V91.994h28.234v70.034H57.34v25.299zm72.972 0V91.994h28.235v95.333zm54.084 0V91.994h61.983v22.182h-33.748v13.933h31.905v21.453h-31.905v15.215h33.748v22.55z" fill="#4b4b4b"/><path d="M342.26 187.319h-27.5l10.816-56.467c1.843-9.168.55-12.638-3.668-12.638-8.425 0-23.65 22.379-27.866 44.185l-4.765 24.933h-27.319l10.816-56.467c1.843-9.168.55-12.638-3.665-12.638-8.425 0-23.835 22.55-27.869 44.185l-4.765 24.933h-27.5l13.383-69.302v-.55c-4.034-.732-10.084-1.464-15.4-1.843l3.483-17.967a292.189 292.189 0 0 1 42.168-1.651 151.015 151.015 0 0 1-6.967 23.467h.366c8.251-14.115 19.251-25.483 35.383-25.483 10.818 0 18.693 5.684 18.693 17.969a35.651 35.651 0 0 1-1.466 8.249l.182.184c8.425-15.218 19.802-26.402 35.936-26.402 17.785 0 22.906 12.835 19.617 29.886zm64.913 1.827c-27.5 0-41.073-14.115-41.073-37.034 0-31.35 22.906-61.967 60.87-61.967 24.382 0 39.966 13.383 39.966 38.134a60.708 60.708 0 0 1-59.763 60.866zm15.034-74.067c-13.017 0-27.134 10.818-27.134 32.647 0 10.268 5.318 16.324 15.218 16.324 17.782 0 27.5-17.416 27.5-32.453 0-10.097-5.5-16.513-15.584-16.513zm126.506 21.458v.182c6.056 2.2 10.084 7.883 10.084 15.95 0 17.785-14.117 35.017-47.849 35.017-7.15 0-20.536-.37-37.218-.37l18.148-95.321 41.073-.55c22.38 0 32.647 6.782 32.647 20.715-.016 12.093-7.167 19.975-16.884 24.378zm-32.087 10.45c-2.198 0-5.316 0-7.883.182l-3.849 20.352c2.75.182 5.866.366 8.615.366 9.536 0 15.768-4.95 15.768-13.201.003-4.95-3.849-7.698-12.65-7.698zm7.517-36.117c-2.37 0-5.866 0-8.425.182l-3.483 18.885c2.201.182 4.4.182 5.316.182 9.352 0 17.601-3.85 17.601-12.282-.005-4.034-2.388-6.967-11.005-6.967zm77.377 76.45h-27.498l17.964-95.333h27.684zm81.221 0h-55.553l17.967-95.333h27.682l-13.383 70.034h28.235z" fill="#c8d700"/><path d="M418.566 255.494c-1.743 0-5.097-.09-9.215-.09v-23.247l10.15-.132c6.527 0 9.215 2.056 9.215 5.9a5.163 5.163 0 0 1-3.22 4.963v.045a4.971 4.971 0 0 1 3.49 5.097c0 3.894-2.773 7.464-10.419 7.464zm-.358-18.733a33.65 33.65 0 0 0-2.056.045v4.605c.627.045 1.164.045 1.432.045 2.235 0 3.844-.803 3.844-2.501 0-1.337-.85-2.188-3.22-2.188zm-.224 8.807c-.49 0-1.25 0-1.843.047v4.963c.716.042 1.522.089 2.191.089 2.235 0 3.354-1.074 3.354-2.633.01-1.611-1.198-2.462-3.702-2.462zm19.767 9.842v-23.248h15.113v5.41h-8.225v3.4h7.777v5.229h-7.777v3.712h8.225v5.497zm53.073 0h-8.762l-2.77-9.921c-.403-1.295-.848-3.531-1.164-5.095h-.089c-.263 1.519-.758 3.533-1.16 4.918l-2.863 10.102h-8.09l-6.846-23.248h7.554l3.13 10.732a33.119 33.119 0 0 1 .982 4.213h.09a47.602 47.602 0 0 1 .94-4.113l3.13-10.821h7.287l3.128 10.508c.316 1.027.671 2.728 1.03 4.426h.088c.263-1.474.716-3.4 1.074-4.605l2.994-10.33h6.974zm13.428 0v-23.248h15.113v5.41h-8.228v3.4h7.78v5.229h-7.78v3.712h8.228v5.497zm34.651.492c-6.885 0-12.159-3.844-12.159-11.624a12.272 12.272 0 0 1 13.233-12.564 27.287 27.287 0 0 1 7.914 1.208l-1.388 5.858a16.216 16.216 0 0 0-6.214-1.253 5.779 5.779 0 0 0-6.17 6.258c0 3.802 2.105 5.948 5.186 5.948a10.384 10.384 0 0 0 2.146-.263v-6.661h6.885v11.176a24.654 24.654 0 0 1-9.434 1.917zm28.977-17.785v17.3h-6.885v-17.3h-5.666v-5.948h18.196v5.948zm34.88 17.472a149.55 149.55 0 0 1-8.494-.221v-23.206l9.836-.132c7.467 0 12.561 3.128 12.561 11.266.01 8.628-6.124 12.293-13.904 12.293zm.761-17.927a37.55 37.55 0 0 0-2.37.089v11.893a20.286 20.286 0 0 0 2.235.134 5.64 5.64 0 0 0 5.948-6.214 5.226 5.226 0 0 0-5.824-5.903zm34.833 17.748-1.206-3.531h-8.099l-1.206 3.53h-6.885l8.36-23.247h8.27l8.361 23.248zm-4.292-12.785c-.313-.94-.716-2.146-.982-3.175h-.045a29.83 29.83 0 0 1-.85 2.996l-1.61 4.515h5.001zm22.764 13.322a22.063 22.063 0 0 1-4.247-.492l.224-5.945a13.067 13.067 0 0 0 4.605.76c1.653 0 2.683-.76 2.683-1.924 0-2.815-8.362-1.027-8.362-8.717 0-4.74 3.49-7.956 10.284-7.956a24.486 24.486 0 0 1 3.978.358l-.179 5.676a15.136 15.136 0 0 0-4.068-.582c-1.877 0-2.633.716-2.633 1.788 0 2.504 8.496 1.58 8.496 8.586-.005 4.963-3.762 8.449-10.782 8.449zm32.516-.537v-23.248h6.885v17.079h7.02v6.169zm36.35 0-1.207-3.531h-8.093l-1.208 3.53H708.3l8.362-23.247h8.27l8.362 23.248zm-4.293-12.785c-.313-.94-.716-2.146-.985-3.175h-.045a30.086 30.086 0 0 1-.85 2.996l-1.609 4.515h5.002zm33.224 12.785-5.766-9.878a29.704 29.704 0 0 1-1.922-4.026h-.045c.045.94.09 1.79.09 3.175v10.729h-6.619v-23.248h9.257l5.587 9.523q1.143 2.014 2.148 4.294h.042c-.09-1.253-.09-2.817-.09-4.563l-.045-9.254h6.664v23.248zm27.727.179c-3.396 0-6.169-.09-8.496-.221v-23.206l9.836-.132c7.467 0 12.564 3.128 12.564 11.266 0 8.628-6.124 12.293-13.904 12.293zm.761-17.927a37.55 37.55 0 0 0-2.37.089v11.893a20.194 20.194 0 0 0 2.235.134 5.637 5.637 0 0 0 5.945-6.214 5.226 5.226 0 0 0-5.81-5.903z" fill="#4b4b4b"/></svg>