<svg width="800" height="320" fill="none" xmlns="http://www.w3.org/2000/svg"><path d="M0 0h800v320H0z" fill="#fff" style="fill:none"/><g clip-path="url(#a)" transform="matrix(4 0 0 4 266 0)"><path fill="#fffc00" d="M0 0h66.4v80H0z"/><path fill="#2a2623" d="M17.659 16.743c.01-.015.032-.008.034.008.018.361.225.92 1.233 1.046.954.12 1.671-.042 2.283-.222.069.165.05.425-.265.541-.284.087-1.057.313-2.259.185-1.226-.13-1.421-.96-1.025-1.56zm30.979 3.103c.904 1.128 1.662 3.415 1.78 4.517 0 0 1.464.633 2.4 1.57.157.136.284.377.162.83a76.19 76.19 0 0 1-.484 1.89c-.142.458-.286.696-.692.696H48.69s-.107-.67.399-1.15c.494-.469.918-.517 1.288-.557.042-.004.303-.017.32-.017 0-.073-.082-.316-.811-.532-1.17-.346-3.1-.989-4.415-2.193-.942-.866-1.243-1.879-1.243-1.879-.011-.036-.056-.102-.136-.088-.076.013-.09.087-.083.133 0 0 .265 1.403.84 2.116.062.084.072.189-.038.288-1.8 1.612-2.476 3.879-2.476 3.879H37.81s-.287-1.758 2.322-1.758c.706-1.594-.34-2.56-.063-4.266-.884.04-1.903.528-3.139 1.12-1.803.864-4.031 1.92-7.038 2.175l-.986.095s-.16.463-.195.55c-.147.382-.373.396-.53.436-.166.036-7.701 1.509-8.086 1.649H15.59c0-.74.761-1.753 1.92-1.766.541-.005.792.017 1.37.091.734-.449 1.59-.954 2.377-1.42 1.211-.716 2.42-1.502 2.598-1.661.033-.027.075-.12.032-.182-.04-.058-.122-.073-.165-.054-.093.034-2.04.789-2.078.786-2.496-2.175-5.074-2.704-5.074-2.704s-.328.462-.806.598c-.704.199-2.424-.206-2.432-.207 0 0 .294-2.098 4.455-2.247 1.504-.055 2.86.144 4.635.784-.203-.885-.18-1.535-.18-1.535a5.305 5.305 0 0 1-1.39.175c-.271-.01-.353-.06-.46-.38-.037-.109-.255-.716-.262-.83-.014-.147.07-.158.196-.166l.355-.021c.766-.062.992-.412.97-.824-.021-.44-.457-.946-1.512-.553-.168.058-.308.069-.37-.08-.143-.368-.146-.527-.15-.992 0-.09-.04-.135-.082-.184a.36.36 0 0 1-.096-.243c0-.056-.023-.279.242-.445.407-.236.538-.336 2.136-.923.21-.347.575-.557 1.343-.692 2.01-.34 3.498.615 3.498.615s.8-.32 1.368-.206c-.113.794-.342.935-.342.935.637.555 1.811 1.93 2.072 4.457 1.716.701 4.258 1.645 10.825-.46 3.473-1.112 5.194-.792 6.299-.584.234.043.44.082.631.1m0 0c1.569.156 2.223-2.05.441-2.671-1.497-.523-2.61-.416-6.483 1.078-4.322 1.619-5.378 1.943-7.46 1.445-1.275-.305-2.04-1.17-2.073-2.278.038-1.79 2.145-2.619 3.03-2.773.27.918-.186 1.487-.691 1.818-.278.19-.933.872-.482 1.549.7 1.031 2.34 1.097 4.701.259 2.357-.838 4.042-1.88 6.722-2.41 3.593-.71 5.109.983 5.22 2.583.09 1.291-.71 2.425-1.806 2.714M23.33 14.767c-.357-.042-.792.009-1.122.206.033.3.351.371.559.371.308-.012.494-.207.563-.575zm-5.671 20.634c.01-.015.032-.008.034.008.018.362.225.92 1.233 1.046.954.12 1.671-.042 2.283-.222.069.165.05.425-.265.542-.284.087-1.057.312-2.259.184-1.226-.13-1.421-.96-1.025-1.56zm30.979 3.103c.904 1.128 1.662 3.415 1.78 4.517 0 0 1.464.633 2.4 1.57.157.137.284.377.162.831a77.39 77.39 0 0 1-.484 1.889c-.142.458-.286.696-.692.696H48.69s-.107-.67.399-1.15c.494-.469.918-.516 1.288-.557.042-.004.303-.017.32-.017 0-.073-.082-.316-.811-.532-1.17-.346-3.1-.988-4.415-2.192-.942-.867-1.243-1.88-1.243-1.88-.011-.036-.056-.102-.136-.088-.076.013-.09.087-.083.133 0 0 .265 1.403.84 2.116.062.084.072.189-.038.288-1.8 1.612-2.476 3.879-2.476 3.879H37.81s-.287-1.757 2.322-1.757c.706-1.595-.34-2.561-.063-4.267-.884.04-1.903.528-3.139 1.12-1.803.864-4.031 1.92-7.038 2.175l-.986.095s-.16.464-.195.55c-.147.383-.373.397-.53.436-.166.036-7.701 1.51-8.086 1.65H15.59c0-.742.761-1.754 1.92-1.766.541-.006.792.016 1.37.09.734-.449 1.59-.954 2.377-1.42 1.211-.716 2.42-1.502 2.598-1.661.033-.027.075-.12.032-.182-.04-.058-.122-.073-.165-.053-.093.033-2.04.788-2.078.785-2.496-2.174-5.074-2.704-5.074-2.704s-.328.462-.806.598c-.704.2-2.424-.206-2.432-.207 0 0 .294-2.097 4.455-2.247 1.504-.055 2.86.144 4.635.784-.203-.885-.18-1.535-.18-1.535a5.305 5.305 0 0 1-1.39.175c-.271-.01-.353-.06-.46-.38-.037-.108-.255-.716-.262-.83-.014-.147.07-.158.196-.166l.355-.021c.766-.062.992-.412.97-.823-.021-.44-.457-.947-1.512-.553-.168.057-.308.068-.37-.08-.143-.369-.146-.528-.15-.993 0-.09-.04-.134-.082-.183a.363.363 0 0 1-.096-.244c0-.056-.023-.279.242-.445.407-.236.538-.336 2.136-.923.21-.347.575-.557 1.343-.692 2.01-.34 3.498.615 3.498.615s.8-.32 1.368-.206c-.113.794-.342.936-.342.936.637.554 1.811 1.929 2.072 4.456 1.716.702 4.258 1.645 10.825-.459 3.473-1.113 5.194-.792 6.299-.585.234.043.44.082.631.1m0 0c1.569.156 2.223-2.05.441-2.671-1.497-.522-2.61-.416-6.483 1.078-4.322 1.619-5.378 1.944-7.46 1.445-1.275-.305-2.04-1.17-2.073-2.278.038-1.79 2.145-2.618 3.03-2.772.27.917-.186 1.487-.691 1.817-.278.19-.933.872-.482 1.549.7 1.032 2.34 1.097 4.701.259 2.357-.838 4.042-1.88 6.722-2.41 3.593-.71 5.109.983 5.22 2.583.09 1.291-.71 2.425-1.806 2.714M23.33 33.426c-.357-.043-.792.008-1.122.205.033.3.351.371.559.371.308-.012.494-.207.563-.575v-.002zM17.659 54.06c.01-.016.032-.009.034.008.018.361.225.92 1.233 1.046.954.12 1.671-.042 2.283-.222.069.165.05.425-.265.541-.284.087-1.057.313-2.259.185-1.226-.13-1.421-.96-1.025-1.56zm30.979 3.103c.904 1.128 1.662 3.415 1.78 4.517 0 0 1.464.632 2.4 1.57.157.136.284.377.162.83a76.19 76.19 0 0 1-.484 1.89c-.142.457-.286.695-.692.695H48.69s-.107-.669.399-1.149c.494-.47.918-.517 1.288-.557.042-.005.303-.017.32-.017 0-.073-.082-.316-.811-.532-1.17-.346-3.1-.989-4.415-2.193-.942-.867-1.243-1.879-1.243-1.879-.011-.036-.056-.102-.136-.088-.076.013-.09.087-.083.133 0 0 .265 1.403.84 2.116.062.084.072.189-.038.288-1.8 1.612-2.476 3.878-2.476 3.878H37.81s-.287-1.757 2.322-1.757c.706-1.595-.34-2.56-.063-4.266-.884.04-1.903.528-3.139 1.12-1.803.864-4.031 1.92-7.038 2.175l-.986.095s-.16.463-.195.55c-.147.382-.373.396-.53.436-.166.036-7.701 1.509-8.086 1.649H15.59c0-.74.761-1.753 1.92-1.766.541-.005.792.017 1.37.091.734-.45 1.59-.955 2.377-1.42 1.211-.716 2.42-1.502 2.598-1.662.033-.026.075-.12.032-.181-.04-.058-.122-.073-.165-.054-.093.034-2.04.789-2.078.786-2.496-2.175-5.074-2.704-5.074-2.704s-.328.462-.806.598c-.704.199-2.424-.206-2.432-.207 0 0 .294-2.098 4.455-2.248 1.504-.054 2.86.145 4.635.785-.203-.885-.18-1.535-.18-1.535a5.305 5.305 0 0 1-1.39.175c-.271-.01-.353-.06-.46-.38-.037-.109-.255-.716-.262-.83-.014-.147.07-.158.196-.166l.355-.021c.766-.062.992-.412.97-.824-.021-.44-.457-.946-1.512-.553-.168.058-.308.069-.37-.08-.143-.368-.146-.527-.15-.992 0-.09-.04-.135-.082-.184a.36.36 0 0 1-.096-.243c0-.056-.023-.279.242-.446.407-.235.538-.336 2.136-.922.21-.347.575-.558 1.343-.692 2.01-.34 3.498.615 3.498.615s.8-.32 1.368-.206c-.113.794-.342.935-.342.935.637.555 1.811 1.93 2.072 4.457 1.716.701 4.258 1.645 10.825-.46 3.473-1.112 5.194-.792 6.299-.585.234.044.44.083.631.101m0 0c1.569.156 2.223-2.05.441-2.671-1.497-.523-2.61-.416-6.483 1.078-4.322 1.618-5.378 1.943-7.46 1.445-1.275-.305-2.04-1.17-2.073-2.278.038-1.79 2.145-2.619 3.03-2.773.27.918-.186 1.487-.691 1.818-.278.19-.933.872-.482 1.548.7 1.032 2.34 1.098 4.701.26 2.357-.838 4.042-1.88 6.722-2.41 3.593-.71 5.109.983 5.22 2.583.09 1.291-.71 2.425-1.806 2.714M23.33 52.084c-.357-.042-.792.009-1.122.206.033.3.351.371.559.371.308-.013.494-.207.563-.575z"/></g><defs><clipPath id="a"><path fill="#fff" d="M0 0h66.4v80H0z"/></clipPath></defs></svg>