<svg version="1.1" id="layer" x="0" y="0" xml:space="preserve" width="800" height="320" xmlns="http://www.w3.org/2000/svg"><style type="text/css" id="style2"></style><path d="M0 0h800v320H0z" fill="#fff" style="clip-rule:evenodd;fill-rule:evenodd;stroke-width:.8;stroke-linejoin:round;stroke-miterlimit:2" id="path2"/><path d="M161.132 218.613v-42.584c0-22.224-12.11-35.265-27.546-35.265-26.349 0-30.873 22.09-34.067 22.09-1.863 0-2.262-22.09-27.813-22.09-22.09 0-29.809 21.691-32.87 21.691-1.197 0-.798-3.194-.798-6.254v-12.11c0-1.464 0-3.194-1.464-3.194-1.996 0-8.383 1.464-13.84 1.863-8.516.532-17.166 1.198-21.69 1.198v7.851c7.052 0 12.375 1.198 12.375 11.179v55.758c0 11.577-5.589 12.376-11.976 12.376v7.851h52.032v-7.851c-9.182 0-12.11-2.262-12.11-12.376v-34.6c0-9.98 8.118-28.61 18.63-28.61 7.719 0 13.175 5.855 13.175 23.687v39.523c0 11.577-5.722 12.376-11.977 12.376v7.851h52.033v-7.851c-9.183 0-12.11-2.262-12.11-12.376v-34.6c0-9.98 8.117-28.61 18.63-28.61 7.719 0 13.175 5.855 13.175 23.687v39.523c0 11.577-5.723 12.376-11.977 12.376v7.851h52.032v-7.851c-8.783-.133-11.844-2.396-11.844-12.51m72.526-77.715c-27.147 0-49.104 21.292-49.104 50.702 0 29.143 21.957 50.435 49.104 50.435s49.105-21.292 49.105-50.435c0-29.543-21.824-50.702-49.105-50.702m0 93.152c-10.38 0-17.832-5.323-17.832-42.583 0-37.261 7.452-42.717 17.832-42.717s17.832 5.456 17.832 42.717c.133 37.26-7.452 42.583-17.832 42.583m530.57-90.224v7.851c8.915 0 12.774 3.593 12.774 9.315 0 10.513-12.509 34.2-16.235 45.113-.266.798-.399 1.197-1.597 1.197-.798 0-1.197-1.064-11.71-24.352-1.863-3.992-9.315-20.228-9.315-24.353 0-5.855 6.653-7.053 11.178-7.053v-7.851h-86.765v-39.257h-7.452c-6.255 17.432-15.836 34.998-35.797 40.587v6.654h15.436v67.07c0 8.65 5.323 23.022 24.486 23.022 15.836 0 24.885-8.65 30.607-22.623l-6.653-3.06c-2.795 4.923-7.053 11.178-12.775 11.178-3.194 0-7.719-1.863-7.719-9.316v-66.27h32.204c4.525 0 9.182 2.66 11.179 7.052 30.74 67.47 37.66 76.385 37.66 84.503 0 10.779-14.106 29.41-25.151 29.41-1.997 0-4.525-1.065-4.525-3.46 0-1.864 7.053-4.925 7.053-12.776 0-7.32-6.255-11.977-12.908-11.977-7.719 0-13.175 7.852-13.175 15.437 0 12.775 9.715 20.627 20.627 20.627 8.25 0 23.687-5.456 32.07-24.486l39.125-90.092c4.924-11.178 10.513-14.239 12.775-14.239v-7.851zM441.787 73.56c8.516 0 15.569-6.92 15.569-15.436 0-8.517-7.053-15.437-15.57-15.437s-15.57 6.92-15.57 15.437c0 8.516 7.186 15.436 15.57 15.436m-81.442 67.336c-15.037 0-23.953 15.038-24.752 15.038-1.463 0-1.064-2.795-1.064-10.513V94.454h-42.85v7.851c5.057.134 15.037-1.596 15.037 13.707v56.158c0 23.288.533 46.443-.798 69.864h7.718c6.92-9.98 10.114-16.368 12.376-16.368 2.795 0 11.578 16.368 29.41 16.368 28.61 0 46.443-23.288 46.443-51.234-.133-25.683-14.106-49.903-41.52-49.903m-6.52 93.152c-12.775 0-19.296-15.968-19.296-40.72 0-12.776.798-40.056 19.296-40.056 14.372 0 16.634 16.768 16.634 43.516 0 11.444-.133 37.26-16.634 37.26m105.395-13.44v-76.784h-42.584v7.984c8.25 0 14.638 1.464 14.638 14.24v54.693c0 10.38-5.057 10.38-14.638 10.38v7.984h55.891v-7.984c-8.383-.133-13.307-.133-13.307-10.513m66.404-42.45V64.778H483.04v7.85c8.25 0 14.638 1.465 14.638 14.24v91.29c0 10.379-5.056 10.379-14.638 10.379v7.851h55.892v-7.851c-8.384 0-13.308 0-13.308-10.38m53.762-58.02c8.517 0 15.57-6.92 15.57-15.437s-7.053-15.437-15.57-15.437c-8.516 0-15.57 6.92-15.57 15.437 0 8.65 7.054 15.437 15.57 15.437m17.433 100.47v-76.783h-42.451v7.851c8.251 0 14.639 1.464 14.639 14.24v54.693c0 10.38-5.057 10.38-14.639 10.38v7.851h55.892v-7.851c-8.65 0-13.44 0-13.44-10.38" id="path4" style="stroke-width:1.33075;fill:#e20413"/></svg>