<svg xml:space="preserve" width="800" height="320" xmlns="http://www.w3.org/2000/svg"><path d="M0 0h800v320H0z" fill="#fff" style="stroke-width:.8"/><path d="M118.559 182.465h8.494v8.7h-8.494zm0 13.516h8.494v8.706h-8.494zm26.344-67.273h8.488v8.706h-8.488zM.91 236.217h8.488v8.713H.91zm0 13.515h8.488v8.707H.91zm13.175-67.273h8.482v8.707H14.08zm0 13.515h8.482v8.707H14.08zm0 13.212h8.482v8.713H14.08zm0 13.516h8.482v8.712H14.08zm0 13.515h8.482v8.713H14.08zm0 13.515h8.482v8.707H14.08zm0 13.212h8.482v8.713H14.08zM26.957 142.21h8.488v8.712h-8.488zm0 13.515h8.488v8.725h-8.488zm0 13.218h8.488v8.706h-8.488zm0 13.515h8.488v8.707h-8.488zm0 13.515h8.488v8.707h-8.488zm0 13.212h8.488v8.713h-8.488zm0 13.516h8.488v8.712h-8.488zm0 13.515h8.488v8.713h-8.488zm0 13.515h8.488v8.707h-8.488zm0 13.212h8.488v8.713h-8.488zM40.132 128.7h8.482v8.707h-8.488zm0 13.51h8.482v8.712h-8.488zm0 13.515h8.482v8.725h-8.488zm0 13.218h8.482v8.706h-8.488zm0 13.515h8.482v8.707h-8.488zm0 13.515h8.482v8.707h-8.488zm0 13.212h8.482v8.713h-8.488zm0 13.516h8.482v8.712h-8.488zm0 13.515h8.482v8.713h-8.488zm0 13.515h8.482v8.707h-8.488zm0 13.212h8.482v8.713h-8.488zm13.163-174.49h8.489v8.712h-8.489zm0 13.514h8.489v8.713h-8.489zm0 13.212h8.489v8.713h-8.489zm0 13.515h8.489v8.713h-8.489zm0 13.516h8.489v8.712h-8.489zm0 13.515h8.489v8.725h-8.489zm0 13.218h8.489v8.706h-8.489zm0 13.515h8.489v8.707h-8.489zm0 13.515h8.489v8.707h-8.489zm0 13.212h8.489v8.713h-8.489zm0 13.516h8.489v8.712h-8.489zm0 13.515h8.489v8.713h-8.489zm0 13.515h8.489v8.707h-8.489zm0 13.212h8.489v8.713h-8.489zM66.173 61.726h8.488v8.707h-8.488zm0 13.212h8.488v8.712h-8.488zm0 13.515h8.488v8.713h-8.488zm0 13.515h8.488v8.713h-8.488zm0 13.212h8.488v8.713h-8.488zm0 13.515h8.488v8.713h-8.488zm0 13.516h8.488v8.712h-8.488zm0 13.515h8.488v8.725h-8.488zm0 13.218h8.488v8.706h-8.488zm0 13.515h8.488v8.707h-8.488zm0 13.515h8.488v8.707h-8.488zm0 13.212h8.488v8.713h-8.488zm0 13.516h8.488v8.712h-8.488zm0 13.515h8.488v8.713h-8.488zM79.35 74.937h8.482v8.713h-8.488zm0 13.516h8.482v8.713h-8.488zm0 13.515h8.482v8.713h-8.488zm0 13.212h8.482v8.713h-8.488zm0 13.515h8.482v8.713h-8.488zm0 13.516h8.482v8.712h-8.488zm0 13.515h8.482v8.725h-8.488zm0 13.218h8.482v8.706h-8.488zm0 13.515h8.482v8.707h-8.488zm0 13.515h8.482v8.707h-8.488zm0 13.212h8.482v8.713h-8.488zm0 13.516h8.482v8.712h-8.488zm0 13.515h8.482v8.713h-8.488zM92.512 88.459h8.482v8.713h-8.482zm0 13.515h8.482v8.713h-8.482zm0 13.212h8.482v8.713h-8.482zm0 13.515h8.482v8.713h-8.482zm0 13.516h8.482v8.713h-8.482zm0 13.515h8.482v8.719h-8.482zm0 13.218h8.482v8.707h-8.482zm0 13.515h8.482v8.7h-8.482zm0 13.516h8.482v8.706h-8.482zm0 13.211h8.482v8.713h-8.482zm0 13.516h8.482v8.712h-8.482zm0 13.515h8.482v8.713h-8.482zm0 13.515h8.482v8.707h-8.482zm13.175-174.794h8.488v8.713h-8.488zm0 13.515h8.488v8.713h-8.488zm0 13.515h8.488v8.713h-8.488zm0 13.212h8.488v8.713h-8.488zm0 13.515h8.488v8.713h-8.488zm0 13.516h8.488v8.713h-8.488zm0 13.515h8.488v8.719h-8.488zm0 13.218h8.488v8.707h-8.488zm0 13.515h8.488v8.7h-8.488zm0 13.516h8.488v8.706h-8.488zm0 13.211h8.488v8.713h-8.488zm0 13.516h8.488v8.712h-8.488zm0 13.515h8.488v8.713h-8.488zm0 13.515h8.488v8.707h-8.488zM118.56 48.217h8.494v8.706h-8.494zm0 13.515h8.494v8.707h-8.494zm0 13.212h8.494v8.713h-8.494zm0 13.515h8.494v8.713h-8.494zm0 13.515h8.494v8.713h-8.494zm0 13.212h8.494v8.713h-8.494zm0 13.515h8.494v8.713h-8.494zm0 13.516h8.494v8.713h-8.494zm0 13.515h8.494v8.719h-8.494zm0 53.46h8.494v8.713h-8.494zm0 13.516h8.494v8.712h-8.494zm0 13.515h8.494v8.713h-8.494zm0 13.515h8.494v8.707h-8.494zm13.175-201.521h8.488v8.706h-8.488zm0 13.515h8.488v8.707h-8.488zm0 13.212h8.488v8.713h-8.488zm0 13.515h8.488v8.713h-8.488zm0 13.515h8.488v8.713h-8.488zm0 13.212h8.488v8.713h-8.488zm0 13.515h8.488v8.713h-8.488zm0 13.516h8.488v8.713h-8.488zm0 13.515h8.488v8.719h-8.488zm0 13.218h8.488v8.707h-8.488zm0 13.515h8.488v8.7h-8.488zm0 26.727h8.488v8.713h-8.488zm0 13.516h8.488v8.712h-8.488zm0 13.515h8.488v8.713h-8.488zm0 13.515h8.488v8.707h-8.488zm0 13.212h8.488v8.713h-8.488zm13.17-201.218h8.487v8.707h-8.488zm0 13.212h8.487v8.713h-8.488zm0 13.515h8.487v8.713h-8.488zm0 13.515h8.487v8.713h-8.488zm0 13.212h8.487v8.713h-8.488zm0 27.03h8.487v8.714h-8.488zm0 13.516h8.487v8.719h-8.488zm0 13.218h8.487v8.707h-8.488zm0 13.515h8.487v8.7h-8.488zm0 13.516h8.487v8.706h-8.488zm0 13.211h8.487v8.713h-8.488zm0 27.03h8.487v8.714h-8.488zm0 13.516h8.487v8.707h-8.488zm12.871-174.794h8.494v8.713h-8.488zm0 13.515h8.494v8.713h-8.488zm0 13.515h8.494v8.713h-8.488zm0 13.212h8.494v8.713h-8.488zm0 13.515h8.494v8.713h-8.488zm0 13.516h8.494v8.713h-8.488zm0 13.515h8.494v8.719h-8.488zm0 13.218h8.494v8.707h-8.488zm0 13.515h8.494v8.7h-8.488zm0 13.516h8.494v8.706h-8.488zm0 13.211h8.494v8.713h-8.488zm0 13.516h8.494v8.712h-8.488zm0 13.515h8.494v8.713h-8.488zm0 13.515h8.494v8.707h-8.488zm13.175-147.764h8.488v8.713h-8.488zm0 13.212h8.488v8.713h-8.488zm0 13.515h8.488v8.713h-8.488zm0 13.516h8.488v8.713h-8.488zm0 13.515h8.488v8.719h-8.488zm0 13.218h8.488v8.707h-8.488zm13.176-40.249h8.482v8.713h-8.488zm0 13.516h8.482v8.713h-8.488zm-65.567 26.733h8.488v8.707h-8.488zm13.169 27.03h8.488v8.707h-8.482zm13.17 26.728h8.487v8.712h-8.488zm26.046-134.243h8.488v8.707h-8.488z" style="display:inline;fill:#fc0;stroke-width:2.96476;enable-background:new"/><path d="m266.068 128.404-19.32 45.355-1.755-45.355h-28.378l-13.759 66.97h15.805l10.831-56.758 3.51 56.763h16.393l26.63-56.162-12.004 56.162h17.268l13.175-67.273zm70.242-1.803c-4.688 0-17.566.607-27.51 9.314-9.958 8.409-13.467 21.918-14.342 26.43-4.978 24.923 9.071 34.838 26.63 34.838 15.513 0 35.7-8.112 40.971-34.839 3.515-16.52.298-35.743-25.75-35.743zm7.607 35.142c-2.052 9.308-6.436 21.62-19.61 21.62-11.998 0-12.873-10.51-10.827-21.323 2.338-11.414 7.608-22.221 19.612-22.221 4.092 0 7.893 1.202 9.945 4.802 1.463 3.006 2.635 7.808.88 17.122zm65.555-.905c3.515-.898 14.632-3.6 16.976-15.318 1.172-6.005-.88-9.605-2.635-11.415-4.979-5.404-13.17-5.404-21.366-5.404H376.4l-13.752 66.678h28.974c5.853 0 12.586 0 18.147-2.701 7.9-3.91 11.117-9.915 11.998-15.319 2.926-13.819-8.488-15.92-12.295-16.515zm-5.562 14.42c-1.457 7.808-8.78 7.808-10.825 7.808h-9.952l3.218-15.92h9.369c2.337 0 9.654 0 8.196 8.112zm4.099-27.334c-.583 3.006-2.338 5.404-4.681 6.606-1.761.905-3.51.905-6.436.905h-8.488l2.926-15.015h9.951c2.047 0 3.801 0 5.556 1.5 1.463 1.499 1.76 3.903 1.172 6.01zm31.608-19.52-13.46 66.97h18.439l13.46-66.97zm72.877 8.112c-4.687-5.404-12.295-8.112-24.292-8.112-6.436 0-12.586.601-17.85 1.5l-12.878 64.273c4.092.601 9.07.899 14.924.899 12.289 0 22.829-3.303 30.145-9.308 7.316-6.01 12.289-14.717 14.341-25.53 2.046-10.808.291-18.319-4.39-23.722zm-4.39 24.025c-3.515 17.717-15.22 27.929-32.78 27.929-3.218 0-6.144 0-8.196-.601l10.242-51.657c2.344-.601 5.562-.899 9.958-.899 17.261-.303 23.995 9.612 20.777 25.228zm36.873-31.84-34.826 65.774h8.488l10.825-20.722h22.83l2.635 20.722h8.779l-8.78-65.774zm-12.58 38.446 9.945-18.92c2.052-3.903 3.807-8.111 5.562-12.015h.291c.298 3.904.298 7.808.88 12.016l2.344 18.919zm83.405-38.446H568.39l-1.457 7.214h19.611l-11.718 58.56h8.197l11.712-58.56h19.61zm16.102 0-34.833 65.774h8.488l10.832-20.722h22.83l2.628 20.722h8.78l-8.78-65.774zm-12.586 38.446 9.95-18.92c2.047-3.903 3.802-8.111 5.562-12.015h.292c.291 3.904.291 7.808.874 12.016l2.344 18.919zm77.26-38.743c-5.853 0-11.706.601-15.215 1.5l-13.175 64.273c2.64.304 7.03.899 12.586.899 10.54 0 18.148-1.803 23.418-6.005 3.8-3.303 7.019-7.51 8.197-13.218 2.046-9.605-4.105-15.015-9.958-16.514v-.304c7.316-2.398 12.587-8.105 13.758-14.414.88-5.1-.291-9.01-2.926-11.718-3.516-3-8.488-4.499-16.685-4.499zm6.734 47.45c-1.761 9.61-10.535 12.616-19.023 12.616-2.926 0-5.27 0-6.733-.304l4.979-24.923h6.727c9.368-.304 16.096 3.606 14.05 12.61zm4.098-30.334c-1.172 6.314-7.316 11.11-16.096 11.11H683.7l4.39-21.02c1.463-.303 3.516-.6 7.322-.6 8.482-.304 13.753 3.005 11.998 10.516zm84.285-16.819-15.215 33.042c-3.515 8.106-7.025 15.616-9.66 22.823h-.291c.583-6.91.291-14.717 0-22.526l-1.172-33.332h-8.78l-15.221 33.029c-3.8 8.415-7.316 16.223-9.951 22.829h-.292c0-6.308 0-14.414-.291-22.83l-.874-33.332h-8.786l2.926 65.773h8.786l16.09-34.243c4.098-8.403 6.74-15.01 9.368-21.318h.292c-.583 6.606-.292 12.915 0 21.324l1.171 34.237h8.78l31.317-65.773h-8.197z" style="fill:#3a4044;stroke-width:2.96476"/><path d="M272.8 227.213zm-8.785-1.804c-1.165 0-6.435.608-7.018.905 0-.905-.298-2.404-.59-3.005.59.6 2.344 1.803 2.927 1.202.59-.607.88-1.5.88-3.006-.88 1.203-1.76.905-2.052-.6 0 .303 2.927.303 3.218.303 1.172 0 2.635-.304 3.522-1.202.583-.601.874-1.202.874-1.804.292-.898 0-2.404-.291-3.302-.298.6-.298 1.5-.59 2.1-.29.607-.582 1.202-1.171 1.804-.583.6-1.755.898-2.635.898-.874 0-1.755 0-2.63-.297.292-.304.292-.899.584-1.203.291-.303.88-.303 1.172-.303.291.303.582.607.582.905.292-1.203.59-2.702.88-3.904v-.304c0-.298-.29-.298-.588-.298-3.8-2.1-8.482-3.005-12.58-1.803 0 0-2.635-.898-3.807-.898 0 1.5.88 2.1.88 2.1-1.76.899-3.807 6.011-4.098 9.314-3.218 1.5-9.369 5.1-22.538-.303a24.815 24.815 0 0 0-8.196-1.5c-2.047 0-4.093.303-5.847.303-1.761-.303-3.516-1.505-2.933-3.606.298-2.107 2.344-3.005 4.098-3.309 2.053-.298 4.39 0 6.15.607 4.676 1.5 9.363 3.6 14.044 5.404 1.761.6 3.516 1.202 5.562 1.202 1.76 0 3.807-.607 5.27-1.803 1.457-1.202 2.046-3.303 1.457-5.106-.583-2.101-2.92-3.303-4.972-4.208h-.875c0 .304 0 .304.292.607.583.899 1.463 2.1 1.76 3 .583 1.803-.588 3.606-2.052 4.505-1.463.6-2.926.303-4.39 0-6.15-1.804-11.414-5.1-17.558-6.309-1.172-.303-2.635-.303-3.807-.303-2.635 0-5.853 1.208-7.317 3.91-.588 1.5-.88 3.303-.291 4.802.583 1.203 1.755 2.702 2.927 2.702-1.761 2.405-3.516 8.713-3.807 10.814l-5.562 1.803.292 8.112h9.957s1.166-3.31-4.687-3.91c2.635-.596 9.07-4.5 11.123-6.606 3.218 3.904 5.264 10.516 5.264 10.516h11.712s1.457-3.607-7.322-4.208c0-3.006-.292-7.207-.292-9.01 4.681.303 9.369 7.808 21.372 7.808 0 .303.285 1.202.285 1.202 3.218 1.202 12.878 3.904 14.341 3.904h14.341c0-.899.88-3.904-7.899-3.303-1.463-1.5-5.27-3.904-6.435-4.505 2.92-1.5 10.236-5.707 11.7-7.808 0-2.1 1.463-3.607 5.561-1.803.88-3.904-5.562-5.708-8.197-1.203zm19.612 18.926h2.343l5.562-32.137h-2.344zm37.753-11.111c-1.172-4.208-6.145-15.92-9.071-21.026h-5.853l-5.562 32.137h5.853l3.807-22.222c2.338 4.499 7.025 16.514 8.78 22.222h5.852l5.562-32.137h-5.853zm9.957 11.11h19.605l.874-5.403h-13.163l1.172-8.415h11.415l.88-5.404h-11.123l1.172-7.51h13.169l1.172-5.404h-19.612zm43.6-11.718c-.874 4.506-2.927 6.91-6.436 6.91-2.635 0-4.39-1.5-4.39-4.803 0-.607 0-1.803.292-3.303l3.218-19.526h-6.436l-3.218 19.526c-.298 1.5-.298 2.702-.298 3.904 0 6.005 4.39 9.308 10.25 9.308 7.018 0 11.414-3.904 12.87-12.016l3.516-20.722h-5.853zm9.957 11.719H404.5l.875-5.404h-13.17l1.464-8.415h11.123l.88-5.404h-11.123l1.172-7.51h13.17l1.17-5.404h-19.61zm49.75-13.82c-.588-4.802-2.052-14.116-3.806-18.317h-7.608l-6.733 32.137h6.144l4.979-23.43c1.172 4.504 2.343 11.414 2.926 17.425h6.145c2.635-6.011 6.144-12.92 9.07-17.426l-2.926 23.43h6.15l3.802-32.136h-8.197c-2.92 4.201-7.893 13.515-9.945 18.318zm36.29-18.918c-10.534 0-16.393 9.908-16.393 21.02 0 7.212 4.099 12.319 11.415 12.319 10.54 0 16.393-9.915 16.393-21.026 0-7.51-4.098-12.313-11.415-12.313zm-4.39 27.929c-3.806 0-5.27-3.006-5.27-6.91 0-6.605 2.636-15.312 9.369-15.312 4.098 0 5.264 3 5.264 6.903-.291 6.612-2.926 15.319-9.362 15.319zm41.852-19.824c0-5.1-3.515-7.808-10.832-7.808-2.629 0-7.607.304-8.78.607l-5.56 31.834c2.343.303 4.978.6 9.368.6 10.534 0 14.632-4.207 14.632-10.813 0-3.303-1.76-5.707-4.681-6.606 3.218-.904 5.853-4.207 5.853-7.814zm-13.46 19.526h-4.099l1.457-8.712h3.224c4.099 0 5.562 1.505 5.562 3.606 0 3-2.052 5.1-6.145 5.1zm.582-14.116h-2.635l1.172-7.808c.88 0 1.76-.304 2.926-.304 3.218 0 4.682.905 4.682 3.006.291 3.303-1.755 5.1-6.145 5.1zm15.513 19.223h6.145l5.561-32.137h-6.144zm24.875-32.137h-6.436l-5.27 32.137h16.976l.875-5.708h-10.826zm9.071 32.137h6.436l5.574-32.137h-6.436zm38.634-32.137h-22.24l-.88 5.707h7.904L564 244.335h6.15l4.682-26.43h7.9zm8.488 0c-2.927 5.1-12.295 24.025-15.222 32.137h6.74c.874-2.405 2.046-4.81 3.218-7.511h10.236c.292 2.702.292 5.1.292 7.51h6.436c-.286-8.111-2.92-27.03-4.384-32.136zm-3.218 18.919c1.754-4.202 4.39-9.612 5.853-12.61.583 2.998 1.172 8.408 1.457 12.61zm12.58-28.537c-1.755 0-3.218 1.506-3.218 3.31 0 1.803 1.463 3.302 3.218 3.302 1.76 0 3.218-1.5 3.218-3.303a3.29 3.29 0 0 0-3.218-3.303zm-9.362 6.618c1.76 0 3.218-1.505 3.218-3.309a3.29 3.29 0 0 0-3.218-3.303c-1.761 0-3.218 1.5-3.218 3.303 0 1.804 1.457 3.303 3.218 3.303zm15.221 3-1.172 5.707h7.9l-4.39 26.43h6.144l4.687-26.43h7.9l1.171-5.707z" style="fill:#006eaf;stroke-width:2.96476"/></svg>