<svg width="800" xml:space="preserve" height="320" xmlns="http://www.w3.org/2000/svg"><path d="M0 0h800v320H0z" fill="#fff" style="stroke-width:1.06667"/><path fill="#c01d7a" d="M148.925 67.929c61.567-84.256 190.282-88.477 255.372-10.853 4.674-4.486 9.293-9.07 14.071-13.481 25.247-23.312 54.943-36.87 89.148-40.444 32.458-3.392 64.05.071 93.29 15.09 46.656 23.964 76.791 61.276 87.149 113.315 2.12 10.65 2.689 21.608 4.013 32.76h-82.666c0-1.15.003-2.292 0-3.434-.037-13.311.298-26.636-.183-39.93-1.396-38.547-27.447-69.393-65.401-76.589-49.271-9.342-86.847 22.17-95.577 59.442-1.431 6.108-2.155 12.49-2.309 18.767-.339 13.827-.105 27.667-.105 41.736h-82.288c0-1.124.003-2.256-.001-3.387-.06-14.276.18-28.56-.243-42.825-1.03-34.679-28.989-67.08-63.165-73.472-21.734-4.064-42.67-1.994-61.588 10.157-24.699 15.864-37.684 38.669-38.143 68.217-.195 12.558-.032 25.121-.032 37.682v3.67h-82.238c.085-35.433 9.449-67.724 30.896-96.421z" style="display:inline;stroke-width:.644253"/><path fill="#7f8083" d="M141.51 205.54c.629.59 1.244 1.152 1.264 1.735.475 13.926.887 27.854 1.297 41.782.008.297-.15.599-.29 1.125h-4.93v-34.998l-1.125-.178-7.132 20.536-7.114-20.583-1.276.133c0 10.46.005 20.92-.003 31.38-.003 4.23-.219 4.383-5.023 3.54l1.358-44.094c5.518-.975 5.515-.974 7.105 3.722 1.544 4.557 3.096 9.113 4.933 14.52 1.828-5.328 3.649-9.865 4.9-14.554.87-3.254 2.34-4.807 6.035-4.066z" style="display:inline;stroke-width:.644253"/><path fill="#7f8083" d="M367.392 298.285c-.091-2.178-.18-4.056-.27-5.933l-.542-.153-7.297 16.88-7.03-16.349-1.117.076v25.817h-5.456l1.308-34.365c5.686-1.078 5.888-.977 7.807 3.657l4.468 10.8c1.615-3.824 3.003-7.096 4.377-10.373 2.055-4.9 2.05-4.902 7.897-4.245l1.438 34.336c-4.916.9-5.011.784-5.106-3.777-.11-5.358-.313-10.713-.477-16.37zM691.194 298.369v20.118c-5.464.866-5.471.869-7.548-3.635-3.139-6.809-6.261-13.625-9.407-20.43-.38-.823-.865-1.599-1.864-2.262v26.532h-4.542v-34.384c5.078-1.164 5.31-1.053 7.394 3.452 3.637 7.863 7.272 15.727 11.284 24.405v-28.056h4.683v14.26m-18.825-7.376-.302-.019c.046.069.092.138.302.019z" style="stroke-width:.644253"/><path fill="#7f7f83" d="M138.305 293.341c1.846 7.312 3.626 14.367 5.415 21.42 1.004 3.958 1.011 3.956-3.632 4.755-.943-3.88-2.014-7.766-2.792-11.71-.384-1.945-1.156-2.626-3.167-2.665-9.503-.182-9.501-.24-11.688 8.882-.423 1.766-.848 3.53-1.363 5.673l-4.567-1.15c2.264-8.908 4.468-17.596 6.681-26.28 1.32-5.183 2.748-10.34 3.934-15.552.46-2.024 1.263-2.832 3.423-2.79 2.03.04 3.018.508 3.5 2.676 1.228 5.532 2.774 10.994 4.256 16.741m-8.24-11.02-4.37 18.459h9.797c-1.525-6.449-2.99-12.657-4.497-18.856-.02-.08-.555-.034-.93.398z" style="stroke-width:.644253"/><path fill="#7e7f83" d="M474.986 226.464c1.673-6.471 3.358-12.67 4.78-18.928.482-2.117 1.73-2.063 3.29-2.031 1.498.03 2.803-.207 3.339 1.958 3.465 14.018 7.095 27.995 10.77 42.38l-4.529 1.272c-1.052-4.309-2.135-8.3-2.962-12.342-.348-1.7-1.013-2.234-2.74-2.288-9.913-.31-9.91-.356-12.091 9.19-.378 1.655-.77 3.307-1.243 5.329l-4.59-1.037c2.013-7.952 3.95-15.603 5.976-23.503m4.869-1.26-1.586 7.065h9.714l-4.534-19.3-.689.02c-.942 3.894-1.884 7.788-2.905 12.214zM462.953 291.624c.46 5.56-1.944 9.291-6.804 11.79l8.384 13.92-4.01 2.43c-2.158-3.813-4.3-7.581-6.428-11.357-2.775-4.927-2.77-4.93-8.845-3.998v14.218h-4.475v-34.98c5.281.231 10.617.127 15.85.812 3.582.47 5.633 3.28 6.328 7.165m-8.173 7.37c2.891-1.502 3.975-4.068 3.086-6.97-.452-1.476-2.088-3.363-3.46-3.621-2.938-.554-6.052-.17-9.08-.17v11.74c3.124-.275 6.041-.532 9.454-.98z" style="stroke-width:.644253"/><path fill="#7d7e82" d="M244.796 233.948c-1.249.055-2.184.11-3.406.183v16.037h-4.533v-34.757h4.478v14.04h13.578v-14.009h4.466v34.703h-4.337v-16.197h-10.246zM406.437 219.495h-6.319v10.194h13.773v4.173h-13.77v12.281h16.792v4.01h-21.594v-34.656h21.576v3.998h-10.458z" style="stroke-width:.644253"/><path fill="#7f8083" d="M632.254 319.423c-5.368-.995-8.344-4.285-9.736-9.049-1.847-6.323-1.881-12.704.324-18.959 1.862-5.283 6.111-8.324 11.094-8.223 4.834.097 8.987 3.18 10.726 8.31 2.2 6.493 2.168 13.098.026 19.584-1.97 5.97-5.814 8.47-12.434 8.337m5.033-30.72c-4.157-1.92-7.516-1.205-9.166 2.558-2.972 6.776-3.085 13.785.17 20.493 2.132 4.391 7.669 4.525 10.58.598 3.578-4.824 3.566-19.62-1.584-23.65z" style="display:inline;stroke-width:.644253"/><path fill="#7e7f83" d="M230.575 292.267c-.857-.702-1.453-1.462-2.139-2.131-4.443-4.337-10.117-3.153-12.274 2.703-2.03 5.51-1.946 11.199-.197 16.738 1.684 5.335 7.172 7.23 11.979 4.345.603-.362 1.201-1.255 1.243-1.936.15-2.438.058-4.892.058-7.61h-8.19l-.22-4.155H233.83c0 4.956.041 9.735-.052 14.511-.01.602-.59 1.408-1.137 1.752-8.525 5.358-18.735 3.818-21.623-6.784-1.62-5.952-1.65-11.882.34-17.72 1.689-4.955 4.985-8.256 10.454-8.677 5.302-.407 9.248 1.96 12.447 6.623-1.25.84-2.358 1.583-3.684 2.341zM188.113 289.919c-1.073.981-2.095 1.73-3.248 2.574-.957-1.02-1.745-2.005-2.676-2.829-3.972-3.517-9.418-2.537-11.424 2.326-2.507 6.074-2.514 12.395-.131 18.507 1.838 4.714 7.865 6.245 11.892 3.276.5-.37.907-1.19.935-1.82.107-2.44.043-4.887.043-7.599h-8.195l-.197-3.88h12.973c0 4.729.042 9.51-.053 14.288-.01.597-.607 1.393-1.158 1.739-8.253 5.195-18.602 4.048-21.627-6.822-1.617-5.813-1.617-11.665.279-17.421 1.679-5.099 4.956-8.569 10.57-8.946 5.24-.352 9.356 1.767 12.017 6.607z" style="stroke-width:.644253"/><path fill="#7f7f83" d="M325.977 301.576c-.823 4.143-1.004 8.27-2.598 11.751-3.62 7.902-14.329 8.34-19.175 1.11-4.239-6.324-4.217-19.867.042-26.162 4.748-7.017 14.994-6.896 18.84.683 1.852 3.652 1.981 8.178 2.891 12.618m-15.491 12.72c4.462 1.688 7.843.288 9.393-4.226 1.968-5.734 1.927-11.578.024-17.337-.976-2.953-2.93-5.024-6.246-5.196-2.844-.149-5.305 1.87-6.468 5.323-1.831 5.437-1.813 10.982-.167 16.42.523 1.727 2.01 3.162 3.463 5.016z" style="stroke-width:.644253"/><path fill="#808184" d="M606.337 224.056c2.77 8.577 5.453 16.912 8.227 25.525l-4.507 1.526c-.868-2.627-1.817-5.089-2.474-7.625-.474-1.83-1.203-2.744-3.275-2.6-3.096.214-6.87-.92-9.123.49-1.991 1.247-2.29 5.19-3.351 7.936-.19.49-.452.951-.802 1.678l-4.42-1.395c2.612-8.153 5.117-15.983 7.63-23.811.917-2.855 2.034-5.661 2.73-8.569.614-2.562 2.446-1.814 4.043-1.971 1.686-.166 2.822.176 3.249 2.132.477 2.188 1.31 4.299 2.073 6.684m-5.004-.855-.822-2.036-4.72 15.274h9.512c-1.326-4.464-2.564-8.631-3.97-13.238z" style="stroke-width:.644253"/><path fill="#7e7f83" d="M296.498 219.601c4.235 8.005 4.124 16.07 1.18 24.124-1.591 4.35-4.823 6.91-9.744 7.08-5.084.174-8.856-1.915-10.83-6.487-3.342-7.747-3.411-15.755.155-23.38 3.655-7.813 13.365-8.416 19.239-1.337m-6.498.07c-4.658-1.306-7.536-.01-9.063 4.473-1.957 5.74-1.929 11.59-.023 17.35.981 2.965 3.01 5.051 6.311 5.08 3.323.03 5.37-2.06 6.343-5.024 1.965-5.975 2.003-12.027-.224-17.937-.53-1.407-1.9-2.497-3.344-3.941z" style="display:inline;stroke-width:.644253"/><path fill="#808185" d="M180.376 244.102c-2.47 5.576-7.099 7.715-13.663 6.542-4.658-.833-7.754-4.14-7.925-9.52-.268-8.45-.071-16.916-.071-25.624h4.724v19.962c.001 1.501-.037 3.005.028 4.504.22 5.016 2.2 6.816 7.05 6.47 3.897-.277 5.452-1.859 5.501-6.023.084-7.078.024-14.158.025-21.237v-3.708h4.79c0 .975.013 1.993-.002 3.01-.13 8.456-.264 16.912-.457 25.624z" style="stroke-width:.644253"/><path fill="#7e7f83" d="M503.396 296.068c2.378 7.36 4.65 14.487 7.031 21.954l-4.453 1.758c-.933-2.903-1.915-5.588-2.637-8.34-.436-1.665-1.245-2.232-2.927-2.145-2.46.128-4.94.159-7.395-.016-1.926-.13-2.92.506-3.403 2.406-.657 2.58-1.555 5.1-2.471 8.037l-4.556-1.6c1.574-4.975 3.095-9.828 4.642-14.671 1.857-5.81 3.844-11.582 5.547-17.436.607-2.09 1.814-2.293 3.56-2.227 1.724.066 3.295-.193 3.866 2.243.78 3.324 2.038 6.536 3.196 10.029m-4.695.495-2.232-7.179-4.708 15.61h9.542c-.876-2.89-1.644-5.421-2.602-8.43zM406.444 314.585h10.544v4.054h-21.43v-34.627h21.53l.214 3.933h-17.136v10.29h13.843v4.037H400.17v12.313h6.273z" style="stroke-width:.644253"/><path fill="#7f8084" d="M371.62 231.96c4.564 2.293 5.896 5.926 5.225 10.543-.611 4.2-3.091 6.889-7.063 7.844-4.68 1.126-9.328.853-12.627-3.28-1.412-1.769-2.174-4.056-3.402-6.437l4.3-1.477c2.675 6.317 4.712 7.855 9.27 7.194 2.605-.379 4.385-1.727 4.92-4.366.524-2.589-.305-4.763-2.683-5.99-2.468-1.272-5.088-2.248-7.624-3.393-5.359-2.418-7.36-5.92-6.248-10.87.988-4.4 5.304-7.3 10.572-7.103 5.36.2 9.111 3.51 9.886 8.965l-3.924 1.293c-1.243-3.774-3.353-6.534-7.485-5.598-1.682.381-3.932 2.008-4.28 3.462-.348 1.449.914 4.034 2.268 4.979 2.593 1.81 5.75 2.81 8.895 4.234zM551.726 226.864c-1.005-7.004 1.808-11.125 7.998-12.11 6.153-.978 11.034 2.373 12.37 8.77l-3.94 1.337c-1.344-3.176-2.845-5.967-6.856-5.752-2.494.133-4.494.964-5.188 3.473-.704 2.546.569 4.405 2.807 5.511 2.685 1.328 5.465 2.46 8.18 3.73 4.694 2.197 6.564 6.103 5.504 11.388-.842 4.204-4.65 7.312-9.25 7.551-7.627.396-11.936-2.921-13.134-10.355l3.721-1.25c2.499 6.288 4.603 7.868 9.258 7.19 2.623-.383 4.359-1.787 4.881-4.398.515-2.573-.301-4.759-2.7-5.971-2.766-1.398-5.821-2.286-8.427-3.913-1.971-1.23-3.434-3.276-5.224-5.2z" style="stroke-width:.644253"/><path fill="#7c7d81" d="M320.047 216.138c.043 8.131-.008 15.964.073 23.796.054 5.312 3.09 7.595 8.229 6.376 3.266-.775 4.5-2.38 4.538-6.375.068-7.081.02-14.163.021-21.245v-3.275h4.312c.086.652.26 1.362.262 2.072.02 7.725.052 15.451 0 23.176-.043 6.505-4.029 10.107-11.038 10.106-7.068 0-10.887-3.51-10.92-10.15-.042-8.34-.01-16.682-.01-25.547 1.743.297 3.12.532 4.533 1.066z" style="stroke-width:.644253"/><path fill="#7b7c80" d="M687.866 215.26c1.245.057 2.18.113 3.205.175v3.824h-17.01v10.457h13.762v4.204H674.03v12.205h16.988v3.94h-21.502V215.26h18.35z" style="stroke-width:.644253"/><path fill="#7f8083" d="M632.098 230.403c.236 3.25.294 6.266.86 9.183.616 3.175 2.227 5.87 5.713 6.663 3.67.834 6.465-.68 8.625-3.597.375-.506.776-.993 1.332-1.702l3.672 2.53c-2.32 3.738-5.012 6.648-9.405 7.205-4.704.596-8.97-.312-12.006-4.428-4.697-6.368-4.962-19.803-.431-26.293 2.664-3.816 6.4-5.637 11.046-5.256 4.722.386 7.754 3.14 9.824 7.503l-3.866 2.005c-.325-.348-.66-.603-.86-.939-1.66-2.79-3.896-4.614-7.34-4.097-3.554.534-5.225 3.082-6.131 6.245-.44 1.535-.665 3.13-1.033 4.978z" style="stroke-width:.644253"/><path fill="#848588" d="M258.987 295.148v-11.115h4.663v30.434h18.117v4.226h-22.78v-23.545z" style="stroke-width:.644253"/><path fill="#818185" d="M585.632 291.993v-3.72l-4.535-.339c-.886-3.922-.743-4.116 3.053-4.124 3.525-.008 7.05-.002 10.812-.002v4.103l-4.591.299v26.153l4.569.376v3.908h-14.064v-3.886l4.756-.362v-22.407z" style="stroke-width:.644253"/><path fill="#7f8084" d="M517.967 225.57v20.53h18.283v4.022h-22.51v-34.679h4.227v10.127z" style="stroke-width:.644253"/><path fill="#7b7c80" d="M204.776 232.655v13.454h17.994v3.892h-22.324v-34.482h4.33v17.136zM544.492 303.523v15.164h-4.136v-30.541h-9.596v-3.943h23.046v3.737h-9.314v15.583z" style="stroke-width:.644253"/><path fill="#818185" d="M410.148 272.615c.928 1.242 1.632 2.386 2.565 3.902-3.98 1.755-7.598 3.5-11.351 4.874-.745.273-2.011-.881-3.037-1.378.01-.382.018-.765.027-1.148 3.857-2.115 7.714-4.231 11.796-6.25z" style="stroke-width:.644253"/></svg>