<svg viewBox="0 0 800 320" xml:space="preserve" xmlns="http://www.w3.org/2000/svg"><defs><path id="a" d="M100.3-65.5h594.1v594.1H100.3z"/></defs><path d="M.32.48h800v320H.32z" fill="#fff" style="fill:none"/><g clip-path="url(#clipPath3)" transform="matrix(8.24777 0 0 -8.24777 -274.386 4918.374)"><g style="fill:#abd91a;fill-opacity:1"><path d="M0 0c0 1.935-1.609 3.503-3.593 3.503-1.985 0-3.593-1.568-3.593-3.503s1.608-3.503 3.593-3.503C-1.61-3.503 0-1.935 0 0" style="fill:#abd91a;fill-opacity:1;fill-rule:nonzero;stroke:none" transform="translate(54.74 577.066)"/></g><path d="M0 0c-9.875 0-17.909 7.833-17.909 17.461 0 9.629 8.034 17.462 17.909 17.462 3.547 0 6.978-1.01 9.92-2.921a1.677 1.677 0 0 0 .485-2.361 1.773 1.773 0 0 0-2.421-.474A14.603 14.603 0 0 1 0 31.518c-7.95 0-14.416-6.306-14.416-14.057 0-7.75 6.467-14.055 14.416-14.055 2.86 0 5.623.814 7.99 2.354a1.774 1.774 0 0 0 2.423-.471 1.677 1.677 0 0 0-.484-2.361A18.159 18.159 0 0 0 0 0" style="fill:#072e52;fill-opacity:1;fill-rule:nonzero;stroke:none" transform="translate(51.183 559.618)"/><g style="fill:#abd91a;fill-opacity:1"><path d="M0 0c-.965 0-1.746.762-1.746 1.703 0 .94.781 1.703 1.746 1.703 3.999 0 7.252 3.171 7.252 7.07 0 3.899-3.253 7.07-7.252 7.07-3.999 0-7.252-3.171-7.252-7.07 0-1.4.418-2.752 1.21-3.911a1.678 1.678 0 0 0-.487-2.362 1.775 1.775 0 0 0-2.421.475 10.247 10.247 0 0 0-1.795 5.798c0 5.777 4.82 10.476 10.745 10.476 5.924 0 10.745-4.699 10.745-10.476C10.745 4.7 5.925 0 0 0" style="fill:#abd91a;fill-opacity:1;fill-rule:nonzero;stroke:none" transform="translate(51.174 566.603)"/></g><path d="M0 0v-9.424c0-.675-.511-1.194-1.181-1.194-.688 0-1.2.519-1.2 1.194v5.636l-2.187-3.37c-.335-.52-.652-.744-1.129-.744-.458 0-.793.224-1.128.743l-2.187 3.407v-5.672c0-.675-.511-1.194-1.181-1.194-.688 0-1.2.519-1.2 1.194V0c0 .692.494 1.21 1.164 1.21.512 0 .847-.242 1.253-.899l3.28-5.101L-2.417.31c.423.657.74.9 1.252.9C-.494 1.21 0 .69 0 0" style="fill:#072e52;fill-opacity:1;fill-rule:nonzero;stroke:none" transform="matrix(1.7992 0 0 1.7992 87.176 585.377)"/><path d="M12.894 16.432c0-.208-.035-.433-.141-.623L8.785 6.523c-.23-.536-.6-.795-1.129-.795-.528 0-.917.259-1.128.795l-3.986 9.286a1.53 1.53 0 0 0-.14.623c0 .622.51 1.124 1.18 1.124.512 0 .9-.294 1.112-.83l2.962-7.143 2.946 7.143c.23.536.617.83 1.128.83.67 0 1.164-.502 1.164-1.124" style="fill:#072e52;fill-opacity:1;fill-rule:nonzero;stroke:none" transform="matrix(1.7992 0 0 1.7992 85.56 555.969)"/><path d="M0 0c0-.207-.035-.432-.141-.622L-4.11-9.91c-.23-.536-.6-.795-1.129-.795s-.917.259-1.128.795l-3.986 9.287a1.53 1.53 0 0 0-.141.622c0 .622.511 1.124 1.181 1.124.512 0 .9-.294 1.111-.83l2.963-7.142L-2.293.294c.23.536.618.83 1.129.83C-.494 1.124 0 .622 0 0" style="fill:#072e52;fill-opacity:1;fill-rule:nonzero;stroke:none" transform="matrix(1.7992 0 0 1.7992 130.258 585.533)"/></g></svg>