<svg version="1.0" width="800" height="320" xmlns="http://www.w3.org/2000/svg"><defs><clipPath id="c"><path d="M26.362 269.955h15.209v-16.038H26.362z"/></clipPath><clipPath id="b"><path d="M.03 836.22h843.3V0H.03z"/></clipPath><clipPath id="a"><path d="M0 836.22h843.305V.002H0z"/></clipPath></defs><path d="M0 0h800v320H0z" fill="#fff" style="stroke-width:1.06667"/><g clip-path="url(#a)" transform="matrix(19.83282 0 0 -19.83282 -289.66 5355.495)"><g clip-path="url(#b)"><path d="M26.362 253.917h15.209v16.038H26.362z" style="fill:#fff;fill-opacity:1;fill-rule:nonzero;stroke:none"/></g></g><g clip-path="url(#c)" transform="matrix(19.83282 0 0 -19.83282 -289.66 5355.495)"><path d="M0 0a.904.904 0 0 0-.904-.904H-83.14a.904.904 0 0 0-.904.904v57.272c0 .499.405.904.904.904H-.904A.904.904 0 0 0 0 57.272z" style="fill:none;stroke:#000;stroke-width:.00712922;stroke-linecap:butt;stroke-linejoin:miter;stroke-miterlimit:4;stroke-dasharray:none;stroke-opacity:1" transform="translate(49.784 234.142)"/></g><path d="M0 0c0-.111.053-.179.132-.179.072 0 .167.056.215.154v.266C.117.23 0 .149 0 0" style="fill:#ee3424;fill-opacity:1;fill-rule:nonzero;stroke:none" transform="matrix(19.83282 0 0 -19.83282 425.848 63.781)"/><path d="M0 0h-.154a.284.284 0 0 1-.163-.047c-.086-.064-.153-.14-.31-.14-.221 0-.389.151-.389.336 0 .266.232.417.694.439v.123c0 .224-.031.336-.14.336-.118 0-.109-.112-.126-.215C-.605.731-.666.686-.778.683l-.177.171c.006.204.194.341.496.341.338 0 .459-.142.459-.501zm-1.117 1.005h-.338V.168c.013-.134.078-.196.215-.204v-.12h-.336c-.12 0-.198.117-.198.319v.842h-.14c-.051.006-.079.036-.079.084 0 .042.025.073.073.087.196 0 .266.168.266.526v.084h.199v-.61h.338zM-2.628-.174c-.24 0-.403.098-.403.216 0 .039.025.056.084.056.011 0 .025 0 .042-.003a.422.422 0 0 1 .244-.09c.123 0 .19.059.19.137 0 .112-.107.165-.263.266-.199.126-.308.232-.308.409 0 .243.174.389.484.389.101 0 .199-.026.302-.054V.864h-.115c0 .118-.067.174-.204.174-.112 0-.173-.051-.173-.137 0-.059.061-.121.185-.196.111-.067.187-.107.218-.135a.439.439 0 0 0 .168-.349c0-.235-.182-.395-.451-.395m-1.599-.017a.97.97 0 0 0 0 1.937.97.97 0 0 0 0-1.937m-1.202.035h-.291c-.143 0-.212.101-.212.296v.028l-.003.434v.812c0 .17-.011.232-.174.232h-.022v.14h.509V.168c0-.154.028-.204.168-.204h.025zm-1.287-.031c-.422 0-.68.271-.68.714 0 .433.207.665.588.665.307 0 .506-.184.506-.389 0-.123-.078-.198-.215-.198h-.442c-.071 0-.093-.028-.093-.095 0-.095.045-.244.098-.325a.404.404 0 0 1 .358-.193c.104 0 .177.034.23.034.022 0 .045-.017.064-.051.003-.005.003-.014.003-.019 0-.076-.151-.143-.417-.143m-.02 2.001c.071 0 .121-.051.121-.124a.44.44 0 0 0-.028-.103l-.093-.266h-.243c.112.33.123.493.243.493M3.764.711a2.302 2.302 0 0 0-1.221-.807c-.32-.077-.822-.06-.822-.06h-.389c-.093 0-.143.078-.143.226v.493c0 .274-.025.389-.143.389C1.004.952.951.924.898.865A.545.545 0 0 1 .747.527v-.683H.434L.431.801c0 .176-.009.232-.191.232H.226v.131h.521V.918l.011.017c.115.176.249.26.425.26.224 0 .336-.14.336-.417V.171c0-.154.033-.205.176-.205h.026s.411-.039.753.111c.345.152.66.417.839.688.178.271.268.55.268.837a.2.2 0 0 1-.036.127c-.024.028-.047.041-.072.041a.215.215 0 0 1-.091-.035.712.712 0 0 0-.369-.088.702.702 0 0 0-.526.236.784.784 0 0 0-.223.554c0 .093.015.182.045.265H-9.566V1.164h1.068l.363-.934.336.901c.014.036.048.059.093.059a.093.093 0 0 0 .095-.093c0-.011-.003-.022-.006-.033L-8.031-.05c-.034-.092-.073-.137-.151-.137-.079 0-.12.045-.157.137l-.341.862c-.056.143-.073.218-.244.218h-.642v-2.06h13.61v2.217a2.078 2.078 0 0 0-.28-.476" style="fill:#ee3424;fill-opacity:1;fill-rule:nonzero;stroke:none" transform="matrix(19.83282 0 0 -19.83282 439.117 67.669)"/><path d="M0 0a.705.705 0 0 1 0-1.408A.704.704 0 0 1 0 0" style="fill:#ee3424;fill-opacity:1;fill-rule:nonzero;stroke:none" transform="matrix(19.83282 0 0 -19.83282 355.283 38.296)"/><path d="M0 0c.084 0 .143-.047.177-.142a.274.274 0 0 0 .019-.087c0-.037-.042-.045-.134-.045-.031 0-.059.003-.09.003h-.199C-.196-.092-.12 0 0 0" style="fill:#ee3424;fill-opacity:1;fill-rule:nonzero;stroke:none" transform="matrix(19.83282 0 0 -19.83282 303.976 46.963)"/><path d="M27.186 254.632h13.605v11.029H27.186z" style="fill:#73b74a;fill-opacity:1;fill-rule:nonzero;stroke:none" transform="matrix(19.83282 0 0 -19.83282 -289.66 5355.495)"/><path d="M0 0a1.145 1.145 0 0 0-1.319.975 1.156 1.156 0 0 0 .974 1.33A1.165 1.165 0 0 0 .986 1.32 1.154 1.154 0 0 0 0 0m.048-6.673-.642 4.294-.939-.141-.193 1.289 2.919.571.855-5.714" style="fill:#fff;fill-opacity:1;fill-rule:nonzero;stroke:none" transform="matrix(19.83282 0 0 -19.83282 361.967 147.139)"/><path d="M0 0c-.277-.164-.593-.368-.91-.415-.186-.028-.249.175-.282.394l-.961 6.423-1.626-.243V3.832l.64-4.279c.175-1.169 1.056-1.685 2.203-1.513a3.476 3.476 0 0 1 1.72.749" style="fill:#fff;fill-opacity:1;fill-rule:nonzero;stroke:none" transform="matrix(19.83282 0 0 -19.83282 324.463 253.026)"/><path d="M0 0c-.338-.051-.539.243-.591.592L-.9 2.657c.135.065.28.143.477.172.633.095.855-.565.968-1.318C.644.844.612.091 0 0m2.195 3.206C1.739 4.057.984 4.559-.023 4.408c-.579-.087-.854-.34-1.059-.683l-.452 3.015-1.977-.296.915-6.118C-2.4-.985-1.22-1.702.135-1.499c.947.141 1.64.579 2.06 1.19" style="fill:#fff;fill-opacity:1;fill-rule:nonzero;stroke:none" transform="matrix(19.83282 0 0 -19.83282 475.807 233.55)"/></svg>