<svg width="800" height="320" xml:space="preserve" style="clip-rule:evenodd;fill-rule:evenodd;stroke-linejoin:round;stroke-miterlimit:2" xmlns="http://www.w3.org/2000/svg"><path d="M0 0h800v320H0z" fill="#fff" image-rendering="optimizeQuality" shape-rendering="geometricPrecision" style="clip-rule:evenodd;display:inline;fill:none;fill-rule:evenodd;stroke-width:1;stroke-linejoin:round;stroke-miterlimit:2"/><path d="M93.804 18.384c-2.945 0-5.033 1.603-6.151 3.504v-3.132c-.553 0-1.9.207-2.46.797v18.663h2.46v-11.78c0-3.579 2.833-5.741 5.554-5.741 3.244 0 4.549 2.274 4.549 5.293v12.228h2.461V25.429c0-4.138-2.2-7.045-6.413-7.045zM116.269 31.767c0 2.572-2.498 4.771-5.779 4.771-2.46 0-4.026-1.379-4.026-3.504 0-2.907 2.424-3.84 6.301-4.622l3.504-.746zm2.46 2.982V24.386c0-3.915-2.535-6.002-6.673-6.002-3.727 0-6.561 2.087-7.493 5.219l2.349.708c.633-2.423 2.386-3.728 5.07-3.728 2.833 0 4.287 1.379 4.287 3.914v1.193l-4.213.858c-4.846.969-8.089 2.609-8.089 6.524 0 3.578 2.87 5.517 6.262 5.517 2.759 0 5.071-1.305 6.189-2.908.186 2.162 1.901 2.982 4.735 2.572v-2.087c-1.38.41-2.424-.038-2.424-1.417zM127.462 33.407V20.881h4.698v-2.125h-4.698v-5.629l-.002.002v-.001c-.544 0-1.869.203-2.42.784v.645h-.001v4.199h-3.243v2.125h3.243V33.78c0 3.504 1.79 4.622 4.809 4.622 1.118 0 1.939-.111 2.833-.335v-2.162a8.662 8.662 0 0 1-2.349.298c-1.864 0-2.87-.559-2.87-2.796zM160.046 22.447v-3.691c-.553 0-1.901.208-2.461.798v18.662h2.461V27.293c0-3.728 2.423-6.263 5.256-6.263.597 0 1.081.038 1.603.15v-2.461a6.912 6.912 0 0 0-1.417-.149c-2.758 0-4.585 1.752-5.442 3.877zM253.214 27.643c-2.269 0-3.349-.864-3.349-2.196 0-1.332 1.08-2.269 3.349-2.269 2.232 0 3.24.937 3.24 2.269s-1.008 2.196-3.24 2.196zm.036 10.659c3.131 0 4.249.577 4.249 1.621s-1.118 1.62-4.249 1.62c-3.133 0-4.286-.576-4.286-1.62s1.153-1.621 4.286-1.621zm8.534-20.453c-2.413 1.26-5.474 1.26-8.57 1.26-4.934 0-8.535 2.377-8.535 6.374 0 1.944.865 3.205 2.305 4.177-2.089.612-3.385 1.909-3.385 3.853 0 1.765 1.08 2.953 2.665 3.673-1.909.792-2.989 2.017-2.989 3.709 0 2.233 2.629 4.429 10.011 4.429 6.948 0 9.974-2.376 9.974-5.941 0-3.385-3.061-5.654-8.894-5.654h-1.08c-1.765 0-4.79.072-4.79-1.008 0-1.224 2.413-1.116 4.357-1.116 5.186 0 8.751-2.089 8.751-5.51 0-1.476-.576-2.485-1.693-3.277 1.224-.252 2.413-.576 3.421-1.008zM269.167 10.254a2.957 2.957 0 1 0 0 5.914 2.957 2.957 0 0 0 0-5.914zM173.435 26.43c.613-2.307 2.163-3.497 4.182-3.497 2.451 0 3.641 1.623 3.677 3.497zm4.218-7.534c-5.372 0-9.23 4.254-9.23 9.842 0 5.877 3.822 9.878 9.41 9.878 3.786 0 6.995-1.947 8.364-5.408l-4.254-1.514c-.577 1.839-2.127 2.776-4.074 2.776-2.488 0-4.254-1.73-4.615-4.615h13.051v-1.478c0-5.299-3.028-9.481-8.652-9.481zM214.571 26.43c.613-2.307 2.163-3.497 4.183-3.497 2.451 0 3.641 1.623 3.677 3.497zm4.218-7.534c-5.372 0-9.229 4.254-9.229 9.842 0 5.877 3.821 9.878 9.41 9.878 3.785 0 6.994-1.947 8.364-5.408l-4.254-1.514c-.577 1.839-2.128 2.776-4.075 2.776-2.487 0-4.254-1.73-4.614-4.615h13.051v-1.478c0-5.299-3.029-9.481-8.653-9.481zM235.842 21.924v-2.633l.002-.143s-3.391.043-5.047 1.064l-.001.445h-.001V38.22h5.047v-9.626c0-2.921 2.019-4.543 4.651-4.543.613 0 1.046.036 1.622.108V19.22c-.36-.036-.721-.072-1.226-.072-2.343 0-4.218 1.117-5.047 2.776zM279.657 26.43c.613-2.307 2.164-3.497 4.183-3.497 2.451 0 3.641 1.623 3.677 3.497zm12.871 1.947c0-5.299-3.028-9.481-8.652-9.481-5.372 0-9.23 4.254-9.23 9.842 0 5.877 3.822 9.878 9.41 9.878 3.786 0 6.994-1.947 8.364-5.408l-4.254-1.514c-.577 1.839-2.127 2.776-4.074 2.776-2.488 0-4.254-1.73-4.615-4.615h13.051zM199.898 18.896c-2.416 0-4.146 1.081-5.192 2.307l.003-.221.029-2.184s-3.391.063-5.047 1.083l-.002 1.101-.03 17.238h5.047V27.26c0-2.488 1.731-3.75 3.497-3.75 2.163 0 3.029 1.514 3.029 3.642V38.22h5.047V25.709c0-4.11-2.415-6.813-6.381-6.813zM266.645 19.881l-.002 1.101h.001v17.291h5.047V19.309l-.006.001.007-.493s-3.391.044-5.047 1.064zM148.825 19.554v11.02c0 3.616-2.796 5.741-5.518 5.741-3.243 0-4.585-2.163-4.585-5.182V18.756c-.553 0-1.9.208-2.46.798V31.58c0 4.138 2.274 7.009 6.449 7.009 2.945 0 5.033-1.603 6.114-3.504v3.131h2.46v-19.46c-.553 0-1.9.208-2.46.798z" style="fill:#01354d;fill-rule:nonzero" transform="matrix(1.802 0 0 1.802 4.538 110.505)"/><path d="M63.978 23.14c-1.03.3-2.11-.289-2.41-1.319-3.78-12.967-17.35-20.415-30.31-16.636-8.85 2.57-15.12 9.708-17.02 18.095-1.49.43-2.9.94-4.23 1.49 1.49-10.717 9.09-20.105 20.16-23.324 15.03-4.379 30.76 4.259 35.14 19.285a1.94 1.94 0 0 1-1.33 2.409z" style="fill:url(#a)" transform="matrix(1.802 0 0 1.802 4.538 110.505)"/><path d="m61.96 34.014-.012.004c-1.9 8.387-8.18 15.526-17.02 18.105-12.97 3.769-26.54-3.679-30.31-16.636a1.948 1.948 0 1 0-3.74 1.09c4.37 15.026 20.11 23.663 35.14 19.285 11.069-3.229 18.659-12.606 20.149-23.333a38.502 38.502 0 0 1-4.207 1.485z" style="fill:url(#b)" transform="matrix(1.802 0 0 1.802 4.538 110.505)"/><path d="M54.389 35.152c-6.799 0-11.575-2.192-15.789-4.126l-1.311-.599c-.442-.199-.887-.403-1.336-.609-4.039-1.853-8.216-3.77-14.162-3.77-9.28 0-18.576 6.923-18.669 6.993a1.95 1.95 0 0 1-2.349-3.11c.419-.317 10.413-7.78 21.018-7.78 6.798 0 11.574 2.192 15.788 4.126l1.312.598c.442.2.886.403 1.335.609 4.039 1.854 8.216 3.77 14.163 3.77 9.31 0 18.575-6.921 18.667-6.991a1.949 1.949 0 1 1 2.351 3.109c-.421.317-10.414 7.78-21.018 7.78z" style="fill:url(#c)" transform="matrix(1.802 0 0 1.802 4.538 110.505)"/><path d="m344.369 31.781 2.574-.858c.286 1.387 1.364 2.135 2.773 2.135 1.143 0 1.847-.33 1.847-.903 0-.572-.55-.814-1.826-1.122l-1.1-.263c-2.707-.661-3.873-1.761-3.873-3.631 0-2.113 1.849-3.499 4.731-3.499 2.772 0 4.731 1.452 5.017 3.697l-2.663.704c-.198-1.276-1.143-1.826-2.354-1.826-1.056 0-1.694.374-1.694.857 0 .616.704.792 2.068 1.122l1.1.265c2.42.572 3.653 1.782 3.653 3.542 0 2.179-1.958 3.631-4.906 3.631-2.487 0-4.753-1.254-5.347-3.851zM366.479 27.887v7.459h-3.234v-6.887c0-1.32-.748-2.024-1.695-2.024-1.166 0-2.023.769-2.023 2.221v6.69h-3.235V19.943h3.235v5.347c.66-1.187 1.738-1.672 2.992-1.672 2.267 0 3.96 1.694 3.96 4.269zM375.432 32.001c0-.836-.813-1.32-2.068-1.32-1.254 0-2.068.484-2.068 1.32 0 .836.814 1.32 2.068 1.32 1.255 0 2.068-.484 2.068-1.32zm3.169-3.851v7.196h-2.992v-1.101c-.704.925-1.849 1.387-3.301 1.387-2.728 0-4.335-1.387-4.335-3.587 0-2.112 1.695-3.586 4.621-3.586 1.189 0 2.134.33 2.773.924v-.924c0-1.276-.683-1.959-2.112-1.959-1.145 0-1.914.616-2.333 1.673l-2.684-1.166c.857-2.487 2.882-3.389 5.148-3.389 2.839 0 5.215 1.474 5.215 4.532zM387.159 23.618v3.477h-1.254c-1.188 0-2.068.792-2.068 2.31v5.941h-3.235v-11.42h3.235v1.496c.637-1.276 1.628-1.804 2.772-1.804zM391.8 23.926v11.42h-3.235v-11.42zm-3.63-2.794c0-1.189.902-1.893 2.046-1.893 1.122 0 2.024.704 2.024 1.893 0 1.188-.902 1.847-2.024 1.847-1.144 0-2.046-.659-2.046-1.847zM404.099 27.887v7.459h-3.234v-6.887c0-1.32-.748-2.024-1.694-2.024-1.166 0-2.024.769-2.024 2.221v6.69h-3.234v-11.42h3.234v1.364c.66-1.187 1.738-1.672 2.992-1.672 2.267 0 3.96 1.694 3.96 4.269zM413.426 27.49c0-.813-.615-1.386-1.979-1.386-1.387 0-2.047.573-2.047 1.386 0 .815.66 1.343 2.047 1.343 1.364 0 1.979-.528 1.979-1.343zm.639 8.846c0-.639-.682-.99-2.597-.99-1.914 0-2.618.351-2.618.99 0 .638.704.99 2.618.99 1.915 0 2.597-.352 2.597-.99zm-8.691.594c0-1.035.66-1.783 1.826-2.266-.968-.44-1.628-1.167-1.628-2.245 0-1.188.792-1.98 2.068-2.355-.881-.593-1.408-1.363-1.408-2.551 0-2.443 2.2-3.895 5.215-3.895 1.892 0 3.762 0 5.236-.77l.947 2.421c-.617.263-1.343.461-2.091.616.682.483 1.034 1.099 1.034 2.002 0 2.09-2.178 3.366-5.347 3.366-1.187 0-2.662-.066-2.662.683 0 .66 1.849.616 2.927.616h.66c3.565 0 5.435 1.385 5.435 3.454 0 2.179-1.849 3.631-6.095 3.631-4.511 0-6.117-1.343-6.117-2.707z" style="fill:#099fac;fill-rule:nonzero" transform="matrix(1.802 0 0 1.802 4.538 110.505)"/><path d="M342.134 9.894c-10.343 0-18.759 8.416-18.759 18.76 0 10.344 8.416 18.76 18.759 18.76h76.536c10.343 0 18.759-8.416 18.759-18.76 0-10.344-8.416-18.76-18.759-18.76zm76.536 40.02h-76.536c-11.722 0-21.259-9.537-21.259-21.26s9.537-21.26 21.259-21.26h76.536c11.722 0 21.259 9.537 21.259 21.26s-9.537 21.26-21.259 21.26z" style="fill:#fdb932;fill-rule:nonzero" transform="matrix(1.802 0 0 1.802 4.538 110.505)"/><defs><linearGradient id="a" x1="0" y1="0" x2="1" y2="0" gradientUnits="userSpaceOnUse" gradientTransform="translate(10.008 12.538) scale(55.3781)"><stop offset="0" style="stop-color:#29bdbe;stop-opacity:1"/><stop offset=".3" style="stop-color:#29bdbe;stop-opacity:1"/><stop offset=".5" style="stop-color:#62bc97;stop-opacity:1"/><stop offset=".7" style="stop-color:#9eb668;stop-opacity:1"/><stop offset=".8" style="stop-color:#c0b44f;stop-opacity:1"/><stop offset=".9" style="stop-color:#e6b63d;stop-opacity:1"/><stop offset="1" style="stop-color:#fdb932;stop-opacity:1"/></linearGradient><linearGradient id="b" x1="0" y1="0" x2="1" y2="0" gradientUnits="userSpaceOnUse" gradientTransform="translate(10.8 44.764) scale(55.3681)"><stop offset="0" style="stop-color:#0e798c;stop-opacity:1"/><stop offset="1" style="stop-color:#099fac;stop-opacity:1"/></linearGradient><linearGradient id="c" x1="0" y1="0" x2="1" y2="0" gradientUnits="userSpaceOnUse" gradientTransform="translate(0 28.651) scale(76.1809)"><stop offset="0" style="stop-color:#29bdbe;stop-opacity:1"/><stop offset=".5" style="stop-color:#20b8bc;stop-opacity:1"/><stop offset=".7" style="stop-color:#099fac;stop-opacity:1"/><stop offset="1" style="stop-color:#099fac;stop-opacity:1"/></linearGradient></defs></svg>