<svg fill="none" xmlns="http://www.w3.org/2000/svg" viewBox="0 0 800 320"><path d="M0 0h800v320H0Z" fill="#fff" style="stroke-width:.8"/><g clip-path="url(#a)" transform="translate(1.75 88.081) scale(.8723)" fill="#0e1a50"><path d="M865.826 55.404c-26.383 0-47.883 21.186-47.883 47.198 0 26.011 21.472 47.197 47.883 47.197s47.854-21.186 47.854-47.197c0-26.012-21.472-47.198-47.854-47.198zm0 77.092c-16.703 0-30.294-13.42-30.294-29.894 0-16.475 13.591-29.895 30.294-29.895 16.703 0 30.294 13.42 30.294 29.895 0 16.474-13.591 29.894-30.294 29.894zM864.855 24.254v15.218c0 .543-.457 1-1.056 1.028-11.793.371-23.156 3.969-32.921 10.393a80.81 80.81 0 0 0-3.37 2.37c-.485.343-1.113.286-1.484-.143l-9.765-11.792a1.116 1.116 0 0 1-.229-.77.958.958 0 0 1 .4-.686c1.513-1.17 3.112-2.284 4.683-3.34 12.648-8.338 27.41-12.935 42.657-13.306h.029c.285 0 .542.114.742.314.2.2.314.485.314.742zM809.435 97.377c0-35.605-26.468-64.586-58.99-64.586h-31.407c-4.283 0-5.34 1.17-5.34 5.91 0 12.392 3.312 24.413 9.537 34.72l.343.571-.4.514c-6.196 8.223-9.48 17.96-9.48 28.124 0 26.04 21.472 47.198 47.883 47.198s47.854-21.186 47.854-47.198zm-17.56 5.225c0 16.475-13.591 29.894-30.294 29.894-16.703 0-30.294-13.419-30.294-29.894 0-4.826 1.142-9.423 3.426-13.734l.571-1.056.914.77c10.136 8.538 22.242 13.078 35.062 13.078h20.672zM82.46 91.523v55.935H60.617V96.035c0-12.878-7.424-21.186-18.873-21.186-11.45 0-19.901 8.85-19.901 22.042v50.567H0V58.774h20.815V75.02h.77l.23-.6c4.567-11.65 15.703-18.073 28.637-18.073 9.794 0 17.988 3.426 23.642 9.879 5.482 6.253 8.366 14.99 8.366 25.269zM247.293 104.144l32.893 43.314h-24.241l-21.301-28.125-20.786 28.125h-23.384l32.721-43.314-34.263-45.37h23.898l22.842 30.008 22.671-30.008h23.213zM324.413 75.163v41.943c0 9.565 4.626 14.619 13.42 14.619 3.084 0 5.911-.399 8.623-1.256l2.627 16.932c-4.94 1.684-10.422 2.455-17.217 2.455-18.074 0-29.267-11.564-29.267-30.18V75.134h-14.847V58.745h14.847V34.533h21.843v24.212h24.755v16.39h-24.755zM444.02 69.195c-7.309-8.28-17.531-12.848-28.781-12.848s-21.471 6.11-26.497 15.218l-.285.486h-2.199V23.11h-21.671v124.29h21.671v-13.334h2.199l.285.485c5.111 9.251 15.504 15.247 26.497 15.247s21.5-4.54 28.781-12.792c7.566-8.565 11.592-20.329 11.592-33.977 0-13.648-4.111-25.469-11.592-33.92zm-34.092 62.387c-14.105 0-24.355-11.963-24.355-28.466 0-16.504 10.25-28.267 24.355-28.267s23.67 11.62 23.67 28.267c0 16.646-9.508 28.466-23.67 28.466zM493.587 58.774h-21.843v88.684h21.843zM496.471 32.22c0 7.224-6.11 12.877-13.905 12.877-7.795 0-14.077-5.54-14.077-12.877 0-7.338 6.196-13.22 14.077-13.22 7.88 0 13.905 5.939 13.905 13.22zM568.366 93.608l27.753 53.85h-21.757l-20.129-40.259-16.732 17.331v22.928h-21.672V23.168h21.672v81.261l40.487-45.655h22.642zM646.172 132.496c-8.966 0-15.961-4.54-20.244-13.134l-.486-.942 34.321-13.334.713-.314 8.566-3.312 20.101-7.795c-3.569-23.356-19.73-37.261-43.371-37.261-11.821 0-22.842 4.625-31.037 13.02-8.451 8.651-13.077 20.615-13.077 33.749 0 13.134 4.226 24.583 11.935 33.092 8.081 8.937 19.216 13.648 32.207 13.648 19.502 0 34.121-7.966 41.344-22.442l-16.788-7.624c-5.311 8.652-12.992 12.678-24.127 12.678zm-23.956-30.123c0-7.852 2.199-15.19 6.167-20.7 4.369-6.053 10.365-9.251 17.389-9.251 10.479 0 17.246 4.34 20.7 13.248l.343.914-37.575 14.59v.057l-6.995 2.741v-1.599zM142.306 132.496c-8.966 0-15.961-4.54-20.244-13.134l-.485-.942 34.32-13.334.713-.314 8.566-3.312 20.073-7.795c-3.569-23.356-19.73-37.261-43.372-37.261-11.82 0-22.842 4.625-31.036 13.02-8.452 8.651-13.077 20.615-13.077 33.749 0 13.134 4.226 24.583 11.935 33.092 8.08 8.937 19.216 13.648 32.207 13.648 19.501 0 34.12-7.966 41.315-22.442l-16.788-7.624c-5.311 8.652-12.992 12.678-24.127 12.678zm-23.984-30.123c0-7.852 2.198-15.19 6.167-20.7 4.368-6.053 10.364-9.251 17.388-9.251 10.479 0 17.246 4.34 20.701 13.248l.343.914-37.576 14.59v.057l-7.023 2.741v-1.599z"/></g><defs><clipPath id="a"><path fill="#fff" d="M0 0h913.68v169.02H0z"/></clipPath></defs></svg>