<svg version="1.1" id="Ebene_1" x="0" y="0" xml:space="preserve" width="800" height="320" xmlns="http://www.w3.org/2000/svg"><style type="text/css" id="style2">.st0{fill:#e8590d}</style><path d="M0 0h800v320H0z" fill="#fff" style="display:inline;stroke-width:.800002" id="path183"/><path class="st0" d="M411.459 281.597c0-.988-.384-1.975-1.043-2.963-.658-.987-1.865-1.92-3.456-2.908a13.024 13.024 0 0 0-4.773-1.426 14.817 14.817 0 0 0-4.938.33l-2.633 1.096c-.384.165-.549.44-.494.823.055.384.22.768.549 1.153.603 0 .877.164.823.548 0 .384-.11.713-.22 1.097-1.042 2.305-1.865 4.17-2.524 5.651a168.311 168.311 0 0 1-1.81 4.28c-.22.603-.604 1.536-1.097 2.743-.494 1.207-1.043 2.469-1.591 3.84-.549 1.372-1.043 2.579-1.482 3.731-.439 1.097-.713 1.92-.823 2.36-.164.328-.439.932-.768 1.755-.329.823-.603 1.646-.713 2.469a61.127 61.127 0 0 0-1.207 2.798c-.22.548-.274.877-.165 1.152.11.22.385.548.769.932.603.44 1.042.659 1.426.604.384-.055.603-.22.713-.549 1.097-2.907 2.03-5.54 2.908-7.955.823-2.414 1.426-4.224 1.756-5.486l.11-.275c.548 1.207 1.042 2.195 1.48 2.908.494.713 1.098 1.482 1.811 2.36 1.866 2.139 3.566 3.84 5.048 5.102a32.873 32.873 0 0 0 4.498 3.237c.769.493 1.372.768 1.701.823.384.054.659 0 .933-.11.11-.055.274-.22.439-.494a2.7 2.7 0 0 0 .329-.933c.055-.329 0-.603-.22-.768a22.27 22.27 0 0 1-3.236-2.084 43.175 43.175 0 0 1-3.402-2.908 52.067 52.067 0 0 1-2.524-2.579c-.768-.823-1.536-1.81-2.414-2.908a17.534 17.534 0 0 1-2.14-3.401l-.11-.11h.11c.769 0 1.372-.055 1.92-.22.988-.328 1.921-.603 2.854-.932.932-.33 1.81-.658 2.633-1.097.933-.384 1.92-.933 2.963-1.591 1.097-.713 2.085-1.482 3.127-2.304 1.042-.823 1.865-1.701 2.633-2.579.769-.878 1.262-1.646 1.537-2.36.548-.877.713-1.81.713-2.852zm-3.95 2.962a14.167 14.167 0 0 1-2.305 2.579c-.932.823-1.975 1.536-3.072 2.195-1.097.658-2.14 1.261-3.127 1.7-1.043.44-2.14.823-3.182 1.152-1.043.33-1.975.494-2.743.604-.11-.11-.11-.384 0-.823.11-.384.438-1.152.987-2.195.494-1.042 1.262-2.578 2.25-4.553.384-.933.768-1.866 1.152-2.688.384-.878.713-1.592.987-2.14.275-.604.384-.933.384-1.043.165-.658.494-1.152.988-1.371.494-.22 1.152-.274 2.03-.165.878.11 2.03.33 3.346.659.44.164.878.384 1.372.768.494.384.878.823 1.207 1.262.33.493.494.932.494 1.371.11.878-.165 1.756-.768 2.688z" id="path4" style="stroke-width:.548635"/><path class="st0" d="M423.09 289.881c-.22-.329-.549-.603-.933-.823-.384-.22-.987-.384-1.755-.439-.769-.055-1.317-.11-1.646-.11-.384 0-.768.165-1.317.494-1.042.384-2.14 1.153-3.182 2.195-1.097 1.042-1.975 2.25-2.743 3.621-.768 1.372-1.152 2.688-1.262 4.005-.11 1.591-.11 2.853.055 3.786.164.987.548 1.81 1.097 2.578.604.823 1.317 1.427 2.195 1.81.877.385 1.81.55 2.743.44.932-.11 1.755-.44 2.469-1.098a11.217 11.217 0 0 0 1.92-1.536c.548-.549.932-1.042 1.097-1.481.165-.384.11-.604-.22-.604a1.028 1.028 0 0 1-.383-.329.499.499 0 0 0-.44-.22.623.623 0 0 0-.438.165c-.165.11-.33.275-.549.549l-.658.658c-.11.11-.22.165-.33.22-.11.055-.493.274-1.042.603-.603.33-1.042.494-1.481.44-.384-.056-.933-.165-1.591-.275-.604-.11-1.043-.44-1.372-1.043-.329-.603-.439-1.536-.329-2.853.165-1.371.384-2.194.549-2.578.22-.384.603-.384 1.262-.11.603.384 1.316.658 2.194.658a6.13 6.13 0 0 0 2.469-.329c1.371-.658 2.524-1.536 3.401-2.633.878-1.097 1.372-1.975 1.482-2.743 0-.494-.11-.988-.275-1.482-.164-.493-.493-.987-.987-1.536zm-2.14 3.84c-.274.385-.658.769-1.042 1.098-.384.33-.823.549-1.152.713-.384.165-.878.274-1.482.33-.603.054-1.152 0-1.59-.056-.494-.11-.769-.219-.879-.384-.054-.055 0-.274.275-.658a9.685 9.685 0 0 1 1.042-1.262c.44-.494.878-.933 1.372-1.317.494-.384.878-.658 1.262-.713.877-.22 1.536-.22 1.975.11.439.33.658.713.658 1.207 0 .22-.164.549-.439.933z" id="path6" style="stroke-width:.548635"/><path class="st0" d="M443.28 303.103a3.825 3.825 0 0 1-.33-.932c-.054-.275.055-.44.22-.44v-.274c-.165 0-.22-.11-.274-.274.164-.11.274-.439.384-1.097.054-.604.11-1.317.054-2.03 0-.768-.11-1.372-.219-1.81-.055-.11-.055-.275-.055-.385v-.384c-.055-.274-.274-.603-.658-.987a10.97 10.97 0 0 0-1.207-1.043c-.44-.274-.768-.439-1.043-.439-.11 0-.384.055-.658.165-.33.11-.603.274-.878.384-.329.055-.878.33-1.536.713-.713.44-1.372.878-1.975 1.317-.604.439-.988.768-1.152.933-.275.164-.659.439-1.097.713-.44.33-1.043.713-1.756 1.207 0-.165.055-.384.164-.713.11-.275.275-.714.55-1.262.987-1.591 1.535-2.853 1.645-3.73.11-.879-.11-1.702-.713-2.525-.33-.384-.659-.658-1.043-.768-.384-.11-.713-.055-.987.22a.498.498 0 0 0-.384.164c-.11.11-.11.275-.11.384a8.918 8.918 0 0 1-.384 2.03c-.164.549-.494 1.207-.987 2.03-.22.549-.494 1.152-.769 1.866-.274.713-.493 1.261-.548 1.646-.274.384-.494.768-.604 1.097-.11.329-.274.494-.439.494-.054.164-.164.548-.329 1.097-.164.548-.274 1.097-.384 1.646-.11.548-.164.878-.164 1.097.055.11.22.33.439.603.219.275.493.494.713.769.329.274.603.493.768.603.164.11.439.11.713 0 .274 0 .494-.22.658-.658.165-.44.604-1.043 1.372-1.866.933-.823 1.975-1.59 3.018-2.359 1.042-.768 2.084-1.426 3.072-2.085a32.974 32.974 0 0 1 2.414-1.48c.548-.33.987-.44 1.262-.33.274.11.439.494.493 1.152v1.152c0 .384-.054.604-.164.713-.11.165-.165.494-.165 1.043 0 .548.055 1.097.11 1.7.11.604.22 1.153.33 1.592.328.658.657 1.152 1.096 1.48.44.275.988.44 1.701.44.549-.11.823-.384.933-.713.055-.384-.11-.714-.494-1.153-.22-.11-.384-.384-.603-.713z" id="path8" style="stroke-width:.548635"/><path class="st0" d="M464.786 293.722c-.165-.165-.274-.33-.274-.44 0-.328-.165-.658-.549-.932a3.428 3.428 0 0 0-1.207-.549c-.439-.11-.823 0-1.097.165-.165.11-.33.22-.604.274-.164.055-.329.11-.439.275-.11.164-.329.274-.493.384-.22.11-.384.164-.494.164-.055 0-.22.11-.494.275-.274.164-.603.438-.987.768-.384.329-.823.658-1.372 1.042-.658.384-1.207.713-1.7 1.042-.495.33-.769.44-.933.44.054-.165.11-.33.219-.494.11-.165.165-.33.22-.549.11-.22.219-.439.329-.713.384-1.043.548-1.92.548-2.634 0-.713-.274-1.316-.768-1.81a1.56 1.56 0 0 0-.878-.713c-.329-.11-.603-.055-.713.22-.055.054-.164.219-.22.383-.109.165-.164.384-.219.549-.055.164-.055.384-.055.548 0 .275 0 .549-.055.878-.054.33-.11.604-.164.823a1.832 1.832 0 0 1-.274.658c-.604 1.317-1.153 2.58-1.592 3.786-.438 1.207-.822 2.195-1.097 3.018-.274.823-.384 1.426-.384 1.755 0 .44.165.823.494 1.152.33.33.658.549 1.042.659.22.055.384.11.549.055.165 0 .33-.055.439-.165.11-.11.22-.22.329-.384.33-.33.823-.823 1.481-1.427.659-.603 1.317-1.207 2.03-1.865a21.21 21.21 0 0 1 1.701-1.426c.384-.275.713-.549 1.097-.878.33-.33.604-.549.768-.658.275-.33.604-.604.988-.823.384-.275.823-.494 1.262-.769.823-.493 1.262-.713 1.371-.548.11.11 0 .658-.274 1.536-.384 1.426-.713 2.853-.933 4.224-.274 1.372-.384 2.36-.384 2.853 0 .494.11 1.043.384 1.591.275.55.55 1.043.933 1.427.384.384.713.548 1.043.548.384 0 .658-.164.822-.438.11-.275.11-.549 0-.768-.164-.275-.274-.604-.384-1.098a5.717 5.717 0 0 1 .055-1.646c.11-.658.275-1.371.549-2.25.11-.657.274-1.316.494-2.029.164-.713.274-1.317.274-1.865.274-.768.384-1.591.274-2.47-.22-.712-.384-1.151-.658-1.151z" id="path10" style="stroke-width:.548635"/><path class="st0" d="M477.844 282.804c-.275-.659-.55-1.207-.823-1.756-.494-.22-.823-.329-.933-.384-.11-.055-.22-.055-.384-.055-.494.055-.933.275-1.207.713-.274.44-.439.933-.549 1.427-.11.549-.11.987-.055 1.317 0 .055.11.274.384.603.275.33.549.658.933.933.384.274.658.439.933.494.274.164.493.274.603.274.11 0 .275 0 .384-.11.713-.494 1.043-1.042 1.098-1.646 0-.548-.11-1.152-.385-1.81z" id="path12" style="stroke-width:.548635"/><path class="st0" d="M474.387 292.405a1.848 1.848 0 0 0-.933-.604c-.384-.11-.658-.054-.822.22-.055.11-.22.548-.385 1.207-.219.658-.438 1.481-.713 2.469-.274.932-.494 1.92-.713 2.853-.22.932-.439 1.755-.549 2.359-.055.548-.11 1.097-.164 1.59-.055.495-.11.879-.11 1.153.055.549.274 1.152.658 1.81.384.659.768 1.043 1.317 1.098.274.055.439-.055.494-.33.055-.274.164-.987.329-2.14-.055-.932.055-1.81.22-2.633.164-.823.493-1.92.822-3.291.384-1.372.714-2.47.823-3.183.165-.713.22-1.261.165-1.645-.11-.33-.22-.659-.439-.933z" id="path14" style="stroke-width:.548635"/><path class="st0" d="M495.564 301.732c-.329.164-.658.274-.987.384-.33.11-.713.274-1.207.384v-3.182c.11-.933.11-1.646.11-2.14-.055-.494-.11-.878-.22-1.152a4.653 4.653 0 0 0-.548-.988c-.384-.823-.878-1.262-1.482-1.371-.603-.11-1.371.164-2.359.878-.987.658-2.304 1.81-3.895 3.401l-3.402 3.511.275-1.097c.11-.274.274-.549.384-.878.11-.329.22-.603.329-.823.11-.274.164-.384.22-.439.109-.658.383-1.426.767-2.304.384-.878.714-1.536.933-1.865.713-.933 1.152-1.646 1.262-2.14.11-.494.164-.933.164-1.371-.11-.384-.329-.714-.603-1.043-.274-.329-.549-.494-.823-.494h-.494a2.39 2.39 0 0 1-.329.384c-.11.11-.274.33-.384.604l-1.7 3.566c-1.043 2.304-1.811 4.115-2.25 5.377-.439 1.262-.658 2.469-.658 3.566 0 .932 0 1.59.054 1.865.055.274.22.549.44.823.109.11.329.274.603.494.274.164.439.274.603.274.384 0 1.098-.384 2.14-1.152 1.042-.768 2.36-1.975 3.895-3.62.604-.604 1.152-1.208 1.701-1.811a20.262 20.262 0 0 1 1.591-1.537c.22-.164.494-.384.768-.603.33-.22.494-.055.494.494v4.334c0 .439.11.878.22 1.207.219.549.603 1.042 1.152 1.481.548.44 1.042.659 1.48.659.495 0 .988-.11 1.482-.384.494-.275.933-.659 1.372-1.098.384-.439.768-.932 1.042-1.426.274-.494.44-.988.44-1.427-.604.055-1.098.11-1.537.22-.384.164-.768.274-1.042.439z" id="path16" style="stroke-width:.548635"/><path class="st0" d="M513.779 291.308c-.274-.44-.658-.878-1.097-1.317-.659-.604-1.152-.988-1.482-1.152a3.755 3.755 0 0 0-1.316-.384c-.604-.165-1.098-.22-1.427-.165-.329.055-.603.165-.878.274-.713.22-1.536.714-2.414 1.482-.877.823-1.7 1.7-2.523 2.688a19.494 19.494 0 0 0-1.81 2.743c-.44 1.152-.769 2.305-.933 3.457-.165 1.152-.11 1.975.11 2.523.219.494.383.878.493 1.098.11.22.274.439.494.548.22.11.548.33 1.042.604.768.22 1.536.329 2.304.274.823-.055 1.317-.22 1.482-.439a7.024 7.024 0 0 0 2.194-1.481c.44-.439.878-.823 1.372-1.207-.055.055-.11.11-.11.22-.164.274-.274.658-.384 1.042-.33.768-.658 1.865-1.042 3.292a127.19 127.19 0 0 1-1.152 4.005c-.494 1.48-.878 2.578-1.262 3.346-.384.713-.878 1.317-1.427 1.756-.22.164-.494.274-.823.329-.329.055-.768-.11-1.426-.384-.11-.055-.33-.22-.604-.494a6.986 6.986 0 0 1-.713-1.042c-.22-.384-.384-.659-.494-.933-.055-.22-.22-.384-.439-.494-.219-.11-.438-.22-.713-.274-.22-.055-.384 0-.494.11-.11.055-.11.274-.11.603.056.33.11.713.275 1.152l.494 1.317c.164.439.329.768.494.933.768 1.042 1.645 1.81 2.688 2.304 1.042.494 2.03.549 2.962.165.659-.384 1.427-1.262 2.195-2.689.768-1.426 1.591-3.566 2.414-6.474l.823-3.182a96.49 96.49 0 0 1 .987-3.566c.385-1.262.659-2.414.823-3.456a5.308 5.308 0 0 1 .768-1.866l.988-1.316c.33-.44.549-.878.604-1.317.054-.439-.055-.878-.275-1.426-.164-.275-.384-.714-.658-1.207zm-3.73 3.895c-.22.878-.659 1.756-1.208 2.579-.603.877-1.152 1.59-1.755 2.194-.604.549-1.152.988-1.81 1.207-.604.22-1.263.384-1.921.384-.33-.11-.494-.658-.384-1.59.055-.934.274-1.866.603-2.909.33-.932.769-1.755 1.262-2.469.659-.877 1.427-1.645 2.195-2.194.768-.604 1.481-.933 2.14-1.042.438-.055.713 0 .877.164.11.165.22.549.275 1.097.055.768 0 1.646-.275 2.579z" id="path18" style="stroke-width:.548635"/><path class="st0" d="M530.019 290.485c-.384-.384-.768-.768-1.207-1.098-.44-.329-.933-.493-1.537-.493-.274-.055-.603 0-.987.055a6.422 6.422 0 0 0-1.097.274c-.33.11-.604.164-.768.274-.385.22-.823.549-1.427.988-.549.439-1.097.987-1.7 1.481a12.11 12.11 0 0 0-1.372 1.646c-.33.658-.659 1.097-.988 1.317-.329.164-.548.164-.658-.055 0-.11-.11-.22-.274-.275-.165-.054-.33-.054-.44-.054a.605.605 0 0 0-.438 0c-.165.054-.275.11-.44.11-.109 0-.219.164-.328.438-.055.274-.11.549-.055.768-.055.165.055.384.329.604.274.22.439.439.549.548.384.33.548.659.548 1.043 0 .329-.055 1.042-.11 2.085-.219 2.03-.164 3.566.22 4.498.384.988 1.262 1.756 2.579 2.25.822.329 1.645.439 2.578.439.878 0 1.865-.275 2.853-.823.33-.22.713-.494 1.152-.823.44-.384.823-.713 1.152-1.097.384-.385.604-.659.714-.878.329-.659.493-1.152.548-1.482.055-.329-.11-.603-.494-.823a2.273 2.273 0 0 0-1.042-.054c-.33.054-.549.219-.713.438-.549.44-1.152 1.043-1.756 1.756-.658.713-1.262 1.152-1.92 1.317-.768.22-1.372.164-1.81-.165-.44-.384-.769-.658-.988-.878a2.761 2.761 0 0 1-.22-.713c-.054-.329-.054-.878 0-1.646.055-.932.165-1.7.33-2.194.11-.494.329-.714.548-.549.22.11.604.165 1.207.165.604 0 1.262 0 1.92-.055a10.001 10.001 0 0 0 1.701-.275 9.54 9.54 0 0 0 1.701-.987c.603-.439 1.152-.878 1.646-1.372.494-.493.768-.877.878-1.207.22-.493.384-.987.439-1.59.054-.604.054-1.098-.055-1.647 0-.548-.33-.987-.768-1.261zm-1.866 3.237c-.603.932-1.097 1.536-1.536 1.865-.384.33-.823.494-1.262.603-.439.055-1.042.165-1.81.385-.165 0-.494 0-.933-.055-.439-.055-.658-.11-.603-.275-.11-.055-.055-.329.219-.713.274-.384.604-.878 1.097-1.371.44-.494.878-.933 1.372-1.317.439-.384.823-.659 1.042-.713.384-.275.768-.494 1.207-.604.44-.11.768 0 1.098.33.11.109.219.383.274.767 0 .384-.055.714-.165 1.098z" id="path20" style="stroke-width:.548635"/><path class="st0" d="M549.989 293.722c-.165-.165-.274-.33-.274-.44 0-.328-.165-.658-.55-.932a3.428 3.428 0 0 0-1.206-.549c-.439-.11-.823 0-1.097.165-.165.11-.33.22-.604.274-.164.055-.329.11-.439.275-.11.11-.329.274-.494.384-.219.11-.384.164-.493.164-.055 0-.22.11-.494.275-.274.164-.604.438-.988.768-.384.329-.823.658-1.371 1.042-.659.384-1.207.713-1.7 1.042-.495.33-.769.44-.934.44.055-.165.11-.33.22-.494.11-.165.164-.33.22-.549.109-.22.219-.439.328-.713.385-1.043.55-1.92.55-2.634 0-.713-.275-1.316-.769-1.81a1.56 1.56 0 0 0-.878-.713c-.329-.11-.603-.055-.713.22-.055.054-.165.219-.22.383-.11.165-.164.384-.219.549-.055.164-.055.384-.055.548 0 .275 0 .549-.055.878-.055.33-.11.604-.164.823a1.832 1.832 0 0 1-.275.658c-.603 1.317-1.152 2.58-1.59 3.786-.44 1.207-.824 2.195-1.098 3.018-.274.823-.384 1.426-.384 1.755 0 .44.165.823.494 1.152.329.33.658.549 1.042.659.22.055.384.11.549.055.164 0 .329-.055.439-.165.11-.11.22-.22.329-.384.33-.33.823-.823 1.481-1.427.659-.603 1.317-1.207 2.03-1.865a23.445 23.445 0 0 1 1.7-1.426c.385-.275.714-.549 1.098-.878.33-.33.604-.549.768-.658.275-.33.604-.604.988-.823.384-.275.823-.494 1.262-.769.823-.493 1.262-.713 1.371-.548.11.11 0 .658-.274 1.536-.384 1.426-.713 2.853-.933 4.224-.274 1.372-.384 2.36-.384 2.853 0 .494.11 1.043.384 1.591.275.55.549 1.043.933 1.427.384.384.713.548 1.042.548.384 0 .659-.164.823-.438.11-.275.11-.549 0-.768-.164-.275-.274-.604-.384-1.098a5.717 5.717 0 0 1 .055-1.646c.11-.658.274-1.371.549-2.25.11-.657.274-1.316.494-2.029.164-.713.274-1.317.274-1.865.274-.768.384-1.591.274-2.47-.11-.877-.384-1.151-.658-1.151z" id="path22" style="stroke-width:.548635"/><path class="st0" d="M245.278 202.21c.877-2.58 1.975-4.554 3.237-5.926 1.261-1.371 2.578-2.359 3.95-2.798a12.428 12.428 0 0 1 4.224-.713c1.152 0 2.195.165 3.182.494.988.329 1.81.713 2.524 1.152.713.439 1.262.768 1.646 1.097.384-.658.713-1.481 1.042-2.469.275-.987.44-1.975.44-3.072 0-.988-.33-1.92-.879-2.908-.603-.932-1.7-1.755-3.237-2.359-1.536-.658-3.73-.933-6.473-.933-2.03 0-4.115.33-6.2.878-2.085.604-4.115 1.756-6.035 3.511-1.92 1.756-3.62 4.225-5.157 7.407-1.481 3.182-2.688 7.407-3.566 12.673-.878 5.213-1.317 11.741-1.317 19.477 0 6.529.274 12.07.878 16.569.603 4.499 1.481 8.12 2.578 10.863 1.153 2.743 2.47 4.828 4.005 6.254 1.537 1.427 3.237 2.414 5.158 2.963 1.865.548 3.895.768 6.09.768 2.797 0 5.211-.384 7.351-1.152 2.085-.768 3.73-1.756 4.938-3.018 1.152-1.262 1.755-2.578 1.755-4.005 0-.987-.164-1.975-.438-2.962a12.605 12.605 0 0 0-1.043-2.579c-.987.823-2.414 1.646-4.28 2.36-1.865.767-3.894 1.151-6.089 1.151-1.646 0-3.182-.384-4.554-1.152-1.371-.768-2.578-2.14-3.566-4.115-.987-1.975-1.755-4.773-2.304-8.394-.549-3.62-.823-8.284-.823-13.99 0-5.925.274-10.973.823-15.032.494-4.17 1.207-7.517 2.14-10.04z" id="path24" style="stroke-width:.548635"/><path class="st0" d="M289.552 206.27c-4.279 0-7.955.383-11.082 1.097-3.072.713-5.102 1.371-6.09 1.975-.439.329-.768.768-.933 1.371-.164.604-.274 1.152-.274 1.701 0 .768.055 1.591.22 2.524a7.652 7.652 0 0 0 1.042 2.743c1.646-.658 3.84-1.262 6.529-1.81 2.688-.55 5.54-.769 8.449-.769 1.481 0 2.743.22 3.785.604 1.043.439 1.81 1.097 2.36 2.03.548.933.822 2.304.822 4.115v8.942c-1.152-.548-2.523-.877-4.114-1.152-1.646-.22-3.018-.329-4.225-.329-1.865 0-3.73.22-5.541.658-1.81.44-3.402 1.317-4.883 2.634-1.426 1.317-2.579 3.182-3.401 5.65-.823 2.47-1.262 5.652-1.262 9.547 0 3.895.439 7.022 1.371 9.272.878 2.25 2.085 3.95 3.621 5.157 1.482 1.152 3.237 1.92 5.157 2.25 1.92.329 3.95.493 6.035.493 3.676 0 6.858-.439 9.492-1.262 2.633-.823 4.718-1.7 6.2-2.578.219-2.853.383-6.2.438-9.985.055-3.786.11-7.846.165-12.18.055-4.334.055-8.668.055-12.948v-5.98c0-5.102-1.098-8.668-3.347-10.753-2.14-2.03-5.706-3.018-10.589-3.018zm4.773 37.471c-.054 2.36-.054 4.554-.11 6.639-.054 2.084-.109 3.785-.274 4.992-.438.549-1.261.988-2.359 1.372a10.926 10.926 0 0 1-3.51.548c-1.153 0-2.14-.11-3.073-.329a4.825 4.825 0 0 1-2.36-1.426c-.658-.714-1.206-1.701-1.536-3.018-.329-1.262-.493-2.962-.493-4.992 0-2.47.22-4.5.658-5.98.439-1.482 1.042-2.634 1.81-3.457.769-.768 1.646-1.317 2.634-1.59 1.042-.275 2.14-.385 3.347-.385.768 0 1.646.055 2.633.22 1.042.164 1.92.438 2.634.768.054 2.14.054 4.334 0 6.638z" id="path26" style="stroke-width:.548635"/><path class="st0" d="M334.32 207.422c-1.151-.769-3.236-1.207-6.144-1.207-2.798 0-5.486.438-8.12 1.371a26.648 26.648 0 0 0-7.242 3.73v52.505c3.073 0 5.267-.055 6.53-.11 1.261-.054 2.03-.219 2.303-.438.275-.22.385-.659.385-1.262l.11-44.495c1.042-.823 2.249-1.426 3.565-1.865 1.317-.439 2.634-.603 3.896-.603.987 0 1.92.11 2.798.329a9.43 9.43 0 0 1 2.578 1.042c.384-.987.659-1.975.768-3.017.165-1.043.22-1.81.22-2.414.11-1.591-.494-2.743-1.646-3.566z" id="path28" style="stroke-width:.548635"/><path class="st0" d="m367.678 224.649-12.18-13.88c-1.646-2.03-2.962-3.896-3.895-5.597a11.469 11.469 0 0 1-1.427-5.596c0-2.469.988-4.389 3.018-5.76 1.975-1.372 4.663-2.03 8.065-2.03 2.633 0 4.938.329 6.967.932 1.976.658 3.347 1.207 4.115 1.756a8.638 8.638 0 0 0 1.701-2.634c.384-.932.549-1.81.549-2.523 0-1.591-1.153-2.908-3.402-4.005-2.25-1.098-6.035-1.646-11.412-1.646-6.254 0-11.027 1.481-14.374 4.498-3.346 3.018-5.047 6.913-5.047 11.632 0 2.688.549 5.321 1.646 7.845s2.908 5.377 5.486 8.504l11.302 13.222c2.469 2.853 4.17 5.376 5.157 7.571.933 2.195 1.427 4.554 1.427 7.132 0 3.457-.823 6.255-2.524 8.34-1.7 2.084-4.554 3.182-8.504 3.182-2.688 0-5.047-.384-6.968-1.153-1.92-.768-3.456-1.7-4.663-2.798a9.44 9.44 0 0 0-1.81 3.347c-.385 1.262-.55 2.304-.55 3.237 0 1.591 1.208 3.127 3.567 4.554 2.36 1.481 6.145 2.194 11.357 2.194 5.102 0 9.107-.987 12.015-2.962 2.908-1.975 4.992-4.554 6.2-7.791 1.261-3.237 1.865-6.748 1.865-10.479 0-3.566-.549-6.748-1.591-9.601-1.152-2.853-3.128-5.98-6.09-9.491z" id="path30" style="stroke-width:.548635"/><path class="st0" d="M391.708 263.272c.274-.219.384-.658.384-1.261v-44.165c1.372-1.207 2.798-2.03 4.28-2.47 1.48-.438 2.907-.658 4.169-.658 2.798 0 4.554.878 5.377 2.579.768 1.756 1.207 3.84 1.207 6.31v40.214c2.962 0 5.047-.055 6.364-.11 1.316-.054 2.14-.219 2.469-.438.329-.22.493-.659.493-1.262v-40.874c0-3.237-.274-5.925-.877-8.12-.604-2.194-1.756-3.84-3.457-5.047-1.7-1.152-4.17-1.755-7.406-1.755-2.085 0-4.335.384-6.584 1.097-2.304.713-4.334 1.81-6.035 3.347v-29.846c-2.469 0-4.389.055-5.706.164-1.316.11-2.194.44-2.688 1.043-.494.548-.713 1.59-.713 3.017v78.839c3.017 0 5.157-.055 6.419-.11 1.262-.11 2.03-.22 2.304-.493z" id="path32" style="stroke-width:.548635"/><path class="st0" d="M447.394 230.793c-1.152-.548-2.523-.877-4.114-1.152-1.646-.22-3.018-.329-4.225-.329-1.865 0-3.73.22-5.541.658-1.81.44-3.402 1.317-4.883 2.634-1.426 1.317-2.579 3.182-3.401 5.65-.823 2.47-1.262 5.652-1.262 9.547 0 3.895.439 7.022 1.371 9.272.878 2.25 2.085 3.95 3.621 5.157 1.482 1.152 3.237 1.92 5.157 2.25 1.92.329 3.95.493 6.035.493 3.676 0 6.858-.439 9.492-1.262 2.633-.823 4.718-1.7 6.2-2.578.219-2.853.383-6.2.438-9.985.055-3.786.11-7.846.165-12.18.055-4.334.055-8.668.055-12.948v-5.98c0-5.102-1.098-8.668-3.347-10.753-2.195-2.03-5.76-3.072-10.698-3.072-4.28 0-7.956.384-11.083 1.097-3.072.713-5.102 1.371-6.09 1.975-.438.33-.768.768-.932 1.371-.165.604-.275 1.153-.275 1.701 0 .768.055 1.591.22 2.524a7.652 7.652 0 0 0 1.042 2.743c1.646-.658 3.84-1.262 6.529-1.81 2.688-.549 5.541-.768 8.449-.768 1.481 0 2.743.219 3.786.603 1.042.439 1.81 1.097 2.359 2.03.548.933.823 2.304.823 4.115v3.676c0 1.371.11 3.182.11 5.321zm-.055 12.948c-.054 2.36-.054 4.554-.11 6.639-.054 2.084-.109 3.785-.274 4.992-.438.549-1.261.988-2.359 1.372a10.925 10.925 0 0 1-3.51.548c-1.153 0-2.14-.11-3.073-.329a4.825 4.825 0 0 1-2.36-1.426c-.658-.714-1.206-1.701-1.536-3.018-.329-1.262-.493-2.962-.493-4.992 0-2.47.22-4.5.658-5.98.439-1.482 1.042-2.634 1.81-3.457.769-.768 1.646-1.317 2.634-1.59 1.042-.275 2.14-.385 3.347-.385.768 0 1.646.055 2.633.22 1.042.164 1.92.438 2.633.768.055 2.14.055 4.334 0 6.638z" id="path34" style="stroke-width:.548635"/><path class="st0" d="M474.716 263.272c.275-.219.384-.658.384-1.261l.11-44.495c1.042-.823 2.25-1.426 3.566-1.865 1.317-.439 2.634-.603 3.895-.603.988 0 1.92.11 2.798.329a9.43 9.43 0 0 1 2.58 1.042c.383-.987.657-1.975.767-3.017.165-1.043.22-1.81.22-2.414 0-1.591-.604-2.744-1.756-3.566-1.152-.769-3.237-1.207-6.145-1.207-2.798 0-5.486.438-8.12 1.371a26.647 26.647 0 0 0-7.241 3.73v52.505c3.072 0 5.266-.055 6.528-.11 1.372-.054 2.14-.164 2.414-.438z" id="path36" style="stroke-width:.548635"/><path class="st0" d="M525.52 263.272c.274-.219.384-.658.384-1.261v-45.756c1.207-.769 2.578-1.262 4.17-1.592 1.59-.274 3.017-.438 4.279-.438 2.798 0 4.608.768 5.431 2.249.823 1.481 1.262 4.005 1.262 7.571v39.776c3.182 0 5.377-.055 6.693-.11 1.262-.054 2.085-.219 2.36-.438.274-.22.439-.659.439-1.262v-40.654c0-3.676-.494-6.639-1.482-8.833-.987-2.195-2.633-3.786-4.992-4.828-2.36-1.043-5.487-1.536-9.382-1.536-2.03 0-4.17.164-6.31.548-2.194.384-4.279.823-6.309 1.427a39.64 39.64 0 0 0-5.321 1.865v53.766c3.017 0 5.157-.055 6.419-.11 1.316 0 2.084-.11 2.359-.384z" id="path38" style="stroke-width:.548635"/><path class="st0" d="M597.226 214.225c.549-.549.823-1.482.823-2.744 0-1.042-.11-1.92-.274-2.633-.165-.713-.384-1.262-.604-1.646h-13.66c-.769-.22-1.537-.439-2.36-.549-1.262-.219-2.304-.329-3.127-.329-3.676 0-6.968.659-9.82 2.03-2.853 1.372-5.103 3.566-6.639 6.584-1.591 3.072-2.36 7.077-2.36 12.015 0 3.62.55 6.913 1.592 9.875 1.042 2.963 2.853 5.267 5.377 7.023-.988.768-1.92 1.536-2.689 2.359-1.371 1.372-2.469 2.743-3.237 4.06-.768 1.317-1.152 2.578-1.262 3.785 0 1.482.659 2.798 2.03 3.84 1.207.934 2.908 1.702 4.938 2.305-.22.165-.494.33-.713.494-2.304 1.7-4.225 3.676-5.706 5.87-1.481 2.195-2.25 4.664-2.25 7.297 0 1.865.44 3.786 1.372 5.651.878 1.865 2.689 3.456 5.322 4.718s6.474 1.92 11.521 1.92c5.048 0 9.163-.822 12.29-2.523 3.182-1.701 5.486-3.95 7.022-6.748a19.296 19.296 0 0 0 2.25-9.108c0-3.017-.604-5.376-1.866-7.132-1.262-1.756-3.017-3.072-5.267-4.005-2.249-.933-4.882-1.646-7.79-2.085-3.786-.439-6.913-.878-9.492-1.371-2.578-.44-3.84-1.153-3.84-2.14 0-.823.33-1.7 1.042-2.634.604-.822 1.317-1.59 2.03-2.304 1.537.275 3.128.44 4.993.44 4.389 0 7.9-.824 10.534-2.47 2.688-1.646 4.608-3.95 5.87-6.913 1.262-2.962 1.865-6.419 1.865-10.369 0-4.06-.768-7.351-2.304-9.82-.548-.933-1.262-1.701-1.975-2.414 1.591.384 2.908.603 4.06.603.988-.11 1.756-.384 2.304-.932zm-14.429 48.554c1.866.493 3.127 1.207 3.895 2.14.769.932 1.153 2.249 1.153 4.004 0 1.975-.878 3.896-2.689 5.816-1.81 1.92-4.718 2.853-8.833 2.853-2.578 0-4.553-.22-5.925-.713-1.372-.494-2.36-1.207-2.798-2.14-.494-.933-.713-1.975-.713-3.127 0-1.646.439-3.292 1.371-4.883.878-1.591 2.085-3.018 3.512-4.28.439-.384.877-.713 1.316-1.042.659.11 1.372.165 2.085.22 3.182.329 5.76.658 7.626 1.152zm2.195-30.01c-.604 2.194-1.536 3.895-2.743 5.047-1.262 1.152-2.908 1.7-4.938 1.7-2.36 0-4.115-.493-5.322-1.536-1.207-1.042-2.03-2.468-2.414-4.389-.439-1.92-.603-4.224-.603-6.858 0-3.401.384-6.09 1.152-8.064.768-1.976 1.81-3.402 3.182-4.28 1.371-.878 2.798-1.317 4.389-1.317 2.798 0 4.883.878 6.2 2.634 1.371 1.756 2.03 4.718 2.03 8.888-.056 3.182-.33 5.925-.933 8.174z" id="path40" style="stroke-width:.548635"/><path class="st0" d="M496.442 208.574c-.548.548-.768 1.59-.768 3.017v52.285c3.072 0 5.267-.055 6.584-.11 1.316-.055 2.085-.22 2.359-.439.274-.22.384-.658.384-1.261v-54.644c-2.469 0-4.39.054-5.76.164-1.317.11-2.305.44-2.799.988z" id="path42" style="stroke-width:.548635"/><path class="st0" d="M510.377 178.124c-.054-5.54-4.608-9.985-10.204-9.93-5.541.055-9.985 4.609-9.93 10.205.055 5.541 10.04 20.793 10.04 20.793s10.204-15.526 10.094-21.068zm-15.142.714c.055-2.798 2.36-5.048 5.157-5.048 2.798.055 5.048 2.36 5.048 5.157-.055 2.798-2.36 5.048-5.157 5.048a5.025 5.025 0 0 1-5.048-5.157z" id="path44" style="stroke-width:.548635"/><linearGradient id="Vereinigungsmenge_5_2_" gradientUnits="userSpaceOnUse" x1="-76.19" y1="595.884" x2="-76.19" y2="591.747" gradientTransform="matrix(80.3622 0 0 -38.03767 6522.148 22666.739)"><stop offset="0" style="stop-color:#fcc107" id="stop46"/><stop offset="1" style="stop-color:#e8580d" id="stop48"/></linearGradient><path id="Vereinigungsmenge_5_1_" d="M354.017 77.066c-1.427-1.646-2.743-3.017-3.95-4.334-.275-.274-.494-.549-.823-.878-1.098-1.207-2.25-2.359-3.566-3.347-1.427-.987-3.292-.987-4.719-.11a4.533 4.533 0 0 0-2.194 3.896v.33c2.085 26.992 4.608 53.656 7.571 79.277.11 1.207-.274 2.962-1.097 3.84-1.427 1.591-3.457 2.03-5.651 2.195-4.28.164-6.035-4.334-6.364-7.023a1953.508 1953.508 0 0 1-4.335-41.915c-.219-2.25-2.14-3.95-4.389-4.005-2.14 0-4.005 1.536-4.334 3.675-2.194 13.003-5.76 28.804-10.095 44.604-1.097 3.457-4.718 5.432-8.23 4.5-1.48-.385-2.797-1.372-3.51-2.744-.988-1.591-1.262-3.456-.823-5.267a470.247 470.247 0 0 0 11.301-51.626l.33-2.579c.054-.603.164-1.262.219-1.865.22-2.304.384-4.39.439-6.42a82.389 82.389 0 0 0-.33-11.63c0-.11-.054-.22-.054-.33l-.11-.822c-.055-.494-.164-.933-.164-1.153-.22-1.097-.44-2.194-.714-3.236-.219-.769-.384-1.537-.658-2.305-1.152-4.608-3.84-6.913-3.84-6.913-.549-.493-1.207-.822-1.866-1.042-2.523-.823-4.992-1.865-7.351-3.182-7.736-4.39-13.826-11.137-17.447-19.257-1.81-4.225-1.042-7.407 2.25-9.546a6.948 6.948 0 0 1 5.43-.384 4.865 4.865 0 0 1 3.073 2.304 40.41 40.41 0 0 0 3.402 6.474c.274.439.603.878.932 1.317.055.11.275.384.384.438.494.604.988 1.153 1.537 1.756.823.878 1.7 1.756 2.688 2.579l.823.658c.055.055.274.22.439.33.11.054.164.109.274.164a91.218 91.218 0 0 0 5.157 3.017c.055.055.44.22.549.275.055.054.439.164.439.164l.823.33c1.317.438 2.633.822 3.95 1.151.768.165 1.591.33 2.469.494.22.055.439.055.658.055l1.317.165c.658.055 1.207.164 1.371.164 2.634.22 5.267.275 7.846.33h.274c2.25.054 4.828.11 7.297.329a41.32 41.32 0 0 1 13.112 2.633c4.39 1.81 8.45 4.28 12.016 7.352a67.853 67.853 0 0 1 6.638 6.529c1.646 1.81 4.444 1.975 6.254.329.275-.22.494-.494.714-.823 3.456-5.102 7.132-9.93 10.314-13.99l.933-1.207c5.376-6.913 10.917-14.1 18.927-15.362 8.23-1.097 16.405 1.975 21.836 8.284a74.575 74.575 0 0 1 7.023 9.108c.932 1.316 1.81 2.578 2.743 3.84l12.399 17.063c1.317 1.865 3.84 2.359 5.815 1.207l.823-.494c.604-.33 1.153-.659 1.756-1.043.878-.548 1.81-1.097 2.688-1.7 2.25-1.427 4.444-2.798 6.694-4.005 7.9-4.28 16.294-5.487 24.963-6.474.603-.11 1.207-.165 1.865-.33a52.82 52.82 0 0 0 2.853-.603 63.524 63.524 0 0 0 5.267-1.536l.603-.22c.878-.274 1.7-.603 2.469-.987.274-.165.494-.274.658-.33 1.756-.877 3.457-1.865 5.158-2.907.438-.274.822-.549 1.261-.823.275-.22.549-.384.878-.604l.275-.164c.164-.11.493-.384.658-.494 1.097-.933 2.578-2.194 4.005-3.62 1.317-1.318 2.524-2.69 3.676-4.06.055-.11.22-.275.274-.33.165-.22.384-.494.494-.713.603-.878 1.152-1.756 1.7-2.634 1.92-3.127 5.98-4.17 9.163-2.359 1.426.823 2.414 2.195 2.798 3.786.494 1.646.329 3.456-.549 4.992a57.936 57.936 0 0 1-12.673 14.43s-4.334 3.84-6.803 7.406c-.933 1.481-1.81 2.963-2.579 4.499-.274.548-.494 1.042-.768 1.59l-.494.988c-.055.11-.11.22-.164.384l-.165.384a97.66 97.66 0 0 0-3.786 11.083 65.992 65.992 0 0 0-.987 4.499l-.33 1.646c-.054.329-.054.548-.109.658 0 .11-.055.439-.055.549l-.055.384c-.11 1.042-.164 2.03-.274 3.072-.274 4.224-.165 8.504.22 12.728.054.604.11 1.262.219 2.14l.22 1.372c.054.548.164 1.042.164 1.207.384 2.14.823 4.334 1.317 6.528a191.849 191.849 0 0 0 9.326 27.213c.44 1.042.494 3.127-.054 4.114-.988 1.975-2.799 2.634-4.883 3.402-1.646.384-3.347.11-4.828-.713-1.536-1.043-2.36-2.524-3.182-4.444-4.225-9.876-7.572-20.135-9.93-30.614a4.44 4.44 0 0 0-4.115-3.566c-2.085-.165-4.005 1.207-4.5 3.237-1.096 4.06-2.249 8.12-3.4 12.18-.494 1.7-1.098 3.785-1.756 6.034-1.372 4.554-2.908 9.766-3.84 13.442a6.513 6.513 0 0 1-6.584 4.608 8.376 8.376 0 0 1-1.646-.164 5.58 5.58 0 0 1-3.457-2.634c-.987-1.646-1.316-3.566-.878-5.431.933-3.511 2.414-8.614 3.731-13.058.659-2.249 1.317-4.444 1.81-6.2 2.305-8.064 4.664-16.403 6.53-24.797 0 0 1.48-6.365 1.7-10.59.11-1.426.22-2.852.22-4.278.055-2.14 0-4.444-.165-7.023a4.426 4.426 0 0 0-4.718-4.115c-.659.055-1.317.22-1.92.549-1.866 1.042-3.676 2.14-5.487 3.237-4.718 3.127-8.065 5.047-13.386 7.077-5.761 2.579-11.247-5.212-11.247-5.212l-7.133-9.82c-1.426-1.975-4.224-2.414-6.2-.988-1.206.878-1.92 2.304-1.81 3.84.44 7.681 1.043 14.65 1.866 21.288l.548 4.005c.275 1.865.549 3.73.878 5.596.658 4.06 1.427 8.174 2.304 12.344 1.207 5.98 3.292 13.057 5.267 19.915.823 2.744 1.591 5.487 2.36 8.175 1.316 4.993-1.262 7.077-4.774 8.065-1.481.439-3.072.22-4.444-.549-1.646-.823-2.853-2.304-3.401-4.06a390.28 390.28 0 0 1-10.699-47.456c-.329-2.414-2.578-4.115-4.992-3.731-1.975.274-3.511 1.81-3.73 3.785-2.03 15.637-5.816 33.741-8.889 47.786a5.268 5.268 0 0 1-2.414 3.292c-1.7 1.098-3.785 1.427-5.76.988-3.512-.768-5.048-4.883-4.335-8.23a973.662 973.662 0 0 0 5.487-26.444c.823-4.28 1.536-8.284 2.14-12.18.274-1.755.548-3.456.768-5.266l.548-4.664c.988-8.01 1.372-16.02 1.207-24.085a110.888 110.888 0 0 0-.274-4.389c-.22-2.414-2.36-4.224-4.773-4.06a4.4 4.4 0 0 0-3.237 1.866c-3.511 4.937-5.816 7.735-10.26 13.99-1.59 2.14-3.566 2.798-5.102 2.907-3.62.275-6.09-3.072-6.09-3.072zm168.266 79.552a1.8 1.8 0 0 1 1.152-2.304c11.521-3.95 17.611-16.46 13.716-27.926a21.957 21.957 0 0 0-17.008-14.538c-2.359-.44-4.828-.44-7.187-.055a1.805 1.805 0 0 1-2.085-1.482 1.805 1.805 0 0 1 1.482-2.085h.054c2.799-.438 5.651-.438 8.395.055 13.935 2.47 23.262 15.746 20.793 29.681-1.646 9.163-8.12 16.789-16.953 19.806-.165.055-.384.11-.603.11-.823-.055-1.482-.549-1.756-1.262zm-237.23 1.207c-8.394-.713-15.91-5.541-20.08-12.838-5.54.165-11.082.33-16.568.439-.055 0-.165 0-.22-.055h-.055c-1.371-.604-2.523-1.536-3.51-2.688a38.436 38.436 0 0 1-2.634-3.292c-1.591-2.304-3.018-4.663-4.225-7.187a41.978 41.978 0 0 1-4.663-16.185c-.055-1.481 0-2.908.055-4.224l.055-4.06c.055-2.743 0-5.432.164-8.23.055-2.853.44-5.706.988-8.504.603-3.182 2.304-6.035 4.718-8.12l.11-.11.11-.054 1.865-1.097c.658-.33 1.262-.549 1.865-.823.988-.384 2.195-.988 3.237-1.536 2.14-1.153 4.334-2.195 6.42-3.457 4.279-2.524 8.558-4.938 12.782-7.516 4.28-2.579 8.504-5.212 13.168-7.516 1.207-.604 2.523-1.098 3.785-1.537l3.566-1.207a83.14 83.14 0 0 1 3.95-1.261c.988.713 2.03 1.371 3.128 1.975A40.398 40.398 0 0 0 298 61.046c-1.042.274-2.03.494-3.072.768a79.193 79.193 0 0 0-7.022 2.085l-3.512 1.097c-1.097.33-2.14.713-3.182 1.152-4.334 1.975-8.613 4.499-12.948 6.913-4.334 2.414-8.778 4.828-13.167 7.242-2.194 1.207-4.553 2.25-6.858 3.347a53.6 53.6 0 0 1-3.566 1.48c-.548.22-1.152.44-1.59.604l-1.263.659c-3.511 2.633-4.114 8.065-4.608 13.277-.22 2.633-.275 5.431-.44 8.12l-.273 4.114c-.11 1.427-.22 2.743-.275 4.005.11 5.267 1.372 10.48 3.566 15.307 1.043 2.469 2.305 4.828 3.676 7.132.713 1.153 1.481 2.195 2.304 3.237l.659.714c.22.219.494.548.658.658l.768.603c.22.165.44.275.659.384 5.431.165 10.808.44 16.24.659-6.859-12.4-2.36-27.98 10.04-34.838 5.924-3.292 12.892-4.06 19.366-2.25a1.802 1.802 0 0 1 1.262 2.25 1.802 1.802 0 0 1-2.25 1.261c-3.346-.987-6.912-1.097-10.314-.438-11.905 2.413-19.641 13.99-17.282 25.895 1.92 9.601 9.93 16.733 19.641 17.611.988.055 1.756.878 1.756 1.92 0 1.043-.878 1.756-1.92 1.756zm273.988-17.94a17.077 17.077 0 0 0 3.512-7.79c.548-2.854.713-5.762.384-8.614l-.549-8.998c-.055-1.426-.165-3.072-.439-4.17a10.853 10.853 0 0 0-1.756-3.346 17.54 17.54 0 0 0-2.852-2.853 34.125 34.125 0 0 0-3.567-2.47c-1.207-.767-2.414-1.48-3.675-2.084-1.262-.603-2.634-1.152-4.06-1.756a372.607 372.607 0 0 0-8.285-3.346c-5.54-2.085-11.137-3.95-16.898-5.432l-15.91-3.84a81.7 81.7 0 0 1 1.92-5.377l15.417 4.225c5.87 1.7 11.576 3.785 17.172 6.2 2.798 1.206 5.596 2.413 8.284 3.675a93.741 93.741 0 0 1 4.17 1.975c1.372.768 2.743 1.591 4.06 2.524 1.262.878 2.524 1.81 3.73 2.853a17.8 17.8 0 0 1 3.347 3.676 14.71 14.71 0 0 1 2.14 4.718c.22 1.591.274 3.182.274 4.773l.055 8.998c.055 3.127-.384 6.254-1.207 9.217-.768 3.017-2.359 5.815-4.553 8.065-2.25 2.14-5.212 3.401-8.285 3.51 3.018-.548 5.651-2.029 7.571-4.333zm-118.45-73.188-6.638-9.162c8.723 2.414 17.392 5.157 25.95 8.284-.055.055-.164.055-.22.11-2.304 1.262-4.498 2.633-6.802 4.06l-.494.329c-3.95-1.207-7.846-2.414-11.796-3.621zM472.083 42.008c0-6.638 5.376-12.015 12.015-12.015 6.638 0 12.015 5.377 12.015 12.015 0 6.639-5.377 12.015-12.015 12.015-6.639 0-12.015-5.376-12.015-12.015zM352.92 52.652l-1.81-.055c-.495 0-1.043 0-1.592.055l-.933.11a55.393 55.393 0 0 0-4.444-2.14 45.935 45.935 0 0 0-13.825-2.798 168.68 168.68 0 0 1 7.352-.988c2.468-.274 5.047-.548 7.516-.823l3.785-.384c.659-.055 1.372-.11 2.14-.11l1.92.055c9.108.11 18.215.604 27.267 1.591a71.455 71.455 0 0 0-1.865 2.414l-.933 1.207c-.768.988-1.536 1.976-2.359 3.018a379.006 379.006 0 0 0-22.22-1.152zM310.236 29.28c0-7.022 5.706-12.673 12.673-12.673 7.023 0 12.674 5.705 12.674 12.673s-5.706 12.674-12.674 12.674c-6.967 0-12.618-5.651-12.673-12.674zm79.936-15.91c0-7.023 5.706-12.674 12.673-12.674 6.968 0 12.729 5.706 12.729 12.674 0 7.022-5.706 12.673-12.674 12.673-7.022 0-12.728-5.65-12.728-12.673z" style="display:inline;fill:url(#Vereinigungsmenge_5_2_);stroke-width:.548635"/></svg>