<svg width="800" height="320" xmlns="http://www.w3.org/2000/svg"><path d="M0 0h800v320H0z" fill="#fff" style="clip-rule:evenodd;fill-rule:evenodd;stroke-width:.8;stroke-linejoin:round;stroke-miterlimit:2"/><path d="M295.39 403.983V463.4h24.207c15.546 0 23.806-5.817 23.806-17.005 0-7.97-3.785-12.54-11.803-14.604 6.04-2.516 8.602-5.865 8.602-12.203 0-10.14-6.898-15.605-20.005-15.605zm74.02 0L346.205 463.4h14.404l4.001-10.803h22.007l4 10.803h15.605l-22.806-59.417zm43.813 0V463.4h15.205v-24.407h21.206V463.4h15.404v-59.417h-15.404v23.007h-21.206v-23.007zm63.419 0V463.4h13.003v-35.81c2.046 2.698 27.408 35.81 27.408 35.81h10.203v-59.417h-13.004v32.41l-24.607-32.41zm-165.848 11.403h8.402c4.264 0 6.202 1.692 6.202 5.802 0 4.225-1.908 6.202-6.402 6.202h-8.202zm64.819 6.402 7.402 20.406H368.21zm-64.819 15.405h9.203c5.867 0 8.202 2.141 8.202 7.202 0 5.608-2.633 7.602-9.403 7.602h-8.002z" style="fill:#211d1d;fill-opacity:1;fill-rule:nonzero;stroke:none" transform="matrix(1.21935 0 0 1.21935 -125.76 -440.283)"/><path d="M241.864 374.882H119.746c-8.393 0-15.355 6.645-15.355 15.23v76.361c0 8.585 6.962 15.393 15.355 15.393h122.118c8.412 0 15.355-6.808 15.355-15.393v-76.36c0-8.586-6.943-15.23-15.355-15.23" style="fill:#eb1d25;fill-opacity:1;fill-rule:nonzero;stroke:none" transform="matrix(1.21935 0 0 1.21935 -125.76 -440.283)"/><path d="M246.06 466.473c0 2.43-1.767 4.389-4.196 4.389H119.746c-2.41 0-4.197-1.96-4.197-4.389v-76.36c0-2.43 1.786-4.37 4.197-4.37h122.118c2.43 0 4.196 1.94 4.196 4.37v76.36" style="fill:#fff;fill-opacity:1;fill-rule:nonzero;stroke:none" transform="matrix(1.21935 0 0 1.21935 -125.76 -440.283)"/><path d="M125.34 393.38v70.02h25.808c21.347-.163 28.008-15.148 28.008-35.41 0-23.335-9.907-34.61-28.008-34.61zm61.218 0v70.02h24.808c6.549 0 27.007.08 27.007-19.605 0-4.917-2.119-14.25-14.804-17.005 4.965-1.325 12.404-7.08 12.404-16.405 0-1.47-.31-17.005-20.006-17.005zm16.805 10.803h5.202c7.528 0 10.603 2.612 10.603 8.403 0 4.609-3.364 8.402-9.203 8.402h-6.602zm-61.217.2h3.4c15.202 0 16.805 11.11 16.805 25.207 0 15.403-5.302 22.407-14.204 22.407h-6.001zm61.217 29.609h7.202c8.739 0 11.003 5.113 11.003 9.002 0 8.998-8.743 9.003-11.403 9.003h-6.802z" style="fill:#eb1d25;fill-opacity:1;fill-rule:nonzero;stroke:none" transform="matrix(1.21935 0 0 1.21935 -125.76 -440.283)"/><path d="M392.217 519.416c-2.804 2.459-7.83 3.771-15.204 4.001l-16.405 84.425h18.806l3.6-18.406 7.603-6.602 8.802 25.008h19.206l-12.604-35.41c9.008-7.385 16.173-15.813 22.607-26.808h-18.205c-5.503 9.238-13.588 18.186-24.007 26.607l10.203-52.815zm201.858 0c-2.698 2.334-7.63 3.57-15.004 3.801l-16.405 84.625h12.204l4.801-6.802c5.387 6.088 10.875 8.802 18.605 8.802 7.375 0 13.964-2.76 19.006-7.802 7.375-7.375 12.603-22.755 12.603-37.61 0-12.648-6.185-20.407-16.604-20.407-7.49 0-14.126 3.643-21.607 11.604l7.003-36.21zm-473.135 3.401-16.605 85.025h20.606l6.402-33.01h30.608l2.801-14.804h-30.609l4.402-21.406h36.41l3.201-15.805zm343.898 20.806c-10.774 0-19.88 3.753-26.207 11.003-6.319 7.145-10.203 19.158-10.203 31.21 0 15.565 9.274 24.006 26.607 24.006 7.606 0 12.754-1.202 21.406-4.601l2.801-13.804c-9.132 3.169-13.223 4.001-19.205 4.001-9.008 0-12.604-2.858-12.604-10.003 0-.691.085-1.134.2-2.2 11.83-.452 16.163-1.054 22.606-2.801 11.11-3.044 16.805-9.518 16.805-19.006 0-11.11-8.282-17.805-22.206-17.805zm-268.277.2c-2.698 2.353-7.514 3.57-15.004 3.801l-11.603 60.217h18.605l8.202-41.412c5.618-2.583 12.09-4.375 20.406-5.201l3.401-17.205c-7.95.701-15.396 5.427-22.406 14.204l2.8-13.404zm119.034 0c-2.698 2.343-7.504 3.561-15.004 3.801l-11.603 60.218h18.605l8.402-42.412c5.503-4.322 9.229-5.802 13.204-5.802 3.515 0 5.202 1.677 5.202 5.201 0 1.047-.045 2.195-.4 4.202l-7.402 38.81h18.805l8.202-43.412c.701-3.265 1-5.53 1-7.402 0-8.431-4.506-13.004-12.803-13.004-7.846 0-15.19 3.827-24.207 12.604l2.4-11.803-4.4-1zm201.658 0c-2.698 2.343-7.514 3.561-15.004 3.801l-11.603 60.217h18.805l8.202-42.412c5.503-4.321 9.419-5.801 13.404-5.801 3.524 0 5.202 1.677 5.202 5.201 0 1.047-.245 2.194-.6 4.201l-7.402 38.811h18.805l8.402-43.412c.711-3.265.8-5.53.8-7.402 0-8.431-4.506-13.004-12.803-13.004-7.845 0-14.99 3.827-24.007 12.604l2.4-11.804-4.6-1zm220.863 0c-16.027 0-25.207 7.458-25.207 20.806 0 8.422 3.396 13.335 12.404 17.205 6.443 2.689 6.875 2.66 8.402 3.6 2.449 1.403 3.401 3.1 3.401 5.202 0 3.87-3.124 5.802-9.202 5.802-6.79 0-11.93-1.565-20.006-6.002l-2.6 13.404c7.845 4.216 13.633 5.602 23.006 5.602 16.737 0 25.807-7.727 25.807-22.007 0-9.247-3.427-12.862-17.005-18.605-5.857-2.449-7.602-3.903-7.602-6.602 0-3.39 3.09-5.201 8.602-5.201 6.31 0 10.786 1.256 17.806 5.001l2.6-13.404c-7.375-3.754-12.32-4.801-20.406-4.801zm-485.739.2c-10.073 0-18.864 4.772-24.607 13.204-4.916 7.144-8.402 20.489-8.402 31.609 0 13.232 6.2 20.806 17.205 20.806 7.845 0 14.156-3.573 21.406-12.004l2 10.203h17.005l.8-3.2c-1.651-1.989-2.2-3.474-2.2-6.403 0-2.112.405-5.273 1-8.202l8.603-44.413h-12.004l-4 5.402c-4.802-4.802-9.901-7.002-16.806-7.002zm413.719 1.2-19.206 1.6-7.802 40.012c-.691 3.515-1 5.544-1 8.002 0 9.363 5.187 14.805 14.204 14.805 7.605 0 14.545-3.478 23.207-11.804l2.6 10.003h12.604l12.203-62.618-19.005 1.6-8.603 42.813c-5.502 3.85-8.298 5.201-11.803 5.201-3.63 0-5.602-1.971-5.602-5.601 0-1.172.14-2.574.6-4.802l7.603-39.21zm-203.859 11.404c4.562 0 7.202 2.356 7.202 6.802 0 6.203-4.16 8.146-20.205 9.203 2.103-11.466 5.753-16.005 13.003-16.005zm-206.459.8c3.275 0 5.335.578 7.802 2.2l-5.801 31.01c-4.926 4.446-8.028 5.801-12.004 5.801-4.686 0-7.202-3.03-7.202-9.002 0-5.618 1.689-14.398 3.801-20.006 2.459-6.559 7.076-10.003 13.404-10.003zm347.1 1.6c4.676 0 7.602 3.14 7.602 8.403 0 5.848-2.334 16.66-4.801 21.806-2.459 5.157-6.746 7.803-12.604 7.803-3.39 0-6.043-.644-9.203-2.401l5.802-29.409c6.078-4.695 9.113-6.201 13.204-6.201z" style="fill:#87979f;fill-opacity:1;fill-rule:nonzero;stroke:none" transform="matrix(1.21935 0 0 1.21935 -125.76 -440.283)"/></svg>