<svg version="1.0" width="800pt" height="320pt" viewBox="0 0 800 320" preserveAspectRatio="xMidYMid" xmlns="http://www.w3.org/2000/svg"><path d="M0 0h800v320H0z" fill="#fff" style="clip-rule:evenodd;fill-rule:evenodd;stroke-width:.8;stroke-linejoin:round;stroke-miterlimit:2"/><path style="fill:#a1d12b;fill-opacity:1;fill-rule:evenodd;stroke-width:7.98529;paint-order:stroke fill markers" transform="translate(329.535 -117.048) scale(1.81817)" d="M-178.146 78.21H18.466v70.549h-196.612z"/><path d="M.697 85.087v83.636H367.968V1.452H.697zM167.605 50.18c3.273 4.181 2.728 8.909-1.454 13.09-4.364 4.364-6.91 4.546-12.364.728-5.454-3.637-5.454-12.364 0-16 4.546-3.273 10.182-2.364 13.818 2.182zm43.636-2.182c9.455 6.545.91 22.181-9.636 17.454-2.545-1.09-5.09-4.182-5.636-6.909-1.091-4-.364-5.818 3.636-9.273 5.818-4.909 6.364-5.09 11.636-1.272zM92.697 73.087c6.181 6.182 6.181 6.364 6.181 22.728 0 11.636-.909 18.363-2.909 22.181-3.454 6.728-13.636 11.455-21.636 10-5.818-1.09-14-8.363-16-14.181-1.636-4.728 8.546-4.364 13.455.545 4 4 10 3.455 14-1.636 3.454-4.546 2.727-5.273-6.728-5.091-7.636.182-10-.727-14.545-5.091-14.182-13.636-5.636-35.636 13.818-35.636 6.91 0 9.09.909 14.364 6.182zm44-3.272c6.545 4.545 9.454 12.363 9.454 25.272v11.819H135.242v-10.91c0-8.545-.727-11.636-3.637-14.545-4.363-4.363-9.636-4.727-13.454-.727-6.909 6.727 0 18.182 9.454 15.818 4-.91 4.182-.546 3.637 5.09-.727 7.455-5.455 8.91-15.091 4.183-7.636-3.637-11.818-10.546-11.818-20 0-5.091 1.454-8 6.182-12.727 5.09-5.091 7.454-6.182 14.181-6.182 4.364 0 9.819 1.272 12 2.909zm58.544 2.545c0 3.455-.909 5.455-2.545 5.455-4.909 0-8.364 7.636-8.364 18.545 0 10.546 0 10.546-5.454 10.546h-5.455V93.087c0-13.272.182-14 6.182-20 3.818-3.818 8-6.181 10.91-6.181 4 0 4.726.727 4.726 5.454zm59.273.728c6 6 6.182 6.727 6.182 20v13.818h-5.455c-5.454 0-5.454 0-5.454-10.546 0-12-3.455-18.545-10-18.545-6.546 0-10 6.545-10 18.545 0 10.546 0 10.546-5.455 10.546h-5.454V95.087c0-19.272 6.727-28.181 21.454-28.181 6.727 0 9.091 1.09 14.182 6.182zm42.363-3.455c8.364 4.182 11.637 13.454 10.727 31.09-.545 14.364-.909 15.455-6.545 21.092-5.09 5.272-7.09 6-15.09 6-8.183 0-9.819-.728-14.546-6-2.91-3.273-5.273-7.091-5.273-8.546 0-4 9.818-3.454 13.636.91 4 4.363 7.637 4.545 12.182.545 5.273-4.728 4.182-7.818-2.727-6.546-7.09 1.091-16-2.727-20.182-8.909-1.636-2.182-2.909-7.636-2.909-12 0-6.727 1.091-9.09 6.182-14.181 6.909-6.91 15.636-8.182 24.545-3.455zM164.333 87.815v19.09H153.424V68.725H164.333zm46-16.91c-.364.91-.546 9.273-.546 18.728v17.273H198.878V68.543l6 .545c3.09.363 5.636 1.09 5.454 1.818z"/><path d="M385 480c-22-25-13-68 17-79 54-20 94 27 64 74-20 30-56 33-81 5zM1536 484c-24-24-20-61 9-80 23-15 27-15 50 0 42 28 24 96-25 96-10 0-26-7-34-16z" style="fill:#000;fill-opacity:1" transform="matrix(.18182 0 0 -.18182 .697 168.723)"/><path fill="#b7a386" d="M404.024 130.694c.2 33.612.194 67.225.192 100.837 0 .243.046.486.058.601 1.552-4.782 2.838-9.79 4.777-14.53 6.216-15.196 16.014-27.398 31.203-34.34 17.642-8.062 34.793-6.341 50.658 4.646 16.7 11.566 25.107 28.311 28.182 48.007 2.69 17.23.276 33.769-7.787 49.224-8.737 16.75-21.755 28.553-40.843 32.164-15.26 2.886-29.012-1.101-41.104-10.669-12.82-10.144-20.29-23.657-24.12-39.358-.224-.917-.466-1.83-1.065-2.682v52.947c-.912.052-1.686.096-2.676.14-.215-.682-.215-1.363-.068-2.392.21-.664.328-.98.328-1.297.01-16.328.016-32.655-.009-48.983 0-.602-.304-1.203-.467-1.805 0-.523 0-1.047.146-1.91.202-8.64.261-16.94.292-25.239 0-.274-.285-.55-.438-.825 0-.368 0-.736.147-1.432.21-1.217.33-2.106.33-2.995.012-33.37.012-66.74.015-100.11h2.249m104.37 153.937c9.406-18.408 11.366-37.601 5.923-57.522-4.135-15.136-12.101-27.744-25.07-36.868-10.777-7.583-22.742-10.635-35.766-8.22-17.373 3.22-29.476 13.816-37.973 28.72-9.089 15.94-11.418 33.21-8.39 51.18 2.947 17.48 10.873 32.197 25.071 43.2 16.707 12.95 39 13.62 56.455 1.735 8.344-5.682 14.67-13.16 19.75-22.225z" style="stroke-width:.49078"/><path fill="#c8b89d" d="M401.529 130.694c.243 33.37.243 66.74.231 100.109 0 .89-.12 1.779-.33 2.811-.146-34.211-.146-68.566.099-102.92zM401.284 263.434c.162.372.466.973.467 1.575.024 16.328.019 32.655.009 48.983 0 .317-.118.633-.329 1.092-.147-17.045-.147-34.232-.147-51.65zM401.284 235.46c.152.045.439.32.438.595-.031 8.3-.09 16.6-.292 25.043-.146-8.374-.146-16.89-.146-25.638z" style="stroke-width:.49078"/><path fill="#b6a285" d="M532.732 273.61c-5.813-19.151-5.35-37.923 2.171-56.306 6.01-14.692 15.524-26.628 30.069-33.532 19.585-9.296 38.154-6.654 55.097 6.66 11.573 9.093 18.632 21.261 22.662 35.288.218.756.44 1.51 1.12 2.212v-2.525c0-14.803.019-29.606-.014-44.409-.005-1.86.279-3.115 2.705-2.33v138.91H643.9V267.83c-1.706 4.7-2.96 8.82-4.667 12.74-6.056 13.912-15.269 25.167-28.981 32.052-14.592 7.327-29.568 7.647-44.421.642-15.46-7.291-25.2-19.825-31.533-35.327-.556-1.358-1.006-2.76-1.566-4.327m11.529 17.125c4.816 7.021 10.721 12.941 17.994 17.399 9.285 5.69 19.412 8.225 30.238 6.928 15.724-1.883 27.729-10.207 36.779-22.806 11.533-16.056 15.443-34.163 13.1-53.65-2.222-18.487-9.786-34.307-24.428-46.188-11.36-9.218-24.411-13.044-38.95-10.35-15.259 2.827-26.996 11.406-34.95 24.37-17.074 27.832-16.782 56.001.217 84.297z" style="display:inline;stroke-width:.49078"/><path fill="#b5a084" d="M743.988 283.792c-1.013 16.195-10.48 28.687-27.982 32.637-11.766 2.656-23.568 2.447-35-1.734-13.87-5.071-21.881-15.257-24.447-29.669-.71-3.986-.864-8.112-.874-12.175-.071-30.505-.042-61.01-.048-91.515 0-1.675-.224-3.524 2.82-2.642v2.541c0 31.977-.148 63.955.074 95.93.087 12.556 4.67 23.282 15.308 30.775 5.541 3.903 11.876 5.801 18.474 6.69 8.318 1.121 16.621.858 24.79-1.354 14.72-3.986 24.032-15.946 24.285-31.205.006-.326.057-.65.368-1.022 1.1.766-.192 3.053 2.232 2.743z" style="stroke-width:.49078"/><path fill="#b5a082" d="M757.455 299.031c0 5.725-.052 11.205.033 16.683.031 1.994-.63 2.72-2.73 2.092v-139.09c1.963-.66 2.74-.166 2.726 1.952-.069 10.059-.032 20.118-.033 30.178 0 1.13 0 2.26.356 3.45 1.09-3.024 2.072-6.092 3.292-9.063 3.994-9.723 9.983-17.767 19.545-22.717 5.184-2.683 10.782-3.686 16.533-4.02 1.908-.112 1.518 1.209 1.356 2.554-2.55.305-5.145.46-7.677.944-11.14 2.127-18.912 8.784-24.303 18.472-4.96 8.916-7.71 18.58-8.439 28.684-.615 8.545-.58 17.144-.634 25.72-.091 14.638-.025 29.277-.026 44.161z" style="stroke-width:.49078"/><path fill="#bba88e" d="M744.036 283.635c-2.472.467-1.18-1.82-2.164-2.755-.185-32.582-.201-65.04-.233-97.499-.001-1.533-.142-3.067-.23-4.84l2.675-.147v5.24c0 30.497-.001 60.994.007 91.492 0 .813.121 1.627.05 2.771.131 1.523-1.908 2.863.095 3.944-.05.545-.101 1.09-.2 1.794z" style="stroke-width:.49078"/><path fill="#b5a084" d="M744.274 281.628c-2.04-.868 0-2.208-.153-3.526.14 1.02.165 2.167.153 3.526z" style="stroke-width:.49078"/></svg>