<svg xmlns="http://www.w3.org/2000/svg" viewBox="0 0 800 320.205" xmlns:v="https://vecta.io/nano"><style><![CDATA[.B{opacity:.387}.C{fill:#ceeeab}.D{stroke-linejoin:round}.E{stroke-linecap:round}.F{opacity:.039}.G{fill:#2d3335}.H{font-family:Monospace}]]></style><defs><linearGradient id="A" href="#Al"><stop stop-color="#2d3335" offset="0"/><stop stop-color="#4c464a" offset=".5"/><stop stop-color="#384042" offset="1"/></linearGradient><linearGradient id="B" href="#Al"><stop offset="0"/><stop stop-opacity="0" offset="1"/></linearGradient><linearGradient id="C" y2="-179.97" href="#B" x2="9" y1="-94.672" x1="94.25"/><linearGradient id="D" y2="-30.438" href="#B" x2="35.75" y1="-114.44" x1="50.75"/><linearGradient id="E" y2="-74.625" href="#B" x2="115.25" y1="-163.12" x1="77.625"/><linearGradient id="F" y2="7.063" href="#B" x2="125.72" y1="-50.438" x1="56.5"/><linearGradient id="G" y2="-146.8" href="#B" x2="180.75" y1="-163.3" x1="35"/><linearGradient id="H" y2="-41.609" href="#B" x2="179" y1="-141.11" x1="57"/><linearGradient id="I" y2="39.75" href="#B" x2="208.25" y1="-26.5" x1="156"/><linearGradient id="J" y2="-77.297" href="#B" x2="235" y1="-169.3" x1="142.75"/><linearGradient id="K" y2="-113.72" href="#L" x2="166.5" y1="-161.36" x1="214.25"/><linearGradient id="L" href="#Al"><stop stop-color="#fff" offset="0"/><stop stop-color="#fff" stop-opacity="0" offset="1"/></linearGradient><linearGradient id="M" y2="-62.469" href="#L" x2="57.656" y1="-126.5" x1="53.25"/><linearGradient id="N" y2="-17.125" href="#L" x2="75.719" y1="6.625" x1="39.5"/><linearGradient id="O" y2="-121.44" href="#L" x2="85.312" y1="-162.34" x1="102"/><linearGradient id="P" y2="-14.75" href="#L" x2="63.5" y1="-78.094" x1="117.75"/><linearGradient id="Q" y2="-60.75" href="#L" x2="133.94" y1="-125.12" x1="180.69"/><linearGradient id="R" y2="33.375" href="#L" x2="130.22" y1="-23.5" x1="170.75"/><linearGradient id="S" y2="-5.656" href="#L" y1="-76" x2="181.75" x1="213.5"/><linearGradient id="T" y2="-27.953" href="#B" x2="246.105" y1="301.887" x1="478.669"/><linearGradient id="U" y2="306.682" x2="255.684" y1="288.476" x1="237.478" href="#Al"><stop stop-color="#f9e295" offset="0"/><stop stop-color="#f7dd84" offset=".125"/><stop stop-color="#fff" offset=".206"/><stop stop-color="#f4ce51" offset=".301"/><stop stop-color="#f9e7aa" offset=".341"/><stop stop-color="#efbb0e" offset="1"/></linearGradient><linearGradient id="V" y2="150.38" x2="133" gradientTransform="rotate(-135 504.268 -90.647) scale(3.21836 -2.84818)" y1="150.38" x1="123" href="#Al"><stop stop-color="#2d3335" offset="0"/><stop stop-color="#4c464a" offset=".5"/><stop stop-color="#384042" offset="1"/></linearGradient><linearGradient id="W" y2="230.447" x2="331.925" y1="212.241" x1="313.719" href="#Al"><stop stop-color="#f9e295" offset="0"/><stop stop-color="#f7dd84" offset=".125"/><stop stop-color="#fff" offset=".206"/><stop stop-color="#f4ce51" offset=".301"/><stop stop-color="#f9e7aa" offset=".341"/><stop stop-color="#efbb0e" offset="1"/></linearGradient><linearGradient id="X" y2="150.38" href="#A" x2="133" gradientTransform="scale(-1.6092 1.6092) rotate(-45 -95.395 558.688)" y1="150.38" x1="123"/><linearGradient id="Y" y2="175.533" href="#A" x2="375.187" y1="162.015" x1="382.151"/><linearGradient id="Z" y2="150.38" href="#B" y1="167.73" gradientTransform="rotate(-135 504.268 -90.647) scale(3.21836 -2.84818)" x2="133" x1="108"/><linearGradient id="a" y2="155.225" x2="443.745" y1="31.082" x1="382.103" href="#Al"><stop stop-color="#fff" offset="0"/><stop stop-color="#fff" stop-opacity="0" offset="1"/></linearGradient><linearGradient id="b" y2="137.2" y1="29.815" gradientTransform="matrix(-.58144 .22936 .22798 -.50004 554.959 150.855)" x2="179.96" x1="126.64" href="#Al"><stop stop-color="#fff" offset="0"/><stop stop-color="#fff" stop-opacity="0" offset="1"/></linearGradient><linearGradient id="c" y2="-21.25" x2="9" y1="264.064" x1="210.17" href="#Al"><stop offset="0"/><stop stop-opacity="0" offset="1"/></linearGradient><linearGradient id="d" y2="4.302" x2="122" y1="245.45" x1="122" href="#Al"><stop offset="0"/><stop stop-opacity="0" offset="1"/></linearGradient><linearGradient id="e" y2="-10.918" x2="9" y1="258.125" x1="210.17" href="#Al"><stop offset="0"/><stop stop-opacity="0" offset="1"/></linearGradient><linearGradient href="#L" id="f" x1="214.25" y1="-161.36" x2="166.5" y2="-113.72"/><linearGradient href="#L" id="g" x1="53.25" y1="-126.5" x2="57.656" y2="-62.469"/><linearGradient href="#L" id="h" x1="39.5" y1="6.625" x2="75.719" y2="-17.125"/><linearGradient href="#L" id="i" x1="102" y1="-162.34" x2="85.312" y2="-121.44"/><linearGradient href="#L" id="j" x1="117.75" y1="-78.094" x2="63.5" y2="-14.75"/><linearGradient href="#L" id="k" x1="180.69" y1="-125.12" x2="133.94" y2="-60.75"/><linearGradient href="#L" id="l" x1="170.75" y1="-23.5" x2="130.22" y2="33.375"/><linearGradient href="#L" id="m" x1="213.5" y1="-76" x2="181.75" y2="-5.656"/><linearGradient href="#B" id="n" x1="94.25" y1="-94.672" x2="9" y2="-179.97"/><linearGradient href="#B" id="o" x1="50.75" y1="-114.44" x2="35.75" y2="-30.438"/><linearGradient href="#B" id="p" x1="77.625" y1="-163.12" x2="115.25" y2="-74.625"/><linearGradient href="#B" id="q" x1="56.5" y1="-50.438" x2="125.72" y2="7.063"/><linearGradient href="#B" id="r" x1="35" y1="-163.3" x2="180.75" y2="-146.8"/><linearGradient href="#B" id="s" x1="57" y1="-141.11" x2="179" y2="-41.609"/><linearGradient href="#B" id="t" x1="156" y1="-26.5" x2="208.25" y2="39.75"/><linearGradient href="#B" id="u" x1="142.75" y1="-169.3" x2="235" y2="-77.297"/><clipPath id="v"><path d="M9 12.25s7.5 13 11.75 27.75S27 65.5 27 65.5s-5.5 12.75-8.25 24.75-5.75 23-5.75 23 5.75 16 9.25 30S26 167.5 26 167.5s-4 10.25-7.5 24.25-5 30.75-5 30.75 9.25-2 28.5 1.25 32.25 6 32.25 6 12.75-2.75 24-6.25 16.25-6.5 16.25-6.5 5.5.5 22.5 6.25 29.25 8.5 29.25 8.5l26-5.75c13-3 26.5-8 26.5-8s-.75-5 4.25-24.5 8.75-28 8.75-28-.5-4.5-3.75-19.75S218 116 218 116s1.75-10.5 6.75-23.75L235 65.5s-4.75-15.25-7.5-29.75S219.25 10 219.25 10 195 19 187.5 20.5s-21 5.25-21 5.25-9.75-4.25-22-8.5-29.75-5.5-29.75-5.5-3.25 3.5-22 8-27.5 5.75-27.5 5.75-18.5-9-31.5-11.5-24-2-24.75-1.75z" class="C"/></clipPath><clipPath id="w"><path d="M9 12.25s7.5 13 11.75 27.75S27 65.5 27 65.5s-5.5 12.75-8.25 24.75-5.75 23-5.75 23 5.75 16 9.25 30S26 167.5 26 167.5s-4 10.25-7.5 24.25-5 30.75-5 30.75 9.25-2 28.5 1.25 32.25 6 32.25 6 12.75-2.75 24-6.25 16.25-6.5 16.25-6.5 5.5.5 22.5 6.25 29.25 8.5 29.25 8.5l26-5.75c13-3 26.5-8 26.5-8s-.75-5 4.25-24.5 8.75-28 8.75-28-.5-4.5-3.75-19.75S218 116 218 116s1.75-10.5 6.75-23.75L235 65.5s-4.75-15.25-7.5-29.75S219.25 10 219.25 10 195 19 187.5 20.5s-21 5.25-21 5.25-9.75-4.25-22-8.5-29.75-5.5-29.75-5.5-3.25 3.5-22 8-27.5 5.75-27.5 5.75-18.5-9-31.5-11.5-24-2-24.75-1.75z" class="C"/></clipPath><clipPath id="x"><path d="M9 12.25s7.5 13 11.75 27.75S27 65.5 27 65.5s-5.5 12.75-8.25 24.75-5.75 23-5.75 23 5.75 16 9.25 30S26 167.5 26 167.5s-4 10.25-7.5 24.25-5 30.75-5 30.75 9.25-2 28.5 1.25 32.25 6 32.25 6 12.75-2.75 24-6.25 16.25-6.5 16.25-6.5 5.5.5 22.5 6.25 29.25 8.5 29.25 8.5l26-5.75c13-3 26.5-8 26.5-8s-.75-5 4.25-24.5 8.75-28 8.75-28-.5-4.5-3.75-19.75S218 116 218 116s1.75-10.5 6.75-23.75L235 65.5s-4.75-15.25-7.5-29.75S219.25 10 219.25 10 195 19 187.5 20.5s-21 5.25-21 5.25-9.75-4.25-22-8.5-29.75-5.5-29.75-5.5-3.25 3.5-22 8-27.5 5.75-27.5 5.75-18.5-9-31.5-11.5-24-2-24.75-1.75z" class="C"/></clipPath><clipPath id="y"><path d="M9 12.25s7.5 13 11.75 27.75S27 65.5 27 65.5s-5.5 12.75-8.25 24.75-5.75 23-5.75 23 5.75 16 9.25 30S26 167.5 26 167.5s-4 10.25-7.5 24.25-5 30.75-5 30.75 9.25-2 28.5 1.25 32.25 6 32.25 6 12.75-2.75 24-6.25 16.25-6.5 16.25-6.5 5.5.5 22.5 6.25 29.25 8.5 29.25 8.5l26-5.75c13-3 26.5-8 26.5-8s-.75-5 4.25-24.5 8.75-28 8.75-28-.5-4.5-3.75-19.75S218 116 218 116s1.75-10.5 6.75-23.75L235 65.5s-4.75-15.25-7.5-29.75S219.25 10 219.25 10 195 19 187.5 20.5s-21 5.25-21 5.25-9.75-4.25-22-8.5-29.75-5.5-29.75-5.5-3.25 3.5-22 8-27.5 5.75-27.5 5.75-18.5-9-31.5-11.5-24-2-24.75-1.75z" class="C"/></clipPath><clipPath id="z"><path d="M9 12.25s7.5 13 11.75 27.75S27 65.5 27 65.5s-5.5 12.75-8.25 24.75-5.75 23-5.75 23 5.75 16 9.25 30S26 167.5 26 167.5s-4 10.25-7.5 24.25-5 30.75-5 30.75 9.25-2 28.5 1.25 32.25 6 32.25 6 12.75-2.75 24-6.25 16.25-6.5 16.25-6.5 5.5.5 22.5 6.25 29.25 8.5 29.25 8.5l26-5.75c13-3 26.5-8 26.5-8s-.75-5 4.25-24.5 8.75-28 8.75-28-.5-4.5-3.75-19.75S218 116 218 116s1.75-10.5 6.75-23.75L235 65.5s-4.75-15.25-7.5-29.75S219.25 10 219.25 10 195 19 187.5 20.5s-21 5.25-21 5.25-9.75-4.25-22-8.5-29.75-5.5-29.75-5.5-3.25 3.5-22 8-27.5 5.75-27.5 5.75-18.5-9-31.5-11.5-24-2-24.75-1.75z" class="C"/></clipPath><clipPath id="AA"><path d="M9 12.25s7.5 13 11.75 27.75S27 65.5 27 65.5s-5.5 12.75-8.25 24.75-5.75 23-5.75 23 5.75 16 9.25 30S26 167.5 26 167.5s-4 10.25-7.5 24.25-5 30.75-5 30.75 9.25-2 28.5 1.25 32.25 6 32.25 6 12.75-2.75 24-6.25 16.25-6.5 16.25-6.5 5.5.5 22.5 6.25 29.25 8.5 29.25 8.5l26-5.75c13-3 26.5-8 26.5-8s-.75-5 4.25-24.5 8.75-28 8.75-28-.5-4.5-3.75-19.75S218 116 218 116s1.75-10.5 6.75-23.75L235 65.5s-4.75-15.25-7.5-29.75S219.25 10 219.25 10 195 19 187.5 20.5s-21 5.25-21 5.25-9.75-4.25-22-8.5-29.75-5.5-29.75-5.5-3.25 3.5-22 8-27.5 5.75-27.5 5.75-18.5-9-31.5-11.5-24-2-24.75-1.75z" class="C"/></clipPath><clipPath id="AB"><path d="M123.62 141.06c20.832 20.243 54.607 19.289 75.439-2.132s20.832-55.196 0-75.439-54.607-19.289-75.439 2.132-20.832 55.196 0 75.439z" fill="url(#AG)"/></clipPath><clipPath id="AC"><path d="M9 22.578s7.5 12.393 11.75 26.8S27 74.373 27 74.373s-5.5 13.195-8.25 25.417A693.487 693.487 0 0 1 13 123.25s5.75 15.535 9.25 29.252S26 176.449 26 176.449s-4 10.574-7.5 24.857-5 31.154-5 31.154 9.25-2.748 28.5-1.055 32.25 3.392 32.25 3.392 12.75-3.782 24-8.191 16.25-7.815 16.25-7.815 5.5.055 22.5 4.43 29.25 6.135 29.25 6.135l26-7.853c13-4.051 26.5-10.143 26.5-10.143s-.75-4.94 4.25-24.844 8.75-28.708 8.75-28.708-.514-4.455-3.75-19.447c-1.75-8.108-2.25-4.068-2.25-4.068s16.264-26.155 16.5-40.334c.25-15.02-7.25-36.413-7.25-36.413s-4.75-14.866-7.5-29.143-8.25-25.083-8.25-25.083S195 14.281 187.5 16.388s-21 6.948-21 6.948-9.75-3.461-22-6.72-29.75-3.094-29.75-3.094-3.25 3.763-22 9.78-27.5 7.973-27.5 7.973-18.5-7.504-31.5-8.952-24-.06-24.75.252z" fill="url(#e)" class="F"/></clipPath><radialGradient id="AD" cy="86" cx="128" gradientTransform="matrix(1.1621017106088434,1.1621017106088432,1.1621017106088432,-1.1621017106088434,188.48977954246956,58.17825433985507)" r="47" href="#Al"><stop stop-color="#d0e9f2" stop-opacity="0" offset="0"/><stop stop-color="#d0e9f2" stop-opacity="0" offset=".839"/><stop stop-color="#d0e9f2" stop-opacity=".282" offset=".943"/><stop stop-color="#d0e9f2" offset="1"/></radialGradient><radialGradient id="AE" cy="72.588" cx="159.61" gradientTransform="matrix(1.40172 0 0 .9701 178.017 72.897)" r="38.417" href="#Al"><stop stop-color="#fff" offset="0"/><stop stop-color="#fff" stop-opacity=".93" offset=".5"/><stop stop-color="#fff" stop-opacity="0" offset="1"/></radialGradient><radialGradient id="AF" cx="159.61" cy="72.588" r="38.417" gradientTransform="matrix(1.40172 0 0 .9701 178.512 74.384)" href="#Al"><stop stop-color="#fff" offset="0"/><stop stop-color="#fff" stop-opacity="0" offset="1"/></radialGradient><radialGradient id="AG" cy="86" cx="128" gradientTransform="matrix(.80254 .77986 .80254 -.82522 -10.402 73.423)" r="47" href="#Al"><stop stop-color="#d0e9f2" stop-opacity="0" offset="0"/><stop stop-color="#d0e9f2" stop-opacity="0" offset=".839"/><stop stop-color="#d0e9f2" stop-opacity=".282" offset=".943"/><stop stop-color="#d0e9f2" offset="1"/></radialGradient><filter id="AH" x="-.048" y="-.048" width="1.096" height="1.096"><feGaussianBlur stdDeviation="4.287"/></filter><filter id="AI" x="-.071" y="-.071" width="1.141" height="1.141"><feGaussianBlur stdDeviation="6.311"/></filter><filter id="AJ" x="-.047" y="-.049" width="1.095" height="1.097"><feGaussianBlur stdDeviation="4.457"/></filter><path id="AK" d="M174.28 35.875c-17.6 0-35.19 6.639-48.72 19.906-.16.164-.33.303-.5.469-22.05 22.056-26.206 55.25-12.47 81.5l-2.28 1.63c2.25 4.23 4.94 8.3 8.1 12.12l-13.32 13.34c-1.34-.58-2.78-1.03-4.56-1.37l-2.842 2.84c-1.11-.48-2.139-.81-3.063-.87L30.5 229.56c-.037 1.1.226 2.19.656 3.28l-.531.54-1.094 1.09c.716 3.74 2.011 6.82 5.469 10.28s6.42 4.63 10.281 5.47l1.094-1.1.719-.71c1.088.46 2.13.78 3.094.84l64.122-64.13c-.24-.97-.62-1.93-1.03-2.9l3-3c-.25-1.73-.68-3.2-1.31-4.6l13.28-13.28a71.81 71.81 0 0 0 12.13 8.1l1.62-2.28c26.25 13.74 59.44 9.58 81.5-12.47.17-.17.31-.34.47-.5 26.69-27.22 26.55-70.923-.47-97.94-13.59-13.59-31.41-20.375-49.22-20.375zm-.5 3.281c.11.002.21-.002.31 0a67.89 67.89 0 0 1 5.72.375l.28.031.29.032c.14.017.29.044.43.062a64.67 64.67 0 0 1 2.69.375c.62.102 1.23.224 1.84.344l1.04.187c.72.153 1.43.324 2.15.5l.94.219c.07.019.14.043.22.063.95.253 1.89.516 2.84.812.07.023.15.04.22.063a62.41 62.41 0 0 1 2.84.969c.06.019.11.042.16.062a68.34 68.34 0 0 1 2.84 1.125c.06.022.11.041.16.063.94.4 1.88.836 2.81 1.281l.13.062c.93.451 1.86.91 2.78 1.407.03.017.06.044.09.062.93.503 1.84 1.013 2.75 1.562.03.02.06.044.1.063a68.25 68.25 0 0 1 2.68 1.719c.55.369 1.09.769 1.63 1.156l1.09.781c.02.014.05.018.06.031.88.656 1.75 1.36 2.6 2.063 1.76 1.449 3.448 2.982 5.06 4.594a69.04 69.04 0 0 1 4.56 5.031c.01.011.03.02.03.031.71.855 1.41 1.715 2.07 2.594.28.379.54.773.81 1.156l1.09 1.563c.02.024.05.038.07.062a76.06 76.06 0 0 1 1.71 2.688c.02.032.05.061.07.094a75.45 75.45 0 0 1 1.56 2.75c.02.032.04.06.06.093.5.921.96 1.844 1.41 2.781l.06.126A61.53 61.53 0 0 1 235.31 81l.06.156A60.9 60.9 0 0 1 236.5 84l.06.156a59.55 59.55 0 0 1 .97 2.844l.06.219c.3.941.56 1.894.82 2.843l.06.219c.08.31.14.627.22.938l.5 2.156c.07.342.12.688.18 1.031l.35 1.844c.15.893.26 1.791.37 2.688.02.145.05.291.07.437l.03.281.03.282c.1.952.19 1.912.25 2.872a53.85 53.85 0 0 1 .12 2.85c.01.1 0 .2 0 .31.02 1.05.01 2.1-.03 3.15a64.29 64.29 0 0 1-.15 2.79c-.01.12-.02.25-.04.37a50.19 50.19 0 0 1-.28 2.75 68.88 68.88 0 0 1-.43 2.88c-.02.08-.02.16-.04.25-.02.12-.03.25-.06.37a62.41 62.41 0 0 1-.56 2.72l-.09.41a86.1 86.1 0 0 1-.69 2.65l-.53 1.75-.53 1.69c-.3.86-.61 1.71-.94 2.56-.06.16-.13.32-.19.47l-.12.34c-.36.88-.73 1.73-1.13 2.6a60.91 60.91 0 0 1-1.19 2.44c-.08.15-.16.31-.25.46-.41.8-.83 1.6-1.28 2.38-.09.17-.18.34-.28.5-.2.34-.42.66-.62 1l-1.13 1.75c0 .01.01.02 0 .03-.49.75-1 1.49-1.53 2.22-.46.64-.95 1.25-1.44 1.87-.19.26-.36.53-.56.79l-.41.5c-.16.2-.33.39-.5.59-.55.67-1.13 1.32-1.72 1.97a58.29 58.29 0 0 1-1.87 2c-.16.16-.31.34-.47.5-21.13 21.13-52.26 24.49-77.19 11.15l.13-.18a65.83 65.83 0 0 1-10.63-6.78c-.54-.43-1.06-.87-1.59-1.32l-1.53-1.31c-.09-.08-.19-.16-.28-.25a86.97 86.97 0 0 1-2.41-2.31 86.97 86.97 0 0 1-2.31-2.41c-.09-.09-.17-.19-.25-.28-.45-.5-.88-1.02-1.31-1.53l-1.32-1.59a65.83 65.83 0 0 1-6.78-10.63l-.19.13c-13.33-24.93-9.97-56.061 11.16-77.191.16-.163.34-.308.5-.469.65-.64 1.33-1.269 2-1.875.65-.588 1.3-1.162 1.97-1.719l.81-.687c.35-.278.72-.512 1.06-.782.63-.483 1.24-.98 1.88-1.437.74-.53 1.5-1.036 2.25-1.531l1.75-1.125 1.34-.813c.69-.395 1.37-.757 2.07-1.125 1.106-.597 2.23-1.159 3.37-1.687.87-.397 1.72-.769 2.59-1.125.16-.062.32-.096.47-.157.97-.384 1.93-.758 2.91-1.093.56-.192 1.12-.356 1.69-.532l1.75-.531a66.18 66.18 0 0 1 2.65-.687c.07-.017.15-.015.22-.032l1.25-.281 2.03-.406c.09-.015.17-.017.25-.031.95-.164 1.92-.317 2.88-.438 3.005-.377 6.032-.544 9.06-.5z"/><path id="AL" d="M246.105 10.776s8.67 15.028 13.584 32.08 7.226 29.48 7.226 29.48-6.359 14.74-9.538 28.612-6.647 26.59-6.647 26.59 6.647 18.497 10.693 34.682 4.336 28.034 4.336 28.034-4.625 11.85-8.671 28.034-5.78 35.55-5.78 35.55 10.693-2.313 32.947 1.444 37.283 6.937 37.283 6.937 14.74-3.18 27.746-7.226 18.786-7.514 18.786-7.514 6.358.578 26.011 7.225 33.815 9.827 33.815 9.827l30.058-6.647c15.028-3.469 30.635-9.249 30.635-9.249s-.867-5.78 4.913-28.323 10.116-32.37 10.116-32.37-.578-5.202-4.335-22.832-11.56-34.393-11.56-34.393 2.022-12.139 7.803-27.457l11.85-30.924s-5.492-17.63-8.671-34.393-9.538-29.769-9.538-29.769-28.034 10.405-36.705 12.14-24.277 6.068-24.277 6.068-11.272-4.913-25.433-9.826-34.393-6.358-34.393-6.358-3.757 4.046-25.433 9.248-31.792 6.647-31.792 6.647S289.747 15.69 274.718 12.8s-27.745-2.312-28.613-2.023z"/><path id="AM" d="m110.75 5.5-4.25 7c-.75 9-2.25 13.75-8.5 16.5s-12.25 3.5-11 7.5 13 9.25 14.25 13 8.25 1.75 11 7 2 15.25-3.75 17.25-17.5.5-20.25 9.5-4.75 10.5-9 12.75-7.25 10.5-3.5 16.5 12.25-1.25 15-6.5S98 97.25 98 97.25h23.75l59-1.75 3.25-3.75s3.25 4 2.75 8.75-3.75 14.75.25 17.25 19.5-2 24-7-4.75-28.25-10.5-29.5-18.5-1.75-17-7 11.75 4.5 17.25 3.25 16.75-21 12-25.25-24.25-5.25-25.75-8 21-8 22.25-11-2.5-7.25-6.25-8.5S189 41 182 40.5s-20 5.75-17.25 11.5-6 11-14.5 6.5-24.75-13-21.75-24S150 15.75 150 15.75zM97.188 112.72c-1.595.15-4.469 4.69-4.938 7.03-.5 2.5-3.25 6.75-3.5 12.25s4.75 6.75 8.75 6.5 2.75-6.75 2-15c-.25 0-.5-10.25-2-10.75-.094-.03-.206-.04-.312-.03zm92.722 51.66c-6.34.29-6.63 7.46-7.41 8.87-1.25 2.25 2.25 13.75 2 18s-4.75 5.25-9.5 9.75.5 16 11.25 31l44.75 1.25-1-35s4.75-4.25-20.75-24.25c-9.56-7.5-15.54-9.8-19.34-9.62zM39.94 180.91c-4.03-.11-8.282 5.71-9.688 7.59-1.5 2-6.25 5-17 9.5l-14.5 34.25 53 4.25s1.75-11-4.25-15.75-17.25-5.75-18.25-13.25 9.25-10 13.75-14.25 2-11.25-2.25-12.25a3.728 3.728 0 0 0-.812-.09z"/><path id="AN" d="M15.75 151.25c33-2.5 38.25-3.5 36.25-10.25s-8.75-23.5-23-22.5-22.75-6.75-22.75-6.75"/><path id="AO" d="M17.5 177.25c18.25-10 28.75-8.5 35-11.5s13.25-5.75 15.75-9.5 5.75-11.5 5.75-18-3.5-36 3.25-43.5 17.25-26 26-23.25 12.25 9.75 22 9.5S147 77 149.5 68.75s-15.75-16-16-23 5.5-14.25 20.25-17 23.5-11.5 23.5-11.5"/><path id="AP" d="M14.5 161c15.25-1.5 22.25 3.5 31.5 1.75s13.25-3 17.75-5.75 6-3.75 6.25-6.5 1-12.5-3-22S54.5 97 58.75 89.75 64 68.25 74.5 65.25 95.5 59 102.25 64s12.75 14.25 20 14.5S134 77 136.75 74s4.5-10.25 1.75-13.75-15.5-5.5-17.25-9.5-10.75-17-.25-26.75 36.25-8.25 36.25-8.25"/><path id="AQ" d="M21.25 159c13.75 1 21.5 4.25 33.5-.5s13.5-5.25 13.75-8.75-.25-15.75-3-20-13-13.75-15.75-24.25.25-41 8.5-48.25 32-7.25 37.5-10.5 5.25-16.75 13-24.5 27-12.25 27-12.25M190 18.5c11.75 5 39 9.75 47.25 40.25M9.75 214c19-12.5 36-1.25 49-4s38.25-37.25 46-37 5.5-11.75 8.5-13.25 5.5 6 11.75 8 24.5-2.75 23.5-5.75-7-7.75-5.5-8.5 8.5 5 12.75 3.5 43.75-1 48.5-13.5 21.5-13.5 21.5-13.5M77.5 233.5c13.5-11.5 23.25-25 28.5-27s12.75-3.75 15.75-8 2.5-10.75 5.25-12 3.75 5.75 8.75 6 36.75-5 42.75-11.75 32.25-12.5 32.5-14.5-1-4.75.25-5.5 24.75-6 24.75-6M168.75 236c9-13.75 20.5-41 29.5-42s10.25-2.5 12.5-4.25 17 2.25 17 2.25"/><path id="AR" d="m57.75 20-8.5 28.25 18 6.25L75 90.75 54 113l9 10.5L51 135l.5 4.5L71.75 164l14-6.75 20.5 18.5L95.75 204l10.25 8.5-2.75 13"/><path id="AS" d="m105.75 212.25 12.5-27.75 11-7 27.5 15.75 20.5-3.75-.25-15.75-10.25-6 12.75-26.25 5.75-3.75 38.75-10"/><path id="AT" d="M219.25-182s-24.25 9-31.75 10.5-21 5.25-21 5.25c4.92-1.36 11.44 45.39 14.25 52.25l-.06.28c11.81-4.07 51.21-4.77 54.31-12.78 0 0-4.75-15.25-7.5-29.75S219.25-182 219.25-182z"/><path id="AU" d="M27-126.5s-5.5 12.75-8.25 24.75-5.75 23-5.75 23l50.625 16.281 15.781-58.911z"/><path id="AV" d="M26-24.5S22-14.25 18.5-.25s-5 30.75-5 30.75.147-.045.438-.094c2.033-.338 11.218-1.5 28.062 1.344 19.25 3.25 32.25 6 32.25 6l1.469-52.5-.75.125z"/><path id="AW" d="M114.75-180.25s-3.25 3.5-22 8-27.5 5.75-27.5 5.75c5.182 14.7 12.03 29.27 14.25 44.75l-.094.31 48.034-3.94 1.12.26c-3.36-13.33-7.79-54.6-13.81-55.13z"/><path id="AX" d="M117.59-78.094 63.969-62.375l-.344-.094L63.5-62l12.25 46.5-.031.75 49.471-8.875.53.187.03-.062-8.25-54.25z"/><path id="AY" d="M128.56-125.12l.69 2.37-11.66 44.656.1-.031L169.5-60.75l11.19-52.97-1 .38z"/><path id="AZ" d="M125.53-23.5L114.5 25s5.5.5 22.5 6.25l6.12 2.031L148.75 35c10.62 3.199 17.5 4.75 17.5 4.75l12.72-45.406-1.53.562z"/><path id="Aa" d="M218-76c-15.67 6.288-31.7 11.15-48.06 15.406l-.44-.156 9.5 55-.03.094c17.84-6.36 35.38-13.387 52.78-20.844 0 0-.5-4.5-3.75-19.75S218-76 218-76Z"/><path id="Ab" d="M13.719-179.97l-2.719.06-1.156.07c-.03 0-.066-.01-.094 0l-.75.09s7.5 13 11.75 27.75S27-126.5 27-126.5l51.469 5.12.937-.06.094-.31c-2.22-15.48-9.068-30.05-14.25-44.75 0 0-18.5-9-31.5-11.5a89.62 89.62 0 0 0-3-.53l-1.75-.28c-.237-.04-.453-.06-.688-.1a98.77 98.77 0 0 0-3.812-.46c-.735-.08-1.395-.13-2.094-.19l-2-.16c-.992-.07-1.89-.12-2.781-.15-1.456-.07-2.769-.1-3.906-.1z"/><path id="Ac" d="M13-78.75s5.75 16 9.25 30S26-24.5 26-24.5l48.969 9.875.75-.125.031-.75L63.5-62l.125-.469z"/><path id="Ad" d="m127.44-125.38-47.971 4h-.063L63.625-62.469l.344.094 53.621-15.719 11.66-44.656c-.22-.63-.45-1.45-.69-2.37z"/><path id="Ae" d="M125.19-23.625 75.719-14.75l-1.469 52.5S87 35 98.25 31.5 114.5 25 114.5 25l11.22-48.438z"/><path id="Af" d="M114.75-180.25c6.02.53 10.45 41.8 13.81 55.13l51.13 11.78a12.43 12.43 0 0 1 1-.38l.06-.28c-2.81-6.86-9.33-53.61-14.25-52.25l-1.72-.72c-3.32-1.39-11.09-4.59-20.28-7.78-12.25-4.25-29.75-5.5-29.75-5.5z"/><path id="Ag" d="M117.69-78.125l-.1.031-.09.344 8.25 53.25-.22 1 51.91 18.406 1.53-.562.03-.094-9.5-55z"/><path id="Ah" d="M231.75-26.5c-17.4 7.457-34.94 14.484-52.78 20.844L166.25 39.75l26-5.75c13-3 26.5-8 26.5-8S218 21 223 1.5s8.75-28 8.75-28z"/><path id="Ai" d="M235-126.5c-3.1 8.01-42.5 8.71-54.31 12.78L169.5-60.75l.44.156C186.3-64.85 202.33-69.712 218-76c0 0 1.75-10.5 6.75-23.75L235-126.5z"/><path id="Aj" d="M9 12.25s7.5 13 11.75 27.75S27 65.5 27 65.5s-5.5 12.75-8.25 24.75-5.75 23-5.75 23 5.75 16 9.25 30S26 167.5 26 167.5s-4 10.25-7.5 24.25-5 30.75-5 30.75 9.25-2 28.5 1.25 32.25 6 32.25 6 12.75-2.75 24-6.25 16.25-6.5 16.25-6.5 5.5.5 22.5 6.25 29.25 8.5 29.25 8.5l26-5.75c13-3 26.5-8 26.5-8s-.75-5 4.25-24.5 8.75-28 8.75-28-.5-4.5-3.75-19.75S218 116 218 116s1.75-10.5 6.75-23.75L235 65.5s-4.75-15.25-7.5-29.75S219.25 10 219.25 10 195 19 187.5 20.5s-21 5.25-21 5.25-9.75-4.25-22-8.5-29.75-5.5-29.75-5.5-3.25 3.5-22 8-27.5 5.75-27.5 5.75-18.5-9-31.5-11.5-24-2-24.75-1.75z"/><path id="Ak" d="M382.555 161.607c30.173 30.161 79.075 30.161 109.236 0 30.174-30.173 30.174-79.075 0-109.24-30.161-30.165-79.063-30.165-109.236 0-30.161 30.165-30.161 79.067 0 109.24z"/><linearGradient id="Al" gradientUnits="userSpaceOnUse"/></defs><path d="M0 0h800v320H0Z" fill="#fff"/><use href="#AK" opacity=".7" transform="matrix(1.15606 .07935 0 .98115 235.7 39.288)" filter="url(#AI)" class="G"/><path opacity=".5" d="M9 17.25s7.5 11 11.75 25.75S27 68.5 27 68.5s-5.5 12.75-8.25 24.75l-5.75 25s5.75 16 9.25 30S26 170.5 26 170.5s-4 10.25-7.5 24.25-5 30.75-5 30.75 9.25-2 28.5 1.25 32.25 6 32.25 6 12.75-2.75 24-6.25 16.25-6.5 16.25-6.5 5.5.5 22.5 6.25 29.25 8.5 29.25 8.5l26-5.75c13-3 26.5-8 26.5-8s-.75-5 4.25-24.5 8.75-28 8.75-28L228 150.75C224.75 135.5 218 121 218 121s1.75-12.5 6.75-25.75L235 68.5s-4.75-15.25-7.5-29.75S219.25 15 219.25 15 195 24 187.5 25.5s-21 5.25-21 5.25-9.75-4.25-22-8.5-29.75-5.5-29.75-5.5-3.25 3.5-22 8-27.5 5.75-27.5 5.75-18.5-9-31.5-11.5-24-2-24.75-1.75z" transform="matrix(1.15606 0 0 .97869 235.7 40.151)" filter="url(#AJ)" fill="url(#d)"/><use href="#AL" class="C"/><g transform="matrix(1.15606 0 0 1.15606 235.7 -3.386)" clip-path="url(#x)"><use href="#AM" fill="#a6dd8b"/></g><path fill="#aac3e7" d="M418.971 95.277c-5.503-.018-10.439 1.119-13.33 3.648-9.248 8.093-40.461.867-56.068 8.093s-15.318 43.93-17.052 51.444-20.231 23.989-23.121 27.168-15.318 8.381-22.543 9.826-14.74 8.382-17.92 12.717c-2.336 3.19-8.561 7.457-11.704 9.503-.054.208-.092.404-.145.612-.155.613-.286 1.249-.433 1.885 5.757-1.861 12.924-9.457 19.219-15.757 7.225-7.226 23.121-8.96 32.08-13.295s16.475-22.832 30.636-27.456 24.567 13.583 28.035 21.387 2.023 14.74 4.335 19.653 12.717 13.583 13.295 15.607-5.78 7.514-7.226 9.826-12.138 8.093-13.583 10.116c-1.122 1.56-2.22 7.826-2.67 10.658l1.294-.543c.566-2.925 1.757-8.185 3.399-9.826 2.312-2.312 13.005-5.203 14.45-9.827s8.093-7.514 8.093-7.514 3.18 4.624 18.497 16.185c10.208 7.71 14.751 17.953 16.659 23.953l2.346.613c-1.41-4.994-5.595-18.775-10.335-23.988-5.78-6.359-21.387-12.428-26.3-25.434S360.555 174.936 368.648 168s19.075-4.624 32.948 8.67 53.467 6.648 66.762 4.336c11.503-2 24.08 17.202 27.641 30.092l1.908-6.648c-2.012-2.22-4.266-5.34-6.139-9.572-4.335-9.826-13.872-15.318-13.872-15.318s10.115-5.78 17.051-8.959c1.873-.856 3.48-1.942 4.844-3.075a341.1 341.1 0 0 0-.508-2.416l-.104-.509c-5.515 6.428-22.243 11.121-25.04 12.647-3.18 1.734-21.099 3.469-41.33 5.203s-30.924-8.67-39.595-17.052-15.029-41.618-3.468-43.93 23.121 15.895 34.682 19.652 24.855-18.208 22.832-31.213c-1.387-8.941-16.185-14.595-28.289-14.631zm-61.664 15.353c1.468.001 6.774 1.843 7.584 2.746 2.6 2.89 2.312 8.381 0 9.248s-14.74 9.249-12.139 16.474 2.023 20.81-4.046 20.81-9.249 0-11.56-2.89-2.313-13.873 0-22.833 4.045-17.34 9.248-21.098c3.577-2.583 7.664-2.46 10.913-2.457zm15.71 84.503c.232.011 2.209 4.057 5.457 8.127 3.469 4.335 3.758 9.537 3.758 9.537s-4.914-5.491-6.937-9.248-2.312-8.382-2.312-8.382c0-.034.023-.034.035-.034z"/><g stroke="#6d7f42" fill="none"><path d="M377.607 80.14c7.226.577 14.162-2.602 12.428-7.515s-14.45-8.382-15.318-3.468 2.312 12.138 2.89 10.982zm-16.185-17.92c-9.826-6.358-9.826-8.381-8.092-9.248s11.85 5.78 14.74 9.248-2.601 2.312-6.647 0z" stroke-width="1.156" class="B D"/><g clip-path="url(#v)" transform="matrix(1.15606 0 0 1.15606 235.7 -3.386)"><use href="#AN" class="B D E"/><use href="#AO" class="B"/><g class="D E"><use href="#AP" class="B"/><use href="#AQ" class="B"/></g></g></g><g clip-path="url(#w)" transform="matrix(1.15606 0 0 1.15606 235.7 -3.386)" stroke="#d38484" fill="none" stroke-width="2" class="E"><use href="#AR"/><use href="#AS"/></g><use href="#AL" fill="url(#T)" class="F"/><g opacity=".27"><g transform="matrix(1.15606 0 0 1.15606 235.7 218.577)"><use href="#AT" fill="url(#f)"/><use href="#AU" fill="url(#g)"/><use href="#AV" fill="url(#h)"/><use href="#AW" fill="url(#i)"/><use href="#AX" fill="url(#j)"/><use href="#AY" fill="url(#k)"/><use href="#AZ" fill="url(#l)"/><use href="#Aa" fill="url(#m)"/></g></g><g opacity=".043"><g transform="matrix(1.15606 0 0 1.15606 235.7 218.577)"><use href="#Ab" fill="url(#n)"/><use href="#Ac" fill="url(#o)"/><use href="#Ad" fill="url(#p)"/><use href="#Ae" fill="url(#q)"/><use href="#Af" fill="url(#r)"/><use href="#Ag" fill="url(#s)"/><use href="#Ah" fill="url(#t)"/><use href="#Ai" fill="url(#u)"/></g></g><g clip-path="url(#AB)" transform="matrix(1.44797 .04092 0 1.44797 203.552 -47.714)"><use href="#Aj" class="C"/><g clip-path="url(#y)"><use href="#AM" fill="#a6dd8b"/></g><path fill="#aac3e7" d="M158.53 85.344c-4.76-.015-9.03.968-11.53 3.156-8 7-35 .75-48.5 7s-13.25 38-14.75 44.5-17.5 20.75-20 23.5-13.25 7.25-19.5 8.5-12.75 7.25-15.5 11c-2.021 2.76-7.406 6.45-10.125 8.22-.046.18-.079.35-.125.53-.134.53-.247 1.08-.375 1.63 4.98-1.61 11.18-8.18 16.625-13.63 6.25-6.25 20-7.75 27.75-11.5S76.75 148.5 89 144.5s21.25 11.75 24.25 18.5 1.75 12.75 3.75 17 11 11.75 11.5 13.5-5 6.5-6.25 8.5-10.5 7-11.75 8.75c-.97 1.35-1.92 6.77-2.31 9.22l1.12-.47c.49-2.53 1.52-7.08 2.94-8.5 2-2 11.25-4.5 12.5-8.5s7-6.5 7-6.5 2.75 4 16 14c8.83 6.67 12.76 15.53 14.41 20.72l2.03.53c-1.22-4.32-4.84-16.24-8.94-20.75-5-5.5-18.5-10.75-22.75-22S108 154.25 115 148.25s16.5-4 28.5 7.5 46.25 5.75 57.75 3.75c9.95-1.73 20.83 14.88 23.91 26.03l1.65-5.75c-1.74-1.92-3.69-4.62-5.31-8.28-3.75-8.5-12-13.25-12-13.25s8.75-5 14.75-7.75c1.62-.74 3.01-1.68 4.19-2.66l-.44-2.09-.09-.44c-4.77 5.56-19.24 9.62-21.66 10.94-2.75 1.5-18.25 3-35.75 4.5s-26.75-7.5-34.25-14.75-13-36-3-38 20 13.75 30 17 21.5-15.75 19.75-27c-1.2-7.734-14-12.625-24.47-12.656zm-53.34 13.281c1.27.001 5.86 1.595 6.56 2.375 2.25 2.5 2 7.25 0 8s-12.75 8-10.5 14.25 1.75 18-3.5 18-8 0-10-2.5-2-12 0-19.75 3.5-15 8-18.25c3.094-2.234 6.63-2.128 9.44-2.125zm13.59 73.095c.2.01 1.91 3.51 4.72 7.03 3 3.75 3.25 8.25 3.25 8.25s-4.25-4.75-6-8-2-7.25-2-7.25c0-.03.02-.03.03-.03z"/><g stroke="#6d7f42" fill="none"><path d="M122.75 72.25c6.25.5 12.25-2.25 10.75-6.5s-12.5-7.25-13.25-3 2 10.5 2.5 9.5zm-14-15.5c-8.5-5.5-8.5-7.25-7-8s10.25 5 12.75 8-2.25 2-5.75 0z" class="B D"/><g clip-path="url(#z)"><use href="#AN" class="B D E"/><use href="#AO" class="B"/><g class="D E"><use href="#AP" class="B"/><use href="#AQ" class="B"/></g></g></g><g clip-path="url(#AA)" stroke="#d38484" fill="none" stroke-width="2" class="E"><use href="#AR"/><use href="#AS"/></g><use href="#Aj" fill="url(#c)" class="F"/><g opacity=".27" transform="translate(0 192)"><use href="#AT" fill="url(#K)"/><use href="#AU" fill="url(#M)"/><use href="#AV" fill="url(#N)"/><use href="#AW" fill="url(#O)"/><use href="#AX" fill="url(#P)"/><use href="#AY" fill="url(#Q)"/><use href="#AZ" fill="url(#R)"/><use href="#Aa" fill="url(#S)"/></g><g opacity=".043" transform="translate(0 192)"><use href="#Ab" fill="url(#C)"/><use href="#Ac" fill="url(#D)"/><use href="#Ad" fill="url(#E)"/><use href="#Ae" fill="url(#F)"/><use href="#Af" fill="url(#G)"/><use href="#Ag" fill="url(#H)"/><use href="#Ah" fill="url(#I)"/><use href="#Ai" fill="url(#J)"/></g></g><use href="#AK" clip-path="url(#AC)" transform="matrix(1.15606 .0935 0 1.15606 235.7 -16.168)" filter="url(#AH)" class="G"/><path d="M291.203 271.132l-5.557 5.26-17.433-18.647 5.192-4.705c7.894 7.549 10.256 9.86 17.798 18.092z" fill="url(#U)"/><path d="M380.278 163.884c-31.417-31.421-31.417-82.37 0-113.792s82.37-31.422 113.79 0 31.423 82.37 0 113.792-82.368 31.422-113.79 0zm3.422-3.422c30.161 30.173 77.93 31.306 108.091 1.145 30.174-30.173 29.03-77.937-1.132-108.102s-77.93-31.303-108.104-1.138c-30.161 30.165-29.028 77.934 1.145 108.095z" class="G"/><path fill="#9eaaac" d="M380.278 163.884c-31.417-31.421-31.417-82.37 0-113.792l.578-.57c-30.854 31.466-30.666 81.993.566 113.218 31.226 31.237 81.757 31.421 113.213.566-.185.197-.37.382-.566.578-31.422 31.422-82.37 31.422-113.791 0zm2.844-112.086l.578-.568c30.161-30.165 77.93-29.028 108.091 1.137 30.174 30.165 31.307 77.934 1.145 108.095l-.578.578c29.584-30.196 28.277-77.56-1.7-107.535s-77.34-31.287-107.536-1.707z"/><use href="#Ak" fill-opacity=".476" fill="#d0e9f2"/><use href="#Ak" fill="url(#AD)"/><path fill="url(#Y)" d="M369.862 141.445l-6.648 4.728a83.636 83.636 0 0 0 14.798 19.977 83.636 83.636 0 0 0 19.977 14.798l4.728-6.648a75.773 75.773 0 0 1-32.855-32.855z"/><path fill="url(#X)" d="M380 164.162c2 2 3.561 4.242 4.763 6.612l-30.3 30.3a25.782 25.782 0 0 1-6.61-4.762 25.743 25.743 0 0 1-4.764-6.613l30.299-30.3c2.37 1.202 4.612 2.763 6.612 4.763z"/><path d="M370.116 192.254l-76.382 76.38c-4.606-2.53-6.742-3.467-10.74-7.467s-4.933-6.127-7.467-10.74l76.381-76.381c5.85 4.335 14.012 12.023 18.208 18.208z" fill="url(#W)"/><path d="M357.989 186.347c4 4 8.59 7.699 9.85 12.74l-74.105 74.103c-7.534-5.965-16.826-14.786-22.758-22.763l74.103-74.104c4.036.266 8.852 5.966 12.852 9.966z" fill="url(#V)"/><path opacity=".596" d="M357.7 186.624c4 4 8.879 7.422 10.139 12.462l-74.105 74.104c-9.106-7.989-13.64-12.29-22.758-22.763l74.103-74.104c4.036.266 8.575 6.301 12.575 10.301z" fill="url(#Z)"/><path opacity=".604" d="M387.341 51.007c47.006-37.194 90.323-14.715 89.919 6.13s-65.399 81.337-88.289 76.435-29.421-61.72-1.63-82.565z" fill="url(#a)"/><text opacity=".461" font-weight="bold" xml:space="preserve" transform="rotate(351.1)" font-size="22.89" y="124.522" x="347.018" fill="url(#AF)" class="H"><tspan y="124.522" x="347.018">01011001</tspan><tspan y="153.135" x="347.018">00110101</tspan><tspan y="181.747" x="347.018">10010011</tspan></text><text font-weight="bold" xml:space="preserve" transform="rotate(351.1)" font-size="22.89" y="123.036" x="346.522" fill="url(#AE)" class="H"><tspan y="123.036" x="346.522">01011001</tspan><tspan y="151.648" x="346.522">00110101</tspan><tspan y="180.261" x="346.522">10010011</tspan></text><path opacity=".765" d="M489.41 157.41c-30.97 25.41-48.335 24.29-44.011 15.191 4.312-9.098 48.924-48.162 59.48-50.578 10.542-2.42 2.623 20.856-15.469 35.387z" fill="url(#b)"/></svg>