<svg width="800" xml:space="preserve" height="320" xmlns="http://www.w3.org/2000/svg"><path d="M0 0h800v320H0z" fill="#fff" style="display:inline;fill:none;stroke-width:.800002"/><path fill="#1d1d1b" d="M1.754 173.72c30.636-.287 61.273-.287 92.087-.287v11.072H2.04c-.287-3.499-.287-6.998-.287-10.784zM150.607 219.565v37.34h-38.572V68.397c.79-.045 1.669-.139 2.548-.14 17.83-.007 35.67-.37 53.488.109 14.5.39 28.915 2.43 42.147 8.852 15.5 7.522 25.429 19.56 27.73 37.111.443 3.38 1.292 6.787 1.142 10.145-.406 9.074-1.186 18.086-4.761 26.679-6.8 16.345-19.568 25.579-35.973 30.142-7.155 1.99-14.656 3.133-22.072 3.682-8.397.62-16.876.143-25.677.143v34.445m0-69.224v5.549c5.927-.316 11.49-.842 17.053-.845 5.602-.004 10.941-1.101 16.024-3.204 6.287-2.602 11.098-6.9 13.425-13.538 1.632-4.656 1.833-9.43 1.516-14.327-.653-10.096-6.385-18.28-15.587-21.76-4.663-1.762-9.78-2.574-14.768-3.159-5.794-.678-11.673-.636-17.663-.914v52.198zM35.997 76.76c2.909-4.865 7.52-7.543 12.425-7.708 15.076-.506 30.18-.184 45.437-.184v11.07h-3.925c-11.273 0-22.547-.12-33.816.085-2.8.052-5.73.791-8.336 1.86-4.685 1.918-6.224 6.475-4.908 11.457 1.856 7.028 7.254 9.547 13.425 11.154 1.915.499 3.97.624 5.962.635 10.447.06 20.893.028 31.548.028v11.544c-.75.043-1.629.136-2.507.137-11.272.009-22.549-.163-33.814.112-3.277.08-6.668 1.064-9.752 2.28-6.395 2.524-6.405 9.804-3.695 14.357 3.39 5.696 8.917 8.136 15.043 8.357 11.504.414 23.033.12 34.743.12v11.501H34.539v-10.157h8.122c-6.786-4.91-9.637-10.943-9.649-18.772-.012-8.123 3.84-13.404 10.55-17.215-9.927-5.47-13.65-19.265-7.565-30.66zM747.253 234.524l-.001 22.334h-11.464v-43.216h10.882v4.626c7.896-7.908 19.204-8.241 25.555.671 2.912-3.341 6.189-5.637 10.885-6.292 8.91-1.244 14.977 3.05 15.705 10.742.689 7.275.55 14.63.706 21.952.08 3.78.014 7.563.014 11.545h-11.687c0-1.902.04-3.909-.007-5.913-.187-7.833-.36-15.666-.629-23.496-.096-2.81-1.09-5.114-4.368-5.445-4.193-.423-6.666.835-7.845 4.438-.73 2.232-1.196 4.648-1.241 6.992-.15 7.763-.057 15.532-.057 23.46h-12.302c0-9.405.008-18.792-.012-28.179-.003-.999.032-2.075-.31-2.98-.71-1.876-1.594-3.641-4.086-3.762-2.977-.145-5.947 0-7.208 3.146-1.163 2.9-1.71 6.048-2.53 9.377zM76.806 256.473c-1.045.205-1.812.584-2.58.586-13.192.036-26.385.026-39.724.026V245.4c11.508 0 22.95.08 34.39-.057 2.862-.035 5.781-.523 8.562-1.237 9.319-2.394 9.847-11.039 7.62-17.152-2.334-6.407-7.659-9.538-13.891-10.325-7.815-.986-15.755-1.033-23.647-1.34-4.279-.166-8.57-.03-13.017-.03v-10.911h59.333v10.837h-8.298c7.303 4.663 10.045 11.34 10.155 18.635.172 11.35-4.425 20.809-18.903 22.653zM700.504 214.03c0 8.093.082 15.88-.019 23.666-.159 12.336-7.486 19.06-19.399 20.13-5.507.495-10.825.315-15.932-1.429-8.823-3.012-12.024-8.066-12.45-16.672-.667-13.49-.176-27.038-.168-40.561 0-.287.094-.573.167-.987h12.126c0 9.692-.056 19.293.028 28.892.032 3.736.117 7.506.64 11.195.905 6.397 5.003 10.044 10.92 10.208 5.428.151 9.888-3.666 11.138-9.712.403-1.95.61-3.973.62-5.964.056-11.462.027-22.925.027-34.573h12.302v15.807zM283.782 200.002c11.042 4.951 12.815 14.987 9.28 24.199-2.364 6.16-7.742 9.189-14.146 10.082-3.881.542-7.823.65-11.995.972v21.673h-12.206v-58.872c9.64.233 19.347-1.004 29.067 1.946m-12.409 25.1c8.239-.175 10.691-4.723 10.241-9.764-.483-5.412-6.776-8.467-14.753-7.093v16.856h4.512zM391.725 241.828v15.117h-11.551v-63.08h11.44v36.116c2.633-3.203 4.76-5.698 6.783-8.276 1.72-2.192 3.195-4.59 5.036-6.668.755-.851 2.17-1.495 3.318-1.55 3.876-.19 7.766-.073 12.18-.073l-16.191 19.559 18.221 24.113c-2.159 0-3.66.049-5.159-.009-3.499-.136-7.549.705-10.334-.79-2.629-1.41-3.903-5.317-5.815-8.097-2.451-3.564-4.946-7.098-7.928-11.37v5.009z" style="stroke-width:.615097"/><path fill="#1d1d1b" d="M430.041 216.007c8.806-5.275 17.388-5.133 25.633.542 3.47 2.389 5.142 6.323 6.037 10.288.88 3.894 1.038 7.95 1.546 12.214h-29.872c.562 9.026 8.719 11.187 16.052 9.735 3.41-.676 6.619-2.376 9.95-3.624v2.73c.004 8.114.041 8.324-7.942 9.71-5.524.959-11.086.85-16.563-1.058-7.142-2.49-10.965-7.582-12.389-14.734-1.366-6.859-1.148-13.607 2.51-19.785 1.277-2.158 3.226-3.917 5.038-6.018m21.347 13.297c-1.836-5.697-3.967-7.59-7.776-7.954-5.033-.481-9.766 3.021-10.376 9.287 5.511 0 11.015.022 16.517-.035.545-.005 1.085-.492 1.635-1.298z" style="display:inline;stroke-width:.615097"/><path fill="#1d1d1b" d="M584.89 217.123c3.583-1.764 6.873-3.906 11.255-4.561 9.36-1.4 16.36 4.373 16.838 11.845.688 10.747.176 21.57.176 32.521h-11.685c0-8.815.004-17.592-.005-26.369-.001-.917.117-1.898-.158-2.739-.807-2.474-1.713-5.143-4.623-5.737-4.25-.867-7.731.571-9.267 4.468-1.39 3.531-2.214 7.442-2.448 11.237-.39 6.308-.106 12.658-.106 19.144h-11.539v-43.37h11.542c0 1.135 0 2.226.02 3.561z" style="stroke-width:.615097"/><path fill="#1d1d1b" d="M311.92 212.8c4.827.196 9.472-.113 13.91.702 7.34 1.35 10.272 7.517 10.507 14.056.155 4.297-.064 8.608.053 12.907.149 5.454.468 10.902.72 16.495h-10.604v-5.936c-3.278 4.374-7.09 6.474-11.739 7.043-6.061.742-14.7-2.402-16.536-9.374-2.51-9.534 3.09-15.954 9.813-17.32 5.79-1.176 11.793-1.306 17.696-1.898-.89-6.96-5.574-10-13.125-7.844-3.354.957-6.513 2.6-9.916 3.995v-10.288c2.91-.825 5.927-1.681 9.22-2.538m13.379 27.382.78-2.779c-1.723 0-3.137.05-4.548-.009-3.429-.144-6.773.003-9.844 1.85-2.39 1.438-2.877 3.77-2.246 6.014.363 1.293 1.916 2.696 3.251 3.193 6.041 2.248 11.243-1.061 12.607-8.268z" style="display:inline;stroke-width:.615097"/><path fill="#1d1d1b" d="M508.783 218.184c1.066 2.649 2.689 5.104 2.76 7.603.298 10.32.125 20.652.125 31.139h-11.685c0-7.881.038-15.734-.028-23.586-.016-1.889-.367-3.776-.59-5.66-.332-2.823-1.639-4.981-4.544-5.615-3.509-.766-7.731.764-8.888 3.646-1.234 3.074-2.28 6.415-2.446 9.688-.362 7.126-.112 14.283-.112 21.556h-11.56v-43.411h10.955v5.233c3.37-4.247 7.403-5.87 11.966-6.465 3.703-.483 12.097 1.085 14.047 5.872zM712.806 218.335v-24.422h11.511v62.992h-11.51v-38.57zM347.438 220.804v-7.209h10.344v7.831c2.613-5.153 5.958-8.015 10.76-9.086 3.35-.747 4.73.189 4.73 3.505-.002 2.664-.01 5.329-.033 7.993-.001.186-.155.37-.293.676-.934-.21-1.882-.498-2.85-.63-7.314-1-9.967 4.026-10.263 9.956-.38 7.606-.093 15.244-.093 23.057h-12.302v-36.093z" style="stroke-width:.615097"/><path fill="#1d1d1b" d="M562.107 228.177v28.725h-11.506v-43.303h11.506v14.578z" style="display:inline;stroke-width:.615097"/><path fill="#1d1d1b" d="M550.42 203.489v-8.373h11.534v10.916c-3.384 0-6.73-.074-10.072.028-1.969.06-1.359-1.275-1.461-2.571z" style="stroke-width:.615097"/></svg>