<svg xmlns="http://www.w3.org/2000/svg" viewBox="0 0 801.321 320"><path d="M.843 0h800v320h-800Z" fill="#fff" style="stroke-width:.8"/><g fill="#ff4040"><path d="M46.34 163.891c0-7.718 1.359-16.46-6.783-15.748-7.913.695-6.783 9.22-6.783 16.938v9.99c0 7.717-1.13 16.443 6.777 15.748 8.141-.718 6.784-9.221 6.784-16.94v-9.988zm32.778 19.365c0 23.834-16.277 38.652-31.418 39.988-2.71.238-13.111-2.254-15.37-5.91-1.585-2.36-1.808-1.43-1.808 2.432v48.575c0 2.037 2.488 1.596-14.696 3.105C1.13 272.731 0 272.832 0 270.79V120.52c0-2.95 2.938-2.299 13.11-3.195 14.697-1.29 17.407-3.121 17.407 3.467 0 3.861.228 6.11 1.808 3.472 2.259-4.285 8.364-9.36 15.37-9.978 15.147-1.33 31.418 6.094 31.418 34.469v34.5zm28.185 34.512c-16.115 1.436-16.115 1.208-16.115-1.97V114.366c0-4.084.223-4.101 16.115-5.514 17.457-1.548 17.457-1.319 17.457 2.765v100.756c0 3.628-.223 3.872-17.457 5.397m17.011-141.288c.896 10.812 2.015 18.881-17.01 22.159-10.74 2.766-19.249-8.503-17.908-19.972.9-9.382 3.361-18.675 17.907-19.287 9.85-.417 16.566 7.157 17.011 17.1m51.162 135.851c-22.832 2.003-39.56-11.296-39.56-33.8v-34.556c0-22.504 16.729-38.753 39.56-40.762 23.74-2.086 39.56 10.389 39.56 33.8 0 3.64-.68 3.7-19.215 5.33-13.79 1.215-13.561.74-13.561-1.986 0-4.09-.907-9.015-6.784-8.497-8.135.718-6.777 9.238-6.777 16.967v19.098c0 7.729-1.358 16.488 6.777 15.77 5.426-.478 6.784-4.69 6.784-9.693 0-2.95-.907-4.468 15.598-5.916 16.276-1.43 17.179-1.051 17.179 3.495 0 23.4-15.821 38.658-39.56 40.75m84.723-37.7v24.947c0 3.85-10.885 4.808-17.685 5.408-5.893.512-16.326 1.197-16.326-1.975V51.284c0-2.95 12.698-4.285 16.326-4.602 4.307-.378 17.685-1.547 17.685 1.852v79.153c0 2.727.684 4.48 1.586 3.267.907-1.214 1.814-2.883 2.492-4.986l8.391-29.994c.457-1.625 7.707-2.938 12.921-3.395 5.442-.473 21.764-1.903 20.857.446l-15.87 38.135c-.907 2.12-2.042 4.485-2.042 6.07 0 1.136.456 4.04 1.363 6.005 8.843 21.452 12.921 32.893 20.407 53.327.456 1.324-.457 2.766-19.272 4.413-7.25.629-12.92.68-13.828-1.97-5.664-16.06-3.85-11.002-8.836-26.444-1.586-5.075-3.178-4.708-4.535-3.455-1.364 1.252-3.634 2.583-3.634 5.526m282.738-51.346c0-7.774 1.375-16.587-6.867-15.87-8.013.702-6.867 9.294-6.867 17.067v10.066c0 7.775-1.146 16.572 6.867 15.87 8.24-.717 6.867-9.293 6.867-17.072zm-16.027-43.432c0 3.89.228 4.785 1.83 2.125 2.288-4.318 13.74-8.519 16.712-8.78 15.342-1.343 30.684 6.237 30.684 34.834v34.769c0 28.591-15.342 38.858-30.684 40.199-2.972.26-14.424-1.942-16.711-5.86-1.603-2.381-1.83-1.446-1.83 2.444 0 6.633-2.75 5.27-17.63 6.578-10.306.9-13.283 2.075-13.283-.896V29.258c0-2.977 4.58-2.46 14.886-3.361 9.388-.819 16.026-2.087 16.026.656zm76.399 98.356c-16.116 1.441-16.116 1.214-16.116-1.987V74.143c0-4.112.223-4.128 16.116-5.547 17.461-1.559 17.461-1.33 17.461 2.782v101.394c0 3.65-.222 3.9-17.461 5.437m17.01-142.19c.897 10.886 2.016 19.005-17.01 22.299-10.74 2.782-19.243-8.559-17.902-20.095.89-9.444 3.356-18.797 17.902-19.41 9.85-.429 16.565 7.195 17.01 17.206m49.065 107.794v25.269c0 3.9-11.013 4.87-17.896 5.464-5.965.528-16.522 1.225-16.522-1.987V18.891c0-2.988 12.85-4.34 16.522-4.662 4.357-.378 17.896-1.57 17.896 1.875v80.16c0 2.76.69 4.53 1.609 3.305.912-1.23 1.83-2.916 2.52-5.042l8.487-30.372c.461-1.647 7.801-2.983 13.082-3.444 5.503-.48 22.025-1.932 21.107.45l-16.06 38.614c-.918 2.148-2.064 4.546-2.064 6.154 0 1.153.456 4.09 1.374 6.082 8.948 21.725 13.083 33.305 20.651 54.006.462 1.335-.456 2.793-19.504 4.468-7.34.64-13.077.684-14-1.987-5.731-16.265-3.896-11.146-8.943-26.777-1.602-5.142-3.21-4.769-4.585-3.5-1.38 1.257-3.673 2.604-3.673 5.592m91.873-62.447c-4.35.384-6.872 2.898-6.872 12.075 0 7.112.462 8.219 6.872 7.657 6.405-.562 6.868-1.747 6.868-9.32 0-9.177-2.978-10.751-6.868-10.411m0 52.086c6.405-.563 6.868-7.029 6.868-9.777 0-1.61 3.199-1.659 14.88-2.683 14.88-1.307 18.314-2.064 18.314 2.521 0 23.634-16.027 39.036-40.06 41.146-23.127 2.026-40.072-11.402-40.072-34.117V95.668c0-22.715 16.945-39.114 40.071-41.145 24.034-2.109 40.06 10.483 40.06 34.117v19.499c0 2.982 0 3.21-4.807 3.634l-38.464 3.372c-2.515.223-3.662-.139-3.662 3.762-.006 7.808-.918 15.225 6.872 14.546M398.63 60.382c-45.937 0-83.176 37.3-83.176 83.31 0 .773.073 1.525.095 2.293 9.366 1.33 22.036 2.677 35.353 2.748-.562-19.437 10.506-42.642 30.495-51.195 27.528-11.78 41.68 2.482 46.477 9.166.412.528 5.203 7.04 3.305 16.627-1.925 9.644-9.806 18.475-23.444 26.232-11.72 6.672-26.45 9.85-41.402 11.007 7.172 12.96 25.826 21.675 43.505 14.101 9.828-4.207 17.457-11.825 20.935-20.9a6.17 6.17 0 0 1 7.962-3.55c3.172 1.218 4.758 4.79 3.545 7.973-4.674 12.176-14.724 22.314-27.595 27.824a46.094 46.094 0 0 1-18.125 3.662c-18.051 0-35.686-10.173-42.72-26.667a31.574 31.574 0 0 1-.746-1.909c-13.277.078-25.965-1.086-36.248-2.46a83.378 83.378 0 0 0 54.017 63.595l14.73 82.33s3.89 7.467 7.368 0l33.25-82.264c32.375-11.397 55.596-42.28 55.596-78.601 0-46.02-37.234-83.321-83.175-83.321"/><path d="M419.723 121.772c.819-4.135-1.068-6.901-1.085-6.923-4.224-5.882-10.011-8.826-17.117-8.826-4.502 0-9.533 1.18-15.031 3.54-14.952 6.41-23.817 25.158-23.344 40.077 14.245-.88 28.263-3.606 38.936-9.7 13.082-7.468 16.81-14 17.64-18.168"/></g></svg>