<svg xmlns="http://www.w3.org/2000/svg" viewBox="0 0 800 320.571"><path d="M0 0h800v320H0Z" fill="#fff" style="stroke-width:.8"/><path d="m486.407 310.2-23.99-48.657a24.595 24.595 0 0 0 14.017-22.178V138.518a24.63 24.63 0 0 0-24.595-24.594h-7.42L440.8 97.703a6.952 6.952 0 0 0-6.64-5.012h-19.618v-3.867h47.306l6.212 10.008a6.917 6.917 0 0 0 11.75-7.278l-8.239-13.257a6.86 6.86 0 0 0-5.857-3.27H349.55a6.81 6.81 0 0 0-5.858 3.27l-8.246 13.278a6.909 6.909 0 1 0 11.75 7.271l6.212-10.008h47.342v3.867h-19.618c-3.056 0-5.828 2.062-6.64 5.012l-3.624 16.207h-7.414a24.63 24.63 0 0 0-24.595 24.594v100.84a24.524 24.524 0 0 0 14.017 22.178l-23.99 48.664a6.938 6.938 0 0 0 2.516 9.447 7.002 7.002 0 0 0 9.475-2.56l5.36-10.683h122.881l5.403 10.683a6.966 6.966 0 0 0 5.985 3.484 6.867 6.867 0 0 0 5.971-10.328zM385.22 113.924l1.102-7.414h42.622l1.102 7.414h-44.854zm-32.585 31.845v-7.25c0-5.922 4.834-10.784 10.79-10.784h88.414a10.783 10.783 0 0 1 10.79 10.79v7.237zm0 40.66v-26.87H462.63v26.87zm109.497 106.17H353.068l3.725-7.421h101.65l3.731 7.421zm-109.497-53.241V200.24H462.63v39.11c0 5.929-4.834 10.756-10.862 10.79H363.39a10.804 10.804 0 0 1-10.755-10.79zm11.075 32.016 3.724-7.422h80.467l3.653 7.422h-87.809z" fill="#0070ae" style="stroke-width:.641859"/><path d="M352.642 239.358V200.24H462.63v39.11c0 5.929-4.834 10.756-10.862 10.79H363.39a10.804 10.804 0 0 1-10.755-10.79z" fill="#fc0" style="stroke-width:.641859"/><path d="M377.521 242.165a17.003 17.003 0 1 1 .028 0zm0-20.13c-1.741 0-3.163 1.421-3.163 3.127 0 1.706 1.422 3.156 3.156 3.156a3.142 3.142 0 0 0 0-6.283zm60.23 20.13a16.989 16.989 0 1 1 .035 0zm0-20.13c-1.742 0-3.163 1.421-3.163 3.127a3.19 3.19 0 0 0 3.163 3.156 3.142 3.142 0 1 0 0-6.283z" fill="#0070ae" style="stroke-width:.641859"/><path d="M352.6 145.762v-7.236c0-5.929 4.833-10.79 10.79-10.79h88.45a10.783 10.783 0 0 1 10.79 10.79v7.236H352.642Zm55.01-111.907c-60.584 0-109.845 51.891-109.845 115.668V301.96H265.43V149.523c7.18-198.366 277.233-198.224 284.334 0V301.96h-32.3V149.523c0-63.777-49.297-115.668-109.881-115.668z" fill="#fc0" style="stroke-width:.641859"/></svg>