<svg width="800" height="320" fill="none" xmlns="http://www.w3.org/2000/svg"><path d="M0 0h800v320H0z" fill="#fff" style="stroke-width:.8"/><g clip-path="url(#a)" transform="matrix(4.7817 0 0 4.7817 1.864 61.578)"><g clip-path="url(#b)"><mask id="c" maskUnits="userSpaceOnUse" x="0" y="0" width="471" height="43"><path d="M470.028.042h-470v42h470z" fill="#fff"/></mask><g mask="url(#c)"><mask id="d" maskUnits="userSpaceOnUse" x="0" y="0" width="471" height="43"><path d="M470.028.042h-470v42h470z" fill="#fff"/></mask><g mask="url(#d)"><mask id="e" maskUnits="userSpaceOnUse" x="0" y="0" width="471" height="43"><path d="M470.028.042h-470v42h470z" fill="#fff"/></mask><g mask="url(#e)"><path d="M74.962.32h7.996c1.212 0 2.244.251 3.097.745.853.494 1.49 1.149 1.92 1.965.431.817.638 1.697.638 2.63 0 1.158-.305 2.19-.907 3.114-.61.915-1.472 1.57-2.602 1.965l4.433 7.45h-3.922l-3.77-6.714h-3.509v6.713h-3.383V.32zm9.486 7.53c.476-.476.718-1.104.718-1.885 0-.78-.233-1.373-.7-1.822-.466-.448-1.149-.673-2.037-.673h-4.075v5.107h3.994c.925 0 1.625-.234 2.1-.718M92.22 17.452c-.798-.682-1.193-1.642-1.193-2.88 0-1.239.395-2.226 1.176-2.791.78-.575 1.795-.943 3.024-1.113l2.666-.36c.565-.08.978-.224 1.257-.412.269-.189.412-.52.412-.996 0-1.06-.736-1.58-2.199-1.58-.87 0-1.534.162-1.983.485-.449.323-.736.799-.862 1.427l-3.096-.664c.305-1.275.987-2.226 2.037-2.845 1.05-.62 2.415-.934 4.084-.934 1.795 0 3.132.36 4.012 1.086.879.727 1.319 1.822 1.319 3.303v9.01h-3.078v-2.243a4.541 4.541 0 0 1-1.741 1.866c-.754.44-1.66.664-2.72.664-1.283 0-2.315-.34-3.114-1.023zm6.436-2.53c.601-.557.906-1.302.906-2.217v-.718c-.493.188-1.077.323-1.74.413l-1.49.224c-.602.08-1.078.242-1.446.476-.368.233-.547.61-.547 1.13 0 .521.17.889.511 1.15.342.25.817.385 1.437.385.969 0 1.759-.278 2.369-.843zM108.214 17.632c-.879-.566-1.552-1.355-2.01-2.387-.458-1.033-.691-2.226-.691-3.59 0-1.364.233-2.558.691-3.599.458-1.04 1.131-1.84 2.001-2.414.871-.565 1.903-.853 3.097-.853.924 0 1.723.17 2.405.52.682.35 1.203.845 1.562 1.49V.043h3.276v18.146h-3.079v-2.172c-.287.727-.789 1.32-1.499 1.777-.709.449-1.597.673-2.674.673-1.176 0-2.208-.278-3.088-.843m6.22-3.195c.566-.71.844-1.67.844-2.899 0-1.157-.278-2.073-.844-2.746-.565-.673-1.355-1.005-2.387-1.005s-1.813.34-2.361 1.023c-.547.682-.816 1.615-.816 2.809 0 1.194.269 2.136.816 2.836.548.7 1.329 1.04 2.361 1.04 1.032 0 1.822-.35 2.387-1.058zM74.98 23.716h1.92v9.504l8.482-9.504h2.513l-6.74 7.35 7.251 10.518H86.02l-6.22-9.082-2.899 3.186v5.896h-1.92zM93.11 40.328c-1.203-1.149-1.805-2.8-1.805-4.936V23.725h1.92v11.667c0 1.633.423 2.854 1.257 3.662.835.807 2.01 1.211 3.51 1.211 1.499 0 2.647-.404 3.482-1.212.835-.807 1.257-2.028 1.257-3.661V23.725h1.947v11.667c0 2.145-.601 3.787-1.804 4.936s-2.836 1.723-4.882 1.723c-2.047 0-3.68-.574-4.883-1.723zM109.336 23.716h1.921v16.082h8.715v1.786h-10.636zM124.89 25.511h-5.941v-1.795h13.786v1.795h-5.924v16.073h-1.921zM137.303 40.328c-1.203-1.149-1.804-2.8-1.804-4.936V23.725h1.92v11.667c0 1.633.422 2.854 1.257 3.662.835.807 2.01 1.211 3.509 1.211s2.648-.404 3.483-1.212c.834-.807 1.256-2.028 1.256-3.661V23.725h1.948v11.667c0 2.145-.602 3.787-1.804 4.936-1.203 1.149-2.836 1.723-4.883 1.723-2.046 0-3.68-.574-4.882-1.723zM153.539 23.716h7.126c1.149 0 2.118.234 2.926.691.799.458 1.409 1.068 1.804 1.822.404.754.601 1.57.601 2.432 0 1.176-.332 2.235-.996 3.168-.664.933-1.624 1.562-2.872 1.885l4.739 7.861h-2.253l-4.505-7.628h-4.641v7.628h-1.92V23.707zm9.451 7.61c.664-.61.996-1.444.996-2.503 0-1.06-.314-1.831-.951-2.423-.629-.593-1.535-.898-2.72-.898h-4.864v6.74h4.765c1.176 0 2.1-.305 2.765-.924" fill="#2a2623"/><path d="M13.527 42.042c-7.44 0-13.499-6.03-13.499-13.444 0-7.412 6.059-13.443 13.499-13.443s13.498 6.03 13.498 13.443c0 7.413-6.058 13.444-13.498 13.444zm0-23.648c-5.645 0-10.24 4.578-10.24 10.204 0 5.627 4.595 10.204 10.24 10.204 5.645 0 10.24-4.577 10.24-10.204 0-5.627-4.595-10.204-10.24-10.204z" fill="#c81482"/><path d="M44.285 14.724 39.922 1.271l2.961-.95 4.353 13.452z" fill="#0d46a0"/><path d="M50.415 15.155c-.907 0-1.795.09-2.648.26l1.005 3.114c.53-.08 1.077-.126 1.634-.126 5.753 0 10.429 4.658 10.429 10.384S56.159 39.17 50.405 39.17c-5.752 0-10.428-4.658-10.428-10.383 0-4.083 2.378-7.62 5.825-9.316l-1.006-3.096c-4.658 2.127-7.898 6.803-7.898 12.232 0 7.413 6.058 13.444 13.499 13.444 7.44 0 13.498-6.03 13.498-13.444 0-7.413-6.058-13.443-13.498-13.443" fill="#c81482"/><path d="m48.925 29.065 2.962-.951-3.106-9.594c-1.05.162-2.046.485-2.962.943l3.115 9.602z" fill="#0d46a0"/><path d="m48.781 18.53-1.005-3.115c-1.032.206-2.02.53-2.953.96l1.005 3.096a10.585 10.585 0 0 1 2.962-.942M34.304.32l.62 2.899h8.66l-.7-2.899z" fill="#0d46a0"/><path d="M13.527 42.042c-7.44 0-13.499-6.03-13.499-13.444 0-7.412 6.059-13.443 13.499-13.443s13.498 6.03 13.498 13.443c0 7.413-6.058 13.444-13.498 13.444zm0-23.648c-5.645 0-10.24 4.578-10.24 10.204 0 5.627 4.595 10.204 10.24 10.204 5.645 0 10.24-4.577 10.24-10.204 0-5.627-4.595-10.204-10.24-10.204zM50.415 42.042c-7.44 0-13.499-6.03-13.499-13.444 0-7.412 6.058-13.443 13.499-13.443 7.44 0 13.498 6.03 13.498 13.443 0 7.413-6.058 13.444-13.498 13.444zm0-23.648c-5.753 0-10.43 4.658-10.43 10.384s4.677 10.383 10.43 10.383 10.429-4.658 10.429-10.383c0-5.726-4.676-10.383-10.43-10.383z" fill="#c81482"/><path d="M23.938 12.615h-3.195v9.944h3.195zM15.905 8.568l.62 2.89h9.1v-2.89z" fill="#0d46a0"/><path d="m14.254 29.622-1.795-2.54 29.69-20.695 1.785 2.54zM48.781 18.53l-1.005-3.115c-1.032.206-2.02.53-2.953.96l1.005 3.096a10.585 10.585 0 0 1 2.962-.942" fill="#0d46a0"/></g></g></g></g></g><defs><clipPath id="a"><path fill="#fff" d="M0 0h470v42H0z"/></clipPath><clipPath id="b"><path fill="#fff" transform="translate(.028 .042)" d="M0 0h470v42H0z"/></clipPath></defs></svg>