<svg id="Ebene_1" width="800mm" height="320mm" viewBox="0 0 2267.717 907.088" version="1.1" xmlns="http://www.w3.org/2000/svg"><defs id="defs1"><style id="style1">.cls-1{fill:#fff}.cls-2{fill:#2a2623}.cls-3{fill:#e6007d}.cls-4{fill:#0050a0}</style></defs><path d="M0 0h2267.72v907.088H0z" fill="#fff" style="fill:#fff;stroke-width:16.159" id="path2-9"/><path class="cls-4" id="polygon1" transform="matrix(5.6366 0 0 5.6366 2.866 56.535)" d="M253.341 140.184v-63.7h113.585l-13.54 63.7z"/><path class="cls-1" d="M1511.723 575.852h37.45l47.996 146.366 48.26-146.366h37.185l-64.877 184.604h-40.877z" id="path1" style="stroke-width:5.63661"/><path class="cls-1" d="M1714.055 575.852h34.806v184.604h-34.806z" id="path2" style="stroke-width:5.63661"/><path class="cls-1" d="m1787.376 705.071 35.07-7.384c2.904 25.585 17.672 36.66 40.878 36.66 20.832 0 31.384-8.708 31.384-23.205 0-13.973-10.287-19.785-25.32-24l-25.578-7.114c-34.282-8.709-51.953-23.206-51.953-53.013 0-37.979 29.277-55.65 66.72-55.65 35.866 0 64.083 16.882 68.83 50.899l-34.813 7.395c-2.373-20.574-16.351-27.433-35.07-27.433-20.31 0-30.325 7.908-30.325 22.681 0 15.557 11.87 20.839 28.481 25.32l25.32 6.854c31.909 8.179 49.315 21.098 49.315 50.115 0 38.498-30.59 58.012-67.775 58.012-38.504 0-70.677-21.098-75.158-60.126z" id="path3" style="stroke-width:5.63661"/><path class="cls-2" d="M1622.832 259.954c21.374-7.429 37.788-19.908 49.287-37.37 11.476-17.502 17.225-37.213 17.225-59.219 0-17.817-4.047-34.49-12.13-50.013-5.062-9.707-11.702-18.224-19.914-25.529-4.926-4.385-10.428-8.336-16.493-11.848-16.2-9.402-35.775-14.103-58.744-14.103h-151.467V401.71h64.092V274.03h66.501l71.37 127.686h74.274l-83.99-141.75zm-128.16-138.35h77.194c10.518 0 19.486 1.668 26.904 5.005 4.452 2.007 8.347 4.616 11.69 7.83 8.889 8.612 13.336 20.15 13.336 34.726 0 14.892-4.526 26.864-13.59 35.911-9.07 9.086-22.32 13.59-39.806 13.59h-75.727z" id="path4" style="stroke-width:5.63661"/><path class="cls-2" d="M1935.951 167.469c-16.673-13.748-41.998-20.625-75.97-20.625-31.723 0-57.522 5.885-77.436 17.7-19.908 11.814-32.77 29.868-38.6 54.122l58.746 12.643c2.249-11.972 7.682-21.058 16.255-27.18 8.574-6.16 21.115-9.244 37.63-9.244 27.834 0 41.74 10.033 41.74 30.105 0 9.086-2.588 15.366-7.762 18.922-5.174 3.596-13.094 6.161-23.78 7.784l-50.488 6.798c-14.762 2.052-27.828 5.637-39.208 10.744-6.59 2.953-12.626 6.414-18.077 10.394-14.892 10.822-22.343 28.566-22.343 53.136 0 23.623 7.525 41.92 22.58 54.872 15.05 12.92 34.705 19.396 58.981 19.396 20.072 0 37.213-4.188 51.457-12.604 14.244-8.415 25.24-20.224 33.008-35.437v42.703h58.271V230.317c0-28.127-8.336-49.106-25.01-62.854zm-126.226 137.403c6.956-4.385 16.098-7.39 27.44-9.007l28.148-4.346c12.62-1.618 23.623-4.227 33.008-7.784v13.59c0 17.462-5.75 31.565-17.225 42.23-11.499 10.664-26.47 16.041-44.901 16.041-11.657 0-20.72-2.452-27.203-7.31-6.476-4.86-9.7-12.13-9.7-21.848 0-6.245 1.358-11.414 4.075-15.473 1.629-2.435 3.748-4.47 6.358-6.098z" id="path5" style="stroke-width:5.63661"/><path class="cls-2" d="M2200.415 56.535h-.01V185.19c-6.798-12.321-16.667-21.757-29.603-28.391-12.959-6.635-28.167-9.955-45.651-9.955-14.16 0-27.118 2.114-38.87 6.342a93.865 93.865 0 0 0-19.858 9.897c-16.515 10.862-29.136 26.154-37.867 45.905-8.748 19.711-13.116 42.545-13.116 68.423 0 25.877 4.363 48.632 13.116 68.225 7.638 17.113 18.32 30.838 32.039 41.17a100.333 100.333 0 0 0 6.07 4.227c16.673 10.665 36.17 16.003 58.491 16.003 20.405 0 37.315-4.307 50.747-12.84 13.404-8.568 22.884-19.824 28.38-33.719v41.226H2262.547V56.535h-62.126zm-105.838 273.82c-10.35-13.274-15.53-31.249-15.53-53.886 0-22.636 5.175-40.454 15.53-53.412 9.058-11.335 21.588-17.716 37.59-19.13a79.837 79.837 0 0 1 7.068-.305c19.418 0 34.468 6.397 45.155 19.198 10.665 12.8 16.02 30.184 16.02 52.19 0 23.307-5.355 41.677-16.02 55.109-10.687 13.432-25.737 20.111-45.155 20.111-9.706 0-18.28-1.652-25.725-4.955-7.446-3.308-13.753-8.274-18.933-14.914z" id="path6" style="stroke-width:5.63661"/><path class="cls-3" d="M963.71 345.794c-17.22 0-34.04 1.73-50.324 4.971l19.26 59.67a196.06 196.06 0 0 1 31.07-2.498c107.693 0 195.302 87.622 195.302 195.309s-87.61 195.297-195.302 195.297c-107.693 0-195.303-87.615-195.303-195.297 0-76.246 43.949-142.392 107.828-174.543l-19.254-59.652c-88.822 40.64-150.723 130.295-150.723 234.195 0 141.952 115.494 257.446 257.452 257.446s257.452-115.494 257.452-257.446c0-141.952-115.494-257.452-257.452-257.452z" id="path7" style="stroke-width:5.63661"/><path class="cls-3" d="M432.82 511.809c14.532 27.298 22.8 58.418 22.8 91.437 0 107.687-87.609 195.297-195.302 195.297S65.015 710.933 65.015 603.246s87.61-195.309 195.303-195.309c53.289 0 101.64 21.476 136.913 56.203l.648-.45V385.79c-39.828-25.285-86.995-39.997-137.561-39.997-141.958 0-257.452 115.488-257.452 257.452 0 141.963 115.494 257.446 257.452 257.446S517.77 745.198 517.77 603.246c0-46.271-12.333-89.69-33.786-127.252l-51.158 35.81z" id="path8" style="stroke-width:5.63661"/><path class="cls-4" id="polygon8" transform="matrix(5.6366 0 0 5.6366 2.866 56.535)" d="M55.83 38.831h30.942V28.95H53.73z"/><path class="cls-4" d="m936.215 421.516-3.574-11.076-19.26-59.669c-19.706 3.923-38.588 10.135-56.406 18.285l19.148 59.331 59.336 183.86 56.428-18.211-55.678-172.52z" id="path9" style="stroke-width:5.63661"/><path class="cls-4" d="m820.123 61.805-163.602.067 11.775 55.403h107.428l21.565 66.822-338.551 236.985V307.583h-60.859v156.1L239.992 574.207l34.096 48.717 542.31-379.62 30.431 94.307.029-.012a287.551 287.551 0 0 1 56.377-18.262z" id="path10" style="stroke-width:5.63661"/></svg>