<svg xmlns="http://www.w3.org/2000/svg" fill="none" viewBox="0 0 800 320" xmlns:v="https://vecta.io/nano"><path d="M0 0h800v320H0Z" fill="#fff"/><circle cx="113.252" cy="164.065" r="112.644" fill="#0066af"/><mask id="A" maskUnits="userSpaceOnUse" x="0" y="0" width="41" height="41"><circle cx="20.436" cy="20.522" r="20.436" fill="#fff"/></mask><g mask="url(#A)" transform="matrix(5.50072 0 0 5.50072 .607 51.421)"><path d="M40.872.074H0v40.872h40.872z" fill="url(#B)"/><path d="M20.407 2.73c-9.766 0-17.682 7.916-17.682 17.681s7.916 17.682 17.681 17.682 17.682-7.916 17.682-17.682S30.172 2.729 20.407 2.729zm0 33.783c-8.893 0-16.103-7.209-16.103-16.102S11.514 4.31 20.406 4.31s16.102 7.21 16.102 16.102-7.209 16.102-16.102 16.102z" fill="#fff"/><path d="M20.406 4.485A15.93 15.93 0 0 0 4.481 20.411a15.93 15.93 0 0 0 15.925 15.926 15.93 15.93 0 0 0 15.926-15.926A15.93 15.93 0 0 0 20.406 4.485Zm15.221 15.926-.07 1.473-8.114-1.427 8.123-1.411a15.87 15.87 0 0 1 .061 1.365zm-2.466 8.31c-.524.248-5.18 2.51-9.315 6.521a15.27 15.27 0 0 1-2.641.37c5.12-4.892 10.459-7.24 12.648-8.063a14.95 14.95 0 0 1-.692 1.172zm1.27-2.386a14.1 14.1 0 0 1-.133.306c-1.597.54-8.097 3.001-14.121 8.988a15.45 15.45 0 0 1-1.958-.153c3.687-3.626 7.996-6.074 11.031-7.511a44.828 44.828 0 0 1 5.39-2.151 14.59 14.59 0 0 1-.209.521zm.496-1.348c-.72.214-3.04.95-5.963 2.334-3.187 1.508-7.757 4.113-11.596 8.009a14.92 14.92 0 0 1-1.832-.494c4.571-4.29 9.696-6.87 13.238-8.29 2.904-1.163 5.233-1.753 6.282-1.987-.04.143-.084.286-.129.428zm.52-2.223c-.577.086-1.909.306-3.699.735l-5.122-.913-2.643-1.528 3.051-.53 8.509 1.496a15.27 15.27 0 0 1-.096.74zM5.185 20.41a15.23 15.23 0 0 1 .068-1.437l5.287.929-.021 1.107-5.257.944a15.5 15.5 0 0 1-.077-1.543Zm5.822-3.34h-.161a2.621 2.621 0 0 1 .16 0zm.044 0h.006c.28-.054.358-.34.38-.51l2.59 1.513-2.966-.505zm-.346-1.993a.08.08 0 0 0-.08.08v.47l-.3.006s-.051-.005-.09.062l-3.476-2.03a15.11 15.11 0 0 1 1.046-1.796l2.968 1.722-.03 1.487zm.623.557-.286-.006v-.47a.08.08 0 0 0-.08-.08h-.04l-.016-1.41 4.644 2.694 1.97 2.305-3.099-.527-2.974-1.737.011-.488c0-.294-.13-.281-.13-.281zm5.895-.78 1.08 2.941-2.66-1.543-5.804-6.795a15.29 15.29 0 0 1 1.664-1.394ZM11.617 7.98c.8-.567 1.653-1.054 2.547-1.456l2.916 7.942zm17.881.22c.557.417 1.085.87 1.58 1.359l-5.673 6.684-2.572 1.472 1.071-2.953zm-5.457 6.184 2.816-7.763c.889.415 1.735.916 2.527 1.496zm10.39.101c.299.705.543 1.43.731 2.172L26.98 18.12l7.213-4.164a12.12 12.12 0 0 1 .238.532zM9.755 25.495l.684-.401-.006.304zm1.467-.197-.014-.655 3.188-1.868 3.085-.536-2.014 2.349-.736.415a51.924 51.924 0 0 0-3.51.296zm2.828-4.778 3.012.529-2.715 1.591-3.169.55-.045-2.147zm-2.92.381-.018-.897 2.535.445zm10.471 4.237a21.78 21.78 0 0 0-.49-.053l-.506-1.349.344-.936.652.785zm.141-1.383 1.338 1.609a24.653 24.653 0 0 0-1.338-.209zm-6.698 1.234.154-.087-.072.083zm.514-.29 2.715-1.535-.66 1.774a52.772 52.772 0 0 0-2.294.04zm2.648.244a41.392 41.392 0 0 0-.442-.004l.7-1.882.865-.489v.988l-1.119 1.387zm2.2-3.683a.835.835 0 1 1 0-1.67.835.835 0 0 1 0 1.67zm-.92.215a1.44 1.44 0 0 0 .165.126l.042.111-.223.039v-.28zm.258.371.1.269-.374.212v-.433zm.14-.024.206-.035.02.005.099.118-.24.135zm.433-.003.047.003-.031.017zm.24.056.087.05-.118.146-.101-.122zm.142-.081.006-.003.06-.016-.031.039zm1.015-1.859-.011-.031.153.088-.028.078zm-2.636.925-.152-.089.102-.119a1.37 1.37 0 0 0 .05.208zm-.006.16-.084.224-.406-.071.25-.293zm.117.09c.038.068.081.132.13.193l-.19-.034zm.14.337v.328l-.414.072.165-.444zm0 .471v.488l-.788.446.317-.852Zm.141.57.425-.24.155.414-.58.72zm.55-.31.28-.158.136.163-.283.351zm.508.116.317.38-.315.86-.319-.846zm.09-.112.151-.187.27.154-.138.373zm.24-.298.13-.16.194.034-.094.256zm.29-.275a1.44 1.44 0 0 0 .11-.077l.007-.001-.034.093zm.357-.32a.366.366 0 0 0 .01-.015l.087-.05v.105l-.12.021zm.238-.45a1.54 1.54 0 0 0 .046-.212l.095.272-.141.082zm.073-.56-.018.007-.005-.04.107.128-.036.042zm.117-.084.048-.13.122.07-.11.13zm.096-.265.096-.264.327.057-.257.302zm-.124-.072-.183-.106v-.157l.262.046zm-.324-.19a1.446 1.446 0 0 0-.073-.102h.001l-.003-.01.075.014zm-.13-.264-.053-.144.183-.033v.2zm-.178-.075-.036-.027v-.001l-.004-.001-.012-.009.035-.006Zm-.524-.258.017-.01.014.018zm-1.094.176a1.47 1.47 0 0 0-.168.126v-.227l.194.033zm-.48.516-.056-.153.177-.032a1.4 1.4 0 0 0-.121.185zm-.11.112-.22.128-.255-.298.388-.07zm-.002.165a1.4 1.4 0 0 0-.038.174l-.086-.102zm-.055.371v.014l.001.033-.207.241-.433-.253.446-.261zm-.3.397-.288.337-.956-.168.766-.449zm-.395.461-.687.802-2.883.5 2.534-1.484zm.162.028.463.082-.185.496-.91.158zm.221.731-.346.931-2.523 1.425 1.873-2.183zm.633 1.753v1.19l-.94-.024zm.14-.175.639-.792.347.922-.466 1.265a35.51 35.51 0 0 0-.52-.024zm1.061.332.426 1.132a26.55 26.55 0 0 0-.82-.06zm.475-1.29.158-.43.438.25v.897zm.207-.563.11-.302.28.05v.473zm.16-.436.054-.146.176-.03v.217zm.37-.201.315-.055.141.403-.456-.081zm0-.144v-.162l.19-.109.078.225zm.313-.342.23-.132.278.332-.412.072zm-.047-.135-.09-.258.074-.086.2.237zm.076-.453.142-.168.429.247-.34.196zm.235-.277.294-.346.964.17-.781.45zm.4-.47.603-.711 2.89-.517-2.445 1.412zm-.162-.029-.383-.067.159-.439.77-.137zm-.524-.092-.311-.055v-.25l.45-.08zm-.31-.448v-.545l.845-.484-.34.939zm-.142.025-.232.042-.12-.329.353-.202zm-.373.067-.159.028-.159-.188.214-.123zm-.41-.27-.201-.239.297-.348.161.44zm-.124.071-.142.082a1.43 1.43 0 0 0-.107-.006l-.105-.06.184-.217zm-.478-.057-.214-.124.164-.444.266.315zm-.093.11-.063.073c-.015.004-.031.007-.046.012l-.122-.02.06-.165zm-.372.04-.244-.042-.001-.357.323.188zm-.386-.066-.488-.083-.287-.781.774.45zm.001.143v.305l-.276.05-.157-.428zm-.417.38-.444.08-.605-.709.873.149zm-.605.108-1.061.19-2.495-1.457 2.895.493zm.106.124.292.343-.492.289-.78-.455zm-.34.713-.84.493-2.797-.492 2.783-.5zM14 22.844l-2.795 1.638-.024-1.149Zm9.296 2.56-1.554-1.87v-.986l.898.51.834 2.379-.178-.034zm-1.554-3.018v-.528l.51.09.318.907zm.67-.409.986.176L25.29 24.4l-2.534-1.438zm-.054-.153-.16-.456.47-.081.589.698zm.471-.565.938-.163 2.452 1.417-2.745-.49zm-.105-.125-.316-.376.388-.223.78.45zm.212-.68.858-.496 2.83.498-2.831.492zm1.048-.605 2.636-1.523 8.575-1.53a14.89 14.89 0 0 1 .359 2.109l-8.52 1.48zm2.587-1.657-3.106.555 2.031-2.393 7.601-4.35a15.14 15.14 0 0 1 1.036 1.822zm-3.324.594-.859.153.37-1.018 2.379-1.361zm-.604-.962-.92.527v-1.032l1.92-2.25zm-1.061.607-.403.23-.18-.492.584-.685zm-.639-.414-.34-.929.983-2.66-.003 2.84zm-.105.123-.334.392-.302-.358.326-.881zm-.74-.09-.616-.732-.01-2.909.98 2.68zm-.056.151-.184.497-.373-.216-.003-.945zm-.698.199-.85-.494-1.005-2.735 1.852 2.199zm-.965-.397.317.865-.96-.163-1.818-2.13zm-4.006.272 2.675 1.563-2.999.539-2.94-.517-.045-2.147zm-3.83 1.485-5.277-.927a14.91 14.91 0 0 1 .354-2.046l4.964.844zm-.027 1.394-.042 2.159-4.826.838a15.068 15.068 0 0 1-.37-2.056zm-.045 2.302-.028 1.473-1.066.624a35.417 35.417 0 0 0-3.067.608 15.12 15.12 0 0 1-.626-1.873Zm14.304 2.24-1.14-.228-.808-2.305 2.724 1.547.44.523-1.217.464zm1.358-.515-.228-.27.38.215zm.327-.117-.817-.464-2.028-2.408 2.962.528 2.557 1.478a52.466 52.466 0 0 0-2.674.866zm2.86-.921-2.336-1.35 4.425.79c-.647.158-1.347.344-2.089.56zm3.7-12.257-7.256 4.152 5.415-6.38a15.278 15.278 0 0 1 1.84 2.228zm-6.291-5.324-2.95 8.129-2.055 2.41.003-3.056 3.037-8.222a15.174 15.174 0 0 1 1.965.739zm-5.001 7.075.008-8.389a15.1 15.1 0 0 1 2.892.535zm-.132-8.401-.01 8.784-1.058 2.864-1.056-2.888-.025-8.775a15.56 15.56 0 0 1 2.148.015zm-2.266 8.371-2.888-7.895a15.107 15.107 0 0 1 2.864-.482ZM16.305 5.75l3.026 8.272.009 3.129-1.994-2.367-3.053-8.315.189-.082a15.138 15.138 0 0 1 1.823-.637Zm-6.661 3.9c.03-.032.062-.062.093-.092l5.537 6.482-4.37-2.535-.021-1.905h-.07l-.037 1.831-2.89-1.677a15.293 15.293 0 0 1 1.758-2.105Zm-2.948 4.143 3.502 2.045a.767.767 0 0 0-.004.078l.013.517s-.015.56.389.639l-.008.418-4.935-.84a15.121 15.121 0 0 1 1.043-2.857zm6.383 19.964c4.514-4.381 10.33-6.939 14.475-8.324a50.153 50.153 0 0 1 7.76-1.935l-.063.298c-.83.17-3.372.75-6.72 2.09-3.67 1.469-9.011 4.164-13.732 8.681a15.25 15.25 0 0 1-1.72-.81zm18.09-2.582a15.17 15.17 0 0 1-5.824 3.639c2.651-2.356 5.358-3.987 6.891-4.824a15.41 15.41 0 0 1-1.067 1.185z" fill="#fff"/><path fill-rule="evenodd" d="M2.725 20.446c0-9.784 7.916-17.716 17.681-17.716s17.683 7.932 17.683 17.716-7.917 17.715-17.683 17.715S2.725 30.229 2.725 20.446zm1.58 0c0 8.906 7.21 16.132 16.102 16.132s16.102-7.223 16.102-16.132-7.21-16.133-16.102-16.133S4.305 11.536 4.305 20.446zm16.135-.811a.81.81 0 1 0 0 1.62.81.81 0 0 0 0-1.62zm-1.91.81a1.91 1.91 0 1 1 3.82 0 1.91 1.91 0 0 1-3.82 0z" fill="#fff"/></g><path d="M752.648 200.336h8.325v28.808c0 11.424.24 22.585 21.89 22.585a34.288 34.288 0 0 0 16.641-3.858l-2.868-13.933a15.93 15.93 0 0 1-7.686 1.87c-5.832 0-7.086-1.99-7.086-8.813v-26.658h13.534l.998-13.637h-14.532v-14.524h-11.4c-2.605 7.7-6.95 13.925-16.138 16.138zm-25.692.503a6.886 6.886 0 0 1 2.605.376c.879.383.998.879.998 2.612v8.556l16.258-.998v-24.55a32.74 32.74 0 0 0-11.424-1.87 18.479 18.479 0 0 0-17.751 11.304h-.2v-9.555h-25.868v11.664l4.345.36c2.102.254 2.86 1.117 2.86 3.595v32.147c0 2.988-.495 3.986-2.987 4.107l-4.218.4v11.16h38.346v-11.544l-10.793-.615v-27.21c0-5.712 2.86-9.946 7.822-9.946zm-68.386 28.784a7.206 7.206 0 0 1-7.797 7.318c-7.47 0-9.204-7.821-9.204-17.256 0-10.425 2.365-19.9 11.304-19.9a14.62 14.62 0 0 1 5.696.999zm20.476-39.969a71.181 71.181 0 0 0-23.887-4.713c-22.96 0-34.25 14.404-34.25 36.238 0 16.498 5.977 30.534 24.822 30.534 7.206 0 12.782-2.868 15.922-7.59l.384.144.855 5.833h22.345v-11.304l-3.22-.24c-2.253-.12-2.868-.99-2.868-3.596zm-89.3 35.63c0 5.45-2.844 8.293-7.83 8.293-7.957 0-9.291-7.557-9.291-16.498s2.963-17.375 10.905-17.375a19.174 19.174 0 0 1 6.215.998zm1.374 20.596c0 10.905-2.868 16.737-12.798 16.737a20.232 20.232 0 0 1-5.696-.736c-1.87-.615-2.605-1.613-2.605-4.098v-4.873l-15.027.99v18.351c5.33 2.868 16.266 4.474 23.887 4.474 26.667 0 31.26-16.257 31.26-33.833v-53.078a71.11 71.11 0 0 0-24.701-4.857c-21.89 0-33.49 13.533-33.49 33.833 0 16.52 6.567 29.296 24.559 29.296 6.71 0 12.04-2.86 14.523-6.823zm-102.003-73.642h-11.409c-2.605 7.701-6.95 13.933-16.138 16.138l-1.613 11.943h8.316v29.177c0 13.933 5.073 22.21 21.459 22.21a31.836 31.836 0 0 0 15.922-3.972l-3.468-13.398a16.401 16.401 0 0 1-6.823 1.734c-5.216 0-6.207-3.842-6.207-9.059v-26.667h19.301v28.8c0 11.424.24 22.585 21.89 22.585a34.12 34.12 0 0 0 16.618-3.858l-2.836-13.933a16.058 16.058 0 0 1-7.709 1.87c-5.832 0-7.062-1.99-7.062-8.813v-26.658h13.533l.999-13.637h-14.532v-14.524h-11.544c-2.133 6.328-5.473 11.664-11.544 14.524h-17.137zm-38.379 14.469H424.47v11.783l2.724.24c2.238.255 2.988 1.118 2.988 3.74v23.191c0 5.968-3.363 9.946-8.444 9.946-5.073 0-6.583-2.98-6.583-8.931v-39.97h-27.05v11.784l3.347.24c1.989.255 2.98.99 2.98 3.596v28.424c0 14.277 6.214 20.98 18.869 20.98 8.555 0 14.771-3.86 18.11-9.556h.376v7.965h24.926v-11.304l-3.363-.36c-2.11-.255-2.732-1.118-2.732-3.858zm-114.003 13.637h8.317v28.8c0 11.424.24 22.585 21.89 22.585a34.12 34.12 0 0 0 16.625-3.858l-2.844-13.933a16.058 16.058 0 0 1-7.7 1.87c-5.833 0-7.07-1.99-7.07-8.813v-26.658h13.532l.975-13.637h-14.508v-14.524h-11.424c-2.604 7.7-6.95 13.925-16.122 16.138zM298.1 235.71a29.79 29.79 0 0 1-7.557-.855c-1.614-.503-1.758-1.494-1.758-3.363v-6.95l-15.922.998v21.219a69.297 69.297 0 0 0 26.811 4.97c19.9 0 32.38-9.947 32.38-27.307 0-17.352-12.04-20.98-23.328-24.583-8.373-2.66-13.23-4.458-13.23-10.29 0-5.448 4.338-7.437 9.172-7.437a27.936 27.936 0 0 1 6.966.735c1.614.496 1.734 1.494 1.734 3.244v6.191l15.627-.998v-20.221a59.478 59.478 0 0 0-24.822-4.953c-18.23 0-30.773 9.426-30.773 25.868s12.782 21.89 23.592 24.702c7.557 1.997 12.4 3.978 12.4 9.954 0 6.823-5.337 9.052-11.289 9.052m463.855-105.095c-7.318 0-9.547-7.822-9.547-17.911s2.613-19.366 11.169-19.366a13.27 13.27 0 0 1 5.832 1.255v29.08c0 3.459-1.997 6.95-7.446 6.95zm27.873-2.11V55.264H762.35v11.664l4.099.375c1.989.24 2.963 1.239 2.963 3.604v8.939a30.118 30.118 0 0 0-8.556-1.255c-18.87 0-29.04 16.258-29.04 35.982 0 16.138 5.529 30.854 24.575 30.854 6.455 0 12.407-2.253 15.922-7.446l.495.12.863 5.712h22.345v-11.369l-3.355-.36c-2.237-.255-2.732-.878-2.732-3.595zm-89.085-5.208a7.222 7.222 0 0 1-4.84 6.934 7.254 7.254 0 0 1-2.964.384c-7.47 0-9.188-7.822-9.188-17.256 0-10.426 2.357-19.892 11.296-19.892a14.7 14.7 0 0 1 5.696.99zm20.468-39.977a71.181 71.181 0 0 0-23.887-4.714c-22.96 0-34.25 14.405-34.25 36.238 0 16.505 5.969 30.535 24.822 30.535 7.206 0 12.782-2.868 15.922-7.59l.376.144.863 5.832h22.345v-11.304l-3.22-.24c-2.253-.12-2.868-.99-2.868-3.595zM610.462 99.33V75.86h5.833c8.812 0 12.782 2.613 12.782 11.049s-4.107 12.423-11.41 12.423zm-28.08 44.42h32.994v-11.936l-4.954-.383v-18.59h6.207c4.218 0 5.696 1.613 7.565 5.216l5.098 9.954c.854 1.726.735 3.22-1.255 3.483l-3.46.36v11.799h34.113v-12.064l-5.833-.375-9.18-17.912a14.82 14.82 0 0 0-9.051-8.324c8.787-2.605 16.233-8.932 16.233-21.09 0-16.881-13.133-22.714-32.259-22.714h-36.11v12.2l6.59.495v53.741c0 2.988-.495 3.723-2.868 3.978l-3.834.36zm-35.552-13.534c-7.678 0-8.796-8.931-8.796-20.1 0-10.665 2.349-16.498 8.796-16.498 6.831 0 8.82 5.712 8.82 18.726 0 11.943-2.492 17.911-8.82 17.911zm-30.15-17.711c0 22.713 10.545 32.899 29.176 32.899s31.268-10.73 31.268-34.912c0-29.176-19.604-31.844-29.415-31.844-13.533 0-31.03 7.205-31.03 33.833zM482.407 62.35c0 6.19 4.594 10.785 11.944 10.785 7.342 0 12.118-4.594 12.118-11.169 0-6.567-4.977-10.546-12.159-10.546-7.19 0-11.943 4.833-11.943 10.929zm23.84 17.91h-27.643v11.665l4.218.36c2.237.254 2.988 1.133 2.988 3.722v32.1c0 3.108-.503 3.834-2.868 4.098l-4.338.36v11.184h34.257v-11.544l-6.59-.495zm-57.082 38.668c0 5.457-2.844 8.309-7.821 8.309-7.957 0-9.292-7.566-9.292-16.505 0-8.932 2.957-17.376 10.906-17.376 2.11-.008 4.21.32 6.207.999zm1.374 20.532c0 10.897-2.868 16.729-12.798 16.729a20.053 20.053 0 0 1-5.688-.736c-1.869-.614-2.612-1.613-2.612-4.098v-4.873l-15.02.99v18.351c5.33 2.868 16.258 4.475 23.88 4.475 26.667 0 31.268-16.258 31.268-33.834V83.425a71.454 71.454 0 0 0-24.701-4.833c-21.89 0-33.498 13.534-33.498 33.834 0 16.497 6.567 29.295 24.558 29.295 6.71 0 12.048-2.868 14.54-6.823zm-62.633-40.768c0 5.968-5.217 8.94-16.378 8.58.376-8.084 4.594-13.933 11.041-13.933a4.778 4.778 0 0 1 5.337 5.33zm-4.219-20.124c-21.474 0-32.523 16.266-32.523 34.872 0 18.614 8.436 31.844 30.15 31.844a43.884 43.884 0 0 0 24.088-6.583l-5.457-13.78a29 29 0 0 1-15.762 4.977c-8.06 0-11.784-4.714-12.424-10.546 18.75.24 33.842-4.218 33.842-21.89 0-13.022-8.94-18.99-21.89-18.99zm-84.683 20.763V75.86h5.832c8.788 0 12.775 2.613 12.775 11.049s-4.106 12.423-11.408 12.423zm-28.049 44.42h32.994v-11.936l-4.953-.383v-18.59h6.207c4.226 0 5.696 1.613 7.565 5.216l5.073 9.954c.88 1.726.76 3.22-1.23 3.483l-3.468.36v11.799h34.097V131.59l-5.832-.375-9.171-17.912a14.804 14.804 0 0 0-9.06-8.324c8.796-2.605 16.242-8.932 16.242-21.09 0-16.881-13.158-22.714-32.259-22.714h-36.086v12.2l6.566.495v53.741c0 2.98-.495 3.723-2.844 3.978l-3.842.36z" fill="#0066af"/><defs><linearGradient id="B" x1="20.436" y1=".074" x2="20.436" y2="40.946" gradientUnits="userSpaceOnUse"><stop stop-color="#0066af"/></linearGradient></defs></svg>