<svg version="1.0" width="800pt" height="320pt" viewBox="0 0 800 320" preserveAspectRatio="xMidYMid" xmlns="http://www.w3.org/2000/svg"><path d="M0 0h800v320H0z" fill="#fff" style="clip-rule:evenodd;fill-rule:evenodd;stroke-width:.8;stroke-linejoin:round;stroke-miterlimit:2"/><path d="M1140 9283c-122-19-230-74-309-159-76-80-137-202-151-299-7-47-10-542-8-1475l3-1405 27-75c52-141 149-255 270-316 113-57-22-54 2284-54h2122l68 21c173 52 299 180 361 362l28 82v1420c0 1590 5 1470-73 1619-70 133-191 229-338 266-76 20-113 20-2168 19-1150-1-2102-3-2116-6zm4228-394c26-13 54-38 70-62l27-41V7396c0-1557 6-1423-72-1483l-36-28-2076-3c-1142-1-2091 0-2109 3-40 7-101 59-118 102-12 27-14 274-14 1403 0 1211 2 1375 15 1407 21 50 42 72 90 94 38 18 123 19 2109 19h2070z" style="fill:#f01414;fill-opacity:1" transform="matrix(.03691 0 0 -.03691 132.905 345.729)"/><path d="M1380 7385V6150h453c248 0 500 5 560 10 443 42 694 326 772 870 22 157 29 413 16 574-48 564-250 877-636 987-78 22-94 23-622 26l-543 4zm840 845c225-36 352-207 401-542 16-106 16-467 0-578-40-284-128-448-280-523-65-32-67-32-233-35l-168-4v1692h108c59 0 136-5 172-10zM3440 7385V6150h478c262 0 530 5 595 11 223 19 381 83 502 204 125 124 176 260 176 465-1 193-54 335-167 447-71 70-198 138-277 149-62 9-66 18-14 33 167 50 299 194 342 375 76 315-38 598-289 717-142 67-166 69-791 69h-555zm927 826c62-27 125-92 144-147 19-52 16-187-5-243-50-137-146-181-388-181h-118v602l158-4c138-3 163-6 209-27zm2-1041c152-29 224-121 225-290 2-142-51-240-159-295-58-30-60-30-247-33l-188-3v631h159c87 0 182-4 210-10z" style="fill:#f01414;fill-opacity:1" transform="matrix(.03691 0 0 -.03691 132.905 345.729)"/><path d="M735 4838c-2-7-61-346-130-753-70-407-129-750-132-762-5-23-5-23 126-23 72 0 131 3 131 6s23 137 50 296c28 159 50 298 50 308 0 28 11 31 109 31 167 1 188-27 317-416l72-220 136-3c75-1 136 0 136 4 0 3-23 72-51 152-69 196-137 354-182 425-21 32-38 63-40 68-1 6 25 19 59 28 204 58 314 219 314 461-1 154-30 241-110 320-79 80-100 83-503 88-282 3-348 1-352-10zm661-278c32-30 54-78 54-118 0-54-31-133-67-173-51-56-98-77-200-89-95-11-303-14-303-4 0 7 58 346 66 387l6 28 208-3c206-3 209-3 236-28zM4066 4743c-10-60-20-121-23-136l-6-28 124 3 123 3 23 130c12 72 23 131 23 133 0 1-55 2-123 2h-123zM7736 4823c-14-67-256-1490-256-1506s10-17 117-15l117 3 8 40c7 40 42 242 178 1040 39 226 73 422 76 438l6 27h-240zM10817 4403c-141-824-187-1092-187-1097 0-9 228-7 233 2 3 4 17 79 32 167l28 160 81 92c45 50 85 90 91 89 5-1 37-116 71-254 33-139 63-255 66-257 3-3 57-4 121-3l115 3-98 355c-93 336-98 356-82 375 9 11 82 92 162 180s154 170 164 183l19 22h-308l-125-147c-179-212-199-232-200-208 0 11 29 189 65 395s65 378 65 383c0 4-53 7-118 7h-118zM12827 4578c-130-758-217-1267-217-1272 0-3 54-6 119-6h119l12 73c35 212 93 529 106 582 33 130 128 252 212 274 83 23 152-31 152-118 0-29-86-552-120-730-16-87-24-81 109-81h118l6 33c3 17 33 194 67 392 84 494 81 573-31 668-99 85-263 64-403-53-27-22-50-39-51-38-1 2 17 116 41 253 24 138 43 260 44 273 0 22-2 22-118 22h-118zM2205 4439c-247-36-425-307-425-647 0-291 154-495 384-510 176-11 329 87 422 270l24 48-22 5c-68 15-172 35-187 35-11 0-24-12-30-29-16-36-78-97-114-110-71-27-152 0-196 65-27 39-51 121-51 171v33h627l7 38c11 69 6 266-9 329-40 170-139 275-285 303-59 11-61 11-145-1zm135-227c57-36 90-113 90-209v-53h-195c-155 0-195 3-195 13 0 28 33 124 56 164 56 97 164 135 244 85zM3154 4439c-93-18-200-96-259-188-14-24-39-75-56-116-48-120-62-204-63-370-1-170 17-250 74-337 98-147 274-169 427-54 68 52 72 48 53-59-32-191-85-255-210-255-28 0-64 7-80 15-32 16-60 61-60 94 0 23-5 24-125 46-49 8-100 18-112 20-22 5-23 2-23-53 0-119 58-237 139-281 133-73 398-67 516 11 94 63 147 168 190 381 20 98 185 1099 185 1121 0 3-51 6-114 6h-114l-11-67c-23-138-19-132-51-76-70 123-188 185-306 162zm166-226c32-19 74-77 91-128 19-57 16-206-5-290-24-99-83-203-133-239-92-64-180-41-230 62-26 52-28 66-28 172 0 128 21 217 77 322 36 68 64 95 115 113 41 15 73 11 113-12zM4790 4439c-93-12-195-65-259-135-175-192-234-581-121-804 84-166 265-249 462-211 195 39 353 219 410 471 7 30 12 114 12 185 0 187-31 281-125 381-56 59-137 100-226 114-64 11-61 11-153-1zm171-242c76-51 104-127 96-267-8-162-75-319-163-386-49-38-143-45-190-15-120 75-146 275-63 492 33 84 83 150 138 179 53 28 138 27 182-3zM6064 4440c-62-13-123-45-189-100-33-27-64-50-68-50-5 0-6 12-3 28 3 15 8 44 12 65l6 37h-116c-64 0-116-3-116-7 0-8-178-1045-186-1085l-6-28h121c117 0 121 1 126 23 3 12 25 141 50 287 54 314 83 426 130 495 89 131 223 169 281 80 25-38 15-128-56-535-33-190-60-346-60-347 0-2 54-3 120-3 116 0 120 1 125 23 3 12 32 184 66 382 80 473 80 556 3 661-43 59-151 92-240 74zM6930 4438c-150-21-266-114-320-255l-19-50 100-12c138-15 133-16 153 28 39 91 182 116 252 46 19-20 24-34 24-79 0-30-4-66-9-79-11-29-47-39-218-62-141-18-195-33-258-70-106-61-161-216-136-374 41-252 264-330 449-157 27 26 51 46 54 46s8-27 12-60l7-60h121c120 0 120 0 114 23-15 52-18 177-6 247 7 41 30 154 52 250 64 285 67 373 17 477-52 108-213 167-389 141zm130-631c0-7-9-45-20-86-35-126-69-175-142-206-98-40-178 12-178 117 0 90 58 137 210 169 103 21 130 23 130 6zM9416 4439c-177-26-316-163-392-385-36-106-46-310-20-424 33-146 122-266 234-318 50-23 70-27 158-27 96 0 103 2 176 38 89 44 149 105 203 209 41 77 50 67-89 94-70 14-91 15-94 5-2-7-18-31-36-54-81-106-206-116-283-22-32 38-47 83-58 168l-6 47h629l8 43c12 73 7 258-10 331-51 215-208 326-420 295zm143-237c45-33 72-95 78-177l6-75h-202c-110 0-201 3-201 8 1 45 51 165 87 208 59 71 164 87 232 36zM10539 4436c-63-17-118-63-175-146-26-38-51-70-54-70-4 0-3 21 1 48 4 26 11 71 15 100l7 52h-112c-74 0-111-4-111-11 0-12-177-1051-185-1086-5-23-5-23 114-23h119l6 28c3 15 21 119 41 232 62 352 95 456 171 539 59 66 141 99 202 82l30-9 40 107c22 58 43 113 47 122 12 32-87 54-156 35zM12085 4440c-133-21-231-88-315-216-108-166-147-418-94-620 33-127 116-234 222-286 62-31 74-33 167-33 92 0 105 3 165 32 77 38 146 102 194 181 45 76 52 99 29 106-25 7-170 36-182 36-5 0-23-21-40-47-38-60-88-94-146-101-107-12-189 74-202 213l-6 65h630l7 53c16 138 4 287-32 387-59 167-217 258-397 230zm127-226c61-31 101-141 89-251-1-10-48-13-197-13h-197l7 43c9 62 65 166 108 200 57 46 125 53 190 21zM14282 4436c-72-23-126-76-209-205-16-24-9 63 13 167 4 22 3 22-111 22-63 0-115-3-115-6 0-6-49-296-140-829-22-126-42-242-45-257l-4-28h119c116 0 120 1 125 23 2 12 21 117 41 232 60 350 96 463 172 547 58 65 139 96 199 79 32-9 32-9 52 42 10 29 31 83 45 121 14 37 26 70 26 71s-12 7-27 13c-48 19-97 22-141 8zM4006 4393c-7-35-186-1082-186-1088 0-3 54-5 119-5 105 0 120 2 125 18 3 9 24 125 46 257s63 369 90 526c28 157 50 293 50 302 0 15-15 17-119 17h-119zM8030 4415c0-13 181-1092 185-1102 3-9 33-13 104-13h100l281 560 281 561-131-3-130-3-149-310c-81-170-158-336-171-367-13-32-27-58-32-58-4 0-8 1-8 3 0 4-74 568-85 647-14 99-1 90-130 90-63 0-115-2-115-5zM1071 2323c-23-48-506-1084-627-1346-36-76-62-141-60-145s61-5 131-2l127 5 76 168 75 167h253c197 0 254-3 254-12 0-28 38-319 42-323 6-7 229-8 235-2 4 5-165 1313-194 1500l-6 37h-283zm155-570c18-153 34-290 34-305v-28h-176c-109 0-174 4-172 10 11 33 274 607 276 605s19-129 38-282zM2015 2358c-2-7-20-107-40-223-56-329-142-828-184-1075-22-124-38-226-37-227 2-2 161-5 214-4 24 1 32 6 32 19 0 16 244 1451 255 1500 5 22 5 22-115 22-88 0-122-3-125-12zM2423 2002c-35-202-88-513-119-692-30-179-61-360-68-403l-13-78 111 3 110 3 13 74c6 40 14 78 15 83 2 6 19-12 37-41 91-142 235-186 383-119 197 91 323 351 322 668-1 241-57 371-189 436-100 48-225 33-325-41-26-19-50-35-52-35-3 0 14 114 38 253 24 138 44 253 44 255 0 1-55 2-122 2h-123zm459-268c69-36 103-137 95-282-6-117-25-193-73-290-51-104-132-157-209-138-38 10-90 61-116 114-21 41-24 61-23 162 0 172 48 321 130 403 58 57 125 68 196 31zM4186 2348c-12-48-256-1485-256-1501s27-17 363-17c406 0 462 7 555 62 138 83 222 244 222 425 0 127-60 237-157 286l-45 23 60 37c108 66 155 141 173 273 20 151-34 297-136 365-84 56-122 62-462 67l-312 4zm589-249c121-60 96-271-40-330-42-18-75-22-224-27l-174-5 6 39c30 178 58 327 63 336 10 16 333 4 369-13zm-45-645c56-33 81-86 78-165-4-85-43-152-108-189-44-24-52-25-263-28-177-3-216-1-213 10 2 7 19 100 37 206l33 193 200-3c181-3 204-5 236-24zM7101 2133c-23-131-47-260-53-286l-10-48-55 61c-64 70-92 87-169 101-159 29-301-65-399-264-59-120-85-224-92-370-13-260 49-429 184-497 38-20 63-25 123-25 91 0 149 25 213 91 45 47 61 55 54 27-3-10-8-35-12-55l-6-38h229l20 113c12 61 57 317 102 567s97 539 116 642 34 194 34 202c0 14-18 16-118 16h-119zm-228-409c37-28 74-89 88-146 27-113-8-340-68-436-126-204-324-137-340 116-9 135 43 328 113 419 53 70 147 91 207 47zM5665 1959c-180-26-329-181-395-409-27-92-39-316-21-401 17-83 64-173 119-228 164-164 443-158 615 14 131 129 197 305 197 524 0 185-38 300-131 393-57 57-132 95-216 108-66 11-84 11-168-1zm180-238c49-28 85-89 95-161 29-199-72-464-196-516-78-33-163-9-212 60-39 54-52 104-52 202 0 205 103 406 221 432 53 12 103 6 144-17zM7820 1959c-30-5-82-23-116-39-191-93-320-372-301-654 13-188 80-322 201-401 202-133 459-52 585 184 18 35 29 66 25 71-5 4-51 15-103 25l-95 18-15-24c-95-145-216-171-309-65-34 39-62 119-62 178v38h309c229 0 312 3 317 12 4 7 9 71 12 142 7 215-33 343-135 436-80 73-189 101-313 79zm150-228c14-10 35-37 48-59 24-43 46-159 36-186-5-14-34-16-201-16h-196l7 43c9 56 58 155 94 190 59 57 155 70 212 28zM9010 1957c-65-14-126-48-192-106-25-23-49-41-53-41-7 0 1 77 11 113 5 15-5 17-110 17h-114l-6-27c-18-88-185-1078-182-1081 6-5 227-4 232 1 3 3 27 134 55 293 72 422 92 480 191 569 79 71 159 82 209 29 21-23 24-34 23-107-1-65-75-533-120-759l-6-28h240l6 28c3 15 32 178 63 362 46 274 57 357 57 455 1 134-11 170-76 232-55 53-134 70-228 50zM9865 1959c-133-20-252-111-295-227-18-46-21-73-18-137 5-94 33-159 88-208 34-30 184-105 283-142 106-40 137-110 77-178-45-51-135-71-221-47-44 12-94 61-120 116-18 41-21 43-52 37-17-4-68-14-112-22-90-18-88-15-54-106 96-257 517-331 723-127 69 68 100 139 105 240 8 195-59 268-344 377-154 59-191 114-126 187 29 33 30 33 123 33 87 0 97-2 130-27 19-15 43-42 51-61l17-34 105 22c58 12 108 24 110 27 9 9-34 114-64 156-16 21-43 49-60 62-74 52-224 78-346 59zM10880 1959c-228-39-398-282-417-594-11-188 40-349 141-450 117-117 287-146 441-74 67 31 172 139 208 213 16 32 25 62 20 66-7 7-164 40-189 40-6 0-26-22-44-48-63-93-149-124-232-83-68 33-118 128-118 223v38h627l7 46c11 80 6 246-8 316-22 99-59 170-121 226-82 75-190 103-315 81zm156-234c40-31 63-81 75-160 14-101 26-95-198-95h-196l7 42c10 62 53 151 91 188 65 63 157 74 221 25zM11867 1960c-131-22-250-116-324-256-60-113-84-206-90-349-8-204 31-331 138-438 32-31 81-68 110-82 150-69 345-25 459 103 50 57 115 166 106 180-9 15-209 47-214 34-8-26-49-77-84-105-50-40-118-47-174-19-68 35-114 123-114 220v42h309c204 0 312 4 316 10 13 21 17 236 6 307-41 263-204 393-444 353zm133-222c63-32 92-88 98-190l5-78h-396l7 48c13 100 85 200 162 227 54 20 73 18 124-7zM3603 1522c-128-1-233-5-233-8 0-10-41-240-46-256-5-17 11-18 235-18h240l6 33c3 17 14 79 25 137 10 58 15 107 12 110-4 3-112 4-239 2z" style="fill:#585858;fill-opacity:1" transform="matrix(.03691 0 0 -.03691 132.905 345.729)"/></svg>