<svg xmlns="http://www.w3.org/2000/svg" xml:space="preserve" id="svg2" version="1.1" viewBox="0 0 800 320"><defs id="defs1"><linearGradient id="linearGradient22" x1=".09" x2=".91" y1="0" y2="0" gradientTransform="matrix(-189.61458 -483.51719 497.89435 -195.25268 297.857 759.148)" gradientUnits="userSpaceOnUse" spreadMethod="pad"><stop id="stop24" offset="0" style="stop-color:#fff484;stop-opacity:1"/><stop id="stop26" offset="1" style="stop-color:#7fb879;stop-opacity:1"/></linearGradient><linearGradient id="linearGradient40" x1=".02" x2=".98" y1="0" y2="0" gradientTransform="matrix(530.59306 596.13691 -595.63487 530.14621 378.365 -252.662)" gradientUnits="userSpaceOnUse" spreadMethod="pad"><stop id="stop42" offset="0" style="stop-color:#fe0;stop-opacity:1"/><stop id="stop44" offset="1" style="stop-color:#7fb879;stop-opacity:1"/></linearGradient><linearGradient id="linearGradient736" x1=".02" x2=".98" y1="0" y2="0" gradientTransform="matrix(530.59306 596.13691 -595.63487 530.14621 378.365 -252.662)" gradientUnits="userSpaceOnUse" spreadMethod="pad"><stop id="stop738" offset="0" style="stop-color:#fff69c;stop-opacity:1"/><stop id="stop740" offset="1" style="stop-color:#c3dbbc;stop-opacity:1"/></linearGradient><linearGradient id="linearGradient804" x1=".02" x2=".98" y1="0" y2="0" gradientTransform="matrix(530.59306 596.13691 -595.63487 530.14621 378.365 -252.662)" gradientUnits="userSpaceOnUse" spreadMethod="pad"><stop id="stop806" offset="0" style="stop-color:#fff7b2;stop-opacity:1"/><stop id="stop808" offset="1" style="stop-color:#cfe2c9;stop-opacity:1"/></linearGradient><linearGradient id="linearGradient858" x1=".02" x2=".98" y1="0" y2="0" gradientTransform="matrix(1.11577 -13.51781 9.8591 .81378 269.224 226.23)" gradientUnits="userSpaceOnUse" spreadMethod="pad"><stop id="stop860" offset="0" style="stop-color:#a7497f;stop-opacity:1"/><stop id="stop862" offset="1" style="stop-color:#ffd14a;stop-opacity:1"/></linearGradient><linearGradient id="linearGradient880" x1="0" x2="1" y1="0" y2="0" gradientTransform="matrix(0 11.8182 -8.57027 0 286.541 214.523)" gradientUnits="userSpaceOnUse" spreadMethod="pad"><stop id="stop882" offset="0" style="stop-color:#a7497f;stop-opacity:1"/><stop id="stop884" offset="1" style="stop-color:#ffd14a;stop-opacity:1"/></linearGradient><linearGradient id="linearGradient902" x1=".02" x2=".98" y1="0" y2="0" gradientTransform="matrix(1.11575 -13.51753 9.85741 .81364 163.048 215.035)" gradientUnits="userSpaceOnUse" spreadMethod="pad"><stop id="stop904" offset="0" style="stop-color:#fff;stop-opacity:1"/><stop id="stop906" offset="1" style="stop-color:#434342;stop-opacity:1"/></linearGradient><linearGradient id="linearGradient924" x1="0" x2="1" y1="0" y2="0" gradientTransform="matrix(0 11.8182 -8.56913 0 180.364 203.328)" gradientUnits="userSpaceOnUse" spreadMethod="pad"><stop id="stop926" offset="0" style="stop-color:#fff;stop-opacity:1"/><stop id="stop928" offset="1" style="stop-color:#434342;stop-opacity:1"/></linearGradient><linearGradient id="linearGradient946" x1=".28" x2=".72" y1="0" y2="0" gradientTransform="matrix(1.04608 -12.67312 9.79017 .80811 401.11 152.189)" gradientUnits="userSpaceOnUse" spreadMethod="pad"><stop id="stop948" offset="0" style="stop-color:#a2daf8;stop-opacity:1"/><stop id="stop950" offset="1" style="stop-color:#ffcd00;stop-opacity:1"/></linearGradient><linearGradient id="linearGradient968" x1=".3" x2=".7" y1="0" y2="0" gradientTransform="matrix(-.10913 11.89622 -8.67677 -.07959 418.465 140.902)" gradientUnits="userSpaceOnUse" spreadMethod="pad"><stop id="stop970" offset="0" style="stop-color:#a2daf8;stop-opacity:1"/><stop id="stop972" offset="1" style="stop-color:#ffcd00;stop-opacity:1"/></linearGradient><linearGradient id="linearGradient990" x1=".02" x2=".98" y1="0" y2="0" gradientTransform="matrix(1.11577 -13.51781 9.8591 .81378 314.596 234.699)" gradientUnits="userSpaceOnUse" spreadMethod="pad"><stop id="stop992" offset="0" style="stop-color:#a7497f;stop-opacity:1"/><stop id="stop994" offset="1" style="stop-color:#ffd14a;stop-opacity:1"/></linearGradient><linearGradient id="linearGradient1012" x1="0" x2="1" y1="0" y2="0" gradientTransform="matrix(0 11.81764 -8.57027 0 331.913 222.992)" gradientUnits="userSpaceOnUse" spreadMethod="pad"><stop id="stop1014" offset="0" style="stop-color:#a7497f;stop-opacity:1"/><stop id="stop1016" offset="1" style="stop-color:#ffd14a;stop-opacity:1"/></linearGradient><clipPath id="A"><use id="use1" href="#B"/></clipPath><clipPath id="clipPath720"><path id="path722" d="M161.41 202.283h25.996v-6.039H161.41v6.039z"/></clipPath><clipPath id="clipPath788"><path id="path790" d="M266.177 70.61h26.644v-5.822h-26.644v5.823z"/></clipPath><clipPath id="clipPath1034"><path id="path1036" d="M188.21 198.832h18.847v-6.47h-18.846v6.47z"/></clipPath><clipPath id="clipPath720-5"><path id="path722-1" d="M161.41 202.283h25.996v-6.039H161.41v6.039z"/></clipPath><clipPath id="clipPath788-1"><path id="path790-5" d="M266.177 70.61h26.644v-5.822h-26.644v5.823z"/></clipPath><clipPath id="clipPath1034-2"><path id="path1036-7" d="M188.21 198.832h18.847v-6.47h-18.846v6.47z"/></clipPath><path id="B" d="M100.3-65.5h594.1v594.1H100.3Z"/></defs><path id="path1" fill="#fff" d="M0 0h800v320H0Z" style="fill:none"/><style id="style1" type="text/css">.st0{fill-rule:evenodd;clip-rule:evenodd;fill:#e3131e}.st1{display:none;fill:#858b95;enable-background:new}.st2{font-family:&quot;DBSansAlternate-BoldItalic&quot;}.st3{font-size:73.0039px}.st4{enable-background:new}.st5{fill:#858b95}.st6{display:none}.st7,.st8{display:inline}.st8{fill:#858b95}.st9{font-size:54.841px}.st10{display:inline;enable-background:new}</style><g id="g22" transform="matrix(2.82565 0 0 -2.82871 -48.773 767.756)"><g id="g1" transform="scale(.9423 .93386)"><path id="path1-9" fill="none" stroke="#fff484" stroke-dasharray="2.83, 0.57" stroke-miterlimit="22.926" stroke-width=".567" d="m187.94 597.33-3.45-3.809-3.795-.173-3.594-1.04-.236 5.274"/></g><g id="g13" fill="#9ca4a8"><path id="path2" d="M51.395 185.19c0-2.76-.782-6.676-1.94-9.602-2.428-6.22-7.702-9.683-14.748-9.683-7.5 0-12.24 4.697-12.24 12.114 0 4.905 1.69 10.096 4.369 13.393 3.05 3.749 7.252 5.686 12.36 5.686 7.625 0 12.199-4.452 12.199-11.908zm-19.45 1.978c-1.152-2.926-2.143-7.581-2.143-10.094 0-4.082 1.773-6.057 5.318-6.057 3.047 0 5.438 1.687 6.717 4.737 1.234 2.966 2.182 7.58 2.182 10.425 0 3.832-1.853 5.81-5.357 5.81-3.05 0-5.481-1.73-6.717-4.822"/><path id="path3" d="M69.566 182.59c-2.472 1.32-4.08 1.771-6.304 1.771-1.94 0-2.966-.617-2.966-1.812 0-.947.576-1.441 2.636-2.305 4.779-2.021 5.974-3.298 5.974-6.555 0-5.025-3.173-7.787-9.064-7.787-3.298 0-5.357.494-8.118 1.98l.907 4.738c2.843-1.565 4.696-2.103 7.086-2.103 2.143 0 3.215.701 3.215 2.062 0 .74-.33 1.276-1.194 1.773-.538.328-.662.37-2.926 1.315-3.175 1.36-4.37 3.05-4.37 6.018 0 4.697 3.214 7.375 8.86 7.375 2.844 0 4.574-.412 7.171-1.73z"/><path id="path4" d="M84.807 166.77c-1.234-.494-2.718-.742-4.367-.742-4.325 0-6.508 1.647-6.508 4.863 0 .741.079 1.524.288 2.555l2.06 10.384h-2.72l.906 4.572h.37c1.98 0 3.132.7 3.914 2.431l1.195 2.512h4.74l-.948-4.943h4.905l-.907-4.572h-4.903l-1.895-9.808a5.194 5.194 0 0 1-.166-1.32c0-1.154.742-1.686 2.306-1.686.907 0 1.608.163 2.678.576z"/><path id="path5" d="M98.494 184.86c2.637 2.803 4.986 4.08 7.622 4.08 3.666 0 5.85-2.72 5.85-7.171 0-5.234-1.814-10.63-4.408-13.225-1.774-1.774-4.12-2.722-6.718-2.722-2.718 0-4.655.907-6.55 3.05l-1.65-2.392h-4.324l5.77 29.794c2.594.081 4.365.535 5.313 1.358h1.566l-2.471-12.772zm-2.678-13.722c1.11-.62 1.977-.866 3.172-.866 2.059 0 3.583.99 4.45 2.802.866 1.812 1.689 5.604 1.689 7.666 0 1.852-.989 2.922-2.638 2.922-1.442 0-2.514-.533-4.657-2.182l-2.016-10.342z"/><path id="path6" d="m129.12 166.48-.743 3.588c-2.551-2.969-4.738-4.205-7.5-4.205-3.873 0-6.098 2.681-6.098 7.335 0 3.916 1.239 8.612 2.969 11.127 2.018 2.964 5.15 4.615 8.694 4.615 2.43 0 4.243-.785 5.932-2.475l1.361 1.937h4.243l-3.05-15.658c-.204-1.03-.329-2.1-.329-2.844 0-1.027.166-1.605.742-2.306l-.247-1.114h-5.974Zm1.277 16.978c-.867.576-1.649.782-2.801.782-2.226 0-3.834-1.195-4.698-3.5-.742-1.98-1.32-5.072-1.32-7.05 0-2.098.866-3.212 2.512-3.212 1.402 0 2.475.538 4.204 2.102l2.103 10.878z"/><path id="path7" d="M136.43 158.29c2.885 2.72 6.14 6.057 9.23 9.477l-4.615 20.643h6.674l2.556-14.01c2.843 4.946 4.78 9.354 6.181 14.01h5.685c-3.253-10.92-10.218-21.922-18.954-30.12h-6.757z"/><path id="path8" d="M178.99 167.39c-3.05-1.193-4.864-1.565-7.542-1.565-6.098 0-9.393 2.967-9.393 8.447 0 4.244 1.401 8.448 3.626 10.96 2.224 2.556 5.397 3.874 9.189 3.874 4.902 0 7.869-2.35 7.869-6.264 0-3.338-2.06-5.644-5.974-6.714-2.267-.62-3.791-.785-7.953-.948-.04-.372-.04-.576-.04-.824 0-2.514 1.276-3.503 4.45-3.503 2.1 0 3.502.288 6.716 1.4zm-2.474 14.711c0 1.564-.904 2.43-2.512 2.43-2.556 0-3.874-1.605-4.616-5.644 5.645.372 7.128 1.03 7.128 3.214"/><path id="path9" d="M188.21 187.67c2.638.08 4.326.535 5.274 1.358l1.568-.372-.948-4.696c2.472 3.088 5.068 4.737 7.868 4.987l-1.195-6.058c-2.925-.29-5.233-.866-7.211-1.773l-2.842-14.63h-6.592l4.078 21.183z"/><path id="path10" d="m214.28 166.48 2.637 13.682c.125.7.164 1.073.164 1.442 0 1.236-.618 1.896-1.853 1.896-1.402 0-2.72-.576-4.656-2.102l-2.927-14.918h-6.59l4.077 21.183c2.637.08 4.326.535 5.274 1.358l1.606-.372-.864-4.12c3.173 3.09 5.728 4.41 8.488 4.41 2.926 0 4.534-1.607 4.534-4.576 0-.658-.084-1.44-.33-2.594l-2.927-15.29h-6.633Z"/><path id="path11" d="M236.47 184.86c2.638 2.803 4.986 4.08 7.624 4.08 3.667 0 5.85-2.72 5.85-7.171 0-5.234-1.813-10.63-4.41-13.225-1.771-1.774-4.118-2.722-6.714-2.722-2.72 0-4.656.907-6.552 3.05l-1.648-2.392h-4.328l5.77 29.794c2.596.081 4.367.535 5.315 1.358h1.567l-2.474-12.772zm-2.678-13.722c1.113-.62 1.977-.866 3.172-.866 2.062 0 3.585.99 4.452 2.802.864 1.812 1.69 5.604 1.69 7.666 0 1.852-.99 2.922-2.638 2.922-1.442 0-2.515-.533-4.658-2.182l-2.018-10.342z"/><path id="path12" d="M271.49 166.48h-4.449l-.905 3.545c-3.05-2.926-5.481-4.162-8.161-4.162-3.173 0-4.985 1.937-4.985 5.235 0 .864.082 1.564.329 2.8l2.721 14.092 6.758.537-2.678-13.763c-.166-.782-.21-1.277-.21-1.69 0-1.275.702-2.017 1.98-2.017 1.237 0 2.266.454 4.203 1.812l2.966 15.121 6.717.538-4.286-22.047z"/><path id="path13" d="M294.27 182.59c-2.472 1.32-4.08 1.771-6.304 1.771-1.937 0-2.966-.617-2.966-1.812 0-.947.576-1.441 2.637-2.305 4.778-2.021 5.973-3.298 5.973-6.555 0-5.025-3.173-7.787-9.064-7.787-3.298 0-5.358.494-8.118 1.98l.907 4.738c2.844-1.565 4.698-2.103 7.086-2.103 2.143 0 3.216.701 3.216 2.062 0 .74-.331 1.276-1.195 1.773-.538.328-.66.37-2.928 1.315-3.172 1.36-4.367 3.05-4.367 6.018 0 4.697 3.215 7.375 8.86 7.375 2.843 0 4.573-.412 7.168-1.73z"/></g><g id="g17" fill="#2b2b2a"><path id="path14" d="M199.47 255.87v-11.618h-10.681v11.618h-7.722v-29.954h7.722v12.35h10.681v-12.35h7.722v29.954z"/><path id="path15" d="M232.04 255.87V239.5a71111.04 71111.04 0 0 1-12.441 16.37h-6.48v-29.954h6.557v18.114c1.03-1.36 13.772-18.114 13.772-18.114h5.148v29.954h-6.556z"/><path id="path16" d="M139.94 241.86c3.048 1.27 4.304 3 4.304 6.202 0 5.112-3.503 7.81-10.114 7.81h-12.473v-29.954h12.234c7.849 0 12.003 2.986 12.003 8.628 0 4.026-1.907 6.27-5.955 7.314zm-6.415 2.277h-4.143v5.991h4.308c2.155 0 3.07-.882 3.07-2.957 0-2.125-.963-3.034-3.235-3.034zm-4.143-4.983h4.628c2.96 0 4.161-1.043 4.161-3.6 0-2.83-1.272-3.88-4.683-3.88h-4.106z"/><path id="path17" d="M169.67 225.92h7.867l-11.486 29.954h-7.111l-11.656-29.954h7.284l1.95 5.451h11.19l1.962-5.451zm-11.257 10.706 3.687 10.238 3.706-10.238z"/></g><g id="g21"><path id="path18" fill="#e31f25" d="M94.638 270.57H33.033c-4.238 0-7.746-3.352-7.746-7.683v-38.52a7.756 7.756 0 0 1 7.746-7.769h61.605a7.757 7.757 0 0 1 7.749 7.769v38.52c0 4.331-3.509 7.683-7.749 7.683"/><path id="path19" fill="#fff" d="M96.758 224.37c0-1.229-.896-2.21-2.12-2.21H33.033c-1.222 0-2.12.981-2.12 2.21v38.52c0 1.226.898 2.206 2.12 2.206h61.605c1.224 0 2.12-.98 2.12-2.206z"/><path id="path20" fill="#e31f25" d="M48.866 225.92H35.892v35.329h12.974c9.137 0 14.182-5.723 14.182-17.5 0-10.222-3.415-17.747-14.182-17.829zm5.629 17.094c0 7.114-.737 12.672-8.404 12.672h-1.715v-24.04h3.018c4.488 0 7.1 3.598 7.1 11.368"/><path id="path21" fill="#e31f25" d="M85.458 244.4c2.502.662 6.178 3.514 6.178 8.225 0 .737-.155 8.608-10.087 8.608H66.766v-35.315h12.49c3.306 0 13.615 0 13.615 9.933 0 2.48-1.012 7.152-7.413 8.55zm-10.291 11.383h2.674c3.798 0 5.308-1.326 5.308-4.25 0-2.321-1.661-4.272-4.614-4.272h-3.368zm3.477-24.139h-3.477v9.08h3.708c4.409 0 5.483-2.574 5.483-4.542 0-4.538-4.37-4.538-5.714-4.538"/></g></g></svg>