<svg width="800.343" height="320" xml:space="preserve" xmlns="http://www.w3.org/2000/svg"><path d="M.343 0h800v320h-800z" fill="#fff" style="clip-rule:evenodd;fill-rule:evenodd;stroke-width:.8;stroke-linejoin:round;stroke-miterlimit:2"/><path d="M267.46 161.277v-3.404h-3.128v3.404h-2.263V152.5h2.262v3.618h3.13v-3.618h2.262v8.776zM277.003 161.277v-4.797l-3.645 4.797h-1.899V152.5h1.922v5.306l4.034-5.306h1.508v8.776zM250.023 157.17c.893.373 1.26.88 1.26 1.818 0 1.498-1.025 2.289-2.962 2.289h-3.654V152.5h3.584c2.3 0 3.516.875 3.516 2.527 0 1.18-.558 1.838-1.744 2.143zm-1.88.669h-1.213v1.755h1.262c.631 0 .9-.258.9-.867 0-.623-.283-.888-.949-.888zm-1.213-1.46h1.356c.867 0 1.22-.306 1.22-1.055 0-.83-.374-1.137-1.373-1.137h-1.203zM258.732 152.501h2.305l-3.365 8.776h-2.084l-3.414-8.776h2.133l.572 1.597h3.278zm-3.298 3.136 1.08 3 1.086-3z" style="fill:#000;fill-opacity:1;fill-rule:nonzero;stroke:none" transform="matrix(7.39944 0 0 -7.39944 -1601.484 1262.713)"/><path d="M236.75 165.583h-18.047a2.251 2.251 0 0 1-2.27-2.252v-11.284a2.272 2.272 0 0 1 2.27-2.275h18.047a2.272 2.272 0 0 1 2.27 2.275v11.284a2.251 2.251 0 0 1-2.27 2.252z" style="fill:#e20a16;fill-opacity:1;fill-rule:nonzero;stroke:none" transform="matrix(7.39944 0 0 -7.39944 -1601.484 1262.713)"/><path d="M237.371 152.047c0-.36-.263-.647-.62-.647h-18.048c-.358 0-.621.287-.621.647v11.284c0 .36.263.647.62.647h18.048c.358 0 .621-.287.621-.647z" style="fill:#fff;fill-opacity:1;fill-rule:nonzero;stroke:none" transform="matrix(7.39944 0 0 -7.39944 -1601.484 1262.713)"/><path d="M223.34 152.502h-3.8v10.35h3.8c2.677 0 4.156-1.677 4.156-5.127 0-2.995-1-5.199-4.155-5.223zm1.65 5.008c0 2.085-.216 3.712-2.462 3.712h-.502v-7.042h.884c1.315 0 2.08 1.054 2.08 3.33zM234.06 157.917c.733.194 1.81 1.03 1.81 2.41 0 .215-.044 2.521-2.955 2.521h-4.33v-10.346h3.659c.969 0 3.988 0 3.988 2.91 0 .727-.296 2.095-2.171 2.505zm-3.014 3.335h.784c1.113 0 1.554-.389 1.554-1.245 0-.68-.486-1.252-1.351-1.252h-.987zm1.019-7.072h-1.019v2.66h1.086c1.292 0 1.607-.754 1.607-1.33 0-1.33-1.28-1.33-1.674-1.33z" style="fill:#e20a16;fill-opacity:1;fill-rule:nonzero;stroke:none" transform="matrix(7.39944 0 0 -7.39944 -1601.484 1262.713)"/><path d="M278.339 141.782c-.821.422-1.376.567-2.125.567-.929 0-1.412-.326-1.412-.954 0-.483.133-.615 1.34-1.219 1.376-.688 1.847-1.316 1.847-2.438 0-1.847-1.292-2.946-3.477-2.946-1.159 0-1.992.194-2.873.664l.314 1.594c.966-.52 1.57-.688 2.439-.688.953 0 1.545.398 1.545 1.05 0 .314-.133.531-.459.772-.181.133-.23.17-1.062.616-1.172.616-1.582 1.22-1.582 2.281 0 1.8 1.22 2.837 3.344 2.837.917 0 1.642-.145 2.475-.507zM282.287 135.034c-.362-.145-.796-.217-1.279-.217-1.268 0-1.907.482-1.907 1.424 0 .217.024.447.085.748l.603 3.042h-.797l.266 1.34h.109c.579 0 .917.205 1.146.712l.35.737h1.389l-.278-1.449h1.436l-.265-1.34h-1.437l-.555-2.873a1.544 1.544 0 0 1-.048-.386c0-.338.217-.495.676-.495.266 0 .471.048.785.17l-.278-1.413zM288.93 134.95h-1.304l-.265 1.038c-.894-.858-1.606-1.22-2.39-1.22-.93 0-1.46.568-1.46 1.533 0 .254.023.46.095.821l.797 4.129 1.98.157-.785-4.032a2.334 2.334 0 0 1-.06-.495c0-.374.205-.592.58-.592.361 0 .663.133 1.23.531l.87 4.43 1.967.158-1.255-6.459zM294.167 135.034c-.362-.145-.797-.217-1.28-.217-1.267 0-1.907.482-1.907 1.424 0 .217.024.447.084.748l.604 3.042h-.797l.266 1.34h.108c.58 0 .918.205 1.147.712l.35.737h1.388l-.277-1.449h1.436l-.265-1.34h-1.437l-.555-2.873a1.544 1.544 0 0 1-.048-.386c0-.338.217-.495.676-.495.265 0 .47.048.785.17l-.278-1.413zM298.989 135.034c-.362-.145-.797-.217-1.28-.217-1.267 0-1.907.482-1.907 1.424 0 .217.024.447.084.748l.604 3.042h-.797l.265 1.34h.11c.578 0 .917.205 1.146.712l.35.737h1.388l-.277-1.449h1.436l-.266-1.34h-1.436l-.555-2.873a1.544 1.544 0 0 1-.048-.386c0-.338.217-.495.676-.495.265 0 .47.048.784.17l-.278-1.413zM305.782 135.155c-.374-1.92-1.485-2.777-3.633-2.777-.858 0-1.606.133-2.415.423l.29 1.485.265-.097c.797-.266 1.184-.35 1.75-.35 1.135 0 1.63.386 1.823 1.412l.206 1.014c-.712-.82-1.328-1.159-2.113-1.159-1.159 0-1.859.736-1.859 1.98 0 1.086.399 2.499.906 3.21.579.797 1.436 1.22 2.498 1.22.737 0 1.292-.205 1.823-.664l.338.519h1.328l-1.207-6.217zm-1.026 4.66a1.602 1.602 0 0 1-.978.313c-.604 0-1.074-.302-1.304-.833-.18-.459-.374-1.436-.374-1.967 0-.508.266-.797.749-.797.41 0 .76.157 1.388.615zM311.576 134.95l-.218 1.05c-.748-.87-1.388-1.232-2.197-1.232-1.134 0-1.786.785-1.786 2.149 0 1.147.362 2.523.87 3.26a3.02 3.02 0 0 0 2.546 1.351c.712 0 1.243-.23 1.738-.724l.399.567h1.243l-.893-4.587a4.592 4.592 0 0 1-.097-.833c0-.302.048-.47.217-.676l-.072-.326h-1.75zm.374 4.973c-.254.169-.483.229-.821.229-.652 0-1.123-.35-1.376-1.026-.217-.58-.386-1.485-.386-2.064 0-.616.253-.942.736-.942.41 0 .724.157 1.231.616zM315.665 141.154c.773.024 1.268.157 1.545.398l.46-.108-.278-1.376c.724.905 1.484 1.388 2.305 1.46l-.35-1.774c-.857-.084-1.533-.254-2.112-.52l-.833-4.285h-1.932zM323.357 135.034c-.362-.145-.796-.217-1.28-.217-1.267 0-1.906.482-1.906 1.424 0 .217.024.447.084.748l.603 3.042h-.797l.266 1.34h.108c.58 0 .918.205 1.147.712l.35.737h1.388l-.277-1.449h1.436l-.265-1.34h-1.437l-.555-2.873a1.544 1.544 0 0 1-.048-.386c0-.338.217-.495.676-.495.266 0 .47.048.785.17l-.278-1.413zM221.37 143.725c1.835 0 2.813-.748 2.813-2.149 0-.844-.278-1.545-.81-1.98-.35-.289-.7-.458-1.375-.639.386-.157.676-.519.893-1.087l1.099-2.92h-2.15l-.953 2.643c-.241.652-.519.881-1.11.881h-.543l-.689-3.525h-2.112l1.702 8.776zm-.76-3.863c1.05 0 1.545.471 1.545 1.46 0 .556-.387.858-1.099.858h-1.098l-.447-2.318zM229.608 135.215c-.894-.35-1.425-.459-2.21-.459-1.785 0-2.751.87-2.751 2.475 0 1.243.41 2.474 1.062 3.21.652.75 1.581 1.135 2.692 1.135 1.436 0 2.305-.688 2.305-1.834 0-.978-.604-1.654-1.75-1.968-.664-.181-1.11-.23-2.33-.278-.011-.108-.011-.169-.011-.241 0-.736.374-1.026 1.303-1.026.615 0 1.026.085 1.967.41zm-.725 4.31c0 .458-.265.711-.736.711-.748 0-1.134-.47-1.351-1.653 1.653.108 2.088.302 2.088.941zM236.84 135.155c-.375-1.92-1.485-2.777-3.634-2.777-.857 0-1.605.133-2.414.423l.29 1.485.265-.097c.797-.266 1.183-.35 1.75-.35 1.135 0 1.63.386 1.823 1.412l.205 1.014c-.712-.821-1.327-1.159-2.112-1.159-1.159 0-1.859.736-1.859 1.98 0 1.086.398 2.499.905 3.21.58.797 1.437 1.22 2.5 1.22.735 0 1.29-.205 1.822-.664l.338.519h1.327l-1.207-6.217zm-1.027 4.66a1.602 1.602 0 0 1-.977.313c-.604 0-1.075-.302-1.304-.833-.181-.459-.374-1.436-.374-1.968 0-.507.265-.796.748-.796.41 0 .76.157 1.388.615zM239.408 141.154c.772.024 1.267.157 1.545.398l.458-.108-1.267-6.495h-1.931zm2.426 2.04c0-.604-.459-1.062-1.062-1.062-.58 0-.978.398-.978.977 0 .592.459 1.05 1.062 1.05.568 0 .978-.41.978-.965zM248.257 139.102c0-.93-.301-2.113-.724-2.777-.64-1.026-1.677-1.569-3.005-1.569-1.666 0-2.692.978-2.692 2.56 0 1.146.434 2.438 1.05 3.138.64.724 1.581 1.122 2.668 1.122 1.654 0 2.704-.953 2.704-2.474zm-4.104.012c-.18-.543-.362-1.533-.362-1.944 0-.712.29-1.05.893-1.05.604 0 .978.302 1.232.99.18.52.374 1.605.374 2.125 0 .652-.302.99-.893.99-.628 0-.966-.314-1.244-1.111zM251.556 140.333c.772.82 1.46 1.195 2.232 1.195 1.075 0 1.715-.796 1.715-2.1 0-1.533-.531-3.115-1.292-3.875a2.733 2.733 0 0 0-1.967-.797c-.797 0-1.365.266-1.92.894l-.482-.7h-1.268l1.69 8.727c.76.024 1.28.157 1.557.398h.459zm-.785-4.02c.326-.18.58-.253.93-.253.603 0 1.05.29 1.303.82.254.532.495 1.642.495 2.246 0 .543-.29.857-.772.857-.423 0-.737-.157-1.365-.64zM261.56 134.95h-1.304l-.265 1.038c-.893-.858-1.605-1.22-2.39-1.22-.93 0-1.46.568-1.46 1.533 0 .254.024.459.096.821l.796 4.129 1.98.156-.785-4.031a2.334 2.334 0 0 1-.06-.495c0-.374.205-.592.58-.592.362 0 .664.133 1.231.531l.869 4.43 1.968.157-1.256-6.458zM268.066 139.67c-.724.386-1.195.518-1.846.518-.568 0-.87-.18-.87-.53 0-.278.17-.423.773-.677 1.4-.591 1.75-.966 1.75-1.92 0-1.472-.93-2.28-2.655-2.28-.965 0-1.569.144-2.378.579l.266 1.388c.833-.459 1.376-.616 2.076-.616.627 0 .941.206.941.604 0 .217-.097.374-.35.519-.157.097-.193.109-.857.386-.929.399-1.28.893-1.28 1.763 0 1.376.942 2.16 2.596 2.16.833 0 1.34-.12 2.1-.507z" style="fill:#6a7478;fill-opacity:1;fill-rule:nonzero;stroke:none" transform="matrix(7.39944 0 0 -7.39944 -1601.484 1262.713)"/></svg>