<svg width="800" height="320" xml:space="preserve" xmlns="http://www.w3.org/2000/svg"><path d="M0 0h800v320H0z" fill="#fff" style="clip-rule:evenodd;fill-rule:evenodd;stroke-width:.8;stroke-linejoin:round;stroke-miterlimit:2"/><path d="M0 0c0 1.929-3.771 7.928-5.169 9.221-.158.159-.37.284-.566.39l-9.359-12.744h10.209C-2.708-3.133 0-2.124 0 0m-11.538 9.611h-5.917l-3.556-12.744h.886l3.565 12.744-.077-7.983zm-12.677 0h-3.859l.195-7.046zm.919-3.718-4.97-9.026h2.299zm-7.538-9.026-.141 8.94-2.636-8.94zM-40.971-.496c.213.941.054 1.576-.867 1.576h-3.309l-1.238-4.213h4.9c-.07.371.196 1.187.514 2.637zm-6.425 10.107h-.725L-51.82-3.133h.727zm-1.185 0h-.671l-3.7-12.744h.673zm-1.186 0h-.603l-3.714-12.744h.621zm-1.186 0h-.548l-3.697-12.744h.549zm-1.184 0h-.496l-3.698-12.744h.496zm-1.186 0h-.441l-3.7-12.744h.443zm-1.185 0h-.39l-3.7-12.744h.391zm-1.187 0h-.319l-3.698-12.744h.319zm-1.185 0h-.265l-3.698-12.744h.246zm-1.186 0h-.212l-3.699-12.744h.195zm14.476-3.132-.672-2.304h3.362c.971 0 1.486.322 1.715 1.117.267.957-.282 1.187-1.132 1.187h-3.273" style="fill:#082b6d;fill-opacity:1;fill-rule:nonzero;stroke:none" transform="matrix(12.87734 0 0 -12.87734 798.53 207.883)"/><path d="M0 0h-1.576l-3.663-7.045L-5.433 0h-8.259c2.756 0 2.387-2.303 2.387-2.815 0-1.716-.891-3.044-2.66-3.506.125-.159.675-.689.746-.865.264-.39.073-.952.073-1.415 0-1.046-.549-2.07-.549-3.096 0-.353.123-.732.284-1.047h2.439l2.636 8.941.143-8.941h2.568l4.97 9.028-2.673-9.028h4.957L5.184 0H0" style="fill:#aee3d2;fill-opacity:1;fill-rule:nonzero;stroke:none" transform="matrix(12.87734 0 0 -12.87734 506.986 84.132)"/><path d="m0 0-5.1-7.983L-5.022 0l-3.565-12.744h5.031L5.803 0H0" style="fill:#fff;fill-opacity:1;fill-rule:nonzero;stroke:none" transform="matrix(12.87734 0 0 -12.87734 649.95 84.132)"/><path d="M0 0c0 2.365-2.743 2.427-2.743 2.427h-.377S-.812 2.248-.812 0c0-1.893-.867-3.468-2.833-3.871.888-.569.958-1.525.958-1.789 0-1.205-.692-2.354-.692-3.557 0-.372.071-.762.25-1.1h.811c-.18.338-.249.728-.249 1.1 0 1.203.691 2.352.691 3.557 0 .264-.069 1.22-.958 1.789C-.868-3.468 0-1.893 0 0" style="fill:#082b6d;fill-opacity:1;fill-rule:nonzero;stroke:none" transform="matrix(12.87734 0 0 -12.87734 370.847 115.386)"/><path d="M0 0h-11.065l-3.696-12.744h4.707l1.238 4.213h3.31c.92 0 1.08-.635.867-1.575-.318-1.45-.585-2.266-.514-2.638H-.01c-.179.338-.248.728-.248 1.1 0 1.203.69 2.352.69 3.557 0 .264-.071 1.22-.957 1.789 1.965.403 2.833 1.978 2.833 3.871C2.308-.179 0 0 0 0zm-4.569-5.436h-3.362l.673 2.305h3.272c.85 0 1.399-.231 1.133-1.188-.229-.795-.744-1.117-1.716-1.117" style="fill:#fff;fill-opacity:1;fill-rule:nonzero;stroke:none" transform="matrix(12.87734 0 0 -12.87734 330.67 84.132)"/></svg>