<svg xmlns="http://www.w3.org/2000/svg" xml:space="preserve" id="svg2" version="1.1" viewBox="0 0 800 320"><defs id="defs1"><clipPath id="A"><use id="use1" href="#B"/></clipPath><clipPath id="clipPath720"><path id="path722" d="M161.41 202.283h25.996v-6.039H161.41v6.039z"/></clipPath><clipPath id="clipPath788"><path id="path790" d="M266.177 70.61h26.644v-5.822h-26.644v5.823z"/></clipPath><clipPath id="clipPath1034"><path id="path1036" d="M188.21 198.832h18.847v-6.47h-18.846v6.47z"/></clipPath><clipPath id="clipPath720-5"><path id="path722-1" d="M161.41 202.283h25.996v-6.039H161.41v6.039z"/></clipPath><clipPath id="clipPath788-1"><path id="path790-5" d="M266.177 70.61h26.644v-5.822h-26.644v5.823z"/></clipPath><clipPath id="clipPath1034-2"><path id="path1036-7" d="M188.21 198.832h18.847v-6.47h-18.846v6.47z"/></clipPath><clipPath id="clipPath6810"><path id="path6812" d="M.03 841.915h594.99V.055H.03v841.86z"/></clipPath><clipPath id="clipPath6948"><path id="path6950" d="M.03 841.915h594.99V.055H.03v841.86z"/></clipPath><clipPath id="clipPath7742"><path id="path7744" d="M.03 841.915h594.99V.055H.03v841.86z"/></clipPath><clipPath id="clipPath6810-7"><path id="path6812-9" d="M.03 841.915h594.99V.055H.03v841.86z"/></clipPath><clipPath id="clipPath6948-3"><path id="path6950-1" d="M.03 841.915h594.99V.055H.03v841.86z"/></clipPath><clipPath id="clipPath7742-9"><path id="path7744-8" d="M.03 841.915h594.99V.055H.03v841.86z"/></clipPath><linearGradient id="linearGradient22" x1=".09" x2=".91" y1="0" y2="0" gradientTransform="matrix(-189.61458 -483.51719 497.89435 -195.25268 297.857 759.148)" gradientUnits="userSpaceOnUse" spreadMethod="pad"><stop id="stop24" offset="0" style="stop-color:#fff484;stop-opacity:1"/><stop id="stop26" offset="1" style="stop-color:#7fb879;stop-opacity:1"/></linearGradient><linearGradient id="linearGradient40" x1=".02" x2=".98" y1="0" y2="0" gradientTransform="matrix(530.59306 596.13691 -595.63487 530.14621 378.365 -252.662)" gradientUnits="userSpaceOnUse" spreadMethod="pad"><stop id="stop42" offset="0" style="stop-color:#fe0;stop-opacity:1"/><stop id="stop44" offset="1" style="stop-color:#7fb879;stop-opacity:1"/></linearGradient><linearGradient id="linearGradient736" x1=".02" x2=".98" y1="0" y2="0" gradientTransform="matrix(530.59306 596.13691 -595.63487 530.14621 378.365 -252.662)" gradientUnits="userSpaceOnUse" spreadMethod="pad"><stop id="stop738" offset="0" style="stop-color:#fff69c;stop-opacity:1"/><stop id="stop740" offset="1" style="stop-color:#c3dbbc;stop-opacity:1"/></linearGradient><linearGradient id="linearGradient804" x1=".02" x2=".98" y1="0" y2="0" gradientTransform="matrix(530.59306 596.13691 -595.63487 530.14621 378.365 -252.662)" gradientUnits="userSpaceOnUse" spreadMethod="pad"><stop id="stop806" offset="0" style="stop-color:#fff7b2;stop-opacity:1"/><stop id="stop808" offset="1" style="stop-color:#cfe2c9;stop-opacity:1"/></linearGradient><linearGradient id="linearGradient858" x1=".02" x2=".98" y1="0" y2="0" gradientTransform="matrix(1.11577 -13.51781 9.8591 .81378 269.224 226.23)" gradientUnits="userSpaceOnUse" spreadMethod="pad"><stop id="stop860" offset="0" style="stop-color:#a7497f;stop-opacity:1"/><stop id="stop862" offset="1" style="stop-color:#ffd14a;stop-opacity:1"/></linearGradient><linearGradient id="linearGradient880" x1="0" x2="1" y1="0" y2="0" gradientTransform="matrix(0 11.8182 -8.57027 0 286.541 214.523)" gradientUnits="userSpaceOnUse" spreadMethod="pad"><stop id="stop882" offset="0" style="stop-color:#a7497f;stop-opacity:1"/><stop id="stop884" offset="1" style="stop-color:#ffd14a;stop-opacity:1"/></linearGradient><linearGradient id="linearGradient902" x1=".02" x2=".98" y1="0" y2="0" gradientTransform="matrix(1.11575 -13.51753 9.85741 .81364 163.048 215.035)" gradientUnits="userSpaceOnUse" spreadMethod="pad"><stop id="stop904" offset="0" style="stop-color:#fff;stop-opacity:1"/><stop id="stop906" offset="1" style="stop-color:#434342;stop-opacity:1"/></linearGradient><linearGradient id="linearGradient924" x1="0" x2="1" y1="0" y2="0" gradientTransform="matrix(0 11.8182 -8.56913 0 180.364 203.328)" gradientUnits="userSpaceOnUse" spreadMethod="pad"><stop id="stop926" offset="0" style="stop-color:#fff;stop-opacity:1"/><stop id="stop928" offset="1" style="stop-color:#434342;stop-opacity:1"/></linearGradient><linearGradient id="linearGradient946" x1=".28" x2=".72" y1="0" y2="0" gradientTransform="matrix(1.04608 -12.67312 9.79017 .80811 401.11 152.189)" gradientUnits="userSpaceOnUse" spreadMethod="pad"><stop id="stop948" offset="0" style="stop-color:#a2daf8;stop-opacity:1"/><stop id="stop950" offset="1" style="stop-color:#ffcd00;stop-opacity:1"/></linearGradient><linearGradient id="linearGradient968" x1=".3" x2=".7" y1="0" y2="0" gradientTransform="matrix(-.10913 11.89622 -8.67677 -.07959 418.465 140.902)" gradientUnits="userSpaceOnUse" spreadMethod="pad"><stop id="stop970" offset="0" style="stop-color:#a2daf8;stop-opacity:1"/><stop id="stop972" offset="1" style="stop-color:#ffcd00;stop-opacity:1"/></linearGradient><linearGradient id="linearGradient990" x1=".02" x2=".98" y1="0" y2="0" gradientTransform="matrix(1.11577 -13.51781 9.8591 .81378 314.596 234.699)" gradientUnits="userSpaceOnUse" spreadMethod="pad"><stop id="stop992" offset="0" style="stop-color:#a7497f;stop-opacity:1"/><stop id="stop994" offset="1" style="stop-color:#ffd14a;stop-opacity:1"/></linearGradient><linearGradient id="linearGradient1012" x1="0" x2="1" y1="0" y2="0" gradientTransform="matrix(0 11.81764 -8.57027 0 331.913 222.992)" gradientUnits="userSpaceOnUse" spreadMethod="pad"><stop id="stop1014" offset="0" style="stop-color:#a7497f;stop-opacity:1"/><stop id="stop1016" offset="1" style="stop-color:#ffd14a;stop-opacity:1"/></linearGradient><path id="B" d="M100.3-65.5h594.1v594.1H100.3Z"/></defs><path id="path1" fill="#fff" d="M.32.48h800v320H.32Z" style="fill:none"/><style id="style1" type="text/css">.st0{fill-rule:evenodd;clip-rule:evenodd;fill:#e3131e}.st1{display:none;fill:#858b95;enable-background:new}.st2{font-family:&quot;DBSansAlternate-BoldItalic&quot;}.st3{font-size:73.0039px}.st4{enable-background:new}.st5{fill:#858b95}.st6{display:none}.st7,.st8{display:inline}.st8{fill:#858b95}.st9{font-size:54.841px}.st10{display:inline;enable-background:new}</style><g id="g10" style="stroke-width:2.34381" transform="matrix(.53332 0 0 -.53332 -114.711 701.631)"><text id="text7754" style="stroke-width:2.34381" transform="matrix(1 0 0 -1 211.672 764.07)"><tspan id="tspan7756" x="0 25.690001 48.474998 60.759998" y="0" style="font-variant:normal;font-size:35px;font-family:&quot;Gen.Swis721&quot;;-inkscape-font-specification:&quot;Gen.Swis721-BT&quot;;writing-mode:lr-tb;fill:#fff;fill-opacity:1;fill-rule:nonzero;stroke:none;stroke-width:2.34381">Roth</tspan></text><g id="g7834" style="stroke-width:2.34381" transform="matrix(8 0 0 8 515.059 818.762)"><path id="path7836" d="m0 0-.006-.085v-1.666l.037-.606.076-.644.076-.606.075-.606.152-.53.152-.53.151-.455.227-.379.228-.302.302-.341.417-.266.454-.227.455-.189.416-.152.418-.113.264-.076.152-.038.114-.038.151-.037H4.5l.227-.038.228-.038h.189L5.333-8h.152l1.401.038 1.44.303 1.439.492 1.439.644 1.477.871 1.439.947 1.402 1.022 1.401 1.137 1.363 1.211 1.288 1.174.165.161h-2.892l-.758-.577-.833-.568-.795-.569-.833-.529-.833-.569-.833-.492-.531-.265-.492-.265-.568-.265-.606-.228-.606-.227-.606-.227-.644-.189-.644-.152-.644-.113-.606-.076h-.568l-.53.038-.492.076-.455.151-.416.189-.379.303-.379.531-.303.605-.189.644-.114.72-.038.757.038.72.029.577H0" style="fill:#fbc707;fill-opacity:1;fill-rule:nonzero;stroke:none;stroke-width:2.34381"/></g><g id="g7838" style="stroke-width:2.34381" transform="matrix(8 0 0 8 532.803 818.762)"><path id="path7840" d="m0 0 .009.18.152.758.114.795.189.72.189.719.228.644.189.568.189.53.227.455.152.416.076.417.075.454.077.455.151.909.113.416.152.417.189.379.303.606.265.606.303.568.266.606.264.606.265.606.266.644.265.606.265.606.265.605.303.606.265.569.303.605.303.607.303.568.303.568.757 1.287.796 1.364.757 1.287.871 1.288.833 1.363.834 1.288.871 1.288.908 1.287 1.819 2.576.947 1.212.984 1.25 1.023 1.212 2.045 2.348 1.061 1.098.946.909.947.871.909.947.947.871.985.833.946.871.947.871.985.909.985.871.947.871.909.871.946.909.985.909 1.818 1.818.871.947.379.341.568.454.757.493.682.568.606.568.341.53.038.492-.417.379-.151.038-.152.076-.151.113-.152.038-.189.038-.152.038-.189-.038-.189-.076-.569-.303-.567-.341-.569-.378-.568-.455-.568-.492-.568-.493-.568-.568-.606-.568-.568-.606-.53-.568-.531-.53-.53-.568-.492-.492-.455-.493-.454-.416-.455-.379-1.136-1.06-1.136-.985-2.197-2.045-1.06-1.099-1.06-1.022-1.023-1.061-1.061-1.098-.984-1.098-.947-1.061-.946-1.098-.985-1.136-.91-1.099-.909-1.136-.871-1.098-.833-1.174-.909-1.136-.795-1.174-1.591-2.348-.757-1.174-.796-1.25-.719-1.174-.72-1.212-.681-1.212-.682-1.25-.72-1.25-.644-1.249-.606-1.288-.606-1.25-.605-1.288-.569-1.325-.227-.53-.265-.569-.265-.568-.303-.605-.265-.569-.303-.644-.265-.605-.266-.606-.265-.606-.265-.568-.227-.606-.189-.568-.19-.568-.151-.569-.152-.492-.075-.492v-.266l.037-.151.038-.151.038-.114.038-.152.038-.151v-.151l-.152-.303-.226-.152-.228-.227-.114-.417-.038-.265-.037-.303-.038-.416L-2.219 0Zm17.52 0 1.085 1.051 1.174 1.174 1.099 1.136L21.9 4.384l.909.947.795.833.682.644.682.682.72.681.643.644.682.72.644.681.643.644.683.682.643.682.644.644.644.719.644.682.644.644.643.681.606.682.682.644.871.909.871.871.871.833.834.833.909.834.871.833.833.795.871.795.909.796.833.795.909.833.871.796.909.833.947.833.909.833.947.909.53.492.53.568.606.569.644.568.644.606.644.644.681.606.72.568.72.53.757.53.757.492.72.417.757.379.758.341.796.227.757.151.037-.378.039-.417-.039-.379v-.378l-.037-.417-.038-.379-.076-.379-.075-.416-.076-.379-.076-.417-.114-.416-.113-.417-.076-.416-.113-.417-.114-.416-.114-.417-.113-.379-.152-.454-.19-.493-.226-.53-.228-.606-.227-.53-.19-.53-.226-.455-.341-.681-.303-.644-.341-.644-.341-.682-.379-.606-.341-.644-.378-.605-.379-.606-.379-.644-.379-.644-.34-.606-.758-1.212-.379-.644-.34-.606-.38-.681-.151-.379-.075-.228-.038-.227-.038-.227-.038-.265-.038-.19-.076-.227-.265-.454-.341-.492-.265-.417-.303-.455-.303-.492-.303-.454-.265-.455-.303-.492-.189-.417-.19-.454-.151-.493-.114-.53-.113-.492-.114-.53-.152-.493-.151-.454-.114-.303-.151-.341-.151-.379-.152-.379-.114-.416-.113-.417v-.454l.038-.379.454-.757.644-.265.795.189.871.454.834.606.795.682.606.606.378.379.569.681 1.136 1.288.568.682.606.606.568.644.568.606.606.606.53.605.568.606 1.705 1.932.53.644.53.682.493.681.151.228.189.303.152.265.151.189.152.189.151.19.114.151.114.114.075.151.114.114.113.151.19.189.53.645.493.681.529.644.493.72.53.681.492.682.531.682.53.644.53.719.531.682.568.644.567.682.569.643.568.644.644.682.606.606.151.151.19.152.189.151.227.152.19.151.227.114.151.113.152.114.114.114.302.265.341.227.19.152-.038-.19-.152-.454-.113-.228-.076-.265-.114-.189-.113-.227-.076-.152-.531-1.136-.302-.53-.342-.531-.34-.529-.341-.531-.341-.492-.378-.492-.53-.872-.531-.833-.53-.871-.53-.833-.53-.871-.569-.909-.53-.833-.568-.871-.53-.871-.531-.909-.529-.871-.531-.871-.53-.871-.493-.872-.567-.909-.531-.871-.227-.341-.189-.34-.228-.379-.227-.379-.227-.379-.228-.378-.227-.417-.226-.379-.228-.378-.19-.417-.227-.379-.189-.378-.19-.417-.189-.379-.152-.416-.151-.379-.113-.417-.152-.416-.076-.341-.038-.379-.076-.378-.037-.379-.038-.417-.076-.454-.038-.303-.075-.303v-.493l.113-.265.19-.113.341-.076h.454l.719.227.91.644.985.871L62.5 4.081l1.212 1.401 1.25 1.515 1.288 1.667 1.363 1.818 1.326 1.78 1.287 1.818 1.25 1.742 1.174 1.666 1.06 1.477.985 1.326.796 1.06.643.833 1.061 1.061.303.227.189.038.038-.152-.114-.34-.302-.531-.417-.719-.265-.493-.265-.454-.265-.492-.265-.493-.228-.492-.227-.455-.265-.454-.227-.455-.455-.757-.492-.682-.454-.682-.455-.643-.455-.682-.454-.682-.492-.719-.455-.72-.341-.53-.378-.53-.379-.568-.341-.569-.341-.605-.34-.606-.304-.569-.341-.53-.189-.303-.189-.303-.152-.303-.19-.303-.15-.303-.152-.341-.151-.302-.152-.379-.189-.455-.152-.454-.151-.455-.114-.416-.076-.454-.076-.455-.075-.492-.076-.531.53-.151.455-.076.492.076.492.189.492.228.455.302.493.379.454.417.568.568.492.606.492.682.91 1.439.416.681.417.72.417.644.378.606.416.606.38.606.378.568.417.568.379.568.417.53.416.568.455.568.416.568.417.531.492.568.417.53.454.568.417.53.455.606.453.568.379.568.417.606.416.606.455.606.454.606.531.606.568.568-.038-.378-.076-.341-.038-.379-.075-.341-.076-.303-.076-.341-.114-.303-.113-.341-.417-.833-.416-.833-.455-.871-.492-.795-.455-.796-.492-.757-.492-.795-.985-1.591-.492-.758-.531-.795-.492-.795-.492-.833-.455-.796-.454-.833-.455-.833-.189-.379-.152-.341-.189-.416-.152-.379-.188-.379-.152-.416-.114-.379-.114-.379-.075-.416-.038-.379v-.265l.113-.227.19-.152.265-.076.378-.037.455.037.114.038.227.114.303.189.265.19.038.037.151.114.19.189.227.228.227.227.227.227.19.265.151.19.834.946.757.947 1.439 1.894.682.984.758.985.681.985.682.947.682.984.681.985.682.947.796.947.719.947.795.984.796.909.833.909.644.606.454.379.341.265.19.114.113-.038.038-.114-.038-.227-.113-.303-.152-.379-.189-.416-.228-.417-.227-.455-.227-.416-.265-.417-.189-.416-.152-.303-.265-.568-.303-.531-.265-.53-.303-.53-.265-.53-.304-.53-.264-.569-.266-.53-.303-.53-.265-.53-.265-.53-.265-.569-.265-.53-.265-.606-.227-.568-.228-.568-.113-.379-.228-.53-.265-.606-.227-.568-.189-.53-.038-.303.152-.038.34.265.227.265.228.265.264.266.228.265.227.302.265.303.228.341.265.303.303.455.265.454.303.493.265.53.227.492.266.493.226.53.228.492.265.53.227.493.455 1.06.265.492.265.493.265.492.265.455.265.416.265.417.265.378.265.379.266.417.264.379.228.416.227.455.189.416.228.493.227.53.228.606.113.606v.606l-.113.568-.304.492-.492.265-.644-.038-.758-.379-.87-.605-.947-.833-.985-1.061-1.022-1.174-1.061-1.25-1.06-1.325-.985-1.326-.947-1.288-.909-1.249-.796-1.099-.681-.946-.53-.758-.379-.53-.303-.417-.265-.341-.606-.681-.341-.341-.303-.341-.303-.341-.379-.303.569 1.023.53.984.53 1.023 1.136 1.969.568.947.568.985.606.985.53.946.569.985.53 1.023.492.984.493.985.454 1.023.455 1.06.416 1.06.114.341.075.379v.341l-.037.303-.114.303-.227.227-.303.189-.379.114h-.682l-.151-.038-.151-.076-.152-.113-.152-.114-.416-.303-.417-.341-.417-.417-.416-.416-.417-.454-.416-.493-.379-.492-.379-.53-.378-.53-.341-.531-.379-.53-.341-.53-.682-.985-.34-.492-.341-.455-.492-.568-.493-.606-.455-.568-.454-.568-.417-.568-.454-.568-.455-.606-.416-.568-.417-.568-.454-.568-.834-1.137-.416-.605-.379-.606-.416-.606-.38-.606-.151-.228-.378-.492-.493-.682-.568-.757-.568-.757-.492-.531-.341-.265-.19.152.038.265.076.303.113.303.152.303.19.303.189.265.189.265.152.227.719 1.25.758 1.25.719 1.287 1.515 2.5 1.591 2.5.795 1.212.796 1.287.757 1.212.795 1.212.796 1.288.758 1.212.719 1.249.72 1.212.719 1.288.227.53.039.417-.076.379-.19.264-.303.152-.341.038-.378-.076-.379-.227-.834-.644-.757-.682-.757-.643-.682-.72-.682-.644-.643-.72-.645-.681-.643-.72-.19-.227-.227-.227-.227-.265-.19-.265-.227-.303-.189-.266-.19-.227-.151-.189-.455-.606-.454-.568-.454-.568-.455-.53-.416-.53-.493-.569-.454-.53-.493-.568-1.136-1.439-.568-.72-.53-.795-.568-.757-.568-.72-.568-.757-.531-.758-.568-.795-.568-.758-.568-.719-.606-.758-.644-.719-.644-.682-.681-.72-.682-.681.075.492.114.492.114.531.189.454.152.454.227.417.189.417.228.454.265.379.227.416.265.417.303.455.265.416.266.417.264.416.266.417.378.644.379.681.379.682.378.72.379.719.417.682.379.72.416.681.416.72.38.72.416.681.379.682.416.682.417.643.416.682.417.644.417.568.454.606.455.606.416.606.455.644.416.644.455.643.416.644.379.644.379.644.379.682.378.719.303.682.265.682.265.681.19.72.076.227.076.189.075.228v.227l-.037.227-.076.19-.152.227-.189.189-.19.114-.226.038h-.266l-.303-.076-.341-.076-.341-.151-.34-.152-.304-.227-.454-.341-.417-.379-.416-.34-.417-.379-.379-.379-.416-.417-.417-.416-.379-.379-.378-.417-.758-.833-.378-.454-.341-.417-.342-.378-.378-.379-.341-.379-1.06-1.136-1.023-1.212-.985-1.174-.984-1.136-.985-1.212-.947-1.212-.909-1.174-.946-1.174-.947-1.212-1.97-2.348-.947-1.174-1.022-1.136-1.061-1.137-1.06-1.098-1.099-1.098-.302-.227-.303-.266-.303-.227-.303-.265-.304-.265-.264-.265-.303-.265-.266-.265.076.492.076.492.114.455.113.492.152.417.151.492.151.417.19.416.19.417.227.417.227.416.189.417.19.416.227.417.227.455.19.416.644 1.212.643 1.212.644 1.25.644 1.212.719 1.174.682 1.212.644 1.249.682 1.174.644 1.212.643 1.25.644 1.25.606 1.212.568 1.288.53 1.249.493 1.288.455 1.326.076.227.075.265.114.303.113.379.114.378.113.417.114.454.114.455.076.454.075.493.038.416v.455l-.038.416-.114.379-.113.341-.189.303-.303.189-.417.114-.492.038h-.947l-.304-.038-.151-.076.114-.038-.871-.303-.871-.378-.871-.455-.834-.492-.833-.568-.833-.644-.871-.644-.795-.644-.796-.682-.795-.681-1.591-1.44-1.515-1.363-.719-.644-.72-.606-.984-.833-.985-.871-.947-.871-.947-.833-.984-.871-.91-.947-.947-.871-.947-.909-.984-.909-.947-.909-.984-.947-.947-.947-1.97-1.893-1.023-.985-.984-.985-.189-.189-.871-.871-.341-.303-.569-.568-.226-.189-.304-.265-.341-.341-.34-.303-.341-.341-.379-.303-.341-.341-.341-.303-.303-.303v-.114l.038-.151.038-.152.038-.075-.644-.417-.605-.53-1.213-1.212-1.136-1.212-.53-.53-.53-.493-.606-.606-.606-.681-.644-.644-.644-.606-1.364-1.288-.757-.643-.72-.682-.719-.606-.758-.606L14.628 0h2.892" style="fill:#fbc707;fill-opacity:1;fill-rule:nonzero;stroke:none;stroke-width:2.34381"/></g><g id="g7842" style="stroke-width:2.34381" transform="matrix(8 0 0 8 1508.195 978.962)"><path id="path7844" d="m0 0-5.34-10.983-.266-.644-.227-.568-.152-.53v-.492l.038-.379.19-.265.341-.19.454-.075.568.075.569.152.492.265.416.379.455.454.379.53.341.568.34.606L4.014 0h6.174L4.772-10.907l-.531-1.061-.605-.984-.606-.909-.645-.834-.681-.719-.72-.644-.719-.568-.758-.492-.757-.417-.796-.379-.871-.303-.833-.227-.833-.189-.871-.152-.909-.038-.947-.038-.833.038-.796.076-.719.114-.644.227-.606.227-.53.303-.455.379-.378.416-.265.493-.19.53-.114.644v.682l.114.795.19.833.341.909.416.985L-6.363 0H0" style="fill:#ed1442;fill-opacity:1;fill-rule:nonzero;stroke:none;stroke-width:2.34381"/></g><g id="g7846" style="stroke-width:2.34381" transform="matrix(8 0 0 8 1715.131 976.538)"><path id="path7848" d="m0 0-2.424-4.848-.455.227-.454.228-.492.151-.568.114-.53.113-.606.076-.644.038H-7.65l-.985-.152-.455-.113-.416-.227-.341-.265-.227-.379-.114-.379.114-.341.265-.227.455-.189.567-.228 1.364-.302.719-.228.682-.265.606-.341.53-.416.379-.568.265-.682v-.833l-.265-1.061-.492-1.212-.493-.871-.53-.795-.568-.758-.644-.644-.643-.567-.758-.493-.719-.454-.72-.379-.757-.303-.758-.265-1.591-.454-.719-.114-.758-.076-.719-.076h-1.591l-.417.038h-.416l-.417.038-.379.038-.379.038-.378.038-1.137.227-.416.076-.379.113-.379.076-.757.227 2.348 4.81.53-.265.568-.265 1.213-.379.643-.114.72-.113.682-.038.719-.038h.53l1.061.152.492.151.493.19.378.227.341.265.228.303.075.416-.113.303-.303.265-.455.19-.606.189-.644.152-.719.189-.682.227-.682.265-.605.379-.569.417-.379.568-.189.682-.038.871.227 1.022.493 1.25.53.909.568.795.606.72.644.606.681.606.72.492.796.417.757.341.795.302.758.228.795.189.833.152.796.113.757.076.72.038h1.363l.72-.038 1.931-.227.644-.114.606-.114L0 0" style="fill:#ed1442;fill-opacity:1;fill-rule:nonzero;stroke:none;stroke-width:2.34381"/></g><g id="g7850" style="stroke-width:2.34381" transform="matrix(8 0 0 8 428.955 976.842)"><path id="path7852" d="M0 0v-4.772l-.984.379-.493.151-.606.114-.53.075-.568.076-.569.038h-1.363l-.416-.075-.38-.076-.378-.114-.265-.227-.19-.265-.075-.379.075-.379.266-.34.378-.228.531-.189.568-.228.643-.151.682-.151.72-.227.719-.266.72-.341.644-.416.568-.568.492-.682.379-.833.265-1.06.076-1.212-.038-.872-.114-.795-.227-.757-.265-.644-.341-.568-.379-.493-.454-.454-.493-.379-.53-.303-.568-.265-1.212-.454-.606-.114-.605-.076-.644-.076h-1.477l-.379.038h-.379l-.379.038-.378.038-.379.038-.379.076-.379.038-.378.113-.379.076-.379.114-.379.075-.378.114-.417.114-.378.113v4.734l.567-.265.644-.265.644-.189.681-.19.683-.113.643-.114.682-.038.644-.038h.454l.909.152.379.151.341.19.227.227.152.265.076.303-.076.417-.265.303-.379.265-.492.189-.606.19-.682.189-.682.189-.719.19-.72.264-.681.417-.72.417-.568.568-.493.682-.379.871-.264 1.022-.076 1.25.038.909.151.795.227.72.303.644.341.568.416.492.493.417.568.341.568.303.606.227.606.189.644.114.682.113.644.076.681.038h1.25l.606-.038.606-.076.606-.038.644-.113.606-.076.606-.114L0 0" style="fill:#17b1ad;fill-opacity:1;fill-rule:nonzero;stroke:none;stroke-width:2.34381"/></g><g id="g7854" style="stroke-width:2.34381" transform="matrix(8 0 0 8 568.939 978.962)"><path id="path7856" d="M0 0v-5.416h-4.999v-13.028h-5.719v13.028h-4.999V0H0" style="fill:#17b1ad;fill-opacity:1;fill-rule:nonzero;stroke:none;stroke-width:2.34381"/></g><g id="g7858" style="stroke-width:2.34381" transform="matrix(8 0 0 8 967.667 978.962)"><path id="path7860" d="M0 0v-5.416h-5.113v-13.028h-5.643v13.028h-4.924V0H0" style="fill:#17b1ad;fill-opacity:1;fill-rule:nonzero;stroke:none;stroke-width:2.34381"/></g><g id="g7862" style="stroke-width:2.34381" transform="matrix(8 0 0 8 628.323 947.146)"><path id="path7864" d="m0 0-1.591-6.022h3.219L.038 0Zm-8.976-14.467 5.151 18.444h7.802l5.302-18.444H3.333l-.947 3.939h-4.734l-1.023-3.939h-5.605" style="fill:#17b1ad;fill-opacity:1;fill-rule:nonzero;stroke:none;stroke-width:2.34381"/></g><g id="g7866" style="stroke-width:2.34381" transform="matrix(8 0 0 8 754.667 944.73)"><path id="path7868" d="M0 0v-9.582h1.439l.72.076.568.227.416.379.303.53.228.644.151.795.038.985.038 1.06-.038 1.136-.075.985-.114.871-.228.682-.341.53-.416.379-.568.227L1.363 0Zm-5.643-14.164V4.279h8.37l.757-.037.758-.039.681-.151.682-.151.644-.266.606-.302.53-.379.492-.492.455-.569.416-.681.342-.758.264-.833.228-.985.151-1.136.114-1.212.038-1.325-.038-1.212-.114-1.174-.189-1.023-.227-.909-.303-.833-.379-.795-.417-.644-.492-.568-.53-.492-.568-.417-.644-.341-.644-.265-.682-.189-.719-.152-.758-.076-.757-.037h-8.067" style="fill:#17b1ad;fill-opacity:1;fill-rule:nonzero;stroke:none;stroke-width:2.34381"/></g><g id="g7870" style="stroke-width:2.34381" transform="matrix(8 0 0 8 1343.979 950.786)"><path id="path7872" d="m0 0-1.705-3.522H.227l.455.076.454.076.455.151.416.265.378.303.342.379.265.492.189.455.076.378-.038.303-.189.266-.227.151-.304.151-.378.038L1.704 0Zm-3.598-7.385-1.856-3.825h1.591l.909.076.53.189.454.189.455.227.379.341.378.417.303.492.19.53.076.455-.076.303-.19.265-.265.152-.379.113-.378.076zm-9.734-7.688 9.09 18.595H6.135l1.023-.038.947-.189.795-.303.644-.454.454-.606.152-.758-.114-1.023-.492-1.173-.492-.909-.569-.796-.606-.757-.681-.568-.72-.531-.757-.416-.871-.341-.872-.303.644-.189.531-.341.454-.455.228-.568.113-.606v-.643l-.152-.72-.265-.682-.454-.833-.455-.757-.492-.644-.492-.568-.531-.493-.568-.416-.568-.341-.643-.303-.606-.227-.607-.19-.643-.151-.644-.114-.644-.076-.606-.037-.681-.076h-10.227" style="fill:#ed1442;fill-opacity:1;fill-rule:nonzero;stroke:none;stroke-width:2.34381"/></g></g></svg>