<svg width="800.085" height="320" xmlns="http://www.w3.org/2000/svg"><path d="M.085 0h800v320h-800z" fill="#fff" style="clip-rule:evenodd;fill-rule:evenodd;stroke-width:.8;stroke-linejoin:round;stroke-miterlimit:2"/><path d="M312.873 148.496c-.706-6.381-4.252-9.293-11.42-9.293-6.112 0-9.91 2.818-9.91 7.323 0 3.76 2.38 6.012 7.25 6.946l10.62 1.97c11.331 2.055 17.443 8.436 17.443 18.208 0 12.291-9.392 20.17-24.26 20.17-15.751 0-24.774-8.072-25.04-22.246h12.57c.796 8.166 4.594 11.648 13.005 11.648 6.466 0 11.066-3.576 11.066-8.544 0-3.94-2.484-6.38-7.263-7.323l-9.636-1.871c-12.312-2.441-17.986-8.081-17.986-18.115 0-11.447 8.68-18.765 22.843-18.765 13.896 0 22.482 7.408 22.825 19.887h-12.107Zm49.394-18.573c12.911 0 20.256 5.824 20.256 15.947 0 5.542-2.471 9.666-8.223 12.86 7.34 2.904 10.45 7.795 10.45 15.863 0 10.975-8.154 17.922-21.07 17.922h-27.793v-62.592Zm-1.782 25.052c6.287 0 9.923-2.625 9.923-7.04 0-5.062-3.285-7.418-10.098-7.418h-12.034v14.458h12.205zm.531 26.936c7.349 0 10.98-2.728 10.98-8.35 0-5.91-3.545-8.552-11.596-8.552h-12.12v16.902Zm59.492-51.988c12.911 0 20.256 5.824 20.256 15.947 0 5.542-2.471 9.666-8.223 12.86 7.34 2.904 10.45 7.795 10.45 15.863 0 10.975-8.15 17.922-21.07 17.922h-28.067v-62.592Zm-1.782 25.052c6.287 0 9.918-2.625 9.918-7.04 0-5.062-3.28-7.418-10.093-7.418h-12.29v14.458h12.46zm.531 26.936c7.345 0 10.98-2.728 10.98-8.35 0-5.91-3.545-8.552-11.605-8.552h-12.376v16.902zm98.744-11.455c-.878 14.359-10.727 23.365-25.506 23.365-16.547 0-27.45-12.848-27.45-32.461 0-19.528 11.177-32.748 27.707-32.748 14.175 0 23.669 8.351 24.718 21.584h-12.218c-1.413-7.13-5.545-10.608-12.406-10.608-9.323 0-15.395 8.437-15.395 21.678 0 13.048 5.987 21.682 15.134 21.682 7.567 0 11.777-3.94 13.113-12.484h12.307zm20.941-29.28v14.732h26.037v10.895h-26.037v25.707h-12.325v-62.587h40.91v11.254h-28.59zm51.56 0v14.732h26.372v10.895h-26.371v25.707h-12.321v-62.587h41.261v11.254zm70.763 0v14.732h26.637v10.895h-26.637v25.707h-12.41v-62.587h41.612v11.254h-29.206zm52.644 0v14.732h26.465v10.895H713.91v25.707h-12.428v-62.587h41.454v11.254zm71.645 7.324c-.711-6.39-4.253-9.293-11.46-9.293-6.107 0-9.922 2.814-9.922 7.323 0 3.756 2.398 6.008 7.271 6.937l10.663 1.97c11.366 2.065 17.481 8.45 17.481 18.218 0 12.29-9.421 20.17-24.332 20.17-15.803 0-24.838-8.072-25.104-22.247h12.59c.793 8.166 4.625 11.648 13.049 11.648 6.492 0 11.104-3.576 11.104-8.543 0-3.94-2.484-6.381-7.271-7.323l-9.679-1.872c-12.346-2.44-18.02-8.08-18.02-18.114 0-11.447 8.685-18.766 22.89-18.766 13.939 0 22.56 7.409 22.91 19.888h-12.162z"/><path d="M0 113.264h253.66v88.23H0Z" fill="#ec0000"/><path d="M150.681 186.15h16.06l-21.614-22.11h26.83v22.11h12.675v-22.11h26.838l-21.626 22.11h16.067l27.524-28.726-27.52-28.82h-16.067l21.626 22.204h-26.833v-22.2h-12.676v22.2h-26.838l21.613-22.2h-16.059l-27.536 28.82 27.536 28.723" fill="#fff"/></svg>