<svg width="800" height="320" xml:space="preserve" xmlns="http://www.w3.org/2000/svg"><path d="M0 0h800v320H0Z" fill="#fff" style="fill:#fff;stroke-width:.8"/><path style="clip-rule:evenodd;fill:#4a4a4a;fill-opacity:1;fill-rule:evenodd;stroke-width:.562518" d="M33.852 161.68c-3.487-5.737-8.212-8.662-14.4-8.662-2.081 0-4.106.394-5.963 1.012-1.856.62-3.487 1.632-4.95 3.094-1.462 1.238-2.475 2.7-3.319 4.5-.844 1.632-1.237 3.488-1.237 5.57 0 1.63.225 2.868.619 4.33.393 1.238 1.237 2.476 2.08 3.488.845 1.013 2.082 2.082 3.488 3.094 1.463 1.013 3.094 1.856 4.95 2.7l4.95 2.25c1.632.844 3.095 1.463 4.332 2.25 1.013.62 2.081 1.463 2.7 2.25.844.62 1.238 1.463 1.463 2.476.394.843.619 1.856.619 2.868 0 1.463-.394 2.7-.844 4.107-.619 1.237-1.463 2.25-2.25 3.319-1.013.843-2.082 1.63-3.488 2.08-1.237.62-2.7.845-4.106.845-1.632 0-3.32-.394-4.725-1.013-1.632-.844-2.87-1.856-3.713-3.094-.619-.843-1.013-1.462-1.238-2.25-.393-.844-.618-1.856-1.012-3.319v-.225l-6.357 1.632v.394c.394 2.25 1.238 4.106 2.25 5.962 1.013 1.632 2.25 3.32 3.713 4.5 1.463 1.238 3.094 2.082 4.95 2.7 1.857.62 3.882 1.013 5.963 1.013 2.475 0 4.725-.394 6.975-1.463 2.081-.843 3.882-1.856 5.57-3.487 1.63-1.631 2.868-3.319 3.712-5.344.843-2.081 1.237-4.331 1.237-6.807 0-1.63-.225-3.318-.619-4.725-.393-1.462-1.237-2.7-2.25-3.881-1.012-1.238-2.25-2.475-3.881-3.488-1.463-1.012-3.319-2.081-5.569-2.869l-5.119-2.25c-2.7-1.237-4.5-2.475-5.738-3.712-1.012-1.238-1.63-2.7-1.63-4.332 0-1.012.224-2.08.618-3.093s1.012-1.857 1.856-2.476c.844-.843 1.632-1.237 2.7-1.63 1.238-.395 2.25-.62 3.488-.62 1.013 0 1.856 0 2.7.225.844.225 1.631.394 2.25 1.013.619.394 1.463 1.012 2.081 1.631.62.844 1.238 1.631 2.082 2.869v.225l5.344-3.488v-.168zm15.47 20.533h21.375v26.325h6.807v-54.676h-6.807v21.994H49.322v-21.994h-6.807v54.733h6.807zm64.97 4.725H97.023l8.663-20.363zm2.475 6.412 6.357 15.245h7.425l-24.694-57.827-25.482 57.827h7.425l6.356-15.245zm24.695-14.4v-18.732h3.319c1.856 0 3.487 0 4.725.394 1.238.225 2.25.619 3.319 1.237a7.884 7.884 0 0 1 2.7 3.094c.844 1.463 1.012 2.87 1.012 4.332 0 3.318-1.012 5.569-2.868 7.2-2.082 1.631-4.95 2.475-8.663 2.475zm8.438 5.344c1.856-.225 3.487-.619 4.95-1.463 1.856-.618 3.319-1.856 4.5-3.094 1.238-1.237 2.081-2.868 2.7-4.5.844-1.856 1.013-3.712 1.013-5.737 0-2.7-.394-5.12-1.632-7.2-1.012-2.25-2.475-4.107-4.331-5.345-1.631-1.012-3.488-1.856-5.569-2.25-2.081-.618-4.5-.843-7.594-.843h-9.056v54.733h6.581v-23.682h1.012l16.257 23.682h8.213zm48.095-2.475h-19.52v20.588h20.758v6.188h-27.339v-54.733h27.339v6.356h-20.757v15.413h19.519zm419.638-20.363c-1.631-2.87-3.713-4.95-5.963-6.357-2.25-1.462-4.95-2.081-8.044-2.081-2.25 0-4.106.225-6.187 1.012-1.857.62-3.32 1.632-4.725 2.87-1.463 1.462-2.476 2.868-3.32 4.5a13.51 13.51 0 0 0-1.237 5.737c0 3.094.844 5.738 2.7 8.044 1.632 2.081 4.5 3.881 8.213 5.738l4.725 2.081c3.319 1.463 5.569 2.869 6.807 4.331a21.64 21.64 0 0 1 1.462 2.25c.226.844.394 1.857.394 2.87v.224c0 1.238-.394 2.7-.844 3.882-.619 1.012-1.238 2.25-2.25 3.094-.844 1.012-1.856 1.63-3.094 2.08-1.237.62-2.475.845-3.881.845-1.631 0-3.319-.225-4.725-1.013-1.238-.619-2.475-1.631-3.488-2.869-.394-.844-.844-1.462-1.013-2.25-.225-.619-.618-1.631-.843-3.094l-.226-.618-6.806 1.856.225.619c1.013 4.5 2.87 8.044 5.738 10.462 2.869 2.476 6.581 3.713 10.913 3.713 2.25 0 4.5-.619 6.806-1.462 2.081-.844 3.882-2.082 5.57-3.488 1.462-1.631 2.7-3.319 3.487-5.344 1.012-2.25 1.462-4.331 1.462-6.806 0-3.488-1.012-6.357-2.869-8.832-1.856-2.25-4.95-4.5-9.281-6.356l-4.95-2.25c-2.7-1.013-4.332-2.25-5.57-3.488-1.012-1.013-1.63-2.475-1.63-3.881 0-1.238.225-2.25.618-3.094.394-1.013 1.013-1.857 1.857-2.475.618-.844 1.462-1.238 2.475-1.632a8.939 8.939 0 0 1 3.319-.618c1.856 0 3.487.393 4.725 1.237 1.237.844 2.475 2.25 3.881 4.331l.226.394 5.568-3.487zm13.388-7.594h-6.807l-.225 35.607c0 2.7.394 5.119.844 6.975.618 1.857 1.462 3.713 2.7 5.344 1.631 2.25 3.881 4.107 6.806 5.344 2.7 1.463 5.738 2.081 8.832 2.081h.394c3.093 0 5.962-.618 8.662-2.08a19.792 19.792 0 0 0 6.976-5.345v-.225c1.237-1.631 2.08-3.487 2.475-5.344.618-2.081 1.012-4.5 1.012-7.425l.226-34.988h-6.976l-.225 33.3c0 2.7-.226 4.726-.394 6.188-.225 1.463-.844 2.7-1.462 3.713-.844 1.631-2.475 3.094-4.332 3.881-2.081 1.013-4.106 1.632-6.187 1.632-2.25 0-4.332-.62-6.357-1.463-1.856-1.013-3.487-2.475-4.331-4.106-.62-1.013-1.013-2.082-1.238-3.32-.225-1.237-.394-3.093-.394-5.343zm44.382 24.694v-18.113h3.488c1.463 0 2.869.225 4.107.394 1.012.225 2.08.619 2.868 1.237 1.238.62 2.082 1.632 2.7 2.87.62 1.462 1.013 2.7 1.013 4.33 0 2.87-1.013 5.12-2.869 6.807-1.856 1.631-4.725 2.475-8.213 2.475zm8.27 5.738c1.63-.225 3.093-.844 4.5-1.463 1.631-.843 3.094-1.856 4.331-3.319 1.238-1.237 2.25-2.868 2.869-4.5.619-1.856 1.012-3.712 1.012-5.737v-.225c0-2.475-.618-4.95-1.63-6.976-1.013-2.25-2.476-4.106-4.332-5.343-1.631-1.013-3.319-1.857-5.344-2.25-2.081-.394-4.5-.844-7.425-.844l-9.282.225-.225 54.283h6.975l.225-23.457h.619l15.638 23.457h8.438zm49.164-22.838c-3.094-5.738-7.82-8.663-13.782-8.663-2.25 0-4.106.394-6.188 1.012-1.856.844-3.487 1.857-4.725 3.094-1.462 1.238-2.7 2.87-3.319 4.5a13.508 13.508 0 0 0-1.237 5.738c0 3.094.843 5.569 2.475 7.82 1.856 2.08 4.5 4.105 8.437 5.737l4.726 2.25c3.318 1.462 5.569 2.869 6.806 4.331.619.619 1.013 1.463 1.463 2.25.225.844.394 1.857.394 2.87 0 1.462-.394 2.7-.844 3.88-.62 1.238-1.238 2.25-2.25 3.32-.844.843-1.857 1.462-3.094 2.08-1.238.394-2.475.844-3.882.844-1.631 0-3.319-.393-4.725-1.237-1.462-.619-2.475-1.631-3.487-2.869-.394-.619-.844-1.463-1.013-2.081-.394-.844-.619-1.857-1.012-3.32v-.618l-6.807 2.081.225.394c.844 4.5 2.87 8.044 5.738 10.463 2.869 2.475 6.582 3.713 10.913 3.713 2.25 0 4.5-.394 6.806-1.238 2.082-.844 3.882-2.081 5.344-3.713 1.632-1.462 2.87-3.318 3.713-5.343 1.012-2.082 1.463-4.332 1.463-6.582 0-3.488-1.013-6.581-2.87-8.831-1.856-2.476-4.95-4.5-9.28-6.357l-4.951-2.25c-2.7-1.237-4.5-2.475-5.569-3.488-1.012-1.237-1.631-2.475-1.631-4.106 0-1.012.225-2.081.619-3.094.393-.844 1.012-1.631 1.856-2.475.619-.619 1.631-1.237 2.475-1.631a8.942 8.942 0 0 1 3.319-.619h.225c1.857 0 3.319.394 4.5 1.238 1.238.843 2.475 2.25 3.713 4.331l.394.619 5.344-3.713zm32.288 20.363h-18.732l-.225 19.744h20.363v6.582h-27.338l.225-54.508h27.17v6.581h-20.139v14.794h18.732v6.807zm31.895 0h-18.732v19.744h20.363v6.582h-27.338l.225-54.508h27.17v6.581h-20.363v14.794h18.731v6.807zm-504.185-75.265h-1.012c-2.869 0-5.569.394-8.213 1.631-2.475 1.013-4.725 2.475-6.806 4.332-2.082 2.08-3.488 4.331-4.5 6.806-1.238 2.7-1.857 5.344-1.857 8.213 0 2.869.619 5.738 1.632 8.213 1.237 2.475 2.7 4.725 4.725 6.806 1.856 1.856 4.106 3.319 6.581 4.331 2.7 1.013 5.344 1.632 8.213 1.632h.844c2.7 0 5.119-.619 7.594-1.632 2.475-1.012 4.725-2.475 6.581-4.33a24.222 24.222 0 0 0 4.5-6.189 26.462 26.462 0 0 0 1.856-7.819v-1.237c0-2.7-.393-5.344-1.462-7.82-1.013-2.474-2.475-4.724-4.331-6.58-1.857-1.857-4.107-3.488-6.582-4.5a16.972 16.972 0 0 0-7.763-1.857z"/><path style="clip-rule:evenodd;fill:#1d1d1b;fill-rule:evenodd;stroke-width:.562518" d="M378.62 174h-3.882v-16.65h3.881v-3.713l32.289-.225c2.7 0 4.95.393 6.806 1.237 2.25.844 4.107 2.25 5.57 4.107 1.462 1.63 2.25 3.487 2.7 5.569.393 1.856.618 3.88.618 6.356v1.238h-4.106v.844h2.081c2.475 0 4.725.393 6.975 1.012s4.106 1.631 5.963 2.869c1.856 1.462 3.319 3.093 4.331 5.119 1.013 2.08 1.463 4.33 1.463 6.975v17.494l-4.107.225v3.713h-17.494v-17.495c0-.393-.225-.618-.394-.843-.225-.225-.618-.225-1.012-.225h-45.677v-15.02h4.107V174zM352.687 172.987h2.082c2.25 0 4.725.225 6.806.844 2.25.844 4.332 1.856 6.188 3.094 1.856 1.462 3.094 3.094 4.106 4.95 1.238 2.081 1.631 4.5 1.631 6.975v17.663h-4.106v3.713l-17.663.225v-17.663c0-.225 0-.394-.226-.619-.393-.225-.618-.394-1.237-.394h-45.451v-15.019h3.881v-2.7h-3.881v-16.65h4.106v-3.713h32.064c2.7 0 5.118.225 6.975 1.012 2.25.844 4.106 2.25 5.569 4.107 1.237 1.631 2.25 3.487 2.7 5.737.393 1.632.618 3.713.618 6.188v1.238h-4.106v.225c-.057.168-.057.562-.057.787M512.723 191.72v14.625h-4.106v3.88h-61.314v-15.243h4.106v-3.488h-4.106V176.25h4.106v-3.713l14.175-.225h-18.113v-15.019h3.882v-3.881h49.164v15.244h-3.882v3.713h-3.318v15.413h-3.882v3.318h20.982v-14.4h4.106v-2.869h-3.88v-16.65h4.105v-3.713h31.895c2.87 0 5.12.394 6.975 1.013 2.25.843 4.107 2.25 5.738 4.106 1.238 1.631 2.081 3.713 2.7 5.738.394 1.856.394 3.88.394 6.581v1.013h-4.106c.225.224.225.618.225.843h1.856c2.475 0 4.726.394 6.807 1.013 2.475.619 4.331 1.631 6.188 2.869 1.856 1.462 3.318 3.094 4.33 4.95 1.014 2.25 1.463 4.5 1.463 7.2v17.494l-4.106.225v3.713h-17.663l.225-17.494v-.225c0-.225-.225-.394-.393-.62-.226-.224-.62-.224-1.013-.224h-43.538z"/><path style="clip-rule:evenodd;fill:#1d1d1b;fill-rule:evenodd" transform="matrix(.56252 0 0 .56252 -5.805 100.366)" d="M513.7 93.6h27.4l-.3 94.7-7 .4v6.6H506l.4-94.7h7.3z"/><path style="clip-rule:evenodd;fill:#1d1d1b;fill-rule:evenodd;stroke-width:.562518" d="M212.395 191.888h-3.88v-15.02h4.105v-2.7h-4.106l.225-16.65h3.881v-3.713l32.289-.225c2.7 0 4.95.394 6.806 1.238 2.25.844 4.107 2.25 5.738 4.106a13.157 13.157 0 0 1 2.475 5.57c.394 1.856.619 3.88.619 6.356v1.237h-4.107c0 .394.225.62.225.844h1.857c2.25 0 4.725.394 6.975 1.013 2.25.843 4.106 1.856 5.963 3.093 1.856 1.463 3.318 3.094 4.331 5.12 1.012 2.08 1.462 4.33 1.631 6.806v.225c0 3.094-.844 5.737-2.081 8.213-1.238 2.475-3.094 4.33-5.344 5.962-1.631 2.25-3.881 3.882-6.581 5.12-2.87 1.237-5.963 1.855-9.45 1.855h-45.677l.225-16.031h3.881z"/><path style="clip-rule:evenodd;fill:#9a00d2;fill-rule:evenodd;stroke-width:.562518" d="M4.039 122.586h259.602l-.225 1.462c-.394 2.475-.225 4.95 0 7.425l.225.957H4.039ZM798.651 122.586H320.399l.225 1.237c.618 2.7.618 5.344.225 7.82l-.225.843H798.65ZM561.663 206.12l.225-17.045v-.225c0-.393-.226-.843-.619-1.012-.225-.225-.844-.225-1.238-.225h-45.226v-14.4l45.677-.226c2.25 0 4.5.394 6.806 1.013 2.25.619 4.332 1.631 5.963 2.869 1.856 1.462 3.094 3.094 4.106 4.95 1.013 2.081 1.632 4.331 1.632 6.975l-.226 17.27h-17.1zM514.974 153.637h31.67c2.7 0 4.95.393 6.974 1.237 2.082.844 3.882 2.082 5.344 4.107 1.238 1.462 2.25 3.318 2.7 5.344.394 1.63.62 3.88.62 6.356v.844h-14.176v-.225c0-.619-.226-1.013-.394-1.238-.225-.225-.619-.225-1.238-.225H515.03v-16.2zM425.927 206.12v-17.045c0-.619-.226-.844-.619-1.012-.225-.225-.619-.394-1.237-.394h-45.227v-14.4h45.677c2.475 0 4.725.224 6.806.843 2.25.844 4.332 1.632 5.963 3.094 1.856 1.238 3.319 2.869 4.106 4.725 1.013 2.082 1.632 4.5 1.632 6.976v17.213zM379.013 153.862h31.895c2.7 0 4.95.393 6.806 1.012 2.082.844 3.882 2.25 5.344 4.107 1.238 1.63 2.25 3.487 2.7 5.568.394 1.632.619 3.713.619 6.188v1.013h-14.232v-.225c0-.619-.225-1.013-.393-1.238-.226-.225-.62-.394-1.238-.394h-31.445v-16.031zM356.006 206.288l.226-17.1v-.225c0-.394-.226-.844-.62-1.013-.393-.225-.843-.225-1.237-.225H309.15V173.1h45.62c2.25 0 4.5.394 6.806 1.012 2.25.62 4.107 1.632 5.963 2.87 1.631 1.462 3.094 3.093 4.107 4.95 1.012 2.08 1.63 4.33 1.63 6.975l-.224 17.269h-17.045zM309.092 153.862h31.895c2.7 0 4.95.393 6.975 1.012 2.081.844 3.882 2.25 5.344 4.107 1.238 1.63 2.081 3.487 2.7 5.568.394 1.632.619 3.713.619 6.188v1.013h-14.4v-.225c0-.619 0-1.013-.225-1.238-.225-.225-.62-.394-1.238-.394h-31.67z"/><path style="clip-rule:evenodd;fill:#9a00d2;fill-rule:evenodd" transform="matrix(.56252 0 0 .56252 -5.805 100.366)" d="M921.1 161.6V188H813.2v-26z"/><path style="clip-rule:evenodd;fill:#9a00d2;fill-rule:evenodd;stroke-width:.562518" d="M451.634 172.762h41.57v14.625h-41.57z"/><path style="clip-rule:evenodd;fill:#9a00d2;fill-rule:evenodd" transform="matrix(.56252 0 0 .56252 -5.805 100.366)" d="M899.5 94.7V121h-86.3V95.1zM540.8 94.3l-.4 93.7h-26.3l.4-93.7z"/><path style="clip-rule:evenodd;fill:#9a00d2;fill-rule:evenodd;stroke-width:.562518" d="m212.62 206.288.225-15.413 45.227-.225c.393 0 1.012 0 1.237-.393.394-.225.62-.62.62-1.013 0-.619-.226-.844-.62-1.237-.394-.225-.844-.225-1.462-.225h-45.058v-14.626h45.677c2.25 0 4.5.394 6.806 1.238 2.25.618 4.106 1.631 5.963 2.869 1.856 1.462 3.094 3.093 4.106 4.95 1.013 2.081 1.631 4.331 1.631 6.806v.225c0 2.475-.393 4.95-1.462 6.975-.844 2.082-2.081 3.882-3.882 5.344-1.63 1.463-3.712 2.7-5.962 3.488-2.25.844-4.95 1.237-7.82 1.237zM212.845 154.03h31.895c2.7 0 5.12.394 6.975 1.013 2.082.844 3.882 2.25 5.344 4.106 1.238 1.463 2.082 3.32 2.7 5.57.394 1.63.62 3.712.62 6.187v.844l-14.176.225v-.225c0-.62-.225-1.238-.394-1.463-.225-.225-.619-.225-1.238-.225h-31.67V154.03z"/></svg>