<svg xmlns="http://www.w3.org/2000/svg" viewBox="0 0 800 320"><path d="M0 0h800v320H0Z" fill="#fff" style="stroke-width:.8"/><g transform="matrix(1.2208 0 0 1.2208 -45.633 28.463)"><defs><path id="a" d="M590.865 14.657s21.267-3.444 49.253-3.444c25.321 0 49.293 3.444 49.293 3.444s0 66.746-48.978 88.983c-49.716-22.237-49.568-88.983-49.568-88.983Z"/></defs><use href="#a" fill="#fff"/><clipPath id="b"><use href="#a"/></clipPath><g fill="none" stroke="#b5152b" stroke-miterlimit="3.864"><path clip-path="url(#b)" stroke-width="19.299" d="M594.742 48.475h91.751m-46.355-37.262v92.342"/><use href="#a" stroke-width="4.839"/></g><g fill="#9d9d9c"><path d="M51.146 209.841h2.048v-21.609h-2.048zm56.727 0-3.169-21.609h-2.817l-5.378 15.654-1.152 3.842h-.064c-.224-1.121-.672-2.529-1.216-4.129l-5.25-15.367h-2.689l-3.009 21.609h2.145l1.633-13.799.576-5.666h.032c.224 1.217.833 2.85 1.345 4.387l5.154 15.078h2.465l5.442-16.07 1.024-3.395h.064l.672 5.475 2.017 13.99z"/><path d="M182.741 203.501c0-2.305-1.345-4.578-4.738-5.057v-.033c2.529-.703 4.226-2.785 4.226-5.186 0-3.074-2.113-5.059-6.819-5.059l-5.73.064v21.609l4.962.096c6.915.002 8.099-4.225 8.099-6.434zm-2.625-9.923c0 2.721-2.177 4.291-6.21 4.291-.864 0-1.473 0-2.177-.033v-7.971l3.297-.064c4.066-.001 5.09 1.601 5.09 3.777zm.512 10.021c0 2.656-1.697 4.674-5.794 4.674-1.473 0-2.465-.098-3.105-.193v-8.611c.576-.031 1.76-.031 2.177-.031 3.745-.001 6.722.895 6.722 4.161zm45.459 6.242-6.754-8.035-1.953-2.242c4.13-.063 7.363-2.145 7.363-6.113 0-3.968-3.073-5.314-6.979-5.314l-4.834.096v21.609h2.049v-10.213h.096l8.291 10.213h2.721zm-3.489-16.039c0 2.496-2.017 4.258-5.538 4.258-1.025 0-1.697-.031-2.081-.064v-8.131l2.209-.096c3.458 0 5.41 1.023 5.41 4.033z" fill-rule="evenodd"/><path d="M257.752 189.896h8.612v-1.664h-10.66v21.609h10.66v-1.697h-8.612v-8.643h8.196v-1.632h-8.196zm39.12 19.945h2.049v-21.609h-2.049zm44.243-6.146c0-6.756-10.276-4.867-10.276-10.084 0-2.369 1.792-3.938 5.09-3.938 1.281 0 2.689.223 3.906.607l.128-1.92c-1.249-.225-2.497-.385-3.874-.385-4.61 0-7.331 2.496-7.331 5.857 0 6.723 10.244 4.803 10.244 10.148 0 3.137-2.497 4.322-5.41 4.322-1.504 0-3.137-.352-4.417-.801l-.128 2.049c1.184.354 2.721.545 4.354.545 4.768.002 7.714-2.623 7.714-6.4zm45.557-14.822a19.206 19.206 0 0 0-5.827-.896c-7.074 0-11.364 4.93-11.364 11.461 0 6.754 4.29 10.66 10.629 10.66 2.177 0 4.77-.385 6.946-1.186v-9.859h-2.049v8.611a14.59 14.59 0 0 1-4.578.705c-5.186 0-8.771-3.297-8.771-9.285 0-6.402 4.29-9.41 8.932-9.41 1.889 0 3.906.416 5.763 1.152z"/><path fill-rule="evenodd" d="m433.178 209.841-8.1-21.609h-2.208l-8.132 21.609h2.145l2.018-5.506h9.956l1.952 5.506zm-4.929-7.172h-8.771l3.394-9.219.992-3.041h.031l.961 3.104z"/><path d="M476.81 201.677v-13.445h-2.017v13.637c0 4.834-2.081 6.564-6.211 6.564-4.93 0-6.018-2.723-6.018-5.924v-14.277h-2.05v14.502c0 3.617 1.217 7.363 7.876 7.363 5.603 0 8.42-2.945 8.42-8.42z"/></g><g fill="#010100"><path d="M98.326 75.747V55.144H38.392v3.313c3.458 1.729 7.06 3.17 10.95 4.178v82.266c-4.034 1.008-7.492 2.305-10.95 4.033v3.459h34.29v-3.459c-4.034-1.873-7.636-3.025-11.67-4.033v-39.044H83.92c.864 3.603 2.737 6.915 4.466 10.085h3.602V90.154h-3.602c-1.585 2.737-3.314 6.339-4.466 10.085H61.011V60.907h28.382c.72 4.899 2.593 9.941 4.754 14.84zm63.236 5.618c-2.881-1.152-6.771-1.873-10.661-1.873-9.077 0-14.696 8.068-18.297 19.306l-.432-.144c.864-5.763 1.296-12.967 1.296-18.297-7.348-.144-16.568.576-22.331 1.585V85.4c3.458.432 7.492 1.441 10.805 2.449v57.34c-3.89.865-7.348 2.018-10.805 3.746v3.459h33.425v-3.459c-3.746-1.584-6.916-2.736-11.094-3.746v-28.957c0-12.823 6.195-25.79 14.984-25.79 4.466 0 8.068 1.297 11.382 3.026z"/><path d="M227.675 109.027c0-17.721-8.788-29.39-28.238-29.39-20.314 0-30.832 15.56-30.832 36.738 0 24.492 11.238 37.172 31.408 37.172 10.518 0 20.314-4.322 27.662-10.373l-2.017-4.178c-5.187 3.744-13.687 5.906-20.891 5.906-14.983 0-23.772-9.365-23.772-28.814v-2.162h46.536c0-1.298.144-2.882.144-4.899zm-12.678-.576h-33.713c1.009-13.111 6.916-23.052 17.433-23.052 10.804 0 16.28 9.941 16.28 23.052zm49.859-48.12c0-4.034-3.458-7.204-7.492-7.204s-7.492 3.169-7.492 7.204 3.458 7.348 7.492 7.348 7.492-3.314 7.492-7.348zm8.356 92.063v-3.459c-3.458-1.584-6.483-2.736-10.662-3.746V80.357c-7.204-.144-16.568.576-22.331 1.585V85.4c3.458.576 7.492 1.441 10.805 2.449v57.34c-3.89.865-7.348 2.018-10.805 3.746v3.459zm80.075-39.045c0-20.025-9.653-33.856-27.519-33.856-11.094 0-20.458 7.78-23.916 16.424l-.288-.144c.432-2.738.72-6.483.72-10.085V46.355c-7.204-.144-16.568.576-22.332 1.585v3.458c3.458.577 7.492 1.441 10.806 2.449v96.098c7.204 2.016 15.56 3.313 24.636 3.313 20.892-.001 37.893-12.823 37.893-39.909zm-12.103 3.026c0 20.459-8.5 31.121-22.908 31.121-6.627 0-11.958-1.441-15.992-4.178v-30.832c0-13.688 8.5-24.637 18.874-24.637 12.967 0 20.026 11.526 20.026 28.526z" fill-rule="evenodd"/><path d="M444.21 150.808v-3.457c-4.034-.576-7.636-1.586-10.661-2.449V80.357c-7.203-.144-16.28.576-22.043 1.585V85.4a85.912 85.912 0 0 1 10.518 2.449v32.993c0 11.525-7.204 25.068-20.459 25.068-12.246 0-15.704-11.381-15.704-27.949 0-10.806.433-26.222 1.009-37.604-7.204-.144-16.568.576-22.332 1.585V85.4c3.458.576 7.348 1.441 10.662 2.449-.433 7.636-.721 23.485-.721 33.713 0 21.322 7.204 32.129 22.619 32.129 12.679 0 22.044-7.492 25.501-16.568l.289.143c-.577 3.459-.721 10.373-.721 15.561 8.212.288 16.281-.867 22.043-2.019zm60.783-69.443c-2.882-1.152-6.771-1.873-10.662-1.873-9.076 0-14.695 8.068-18.297 19.306l-.432-.144c.863-5.763 1.296-12.967 1.296-18.297-7.348-.144-16.568.576-22.331 1.585V85.4c3.457.432 7.492 1.441 10.805 2.449v57.34c-3.89.865-7.348 2.018-10.805 3.746v3.459h33.425v-3.459c-3.746-1.584-6.916-2.736-11.094-3.746v-28.957c0-12.823 6.195-25.79 14.983-25.79 4.467 0 8.068 1.297 11.383 3.026z"/><path fill-rule="evenodd" d="M578.31 162.478c0-9.797-7.492-18.441-24.061-19.16l-14.12-.578c-9.508-.432-12.822-2.736-12.822-6.338 0-2.738 1.729-4.756 4.322-7.061 2.306.721 5.764 1.152 8.356 1.152 17.721 0 30.399-8.787 30.399-27.373 0-6.339-3.89-14.408-8.788-17.289l14.407 1.585v-6.627h-23.772c-2.305-.576-5.331-1.152-8.645-1.152-17.864 0-29.247 10.949-29.247 27.806 0 9.653 5.619 17.145 12.103 20.17-5.187 3.314-9.221 8.213-9.221 13.398 0 5.185 2.737 8.645 8.788 10.373-8.212 3.746-15.848 10.518-15.848 19.018 0 11.814 11.382 18.299 30.399 18.299 20.316 0 37.75-11.67 37.75-26.223zm-19.883-56.332c0 10.949-4.322 18.441-14.983 18.441-9.941 0-17.146-7.203-17.146-20.603 0-10.806 4.179-18.297 14.984-18.297 9.941.001 17.145 7.06 17.145 20.459zm8.357 59.502c0 10.518-9.221 16.281-22.476 16.281-13.831 0-23.052-5.908-23.052-14.695 0-6.195 4.467-11.527 11.525-14.553 1.297.145 3.17.145 4.611.145l13.398.576c10.951.431 15.994 5.33 15.994 12.246z"/></g></g></svg>