<svg xmlns="http://www.w3.org/2000/svg" viewBox="0 0 800 320"><path d="M0 0h800v320H0Z" fill="#fff" style="stroke-width:.8"/><path d="M7.073 208.843c10.418 8.076 23.37 11.577 36.323 11.577 19.603 0 31.229-10.152 31.229-24.887 0-38.825-70.436-16.071-70.436-64.379 0-22.754 18.553-38.157 44.457-38.157 20.654 0 35.097 9.802 40.257 12.876l-7.001 11.629c-4.103-2.542-16.103-11.124-32.465-11.124-17.593 0-27.553 7.974-27.553 22.299 0 33.633 70.648 13.68 70.648 64.76 0 23.482-20.783 40.285-49.837 40.285-21.004 0-36.08-7.922-42.357-12.251zm143.79-114.248v136.844h-28.646V94.595Zm33.606 136.844V94.595h30.756l24.903 51.241c6.442 13.201 11.356 26.955 16.404 41.325 0 0-2.608-33.546-2.608-55.565V94.595h26.227v136.844h-28.82l-23.604-52.508c-6.56-13.8-13.37-29.864-18.532-44.773 0 0 1.502 35.356 1.502 59.254l.7 38.023zm223.688-8.156c-8.051 4.838-22.932 10.088-37.806 10.088-17.423 0-58.81-7.001-58.81-69.179 0-44.94 22.753-69.795 56.009-69.795 23.803 0 35.006 11.552 37.456 13.652l-7.35 9.801c-7.353-5.6-18.015-10.502-29.406-10.502-32.905 0-39.207 31.156-39.207 55.66 0 45.507 18.203 56.709 42.708 56.709 9.273 0 17.88-3.252 21.004-4.901v-41.308h-26.954l-3.5-13.778h45.857zm90.393-55.558h-46.012v49.333h58.849v14.38h-75.964V94.595h74.413l-2.1 14.38H452.53v44.544h46.012zm35.646 63.714V94.595h17.433l36.109 67.67c8.433 15.644 17.002 33.672 22.754 48.003 0 0-1.702-38.899-1.702-60.836l-.4-54.837h15.753v136.844h-16.428l-36.48-68.828c-7.992-14.881-16.453-30.634-22.487-46.18 0 0 1.883 35.226 1.883 59.825l.318 55.183zm197.24-138.791c-37.603 0-68.086 30.483-68.086 68.087 0 37.603 30.483 68.086 68.087 68.086 37.603 0 68.086-30.483 68.086-68.086 0-37.604-30.483-68.087-68.087-68.087zm57.509 85.355c-28.355 3.851-38.99.448-49.271-2.863-6.764-2.178-13.754-4.428-25.04-4.428-14.216 0-29.405 4.694-39.434 7.799l-1.022.315q-.325-1.05-.616-2.1a61.03 61.03 0 0 0 8.3-3.178c6.612-3.15 10.15-6.529 10.833-10.369 2.335-13.274 8.314-22.502 17.773-27.434 11.674-6.084 25.845-4.11 35.356-.283 1.35 12.154 7.81 20.832 19.229 25.81 8.131 3.546 17.478 4.68 26.156 5.072a59.835 59.835 0 0 1-2.265 11.661zm-57.509-77.304a60.035 60.035 0 0 1 59.984 57.6c-7.86-.351-16.198-1.373-23.15-4.405-9.294-4.054-14.072-11.044-14.61-21.374l-.123-2.419-2.199-1.022c-11.618-5.408-29.433-8.37-44.59-.469-8.109 4.226-18.505 13.415-21.978 33.15-.154.509-1.652 2.332-6.672 4.664a53.297 53.297 0 0 1-6.154 2.38 60.05 60.05 0 0 1 59.492-68.104zm0 120.07a60.035 60.035 0 0 1-54.311-34.427l.451-.14c9.578-2.962 24.06-7.44 37.058-7.44 10.022 0 16.103 1.965 22.572 4.044 7.35 2.366 15.368 4.95 29.633 4.95a162.459 162.459 0 0 0 18.82-1.218 60.045 60.045 0 0 1-54.221 34.233z" fill="#294189" style="stroke-width:1.00392"/></svg>