<svg viewBox="0 0 800 320" version="1.1" id="svg2" xml:space="preserve" xmlns="http://www.w3.org/2000/svg"><defs id="defs1"><path id="SVGID_00000162329239644862310090000004140755303673011123_" d="M165.92 68.4c0 7.41 6.04 13.42 13.48 13.42 7.45 0 13.49-6.01 13.49-13.42s-6.04-13.42-13.49-13.42c-7.44 0-13.48 6-13.48 13.42"/><path id="SVGID_1_" d="M97.97 68.4c0 7.41 6.04 13.42 13.49 13.42s13.48-6.01 13.48-13.42-6.04-13.42-13.48-13.42c-7.45 0-13.49 6-13.49 13.42"/><path id="SVGID_00000044898771460269573090000010456118392746125217_" d="M120.62 68.4c0 7.41 6.04 13.42 13.49 13.42s13.49-6.01 13.49-13.42-6.04-13.42-13.49-13.42-13.49 6-13.49 13.42"/><path id="SVGID_00000127743730624216497450000002043249572621365943_" d="M143.27 68.4c0 7.41 6.04 13.42 13.48 13.42 7.45 0 13.48-6.01 13.48-13.42s-6.04-13.42-13.48-13.42-13.48 6-13.48 13.42"/><path id="B" d="M100.3-65.5h594.1v594.1H100.3z"/><path id="SVGID_00000079476757253046130470000001117058738893821098_" d="M188.57 68.4c0 7.41 6.04 13.42 13.49 13.42s13.49-6.01 13.49-13.42-6.04-13.42-13.49-13.42-13.49 6-13.49 13.42"/><path id="SVGID_00000132771776994441339210000010272632559138794632_" d="M211.22 68.4c0 7.41 6.04 13.42 13.49 13.42s13.48-6.01 13.48-13.42-6.04-13.42-13.48-13.42c-7.45 0-13.49 6-13.49 13.42"/><clipPath id="A"><use href="#B" id="use1"/></clipPath><clipPath id="clipPath6935"><path d="M549.227 732.295c-1.846-1.623-2.791-4.136-2.791-6.064v-8.709c0-1.684-.798-2.611-2.16-2.611-1.363 0-2.146.872-2.146 2.683v8.549c.21 3.412-2.252 8.278-8.329 8.278-7.689 0-8.539-7.051-8.539-8.286v-8.784c0-1.307-.385-2.481-2.063-2.481-1.401 0-2.104 1.421-2.104 2.519v8.949s.455 3.093-2.184 5.732c-2.638 2.638-6.146 2.269-6.146 2.269l-23.181-.004c-4.451-.001-7.423-2.486-7.423-7.008 0-1.157.411-4.411 4.453-6.847 4.041-2.437 4.701-3.627 4.661-4.329-.041-.702-.933-1.357-2.434-1.357h-10.597c-1.341 0-4.046.035-5.322 1.152-1.276 1.116-1.858 3.007-1.858 3.007l5.859.003c1.079 0 2.556.99 2.556 2.762 0 1.773-1.62 2.724-2.68 2.724h-5.858c.578 1.155 1.025 2.185 2.383 3.095 1.315.884 3.06.897 4.423.902l1.65.004v5.937l-3.258-.045c-7.382-.1-11.96-6.019-11.96-12.739 0-6.721 4.438-12.582 12.001-12.582h13.69c6.18 0 8.17 3.465 8.17 7.342s-3.34 6.106-5.445 7.631c-2.104 1.527-3.932 2.267-3.959 3.673-.016.866.977.739 1.773.739l11.794.004v-19.306h6.312v19.346l4.333-.004c.67-.001 1.156-.328 1.608-.779.451-.452.411-1.294.411-1.817v-9.198c0-5.954 4.701-7.793 8.291-7.793 5.47 0 8.456 4.243 8.456 8.204v9.087c0 1.558 1.155 2.276 2.101 2.214 1.405-.091 2.245-.536 2.245-2.514v-8.661c0-3.634 2.584-8.291 8.11-8.291 5.527 0 8.621 3.979 8.621 8.369v8.71c0 .729.117 1.275.737 1.906.689.702 1.572.567 1.572.567v6.061s-3.277-.013-5.773-2.209" id="path6937"/></clipPath><clipPath id="clipPath16"><path d="M-9-9h1209v1702H-9V-9z" id="path18"/></clipPath><style type="text/css" id="style1-4"></style></defs><path d="M0 0h800v320H0z" fill="#fff" id="path1" style="fill:none"/><g id="g64" transform="matrix(4.51568 0 0 4.51568 160.039 -.01)" style="stroke-width:2.05158"><path d="M101.409 30.112c-1.947 0-2.835 1.635-3.87 3.534l-2.912 5.326h3.783l2.31-4.53h.046l.609 4.53h3.74l-1.034-5.326c-.361-1.899-.676-3.534-2.672-3.534M77.362 36.8c-1.487-.446-2.394-.759-2.256-1.511.176-.962 1.206-1.398 2.089-1.398.761 0 1.278.2 1.781.394.421.162.819.317 1.299.317 1.005 0 1.911-.816 2.108-1.897a1.46 1.46 0 0 0-.327-1.25c-.906-1.086-3.298-1.324-4.143-1.324-3.045 0-6.475 1.895-7.136 5.52-.294 1.604.175 2.624.983 3.321h9.568c-.913-1.25-2.596-1.76-3.966-2.172m16.534-3.083c1.235 0 1.95-.893 2.11-1.778.022-.114.03-.227.03-.34 0-.374-.115-.722-.335-.987-.195-.233-.564-.513-1.208-.513h-8.881c-1.16 0-1.953.917-2.11 1.777-.098.532 0 1.011.281 1.346.27.324.696.495 1.233.495h2.42c-.032.175-.513 2.76-.968 5.255h3.974c.417-2.28.867-4.702.969-5.255h2.485m-23.861-3.603H30.998a4.441 4.441 0 0 0-4.43 4.429 4.44 4.44 0 0 0 4.43 4.428h36.79l2.247-8.857z" id="path53812" style="fill:#00844a;fill-opacity:1;fill-rule:nonzero;stroke:none;stroke-width:2.05158"/><path d="M101.609 40.718H97.52l.889-1.746h-3.782l-2.625 4.8c-.747 1.37-.92 1.892-1.022 2.469-.168.963.489 1.588 1.597 1.588 1.272 0 1.827-.818 2.378-1.898l.773-1.607h6.396l.229 1.607c.17 1.08.435 1.898 1.71 1.898 1.105 0 1.986-.625 2.155-1.588.102-.577.092-1.099-.174-2.469l-.93-4.8h-3.74zm-26.519-.262c1.689.493 2.714.845 2.539 1.805-.21 1.15-1.255 1.892-2.661 1.892-.818 0-1.52-.256-2.198-.505-.585-.215-1.135-.417-1.689-.417-1.02 0-1.901.767-2.093 1.825-.098.528.022.998.355 1.398 1.158 1.39 4.53 1.462 5.193 1.462 3.665 0 6.758-2.372 7.354-5.64.27-1.484-.001-2.534-.561-3.304H71.76c.886.767 2.181 1.146 3.33 1.484m10.133 5.32a2.56 2.56 0 0 0-.045.463c0 .415.116.77.342 1.042.3.36.764.55 1.345.55 1.19 0 2.1-.783 2.32-1.993 0 0 .667-3.634 1.257-6.865h-3.974l-1.245 6.802m-17.436-6.803h-15.87L37.911 6.206S35.702 0 30.112 0c-5.588 0-7.803 6.205-7.803 6.205L.28 64.882a4.443 4.443 0 0 0 2.591 5.704 4.443 4.443 0 0 0 5.702-2.59L30.109 10.63s12.3 28.651 13.667 31.897c1.37 3.248 4.669 5.304 8.044 5.304h13.722z" id="path53808" style="fill:#de0019;fill-opacity:1;fill-rule:nonzero;stroke:none;stroke-width:2.05158"/><path d="M104.567 68.584c0 .202 0 .263-.113.325-.3.163-.82.287-1.315.287-1.437 0-1.95-1.209-1.95-2.814 0-1.47.537-2.71 1.966-2.71.746 0 1.347.363 1.347.472l-.04.1-.122.217-.105.109c-.081 0-.415-.38-1.064-.38-.892 0-1.25.806-1.25 2.115 0 1.434.349 2.372 1.234 2.372.374 0 .592-.078.746-.148v-1.627h-.649l-.097-.092v-.319l.097-.092h1.218l.097.092zm-8.391-1.969c.446-.14 1.07-.573 1.07-1.426 0-1.371-1.022-1.41-1.647-1.41h-1.258l-.098.093v5.123l.098.092h.47l.097-.092V66.67h.585l1.339 2.464.122.062.51-.093.092-.054-.034-.085-1.346-2.349zm-1.268-.449v-1.845h.626c.463 0 1.048.024 1.048.884 0 .829-.545.961-1.145.961zm-5.064 1.496c0 .93-.543 1.533-1.785 1.533-1.226 0-1.681-.596-1.681-1.533v-3.79l.099-.094h.47l.097.094v3.775c0 .633.26 1.03 1.023 1.03.746 0 1.112-.327 1.112-1.03v-3.775l.096-.094h.472l.097.094v3.79zm-10.226.883v-1.907h.747c.559 0 1.095.21 1.095.961 0 .769-.526.947-1.055.947zm-.569-4.767-.096.094v5.122l.096.094h1.185c.65 0 1.104-.04 1.421-.295.195-.163.537-.526.537-1.17 0-.945-.585-1.201-1-1.318.268-.13.805-.448.805-1.262 0-1.203-1.007-1.265-1.615-1.265h-1.333zm.569 2.343v-1.8h.747c.478 0 .9.102.9.79 0 .907-.601 1.01-1.07 1.01zm-5.13 2.874-.097.092h-.455l-.129-.076-1.867-3.829a2.83 2.83 0 0 1-.219-.674l-.016.015c.065.294.081.52.081.69v3.782l-.097.092h-.422l-.098-.092v-5.123l.098-.094h.552l.12.07 1.795 3.613c.097.192.12.364.195.595l.017-.014c-.026-.164-.074-.334-.074-.474v-3.696l.096-.094h.423l.097.094v5.123zm-7.287-.016-.114.109h-2.5l-.096-.093v-5.122l.096-.094h2.525l.105.046-.025.102-.114.326-.12.068h-1.802v1.72h1.59l.106.102v.34l-.106.102h-1.59v1.96h1.947l.098.085v.349zm-8.523 0-.113.109h-.454l-.099-.093v-5.122l.099-.094h2.524l.106.055-.027.093-.112.326-.041.052-.08.017h-1.803v1.72h1.592l.105.1v.34l-.105.103h-1.592zm-6.476 0-.114.109h-.455l-.098-.093v-5.122l.098-.094h2.525l.105.055-.024.093-.114.326-.04.052-.082.017h-1.801v1.72h1.59l.106.1v.34l-.106.103h-1.59v2.394zm-6.356-5.115-.12-.086h-.48l-.121.086-1.624 5.044-.04.134.113.045h.503l.147-.085.413-1.495h1.664l.454 1.495.147.085h.503l.114-.045-.04-.134zm.301 3.1h-1.356l.495-1.712a9.89 9.89 0 0 0 .171-.736h.017c.04.216.12.496.187.736l.486 1.712zm-9.455-.365v2.395l-.098.093h-.47l-.099-.093v-5.122l.1-.094h.47l.097.094v2.185h2.085v-2.185l.098-.094h.47l.098.094v5.122l-.098.093h-.47l-.098-.093V66.6zm-4.676 1.89.049.11c0 .125-.584.597-1.299.597-1.38 0-1.866-1.209-1.866-2.814 0-1.47.397-2.71 1.811-2.71.714 0 1.297.472 1.297.595l-.048.11-.17.208-.082.061c-.057 0-.51-.456-.982-.456-.876 0-1.095.797-1.095 2.116 0 1.433.325 2.371 1.152 2.371.47 0 .925-.457.982-.457l.08.061.17.209zm-7.134-4.051-.089.1-.113-.038c-.154-.077-.569-.271-1.032-.271-.486 0-.86.24-.86.759 0 .813 1.063.962 1.713 1.473.439.34.657.704.657 1.217 0 .945-.73 1.518-1.72 1.518-.755 0-1.356-.335-1.477-.388l-.065-.085.032-.093.105-.255.09-.102.114.04c.161.07.658.325 1.225.325.609 0 .966-.365.966-.883 0-1.286-2.37-1.094-2.37-2.697 0-.89.772-1.387 1.615-1.387.65 0 1.17.28 1.283.333l.065.085-.033.092-.106.257zm-8.1-.574-.122-.086h-.478l-.122.086-1.624 5.044-.039.134.113.045h.504l.146-.085.414-1.495h1.663l.454 1.495.146.085h.504l.114-.045-.04-.134-1.633-5.044zm.302 3.1h-1.357l.495-1.712c.058-.209.14-.55.17-.736h.018c.04.216.121.496.185.736z" id="path53864" style="fill:#191919;fill-opacity:1;fill-rule:nonzero;stroke:none;stroke-width:2.05158"/><path d="M104.548 60.067c0 .14-.024.163-.161.163h-2.672c-.136 0-.17-.023-.17-.163v-4.981c0-.141.034-.164.17-.164h2.663c.162 0 .204.015.204.085l-.025.109-.154.519c-.033.116-.121.125-.186.125h-1.575v1.277h1.38c.145 0 .17.024.17.163v.512c0 .139-.033.163-.17.163h-1.38v1.518h1.736c.146 0 .17.024.17.163zm-11.33 0c0 .14-.033.163-.17.163h-.755c-.138 0-.17-.023-.17-.163v-4.981c0-.141.032-.164.17-.164h.755c.137 0 .17.023.17.164v2.169h.017l1.785-2.364.139-.1.146.061.551.264.107.094-.058.123-1.729 2.177 1.907 2.262.057.124-.105.094-.65.31-.145.06-.139-.1-1.866-2.37h-.016v2.177zm-9.398-2.03h.389l1.096 2.085c.082.146.147.239.187.239l.113-.015.683-.186.162-.093-.065-.146-1.211-2.07c.301-.146.926-.434.926-1.433 0-1.457-1.266-1.496-1.891-1.496h-1.315c-.137 0-.17.023-.17.164v4.981c0 .14.033.163.17.163h.755c.138 0 .171-.023.171-.163zm0-.814v-1.488h.3c.422 0 .885.025.885.698 0 .713-.446.79-.973.79zm-6.858 2.844c0 .14-.025.163-.163.163h-2.67c-.137 0-.171-.023-.171-.163v-4.981c0-.141.034-.164.171-.164h2.662c.163 0 .203.015.203.085l-.025.109-.153.519c-.033.116-.122.125-.187.125h-1.575v1.277h1.38c.147 0 .172.024.172.163v.512c0 .139-.034.163-.172.163h-1.38v1.518h1.737c.146 0 .17.024.17.163zm-9.682-5.06c.03-.155.08-.155.12-.155l.122.015.609.117.155.077-.04.171-1.185 4.928c-.034.109-.058.14-.18.14h-.698c-.146 0-.153-.024-.178-.14l-.535-2.603c-.073-.348-.147-.83-.187-1.341h-.016a8.565 8.565 0 0 1-.204 1.341l-.657 2.603c-.033.116-.033.14-.178.14h-.699c-.12 0-.153-.031-.178-.14l-1.055-4.936-.033-.17.154-.078.634-.109.121-.015c.041 0 .09 0 .121.155l.488 2.51c.082.427.146 1.072.178 1.465h.017a12.92 12.92 0 0 1 .26-1.465l.576-2.363c.041-.162.049-.232.244-.232h.551c.131 0 .139.07.179.232l.577 2.363c.096.397.178 1.024.227 1.465h.016c.032-.393.105-1.038.186-1.465l.488-2.51zm-11.363 5.06c0 .14-.034.163-.171.163h-.755c-.138 0-.17-.023-.17-.163v-4.215h-1.064c-.113 0-.138-.024-.138-.132v-.665c0-.11.025-.133.138-.133h3.345c.161 0 .202.015.202.085l-.025.109-.17.612c-.032.124-.12.124-.186.124h-1.006zm-10.95-5.145c-.147 0-.18.023-.18.163v4.982c0 .132.033.163.172.163H46.2c1.445 0 2.386-.458 2.386-2.681 0-2.147-.811-2.627-2.362-2.627zm.916 4.472v-3.635h.292c.91 0 1.259.387 1.259 1.775 0 1.48-.341 1.86-1.259 1.86zm-9.771-.583h1.396l.356 1.257c.041.138.058.162.139.162h.91l.161-.062-.032-.123-1.59-4.999c-.033-.092-.049-.123-.172-.123h-.843c-.138 0-.147.013-.18.116l-1.598 4.989-.032.132.162.07h.82c.121 0 .138-.023.17-.162zm1.192-.697h-1.07l.356-1.333c.082-.31.155-.76.188-1.085h.016c.04.325.105.784.179 1.085l.331 1.333zm-8.538 1.953c0 .14-.032.163-.17.163h-.755c-.138 0-.17-.023-.17-.163v-4.215h-1.064c-.113 0-.138-.024-.138-.132v-.665c0-.11.025-.133.138-.133h3.345c.161 0 .202.015.202.085l-.025.109-.17.612c-.032.124-.121.124-.186.124h-1.007zM20.99 55.89l-.09.079c-.048 0-.552-.341-1.137-.341-.372 0-.762.138-.762.603 0 .589.95.698 1.664 1.202.415.293.698.705.698 1.293 0 .985-.73 1.635-1.753 1.635-.828 0-1.695-.34-1.695-.465l.04-.123.186-.512.09-.077c.049 0 .649.34 1.347.34.454 0 .73-.231.73-.713 0-.688-.828-.758-1.656-1.24-.43-.247-.706-.557-.706-1.2 0-1.116.844-1.581 1.786-1.581.771 0 1.566.341 1.566.474l-.04.115-.268.511z" id="path53904" style="fill:#191919;fill-opacity:1;fill-rule:nonzero;stroke:none;stroke-width:2.05158"/></g></svg>