<svg xmlns="http://www.w3.org/2000/svg" width="800" height="320" xmlns:v="https://vecta.io/nano"><style><![CDATA[.E{fill:#fff}.F{fill:#0c0c0c}.G{fill:#ff0001}.H{fill:#16832e}]]></style><path d="M0 0h800v320H0z" class="E"/><path d="M269.915 230.372c-3.03-7.626-5.194-14.886-7.126-22.245-4.463-25.441-5.728-51.05-6.527-76.658l-1.199-38.362c-1.199-31.07-3.73-60.041-3.73-91.344L409.045.231l95.306.167c25.175.399 47.02-.167 49.151.066.166.933-.999 32.069-4.462 177.892-1.166 12.52-2.765 25.175-5.795 37.896-13.087 38.862-36.797 66.701-72.129 86.415-19.714 9.49-37.796 14.52-59.441 16.284-12.421 0-24.51-1.165-36.465-3.097l-15.884-4.262-17.449-6.96c-29.038-15.75-57.244-35.465-71.962-74.26z" class="F"/><path d="M381.372 310.46c-18.815-4.096-34.599-10.323-50.717-19.748-.666-.433-17.55-11.522-17.949-14.452 12.188-8.492 36.431-8.225 43.857 5.96 6.394-7.226 26.807-27.639 71.63-17.816 15.45 2.265 24.775 17.383 25.108 17.383 6.627-12.754 22.345-12.92 35.033-10.356 6.627 3.097 7.56 3.097 9.157 4.362-2.197 4.962-19.913 17.116-38.861 25.775-6.56 2.764-12.322 4.962-19.748 6.993-21.245 5.128-35.432 5.86-57.51 1.898z" class="H"/><path d="M307.478 272.33c-5.86-5.86-15.385-16.284-18.648-22.411 3.863-3.796 7.826-3.697 13.42-3.697 6.394-.999 8.06-1.365 9.89-7.892l14.786-.566c0 2.93-4.362 1.931-4.096 5.628 3.264 0 6.793-.866 10.323-1.499 18.149-.932 30.07 7.992 32.768 23.244-3.53 1.998-7.293 4.696-9.757 6.227 0-1.499-6.061-3.264-7.66-3.863-9.923-2.498-16.95-2.53-26.706-1.165-4.93 1.398-10.323 3.896-14.32 5.994zm193.81-.332c-2.098-1.033-7.893-3.796-12.355-5.195-17.45-5.062-24.776.566-36.297 5.727-3.697-2.864-8.626-3.963-7.826-12.52 5.528-14.52 25.441-23.078 39.827-16.884 4.63-.5-.665-4.029-2.331-4.795.1-.333.166-.6.266-.866h13.753c3.464 9.758 8.159 6.894 18.116 7.993 2.097 1.065 3.263 2.364 5.028 3.296.366 4.696-15.319 22.412-18.182 23.244z" class="E"/><path d="M369.417 263.44c-7.293-22.745-29.238-25.775-41.925-22.345 2.097-1.665 3.463-3.297 5.96-4.53-4.595-2.863-29.737-1.098-31.003 3.297 5.462-.999 5.861-.932 7.06-.865 0 5.727-11.821 4.895-15.118 5.228-1.499.833-2.93 1.265-4.363 2.097-1.199-9.057 10.656-22.444 19.481-14.685.1.4.167.766.334 1.199-7.06.333-14.286 4.43-14.286 7.726 8.391-4.862 14.219-6.36 25.008-7.226-1.598-2.198-6.293-2.331-6.293-4.862 8.491 2.497 17.216 4.295 26.474 5.96-5.861-5.195-20.048-22.345-23.178-26.873-1.598-.933-2.697-2.597-4.262-3.53 3.097 0 3.097 0 5.395.567-.6-2.698-1.998-4.296-2.93-6.56-3.464-4.63-5.862-6.228-6.028-6.994-.433 0-.766-.732-1.1-.732.067 3.263 3.43 5.028 3.964 6.693-13.188 5.727-12.621-18.648-18.25-19.814 3.697-6.127 26.807 1.166 23.578 17.383h-1.532c-1.831-3.197-10.49-13.786-13.12-14.286 1.364 3.863 8.757 10.99 12.154 14.686 3.963 5.195 6.693 11.189 9.724 17.45l8.991 10.523h.932c0-.433.066-.866.1-1.266-3.93-7.826-5.395-13.354-5.062-21.346-2.031 0-1.099 1-1.598 2.864-.4 0-.5.6-.833.6-4.262-8.126.167-12.155 2.498-20.414.4-3.862.4-3.862.733-4.262 6.56 5.228 9.157 14.286 7.393 22.845-1.266 1.698-2.098 3.63-4.096 4.262-.666-5.461-1-10.224-1.033-15.218-.333 0-.6-.067-.899-.067.267.433.267.433-.566 8.125 1.033 9.924 2.431 19.88 9.324 27.906.266-.066.6-.166.899-.233-.567-3.097-.567-3.097-.333-5.061 5.694 2.097 35.365 35.964 34.333 39.727-4.33 1.365-5.395 1.865-6.527 2.032zm66.301-1.832c.666-13.087 14.02-21.012 22.778-26.807 4.529-2.93 6.893-8.658 7.493-13.12 1.532.499 1.165 3.196 1.365 4.794 3.963 2.964 8.292-21.145 8.458-22.178.233-3.197.932-12.255-.733-13.953-2.597 2.93 1.765 14.52-2.53 15.452-5.728-9.99-3.697-15.785 1.365-23.943 1.998-2.431 1.998-2.431 2.997-3.03 1.266 8.158 8.392 16.017 3.863 24.375-2.864 0-1.532-6.56-3.363-4.695.766 8.592-.4 14.852-4.263 22.844 0 .4.067.766.067 1.199 6.227 0 14.785-20.846 17.715-25.975 3.63-4.528 11.656-12.154 13.354-17.05-3.03.666-8.924 8.492-9.657 10.823-1.865.333-1.865 3.197-4.262 3.93-1.598-11.49 10.822-22.279 22.111-18.882 0 .233.067.766.1 1.066-5.461 5.96-4.296 12.92-8.991 19.048-2.265 1.166-6.827 2.664-8.492.4 1.598-1.999 3.596-3.364 4.13-5.728-2.432-1.332-9.158 12.088-10.058 13.786 4.263-.999 4.263-.999 5.528-.932-7.792 6.627-18.549 24.543-26.94 30.803 5.46.267 15.018-2.33 20.646-3.763 4.096-1.765 4.096-1.765 5.795-2.097-.766 2.863-6.227 2.264-5.528 4.695 10.057-.566 20.413 4.463 24.176 6.96 0-5.528-11.589-6.027-13.787-8.625 6.227-3.43 16.218-.432 17.617 7.793.233 0 1.066 6.726 1.332 5.195-6.96-1.532-18.749-1.499-18.416-4.729 2.331 0 3.863.1 6.46.333 0-5.794-26.04-4.528-30.403-2.93 1.1.433 8.292 2.164 5.228 3.463-16.65-5.561-35.932 6.627-40.06 23.41-1.233-.1-3.93-1.531-5.096-1.93z" class="H"/><path d="M303.083 173.328c-4.962 0-9.158.233-12.621 3.63.4.399.932.732 2.863 1.098 6.794 5.561 3.03 16.217 11.855 21.745 1.598.1 3.197.267 4.795.4 2.864-.6 2.93-1.2 6.028.6 0 .399 0 .765.066 1.198l-7.892.233c1.998.166 22.611 22.278 24.21 27.44-6.528.333-17.55-2.098-22.778-5.528-1.1 1.665 3.63 5.561 5.028 7.56-.899 0-2.032.399-2.864.432-13.753-13.253-24.176 6.527-24.176 15.851-7.725-12.854-12.954-24.775-17.05-38.695-2.697-13.587-2.697-13.587-3.93-22.078-3.363-49.252-4.595-98.703-6.593-147.688l-.666-28.372 286.318-1.066c-.233 1.066-.399 2.198-.566 3.296l-3.463 167.47c-1.665 17.149-4.596 32.334-10.823 48.885-2.33 4.628-5.96 14.019-10.156 18.282 0-9.89-2.165-14.353-9.824-20.347-5.861-1.665-10.423-2.198-14.186 3.364-.833.1-1.598.166-2.431.333.4-3.097 5.46-5.461 5.128-7.892-1.331-.267-13.62 5.96-22.577 6.294.266-2.265 2.963-4.53 4.628-6.194 3.264-5.228 6.727-10.057 9.99-15.218 1.865-1.499 8.326-4.795 8.326-6.894-3.197-.1-5.128.267-7.226.1 1.665-4.295 4.695-2.764 9.657-2.764 6.294-4.362 6.993-8.658 8.492-15.851 1.431-3.463 5.627-6.027 5.361-7.46-7.06-3.196-10.49-3.296-17.55-.898-8.391 5.028-14.186 10.49-9.89 21.512-.832 3.763-5.461 10.656-5.195 10.99-1.765 2.164-1.765 2.164-4.462 6.393-.833-1.165 1.065-5.528 1.331-6.793 8.459-7.16 4.03-14.186 0-22.412.066-.1.167-.166.233-.233l-.233-.233c-.066.067-.1.167-.166.233-1.499-4.962-1.165-4.429.166-8.89-11.855 3.696-13.92 12.753-13.92 23.942 1.2 4.03 2.198 7.226 6.294 9.59.233 2.198-2.597 8.992-3.762 11.322-2.032-2.664.333-6.36-2.93-7.326 0 .067-3.864 16.717-9.924 19.98-15.685 8.459-21.68 24.277-26.042 26.641-10.856-1.865-11.422-24.11-11.422-32.668-.233-3.63-.166-5.794 0-9.058 9.591.334 8.559 1 25.042.866l.1-14.12c-.833-13.952-3.597-26.207-7.326-39.294-6.061-13.62-11.656-25.209-21.313-36.764-.899-7.959-4.196-27.94 1.665-34.034 2.364-.832 7.293-1.365 7.626 2.365-10.09 7.292-9.49 16.317-8.125 28.072.766 1.532 3.696 8.059 5.628 8.825 2.664-4.53 4.362-10.99 10.855-10.99 1.1 8.925 3.93 11.855 8.892 20.08h1.166l.566-5.794c4.462-6.66 10.49-11.821 15.052-18.549 2.031-7.958-.567-12.42-6.461-15.784v-1c3.296-.232 19.747 3.265 21.012 7.493-1.065.666-1.765.9-2.53 1.499-5.196 2.864-5.062 13.253-4.13 19.248 3.13 7.326 6.194 11.689 16.317 19.814 1.766-.6.766-10.257 1.699-13.121 5.195-10.057 11.821-28.072-4.795-30.137-1.365-1.998-1.365-1.998-1.599-3.13 4.896-.233 9.391-.6 14.72 0 .266 7.326 1.997 13.953 10.056 16.45 7.493.733 14.452.733 22.078-.4 3.264 1.599 3.264 1.599 3.597 1.5 0-8.892-8.559-18.116-14.02-23.677 1.166-.766 1.1-.233 5.362-1.765 7.06-3.264 10.423-5.528 18.215-5.96-.266-1.166-.833-1.7-.999-1.932-6.06-8.925-10.69-11.756-22.111-11.756-8.592 3.297-8.825 8.159-16.65 11.322 2.93-3.862 9.823-11.755 11.488-14.019 14.186 0 12.621-12.754 12.321-23.51.666-5.728 1.932-8.558 4.796-13.52.665-1.265.5-.6.766-1.532-9.99-2.265-19.814 6.627-21.978 8.125-6.628 9.258-11.156 17.65-2.964 28.039-10.224 16.017-29.405 24.51-42.225 23.11-.433-1.498.732-2.597 2.164-3.13-.266-2.33-4.03-4.129-5.395-5.227-8.924 2.097-14.352.999-23.177-1.333a6.19 6.19 0 0 1 .267-.932c7.625-.5 15.384-1.365 23.277-1.066 1.598 5.528 14.386 4.595 18.981 3.296 10.823-7.393 13.187-9.324 15.451-23.01-8.325 2.697-12.02 3.43-20.413 2.031-12.521.833-13.786 3.464-15.052 6.361-.5 1.066-1.165 2.198-2.697 3.63-2.431.266-4.862.6-7.293.932-.166-.233-.333-.4-.5-.5 1.665-2.097 4.03-4.295 3.43-7.06-.566.068-1.032.068-1.532.167-4.695 4.696-15.118 6.227-21.012 7.826a2.323 2.323 0 0 1-.1-.666l7.96-5.228 20.146-8.89c1.532.398 1.532.398 4.262 1.93 15.452 0 20.147-5.727 25.11-19.48.266-2.165 1.83-10.09.232-11.656-9.823 9.757-34.832 4.696-34.832 23.577-1.665.932-8.059 3.264-9.59 2.864-.333-8.825 7.293-10.823 8.059-30.903-.166-.233-.333-.334-.433-.433-1.365.433-1.598 1.532-2.763 2.664-5.628 1.931-11.49 3.13-17.117 4.729-6.794 4.529-11.589 9.224-10.39 18.881-3.463 1.932-6.227 6.693-9.657 8.758-.066-2.364-.666-4.862.266-6.693 9.091-1.831 7.06-15.451 5.628-21.512-1.198-5.794-11.355-21.312-15.218-21.312.333 3.197.5 4.895-.233 8.625-7.06 10.39-13.52 25.541.233 33.167.167 1.931-.166 3.263-.166 6.227-.1.1-.267.233-.4.333l-9.224-8.758c-.1-1.266-.1-1.266.666-4.362-1.1-13.287-16.317-15.785-26.474-17.983-2.43-.899-4.429-3.596-5.894-3.43.233 8.492.833 21.346 8.724 27.107.067 2.83.067 2.83-.399 3.696-3.197 0-5.961-1.165-8.725-1.931-2.164-8.925-4.962-10.524-11.855-15.718-5.794-1-10.922-1.099-16.284-2.764-2.097-1.199-6.56-4.729-8.125-5.228-3.463 14.352 12.355 39.894 29.97 28.871 7.66 2.998 15.186 5.961 23.078 9.657 1.765 1.366 5.228 2.664 6.194 4.862-6.527-1.065-17.783-4.628-22.845-7.459-.266 3.863 3.197 4.096 3.197 7.127l-8.225-.833c-2.164-14.186-19.214-9.091-28.538-9.091-6.827-1.932-8.225-1.932-9.757-1.932-.1.1-.234.333-.334.5 4.795 14.452 5.395 15.018 16.218 21.512 10.057 1.665 13.02.766 20.48-3.464 8.924 0 8.924 0 23.743.866v.999c-5.195 1.265-10.59 2.664-15.552 3.296-7.492-.166-7.226-.732-8.924-1.265-1.032 2.498-3.13 3.63-.733 7.026-6.526 2.265-17.816-1.931-23.676-3.963-5.794-3.263-21.08-9.224-21.845-18.814 1.931 0 3.363-5.129 3.863-6.86 1.698-17.15-13.787-28.073-29.205-28.073-1.099 1.1 3.097 6.96 4.029 8.725l.833 3.863c.6 14.952-2.598 24.276 13.686 26.474 1.366 1.365 11.322 11.689 12.022 13.354-7.459-2.498-7.792-1.166-9.39-6.56-1.166-.267-15.884-12.422-30.903 9.324l6.993.566c6.227 2.431 8.825 5.894 15.45 7.56 0 .499.667.6.667 1.165-7.327 2.364-11.855 15.352-13.42 22.011 1.531-.233 1.531-.233 2.697-.999 14.852-4.196 31.169 2.93 33.534-16.484 4.795-.766 9.09-1.065 14.519-.399 0 1.765.266 1.266-.866 2.597-10.756 3.597-12.021 10.257-9.89 20.68 2.597 4.463 5.061 9.091 6.627 15.052 0 5.395-.4 6.194-.333 7.826 13.12-5.362 19.98-24.377 14.619-37.197-1.665-1.332-4.096-2.764-4.262-4.262 5.56-4.529 13.42-5.695 20.68-6.794.266.5.266.5 0 1.765-7.993 2.265-7.327 14.62-4.63 16.984 2.797 4.795 10.49 9.724 11.589 13.52 2.098 1.698 2.83 6.726 2.697 8.491 5.295-.999 10.057-15.884 10.49-20.08 4.896.333 8.725 6.294 10.59 10.823.233.066.399.1.6.166 4.428-4.73 5.36-10.09 5.694-12.954 1.199-6.993.5-21.68-9.558-23.943 1.333-4.03 4.963-3.53 8.492-2.165 5.295 5.628 3.363 26.541 2.864 33.4-15.785 15.718-35.932 38.363-51.882 52.582 15.717 19.814 45.455 31.236 49.884 32.668-.6 7.792.399 54.146-12.954 46.854-2.797-3.597-6.294-8.992-9.757-13.254-4.196-3.93-27.773-32.335-28.139-32.235-.166 2.032 0 4.795-1.266 6.693-1.065-2.364-4.129-8.391-3.796-10.922 8.658-5.794 6.894-11.156 5.362-20.58-2.531-6.793-5.861-10.69-11.989-13.187-1.365.4-1.365.4-1.665.866 4.73 6.393-4.595 14.619-3.43 23.61.567 2.198 6.96 11.355 5.062 13.253-2.764-3.863-9.324-12.954-9.324-17.45 3.263-14.252-9.19-20.646-16.484-22.244z" class="E"/><path d="M405.316 256.646c-6.028.166-9.058.4-15.285 1 5.794-13.52 4.962-30.638 5.227-44.857 5.861 1.932 12.754 3.597 19.148 4.43.6 14.885-.1 26.473 6.06 40.46-3.43.333-11.488-.8-15.151-1.033z" class="H"/><path d="M347.106 178.723c6.627-6.627 51.749-52.982 57.51-55.912 10.39 8.225 26.807 34.166 29.537 47.786 4.262 14.886 5.961 28.405 6.793 44.356-41.792 3.796-83.784-21.878-93.84-36.231z" class="G"/><path d="M377.842 196.172c-2.264-2.364-2.664-4.262-4.795-8.492-9.49-22.278 6.794-43.757 32.335-42.058 8.459 1.431 10.39 2.863 13.853 5.227 10.59 6.128 18.882 26.541 7.06 42.992-6.36 6.826-20.346 18.914-41.06 8.158-1.165-.966-5.294-3.63-7.393-5.828z" class="F"/><path d="M374.912 187.115c-6.96-17.383 1.432-35.865 21.812-39.362 8.059-.666 11.155-1.265 22.111 5.628 5.029 4.43 8.626 9.924 10.49 16.284 1.432 16.817-3.796 26.141-19.314 32.668-19.08 3.93-30.77-5.228-35.098-15.218z" class="E"/><path d="M381.372 162.006c9.324-13.687 30.17-11.689 38.196-1.831 6.793 8.491 8.824 19.414.833 30.57-6.96 8.225-15.218 10.223-25.509 8.458-6.36-1.932-11.189-5.628-14.219-10.323-4.695-7.293-6.027-17.25.7-26.874z" class="F"/><path d="M393.194 196.672c.766-2.431 2.265-5.795 3.13-8.159 1 .433 2.098.666 3.53.733-.267.865-.166 1.365-1.099 8.758-1.631 0-3.963-.633-5.56-1.332z" class="E"/><path d="M399.987 198.037l1.366-8.558c2.197-.267 4.962-.833 6.893-1.998.066 0 2.83 3.796 5.295 7.16-4.996 2.63-8.159 3.63-13.554 3.396zm-8.558-1.865c-2.43-1.199-8.725-6.46-10.223-9.923l8.491-3.43c1.365 1.998 2.964 3.43 5.528 5.061-.333.067-3.53 8.126-3.796 8.292z" class="G"/><path d="M414.94 193.408l-5.795-6.526c1.365-1 2.098-1.365 3.13-2.864 1.332.999 3.93 3.696 6.36 6.294-1.398 1.066-2.23 2.097-3.696 3.096z" class="E"/><path d="M419.302 188.946l-6.46-5.894c1.098-2.165 1.664-4.696 2.031-6.993l8.625-1.532c.266 4.528-1 11.322-4.196 14.419z" class="G"/><path d="M397.922 187.38c-9.39-3.596-10.689-13.286-5.56-18.88 5.46-5.062 12.087-5.362 18.148.765 2.697 3.763 3.63 11.322-1.532 15.352-1.432 2.43-7.86 3.596-11.056 2.764z" class="E"/><path d="M480.308 184.35c-.066-.1-.1-.166-.167-.233.067-.066.1-.166.167-.233l.233.233c-.066.067-.166.133-.233.234z" class="F"/><path d="M380.44 185.117c-.833-2.165-1.532-3.697-1.665-5.628l9.257-1.699c.267 1.166.833 2.864 1.166 4.03-2.364 1.232-5.328 1.93-8.758 3.296z" class="E"/><path d="M399.088 183.485c-7.493-3.596-6.827-11.023-.733-14.519 6.527-1.199 10.423 1.365 10.49 8.492-1.365 4.362-3.563 6.227-9.757 6.027z" class="F"/><path d="M400.653 181.72c-3.363-1.332-5.727-2.764-4.695-7.626 2.863-4.962 9.39-4.43 10.922 1.332-.766 4.696-1.232 5.628-6.227 6.294zm-21.912-3.763c-.666-3.464.833-11.989 4.096-14.553 1.699 1.499 5.228 4.363 7.06 5.96-1.165 2.965-2.032 3.864-2.032 7.294-2.897.3-6.193.965-9.124 1.299z" class="G"/><path d="M414.872 175.093c-.266-1.365-.865-2.531-1.165-3.93l8.492-2.697c1.032 1.199.932 2.93 1.265 4.795-3.463.5-5.328 1.266-8.592 1.831z" class="E"/><path d="M413.207 169.898c-1.598-2.031-4.129-4.462-6.227-5.694-.066-.067 1.932-5.528 3.097-8.126 3.13 0 10.523 7.16 11.522 11.089-2.797.733-5.494 1.965-8.392 2.73z" class="G"/><path d="M390.497 168.466c-1.333-1.365-5.528-5.028-6.627-6.027.932-1.832 3.296-3.764 3.263-3.464.234-.333 5.861 6.727 6.128 6.894-2.064 1.098-2.064 1.898-2.764 2.597z" class="E"/><path d="M394.06 165.203l-5.461-7.56c4.429-2.597 7.626-3.862 14.02-3.696-.267 2.032-.734 6.693-1.2 9.091-2.83.3-5.095.966-7.36 2.165z" class="G"/><path d="M405.981 163.937c-.999-.4-2.031-.6-3.13-.932l1.199-8.758c1.865.266 3.264.5 5.028 1.165l-3.097 8.525z" class="E"/><path d="M280.405 117.65c.432-10.423 17.482-26.607 28.239-19.548-5.395 3.197-15.518 9.158-18.582 12.754h1.532c9.758-6.394 19.88-13.62 31.47-14.352-.167-.5-.267-.933-.4-1.432-4.096-.5-24.71-7.326-27.706-6.96-.067.267-.1.6-.1.866 1.765 1.198 4.13 1.665 6.56 2.198 0 .266 0 .566.066.898-9.823 9.89-19.248-4.595-28.472-4.928 5.228-12.754 20.647-9.058 23.41-5.728.067.666.9 1.432 1.033 2.165-6.36-.766-8.758-.766-14.852.666-.1.266-.233.6-.266.932 8.591-1.165 17.116-.566 25.175 3.963 1.931.433 3.463 1.199 10.523 3.197-1.365-.067-16.184-14.519-17.216-16.384-1.5-3.862-6.128-8.624-8.326-12.954h-.999c0 2.198 1.332 4.196 2.431 6.693-16.184.267-5.295-19.048-13.687-33.4 10.057-.666 18.216 8.725 22.778 16.384.333 3.796 1.1 7.126.266 11.189-1.498 2.33-1.165 2.43-3.53 2.863-3.53-3.963-6.893-10.256-5.96-15.018-1.432 0-2.264-1.865-2.864-3.097-.333-.1-.599-.166-.865-.266 1.1 3.197 3.43 15.018 9.757 21.312 8.559 15.95 28.972 25.342 47.62 25.375 5.528-3.43.267-3.03 2.198-7.992 13.287 4.761 22.444-2.598 34.832-3.031v-1.199c-13.253-5.528-27.906-4.096-41.593-5.195-4.895-1.365-10.855-4.262-15.285-4.862.666 3.297 14.087 6.993 17.883 7.226v.933c-4.13 1.864-7.56 1.664-11.656 1.664-10.09-2.497-14.086-7.992-17.316-16.483 1.432-.1 1.432-.1 6.627 1.066 3.596-.267 24.376-2.998 25.175 5.227-2.198 2.198-8.059-2.264-8.292 1.166 7.992 1.332 16.184 2.93 24.709 3.463-1.865-3.03-1.499-2.497-3.797-4.862h1.166c7.492 3.297 16.716 4.862 25.108 6.96 1.265 1 1.765 1.499 3.863 2.165-1.998-3.364-13.92-12.022-13.92-12.255-6.727-2.597-12.754-6.793-19.381-8.425-9.99-4.695-21.346-9.058-28.405-17.982-2.93 2.864 11.588 14.12 16.117 14.62.1.398.167.765.334 1.198-16.318.999-20.68-7.226-23.61-22.412l8.724 4.263c8.292 1.098 18.715 1.165 21.48 11.255h-.767c0 2.198-10.69-3.296-12.354-3.93 1.998 4.596 23.41 12.255 29.071 12.922l-.233-6.061h.999c.866 3.097 28.572 28.871 29.304 29.138 2.198-27.74-22.445-27.273-31.735-44.856h-.766c.4 10.257 15.95 16.051 15.95 17.283-1.764-.233-5.694 1.166-7.558.334-8.326-2.532-15.186-14.853-15.452-25.875 4.13 2.198 13.787 2.498 17.55 4.962 5.061 3.197 10.223 7.393 10.223 14.12-1.365.766-8.658-4.362-10.156-4.596.266 2.331 5.727 5.528 7.958 6.694 1.999 1.698 13.853 16.617 16.051 16.617 2.332-11.589.933-27.54 1.432-39.561h-1.165c-.066 2.498-.066 19.048-1.831 22.111-.433 0-.833.067-1.266.067-5.894-5.727-4.43-12.287-2.265-19.08 2.165-4.296 3.963-9.158 5.462-13.754 4.962 2.498 12.52 17.816 11.655 26.108-1.332 3.796-1.765 7.393-5.894 8.125-.567-4.462-1.266-8.758-2.531-12.753-.066-.1-.167-.167-.233-.167s-.1.067-.167.167c.066.066.1.1.167.233-.567 9.39 1.498 20.313 1.698 29.904 8.391-12.255 20.846-22.744 21.18-22.278-5.895 1.665-4.363 2.031-6.66 3.03 0 .233-.234-8.559 10.057-14.187 6.993-1.532 6.993-1.532 11.988-3.096 3.164-1.932 3.164-1.932 4.296-2.098-1.365 11.355-6.227 26.607-20.913 24.776 3.43-5.895 10.057-7.627 14.286-16.284-3.863 0-11.322 8.624-17.383 13.853-11.089 9.657-16.817 24.875-15.119 31.136 4.529-11.422 23.444-18.982 30.137-28.039.167 1.765.666.267.4 4.795 8.991 0 20.18-7.659 28.039-11.988.066-.433.166-.833.266-1.2-4.196.6-9.424 5.629-13.353 5.229 0-9.158 21.944-12.787 30.403-16.883-2.764 11.655-4.13 20.18-17.05 23.243-2.265.666-4.629.1-6.56-.732.166-.433 1.1-.866 1.365-1.266 4.096-2.764 14.852-9.59 15.684-14.685-7.826 8.059-28.305 18.115-31.002 19.148-7.16 3.43-14.686 6.826-21.346 10.922-3.43 2.531-9.39 6.627-8.924 9.89.266 0 .599.067.932.1 7.626-6.293 18.549-5.394 27.473-10.09.433 0 .932.068 1.432.1-1.166 1.533-3.097 2.033-3.097 3.697 6.127 1.5 17.65-.898 24.043-2.796-1.765-1.699-5.695-.1-8.492-.4.733-9.49 21.646-5.727 27.873-6.394 2.33-1.165 2.33-1.165 3.463-1.332-.399 7.959-6.826 12.454-12.354 16.05-5.362 1.2-10.323 2.165-15.218-.1v-.998c6.993-1.699 11.655-3.097 17.55-7.46-.4-.399-.4-.399-2.331-.399-12.022 7.06-25.675 6.527-38.896 6.96-4.262.6-13.02 1.665-15.851 4.462 0 .166.066.333.166.6 1.932.566 4.862.1 7.327.4 9.324 3.13 16.517 5.793 26.707 2.663 2.697 1.598 2.697 1.598 2.93 2.165-1.598.666-3.264 1.265-4.862 1.931.666 5.895 17.116 3.297 21.745 2.597.167-.399 28.14-13.353 33.4-29.637 2.365-5.628 3.297-11.322 5.295-16.784h-.999c-2.43 6.128-4.462 12.588-7.56 18.715-.566-.1-1.098-.166-1.597-.233-7.56-12.021 6.127-30.67 20.146-30.337-.099.334-.166.766-.166 1.166-4.929 4.895-4.295 8.491-4.695 15.285.898 6.793.665 16.017-8.292 16.817.333-2.531 2.697-4.463 2.364-6.693-1.199-.1-1.199-.1-1.699.333-3.463 13.02-24.276 29.138-24.276 29.57 10.69-2.197 18.549-7.658 29.804-8.39l7.127 1.165c.333-.267.599-.5.999-.733-4.962-3.097-12.355-2.165-17.383-1.365.066-.4.066-.766.166-1.166 8.392-7.626 17.817-4.095 24.776 4.096-1.831 3.164-27.106 11.855-28.405 4.795 1.864-.5 5.727-.832 6.56-3.096-9.59 1.864-18.382 6.394-27.872 7.159-.267.233-.567.5-.767.766l.767.766c13.353 1.831 18.981 7.06 30.969 14.353h1.864c-5.56-4.196-12.188-10.49-18.548-12.255.1-.266.233-.6.266-.899 3.697-1.332 14.52-2.364 15.951 2.864 3.63 2.265 12.188 11.822 11.755 16.318-.566 0-1.099.066-1.665.066-16.716 2.265-29.803 1.166-29.304-12.687 2.464 0 3.93 1.598 6.96 1.365-8.125-7.493-20.98-6.56-28.14-5.895-.266 0-1.997-.566-1.93-.333.065.067.099.1.232.166 0 .334.933 1.2.933 1.599 7.393 4.295 6.793 11.422 7.16 19.547.266.067.566.166.832.233.167-3.763.933-7.626-.266-10.923a1.079 1.079 0 0 1 .5-.433c13.42 5.96 2.597 19.081.665 28.473-.1 2.33-.166 4.628-.166 6.96-4.196-1.266-8.758-9.425-10.656-12.788-1.598-5.462-4.13-18.881 4.463-20.047.566 3.464 1.765 23.943 4.262 23.943-.567-1.665-1.699-21.912-2.332-22.777.1-1.765-.666-5.028-3.13-8.126-.066 0-19.98-8.492-26.64-9.657 2.764 7.226 3.463 11.988.566 19.714 0 1.532 0 1.532.4 1.932 1.998-2.032 3.463-7.493 3.596-10.157.4-.1.833-.166 1.265-.267 2.664 7.16 2.598 6.727-.233 14.286-3.296 3.963-7.06 7.393-10.057 11.589-1.165 3.863-1.165 3.863-1.931 5.028-4.529-5.461-5.461-15.518-5.461-22.012 1.831-3.43 3.43-11.022 8.825-10.556l.1 8.758c-.5 1.865-4.263 11.755-3.098 14.852 8.159-16.284 6.227-29.904 1.366-34.333-4.796-2.997-10.09-4.629-15.219-4.43 0 1.599 1.865 3.964 2.598 6.295-.433 3.93-1.532 7.725-2.864 11.655h1.165c1.332-2.331 2.93-6.56 3.464-7.16 9.09 6.994-2.764 19.748-8.891 23.444-1.332 2.864-1.332 3.763-1.765 4.529-5.795-8.459-3.796-15.285-.733-24.277 1.1-1.698 2.331-3.296 4.529-3.596-.533 6.527-7.327 14.62-3.197 21.18a1.03 1.03 0 0 1 .566-.167c-.733-8.059 2.33-12.688 4.696-20.513-1.5-18.715-14.72-11.355-15.852-3.43 0 1.333.4 20.813-1.265 23.577-1.532-1.265-4.862-3.796-6.693-5.561-2.365 2.664-4.696 5.295-6.227 6.56-.433-8.624-.567-17.816-1.332-25.974-5.728-12.787-14.086-5.728-15.352-1.499-3.13 10.556 6.027 18.881 4.363 25.708h.766c.099-.865.898-6.96-.4-8.924-.233-1.532-1.765-5.029-3.63-12.088 7.493 0 9.225 16.717 7.826 22.744-.666 1.332-2.264 6.693-3.762 6.693.5-2.531-6.694-9.824-9.724-11.256-1.266-.6-1.765-3.63-2.364-4.13-2.664-4.861-4.03-8.724.732-13.686h.933c.898 2.098 1.698 4.262 2.597 6.36h1.165c-.433-4.595-2.098-7.392-2.098-11.988.766-2.364 1.532-3.53 2.098-5.395-14.552-1.532-21.412 12.321-18.748 23.577l5.228 14.12c.166-4.73-1.765-8.392-2.93-12.521-.334-3.93-.334-3.93-.167-10.323 8.825 2.032 8.825 10.923 9.724 18.748-.066 1.066-2.664 11.922-5.628 13.92-4.629-11.489-21.146-16.383-13.087-30.236h.932c.6 2.33 1.931 8.658 4.595 9.757-2.331-8.725-2.963-12.954-.333-21.246-2.031.567-2.498.933-3.93 2.098-14.951 5.295-22.178 5.028-25.341 14.286-.833 8.059-.334 16.05-2.165 24.176h1.166c1.265-7.959 1.498-15.785 2.697-23.577 7.326 2.098 7.492 9.99 6.027 16.95l-4.429 9.724h-.833c-1.265 2.198-3.796 5.727-6.193 6.56-.233-2.964-.4-5.96-.567-8.891-2.964-7.127-8.99-18.815-2.764-25.109 1.333-.666 2.165-1.332 3.763-1.332-1.032.932-1.165 9.324.167 10.59.333-.734.333-.734 1.099-8.892 1.365-4.895 2.697-8.758 6.527-11.522v-1c-6.56-.432-13.187.234-19.248 1.5-1.499.599-9.324 3.363-10.59 4.628a23.963 23.963 0 0 0 1.166.766c5.028-1.931 5.028-1.931 5.894-1.831.9 13.32-23.81 11.023-30.702 13.22z" class="H"/><path d="M437.95 105.128c-1.499-3.93-1.266-4.595-4.962-6.827-.567-1.365-1-3.762-1.499-5.061 4.13-.433 12.155 4.196 13.087 8.89-3.23.834-4.695 2-6.627 2.998zm-69.166.034c-.333-.5-2.031-2.331-5.727-3.697-.433-4.462 8.558-9.923 12.188-9.424 1.532 2.597-3.53 8.592-4.295 9.39-.167.6-1.2 3.73-2.165 3.73z" class="E"/><path d="M471.883 100.033c-.1-.067-.166-.1-.233-.166.066-.1.1-.166.233-.233 0 .067.066.1.166.233-.133.067-.166.133-.166.166z" fill="#529855"/><path d="M471.883 99.667c-.1.067-.166.1-.233.233-.034-.233-.034-.233.233-.233z" class="F"/><path d="M493.129 96.737c-.233-.267-.433-.6-.666-.9 3.264-1.332 6.627-2.097 10.323-2.93.1.267.166.5.267.833-1.932 1.565-7.46 2.498-9.924 2.997zm-182.554-.334v-.832l-7.326-1.932v-.732c3.596.233 7.326.932 11.189 2.863l-3.863.633zm100.201-21.245c1.699-6.793 6.727-12.588 12.155-17.15 3.597-.266 6.993-.233 11.023-.999 0 .5-3.696 3.297-3.696 3.796-6.394 2.498-16.717 11.689-19.482 14.353zM373.28 57.675c3.464.067 6.66.4 10.224-.566 5.527 3.762 13.586 12.854 12.92 20.646-1.731.833-21.712-18.715-23.144-20.08z" class="E"/><path d="M403.783 39.726c-.066-.1-.099-.166-.166-.233.066-.1.1-.166.166-.166s.167.067.234.166c-.067.067-.167.133-.234.233z" fill="#529855"/></svg>