<svg xmlns="http://www.w3.org/2000/svg" viewBox="0 0 800.591 320" xmlns:v="https://vecta.io/nano"><defs><clipPath id="A"><path d="M675.15 9.651H828.8v37.45H675.15Z"/></clipPath><clipPath id="B"><path d="M675.165 9.651H828.8v37.45H675.165Z"/></clipPath><clipPath id="C"><path d="M675.15 9.651H828.8v37.45H675.15Z"/></clipPath></defs><path d="M.267 0h800v320h-800Z" fill="#fff"/><g fill="#49493d"><path d="M293.69 216.457V105.544h21.342v92.27h41.403v18.643z"/><g clip-path="url(#C)" transform="matrix(5.211 0 0 -5.211 -3518.279 308.82)"><path d="M763.465 32.908h3.487v-3.449h.059c.178 1.413 1.789 3.802 4.134 3.802.379 0 .789 0 1.198-.116v-3.98c-.352.206-1.052.326-1.755.326-3.196 0-3.196-4.011-3.196-6.192v-5.573h-3.927zm11.555 0h3.491v-3.449h.054c.178 1.413 1.79 3.802 4.136 3.802.38 0 .791 0 1.201-.116v-3.98c-.351.206-1.058.326-1.76.326-3.197 0-3.197-4.011-3.197-6.192v-5.573h-3.925zm11.62-4.188c1.317 1.004 2.988 1.653 4.657 1.653 2.316 0 3.399-.823 3.399-3.273h-2.167c-1.642 0-3.575-.147-5.069-.883s-2.577-2.064-2.577-4.335c0-2.888 2.604-4.51 5.274-4.51 1.786 0 3.75.943 4.658 2.621h.057c.031-.47.031-1.474.177-2.267h3.461l-.178 3.391-.058 3.802v1.946c0 4.481-1.908 6.396-6.508 6.396-1.672 0-3.72-.441-5.246-1.148zm1.993-6.603c0 2.33 2.606 2.625 4.366 2.625h1.697c0-1.178-.174-2.267-.82-3.126-.614-.824-1.553-1.355-2.75-1.355-1.411 0-2.493.561-2.493 1.856m23.121 7.517c-.701.326-1.465.562-2.663.562-2.436 0-3.992-1.947-3.992-4.804 0-2.801 1.318-4.953 4.075-4.953 1.114 0 2.343.412 3.019.705l.175-3.272c-1.144-.354-2.315-.501-3.929-.501-4.953 0-7.443 3.391-7.443 8.02 0 4.393 2.58 7.87 7.298 7.87 1.582 0 2.727-.176 3.808-.499zm-67.074-4.422c0-4.362 2.898-7.841 7.883-7.841 5.011 0 7.912 3.479 7.912 7.841 0 5.012-3.43 8.048-7.912 8.048-4.457 0-7.883-3.037-7.883-8.048m4.104.471c0 2.272 1.228 4.512 3.779 4.512 2.576 0 3.81-2.18 3.81-4.512 0-2.535-.794-5.245-3.81-5.245-2.988 0-3.779 2.741-3.779 5.245m2.669 11.333a1.99 1.99 0 0 0-1.982-1.997 1.992 1.992 0 0 0-1.986 1.997 1.99 1.99 0 0 0 1.986 1.994c1.094 0 1.982-.89 1.982-1.994m2.221 0c0-.53.209-1.038.581-1.413a1.97 1.97 0 0 1 1.403-.584 1.99 1.99 0 0 1 1.981 1.997 1.986 1.986 0 0 1-1.981 1.994 1.989 1.989 0 0 1-1.984-1.994m61.292 1.957h3.932v-8.13h.058c.994 1.475 2.698 2.418 4.745 2.418 3.575 0 5.13-2.535 5.13-5.954v-9.581h-3.928v8.107c0 1.857-.029 4.363-2.549 4.363-2.844 0-3.457-3.096-3.457-5.04v-7.43h-3.932z"/></g></g><g clip-path="url(#B)" transform="matrix(5.211 0 0 -5.211 -3518.279 308.82)"><path d="M722.841 9.645h.747v37.451h-.747z" fill="#49493d"/><path d="M686.144 30.344c-3.49-.853-8.226-3.047-10.962-8.645-.064-.124-.018-.244.062-.297.072-.048.195-.058.304.074l.001.001c2.009 2.65 5.573 5.975 11.15 6.765l.045.006-.014.043a17.92 17.92 0 0 0-.541 2.024l-.007.039z" fill="#d88d00"/></g><g clip-path="url(#A)" transform="matrix(5.211 0 0 -5.211 -3518.279 308.82)"><path d="M680.23 24.012c-.248-.574-.69-1.669-.872-2.588l-.009-.046h1.362l-.005.043c-.073.627-.163 2.013-.131 2.519-.001.093-.044.164-.125.185-.073.019-.163-.009-.221-.114" fill="#d88d00"/><path d="M688.692 39.152l-4.028.92c-.136.037-.207 0-.235-.062s-.015-.157.083-.226l4.714-3.324.018.045c1.054 2.781 4.603 4.052 7.552 3.823.161-.017.24.062.252.148.013.095-.031.178-.155.219-.049.018-5.042 1.786-8.2-1.543" fill="#9e0a1e"/><path d="M690.834 35.948a.926.926 0 0 1 .837-1.004.925.925 0 0 1 .999.842.929.929 0 0 1-.838 1.006.924.924 0 0 1-.998-.844" fill="#49493d"/><path d="M717.825 38.79zm-21.448-7.067c.296.806.511 1.816.511 2.838 0 1.608-.523 3.232-2.061 4.082-.111.062-.213.026-.27-.045-.067-.082-.054-.189.016-.272 1.854-2.071.437-5.54-.529-6.89l-.022-.032 2.993-2.113.022.024c4.527 4.825 14.241 9.069 20.785 9.06.146 0 .215.09.218.188v.008a.22.22 0 0 1-.215.22c-11.15.982-18.647-4.539-21.448-7.067m6.72-3.112a.177.177 0 0 1 .086-.22l5.297-2.925 1.211 1.618-.044.019c-1.419.62-4.871 1.379-6.318 1.624-.139.023-.208-.043-.233-.116m3.051 2.894h-.001c-.117-.008-.189-.081-.197-.158-.017-.153.059-.18.131-.201l5.497-1.542 1.198 1.6-.055.014c-1.761.444-5.339.352-6.573.288m3.357 2.886c-.148-.057-.185-.15-.171-.227.016-.091.098-.147.194-.149l5.299-.074 1.06 1.415-.068.007c-1.816.16-5.002-.487-6.314-.972" fill="#d88d00"/><path d="M701.2 26.192c-.054-.066-.063-.169.023-.261l9.477-9.566 2.985 1.361-12.234 8.501c-.106.068-.197.03-.251-.036m-13.803 9.692c-.496-5.715 1.503-10.174 5.939-13.256 4.182-2.907 9.329-3.749 12.027-3.992h-.002c.107-.014.198.039.222.145.02.096-.022.209-.164.255l-.537.195c-5.861 1.889-15.666 5.052-15.875 15.593l-.001.019-1.6 1.116z" fill="#9e0a1e"/><path d="M687.488 25.76c-.081-.017-.122-.082-.125-.167.015-1.142.765-3.364 1.169-4.194l.01-.022h2.222l-.06.064c-1.21 1.289-2.23 2.704-2.992 4.206-.044.087-.13.133-.223.112m-3.491-.555c-.089-.007-.142-.073-.151-.168-.131-1.309-.091-2.692-.034-3.622l.002-.036h1.666l-1.29 3.68a.183.183 0 0 1-.193.145" fill="#d88d00"/></g></svg>