<svg version="1.1" id="svg56" width="800" height="320" xmlns="http://www.w3.org/2000/svg"><defs id="defs4"><style id="style2">.cls-4{fill:#1a171b}</style></defs><path d="M0 0h800v320H0z" fill="#fff" style="display:inline;stroke-width:.800002" id="path183"/><g id="Wortmarken_NUR_PFADE" transform="translate(-68.383 22.344) scale(5.2547)"><g id="g44"><path class="cls-4" d="M60.36 21.97c.78.42 1.63.67 2.45.67.82 0 1.92-.4 1.92-1.4 0-.82-.73-1.18-1.8-1.6-1.44-.56-2.95-1.16-2.95-3.19 0-2.33 1.75-3.3 3.8-3.3.92 0 1.78.12 2.57.39l-.2 1.78c-.73-.31-1.47-.47-2.2-.47-.81 0-1.71.37-1.71 1.5 0 .82.93 1.13 1.83 1.49 1.46.54 2.91 1.21 2.91 3.22 0 2.01-1.49 3.27-4.08 3.27-1.12 0-1.72-.16-2.76-.42l.2-1.95z" id="path6"/><path class="cls-4" d="M71.77 24.16v-9.12h-3.1v-1.71h8.37v1.71h-3.1v9.12z" id="path8"/><path class="cls-4" d="m85.64 24.16-.93-2.48h-4.39l-.95 2.48h-2.25l4.22-10.82h2.45l4.25 10.82zm-3.1-8.65h-.03l-1.57 4.46h3.16l-1.57-4.46z" id="path10"/><path class="cls-4" d="M89.97 24.16V13.33h2.99c4.08 0 6.22 1.75 6.22 5.41s-2.12 5.41-6.2 5.41h-3.01zm3.4-1.71c1.81 0 3.55-1.36 3.55-3.71 0-2.19-1.57-3.71-3.61-3.71h-1.16v7.41h1.23z" id="path12"/><path class="cls-4" d="M103.48 24.16v-9.12h-3.1v-1.71h8.37v1.71h-3.1v9.12z" id="path14"/><path class="cls-4" d="m120.18 24.16-1.95-8.65h-.03l-1.92 8.65h-2.81l-2.87-10.82h2.28l2.02 8.65h.03l1.84-8.65h2.95l1.91 8.65h.03l2.03-8.65h2.11l-2.82 10.82h-2.79z" id="path16"/><path class="cls-4" d="M127.96 24.16V13.33h6.39v1.71h-4.22v2.67h3.86v1.71h-3.86v3.04h4.25v1.71h-6.42z" id="path18"/><path class="cls-4" d="m142.98 24.16-1.26-3.26c-.31-.82-.53-1.24-1.54-1.24h-.71v4.5h-2.17V13.33h3.4c3.5 0 4.05 1.47 4.05 2.93 0 1.27-.85 2.33-2.23 2.51v.03c.47.03.87.43 1.19 1.23l1.69 4.12h-2.42zm-2.67-6.2c1.86 0 2.17-.79 2.17-1.5 0-.56-.17-1.41-2.08-1.41h-.93v2.91z" id="path20"/><path class="cls-4" d="m153.74 24.16-3.89-5.02h-.03v5.02h-2.17V13.33h2.17v4.65l3.91-4.65h2.67l-4.45 5.1 4.64 5.72h-2.84z" id="path22"/><path class="cls-4" d="M158.51 24.16V13.33h6.39v1.71h-4.22v2.67h3.86v1.71h-3.86v3.04h4.25v1.71h-6.42z" id="path24"/><path class="cls-4" d="M60.1 38.27c.74.31 1.61.53 2.25.53 1.02 0 2.12-.59 2.12-1.77 0-.79-.39-1.32-2.09-2.09-1.4-.64-2.56-1.33-2.56-3.02 0-1.8 1.36-2.95 3.47-2.95.73 0 1.57.12 2.31.39l-.22 1.43c-.84-.34-1.3-.45-2.01-.45-1.21 0-1.91.53-1.91 1.44 0 1.01 1.12 1.41 2.03 1.88 1.18.59 2.62 1.3 2.62 3.29 0 2.09-1.5 3.22-3.94 3.22-.79 0-1.46-.2-2.23-.45l.16-1.44z" id="path26"/><path class="cls-4" d="M71.21 39.98v-9.46h-3.36v-1.36h8.28v1.36h-3.36v9.46h-1.55z" id="path28"/><path class="cls-4" d="M85.38 29.15h1.55v6.37c0 2.9-1.46 4.64-4.2 4.64s-4.2-1.71-4.2-4.64v-6.37h1.55v6.17c0 2.31.84 3.47 2.65 3.47s2.65-1.16 2.65-3.47z" id="path30"/><path class="cls-4" d="M92.7 39.98v-9.46h-3.36v-1.36h8.28v1.36h-3.36v9.46h-1.55z" id="path32"/><path class="cls-4" d="M102.77 39.98v-9.46h-3.36v-1.36h8.28v1.36h-3.36v9.46h-1.55z" id="path34"/><path class="cls-4" d="M116.5 35.32h-2.28v-1.27h3.83v5.63c-.98.34-2.12.48-3.29.48-3.52 0-5.72-2.26-5.72-5.64s2.36-5.55 5.74-5.55c1.08 0 1.94.09 3.16.54l-.12 1.57c-.84-.56-1.75-.74-2.96-.74-2.5 0-4.17 1.8-4.17 4.23 0 2.43 1.78 4.23 4.09 4.23.84 0 1.19-.06 1.72-.19z" id="path36"/><path class="cls-4" d="m129.42 39.98-1.1-2.73h-5.3l-1.1 2.73h-1.63l4.62-10.82h1.63l4.57 10.82zm-3.75-9.36-2.16 5.36h4.31l-2.16-5.36z" id="path38"/><path class="cls-4" d="m139.29 39.98-1.52-3.44c-.53-1.18-.84-1.36-1.78-1.36h-1.1v4.81h-1.55V29.17h2.84c3.01 0 4.01 1.07 4.01 2.93 0 1.24-.87 2.22-2.23 2.47v.03c.51.19.78.5 1.15 1.29l1.95 4.11h-1.77zm-3.05-6.17c1.4 0 2.31-.62 2.31-1.69 0-.99-.76-1.6-2.19-1.6h-1.47v3.29z" id="path40"/><path class="cls-4" d="M145.61 39.98v-9.46h-3.36v-1.36h8.28v1.36h-3.36v9.46h-1.55z" id="path42"/></g></g><g id="Bildmarken" transform="translate(-68.383 22.344) scale(5.2547)"><g id="g53"><path id="polygon47" style="fill:#ffe900" d="M26.65 39.97V26.65l6.66-6.66-6.66-6.66H13.33v13.32z"/><path id="polygon49" style="fill:#00ace9" d="M39.97 26.65v13.32l13.32-13.32V13.33H39.97l-6.66 6.66z"/><path id="polygon51" style="fill:#009b43" d="M26.65 39.98h13.32V26.65l-6.66-6.66-6.66 6.66z"/></g></g></svg>