<svg xmlns="http://www.w3.org/2000/svg" viewBox="0 0 600 240" xmlns:v="https://vecta.io/nano"><path d="M0 0h600v240H0Z" fill="#fff"/><path d="M.14 120.68v54.838h54.33l.508-1.32c1.626-4.215 1.016-9.444-1.523-13.202l-1.472-2.081 2.64-.61c4.113-.914 7.718-3.198 9.343-5.99 3.25-5.586.711-16.147-4.215-17.62-1.523-.458-3.351 1.168-5.33 4.67-3.148 5.535-8.836 13.557-11.882 16.655-6.297 6.448-11.12 6.956-14.776 1.574-1.422-2.132-1.524-2.894-.458-2.894 1.625 0 4.824-2.082 6.703-4.316 1.066-1.27 3.148-4.418 4.57-7.008 3.605-6.245 3.555-7.971-.203-5.179-2.539 1.98-8.734 4.773-11.324 5.128-1.269.152-2.894.051-3.655-.254-1.727-.66-3.453-3.351-3.453-5.382 0-1.371.152-1.523 1.828-1.675.965-.051 2.539-.457 3.402-.914 3.25-1.676 12.084-6.906 11.881-7.109-.1-.101-2.894.152-6.245.61-3.3.405-6.854.608-7.82.405-4.163-.71-6.093-2.944-6.093-7.007 0-2.285 0-2.285 1.32-1.829 1.93.762 8.277.61 12.491-.254 5.84-1.269 5.636-1.726-1.117-2.59-3.859-.456-8.734-2.03-10.358-3.3-2.082-1.624-2.996-3.808-2.64-6.245.557-3.453 1.014-3.808 2.74-2.184 2.133 2.032 6.348 3.453 11.171 3.808 3.605.203 4.164.152 4.164-.558 0-1.015-1.726-1.93-6.245-3.402-6.602-2.132-8.937-4.925-7.972-9.444.863-4.062 1.066-4.164 3.859-1.878 3.046 2.538 5.839 3.96 9.647 4.976 2.741.711 3.758.66 3.758-.203 0-.203-1.879-1.32-4.164-2.489-2.336-1.117-4.976-2.843-5.89-3.808-1.981-2.031-3.2-5.179-2.641-6.702.914-2.539 7.108-4.621 7.108-2.387 0 3.707 7.465 6.906 21.834 9.241 3.504.61 7.058 1.27 7.972 1.575 2.437.76 4.113 2.741 4.773 5.788 1.523 6.905-2.184 12.39-7.668 11.17-1.421-.305-1.523-.457-1.523-2.843 0-2.996-.761-3.555-3.352-2.336-2.59 1.27-4.773 4.57-4.773 7.312 0 2.792.914 4.519 3.605 6.956 1.93 1.778 2.284 1.93 4.468 1.727 1.421-.152 3.352-.915 4.976-1.93 2.691-1.675 3.504-1.777 7.21-.71.762.253 1.118.151.915-.153-.66-1.015.812-4.418 2.843-6.601 1.168-1.27 4.062-3.656 6.449-5.23 4.519-3.047 5.788-4.57 5.484-6.652-.254-1.878-3.3-1.98-5.433-.203-1.473 1.27-1.575 1.27-1.575.355 0-.558.61-1.726 1.32-2.59 1.575-1.929 1.32-1.98-1.168-.254-1.624 1.118-2.335 1.27-4.62 1.118-2.133-.204-2.996-.559-4.063-1.676-1.117-1.168-1.168-1.32-.355-1.015 2.64 1.015 3.656.863 6.602-1.066 2.132-1.422 3.453-1.98 4.874-1.98 1.828 0 1.878 0 .812-.61-.61-.355-2.285-.609-3.758-.66-2.234 0-2.792.203-3.656 1.32-.609.762-1.066 1.676-1.066 2.032 0 1.168-1.371.812-2.488-.61-2.285-2.894-.305-6.854 3.757-7.616 1.32-.254 2.59-1.015 3.808-2.284 1.778-1.879 2.032-1.98 5.128-1.98 2.235 0 4.874.507 8.328 1.573 5.281 1.625 9.901 2.032 11.83 1.016 1.575-.812 1.625-.761 1.625 1.675 0 1.828-.254 2.438-1.32 3.3-1.879 1.473-3.148 1.321-7.921-.71-.863-.355-.863-.254-.101 1.523 1.371 3.352 1.828 7.057 1.218 10.46-.812 4.316 0 7.363 2.438 9.901l1.878 1.879-1.523-.305c-.812-.152-1.93-.457-2.438-.66-.812-.306-.863-.153-.609 1.117.508 2.335 1.421 6.042 1.575 6.194.05.101 1.37-.203 2.944-.711 2.844-.914 2.844-.914 5.281.305 1.32.711 2.539 1.32 2.793 1.421.203.101.355-12.287.355-27.52V65.84H.14Z" fill="#9a161e"/><path d="M375.58 82.647c-5.941 1.727-5.89 10.664.152 12.644 4.671 1.574 9.343-2.335 8.58-7.21-.456-2.793-1.574-4.265-3.909-5.18-2.235-.914-2.59-.914-4.824-.254zm-28.638 36.001v35.544h10.663V83.104h-10.663zm-204.12.203v35.34h11.17v-28.484l5.433.152 5.433.152 7.92 14.065 7.871 14.116h6.5c3.554 0 6.448-.101 6.448-.254 0-.101-3.809-6.906-8.48-15.03-5.788-10.055-8.328-14.929-7.87-15.08 1.98-.66 7.21-4.723 8.834-6.957 2.793-3.707 3.707-6.703 3.656-12.44 0-3.759-.254-5.485-1.117-7.719-2.336-5.839-6.397-9.597-12.796-11.678-2.995-1.015-4.62-1.117-18.127-1.32l-14.877-.203zm29.703-24.22c3.86 2.031 5.84 5.331 5.84 9.698 0 4.874-1.829 8.074-5.738 10.104-2.488 1.27-3.148 1.371-10.613 1.575l-8.022.203V93.158l8.276.203c7.16.152 8.48.305 10.257 1.27zm141.413 1.93v7.362h-8.175l.152 4.164.152 4.215 3.656.152 3.656.152.152 17.366c.152 16.654.203 17.466 1.27 19.396 2.335 4.418 5.23 5.839 11.678 5.788 2.741 0 5.585-.355 7.26-.863l2.793-.914.152-4.418c.05-2.438.05-4.418 0-4.418-.101 0-1.27.355-2.64.76-2.844.864-6.551 1.016-7.922.255-1.778-.965-2.032-3.25-2.032-18.33v-14.623l5.484-.152 5.433-.152.153-4.215.152-4.164H324.14l-.152-7.26-.152-7.211-4.925-.152-4.976-.152zm-97.744 6.499c-8.581 2.183-14.776 8.987-16.757 18.483-1.574 7.311-.558 16.908 2.285 22.545 1.675 3.25 5.839 7.362 9.24 9.037 4.012 2.032 7.922 2.793 12.847 2.438 6.703-.406 11.933-2.996 15.183-7.414 1.726-2.284 3.655-6.499 3.25-6.905-.102-.101-2.285-.355-4.875-.558-3.35-.254-4.67-.203-4.67.254 0 .305-.813 1.472-1.83 2.59-4.01 4.467-11.83 4.67-16.603.508-2.59-2.285-4.265-5.739-4.722-9.852l-.355-2.843h34.173v-3.961c0-4.722-1.422-10.815-3.402-14.42-1.93-3.555-6.55-7.668-10.155-9.038s-10.003-1.777-13.608-.863zm11.373 9.647c2.235 1.472 4.367 5.382 4.925 8.835l.355 2.183h-11.526c-13.15 0-12.339.355-10.46-4.773 1.218-3.25 4.316-6.651 6.702-7.362 2.895-.915 7.769-.355 10.003 1.117zm291.559-9.495c-10.714 2.843-16.96 12.49-17.01 26.098-.101 13.862 5.991 22.748 17.619 25.693 4.215 1.117 10.714.711 14.827-.863 4.113-1.524 8.784-6.145 10.256-10.104l1.066-2.793-2.386-.355c-1.27-.152-3.402-.355-4.671-.355-2.184-.051-2.438.102-3.707 1.98-1.98 2.996-4.773 4.265-9.444 4.265-3.3.051-4.164-.152-6.245-1.421-3.81-2.184-5.485-5.331-6.652-12.39l-.254-1.625h34.478v-3.047c0-7.057-2.692-14.979-6.55-19.346-4.774-5.433-13.609-7.82-21.327-5.738zm10.003 8.58c3.35 1.422 5.636 4.419 6.448 8.378.152.966.457 2.184.558 2.641.254.863-.508.914-11.424.914-6.449 0-11.73-.203-11.73-.406 0-1.472 2.336-6.804 3.656-8.429 2.895-3.554 8.226-4.824 12.49-3.097zm-111.861-8.225c-3.148 1.066-4.367 1.828-6.906 4.265l-2.335 2.234-.305-2.59c-.152-1.42-.457-2.792-.61-3.046-.151-.305-2.589-.508-5.433-.508-4.67 0-5.027.05-4.67.863.253.508.508 11.83.609 25.134l.152 24.272h11.12v-15.894c0-18.229.254-19.904 3.504-23.154 3.656-3.656 10.358-4.062 13.557-.863 2.437 2.438 2.741 4.824 2.741 23.408v16.503h10.714l-.152-20.21c-.153-19.346-.203-20.259-1.219-22.442-2.538-5.383-7.514-8.277-14.42-8.48-2.538-.101-5.179.152-6.347.508zm50.116-.101c-8.834 1.726-14.42 8.174-14.522 16.705-.05 5.128 1.118 8.328 4.113 11.324 1.32 1.32 2.793 2.488 3.301 2.691 1.472.457 1.117.965-1.625 2.235-3.351 1.574-5.128 3.504-5.383 5.89-.305 2.539.61 4.215 2.945 5.534l1.879 1.066-2.793 1.422c-9.8 5.128-9.394 17.06.761 22.138 6.703 3.352 18.635 4.265 27.013 2.032 3.504-.914 7.972-3.555 9.85-5.738 4.316-5.027 4.418-13.202.203-18.28-2.945-3.555-6.956-4.824-19.447-6.195-9.698-1.066-10.917-1.523-10.206-3.807.508-1.575 2.64-2.387 9.24-3.504 7.972-1.32 11.425-2.64 14.168-5.433 4.01-4.011 4.925-11.679 2.081-17.366l-1.32-2.64h10.104v-7.668l-8.988.05c-4.976.052-9.952-.151-11.07-.456-2.386-.61-7.21-.61-10.306 0zm10.105 9.292c5.433 3.656 5.027 12.338-.711 15.385-2.184 1.117-7.668 1.117-9.8 0-6.703-3.504-6.043-13.76 1.066-16.4 2.894-1.016 6.956-.61 9.444 1.015zm3.25 41.434c1.066.305 2.74 1.37 3.655 2.284 3.047 3.047 1.98 7.16-2.437 9.394-2.895 1.523-8.734 2.184-13.608 1.574-6.957-.863-10.714-3.401-10.714-7.16 0-3.046 2.59-5.533 6.855-6.65 2.234-.61 13.862-.204 16.248.558zm95.56-50.066c-3.198 1.32-4.366 2.183-6.499 4.468l-1.37 1.472-.356-2.386c-.558-3.91-.305-3.758-5.941-3.758-5.078 0-5.078 0-4.671 1.117.203.66.457 11.984.558 25.134l.203 24.018h10.561l.203-16.147c.101-10.46.406-16.756.761-17.924.864-2.59 2.64-5.078 4.57-6.347 3.351-2.285 9.546-1.98 12.034.508 2.234 2.235 2.437 4.113 2.64 22.494l.204 17.417h10.663l-.152-19.956c-.152-19.549-.152-19.955-1.32-22.494-2.54-5.636-7.211-8.428-14.574-8.682-3.96-.152-4.976 0-7.514 1.066zm-322.175 18.94c.203 18.736.203 19.244 1.371 22.24 2.539 6.448 8.328 10.054 16.3 10.054 5.332.05 8.683-1.27 11.627-4.468l1.98-2.184.356 1.879c.66 3.808.305 3.605 5.941 3.605 4.67 0 5.027-.051 4.67-.864-.253-.508-.507-11.83-.608-25.185l-.152-24.22h-10.562l-.152 16.603c-.152 12.288-.406 17.112-.863 18.432-1.777 4.671-5.28 7.058-10.206 7.109-3.656 0-5.991-1.27-7.617-4.113l-1.269-2.235-.152-17.923-.152-17.873h-10.663zm118.207 5.991v25.135h10.663v-50.27h-10.663z"/></svg>