<svg version="1.1" id="layer" x="0" y="0" xml:space="preserve" width="800" height="320" xmlns="http://www.w3.org/2000/svg"><style type="text/css" id="style1">.st0{fill:#231815}</style><path d="M0 0h800v320H0Z" fill="#fff" style="stroke-width:1.06667" id="path1-6"/><g id="g12" transform="matrix(1.3306 0 0 1.3306 -33.42 -272.968)"><path class="st0" d="M69.7 318v-30.4c0-8.4.1-9.8 7.3-9.8v-7.1H25.9v7.1c9.6.3 10.4 1.5 10.4 9.8V365c0 8.3-.8 9.5-10.4 9.8v7.1H77v-7.1c-7.2 0-7.3-1.4-7.3-9.8v-36.5h24V365c0 8.3 0 9.7-7.8 9.8v7.1H137v-7.1c-9.6-.3-10-1.4-10-9.8v-77.4c0-8.4.4-9.5 10-9.8v-7.1H85.9v7.1c7.8.1 7.8 1.5 7.8 9.8V318Z" id="path1"/><path class="st0" d="M214.8 270.8v7.1c9.6.3 10 1.4 10 9.8v51.2c0 14.6-.2 21.7-1 27.8-.6 5.9-1.2 7.7-5 7.9l-4 .3v7.1h38.3v-7.1l-7.7-.5c-4-.3-6.1-2.1-7.1-8-.8-5.8-1.1-12.8-1.1-27.5v-41.4h1.1c17.8 28.4 33.4 54.3 51.4 84.5h25.8v-68.1c0-14.6.2-21.7 1-27.8.6-5.9 2.2-7.7 6.1-7.9l3.3-.3v-7.1h-38.7v7.1l7.7.5c4 .3 6.1 2.1 7.1 8 .8 5.8 1.1 12.8 1.1 27.5V338h-1c-15.1-24.2-28.9-45.3-40.8-67.1h-46.5z" id="path2"/><path class="st0" d="M386.3 292.8v13.6c0 3.1.2 3.2 4.9 3.5v1.6h-15.3v-1.6c4.8-.3 4.9-.4 4.9-3.5v-27.8c0-3.1-.1-3.2-4.9-3.5v-1.6h15.3v1.6c-4.8.3-4.9.4-4.9 3.5v12.1h19.2v-12.1c0-3.1-.1-3.2-4.9-3.5v-1.6h15.3v1.6c-4.8.3-4.9.4-4.9 3.5v27.8c0 3.1.2 3.2 4.9 3.5v1.6h-15.3v-1.6c4.8-.3 4.9-.4 4.9-3.5v-13.6z" id="path3"/><path class="st0" d="M434.5 295c1.5 0 1.9-.7 1.9-1.8 0-2.1-.6-7.4-5.7-7.4-5.7 0-6.5 6.9-6.5 9.1h10.3zm-10.4 2.1c-.1 5.7 1.3 12.3 8.1 12.3 4.3 0 6.4-2.6 8-5.8l1.6.9c-1.5 4.3-4.6 7.7-10.7 7.7-9 .1-12.7-5.2-12.7-13.9 0-8.2 4.1-14.3 12.6-14.3 10 0 11.1 7.8 11.1 11 0 1.8-1 2.1-2.2 2.1z" id="path4"/><path class="st0" d="M454.9 275.7c-.1 1.9-1.3 3.3-3.3 3.3-2 0-3.4-1.4-3.4-3.3 0-2 1.4-3.4 3.4-3.4s3.3 1.4 3.3 3.4m-1.1 8.3.4.3v22.5c0 2.8.2 2.9 4.1 3.2v1.6h-13.4V310c3.9-.3 4.1-.4 4.1-3.2v-17.3c0-2-.3-2.3-1.8-2.5l-2.1-.3v-1.4z" id="path5"/><path class="st0" d="M470.8 306.7c0 2.8.2 2.9 4.1 3.2v1.6h-13.4v-1.6c3.9-.3 4.1-.4 4.1-3.2v-30.5c0-2.1-.3-2.4-1.8-2.5l-2.1-.2v-1.4l8.6-1.4.4.3v35.7z" id="path6"/><path class="st0" d="M485.1 302.6c0 1.3.1 2.5.4 3.5 1 2.7 3.1 4.2 6 4.2 5.4 0 7.9-4.4 7.9-12.5 0-9.6-4.8-10.9-7.1-10.9-3.1 0-5.4 1.2-6.7 3.8-.4.9-.6 1.8-.6 3.1v8.8zm-5.1 9.1v-35.5c0-2.1-.3-2.4-1.8-2.5l-2.1-.2v-1.4l8.6-1.4.4.3v16.7c2-1.2 5.3-3.9 9.4-3.9 9.9 0 10.6 10.1 10.6 13.5 0 11.2-6.4 14.7-13.7 14.7-4.1 0-6.4-1-8.3-2.1l-2.2 2.1z" id="path7"/><path class="st0" d="M517.6 288.3c3.6-3.2 5.3-4.4 7.2-4.4 2.1 0 2.9 1.5 2.9 2.7 0 1.7-1.2 3.1-2.5 3.1-.3 0-.7-.1-1.1-.3-1.6-.9-2.5-1.2-3.4-1.2-1.3 0-3.1 1.4-3.1 5.7v12.8c0 2.8.3 2.9 5.2 3.2v1.6h-14.5v-1.6c3.8-.3 4.1-.4 4.1-3.2v-17.3c0-2-.3-2.2-1.8-2.5l-2.1-.3v-1.4l8.3-1.4z" id="path8"/><path class="st0" d="M543.3 310.2c5.1 0 7.5-4.6 7.5-12.2s-2.4-12.2-7.5-12.2c-5 0-7.4 4.6-7.4 12.2s2.4 12.2 7.4 12.2m13.2-12.1c0 8.9-4.3 14.1-13.2 14.1-8.8 0-13.1-5.2-13.1-14.1 0-8.9 4.3-14.1 13.1-14.1 8.9 0 13.2 5.2 13.2 14.1" id="path9"/><path class="st0" d="M586.8 306.7c0 2.8.2 2.9 4.1 3.2v1.6h-13.4v-1.6c4-.3 4.1-.4 4.1-3.2v-13c0-4.8-2-6.9-5.8-6.9-2.9 0-5.4 1.8-6.5 4-.4.9-.5 1.6-.5 3v12.8c0 2.8.2 2.9 4.1 3.2v1.6h-13.4v-1.6c3.9-.3 4.1-.4 4.1-3.2v-17.3c0-2-.3-2.2-1.8-2.5l-2.1-.3v-1.4l8.2-1.4.8 4.2c3.4-2.2 5.9-4.2 10-4.2 5 0 8.1 3.2 8.1 8.7z" id="path10"/><path class="st0" d="M621.8 306.7c0 2.8.2 2.9 4.1 3.2v1.6h-13.4v-1.6c4-.3 4.1-.4 4.1-3.2v-13c0-4.8-2-6.9-5.8-6.9-2.9 0-5.4 1.8-6.5 4-.4.9-.5 1.6-.5 3v12.8c0 2.8.2 2.9 4.1 3.2v1.6h-13.4v-1.6c3.9-.3 4.1-.4 4.1-3.2v-17.3c0-2-.3-2.2-1.8-2.5l-2.1-.3v-1.4l8.2-1.4.8 4.2c3.4-2.2 5.9-4.2 10-4.2 5 0 8.1 3.2 8.1 8.7z" id="path11"/><path id="rect11" style="fill:#e73736" d="M169.8 270.8H182V318h-12.2z"/><path id="rect12" style="fill:#006cb6" d="M169.8 328.6H182v53.3h-12.2z"/></g></svg>