<svg version="1.1" id="svg16" width="800.115" height="320" xmlns="http://www.w3.org/2000/svg"><defs id="defs1"><style id="style1">.a{fill:#1d1d1b}</style></defs><path d="M0 0h800v320H0Z" fill="#fff" style="stroke-width:1.06667" id="path1-7"/><path class="a" d="M470.986 122.965c11.624 2.525 16.982 6.775 16.982 14.803 0 9.082-7.447 14.821-17.8 14.821a30.495 30.495 0 0 1-21.305-8.337l3.633-4.322c5.449 4.922 10.643 7.374 17.872 7.374 7.229 0 11.624-3.633 11.624-8.936 0-4.904-2.615-7.665-13.55-9.972-12.005-2.615-17.508-6.484-17.508-15.111 0-8.628 7.265-14.313 17.127-14.313a27.244 27.244 0 0 1 18.327 6.412l-3.433 4.54a22.922 22.922 0 0 0-15.039-5.666c-6.775 0-11.097 3.632-11.097 8.5s2.67 7.737 14.167 10.207z" id="path1" style="stroke-width:1.81629"/><path class="a" d="M504.405 140.91c0 4.686 2.616 6.394 6.485 6.394a11.933 11.933 0 0 0 5.594-1.344v4.922a14.53 14.53 0 0 1-6.939 1.634c-6.175 0-10.897-3.051-10.897-10.897v-23.212h-5.45v-5.05h5.45v-11.624h5.721v11.624h12.224v5.05h-12.224z" id="path2" style="stroke-width:1.81629"/><path class="a" d="m527.054 120.731-1.725-4.704a32.003 32.003 0 0 1 14.076-3.196c10.498 0 16.347 5.448 16.347 15.492v23.521h-5.449v-5.794a16.928 16.928 0 0 1-13.931 6.612c-7.138 0-14.367-4.014-14.367-12.06 0-8.047 6.702-12.515 16.456-12.515a40.412 40.412 0 0 1 11.842 1.653v-1.344c0-6.938-4.25-10.498-11.479-10.498a26.518 26.518 0 0 0-11.77 2.833zm.673 19.653c0 4.922 4.468 7.737 9.68 7.737 7.066 0 12.878-4.305 12.878-10.426v-3.632a40.267 40.267 0 0 0-11.316-1.635c-7.228-.09-11.242 3.033-11.242 7.956z" id="path3" style="stroke-width:1.81629"/><path class="a" d="M596.89 151.844v-7.737c-3.123 4.613-7.664 8.555-14.73 8.555-9.244 0-18.398-7.265-18.398-19.98 0-12.713 9.081-20.124 18.399-20.124a17.364 17.364 0 0 1 14.73 8.21V97.483h5.74v54.361zm-13.694-34.182c-7.447 0-13.55 5.449-13.55 14.893 0 9.445 6.248 14.912 13.55 14.912a14.349 14.349 0 0 0 13.93-14.984 14.33 14.33 0 0 0-13.93-14.821z" id="path4" style="stroke-width:1.81629"/><path class="a" d="M621.247 140.91c0 4.686 2.616 6.394 6.484 6.394a11.86 11.86 0 0 0 5.576-1.344v4.922a14.421 14.421 0 0 1-6.92 1.634c-6.175 0-10.897-3.051-10.897-10.897v-23.212h-5.25v-5.05h5.359v-11.624h5.739v11.624h12.205v5.05h-12.205z" id="path5" style="stroke-width:1.81629"/><path class="a" d="M470.84 211.564h-12.714v18.38h-5.903v-52.127h19.507c11.77 0 19.507 6.267 19.507 16.62.073 11.315-9.3 17.127-20.397 17.127zm.509-28.298H458.18v22.922h12.877c8.646 0 14.295-4.614 14.295-11.534 0-7.52-5.577-11.388-14.004-11.388z" id="path6" style="stroke-width:1.81629"/><path class="a" d="M520.28 191.603v4.904h-12.151v33.438h-5.722v-33.438h-5.285v-4.977h5.285v-3.36c0-8.41 4.232-12.877 11.607-12.877a17.436 17.436 0 0 1 6.338.962v4.995a19.053 19.053 0 0 0-5.594-.963c-4.468 0-6.702 2.67-6.702 8.192v3.124z" id="path7" style="stroke-width:1.81629"/><path class="a" d="M542.457 230.853a19.743 19.743 0 0 1-19.98-19.98 20.07 20.07 0 1 1 19.98 19.98zm0-35.163c-8.337 0-14.058 6.629-14.058 14.966a14.53 14.53 0 0 0 14.221 15.057c8.337 0 14.149-6.63 14.149-14.894a14.53 14.53 0 0 0-14.312-15.13z" id="path8" style="stroke-width:1.81629"/><path class="a" d="M576.784 229.945h-5.72v-38.487h5.72v10.044c2.834-6.412 8.428-11.025 15.73-10.716v6.175h-.436c-8.41 0-15.275 6.03-15.275 17.654z" id="path9" style="stroke-width:1.81629"/><path class="a" d="M597.2 196.289v-4.831h32.457v3.632l-25.61 30.023h25.61v4.832H596.31v-3.633l25.537-30.005z" id="path10" style="stroke-width:1.81629"/><path class="a" d="M643.733 229.945h-5.721v-54.362h5.72v22.577a14.53 14.53 0 0 1 13.187-7.538c9.318 0 14.748 6.266 14.748 15.42v23.903h-5.74v-22.54c0-7.138-3.868-11.606-10.643-11.606-6.774 0-11.551 4.83-11.551 12.06z" id="path11" style="stroke-width:1.81629"/><path class="a" d="M698.912 225.858a16.002 16.002 0 0 0 12.15-5.449l3.633 3.197a19.98 19.98 0 0 1-15.874 7.265c-10.57 0-19.216-8.119-19.216-20.106 0-11.189 7.828-20.125 18.471-20.125 11.406 0 17.945 9.082 17.945 20.415a15.82 15.82 0 0 1 0 1.817h-30.659c.818 8.3 6.775 12.986 13.55 12.986zm11.26-17.273c-.599-7.01-4.63-13.113-12.296-13.113-6.702 0-11.77 5.594-12.514 13.113z" id="path12" style="stroke-width:1.81629"/><path class="a" d="M724.23 183.03v-6.32h6.558v6.32zm.382 46.915v-38.487h5.74v38.487z" id="path13" style="stroke-width:1.81629"/><path class="a" d="M785.821 190.622c8.864 0 14.294 5.976 14.294 15.493v23.83h-5.721v-22.54c0-7.447-3.723-11.606-9.99-11.606-5.812 0-10.643 4.304-10.643 11.914v22.177h-5.667v-22.485c0-7.266-3.796-11.461-9.899-11.461-6.102 0-10.716 5.05-10.716 12.133v21.959h-5.74v-38.578h5.74v6.466c2.525-3.796 5.958-7.266 12.424-7.266a13.077 13.077 0 0 1 12.369 7.665 15.348 15.348 0 0 1 13.55-7.7z" id="path14" style="stroke-width:1.81629"/><path class="a" id="polygon14" transform="matrix(1.81629 0 0 1.81629 -10.93 43.939)" d="M126.99 36.69H82.92v25.99h38.19v10.81H82.92v28.74H71.47V25.86h55.52z"/><path class="a" d="M52.985 111.723c10.335 0 18.98 2.415 24.356 6.81 4.614 3.76 6.848 9.082 6.848 15.948 0 7.483-2.58 12.895-8.1 17.018-5.958 4.468-15.276 6.285-25.538 6.285H21.763v-46.061h31.222m0-20.815h-52v138.71h20.778V178.58h28.788c14.894 0 28.389-3.215 38.015-10.425a40.449 40.449 0 0 0 16.347-33.674c0-13.223-5.013-24.302-14.53-32.058-9.518-7.755-22.177-11.515-37.525-11.515Z" id="path15" style="stroke-width:1.81629"/><path d="M383.095 90.654h-139.29v139.29h139.29Zm-134.66 134.66v-72.907l58.322 72.906zm62.681-1.98-62.68-78.355v-44.735l62.68 78.282zm0-52.237-60.628-75.794h60.628zm67.33 54.216h-62.68v-27.862h62.68zm0-32.511h-62.68v-30.169h62.68zm0-34.819h-62.68v-30.186h62.68zm0-34.818h-62.68V95.303h62.68z" id="path16" style="stroke-width:1.81629"/></svg>