<svg xmlns="http://www.w3.org/2000/svg" viewBox="0 0 800 320" xmlns:v="https://vecta.io/nano"><path d="M0 0h800v320H0Z" fill="#fff"/><path d="M106.627 222.248H59.663l-3.355-117.41h49.984c6.373 0 11.405 5.032 11.405 11.405v94.934c0 6.038-5.032 11.07-11.07 11.07z" fill="#e40146"/><path d="M59.998 222.248H11.693c-6.374 0-11.406-5.033-11.406-11.07v-95.27c0-6.374 5.032-11.406 11.406-11.406h45.621z" fill="#01a48b"/><path d="M70.398 164.55c-4.697-10.065-16.438-40.927 3.69-73.13 1.005-1.678.67-3.69-1.007-4.697l-11.405-6.708c-1.678-1.006-3.69-.336-4.362 1.006-23.816 39.248-12.411 73.464-9.392 81.515 4.697 10.065 16.438 40.927-3.69 73.13-1.006 1.678-.67 3.69 1.006 4.697l11.406 6.708c1.677 1.006 3.69.336 4.361-1.006 23.817-39.248 12.412-73.8 9.393-81.515z" fill="#80cef5" fill-rule="evenodd"/><path d="M528.968 188.031h-11.741l-17.444 19.792v-37.907h-9.728v62.395h9.728v-20.463l18.45 20.463h11.406L509.177 209.5zm-66.086 36.23c-7.716 0-13.754-6.039-13.754-14.09s6.038-14.089 13.754-14.089c5.368 0 9.728 2.684 11.74 6.709l8.387-4.697c-3.69-7.045-11.07-11.405-19.792-11.405-13.418 0-23.481 10.064-23.481 23.481 0 13.084 10.064 23.482 23.481 23.482 8.722 0 16.438-4.697 20.128-11.74l-8.387-4.698c-2.348 4.362-6.708 7.046-12.076 7.046zm-51.996-37.571c-14.09 0-23.482 10.4-23.482 23.481 0 13.419 9.393 23.482 24.154 23.482 8.721 0 15.431-3.69 19.456-9.728l-8.051-4.697c-2.013 3.02-6.038 5.368-11.405 5.368-7.046 0-12.748-3.69-14.425-10.4h35.559c.335-1.34.335-2.683.335-4.025.335-12.747-9.057-23.481-22.14-23.481zm-13.754 19.792c1.341-6.71 6.373-11.07 13.419-11.07 5.702 0 11.405 3.354 12.747 11.07zm-29.52 6.038l-29.521-42.268h-8.051v62.395h10.399v-42.603l29.52 42.268h8.052v-62.395h-10.4zm200.938-18.114c-3.354-4.697-8.721-7.38-15.767-7.38-12.076 0-22.14 10.063-22.14 23.48 0 13.084 10.064 23.482 22.14 23.482 7.046 0 12.077-3.019 15.767-7.715v6.373h9.728V188.03h-9.728zm-14.089 30.19c-8.05 0-14.089-6.037-14.089-14.424s6.038-14.424 14.09-14.424 14.088 6.038 14.088 14.424-6.038 14.425-14.089 14.425zm44.951-29.183v-7.38h-9.727v44.615h9.727v-22.476c0-10.064 7.38-13.083 13.754-12.411v-10.735c-5.703 0-11.07 2.348-13.754 8.387zm-390.136-1.006c-3.354-4.697-8.722-7.38-15.767-7.38-12.076 0-22.14 10.063-22.14 23.48 0 13.084 10.064 23.482 22.14 23.482 7.045 0 12.077-3.019 15.767-7.715v6.373h9.728v-44.616h-9.728zm-14.089 30.19c-8.051 0-14.09-6.037-14.09-14.424s6.039-14.424 14.09-14.424 14.09 6.038 14.09 14.424-6.039 14.425-14.09 14.425zm84.2-37.906c-6.038 0-10.735 2.348-13.754 7.045-2.684-4.362-6.709-7.045-12.748-7.045-5.367 0-10.064 2.013-12.748 6.373v-5.367h-9.728v44.616h9.728v-24.824c0-8.051 4.362-11.741 10.064-11.741 5.368 0 8.387 3.354 8.387 9.728v27.172h9.728v-24.824c0-8.051 4.025-11.74 9.727-11.74 5.368 0 8.722 3.354 8.722 9.727v27.172h9.728v-27.507c-.335-11.741-7.045-18.786-17.108-18.786zm-83.865-46.294c-8.386 0-13.418-4.025-15.431-10.4l-8.722 5.033c3.354 9.392 11.74 15.431 24.153 15.431 13.084 0 22.14-7.045 22.14-18.45 0-12.412-10.399-15.767-20.797-18.786-9.057-3.02-12.412-5.032-12.412-9.728s3.69-7.716 9.728-7.716c7.045 0 10.735 3.69 13.083 8.722l8.722-5.032c-4.025-8.386-11.406-13.754-21.805-13.754s-20.127 6.374-20.127 18.114 9.392 15.432 19.121 18.451c9.392 3.02 14.09 4.697 14.09 10.4 0 4.025-3.69 7.715-11.742 7.715zm54.009 9.057v-8.721c-7.38.335-11.07.335-11.07-5.368v-21.47h11.07v-9.392h-11.07V92.091l-9.728 3.019v9.727h-8.051v9.393h8.05v21.47c.336 11.405 6.039 15.431 20.799 13.753zm42.938-38.242c-3.355-4.697-8.722-7.38-15.767-7.38-12.076 0-22.14 10.064-22.14 23.481 0 13.083 10.064 23.482 22.14 23.482 7.045 0 12.076-3.02 15.767-7.716v6.373h9.728v-44.616h-9.728zm-14.09 30.191c-8.05 0-14.088-6.038-14.088-14.424s6.038-14.425 14.089-14.425 14.089 6.038 14.089 14.425-6.038 14.424-14.09 14.424zm70.782 1.342v6.373h9.728V86.723h-9.728v24.154c-3.355-4.697-8.722-7.38-15.767-7.38-12.076 0-22.14 10.063-22.14 23.48 0 13.084 10.064 23.482 22.14 23.482 7.045 0 12.076-2.683 15.767-7.715zm-28.179-15.767c0-8.387 6.039-14.425 14.09-14.425s14.089 6.038 14.089 14.425-6.038 14.424-14.09 14.424-14.089-6.038-14.089-14.424zm53.673 8.386c0 11.741 6.039 15.767 20.798 13.754v-8.722c-7.38.336-11.07.336-11.07-5.367v-21.47h11.07v-9.392h-11.07V91.755l-9.728 3.02v9.727h-8.05v9.393h8.05zm91.58 4.025h-27.507v-16.773h24.824v-9.727h-24.824V96.786H465.9V87.06h-37.57v62.394h37.906zm24.49 2.349c-5.033 0-8.387-2.349-10.065-6.374l-8.386 4.697c3.019 6.373 9.392 10.4 18.114 10.4 9.728 0 17.443-4.697 17.443-13.754 0-16.438-24.153-11.741-24.153-19.792 0-3.355 3.02-4.697 6.373-4.697 3.69 0 6.71 1.678 8.387 5.032l8.051-4.697c-3.02-6.038-9.057-9.392-16.438-9.392-9.057 0-16.437 5.367-16.437 13.754 0 16.102 24.153 11.405 24.153 19.456.336 3.69-3.019 5.368-7.045 5.368zm38.912 0c-5.032 0-8.386-2.349-10.064-6.374l-8.386 4.697c3.019 6.373 9.392 10.4 18.114 10.4 9.728 0 17.443-4.697 17.443-13.754 0-16.438-24.153-11.741-24.153-19.792 0-3.355 3.02-4.697 6.374-4.697 3.69 0 6.708 1.678 8.386 5.032l8.051-4.697c-3.019-6.038-9.057-9.392-16.437-9.392-9.058 0-16.438 5.367-16.438 13.754 0 16.102 24.153 11.405 24.153 19.456.336 3.69-3.019 5.368-7.045 5.368zm35.224-57.7h-9.728v65.079h9.728zm11.74 65.414h9.728v-44.616h-9.728zm4.697-63.737a6.013 6.013 0 1 0 0 12.076c3.355 0 6.038-3.019 6.038-6.038a6.013 6.013 0 0 0-6.038-6.038zm39.92 17.78c-6.039 0-10.736 2.347-13.755 6.708V104.5h-9.727v44.616h9.727v-23.817c0-9.057 5.033-12.748 11.406-12.748 6.038 0 10.064 3.69 10.064 10.4v26.5h9.728v-27.507c-.336-11.741-7.38-18.45-17.444-18.45zm63.401 7.715c-3.354-4.697-8.722-7.716-15.43-7.716-12.412 0-22.476 10.4-22.476 23.146s10.064 23.147 22.476 23.147c6.708 0 12.076-3.02 15.43-7.716v5.367c0 7.716-5.032 12.412-13.418 12.412-7.716 0-11.07-3.02-13.084-6.709l-8.386 4.697c3.69 7.045 11.405 10.735 21.134 10.735 11.741 0 22.811-6.71 22.811-21.135v-42.603h-9.057zm-14.09 29.52c-8.05 0-14.088-6.038-14.088-14.089s6.038-14.089 14.089-14.089 14.089 6.038 14.089 14.09-6.038 14.089-14.09 14.089zm56.358-37.235c-14.09 0-23.482 10.4-23.482 23.482 0 13.418 9.392 23.481 24.153 23.481 8.722 0 15.43-3.69 19.457-9.727l-8.051-4.697c-2.013 3.019-6.038 5.367-11.406 5.367-7.045 0-12.748-3.69-14.424-10.4h35.558c.336-1.34.336-2.683.336-4.024 0-12.748-9.057-23.482-22.14-23.482zm-13.754 19.792c1.341-6.709 6.373-11.07 13.418-11.07 5.703 0 11.406 3.354 12.748 11.07zm68.432-19.792c-6.038 0-10.734 2.349-13.753 6.709V104.5h-9.728v44.616h9.728V125.3c0-9.057 5.032-12.748 11.405-12.748 6.038 0 10.064 3.69 10.064 10.4v26.5h9.728v-27.507c-.335-11.741-7.38-18.45-17.444-18.45z" fill="#014e66"/></svg>