<svg id="Ebene_1" data-name="Ebene 1" version="1.1" width="800" height="320" xmlns="http://www.w3.org/2000/svg"><defs id="defs1"><style id="style1">.cls-1{fill:#161d33}.cls-2{fill:#758c94}</style></defs><path d="M0 0h800v320H0z" fill="#fff" id="path1-9" style="fill:none"/><g id="g19" transform="translate(32.5 .545) scale(3.04022)"><g id="g14"><path class="cls-1" d="M10.12 89.02c-.4-.56-.91-1.01-1.54-1.35-.63-.34-1.39-.51-2.27-.51-.45 0-.92.07-1.39.21-.47.14-.9.35-1.28.64-.38.29-.69.65-.93 1.08-.24.43-.35.95-.35 1.54 0 .59.11 1.08.34 1.47.23.38.53.71.9.98s.8.49 1.28.67c.48.18.98.35 1.5.52.64.21 1.29.44 1.94.68.65.24 1.24.56 1.76.96.52.39.95.89 1.28 1.49.33.6.5 1.36.5 2.29 0 .93-.18 1.72-.53 2.39-.35.67-.81 1.23-1.37 1.66-.56.44-1.21.76-1.93.97-.72.21-1.45.31-2.18.31-.56 0-1.12-.06-1.67-.17-.56-.11-1.09-.28-1.6-.51-.51-.23-.98-.51-1.41-.86-.44-.35-.82-.75-1.15-1.2l1.62-1.2c.4.66.96 1.22 1.69 1.66.72.45 1.57.67 2.55.67.47 0 .95-.07 1.44-.22s.93-.37 1.32-.68c.39-.3.72-.68.97-1.12.25-.44.38-.96.38-1.56 0-.65-.13-1.18-.38-1.61-.25-.43-.59-.78-1.01-1.07-.42-.29-.9-.53-1.44-.72-.54-.19-1.11-.38-1.7-.58-.61-.19-1.21-.41-1.8-.65-.59-.24-1.12-.56-1.6-.96-.47-.39-.85-.88-1.14-1.45-.29-.57-.43-1.28-.43-2.12 0-.89.18-1.66.54-2.3.36-.64.82-1.18 1.4-1.6.58-.42 1.21-.72 1.91-.91.7-.19 1.39-.29 2.07-.29 1.25 0 2.33.22 3.22.67.89.45 1.56.97 2.01 1.58l-1.49 1.2z" id="path1"/><path class="cls-1" d="M21.63 104.56h-1.88V87.72h-6.2v-1.67h14.28v1.67h-6.2z" id="path2"/><path class="cls-1" d="M29.16 104.56H27.1l8-18.51h1.83l7.95 18.51h-2.09l-2.04-4.86h-9.57l-2.01 4.86zm2.71-6.59h8.16l-4.08-9.83z" id="path3"/><path class="cls-1" d="M47.85 86.04h6.14c1.15 0 2.31.19 3.47.58 1.16.39 2.2.96 3.14 1.74.93.78 1.69 1.74 2.26 2.9.58 1.16.86 2.51.86 4.04 0 1.53-.29 2.9-.86 4.05a8.865 8.865 0 0 1-2.26 2.89c-.93.77-1.98 1.36-3.14 1.74-1.16.38-2.32.58-3.47.58h-6.14V86.05zm1.89 16.84h3.74c1.39 0 2.61-.22 3.65-.65 1.04-.44 1.9-1.01 2.58-1.71.68-.7 1.19-1.51 1.53-2.42a7.926 7.926 0 0 0 0-5.6c-.34-.91-.85-1.71-1.53-2.42-.68-.7-1.54-1.28-2.58-1.71-1.04-.44-2.25-.65-3.65-.65h-3.74v15.17z" id="path4"/><path class="cls-1" d="M73.06 104.56h-1.88V87.72h-6.2v-1.67h14.28v1.67h-6.2z" id="path5"/><path class="cls-1" d="M82.9 86.04h3.29v15.59h7.47l-1.27 2.93H82.9V86.05z" id="path6"/><path class="cls-1" d="M102.32 86.04h2.85l7.98 18.51h-3.77l-1.73-4.24h-8.03l-1.67 4.24h-3.69l8.05-18.51zm4.19 11.46-2.85-7.53-2.9 7.53z" id="path7"/><path class="cls-1" d="M115.24 86.04h6.56c1.2 0 2.42.16 3.63.47 1.22.31 2.32.83 3.3 1.56.98.72 1.77 1.67 2.38 2.85.61 1.18.91 2.64.91 4.38 0 1.62-.3 3.01-.91 4.18-.61 1.17-1.4 2.13-2.38 2.88s-2.08 1.3-3.3 1.66c-1.22.36-2.43.54-3.63.54h-6.56V86.05zm6.04 15.64c.85 0 1.71-.1 2.56-.3.85-.2 1.62-.54 2.31-1.02s1.25-1.13 1.69-1.95c.43-.82.65-1.86.65-3.11 0-1.33-.22-2.41-.65-3.24-.44-.84-1-1.49-1.69-1.96s-1.46-.79-2.31-.97c-.85-.18-1.71-.26-2.56-.26h-2.75v12.81z" id="path8"/><path class="cls-1" d="M135.48 86.04h12.26v2.88h-8.97v4.71h8.5v2.77h-8.5v5.23h9.44v2.93h-12.73V86.05z" id="path9"/><path class="cls-1" d="M151.69 86.04h4.37l8.6 13.86h.05V86.04h3.3v18.51h-4.18l-8.79-14.3h-.05v14.3h-3.29V86.04z" id="path10"/><path class="cls-1" d="M171.84 86.02h7.22c.7 0 1.39.08 2.07.25.68.17 1.29.44 1.82.81.53.38.96.86 1.3 1.45.33.59.5 1.31.5 2.14 0 1.05-.3 1.91-.89 2.59-.59.68-1.37 1.17-2.33 1.46v.05c1.17.16 2.13.61 2.88 1.36.75.75 1.12 1.75 1.12 3.01 0 1.01-.2 1.86-.6 2.55-.4.69-.93 1.24-1.58 1.66-.65.42-1.4.72-2.25.9-.85.18-1.7.27-2.58.27h-6.67V86.01zm3.3 7.53h2.93c1.1 0 1.93-.22 2.51-.65.58-.43.86-1.06.86-1.86s-.3-1.43-.89-1.78c-.59-.35-1.52-.52-2.77-.52h-2.64zm0 8.21h2.96c.42 0 .87-.03 1.36-.09.49-.06.94-.19 1.35-.38.41-.19.75-.47 1.02-.84s.41-.85.41-1.46c0-.98-.33-1.66-.99-2.04-.66-.38-1.66-.58-3.01-.58h-3.09v5.39z" id="path11"/><path class="cls-1" d="M203.77 97.73c0 1.12-.19 2.12-.58 3.02-.38.9-.91 1.66-1.57 2.29-.66.63-1.45 1.11-2.35 1.45-.91.34-1.89.51-2.95.51-1.06 0-2.05-.17-2.96-.51-.91-.34-1.7-.82-2.37-1.45-.67-.63-1.2-1.39-1.57-2.29-.37-.9-.56-1.9-.56-3.02V86.02h3.29V97.6c0 .54.07 1.08.21 1.61.14.53.37 1.01.69 1.42.32.42.75.76 1.28 1.02s1.19.39 1.97.39 1.44-.13 1.97-.39.96-.6 1.28-1.02c.32-.42.55-.89.69-1.42.14-.53.21-1.07.21-1.61V86.02h3.29v11.71z" id="path12"/><path class="cls-1" d="M207.95 86.02h6.43c.87 0 1.72.09 2.54.27.82.18 1.55.49 2.18.9.64.42 1.15.97 1.53 1.65.38.68.58 1.51.58 2.48 0 1.34-.38 2.44-1.14 3.28-.76.85-1.79 1.42-3.1 1.71l4.94 8.21h-3.97l-4.29-7.84h-2.41v7.84h-3.29V86.01zm5.99 7.97c.47 0 .94-.03 1.41-.11.47-.07.89-.2 1.27-.39.37-.19.68-.47.93-.82s.37-.81.37-1.37c0-.51-.11-.92-.34-1.24-.23-.32-.52-.58-.86-.77-.35-.19-.75-.32-1.19-.39-.44-.07-.88-.11-1.3-.11h-2.98v5.2z" id="path13"/><path class="cls-1" d="M240.87 103.56c-.94.45-1.97.81-3.1 1.06-1.12.25-2.42.38-3.88.38s-2.87-.24-4.1-.72c-1.24-.48-2.3-1.15-3.19-2.01-.89-.86-1.58-1.89-2.08-3.08-.5-1.19-.75-2.51-.75-3.96 0-1.45.26-2.82.77-4.01a8.94 8.94 0 0 1 2.12-3.05c.9-.84 1.96-1.48 3.18-1.94 1.22-.46 2.55-.68 3.98-.68 1.43 0 2.84.21 4.07.64 1.23.43 2.22.99 2.97 1.69l-2.27 2.46c-.47-.52-1.13-.97-1.97-1.33-.85-.37-1.77-.55-2.76-.55-.99 0-1.86.17-2.65.52-.79.35-1.47.83-2.03 1.44-.56.61-.99 1.32-1.29 2.14-.31.82-.46 1.71-.46 2.67s.15 1.9.46 2.73c.3.83.74 1.55 1.31 2.16.57.61 1.25 1.09 2.06 1.42.81.34 1.73.51 2.76.51 1.41 0 2.64-.22 3.69-.65v-4.71h-3.9v-2.72h7.09v9.6z" id="path14"/></g><path d="M0 0v67.83h67.83V0zm20.88 12.49c1.39-1.21 2.97-2.23 4.69-3.01v12.19h-4.69zm7.13-3.95c1.49-.45 3.07-.73 4.69-.82v13.95h-4.69zm7.12-.82c1.62.1 3.2.37 4.69.82v13.13h-4.69zm7.13 1.76c1.72.78 3.3 1.8 4.69 3.01v9.18h-4.69zm7.13 5.56a18.15 18.15 0 0 1 3.33 6.64h-3.33zm-30.95 0v6.64h-3.33c.64-2.44 1.78-4.69 3.33-6.64zm34.87 45.13H14.52V26.16c0-.83.08-1.65.19-2.45h3.74v6.03h2.44v-6.03h4.69v6.03h2.44v-6.03h4.69v6.03h2.44v-6.03h4.69v6.03h2.44v-6.03h4.69v6.03h2.44v-6.03h3.74c.11.8.19 1.62.19 2.45v34z" id="path15" style="fill:#a2bec5"/><path d="M120.06 0H86.15v67.83h67.83V0h-33.91zm.41 7.66 19.72 40.99h-39.44zm23.19 48.43v4.07h-47.2v-8.14h5.87v4.07h3.78v-4.07h11.73v4.07h4.11v-4.07h11.73v4.07h4.11v-4.07h5.87z" id="path16" style="fill:#9f3331"/><g id="g18"><path class="cls-2" d="M190.8 46.04c-2.94 0-5.32 2.38-5.32 5.32 0 2.94 2.38 5.32 5.32 5.32 2.94 0 5.32-2.38 5.32-5.32 0-2.94-2.38-5.32-5.32-5.32z" id="path17"/><path class="cls-2" d="M173.04 0v67.83h67.83V0zm30.85 43.55c0 2.72-2.07 4.93-4.71 5.22.26.82.43 1.68.43 2.59 0 4.86-3.94 8.81-8.81 8.81-4.87 0-8.81-3.94-8.81-8.81 0-4.87 3.94-8.81 8.81-8.81.91 0 1.77.18 2.59.43.29-2.64 2.5-4.71 5.22-4.71.73 0 1.42.15 2.06.42l18.1-18.1-3.64-3.64 2.26-2.26 1.84 1.84 1.23-1.23-1.84-1.84 2.26-2.26 1.84 1.84 1.27-1.27-1.84-1.84 2.26-2.26 3.64 3.64 1.06-1.06 2.8 2.8-28.45 28.45c.27.63.42 1.33.42 2.06z" id="path18"/></g></g></svg>