<svg xmlns="http://www.w3.org/2000/svg" viewBox="0 0 800 320.046" xmlns:v="https://vecta.io/nano"><path d="M0 0h800v320H0Z" fill="#fff"/><path fill="#d41815" d="M43.88.515h711.364v319.53H43.88Z"/><path d="M675.895 217.803v6.96h-4.502v4.016h4.502v15.85c0 3.427.537 6.004 2.031 7.561 1.265 1.439 3.241 2.217 5.704 2.217 2.04 0 3.668-.3 4.684-.723l-.241-3.957a11.635 11.635 0 0 1-3.06.36c-2.948 0-3.973-2.035-3.973-5.644v-15.668h7.57v-4.01h-7.57v-8.344zm-15.25 23.818c0 .842-.058 1.561-.24 2.28-.961 3.97-4.206 6.313-7.744 6.313-5.704 0-8.585-4.865-8.585-10.747 0-6.431 3.241-11.23 8.703-11.23 3.969 0 6.85 2.764 7.63 6.127.181.66.24 1.562.24 2.217v5.04zm0-30.422v17.343h-.114c-1.324-2.335-4.329-4.434-8.766-4.434-7.092 0-13.083 5.933-13.023 15.6 0 8.827 5.395 14.763 12.423 14.763 4.743 0 8.289-2.454 9.91-5.695h.121l.234 5.03h4.734a97.43 97.43 0 0 1-.233-7.497v-35.11zm-33.425 32.83c0 .542-.123 1.142-.297 1.68-.842 2.462-3.25 4.865-7.032 4.865-2.704 0-4.985-1.62-4.985-5.048 0-5.644 6.546-6.663 12.313-6.546zm5.576 9.778c-.364-1.98-.478-4.443-.478-6.96v-10.862c0-5.822-2.158-11.881-11.039-11.881-3.668 0-7.146 1.015-9.545 2.572l1.197 3.483c2.032-1.325 4.858-2.167 7.561-2.167 5.949 0 6.605 4.325 6.605 6.732v.6c-11.22-.058-17.461 3.78-17.461 10.799 0 4.205 3 8.343 8.885 8.343 4.142 0 7.265-2.035 8.885-4.32h.182l.415 3.656h4.794zm-39.544-36.003v6.96h-4.502v4.016h4.502v15.85c0 3.427.537 6.004 2.031 7.561 1.265 1.438 3.241 2.217 5.704 2.217 2.04 0 3.66-.3 4.675-.723l-.24-3.957a11.635 11.635 0 0 1-3.06.36c-2.94 0-3.96-2.035-3.96-5.644v-15.668h7.552v-4.01h-7.552v-8.344zm-27.007 34.628c2.04 1.197 4.976 1.98 8.157 1.98 6.91 0 10.857-3.6 10.857-8.703 0-4.32-2.577-6.841-7.62-8.758-3.787-1.448-5.53-2.526-5.53-4.925 0-2.167 1.743-3.965 4.866-3.965 2.704 0 4.802.964 5.94 1.68l1.325-3.838c-1.621-.964-4.198-1.798-7.143-1.798-6.25 0-10.024 3.828-10.024 8.517 0 3.482 2.463 6.364 7.676 8.226 3.909 1.442 5.403 2.822 5.403 5.344 0 2.403-1.794 4.32-5.644 4.32-2.645 0-5.395-1.084-6.951-2.099zm-23.767 0c2.04 1.197 4.977 1.98 8.158 1.98 6.91 0 10.857-3.6 10.857-8.703 0-4.32-2.577-6.841-7.62-8.758-3.779-1.448-5.522-2.526-5.522-4.925 0-2.167 1.743-3.965 4.857-3.965 2.712 0 4.802.964 5.94 1.68l1.325-3.838c-1.62-.964-4.197-1.798-7.142-1.798-6.25 0-10.024 3.828-10.024 8.517 0 3.482 2.463 6.364 7.683 8.226 3.902 1.442 5.403 2.822 5.403 5.344 0 2.403-1.802 4.32-5.653 4.32-2.644 0-5.395-1.084-6.95-2.099zm-16.615-34.628v6.96h-4.502v4.016h4.502v15.85c0 3.427.538 6.004 2.04 7.561 1.256 1.438 3.232 2.217 5.695 2.217 2.039 0 3.66-.3 4.67-.723l-.233-3.957a11.585 11.585 0 0 1-3.059.36c-2.94 0-3.96-2.035-3.96-5.644v-15.668h7.552v-4.01h-7.552v-8.344zm-14.234 1.79c1.743 0 2.94-1.439 2.94-3.055 0-1.74-1.265-3.064-2.94-3.064s-2.99 1.38-2.99 3.064c0 1.616 1.196 3.055 2.99 3.055m-11.098 0c1.735 0 2.933-1.439 2.933-3.055 0-1.74-1.257-3.064-2.933-3.064a3.075 3.075 0 0 0-3.059 3.064 3.034 3.034 0 0 0 3.06 3.055m10.742 24.434c0 .542-.114 1.142-.296 1.68-.842 2.462-3.242 4.865-7.024 4.865-2.704 0-4.984-1.62-4.984-5.048 0-5.644 6.546-6.663 12.304-6.545zm5.58 9.778c-.364-1.98-.477-4.443-.477-6.96v-10.861c0-5.822-2.166-11.881-11.04-11.881-3.667 0-7.141 1.015-9.544 2.572l1.197 3.483a14.432 14.432 0 0 1 7.57-2.167c5.94 0 6.604 4.325 6.604 6.732v.6c-11.23-.058-17.47 3.78-17.47 10.799 0 4.205 3 8.343 8.877 8.343 4.146 0 7.273-2.035 8.894-4.32h.182l.414 3.656h4.795zm-39.544-36.003v6.96h-4.502v4.016h4.502v15.85c0 3.427.538 6.004 2.04 7.561 1.256 1.439 3.232 2.217 5.695 2.217 2.04 0 3.66-.3 4.675-.723l-.241-3.957a11.635 11.635 0 0 1-3.06.36c-2.94 0-3.968-2.035-3.968-5.644v-15.668h7.561v-4.01h-7.561v-8.344zm-12.604-4.502a3.215 3.215 0 0 0-3.304 3.296c0 1.798 1.324 3.237 3.181 3.237 2.098 0 3.414-1.439 3.356-3.237 0-1.853-1.257-3.296-3.233-3.296m2.636 11.463h-5.272v29.042h5.272zm-31.086 27.667c2.04 1.198 4.977 1.98 8.166 1.98 6.901 0 10.857-3.6 10.857-8.702 0-4.32-2.577-6.842-7.62-8.759-3.787-1.447-5.522-2.526-5.522-4.925 0-2.166 1.735-3.965 4.858-3.965 2.703 0 4.802.965 5.94 1.68l1.316-3.838c-1.612-.964-4.188-1.798-7.133-1.798-6.25 0-10.024 3.829-10.024 8.517 0 3.483 2.463 6.364 7.675 8.226 3.91 1.443 5.403 2.822 5.403 5.344 0 2.403-1.802 4.32-5.644 4.32-2.644 0-5.395-1.084-6.96-2.099zm-17.576 1.375h5.213v-15.485c0-.901.115-1.74.233-2.459.728-3.964 3.373-6.782 7.092-6.782a8.08 8.08 0 0 1 1.803.178v-4.972a5.64 5.64 0 0 0-1.502-.182c-3.546 0-6.727 2.458-8.04 6.355h-.24l-.186-5.695h-4.612c.173 2.703.241 5.64.241 9.067zm-27.083-17.335c.423-3.664 2.767-8.588 8.107-8.588 5.94 0 7.387 5.225 7.32 8.588zm20.347 3.77c.068-.537.183-1.375.183-2.453 0-5.344-2.514-13.68-12-13.68-8.467 0-13.62 6.897-13.62 15.656 0 8.766 5.334 14.648 14.28 14.648 4.62 0 7.802-.965 9.66-1.803l-.894-3.779c-1.984.842-4.273 1.498-8.048 1.498-5.284 0-9.846-2.94-9.964-10.092h20.402zm-55.203-15.477 11.04 29.042h5.034l11.404-29.042h-5.522l-5.636 16.323a95.987 95.987 0 0 0-2.463 7.447h-.182a74.903 74.903 0 0 0-2.34-7.443l-5.694-16.327zm-7.81-11.463a3.215 3.215 0 0 0-3.292 3.296c0 1.798 1.32 3.237 3.178 3.237 2.095 0 3.414-1.439 3.355-3.237 0-1.853-1.26-3.296-3.24-3.296m2.635 11.463h-5.272v29.042h5.272zm-38.575 29.042h5.271V236.34c0-.9.115-1.798.36-2.458.901-2.945 3.605-5.403 7.087-5.403 4.984 0 6.724 3.906 6.724 8.58v16.747h5.276v-17.343c0-9.96-6.24-12.358-10.26-12.358-4.807 0-8.17 2.694-9.609 5.454h-.114l-.3-4.794h-4.671c.173 2.399.24 4.861.24 7.86v21.181zm-38.71-40.44v23.83c0 12.54 6.236 17.275 14.525 17.275 8.759 0 15.296-5.094 15.296-17.517v-23.588h-5.272v23.947c0 8.937-3.842 12.906-9.85 12.906-5.398 0-9.427-3.843-9.427-12.906v-23.947Zm365.39-36.282h12.702v-29.292c0-1.438.097-2.97.511-4.1 1.324-3.791 4.811-7.37 9.825-7.37 6.858 0 9.52 5.424 9.52 12.595v28.167h12.609v-29.596c0-15.778-9.025-21.41-17.724-21.41-8.297 0-13.726 4.71-15.875 8.603h-.305l-.618-7.476h-11.056c.305 4.303.415 9.114.415 14.85v35.03zm-43.94-30.214c.512-5.12 3.791-12.185 11.577-12.185 8.394 0 10.447 7.578 10.345 12.185zm33.397 8.81c.199-1.126.406-2.97.406-5.328 0-10.958-5.323-24.27-21.503-24.27-15.981 0-24.38 13.006-24.38 26.834 0 15.257 9.528 25.196 25.709 25.196 7.163 0 13.107-1.333 17.402-3.076l-1.844-8.708c-3.787 1.434-7.985 2.256-13.819 2.256-7.992 0-15.059-3.897-15.371-12.909h33.399zm-68.418-.411c0 1.434-.199 3.178-.511 4.506a10.755 10.755 0 0 1-10.24 7.578c-7.882 0-12.18-6.858-12.18-15.363 0-10.138 5.213-16.286 12.278-16.286 5.332 0 8.915 3.483 10.248 8.09.305 1.024.406 2.255.406 3.38zm2.048-28.06-.512 6.655h-.207c-2.356-4.1-6.858-7.785-14.436-7.785-11.974 0-22.628 9.939-22.628 26.322 0 14.136 8.809 24.375 21.197 24.375 6.554 0 11.67-2.97 14.539-7.37h.207v4.302c0 10.755-6.14 15.055-14.34 15.055-6.042 0-11.356-1.943-14.538-3.792l-2.759 9.528c4.299 2.662 11.047 3.99 17.403 3.99 6.858 0 14.022-1.434 19.247-6.042 5.221-4.714 7.38-12.19 7.38-22.636v-28.269c0-6.863.198-10.959.406-14.34h-10.96zm-93.182 49.875h12.702v-29.292c0-1.438.097-2.97.511-4.1 1.329-3.791 4.811-7.37 9.825-7.37 6.867 0 9.528 5.424 9.528 12.595v28.167h12.596v-29.596c0-15.778-9.016-21.41-17.72-21.41-8.296 0-13.717 4.71-15.874 8.603h-.305l-.613-7.476h-11.064c.313 4.303.414 9.114.414 14.85zm-19.865-70.668c-4.198 0-7.066 2.97-7.066 6.863 0 3.791 2.76 6.761 6.965 6.761 4.396 0 7.163-2.97 7.163-6.761-.098-3.892-2.767-6.863-7.062-6.863m6.346 20.791h-12.693v49.876h12.693zm-60.014 21.198c0-1.227.208-2.353.411-3.27 1.439-5.535 6.046-9.224 11.17-9.224 8.395 0 12.597 7.171 12.597 15.976 0 10.041-4.811 16.388-12.702 16.388-5.429 0-9.83-3.791-11.161-8.805a13.75 13.75 0 0 1-.31-2.97v-8.094zm-2.25 28.678.617-7.48h.203c3.588 6.143 9.317 8.602 15.773 8.602 11.263 0 22.636-8.907 22.636-26.834.098-15.156-8.602-25.298-20.791-25.298-7.472 0-12.9 3.174-15.972 7.993h-.208v-29.707h-12.596v58.685a251.701 251.701 0 0 1-.414 14.03h10.751zm-35.741-57.657c3.58 0 6.14-2.87 6.14-6.25 0-3.69-2.56-6.351-6.14-6.351-3.588 0-6.25 2.767-6.25 6.351.005 3.38 2.565 6.25 6.25 6.25m-20.381 0c3.587 0 6.143-2.87 6.143-6.25 0-3.69-2.662-6.351-6.043-6.351-3.685 0-6.448 2.767-6.448 6.351 0 3.38 2.662 6.25 6.347 6.25m32.156 7.78H357.23v30.11c0 1.433-.305 2.762-.716 3.891-1.333 3.178-4.611 6.762-9.625 6.762-6.651 0-9.321-5.328-9.321-13.624v-27.139h-12.596v29.292c0 16.282 8.297 21.71 17.41 21.71 8.907 0 13.824-5.12 15.973-8.703h.207l.613 7.578h11.056a296.56 296.56 0 0 1-.41-14.952v-34.924zm-79.57 49.876h12.596v-58.478h19.869v-10.552h-52.127v10.552h19.657v58.478zm-93.68 49.108c-14.453 0-18.858-8.488-18.858-27.033V50.573h-18.96s-4.967 34.818-21.968 48.743c-13.066 10.7-23.88 10.789-23.88 10.789v24.117h20.427v62.862c0 21.684 4.392 34.5 13.193 43.618 7.535 7.858 17.99 13.205 33.396 13.205 13.51 0 24.828-1.57 31.116-4.091l-.321-24.892c-3.457.635-8.166 1.266-14.145 1.266m-6.089-118.176h26.208v26.204h-26.208z" fill="#fff"/></svg>