<svg fill-rule="evenodd" clip-rule="evenodd" stroke-linejoin="round" stroke-miterlimit="1.414" width="800" height="320" xmlns="http://www.w3.org/2000/svg"><path d="M0 0h800v320H0Z" fill="#fff" style="stroke-width:1.06667"/><path d="m62.854 206.38 12.702-41.13c1.814-6.048 3.427-11.894 3.427-12.5h.202c.202.606.605 6.452 1.411 12.702l4.839 40.726h21.37l-11.693-86.29H74.75l-16.936 51.814c-2.016 6.049-4.032 13.912-4.234 14.516h-.201c-.202-.604-2.218-8.467-4.033-14.516l-16.129-51.814H12.854L.96 206.38h18.75l5.04-40.726c.605-5.645 1.009-12.702 1.009-12.903h.201c0 .201 1.613 7.056 3.428 12.5l12.701 41.129zm103.83-86.492h-20.16l-33.065 86.492h21.17l5.04-14.516h32.863l5.242 14.516h22.983zm-21.168 55.242 6.048-17.742c2.42-7.258 4.234-14.718 4.435-15.121h.202c.202.403 1.613 7.661 4.234 15.12l6.25 17.743zm144.354 31.25v-86.492H270.92v41.33c0 6.855.403 12.904.605 14.113h-.202c-.605-1.008-3.83-7.056-9.476-15.12l-28.024-40.323h-21.17v86.492h18.952v-45.162c0-5.846-.403-11.693-.605-12.096h.202c.202.604 3.427 5.846 8.87 13.508l30.848 43.75zm97.782 0v-86.492h-18.951v41.33c0 6.855.403 12.904.605 14.113h-.202c-.605-1.008-3.83-7.056-9.476-15.12l-28.024-40.323h-21.17v86.492h18.952v-45.162c0-5.846-.403-11.693-.604-12.096h.201c.202.604 3.428 5.846 8.871 13.508l30.847 43.75zm97.581 0v-86.492h-20.766v33.064h-35.484v-33.064h-21.17v86.492h21.17v-36.29h35.484v36.29zm72.984 0v-17.137h-31.855v-19.355h27.42v-16.13h-27.42v-16.733h31.048v-17.137h-51.814v86.492zm18.145-86.492h21.17v86.492h-21.17zm99.597 86.492 12.701-41.13c1.815-6.048 3.428-11.894 3.428-12.5h.201c.202.606.605 6.452 1.412 12.702l4.838 40.726h21.371l-11.693-86.29h-20.363l-16.936 51.814c-2.016 6.049-4.032 13.912-4.234 14.516h-.201c-.202-.604-2.218-8.467-4.032-14.516l-16.13-51.814H625.96l-11.896 86.492h18.75l5.04-40.726c.606-5.645 1.009-12.702 1.009-12.903h.201c0 .201 1.613 7.056 3.428 12.5l12.701 41.129z" fill="#010202" fill-rule="nonzero" style="stroke-width:2.01613"/><path d="M737.45 83.598v61.29h61.29v-61.29Zm50.807 51.41h-40.928v-6.048c8.67-5.846 23.388-15.524 23.388-22.177 0-3.226-2.42-5.04-6.452-5.04-4.436 0-8.065 2.62-9.88 4.234l-6.25-8.267c3.63-3.225 10.082-6.451 18.348-6.451 11.088 0 18.346 3.83 18.346 12.701s-8.87 15.323-17.137 20.968c0 0 3.63-.403 5.847-.403h14.718z" fill="#d80000" fill-rule="nonzero" style="stroke-width:2.01613"/></svg>