<svg viewBox="0 0 800 320" version="1.1" id="svg2" xml:space="preserve" xmlns="http://www.w3.org/2000/svg"><defs id="defs1"><path id="SVGID_00000132771776994441339210000010272632559138794632_" d="M211.22 68.4c0 7.41 6.04 13.42 13.49 13.42s13.48-6.01 13.48-13.42-6.04-13.42-13.48-13.42c-7.45 0-13.49 6-13.49 13.42"/><path id="SVGID_1_" d="M97.97 68.4c0 7.41 6.04 13.42 13.49 13.42s13.48-6.01 13.48-13.42-6.04-13.42-13.48-13.42c-7.45 0-13.49 6-13.49 13.42"/><path id="SVGID_00000044898771460269573090000010456118392746125217_" d="M120.62 68.4c0 7.41 6.04 13.42 13.49 13.42s13.49-6.01 13.49-13.42-6.04-13.42-13.49-13.42-13.49 6-13.49 13.42"/><path id="SVGID_00000127743730624216497450000002043249572621365943_" d="M143.27 68.4c0 7.41 6.04 13.42 13.48 13.42 7.45 0 13.48-6.01 13.48-13.42s-6.04-13.42-13.48-13.42-13.48 6-13.48 13.42"/><path id="SVGID_00000162329239644862310090000004140755303673011123_" d="M165.92 68.4c0 7.41 6.04 13.42 13.48 13.42 7.45 0 13.49-6.01 13.49-13.42s-6.04-13.42-13.49-13.42c-7.44 0-13.48 6-13.48 13.42"/><path id="SVGID_00000079476757253046130470000001117058738893821098_" d="M188.57 68.4c0 7.41 6.04 13.42 13.49 13.42s13.49-6.01 13.49-13.42-6.04-13.42-13.49-13.42-13.49 6-13.49 13.42"/><path id="B" d="M100.3-65.5h594.1v594.1H100.3z"/><clipPath id="A"><use href="#B" id="use1"/></clipPath><clipPath id="clipPath3061"><path d="M493.748 648.051h112.999v74.678H493.748v-74.678z" id="path3063"/></clipPath><clipPath id="clipPath6935"><path d="M549.227 732.295c-1.846-1.623-2.791-4.136-2.791-6.064v-8.709c0-1.684-.798-2.611-2.16-2.611-1.363 0-2.146.872-2.146 2.683v8.549c.21 3.412-2.252 8.278-8.329 8.278-7.689 0-8.539-7.051-8.539-8.286v-8.784c0-1.307-.385-2.481-2.063-2.481-1.401 0-2.104 1.421-2.104 2.519v8.949s.455 3.093-2.184 5.732c-2.638 2.638-6.146 2.269-6.146 2.269l-23.181-.004c-4.451-.001-7.423-2.486-7.423-7.008 0-1.157.411-4.411 4.453-6.847 4.041-2.437 4.701-3.627 4.661-4.329-.041-.702-.933-1.357-2.434-1.357h-10.597c-1.341 0-4.046.035-5.322 1.152-1.276 1.116-1.858 3.007-1.858 3.007l5.859.003c1.079 0 2.556.99 2.556 2.762 0 1.773-1.62 2.724-2.68 2.724h-5.858c.578 1.155 1.025 2.185 2.383 3.095 1.315.884 3.06.897 4.423.902l1.65.004v5.937l-3.258-.045c-7.382-.1-11.96-6.019-11.96-12.739 0-6.721 4.438-12.582 12.001-12.582h13.69c6.18 0 8.17 3.465 8.17 7.342s-3.34 6.106-5.445 7.631c-2.104 1.527-3.932 2.267-3.959 3.673-.016.866.977.739 1.773.739l11.794.004v-19.306h6.312v19.346l4.333-.004c.67-.001 1.156-.328 1.608-.779.451-.452.411-1.294.411-1.817v-9.198c0-5.954 4.701-7.793 8.291-7.793 5.47 0 8.456 4.243 8.456 8.204v9.087c0 1.558 1.155 2.276 2.101 2.214 1.405-.091 2.245-.536 2.245-2.514v-8.661c0-3.634 2.584-8.291 8.11-8.291 5.527 0 8.621 3.979 8.621 8.369v8.71c0 .729.117 1.275.737 1.906.689.702 1.572.567 1.572.567v6.061s-3.277-.013-5.773-2.209" id="path6937"/></clipPath><clipPath id="clipPath16"><path d="M-9-9h1209v1702H-9V-9z" id="path18"/></clipPath><clipPath id="clipPath3081"><path d="M485.037 646.354h128.667v81H485.037v-81z" id="path3083"/></clipPath><clipPath id="clipPath3029"><path d="M485.037 646.354h128.667v81H485.037v-81z" id="path3031"/></clipPath><style type="text/css" id="style1-4"></style></defs><path d="M0 0h800v320H0z" fill="#fff" id="path1" style="fill:none"/><g id="STWS-Logo-ohne-Stichzeile" style="fill:none;fill-rule:evenodd;stroke:none;stroke-width:.183796" transform="matrix(4.46146 0 0 4.46148 0 48.824)"><path d="M43.72.09C17.29-1.78 15.157 26.192 0 25.547v14.03c3.769.343 7.332.092 10.187-.595l-1.13-4.218C23.879 31.744 17.67 4.637 43.719.09" fill="#2077b9" id="Fill-1" style="stroke-width:.183796"/><path d="M60.097 36.105c.717.1 1.454.288 2.146.555l.502-1.295c-.76-.33-1.497-.515-2.322-.638-3.623-.492-6.16.41-8.004 2.631a6.597 6.597 0 0 0-1.369 2.797c-1.453 5.943 2.864 10.383 9.33 9.542a10.602 10.602 0 0 0 2.253-.534l-.496-1.338c-.153.042-.326.102-.478.144-5.272 1.482-9.112-1.253-9.047-5.86.066-4.175 3.103-6.602 7.485-6.004" fill="#2077b9" id="Fill-44" style="stroke-width:.183796"/><path d="M47.08 42.191c-.195-.123-.413-.249-.628-.371l-.76-.37-.457-.226c-.217-.102-.433-.205-.627-.328-2.322-1.194-2.821-2.078-2.322-3.353.477-1.254 2.342-2.076 5.056-1.234l.171.043.153.061.673-1.276c-.196-.062-.392-.123-.608-.184-3.688-1.113-6.595.286-7.268 2.344-.65 2.035.196 3.475 3.537 5.182l1.214.615c1.997 1.05 2.474 1.83 2.128 3.189-.437 1.747-2.756 2.734-5.794 1.563l-.26-.103-.217-.083-.78 1.297c.303.142.585.265.888.368 3.927 1.359 7.203-.184 7.918-2.735.521-1.87-.108-3.248-2.017-4.399" fill="#2077b9" id="Fill-45" style="stroke-width:.183796"/><path d="M94.132 46.073a8.91 8.91 0 0 0-.282 1.356c-.02.208-.044.392-.065.578a6.716 6.716 0 0 0-.15-1.214l-.068-.205-.215-.762-3.363-11.021h-2.083l-3.364 11.021-.303.987c-.109.39-.152.802-.174 1.194-.021-.186-.044-.37-.066-.578a8.215 8.215 0 0 0-.281-1.356l-3.493-11.268H78.49l4.578 14.805h1.953l3.601-11.7c.066-.229.132-.515.196-.844.043-.308.087-.638.108-.946.022.308.066.638.13.946.043.33.11.615.196.843L92.83 49.61h1.93l4.578-14.805h-1.712z" fill="#2077b9" id="Fill-46" style="stroke-width:.183796"/><path fill="#2077b9" id="Fill-47" style="stroke-width:.183796" d="M103.097 36.202h5.9v-1.397h-7.614V49.61h7.96v-1.398h-6.246V42.66h5.27v-1.4h-5.27z"/><path fill="#2077b9" id="Fill-48" style="stroke-width:.183796" d="M112.272 49.61h1.713V34.804h-1.713z"/><path d="M117.807 49.61h1.713l-.022-11.475c0-.123 0-.265-.064-.698a12.238 12.238 0 0 0-.262-1.277c.044.186.109.351.197.517.369.923.585 1.335.714 1.56l7.312 11.373h1.933V34.805h-1.693v10.899c0 .226.02.492.152 1.335.044.35.087.72.15 1.07a7.775 7.775 0 0 0-.39-1.007c-.239-.576-.326-.74-.412-.886l-7.353-11.411h-1.954z" fill="#2077b9" id="Fill-49" style="stroke-width:.183796"/><path fill="#2077b9" id="Fill-50" style="stroke-width:.183796" d="M134.86 42.577h5.163v-1.418h-5.185v-4.957h5.77v-1.397h-7.462V49.61h1.714z"/><path d="M143.084 44.49c0 3.125 2.277 5.326 5.684 5.345 3.407 0 5.684-2.22 5.684-5.345v-9.687h-1.715v9.461c0 1.501-.39 2.427-1.15 3.146-.692.658-1.67 1.027-2.82 1.027-1.172 0-2.127-.369-2.82-1.027-.781-.72-1.151-1.645-1.151-3.146v-9.46h-1.712z" fill="#2077b9" id="Fill-51" style="stroke-width:.183796"/><path d="M158.268 49.61h1.713v-6.602h1.563c1.28 0 1.845.413 2.645 2.017l2.303 4.585h1.906l-2.667-5.224c-.087-.164-.195-.35-.283-.514-.585-1.07-.78-1.275-1.303-1.46.37-.102.697-.248.978-.43 1.584-.906 2.3-2.449 1.843-4.258-.474-1.85-2.124-2.94-5.03-2.94h-3.668zm1.713-7.98v-5.449h1.887c2.497 0 3.71 1.256 3.322 3.25-.262 1.357-1.434 2.2-3.492 2.2z" fill="#2077b9" id="Fill-52" style="stroke-width:.183796"/><path fill="#2077b9" id="Fill-53" style="stroke-width:.183796" d="M168.509 36.203h4.575V49.61h1.694V36.203h4.536v-1.398h-10.805z"/><path fill="#2077b9" id="Fill-54" style="stroke-width:.183796" d="M74.578 41.177h-7.615v-6.374h-1.714V49.61h1.714v-7.015h7.593v7.015h1.737V34.803h-1.715z"/><path d="M51.259 15.395c.085-.02-3.674-14.156-3.794-14.136-26.05 4.549-19.838 31.655-34.661 34.675l3.73 13.904C42.9 45.794 36.29 19.192 51.26 15.395" fill="#7fc600" id="Fill-55" style="stroke-width:.183796"/><path d="M55.862 22.974h1.729v5.774c0 2.124 1.177 3.15 3.57 2.736.244-.055.492-.108.72-.198l-.343-1.098c-.114.054-.246.073-.36.108-1.537.306-2.145-.233-2.145-1.725v-5.597h2.204v-1.135h-2.204v-2.446H57.57v2.446h-1.708z" fill="#7fc600" id="Fill-56" style="stroke-width:.183796"/><path d="m69.36 25.546-.4-.018h-.513c-3.418-.037-4.974.917-5.391 2.464-.57 2.052 1.063 3.833 3.607 3.582 1.064-.09 1.842-.469 2.562-1.258l.208-.218-.037 1.331h1.33v-6.513c0-.162 0-.305-.019-.45-.285-2.339-3.038-3.762-6.474-2.14-.114.054-.228.107-.341.162l.588 1.006.17-.072.361-.161c.664-.27 1.102-.378 1.48-.432 1.823-.2 2.869.665 2.905 2.249 0 .161 0 .307-.036.468m-.02.972v1.421c0 .864-.36 1.529-1.16 2.033-.151.09-.302.18-.453.252a2.969 2.969 0 0 1-1.502.234c-1.329-.161-2.05-1.079-1.745-2.195.038-.143.075-.27.15-.396.4-.757 1.254-1.188 3.228-1.35.493-.035.97-.035 1.482 0" fill="#7fc600" id="Fill-57" style="stroke-width:.183796"/><path d="M80.182 23.244a2.293 2.293 0 0 0-.208-.27c-.874-1.081-2.222-1.53-3.74-1.189-1.671.378-2.942 1.783-3.226 3.995-.418 3.347 1.1 5.398 3.397 5.777 1.405.216 2.695-.234 3.474-1.153.15-.18.303-.395.398-.61l.019 1.654h1.348V17.431h-1.462zm-5.713 3.526c-.02-1.15.19-1.98.607-2.644.93-1.495 3.114-1.656 4.308-.252.515.61.798 1.366.837 2.536.094 2.249-.874 3.58-2.26 3.923-1.708.414-3.169-.63-3.454-2.861a8.318 8.318 0 0 1-.038-.702z" fill="#7fc600" id="Fill-58" style="stroke-width:.183796"/><path d="m90.087 21.84 3.302 9.61h1.54l2.335-6.894c.075-.232.148-.611.245-1.26 0-.106.02-.215.02-.322.018.107.018.216.038.323.075.63.17 1.008.247 1.26l2.297 6.893h1.538l3.303-9.61h-1.519l-2.203 6.801c-.227.757-.304 1.097-.341 1.638-.039-.576-.114-.936-.38-1.708l-2.24-6.732h-1.463l-2.258 6.748c-.207.63-.264.864-.322 1.26-.02.143-.039.288-.057.432-.04-.558-.096-.864-.344-1.638l-2.181-6.802z" fill="#7fc600" id="Fill-59" style="stroke-width:.183796"/><path d="M114.98 27.04c.02-.216.02-.413.02-.612 0-1.17-.23-2.086-.571-2.735-1.197-2.322-4.65-2.788-6.586-.72-.61.648-1.027 1.457-1.214 2.5-.741 3.923 1.934 6.552 5.71 6.03.497-.074.99-.18 1.464-.36.21-.073.398-.163.607-.252l-.532-1.043-.113.036-.227.089c-.626.216-1.123.324-1.577.36-2.125.162-3.568-.88-3.912-2.843-.018-.145-.035-.307-.055-.45zm-6.931-1.134c0-.18.02-.378.078-.557.283-1.352 1.1-2.178 2.126-2.429 1.671-.395 3.057.575 3.285 2.5.016.162.016.325.016.486z" fill="#7fc600" id="Fill-60" style="stroke-width:.183796"/><path d="M117.81 31.449h1.441v-5.003c0-2.448.972-3.438 2.698-3.257.133.017.284.036.417.071l.493-1.295a2.614 2.614 0 0 0-1.48-.233c-.836.09-1.577.575-2.088 1.421a1.543 1.543 0 0 0-.132.252v-1.567h-1.349z" fill="#7fc600" id="Fill-61" style="stroke-width:.183796"/><path fill="#7fc600" id="Fill-62" style="stroke-width:.183796" d="M124.32 17.43V31.45h1.445v-4.59l4.707 4.59h1.956l-5.676-5.4 5.087-4.21h-1.955l-4.119 3.51V17.43z"/><path d="M141.33 27.04c.02-.216.02-.413.02-.612 0-1.17-.226-2.086-.569-2.735-1.196-2.322-4.651-2.788-6.586-.72-.609.648-1.026 1.457-1.215 2.5-.74 3.923 1.934 6.552 5.712 6.03.497-.074.988-.18 1.463-.36.21-.073.398-.163.607-.252l-.532-1.043-.113.036-.227.089c-.626.216-1.122.324-1.576.36-2.128.162-3.569-.88-3.913-2.843l-.054-.45zm-6.929-1.134c0-.18.021-.378.078-.557.283-1.352 1.1-2.178 2.126-2.429 1.672-.395 3.057.575 3.285 2.5.018.162.018.325.018.486z" fill="#7fc600" id="Fill-63" style="stroke-width:.183796"/><path d="M83.446 22.972h1.727v5.776c0 2.123 1.178 3.148 3.57 2.735.246-.055.493-.107.721-.198l-.342-1.097c-.114.054-.246.072-.36.107-1.539.306-2.145-.233-2.145-1.726v-5.597h2.2v-1.133h-2.2v-2.447h-1.463v2.447h-1.708z" fill="#7fc600" id="Fill-64" style="stroke-width:.183796"/><path d="M54.249 18.777c-.17-.054-.341-.108-.53-.161-3.229-.972-5.772.253-6.361 2.05-.57 1.782.171 3.042 3.095 4.536l1.063.538c1.745.918 2.164 1.602 1.86 2.79-.38 1.53-2.41 2.393-5.068 1.367l-.23-.09-.19-.071-.683 1.133c.267.125.514.234.78.323 3.436 1.189 6.303-.161 6.927-2.392.458-1.637-.094-2.844-1.763-3.851a17.519 17.519 0 0 0-.551-.324l-.664-.323-.4-.198c-.19-.09-.38-.18-.55-.288-2.032-1.043-2.467-1.818-2.032-2.934.418-1.098 2.051-1.816 4.423-1.078l.153.035.133.055z" fill="#7fc600" id="Fill-65" style="stroke-width:.183796"/></g></svg>