<svg width="800" height="320" xml:space="preserve" xmlns="http://www.w3.org/2000/svg"><path d="M0 0h800v320H0z" fill="#fff" style="display:inline;fill:none;stroke-width:.800002"/><path fill-rule="evenodd" clip-rule="evenodd" fill="#0093d3" d="M161.445 1.02h474.462c9.136 0 16.546 6.903 16.546 15.43v287.783c0 8.527-7.41 15.43-16.546 15.43H161.445c-9.136 0-16.546-6.903-16.546-15.43V16.45c0-8.527 7.41-15.43 16.546-15.43" style="stroke-width:1.01511"/><path fill="#fff" d="M593.983 142.83c0-27.813-20.81-50.45-46.29-50.45H447.402l-15.633 62.937-15.632-62.937h-36.544l-15.633 62.937-15.633-62.937h-90.852c-24.464 0-44.36 19.592-44.36 43.65 0 7.715 2.132 15.43 6.09 22.028 4.975 7.105 27.104 19.693 48.421 31.772l2.03 1.117c1.422.812 5.279 4.06 5.279 6.395 0 3.655-2.132 5.482-6.395 5.482h-55.527v37.457h66.592c24.87 0 45.172-18.17 45.172-40.502 0-12.79-6.497-24.566-17.866-32.281-6.09-3.959-14.922-9.136-23.55-14.11-10.558-6.192-20.607-12.08-24.465-15.024-1.32-1.015-1.42-1.928-1.42-3.248v-.609c0-1.726 1.217-3.553 4.466-3.553h55.932l30.149 109.429h32.382l17.561-72.174 17.359 72.174h32.28l30.149-109.327h2.944v109.327h44.461v-47h22.536c25.479 0 46.289-22.637 46.289-50.552zm-57.76 15.532h-11.065V127.3h11.065c8.73 0 15.937 7.004 15.937 15.53 0 8.528-7.207 15.532-15.937 15.532z" style="stroke-width:1.01511"/></svg>