<svg fill-rule="evenodd" stroke-linejoin="round" stroke-miterlimit="1.414" xmlns="http://www.w3.org/2000/svg" viewBox="0 0 800 320"><path d="M0 0h800v320H0Z" fill="#fff" style="stroke-width:.8"/><g fill-rule="nonzero"><path d="M485.413 317.14h12.177v-29.314c0-12.628 8.568-24.353 21.196-24.353 9.921 0 11.725 7.215 11.725 15.784v37.883h22.098v-9.47h-9.921v-31.118c0-16.236-6.314-24.353-21.196-24.353-16.236 0-23.451 12.176-24.804 15.333h-.451s.45-1.804.45-3.608v-3.157c0-4.51-2.705-7.215-8.117-7.215H474.14v9.47h7.666c1.804 0 2.706.902 2.706 2.706v51.413zM272.55 278.355h-26.608l11.275-31.117c.902-3.608 2.255-6.765 2.255-6.765h.45s.903 3.157 2.256 6.765zm25.255 38.785-3.157-9.47-28.412-78.922h-14.882l-28.413 78.921h-8.568v9.47h17.589l3.157-9.47 7.215-20.745h32.02l7.215 20.745 3.157 9.47zm48.255-28.412c0 9.47-6.764 20.745-17.588 20.745-7.216 0-11.275-4.961-11.275-10.824 0-12.176 19.843-11.274 25.706-11.274h3.157zm21.196 28.412v-9.47h-6.313c-1.804 0-2.706-.903-2.706-2.707v-28.412c0-16.235-8.569-24.353-24.804-24.353-14.883 0-23.902 7.667-23.902 7.667l4.96 8.568s8.118-6.313 18.04-6.313c7.666 0 13.53 3.608 13.53 13.53v2.254H342c-10.372 0-36.98 1.353-36.98 21.196 0 13.079 10.372 18.941 21.196 18.941 15.333 0 20.745-13.53 20.745-13.53h.45s-.45 1.805-.45 4.06v.902c0 4.059 2.255 6.764 7.666 6.764h12.627zm12.177-18.04c0 14.883 7.666 18.49 16.686 18.49 2.706 0 5.412-.45 5.412-.45v-9.922h-3.157c-5.412 0-6.764-3.608-6.764-9.02v-69.45h-22.55v9.47h10.373zm75.765-20.744h-33.373c1.804-9.921 9.02-16.236 18.49-16.236 8.118 0 14.883 5.863 14.883 16.236m12.627 3.608c0-16.236-9.47-29.764-27.51-29.764s-31.568 13.078-31.568 33.372c0 18.941 13.53 33.373 33.372 33.373 15.334 0 24.804-8.569 24.804-8.569l-4.96-9.02s-7.667 7.216-18.942 7.216c-11.274 0-21.196-7.666-21.647-21.196h46c0-.45.451-3.608.451-5.412m21.196-245.333L405.59 158.845l7.666 10.824 75.765-110.49Z" fill="#111"/><path d="M517.433 143.06V1.454h-34.726l-92.902 134.843 7.667 11.275 91.55-133.04h15.784v115.451h-49.608l9.47 13.079z" fill="#747675"/><path d="m543.59 19.492-12.628-18.04V156.59H474.14l9.02 13.079h60.43zM322.158 36.63l-83.431 122.215 7.666 10.824 75.765-110.49z" fill="#111"/><path d="M350.57 143.06V1.454h-35.177l-92.902 134.843 8.118 11.275 91.55-133.04h15.784v115.451h-49.608l9.02 13.079z" fill="#747675"/><path d="m376.276 19.492-12.628-18.04V156.59h-56.372l9.02 13.079h59.98z" fill="#111"/></g></svg>