<svg xmlns="http://www.w3.org/2000/svg" viewBox="0 0 800.158 329" xmlns:v="https://vecta.io/nano"><path d="M.158 0h800v329h-800Z" fill="#fff"/><path d="M290.48 105.461c-.758.418-1.075 1.225-1.587 1.847a27.11 27.11 0 0 1-4.019 3.976 24.238 24.238 0 0 0-2.125 1.836 66.44 66.44 0 0 0-5.951 5.204 29.302 29.302 0 0 0-4.075 5.583c-.24.453-.81.678-.758 1.248a1.731 1.731 0 0 1-1.483-.467 48.977 48.977 0 0 0-10.807-6.667 55.071 55.071 0 0 0-6.785-2.726 37.19 37.19 0 0 0-5.542-1.463c-.99-.17-1.97-.506-2.971-.592s-1.956-.293-2.92-.427a21.242 21.242 0 0 1-2.617-.273 21.516 21.516 0 0 0-5.204-.283c-1.769-.04-3.557.066-5.328-.036-.92-.056-1.71.412-2.612.37a8.226 8.226 0 0 0-2.468.24c-.816.21-1.725.23-2.597.374-1.702.283-3.368.703-5.053 1.109-1.884.467-3.706 1.17-5.558 1.786a32.321 32.321 0 0 0-3.304 1.38 29.345 29.345 0 0 1-3.418 1.483c-1.215.374-2.15 1.374-3.474 1.389-1.133.846-2.582 1.118-3.68 2.038a7.966 7.966 0 0 1-1.205.591l-6.697 4.106-5.255 3.672c-.796.592-1.458 1.344-2.274 1.946a55.191 55.191 0 0 0-5.707 5.348l-1.591 1.601a74.105 74.105 0 0 0-5.733 7.15L164.946 151c-.03.05-.204 0-.394 0a4.009 4.009 0 0 1-.083-1.516V63.242a33.975 33.975 0 0 1-.328-4.712 4.824 4.824 0 0 0 0-.707l.447-.448h253.375l.394.395v92.508l-.417.394a9.317 9.317 0 0 1-2.001-2.668 93.77 93.77 0 0 0-3.67-4.931 61.016 61.016 0 0 0-7.125-7.688 72.314 72.314 0 0 0-6.599-5.444l-5.641-3.961a48.556 48.556 0 0 0-5.732-3.335 18.384 18.384 0 0 1-1.807-1.064c-.831-.505-1.768-.707-2.612-1.138a5.254 5.254 0 0 0-2.617-1.08 27.36 27.36 0 0 0-5.767-2.447 22.477 22.477 0 0 0-4.737-1.463 14.03 14.03 0 0 1-2.447-.703c-1.577-.573-3.254-.687-4.82-1.218a31.614 31.614 0 0 1-3.971-.95.34.34 0 0 0-.16 0c-1.691.135-3.329-.462-5.034-.353a47.175 47.175 0 0 1-5.81 0 28.321 28.321 0 0 0-5.671.418 12.57 12.57 0 0 0-4.295.9 23.35 23.35 0 0 0-5.906 1.363 33.095 33.095 0 0 0-3.931 1.397l-4.388 1.89a33.515 33.515 0 0 0-4.214 2.274 37.661 37.661 0 0 0-4.871 3.074l-1.97 1.468c-.253.2-.506.12-.806.164a29.935 29.935 0 0 1-2.418-3.155c-.098-.12-.134-.364-.283-.506a64.342 64.342 0 0 0-5.159-5.444l-5.696-4.522a14.17 14.17 0 0 1-3.11-3.193 24.759 24.759 0 0 1-2.185-3.3c-.066-.124-.18-.283-.385-.235v-1.561a1.897 1.897 0 0 0-1.334.114c.24.727-.202 1.377-.288 2.081z" fill="#3a456e"/><path d="M290.48 105.463c.082-.707.528-1.354.282-2.094a1.89 1.89 0 0 1 1.334-.114v1.561c-.154.505.418.806.339 1.324-.076.472.04.975-.03 1.447a7.12 7.12 0 0 0 .333 2.13c.103.712-.23 1.468.308 2.144.13.164 0 .524.02.79a3.763 3.763 0 0 0 .288 1.822c.284.506-.066 1.17.279 1.827a7.386 7.386 0 0 1 .338 2.258l.707 3.762c.203 1.258.703 2.433.9 3.653.313 1.904.945 3.716 1.402 5.578s1.243 3.567 1.842 5.363l1.713 4.464c.666 1.714 1.637 3.31 2.526 5.053v53.748l7.035 7.036h21.238a.53.53 0 0 0 .109-.104.24.24 0 0 0 .061-.134v-27.614a38.974 38.974 0 0 0 1.956-3.537 49.867 49.867 0 0 0 2.566-6.528l1.355-4.294 1.227-4.173 1.215-4.815a20.375 20.375 0 0 0 .758-3.582c.146-.922.388-1.827.722-2.698a.68.68 0 0 1 .806.462 10.11 10.11 0 0 0 .353 1.642c.18 1.412.582 2.78.895 4.151l.738 3.254 1.292 5.12c.488 1.936 1.14 3.827 1.782 5.723a51.178 51.178 0 0 0 3.198 7.394l.796 1.546v81.46H231.746V178.93a24.013 24.013 0 0 0 2.526-4.33 36.833 36.833 0 0 0 2.78-7.24 14.347 14.347 0 0 0 1.088-4.727 22.791 22.791 0 0 0 1.215-5.133 32.845 32.845 0 0 0 .776-4.393 28.191 28.191 0 0 1 .677-3.314c.19-.19.473-.015.723-.073.454.905.72 1.893.78 2.905l1.223 5.623.733 3.258c.487 2.155 1.17 4.245 1.811 6.354a67.6 67.6 0 0 0 2.453 6.742 10.288 10.288 0 0 0 2.526 4.337v9.31l-.025 9.852c-.103 3.031.661 6.01.283 9.08h21.59l6.87-6.872V146.5l1.643-3.12a30.523 30.523 0 0 0 1.498-3.094l2.382-6.763c.757-2.175 1.073-4.485 1.94-6.626 0-1.915.96-3.663.97-5.574a6.265 6.265 0 0 0 .581-2.648l.442-2.76a34.89 34.89 0 0 0 .587-4.26c.687-.915.103-2.02.505-3.031a10.068 10.068 0 0 0 .157-3.16z" fill="#9c3644"/><path d="M520.463 216.274h-.573c-.093 1.88-.996 3.608-1.026 5.517-.743 1.459-.487 3.194-1.278 4.639a13.86 13.86 0 0 1-.727 3.916c-.2 1.165-.627 2.355-.801 3.509-.2 1.318-.581 2.591-.8 3.9a48.049 48.049 0 0 1-1.011 4.583l-.826 3.516a37.668 37.668 0 0 0-1.01 5.08c-.468.418-.19 1.011-.349 1.473a10.458 10.458 0 0 0-.323 1.488l-1.14 4.692c-.123.432-.02.842-.133 1.233a8.366 8.366 0 0 1-.423.996h-7.91l-1.083-5.053a9.507 9.507 0 0 0-.91-3.489 13.224 13.224 0 0 0-.712-3.92 9.07 9.07 0 0 0-.892-3.49 14.496 14.496 0 0 0-.723-3.92c-.184-1.16-.573-2.355-.795-3.514l-.82-3.89-.781-3.521-.832-3.885-.776-3.537-.831-3.88-.79-3.521a27.09 27.09 0 0 1-.758-3.731c-.02-.592-.524-1.031-.359-1.647.088-.324-.4-.443-.328-.837a9.147 9.147 0 0 0 .014-1.397l6.682-.066a5.524 5.524 0 0 1 .736 2.36 53.93 53.93 0 0 0 1.215 5.472c.22.631-.134 1.379.411 1.93.086 1.95.91 3.79.97 5.737.692.577-.056 1.582.646 2.155-.169.758.288 1.417.303 2.13 0 .785.582 1.478.339 2.288.548 1.488.606 3.085 1.01 4.598l.857 3.98.78 4.07.842 3.987.723 3.757c0 .06.124.103.194.159l1.309-5.917.8-3.89a45.344 45.344 0 0 1 1.031-4.577c.13-.385.194-.789.194-1.195-.03-.452.314-.728.38-1.155l.974-5.08c.647-.533-.086-1.488.602-2.02-.164-.758.252-1.417.384-2.12l.955-4.597c.631-.539-.061-1.478.601-2.02a5.024 5.024 0 0 1 .39-2.115l.785-3.522a34.516 34.516 0 0 0 .74-3.577c.03-.389.253-.558.473-.815h8.2a5.264 5.264 0 0 1 .703 2.308l.861 3.845c.22.678.238 1.392.407 2.085l.757 3.417c.112 1.154.417 2.281.9 3.335a14.12 14.12 0 0 0 .688 3.767 29.547 29.547 0 0 0 1.06 4.721 19.71 19.71 0 0 1 .473 2.213 45.624 45.624 0 0 1 1.01 5.08c.662.586 0 1.566.647 2.16a5.224 5.224 0 0 0 .384 2.114l.97 4.438c.139.56 0 1.263.308 1.623.4.505.088 1.045.411 1.516a8.884 8.884 0 0 0 .758-3.032 5.534 5.534 0 0 0 .39-2.273c.727-.506-.079-1.498.646-1.996a13.22 13.22 0 0 1 .717-3.92 8.723 8.723 0 0 1 .897-3.49 5.601 5.601 0 0 1 .323-2.124l1.094-5.053a3.763 3.763 0 0 0 .184-1.2c-.02-.447.328-.717.375-1.155.129-1.359.671-2.657.836-3.996s.564-2.587.8-3.89a12.44 12.44 0 0 1 .832-3.522c.279-.543-.154-1.263.407-1.768.035-1.75.79-3.368.98-5.17h6.383a5.404 5.404 0 0 1-.38 3.017l-.82 3.522c-.548 1.831-.707 3.761-1.263 5.613a22.99 22.99 0 0 0-.563 2.678l-.505 2.706-1.046 4.572a3.813 3.813 0 0 0-.184 1.2c.02.448-.314.73-.38 1.155a43.232 43.232 0 0 1-1.035 5.053 3.523 3.523 0 0 0-.205 1.195c.035.452-.313.727-.374 1.155l-.975 5.08c-.651.533.078 1.488-.606 2.02a5.009 5.009 0 0 1-.39 2.115l-.757 3.536a29.552 29.552 0 0 0-.82 3.885 8.086 8.086 0 0 0-.294 1.966c-.656.389-.02 1.242-.621 1.702-.154.119-.02.611-.02 1.01h-7.93a4.203 4.203 0 0 1-.713-2.318c-.093-.718-.558-1.37-.389-2.12-.672-.543-.124-1.384-.523-2.051a3.973 3.973 0 0 1-.423-1.91c-.014-.735-.558-1.369-.348-2.124a28.091 28.091 0 0 1-1.155-4.682 19.42 19.42 0 0 1-.757-3.72 7.84 7.84 0 0 0-.4-1.633l-1.263-5.613a32.809 32.809 0 0 0-1.263-5.285 11.829 11.829 0 0 0-.702-3.757l-1.084-4.855a17.873 17.873 0 0 1-.834-4.409z" fill="#3d4870"/><path d="M621.34 260.307l-.505.506h-6.315V207.99l.394-.394h7.996l1.877 3.95c.2.506.473.992.698 1.489l2.617 5.701q1.657 3.59 3.31 7.185l3.422 7.467 3.402 7.473 3.065 6.806 1.387 3.14c.066-.025.114-.03.139-.056s.086-.083.086-.124v-43.012h6.442v53.178h-8.24l-2.92-6.144-3.846-8.417c-.533-1.185-1.21-2.309-1.617-3.537-.656-1.945-1.9-3.618-2.473-5.608-.202-.51-.447-1-.735-1.468-1.627-3.194-2.807-6.601-4.588-9.726a23.377 23.377 0 0 0-1.735-3.966c-.477-1.263-1.134-2.483-1.856-4.024z" fill="#3f4a72"/><path d="M799.875 260.82h-8.205a3.282 3.282 0 0 1-1.01-1.716c-.324-1.01-.915-1.884-1.3-2.855-.757-1.894-1.801-3.662-2.422-5.618a15.885 15.885 0 0 0-.902-1.72q-2.18-4.672-4.332-9.347l-3.418-7.463-3.97-8.687-1.847-3.916-.77-1.956a.88.88 0 0 0-.15.13.27.27 0 0 0-.05.139v42.984h-6.316c-.252-1.412-.353-46.397-.109-53.248h8.192c.637.462.577 1.263.895 1.884a187.04 187.04 0 0 1 2.981 6.19l3.07 6.8c1.17 2.694 2.422 5.349 3.662 8.007l3.204 7.073c1.093 2.398 2.313 4.747 3.269 7.2.688 1.768 1.796 3.34 2.34 5.168.098.334.179.806.722.925v-43.198c2.17-.13 4.294-.025 6.462-.071zm-667.962.03v-53.304c4.294 0 8.533-.13 12.767.066a28.802 28.802 0 0 1 5.532.621 23.418 23.418 0 0 1 3.012.897 28.211 28.211 0 0 1 3.854 1.99 9.811 9.811 0 0 1 1.847 1.385 21.289 21.289 0 0 1 4.322 4.986 24.498 24.498 0 0 1 2.9 6.712 18.324 18.324 0 0 0 .882 3.502c.033.097.048.2.045.303.287 2.525.383 5.068.288 7.607a11.348 11.348 0 0 0-.273 2.612 7.406 7.406 0 0 1-.406 2.597 25.485 25.485 0 0 1-.806 3.362c-.41 1.07-.786 2.14-1.278 3.184a44.713 44.713 0 0 1-3.17 5.154c-1.134 1.725-2.977 2.546-4.343 3.945-1.108.329-1.914 1.2-3.069 1.562-1.109.348-2.16 1.01-3.334 1.288a9.933 9.933 0 0 1-2.02.523c-.597 0-1.052.411-1.638.374-.505-.03-1.059-.149-1.488.303-.056.056-.21.02-.318 0-2.228-.252-4.414.423-6.642.339s-4.412-.01-6.664-.01zm6.768-6.129a38.249 38.249 0 0 0 9.094-.601 21.269 21.269 0 0 0 4.65-2.039 15.935 15.935 0 0 0 3.05-2.75 12.2 12.2 0 0 0 2.875-4.943 14.651 14.651 0 0 0 1.283-5.274c.582-.637.365-1.433.289-2.125-.093-.826.432-1.493.364-2.289a12.14 12.14 0 0 0-.15-3.493c-.432-1.11.057-2.24-.432-3.368-.333-.78-.379-1.768-.646-2.637a20.661 20.661 0 0 0-2.91-5.911 15.712 15.712 0 0 0-5.517-4.264 6.195 6.195 0 0 0-2.458-.698c-.688-.738-1.782.078-2.473-.646h-7.03z" fill="#3d4870"/><path d="M696.845 253.999v-16.673h-8.99l-.026-5.825h15.433v27.031a42.212 42.212 0 0 1-5.578 1.687l-3.598.683c-2.2.37-4.438.44-6.657.21a17.803 17.803 0 0 1-5.093-.902 21.656 21.656 0 0 1-4.66-1.985 23.665 23.665 0 0 1-5.85-5.383 29.112 29.112 0 0 1-3.032-5.224 12.24 12.24 0 0 1-1.263-3.499l-.757-4.07a22.587 22.587 0 0 1-.235-3.916c0-.687-.38-1.263-.39-1.965-.02-.862.423-1.601.38-2.448a8.516 8.516 0 0 1 .02-2.413 40.95 40.95 0 0 1 1.57-6.61 36.447 36.447 0 0 1 2.15-4.608 22.807 22.807 0 0 1 3.613-4.778 25.342 25.342 0 0 1 4.294-3.223 23.698 23.698 0 0 1 6.404-2.483 10.538 10.538 0 0 1 3.403-.406 31.804 31.804 0 0 0 4.517 0c1.308.043 2.61.176 3.9.399a15.061 15.061 0 0 1 3.474.925c.852.273 1.678.636 2.468.944v6.677c-.422.385-.573-.098-.825-.204a41.02 41.02 0 0 0-6.806-2.299 19.364 19.364 0 0 0-6.195-.563 19.575 19.575 0 0 0-3.971.9 13.734 13.734 0 0 0-3.572 1.9 15.214 15.214 0 0 0-5.459 6.747 30.223 30.223 0 0 0-1.606 5.318 23.538 23.538 0 0 0-.268 4.717 27.52 27.52 0 0 0 .04 4.835 32.734 32.734 0 0 0 1.094 5.343 27.21 27.21 0 0 0 1.768 4.434 14.265 14.265 0 0 0 4.645 5.479c1.22.805 2.627 1.21 3.88 1.94.758-.194 1.374.505 2.12.333.606-.149 1.059.375 1.642.334.539-.03 1.079.014 1.617 0a20.022 20.022 0 0 0 6.4-1.354z" fill="#3c476f"/><path d="M94.07 207.577h7.38l1.731 5.419 1.632 5.13 3.032 8.905 2.562 7.985 2.561 7.806c.375 1.412.98 2.731 1.334 4.145s.945 2.832 1.407 4.255l1.314 4.135c.622 1.586 1.011 3.233 1.592 4.83a2.452 2.452 0 0 1 0 .622l-7.04.05a12.79 12.79 0 0 0-.718-2.494l-1.96-6.457-1.264-4.312c-.066-.313-.338-.395-.467-.627H87.357l-4.294 13.822h-6.821l8.893-26.723 8.935-26.493zm3.387 7.23l-1.956 6.316-2.746 8.543-1.866 5.83c-.678 1.797-1.124 3.691-1.697 5.579h16.168a4.774 4.774 0 0 0-.071-1.473l-1.314-4.14-2.13-6.692-1.97-6.601-.945-2.832a39.18 39.18 0 0 0-1.473-4.53zm467.683 45.998h-6.445c-.39-1.263.422-2.334.712-3.479.463-1.841 1.31-3.552 1.857-5.368a7.88 7.88 0 0 1 .722-2.13c.37-.573.304-1.422.564-2.02.533-1.2.876-2.438 1.334-3.65a8.426 8.426 0 0 1 .621-2.006 10.068 10.068 0 0 0 .622-1.996l1.349-3.79 3.12-9.206 4.14-12.328 2.02-6.274c.119-.338.264-.666.433-.98h7.227l2.33 6.8 2.667 8.264 2.488 7.524 2.329 7.273a49.825 49.825 0 0 0 1.442 4.403l1.417 4.26 2.355 7.26 2.154 6.374a3.092 3.092 0 0 1 .014 1.04h-6.758c-.505-.199-.447-.96-.631-1.472l-2.213-6.99-1.299-4.152a5.594 5.594 0 0 1-.134-1.139h-20.195l-4.246 13.784zm14.604-45.62a1.341 1.341 0 0 0-.758 1.051c-.432 2.483-1.571 4.747-2.19 7.17-.428 1.682-1.239 3.284-1.618 4.961-.553 2.453-1.622 4.727-2.154 7.19a48.286 48.286 0 0 1-1.875 5.527h16.613a20.128 20.128 0 0 1-.857-2.78l-1.263-4.16-1.263-4.156c-.303-1.397-.915-2.726-1.278-4.145s-.857-2.87-1.339-4.28l-2.02-6.381z" fill="#3d4870"/><path d="m404.62 254.656.505.505v5.257l-.411.412h-25.235l-.443-.4v-52.444l.39-.384h24.34l.447.452a26.294 26.294 0 0 1-.303 5.628h-17.762v16.439h17.032v6.153h-17.032v18.38zm317.833-47.08h24.773v6.063h-18.008v16.452h16.838a1.641 1.641 0 0 1 .19.169c.03.038.05.085.055.134v5.85h-17.045v18.442h18.917v6.134h-25.72Z" fill="#404b72"/><path d="M.734 259.172v-6.955c.564-.328.877.252 1.22.41a34.166 34.166 0 0 0 5.265 2.12 10.608 10.608 0 0 0 4.583.568 10.198 10.198 0 0 0 4.009-1.223 8.486 8.486 0 0 0 3.233-3.343l.728-1.546a9.747 9.747 0 0 1 .268-1.745 9.157 9.157 0 0 0-1.278-5.41 15.409 15.409 0 0 0-3.15-3.155c-2.35-1.861-5.07-3.15-7.503-4.87a25.039 25.039 0 0 1-4.8-4.01 20.435 20.435 0 0 1-2.525-4.124c-.23-.453.134-1.08-.41-1.448.16-1.533-.568-3.006-.323-4.547a6.935 6.935 0 0 0 .338-2.13c-.098-.677.38-1.242.506-1.877a5.781 5.781 0 0 1 .785-1.935 13.095 13.095 0 0 1 3.05-3.598 17.963 17.963 0 0 1 5.372-2.663 9.097 9.097 0 0 1 2.557-.442 39 39 0 0 1 5.164 0 20.295 20.295 0 0 1 6.742 1.702v6.404l-2.354-.985a23.207 23.207 0 0 0-3.767-1.059 22.026 22.026 0 0 0-2.945-.283 8.4 8.4 0 0 0-4.518 1.195 7.055 7.055 0 0 0-3.188 3.648c-.39.894-.215 1.914-.642 2.802a7.806 7.806 0 0 0 1.73 4.623 25.129 25.129 0 0 0 4.32 3.633l3.768 2.202a25.906 25.906 0 0 1 6.985 5.702 12.92 12.92 0 0 1 2.966 6.697c.175 1.079.26 2.17.252 3.263a16.056 16.056 0 0 1-2.273 7.935 11.644 11.644 0 0 1-4.8 4.511 17.093 17.093 0 0 1-3.603 1.428c-.878.275-1.787.444-2.706.505-1.516 0-3.031-.073-4.517.025-.872.066-1.606-.404-2.453-.358a14.21 14.21 0 0 1-2.35-.534c-1.319-.15-2.418-.942-3.737-1.137z" fill="#3c4770"/><path d="M51.48 213.682H39.628l-.438-.437v-5.25l.39-.39h30.478l.39.405v5.234l-.438.437H58.27v46.928a2.052 2.052 0 0 1-.165.184.285.285 0 0 1-.134.056h-6.488z" fill="#3e4971"/><path d="M198.095 213.627v47.158h-6.687c.04.03 0 0-.04-.035a.258.258 0 0 1-.061-.135v-46.902h-12.234v-5.722l.39-.39h30.554v6.026z" fill="#3f4a72"/><path d="M428.753 207.602v47.064h16.905l.524.523v5.204l-.506.433h-23.514a.9.9 0 0 1-.506-.996 3.182 3.182 0 0 0 0-.487v-51.03l.03-.309.4-.404z" fill="#404a72"/><path d="M460.136 207.582h6.606l.447.447v46.67h17.065v5.99c-1.329.237-18.558.323-24.115.103z" fill="#404b72"/></svg>