<?xml version="1.0" encoding="UTF-8" standalone="no"?>
<!-- Generator: Adobe Illustrator 28.0.0, SVG Export Plug-In . SVG Version: 6.00 Build 0)  -->

<svg
   version="1.1"
   id="Ebene_1"
   x="0px"
   y="0px"
   viewBox="0 0 800.00002 320"
   xml:space="preserve"
   sodipodi:docname="Stadt Konstanz.svg"
   width="800"
   height="320"
   inkscape:version="1.3.2 (091e20e, 2023-11-25, custom)"
   xmlns:inkscape="http://www.inkscape.org/namespaces/inkscape"
   xmlns:sodipodi="http://sodipodi.sourceforge.net/DTD/sodipodi-0.dtd"
   xmlns="http://www.w3.org/2000/svg"
   xmlns:svg="http://www.w3.org/2000/svg"><defs
   id="defs3" /><sodipodi:namedview
   id="namedview3"
   pagecolor="#ffffff"
   bordercolor="#000000"
   borderopacity="0.25"
   inkscape:showpageshadow="2"
   inkscape:pageopacity="0.0"
   inkscape:pagecheckerboard="0"
   inkscape:deskcolor="#d1d1d1"
   inkscape:zoom="1.6048167"
   inkscape:cx="400.04568"
   inkscape:cy="160.45446"
   inkscape:window-width="1920"
   inkscape:window-height="1009"
   inkscape:window-x="-8"
   inkscape:window-y="-8"
   inkscape:window-maximized="1"
   inkscape:current-layer="Ebene_1" />
<style
   type="text/css"
   id="style1">
	.st0{fill:#E40521;}
</style>
<path
   d="M 0,0 H 800 V 320 H 0 Z"
   fill="#ffffff"
   image-rendering="optimizeQuality"
   shape-rendering="geometricPrecision"
   style="clip-rule:evenodd;fill-rule:evenodd;stroke-linejoin:round;stroke-miterlimit:2"
   id="path1-1" /><g
   id="g3"
   transform="matrix(4.7692863,0,0,4.7692863,-72.72473,-43.00946)">
	<path
   d="m 103.1,45 c -0.9,-0.6 -2,-0.8 -3.3,-0.8 -1.3,0 -2.4,0.3 -3.3,0.8 -0.9,0.6 -1.6,1.3 -2.1,2.3 -0.5,1 -0.8,2.2 -0.8,3.5 0,1.3 0.3,2.5 0.8,3.5 0.5,1 1.2,1.8 2.1,2.3 0.9,0.6 2,0.8 3.3,0.8 1.3,0 2.4,-0.3 3.3,-0.8 0.9,-0.5 1.6,-1.3 2.1,-2.3 0.5,-1 0.8,-2.2 0.8,-3.5 0,-1.3 -0.3,-2.5 -0.8,-3.5 -0.4,-1 -1.1,-1.7 -2.1,-2.3 z m -0.5,8 c -0.2,0.6 -0.6,1.1 -1,1.5 -0.5,0.4 -1,0.6 -1.7,0.6 -0.7,0 -1.3,-0.2 -1.7,-0.6 -0.5,-0.4 -0.8,-0.9 -1,-1.5 -0.2,-0.6 -0.3,-1.4 -0.3,-2.1 0,-0.8 0.1,-1.5 0.3,-2.1 0.2,-0.6 0.6,-1.2 1,-1.5 0.5,-0.4 1,-0.6 1.7,-0.6 0.7,0 1.3,0.2 1.7,0.6 0.5,0.4 0.8,0.9 1,1.5 0.2,0.6 0.3,1.4 0.3,2.1 0.1,0.7 -0.1,1.4 -0.3,2.1 z m -16,-5.2 6.7,9.5 h -3.8 l -5.1,-7.4 -1.9,2.3 v 5.1 H 79.4 V 40 h 3.1 v 7.9 h 0.2 L 89.4,40 h 3.8 z m 1.8,-19.7 c 0.3,-0.4 0.4,-0.8 0.4,-1.3 0,-0.4 -0.1,-0.8 -0.4,-1.1 -0.3,-0.3 -0.6,-0.5 -1.1,-0.7 -0.5,-0.2 -1,-0.4 -1.6,-0.5 l -2,-0.5 c -1.4,-0.4 -2.5,-0.9 -3.4,-1.7 -0.8,-0.7 -1.2,-1.7 -1.2,-3 0,-1 0.3,-1.9 0.8,-2.7 0.6,-0.8 1.3,-1.4 2.3,-1.8 1,-0.4 2,-0.6 3.2,-0.6 1.2,0 2.3,0.2 3.2,0.6 0.9,0.4 1.6,1 2.2,1.8 0.5,0.7 0.8,1.6 0.8,2.6 h -3 c -0.1,-0.7 -0.4,-1.3 -1,-1.7 -0.6,-0.4 -1.3,-0.6 -2.3,-0.6 -0.7,0 -1.2,0.1 -1.7,0.3 -0.5,0.2 -0.8,0.5 -1.1,0.8 -0.2,0.3 -0.4,0.7 -0.4,1.2 0,0.4 0.1,0.7 0.2,0.9 0.2,0.3 0.4,0.5 0.7,0.7 0.3,0.2 0.6,0.3 1,0.5 0.3,0.1 0.7,0.2 1.1,0.3 l 1.6,0.4 c 0.7,0.2 1.3,0.4 1.9,0.6 0.6,0.3 1.1,0.6 1.6,1 0.5,0.4 0.9,0.9 1.1,1.4 0.3,0.6 0.4,1.2 0.4,2 0,1 -0.3,1.9 -0.8,2.7 -0.5,0.8 -1.3,1.4 -2.2,1.8 -1,0.4 -2.1,0.6 -3.5,0.6 -1.3,0 -2.5,-0.2 -3.5,-0.6 -1,-0.4 -1.8,-1 -2.3,-1.8 -0.6,-0.8 -0.9,-1.8 -0.9,-2.9 h 3.1 c 0,0.6 0.2,1.1 0.6,1.5 0.3,0.4 0.7,0.7 1.3,0.9 0.5,0.2 1.1,0.3 1.8,0.3 0.7,0 1.3,-0.1 1.8,-0.3 0.6,-0.5 1,-0.8 1.3,-1.1 z m 21.7,2.8 c 0.3,-0.3 0.6,-0.6 0.8,-1 h 0.1 v 1.8 h 2.9 V 23 c 0,-0.9 -0.2,-1.6 -0.5,-2.1 -0.3,-0.5 -0.7,-1 -1.2,-1.4 -0.5,-0.3 -1.1,-0.6 -1.7,-0.7 -0.6,-0.1 -1.2,-0.2 -1.9,-0.2 -0.9,0 -1.7,0.1 -2.5,0.4 -0.7,0.3 -1.4,0.7 -1.9,1.2 -0.5,0.5 -0.9,1.2 -1.1,2 l 2.8,0.4 c 0.2,-0.4 0.4,-0.8 0.9,-1.2 0.4,-0.3 1,-0.5 1.8,-0.5 0.7,0 1.2,0.2 1.6,0.5 0.4,0.3 0.6,0.8 0.6,1.5 V 23 c 0,0.3 -0.1,0.5 -0.3,0.6 -0.2,0.1 -0.6,0.2 -1,0.3 -0.5,0.1 -1.1,0.1 -1.8,0.2 -0.6,0.1 -1.2,0.2 -1.8,0.3 -0.6,0.1 -1.1,0.4 -1.6,0.7 -0.5,0.3 -0.8,0.7 -1.1,1.1 -0.3,0.5 -0.4,1.1 -0.4,1.8 0,0.8 0.2,1.6 0.6,2.1 0.4,0.6 0.9,1 1.5,1.3 0.7,0.3 1.4,0.4 2.2,0.4 0.7,0 1.3,-0.1 1.8,-0.3 0.5,-0.1 0.9,-0.3 1.2,-0.6 z m -3.8,-1.7 c -0.4,-0.3 -0.6,-0.7 -0.6,-1.3 0,-0.4 0.1,-0.7 0.3,-1 0.2,-0.2 0.5,-0.4 0.8,-0.6 0.4,-0.1 0.8,-0.2 1.2,-0.3 0.2,0 0.4,-0.1 0.7,-0.1 0.3,0 0.6,-0.1 0.8,-0.1 0.3,-0.1 0.5,-0.1 0.8,-0.2 0.2,-0.1 0.4,-0.1 0.5,-0.2 V 27 c 0,0.5 -0.1,0.9 -0.4,1.3 -0.3,0.4 -0.6,0.7 -1,1 -0.4,0.2 -1,0.4 -1.6,0.4 -0.5,0 -1.1,-0.2 -1.5,-0.5 z M 95.4,21.1 h -1.8 v -2.4 h 1.8 v -3.1 h 3 v 3.1 h 2.5 v 2.4 h -2.5 v 6.7 c 0,0.4 0.1,0.7 0.2,0.9 0.1,0.2 0.3,0.4 0.5,0.4 0.2,0.1 0.4,0.1 0.7,0.1 0.2,0 0.4,0 0.5,0 0.2,0 0.3,-0.1 0.4,-0.1 l 0.5,2.4 c -0.2,0.1 -0.4,0.1 -0.7,0.2 -0.3,0.1 -0.7,0.1 -1.1,0.1 -0.8,0 -1.4,-0.1 -2.1,-0.3 -0.6,-0.3 -1.1,-0.7 -1.5,-1.2 -0.4,-0.5 -0.5,-1.2 -0.5,-2 v -7.2 z m 58,24 c -0.5,-0.3 -1.1,-0.6 -1.7,-0.7 -0.6,-0.1 -1.2,-0.2 -1.9,-0.2 -0.9,0 -1.7,0.1 -2.5,0.4 -0.7,0.3 -1.4,0.7 -1.9,1.2 -0.5,0.5 -0.9,1.2 -1.1,2 l 2.8,0.4 c 0.2,-0.4 0.4,-0.8 0.9,-1.2 0.4,-0.3 1,-0.5 1.8,-0.5 0.7,0 1.2,0.2 1.6,0.5 0.4,0.3 0.6,0.8 0.6,1.5 v 0.1 c 0,0.3 -0.1,0.5 -0.3,0.6 -0.2,0.1 -0.6,0.2 -1,0.3 -0.5,0.1 -1.1,0.1 -1.8,0.2 -0.6,0.1 -1.2,0.2 -1.8,0.3 -0.6,0.1 -1.1,0.4 -1.6,0.7 -0.5,0.3 -0.8,0.7 -1.1,1.1 -0.3,0.5 -0.4,1.1 -0.4,1.8 0,0.8 0.2,1.6 0.6,2.1 0.4,0.6 0.9,1 1.5,1.3 0.7,0.3 1.4,0.4 2.2,0.4 0.7,0 1.3,-0.1 1.8,-0.3 0.5,-0.2 0.9,-0.4 1.3,-0.7 0.3,-0.3 0.6,-0.6 0.8,-1 h 0.1 v 1.8 h 2.9 v -8.6 c 0,-0.9 -0.2,-1.6 -0.5,-2.1 -0.3,-0.6 -0.8,-1.1 -1.3,-1.4 z m -1.3,7.5 c 0,0.5 -0.1,0.9 -0.4,1.3 -0.2,0.4 -0.6,0.7 -1,1 -0.4,0.2 -1,0.4 -1.6,0.4 -0.6,0 -1.2,-0.1 -1.6,-0.4 -0.4,-0.3 -0.6,-0.7 -0.6,-1.3 0,-0.4 0.1,-0.7 0.3,-1 0.2,-0.2 0.5,-0.4 0.8,-0.6 0.4,-0.1 0.8,-0.2 1.2,-0.3 0.2,0 0.4,-0.1 0.7,-0.1 0.3,0 0.6,-0.1 0.8,-0.1 0.3,-0.1 0.5,-0.1 0.8,-0.2 0.2,-0.1 0.4,-0.1 0.5,-0.2 v 1.5 z m 16.8,-6.2 c 0.4,0.7 0.5,1.6 0.5,2.6 v 8.2 h -3 v -7.8 c 0,-0.9 -0.2,-1.5 -0.7,-2 -0.4,-0.5 -1.1,-0.7 -1.8,-0.7 -0.5,0 -1,0.1 -1.4,0.3 -0.4,0.2 -0.7,0.6 -1,1 -0.2,0.4 -0.3,1 -0.3,1.6 v 7.6 h -3 V 44.3 h 2.9 v 2.2 h 0.2 c 0.3,-0.7 0.8,-1.3 1.4,-1.7 0.7,-0.4 1.5,-0.6 2.4,-0.6 0.9,0 1.7,0.2 2.3,0.6 0.6,0.3 1.1,0.9 1.5,1.6 z m -27,8.3 0.5,2.4 c -0.2,0.1 -0.4,0.1 -0.7,0.2 -0.3,0.1 -0.7,0.1 -1.1,0.1 -0.8,0 -1.4,-0.1 -2.1,-0.3 -0.6,-0.3 -1.1,-0.7 -1.5,-1.2 -0.4,-0.5 -0.5,-1.2 -0.5,-2 v -7.2 h -1.8 v -2.4 h 1.8 v -3.1 h 3 v 3.1 h 2.5 v 2.4 h -2.5 v 6.7 c 0,0.4 0.1,0.7 0.2,0.9 0.1,0.2 0.3,0.4 0.5,0.4 0.2,0.1 0.4,0.1 0.7,0.1 0.2,0 0.4,0 0.5,0 0.3,0 0.4,0 0.5,-0.1 z m 40.9,0 v 2.5 h -10.6 v -1.9 l 6.7,-8.4 v -0.1 h -6.4 v -2.5 h 10.2 v 2.1 l -6.3,8.2 v 0.1 z M 134.5,31.5 c -0.6,-0.3 -1.1,-0.7 -1.5,-1.2 -0.4,-0.5 -0.5,-1.2 -0.5,-2 v -7.2 h -1.8 v -2.4 h 1.8 v -3.1 h 3 v 3.1 h 2.5 v 2.4 h -2.5 v 6.7 c 0,0.4 0.1,0.7 0.2,0.9 0.1,0.2 0.3,0.4 0.5,0.4 0.2,0.1 0.4,0.1 0.7,0.1 0.2,0 0.4,0 0.5,0 0.2,0 0.3,-0.1 0.4,-0.1 l 0.5,2.4 c -0.2,0.1 -0.4,0.1 -0.7,0.2 -0.3,0.1 -0.7,0.1 -1.1,0.1 -0.7,0 -1.4,-0.1 -2,-0.3 z m -9.8,-0.9 c 0.3,-0.4 0.5,-0.7 0.7,-1 h 0.2 v 2 h 3 V 14.4 h -3.1 v 6.4 h -0.1 c -0.2,-0.3 -0.4,-0.6 -0.7,-1 -0.3,-0.4 -0.7,-0.7 -1.2,-0.9 -0.5,-0.3 -1.1,-0.4 -1.9,-0.4 -1,0 -1.9,0.3 -2.7,0.8 -0.8,0.5 -1.4,1.3 -1.9,2.2 -0.5,1 -0.7,2.2 -0.7,3.6 0,1.4 0.2,2.6 0.7,3.6 0.5,1 1.1,1.7 1.9,2.3 0.8,0.5 1.7,0.8 2.7,0.8 0.7,0 1.4,-0.1 1.8,-0.4 0.6,-0.2 1,-0.5 1.3,-0.8 z m -3.9,-1.8 c -0.5,-0.4 -0.8,-0.9 -1,-1.5 -0.2,-0.6 -0.3,-1.4 -0.3,-2.2 0,-0.8 0.1,-1.5 0.3,-2.1 0.2,-0.6 0.6,-1.1 1,-1.5 0.5,-0.4 1,-0.5 1.7,-0.5 0.7,0 1.2,0.2 1.7,0.5 0.5,0.3 0.8,0.8 1,1.4 0.2,0.6 0.3,1.3 0.3,2.2 0,0.8 -0.1,1.6 -0.4,2.2 -0.2,0.6 -0.6,1.1 -1,1.5 -0.5,0.4 -1,0.5 -1.6,0.5 -0.6,0.1 -1.2,-0.1 -1.7,-0.5 z m -1.5,17.6 c 0.4,0.7 0.5,1.6 0.5,2.6 v 8.2 h -3 v -7.8 c 0,-0.9 -0.2,-1.5 -0.7,-2 -0.4,-0.5 -1.1,-0.7 -1.8,-0.7 -0.5,0 -1,0.1 -1.4,0.3 -0.4,0.2 -0.7,0.6 -1,1 -0.2,0.4 -0.3,1 -0.3,1.6 v 7.6 h -3 V 44.3 h 2.9 v 2.2 h 0.2 c 0.3,-0.7 0.8,-1.3 1.4,-1.7 0.7,-0.4 1.5,-0.6 2.4,-0.6 0.9,0 1.7,0.2 2.3,0.6 0.6,0.3 1.1,0.9 1.5,1.6 z m 13.1,4.7 c 0.6,0.6 0.9,1.3 0.9,2.2 0,0.8 -0.2,1.5 -0.7,2.1 -0.5,0.6 -1.1,1.1 -1.9,1.5 -0.8,0.3 -1.8,0.5 -2.9,0.5 -1.6,0 -2.9,-0.3 -3.8,-1 -1,-0.7 -1.5,-1.6 -1.7,-2.8 l 3,-0.3 c 0.1,0.6 0.4,1 0.9,1.3 0.4,0.3 1,0.4 1.7,0.4 0.7,0 1.3,-0.1 1.7,-0.4 0.4,-0.3 0.7,-0.7 0.7,-1.1 0,-0.4 -0.1,-0.7 -0.4,-0.9 -0.3,-0.2 -0.7,-0.4 -1.3,-0.6 l -2.2,-0.5 c -1.2,-0.3 -2.2,-0.7 -2.8,-1.3 -0.6,-0.6 -0.9,-1.4 -0.9,-2.3 0,-0.8 0.2,-1.5 0.7,-2.1 0.4,-0.6 1.1,-1 1.8,-1.4 0.8,-0.3 1.7,-0.5 2.7,-0.5 1.5,0 2.7,0.3 3.6,1 0.9,0.6 1.4,1.5 1.6,2.6 l -2.8,0.3 c -0.1,-0.3 -0.2,-0.5 -0.4,-0.8 -0.2,-0.2 -0.5,-0.4 -0.8,-0.6 -0.3,-0.2 -0.7,-0.2 -1.2,-0.2 -0.6,0 -1.2,0.1 -1.6,0.4 -0.4,0.3 -0.6,0.6 -0.6,1.1 0,0.4 0.1,0.7 0.4,0.9 0.3,0.2 0.8,0.4 1.4,0.6 l 2.2,0.5 c 1.2,0.4 2.1,0.9 2.7,1.4 z"
   id="path1" />
	<g
   id="g2">
		<path
   d="M 36.9,43.9 H 23.5 V 39.3 H 36.9 V 25.7 h 4.7 V 39.2 H 55 v 4.6 H 41.6 V 57.3 H 36.9 Z M 58.4,23.5 V 46.7 C 58.4,52.5 56.5,57.6 53.1,61 49.7,64.4 45,66.2 39.2,66.2 33.4,66.2 28.7,64.3 25.3,61 21.9,57.6 20,52.5 20,46.7 V 23.5 h -4.5 v 23.4 c 0,3.5 0.6,7 1.7,9.9 1.1,2.9 2.7,5.4 4.8,7.6 2.1,2.1 4.6,3.7 7.6,4.8 2.9,1.1 6.2,1.7 9.6,1.7 3.5,0 6.7,-0.6 9.6,-1.7 2.9,-1.1 5.4,-2.7 7.6,-4.8 2.1,-2.1 3.7,-4.6 4.8,-7.6 1.1,-2.9 1.7,-6.4 1.7,-9.9 V 23.5 Z"
   id="path2" />
		<rect
   x="15.6"
   y="14.5"
   class="st0"
   width="47.400002"
   height="4.5"
   id="rect2" />
	</g>
</g>
</svg>
