<svg id="Ebene_1" data-name="Ebene 1" version="1.1" width="800.071" height="320" xmlns="http://www.w3.org/2000/svg"><defs id="defs4"><style id="style2">.cls-1,.cls-3{fill:#1a171b;stroke-width:0}.cls-3{fill:#e2001a}</style></defs><path d="M0 0h800v320H0Z" fill="#fff" style="stroke-width:.8" id="path57"/><g id="g28" transform="translate(.02 17.653) scale(4.95173)"><path class="cls-3" d="M37.98 45.59h2.47v7.92c0 3.02-1.64 4.6-5.03 4.6-3.39 0-5.03-1.71-5.03-4.62v-7.9h2.47v7.16c0 2.21.79 3.42 2.56 3.42s2.56-1.22 2.56-3.42z" id="path6"/><path class="cls-3" d="m51.09 57.9-4.71-9.21h-.04v9.21h-2.36V45.59h3.03l4.69 9.21h.04v-9.21h2.36V57.9h-3.02z" id="path8"/><path class="cls-3" d="M57.74 55.41c.88.48 1.85.76 2.79.76s2.19-.46 2.19-1.59c0-.93-.83-1.34-2.05-1.82-1.64-.63-3.35-1.32-3.35-3.63 0-2.65 1.99-3.76 4.32-3.76 1.04 0 2.03.14 2.93.44l-.23 2.03c-.83-.35-1.68-.53-2.5-.53-.92 0-1.94.42-1.94 1.71 0 .93 1.06 1.29 2.08 1.69 1.66.62 3.32 1.38 3.32 3.67s-1.69 3.72-4.64 3.72c-1.27 0-1.96-.18-3.14-.48l.23-2.22z" id="path10"/><path class="cls-3" d="M68.39 57.9V45.59h7.27v1.94h-4.8v3.03h4.39v1.94h-4.39v3.46h4.83v1.94z" id="path12"/><path class="cls-3" d="m85.31 57.9-1.43-3.7c-.35-.93-.6-1.41-1.75-1.41h-.81v5.12h-2.47V45.6h3.86c3.99 0 4.6 1.68 4.6 3.33 0 1.45-.97 2.65-2.54 2.86v.04c.53.04.99.49 1.36 1.39l1.92 4.69H85.3Zm-3.03-7.06c2.12 0 2.47-.9 2.47-1.71 0-.63-.19-1.61-2.36-1.61h-1.06v3.32z" id="path14"/><path class="cls-3" d="M90.72 57.9V45.59h7.27v1.94h-4.8v3.03h4.39v1.94h-4.39v3.46h4.83v1.94z" id="path16"/><path class="cls-3" d="M107.2 55.41c.88.48 1.85.76 2.79.76s2.19-.46 2.19-1.59c0-.93-.83-1.34-2.05-1.82-1.64-.63-3.35-1.32-3.35-3.63 0-2.65 1.99-3.76 4.32-3.76 1.04 0 2.03.14 2.93.44l-.23 2.03c-.83-.35-1.68-.53-2.5-.53-.92 0-1.94.42-1.94 1.71 0 .93 1.06 1.29 2.08 1.69 1.66.62 3.32 1.38 3.32 3.67s-1.69 3.72-4.64 3.72c-1.27 0-1.96-.18-3.14-.48l.23-2.22z" id="path18"/><path class="cls-3" d="M119.76 57.9V47.53h-3.53v-1.94h9.53v1.94h-3.53V57.9Z" id="path20"/><path class="cls-3" d="m135.21 57.9-1.06-2.82h-4.99l-1.08 2.82h-2.56l4.8-12.31h2.79l4.83 12.31zm-3.53-9.84h-.04l-1.78 5.08h3.6z" id="path22"/><path class="cls-3" d="M140.06 57.9V45.59h3.4c4.64 0 7.07 1.99 7.07 6.16s-2.42 6.16-7.06 6.16h-3.42zm3.86-1.94c2.06 0 4.04-1.55 4.04-4.22 0-2.49-1.78-4.22-4.11-4.22h-1.32v8.43h1.39z" id="path24"/><path class="cls-3" d="M155.57 57.9V47.53h-3.53v-1.94h9.53v1.94h-3.53V57.9Z" id="path26"/></g><g id="g48" transform="translate(.02 17.653) scale(4.95173)"><path class="cls-1" d="M29.92 33.73c0-3.62 2.01-6.28 5.4-6.28 3.63 0 5.43 2.89 5.43 6.28 0 3.81-1.83 6.46-5.43 6.46-3.6 0-5.4-2.54-5.4-6.46zm9.61.09c0-2.65-1.32-5.31-4.22-5.31-2.66 0-4.18 2.42-4.18 5.31 0 2.89 1.61 5.31 4.18 5.31 2.82 0 4.22-2.56 4.22-5.31z" id="path30"/><path class="cls-1" d="M43.95 39.97V27.66h5.86v1.06h-4.64v4.39h4.43v1.06h-4.43v5.8z" id="path32"/><path class="cls-1" d="M52.66 39.97V27.66h5.86v1.06h-4.64v4.39h4.43v1.06h-4.43v5.8z" id="path34"/><path class="cls-1" d="M61.53 39.97V27.66h6.03v1.06h-4.82v4.39h4.57v1.06h-4.57v4.75h5.03v1.06h-6.24z" id="path36"/><path class="cls-1" d="m78.47 39.97-6.16-10.62h-.04v10.62h-1.22V27.66h1.53l6.26 10.83h.04V27.66h1.22v12.31h-1.64z" id="path38"/><path class="cls-1" d="M83.76 39.97V27.66h2.95c2.49 0 3.88 1.02 3.88 3.03 0 1.57-.72 2.5-2.24 2.8v.04c1.66.3 2.61 1.39 2.61 2.93 0 2.47-1.87 3.51-4.75 3.51zm2.45-1.06c2.56 0 3.53-.99 3.53-2.4 0-1.76-1.18-2.42-3.53-2.42h-1.23v4.82zm.16-5.87c2.22 0 3-.99 3-2.29 0-1.39-1.02-2.03-2.66-2.03h-1.69v4.32h1.36z" id="path40"/><path class="cls-1" d="M101.82 27.66h1.22v8.06c0 3.3-2.35 4.46-4.46 4.46s-4.46-1.11-4.46-4.48v-8.04h1.22v8.06c0 1.83 1.02 3.4 3.25 3.4 1.94 0 3.25-1.23 3.25-3.46v-8.01z" id="path42"/><path class="cls-1" d="m112.94 39.97-1.68-3.92c-.69-1.62-1.15-1.89-2.26-1.89h-1.25v5.8h-1.22V27.65h3.17c2.22 0 3.62.97 3.62 3.18 0 1.57-1.15 2.65-2.73 2.86v.04c.93.12 1.18.56 1.6 1.52l2.08 4.73h-1.34zm-3.86-6.86c1.27 0 3.03-.48 3.03-2.28 0-1.62-.92-2.12-2.8-2.12h-1.55v4.39h1.32z" id="path44"/><path class="cls-1" d="M124.9 34.36h-2.86V33.3h4.07v6.12c-1.29.56-2.52.76-3.81.76-3.9 0-6.23-2.54-6.23-6.37s2.36-6.37 6.21-6.37c1.22 0 2.63.23 3.3.58l-.14 1.13c-.93-.51-2.01-.65-3.14-.65-3.25 0-5.01 2.29-5.01 5.31 0 3.02 1.71 5.31 4.99 5.31 1.06 0 2.1-.14 2.61-.44v-4.32z" id="path46"/></g><path class="cls-3" d="M112.276 17.653V33.45c0 2.427-.892 3.12-3.268 3.07h-12.28c-2.377 0-3.22-.643-3.22-3.12V17.654H75.287V33.45c0 2.427-.89 3.12-3.268 3.07h-12.28c-2.377 0-3.219-.643-3.219-3.12V17.654H38.346V33.45c0 2.427-.89 3.12-3.268 3.07h-12.28c-2.377 0-3.219-.643-3.219-3.12V17.654H.02v286.111h2.525c.1-.841.248-1.683.347-2.475 2.03-14.905 3.763-30.9 6.982-46.052 9.458-44.615 28.423-84.922 56.598-120.871 13.964-17.777 29.81-33.722 47.24-48.032 15.548-12.726 32.186-23.917 49.814-33.622 16.886-9.26 34.415-17.084 52.736-23.075 14.31-4.705 28.869-8.17 43.922-9.36v-2.624z" id="path52"/></svg>