<svg width="800" height="320" xml:space="preserve" xmlns="http://www.w3.org/2000/svg"><path d="M0 0h800v320H0z" fill="#fff" style="clip-rule:evenodd;fill-rule:evenodd;stroke-width:.8;stroke-linejoin:round;stroke-miterlimit:2"/><path d="M491.812 55.192v38.806c-2.426-3.204-29.478-38.806-29.478-38.806H446.97v70.996h15.539V83.257c2.438 3.22 32.642 42.932 32.642 42.932h12.204V55.192zM389.299 126.188V96.917h25.322v29.27h18.3V55.193h-18.3V82.73H389.3V55.192h-18.293v70.996zM248.526 94.812h10.966c7.018 0 9.873 2.477 9.873 8.533 0 6.713-3.022 9.203-11.1 9.203h-9.739zm9.827-11.807h-9.827v-14.2h10.216c5.108 0 7.278 2.089 7.278 7.015 0 5.037-2.293 7.185-7.667 7.185m15.2 5.403c7.227-3.014 10.202-7.119 10.202-14.703 0-12.113-8.297-18.51-23.968-18.51h-29.56v70.988h28.997c18.593 0 28.441-7.074 28.441-20.447-.001-9.536-4.519-14.865-14.111-17.328M317.323 100.812l8.742-24.27 8.78 24.27zm26.678 25.376h18.647l-27.228-71h-16.85l-27.624 71h17.261l4.625-12.92h26.53z"/><path fill="#e2001a" d="M166.175 20.357H20.174c-10.04 0-18.36 7.943-18.36 18.211v91.293c0 10.269 8.32 18.402 18.36 18.402h146c10.055 0 18.367-8.133 18.367-18.402V38.568c0-10.268-8.312-18.21-18.366-18.21"/><path fill="#fff" d="M171.201 129.862c0 2.908-2.13 5.234-5.027 5.234h-146c-2.889 0-5.017-2.327-5.017-5.234v-91.29c0-2.908 2.128-5.227 5.017-5.227h146c2.896 0 5.027 2.319 5.027 5.227z"/><path fill="#e2001a" d="M71.039 85.666c0-16.865-1.75-30.035-19.918-30.035h-4.062v56.97h7.152c10.637 0 16.828-8.52 16.828-26.935m-13.342 40.512H26.954V42.447h30.743c21.653 0 33.618 13.57 33.618 41.477-.001 24.23-8.097 42.06-33.618 42.254M128.27 112.602h-8.238V91.088h8.781c10.458 0 13.005 6.097 13.005 10.759 0 10.755-10.358 10.755-13.547 10.755m-8.239-57.209h6.342c8.995 0 12.574 3.144 12.574 10.074 0 5.506-3.94 10.125-10.931 10.125h-7.985zm24.386 26.979c5.932-1.572 14.64-8.33 14.64-19.491 0-1.743-.363-20.4-23.903-20.4h-35.032v83.697h29.596c7.835 0 32.273 0 32.273-23.543 0-5.882-2.399-16.946-17.574-20.263"/><path fill="#9aa3a8" d="M78.336 219.572c-9.515-4.9-15.952-6.575-24.636-6.575-10.774 0-16.368 3.781-16.368 11.06 0 5.59 1.538 7.131 15.53 14.128 15.96 7.976 21.417 15.255 21.417 28.273 0 21.417-14.974 34.143-40.311 34.143-13.433 0-23.089-2.238-33.306-7.694l3.643-18.473c11.194 6.019 18.188 7.976 28.262 7.976 11.06 0 17.916-4.612 17.916-12.173 0-3.646-1.537-6.166-5.31-8.956-2.101-1.54-2.665-1.962-12.324-7.144-13.572-7.133-18.333-14.13-18.333-26.45 0-20.86 14.134-32.885 38.77-32.885 10.637 0 19.028 1.677 28.688 5.872zM160.656 203.196c0 6.717-4.9 11.624-11.475 11.624-6.3 0-10.637-4.343-10.637-10.645 0-6.568 4.9-11.474 11.475-11.474 6.157-.001 10.637 4.343 10.637 10.495m-28.55 0c0 6.717-4.904 11.624-11.478 11.624-6.301 0-10.775-4.343-10.775-10.497 0-6.717 4.903-11.623 11.76-11.623 6.018 0 10.493 4.477 10.493 10.496m17.914 95.59h-15.115l-3.08-12.038c-10.36 9.94-18.614 14.135-27.71 14.135-10.775 0-16.931-6.58-16.931-17.775 0-2.936.271-5.321 1.116-9.51l9.24-47.866 22.953-1.822-9.103 46.745c-.556 2.661-.7 4.337-.7 5.743 0 4.33 2.382 6.86 6.719 6.86 4.202 0 7.695-1.542 14.277-6.154l10.075-51.371 22.816-1.822zM225.643 242.248c-4.058-2.522-7.138-3.506-11.619-3.506-7.413 0-12.172 3.506-15.253 11.48-2.382 5.739-4.617 17.637-4.617 23.656 0 6.71 3.217 10.497 8.955 10.497 4.756 0 8.82-1.964 15.815-7.555zm-3.22 56.538-3.78-13.01c-9.51 11.474-16.096 15.25-26.17 15.25-13.996 0-21.69-8.533-21.69-24.07 0-12.736 4.474-30.096 9.933-38.488 6.72-10.357 17.075-15.954 29.814-15.954 6.857 0 12.032 1.816 17.631 6.435l6.161-31.342c8.818-.28 14.556-1.824 17.776-4.624h5.593l-20.572 105.803zM261.755 224.33h21.972l3.636 46.325c8.258-14.411 14.696-29.103 20.577-46.605h14.552l4.48 45.775c7.696-11.905 14.978-28.977 19.596-45.495h18.611c-5.316 22.537-21.827 53.464-39.889 74.598H312.14l-3.78-39.601c-5.6 12.729-13.858 26.161-24.214 39.6h-13.713zM414.75 245.746c0-5.32-3.077-8.257-8.533-8.257-8.68 0-13.154 5.455-15.675 19.169 19.175-1.253 24.208-3.5 24.208-10.912m8.398 49.964c-10.347 4.055-16.515 5.321-25.611 5.321-20.715 0-31.909-10.082-31.909-28.695 0-14.417 4.763-28.694 12.32-37.227 7.554-8.68 18.326-13.158 31.205-13.158 16.65 0 26.731 7.978 26.731 21.274 0 11.335-6.997 19.17-20.29 22.81-7.7 2.099-12.875 2.662-27.015 3.218-.137 1.266-.137 1.964-.137 2.8 0 8.54 4.34 11.898 15.115 11.898 7.138 0 11.897-.979 22.81-4.76zM498.576 244.064c-8.4-4.484-13.855-6.02-21.415-6.02-6.57 0-10.075 2.098-10.075 6.16 0 3.218 1.963 4.893 8.961 7.836 16.228 6.857 20.296 11.2 20.296 22.253 0 17.072-10.778 26.456-30.793 26.456-11.194 0-18.199-1.676-27.576-6.724l3.085-16.092c9.651 5.315 15.951 7.131 24.062 7.131 7.278 0 10.926-2.372 10.926-6.99 0-2.521-1.126-4.338-4.062-6.02-1.823-1.118-2.239-1.254-9.933-4.47-10.778-4.625-14.84-10.363-14.84-20.437 0-15.96 10.912-25.049 30.096-25.049 9.651 0 15.531 1.395 24.346 5.872zM549.618 297.807c-4.195 1.683-9.244 2.521-14.84 2.521-14.692 0-22.112-5.598-22.112-16.515 0-2.514.28-5.181.985-8.674l6.99-35.277h-9.229l3.069-15.532h1.262c6.715 0 10.635-2.378 13.298-8.257l4.06-8.532h16.089l-3.217 16.79h16.65l-3.072 15.531H542.89l-6.435 33.312c-.415 1.543-.55 3.218-.55 4.479 0 3.927 2.514 5.736 7.828 5.736 3.084 0 5.456-.563 9.102-1.955zM589.661 282.974c3.787 2.098 6.723 2.936 10.792 2.936 6.985 0 12.172-3.35 15.108-9.512 2.936-6.159 5.738-19.041 5.738-26.032 0-6.301-3.366-9.94-8.956-9.94-4.906 0-8.538 1.824-15.818 7.419zm9.102-46.605c8.955-9.524 16.93-13.855 25.893-13.855 12.46 0 19.873 9.237 19.873 24.346 0 17.782-6.159 36.114-14.973 44.921-6.02 6.02-13.995 9.244-22.816 9.244-9.237 0-15.813-3.077-22.254-10.35l-5.597 8.112-14.686-35.13 19.585-101.178c8.821-.281 14.833-1.825 18.058-4.625h5.322zM717.263 298.786h-15.115l-3.07-12.038c-10.363 9.94-18.62 14.135-27.723 14.135-10.778 0-16.931-6.58-16.931-17.775 0-2.936.282-5.321 1.12-9.51l9.243-47.866 22.95-1.822-9.102 46.745c-.564 2.661-.697 4.337-.697 5.743 0 4.33 2.372 6.86 6.717 6.86 4.195 0 7.694-1.542 14.277-6.154l10.075-51.371 22.81-1.822zM795.29 244.064c-8.404-4.484-13.862-6.02-21.421-6.02-6.569 0-10.069 2.098-10.069 6.16 0 3.218 1.958 4.893 8.956 7.836 16.235 6.857 20.297 11.2 20.297 22.253 0 17.072-10.778 26.456-30.793 26.456-11.194 0-18.191-1.676-27.576-6.724l3.084-16.092c9.652 5.315 15.954 7.131 24.077 7.131 7.265 0 10.911-2.372 10.911-6.99 0-2.521-1.125-4.338-4.061-6.02-1.824-1.118-2.24-1.254-9.933-4.47-10.779-4.625-14.84-10.363-14.84-20.437 0-15.96 10.92-25.049 30.095-25.049 9.654 0 15.539 1.395 24.346 5.872z"/></svg>