<svg width="800" height="320" xml:space="preserve" style="clip-rule:evenodd;fill-rule:evenodd;stroke-linejoin:round;stroke-miterlimit:2" xmlns="http://www.w3.org/2000/svg"><path d="M0 0h800v320H0z" fill="#fff" style="clip-rule:evenodd;fill-rule:evenodd;stroke-width:.8;stroke-linejoin:round;stroke-miterlimit:2"/><path d="M242.861 1.59a1.664 1.664 0 0 0-1.277-.596h-6.249c-49.232 0-77.672 46.727-78.858 48.716l-4.728 7.922a1.67 1.67 0 0 0-.018 1.677c.297.521.851.844 1.45.844h78.654c.812 0 1.505-.585 1.643-1.384l.75-4.353c.034-.198 4.299-24.979 7.906-45.311l1.091-6.153a1.667 1.667 0 0 0-.364-1.362zm-20.41 45.289h-47.923c10.013-11.897 28.552-29.229 53.604-32.611a12171.873 12171.873 0 0 0-5.681 32.611zM103.817 94.914v.134l-.47 2.659c-.063.367-.282.551-.658.551h-.054c-.904-.072-1.604-.126-2.101-.161a27.474 27.474 0 0 0-1.913-.054c-1.057 0-1.948.345-2.673 1.034-.725.689-1.244 1.893-1.557 3.612l-.645 3.464a10.094 10.094 0 0 0-.161 1.678c0 1.979.927 2.968 2.78 2.968a34.623 34.623 0 0 0 2.725-.107c.305-.027.761-.063 1.37-.108h.081c.313 0 .47.139.47.416a.555.555 0 0 1-.027.135l-.497 2.672c-.063.304-.3.515-.712.631-.976.304-2.368.456-4.176.456a7.89 7.89 0 0 1-2.591-.416 6.316 6.316 0 0 1-2.162-1.262c-.636-.564-1.135-1.271-1.497-2.121-.363-.851-.544-1.818-.544-2.901 0-.698.063-1.378.188-2.041l.631-3.464c.322-1.755.794-3.205 1.417-4.351.622-1.146 1.356-2.036 2.202-2.672a7.61 7.61 0 0 1 2.773-1.323c1.002-.246 2.099-.369 3.289-.369.886 0 1.71.052 2.471.154.761.103 1.276.209 1.544.316.197.063.329.123.396.181.068.059.101.155.101.289zM118.862 99.963a.748.748 0 0 1-.027.228l-2.417 13.911a.627.627 0 0 1-.229.396.622.622 0 0 1-.402.155h-2.806c-.314 0-.471-.157-.471-.47v-.081l.108-.792c-1.361 1.056-2.78 1.584-4.257 1.584-1.038 0-1.909-.241-2.611-.725a4.135 4.135 0 0 1-1.531-1.926c-.318-.802-.477-1.677-.477-2.625 0-.457.045-.967.135-1.531l.12-.698c.054-.314.106-.622.155-.927.049-.304.105-.627.167-.967.779-4.547 3.483-6.821 8.111-6.821 1.754 0 3.652.228 5.693.685.269.062.459.132.571.208.112.076.168.208.168.396zm-4.902 2.538a13.162 13.162 0 0 0-2.107-.175c-.94 0-1.645.274-2.115.819-.47.546-.813 1.401-1.028 2.565l-.497 2.887c-.053.304-.08.608-.08.913 0 1.119.524 1.678 1.571 1.678.815 0 1.786-.322 2.914-.966zM130.966 99.144v.081l-.47 2.618c-.08.349-.246.524-.497.524h-.215c-1.208 0-2.448.317-3.719.953l-1.894 10.756a.682.682 0 0 1-.241.402.63.63 0 0 1-.416.175h-3.33c-.314 0-.471-.157-.471-.47v-.107l2.592-14.637a.674.674 0 0 1 .228-.382.598.598 0 0 1 .403-.168h3.263c.135 0 .246.042.336.127a.42.42 0 0 1 .134.316v.107l-.107.551a5.287 5.287 0 0 1 1.242-.819 4.836 4.836 0 0 1 1.282-.397c.43-.067.9-.1 1.41-.1.313 0 .47.156.47.47zM143.917 99.802v.134l-.39 2.229c-.062.349-.246.524-.55.524h-.08c-1.719-.242-3.223-.363-4.512-.363h-.108c-.474 0-.846.056-1.114.168-.269.112-.403.378-.403.799 0 .287.219.573.658.859l3.062 1.948c1.45.939 2.175 2.076 2.175 3.41 0 1.262-.307 2.296-.92 3.102-.613.805-1.428 1.387-2.444 1.745-1.016.358-2.16.537-3.431.537-.796 0-1.629-.051-2.497-.154a17.009 17.009 0 0 1-2.404-.45c-.277-.08-.416-.241-.416-.483v-.148l.416-2.229c.063-.349.273-.523.631-.523h.081a39.634 39.634 0 0 0 3.377.335c.595.036 1.014.054 1.255.054.573 0 1.019-.074 1.337-.222.317-.147.476-.485.476-1.014 0-.376-.278-.742-.832-1.101l-3.21-2.067c-.608-.403-1.058-.887-1.349-1.451a3.895 3.895 0 0 1-.436-1.812c0-1.791.597-3.064 1.792-3.82 1.195-.757 2.741-1.135 4.639-1.135 1.567 0 3.16.21 4.781.631.277.081.416.246.416.497zM160.305 103.266c0 .448-.036.851-.107 1.209l-1.679 9.627a.632.632 0 0 1-.242.39.661.661 0 0 1-.416.161h-3.357a.434.434 0 0 1-.322-.121.437.437 0 0 1-.121-.322v-.108l1.679-9.601c.053-.295.08-.55.08-.765 0-.537-.159-.911-.476-1.121-.318-.21-.858-.316-1.618-.316-.815 0-1.567.076-2.256.229l-2.028 11.548a.683.683 0 0 1-.242.402.629.629 0 0 1-.416.175h-3.33a.438.438 0 0 1-.342-.141.507.507 0 0 1-.128-.356v-.08l3.518-19.968a.651.651 0 0 1 .229-.389.609.609 0 0 1 .402-.161h3.357c.313 0 .47.157.47.47v.08l-.886 4.929c1.074-.242 2.059-.363 2.954-.363 1.146 0 2.117.193 2.914.577.796.385 1.39.925 1.779 1.618.389.694.584 1.493.584 2.397zM177.459 99.963c0 .098-.01.175-.027.228l-2.417 13.911a.627.627 0 0 1-.229.396.624.624 0 0 1-.403.155h-2.806c-.313 0-.47-.157-.47-.47v-.081l.107-.792c-1.36 1.056-2.779 1.584-4.256 1.584-1.039 0-1.909-.241-2.612-.725a4.141 4.141 0 0 1-1.531-1.926 7.079 7.079 0 0 1-.476-2.625c0-.457.045-.967.134-1.531l.121-.698.155-.927c.048-.304.105-.627.167-.967.779-4.547 3.482-6.821 8.11-6.821 1.755 0 3.653.228 5.694.685.268.062.459.132.571.208.111.076.168.208.168.396zm-4.902 2.538a13.175 13.175 0 0 0-2.108-.175c-.94 0-1.645.274-2.114.819-.471.546-.813 1.401-1.028 2.565l-.497 2.887c-.054.304-.08.608-.08.913 0 1.119.523 1.678 1.571 1.678.814 0 1.785-.322 2.913-.966zM189.563 99.144v.081l-.47 2.618c-.081.349-.247.524-.497.524h-.215c-1.209 0-2.448.317-3.719.953l-1.894 10.756a.683.683 0 0 1-.242.402.629.629 0 0 1-.416.175h-3.33c-.313 0-.47-.157-.47-.47v-.107l2.592-14.637a.674.674 0 0 1 .228-.382.596.596 0 0 1 .403-.168h3.263c.134 0 .246.042.335.127.09.085.135.19.135.316v.107l-.108.551a5.328 5.328 0 0 1 1.242-.819 4.854 4.854 0 0 1 1.283-.397c.429-.067.9-.1 1.41-.1.313 0 .47.156.47.47zM196.632 99.359v.08l-2.591 14.663a.636.636 0 0 1-.242.39.661.661 0 0 1-.416.161h-3.357a.448.448 0 0 1-.309-.121.41.41 0 0 1-.134-.322v-.108l2.591-14.663a.674.674 0 0 1 .228-.382.598.598 0 0 1 .403-.168h3.357c.09 0 .17.02.242.06.072.04.128.096.168.168.04.072.06.152.06.242zm1.034-5.466v.108l-.43 2.551a.628.628 0 0 1-.241.39.681.681 0 0 1-.43.161h-3.572a.449.449 0 0 1-.308-.121.396.396 0 0 1-.135-.309v-.121l.443-2.551a.64.64 0 0 1 .236-.389.643.643 0 0 1 .422-.161h3.585c.287 0 .43.147.43.442zM212.993 103.239c0 .537-.059 1.097-.175 1.679l-1.585 9.158a.67.67 0 0 1-.248.402.685.685 0 0 1-.45.175h-3.316c-.296 0-.444-.157-.444-.47v-.107l1.599-9.158c.089-.519.134-.922.134-1.209 0-.895-.497-1.342-1.491-1.342-.483 0-1.014.093-1.591.281-.577.188-1.036.386-1.376.591l-1.894 10.837a.687.687 0 0 1-.241.402.63.63 0 0 1-.416.175h-3.331a.438.438 0 0 1-.342-.141.512.512 0 0 1-.128-.356v-.08l2.592-14.637a.674.674 0 0 1 .228-.382.598.598 0 0 1 .403-.168h2.995c.089 0 .169.02.241.06.072.04.128.096.168.168.04.072.06.152.06.242v.08l-.107.672a6.82 6.82 0 0 1 2.041-1.068 7.177 7.177 0 0 1 2.243-.369c1.297 0 2.36.376 3.189 1.128.828.752 1.242 1.898 1.242 3.437zM230.092 99.936a.807.807 0 0 1-.026.202l-2.564 14.568c-.162.985-.44 1.827-.834 2.525a5.143 5.143 0 0 1-1.537 1.712c-.63.443-1.374.765-2.229.967-.855.201-1.868.302-3.041.302-1.066 0-2.037-.074-2.914-.222-.877-.147-1.612-.325-2.202-.53-.296-.099-.443-.26-.443-.484.009-.044.015-.083.02-.114a.89.89 0 0 0 .007-.114l.335-1.839c.054-.331.247-.497.578-.497h.053c2.516.224 4.248.335 5.197.335.627 0 1.112-.058 1.457-.174.344-.117.599-.311.765-.584.165-.273.307-.701.423-1.283l.054-.295c-.779.161-1.523.242-2.23.242-1.119 0-2.132-.204-3.041-.611a4.755 4.755 0 0 1-2.134-1.84c-.515-.819-.773-1.828-.773-3.028 0-.528.05-1.056.148-1.584l.322-1.88c.314-1.728.797-3.1 1.451-4.116a5.733 5.733 0 0 1 2.611-2.222c1.088-.465 2.446-.698 4.076-.698 2.058 0 3.965.228 5.719.685.502.134.752.326.752.577zm-4.82 2.619c-.77-.126-1.53-.188-2.282-.188-.913 0-1.603.288-2.069.865-.465.578-.8 1.404-1.006 2.478l-.336 1.88c-.09.582-.134 1.03-.134 1.343 0 .77.187 1.311.563 1.625.376.313.922.469 1.639.469.555 0 1.279-.067 2.175-.201zM257.819 94.659v.081l-3.33 18.865a1.283 1.283 0 0 1-.43.739 1.147 1.147 0 0 1-.779.309h-2.31c-.778 0-1.284-.282-1.516-.846l-4.566-10.836c-.072-.152-.143-.228-.215-.228-.081 0-.134.076-.161.228l-1.961 11.131a.616.616 0 0 1-.234.396.67.67 0 0 1-.424.155h-3.249c-.286 0-.43-.157-.43-.47v-.081l3.29-18.839c.063-.295.215-.544.456-.745.243-.202.501-.302.78-.302h2.095c.76 0 1.256.286 1.49.859l4.726 11.333c.072.144.125.215.161.215.108 0 .175-.081.202-.242l2.054-11.641a.604.604 0 0 1 .222-.376.628.628 0 0 1 .409-.148h3.25c.134 0 .246.045.335.134.09.09.135.193.135.309zM273.161 104.421c0 .439-.045.935-.135 1.491l-.282 1.597c-.089.439-.318.658-.685.658h-8.822c-.071.538-.108.913-.108 1.128 0 .707.184 1.204.551 1.491.367.286.998.429 1.894.429 1.861 0 3.638-.08 5.331-.241h.08c.296 0 .443.116.443.349v.08l-.389 2.095c-.045.242-.113.414-.202.517-.089.103-.251.177-.483.222-1.817.438-3.742.657-5.774.657a7.033 7.033 0 0 1-2.162-.335 5.45 5.45 0 0 1-1.867-1.027 4.778 4.778 0 0 1-1.282-1.733c-.309-.693-.463-1.501-.463-2.423 0-.421.045-.936.134-1.545l.336-1.919c.268-1.594.764-2.928 1.484-4.002a6.87 6.87 0 0 1 2.78-2.424c1.131-.541 2.45-.812 3.954-.812 1.181 0 2.204.251 3.068.752a4.818 4.818 0 0 1 1.947 2.068c.434.877.652 1.853.652 2.927zm-4.15-.215c0-.662-.168-1.155-.504-1.477-.335-.322-.883-.483-1.644-.483-1.656 0-2.708 1.056-3.155 3.168h5.169c.089-.492.134-.895.134-1.208zM287.534 99.533a.515.515 0 0 1-.007.094 1.015 1.015 0 0 1-.02.094l-.429 2.444a.572.572 0 0 1-.222.329.616.616 0 0 1-.383.141h-.067a30.602 30.602 0 0 0-3.317-.188c-.483 0-.902.092-1.255.275-.354.184-.661.504-.92.961-.26.456-.47 1.105-.631 1.946l-.416 2.31c-.09.582-.135 1.025-.135 1.329 0 .699.152 1.184.457 1.457.304.273.766.41 1.383.41.564 0 1.152-.02 1.765-.061.614-.04 1.153-.082 1.619-.127h.053c.296 0 .444.125.444.376v.08l-.444 2.458c-.045.205-.112.349-.201.429-.09.081-.251.148-.483.202a16.42 16.42 0 0 1-1.605.281c-.613.081-1.301.121-2.061.121-1.629 0-2.939-.469-3.928-1.409-.989-.94-1.483-2.247-1.483-3.921 0-.51.053-1.052.161-1.625l.416-2.31c.304-1.682.795-3.034 1.47-4.055.676-1.02 1.527-1.759 2.551-2.215 1.026-.457 2.223-.685 3.592-.685 1.37 0 2.574.139 3.612.416.323.081.484.228.484.443zM304.378 99.144c0 .089-.058.201-.174.335l-6.593 6.956 3.881 7.641a.896.896 0 0 1 .053.214c0 .242-.112.363-.335.363h-4.123c-.304 0-.533-.193-.685-.577l-2.806-6.271-1.101 6.271a.688.688 0 0 1-.242.402.629.629 0 0 1-.417.175h-3.33a.438.438 0 0 1-.341-.141.512.512 0 0 1-.128-.356v-.08l3.518-19.968a.659.659 0 0 1 .241-.382.648.648 0 0 1 .416-.168h3.331c.313 0 .47.157.47.47v.08l-1.974 11.145 5.022-5.948c.241-.277.51-.416.806-.416h4.149c.241 0 .362.085.362.255zM318.891 99.963a.748.748 0 0 1-.027.228l-2.417 13.911a.63.63 0 0 1-.228.396.624.624 0 0 1-.403.155h-2.807c-.313 0-.47-.157-.47-.47v-.081l.108-.792c-1.36 1.056-2.779 1.584-4.257 1.584-1.038 0-1.908-.241-2.611-.725a4.127 4.127 0 0 1-1.53-1.926c-.319-.802-.478-1.677-.478-2.625 0-.457.045-.967.135-1.531l.121-.698c.054-.314.104-.622.154-.927.049-.304.106-.627.168-.967.778-4.547 3.482-6.821 8.111-6.821 1.753 0 3.652.228 5.693.685.268.062.458.132.57.208.112.076.168.208.168.396zm-4.901 2.538a13.177 13.177 0 0 0-2.109-.175c-.939 0-1.644.274-2.114.819-.47.546-.812 1.401-1.027 2.565l-.497 2.887c-.054.304-.08.608-.08.913 0 1.119.523 1.678 1.57 1.678.814 0 1.786-.322 2.914-.966zM330.996 99.144v.081l-.471 2.618c-.08.349-.246.524-.496.524h-.215c-1.209 0-2.449.317-3.72.953l-1.893 10.756a.692.692 0 0 1-.241.402.633.633 0 0 1-.417.175h-3.331c-.312 0-.469-.157-.469-.47v-.107l2.592-14.637a.663.663 0 0 1 .228-.382.593.593 0 0 1 .402-.168h3.263c.135 0 .246.042.336.127.09.085.135.19.135.316v.107l-.108.551a5.312 5.312 0 0 1 1.243-.819 4.825 4.825 0 0 1 1.282-.397c.429-.067.899-.1 1.409-.1.313 0 .471.156.471.47zM338.171 105.186v.094l-.362 2.028a.546.546 0 0 1-.228.362.681.681 0 0 1-.404.135h-5.33c-.313 0-.47-.139-.47-.416v-.081l.363-2.028a.623.623 0 0 1 .221-.369.614.614 0 0 1 .41-.154h5.331c.312 0 .469.143.469.429zM355.674 114.102a.53.53 0 0 1-.154.403.552.552 0 0 1-.396.148h-3.76a.44.44 0 0 1-.343-.141.51.51 0 0 1-.127-.356l-.188-4.512h-5.64l-1.786 4.512c-.125.331-.335.497-.631.497h-3.935c-.258 0-.388-.112-.388-.336 0-.053.017-.134.053-.241l7.103-17.054c.502-1.199 1.19-2.007 2.068-2.423.877-.417 1.889-.625 3.035-.625 1.146 0 2.079.208 2.799.625.721.416 1.118 1.224 1.189 2.423l1.101 17.054zm-5.089-8.217-.323-7.6c0-.269-.094-.403-.281-.403-.197 0-.35.134-.457.403l-3.034 7.6zM366.127 94.001v.107l-3.518 19.968a.696.696 0 0 1-.222.409.584.584 0 0 1-.409.168h-3.357a.438.438 0 0 1-.342-.141.512.512 0 0 1-.128-.356v-.08l3.518-19.968a.656.656 0 0 1 .242-.382.644.644 0 0 1 .416-.168h3.357c.143 0 .253.043.329.127a.458.458 0 0 1 .114.316zM381.374 104.179c0 .475-.05.985-.148 1.531l-.349 2.148c-.198 1.2-.52 2.245-.967 3.136-.448.891-1.023 1.627-1.726 2.209a6.836 6.836 0 0 1-2.403 1.282c-.9.273-1.927.409-3.082.409-1.969 0-3.871-.237-5.706-.711-.502-.117-.752-.309-.752-.578 0-.089.009-.161.026-.214l3.411-19.283a.659.659 0 0 1 .241-.382.648.648 0 0 1 .416-.168h3.331c.313 0 .47.157.47.47v.08l-.846 4.754a29.56 29.56 0 0 1 1.295-.148c.319-.027.643-.04.974-.04 1.253 0 2.317.228 3.19.685.873.456 1.528 1.098 1.966 1.927.439.828.659 1.792.659 2.893zm-4.458.188c0-.662-.153-1.162-.457-1.497-.304-.336-.815-.503-1.531-.503-.743 0-1.504.045-2.283.134l-1.504 8.58a14.06 14.06 0 0 0 2.23.161c.939 0 1.637-.273 2.094-.819.456-.546.775-1.401.953-2.565l.363-2.148c.09-.537.135-.984.135-1.343zM36.943 26.117v.293l-1.025 5.908c-.098.554-.384 1.026-.855 1.416-.472.391-.985.586-1.538.586h-8.984l-5.518 31.396c-.326 1.628-.488 2.784-.488 3.467 0 .846.252 1.408.757 1.684.504.278 1.391.415 2.661.415h5.273c1.204 0 1.807.408 1.807 1.221v.293l-1.123 6.299c-.195 1.01-.928 1.611-2.197 1.807-2.898.455-5.193.683-6.885.683-4.558 0-7.967-.862-10.23-2.588-2.263-1.724-3.393-4.524-3.393-8.398 0-1.041.179-2.669.537-4.883l5.469-31.396-9.18-1.416c-1.074-.13-1.611-.7-1.611-1.709v-.293l.83-4.492a2.342 2.342 0 0 1 .805-1.441c.44-.374.936-.561 1.49-.561h9.375l1.513-8.204c.196-1.105.96-1.773 2.295-2.001l9.619-1.612h.391c.911 0 1.367.408 1.367 1.221v.293L26.25 24.408h8.984c1.139 0 1.709.57 1.709 1.709zM87.626 44.183c0 1.693-.163 3.598-.488 5.713l-.83 4.785c-.293 1.693-1.091 2.539-2.393 2.539H51.347a80.562 80.562 0 0 1-.342 2.173c-.13.765-.195 1.409-.195 1.928 0 5.991 3.401 8.985 10.205 8.985 5.013 0 11.182-.374 18.506-1.123h.39c1.009 0 1.514.375 1.514 1.123v.39l-1.172 6.593c-.163.813-.399 1.408-.708 1.782-.31.374-.92.659-1.831.854a103.494 103.494 0 0 1-9.448 1.27c-3.044.259-6.584.39-10.62.39-3.32 0-6.462-.667-9.424-2.002-2.963-1.334-5.42-3.499-7.373-6.494-1.953-2.994-2.929-6.851-2.929-11.572 0-2.246.162-4.248.488-6.006l1.123-6.201c1.106-6.153 2.905-11.108 5.396-14.868 2.489-3.759 5.671-6.485 9.545-8.179 3.873-1.692 8.399-2.539 13.574-2.539 6.38 0 11.238 1.881 14.576 5.64 3.336 3.76 5.004 8.7 5.004 14.819zm-12.988-.195c0-2.897-.741-5.102-2.222-6.616-1.481-1.514-3.605-2.271-6.372-2.271-7.162 0-11.507 4.232-13.037 12.696h21.24c.26-1.693.391-2.963.391-3.809zM116.142 26.117v.293l-9.18 52.294c-.097.554-.39 1.043-.879 1.465-.488.424-.993.635-1.513.635h-9.229c-.456 0-.838-.171-1.147-.512a1.727 1.727 0 0 1-.464-1.197v-.391l9.228-52.294a2.343 2.343 0 0 1 .806-1.441c.44-.374.936-.561 1.489-.561h9.18c1.139 0 1.709.57 1.709 1.709zM120.048 5.805v.293l-1.611 8.789a2.298 2.298 0 0 1-.83 1.441c-.457.373-.945.56-1.465.56h-9.668c-.521 0-.952-.153-1.294-.463-.342-.309-.513-.708-.513-1.197v-.341l1.563-8.789a2.91 2.91 0 0 1 .927-1.416c.456-.391.96-.586 1.514-.586h9.668c1.139 0 1.709.57 1.709 1.709zM162.997 69.765v.293l-1.611 8.789a2.298 2.298 0 0 1-.83 1.441c-.457.373-.945.56-1.465.56h-9.668c-.521 0-.952-.153-1.294-.463-.342-.309-.513-.708-.513-1.197v-.341l1.563-8.789a2.918 2.918 0 0 1 .927-1.417c.456-.39.96-.585 1.514-.585h9.668c1.139 0 1.709.57 1.709 1.709zM231.907 69.828v.293l-1.611 8.789a2.298 2.298 0 0 1-.83 1.441c-.457.373-.945.56-1.465.56h-9.668c-.521 0-.952-.153-1.294-.463-.342-.309-.513-.708-.513-1.197v-.341l1.563-8.789a2.918 2.918 0 0 1 .927-1.417c.456-.39.96-.585 1.514-.585h9.668c1.139 0 1.709.57 1.709 1.709zM146.659 6.293v.391l-12.695 72.02a2.556 2.556 0 0 1-.806 1.49c-.44.407-.936.61-1.489.61h-9.326c-1.042 0-1.563-.569-1.563-1.709v-.391l12.696-72.02c.097-.521.373-.984.83-1.392.455-.407.943-.611 1.464-.611h9.278c.52 0 .919.156 1.196.464.276.31.415.692.415 1.148zM298.383 26.117v.391l-9.228 52.294a2.296 2.296 0 0 1-.83 1.44c-.457.375-.945.562-1.465.562h-8.594c-.521 0-.936-.171-1.245-.512-.31-.343-.464-.773-.464-1.295v-.195l.342-2.099c-5.893 3.32-11.231 4.98-16.016 4.98-4.297 0-7.886-1.237-10.766-3.711-2.881-2.474-4.321-6.299-4.321-11.475 0-2.505.227-4.964.683-7.372l5.713-32.617c.098-.521.382-1.001.855-1.441.471-.439.984-.659 1.538-.659h9.179c1.074 0 1.611.57 1.611 1.709v.391l-5.712 32.617c-.457 2.897-.684 4.882-.684 5.957 0 2.05.431 3.434 1.294 4.149.862.717 2.466 1.075 4.809 1.075 2.018 0 4.232-.374 6.641-1.123 2.408-.749 4.524-1.578 6.348-2.491l7.129-40.184c.097-.554.373-1.042.83-1.465.455-.423.943-.635 1.464-.635h9.18c1.139 0 1.709.57 1.709 1.709zM341.717 26.117v.293l-1.025 5.908c-.098.554-.383 1.026-.855 1.416-.472.391-.985.586-1.538.586h-8.984l-5.518 31.396c-.326 1.628-.488 2.784-.488 3.467 0 .846.252 1.408.757 1.684.504.278 1.391.415 2.661.415h5.274c1.203 0 1.806.408 1.806 1.221v.293l-1.123 6.299c-.195 1.01-.928 1.611-2.197 1.807-2.897.455-5.193.683-6.885.683-4.558 0-7.967-.862-10.23-2.588-2.263-1.724-3.393-4.524-3.393-8.398 0-1.041.179-2.669.537-4.883l5.469-31.396-9.18-1.416c-1.074-.13-1.611-.7-1.611-1.709v-.293l.83-4.492a2.342 2.342 0 0 1 .805-1.441c.44-.374.936-.561 1.49-.561h9.375l1.513-8.204c.196-1.105.96-1.773 2.295-2.001l9.62-1.612h.39c.911 0 1.368.408 1.368 1.221v.293l-1.856 10.303h8.985c1.138 0 1.708.57 1.708 1.709zM391.741 43.402c0 1.595-.164 3.337-.487 5.224l-1.514 8.057c-3.094 16.601-12.483 24.902-28.174 24.902-4.297 0-7.967-.911-11.011-2.734-3.044-1.823-5.306-4.249-6.787-7.276-1.481-3.027-2.222-6.379-2.222-10.059 0-1.789.13-3.401.391-4.833l1.514-8.057c1.529-8.267 4.662-14.485 9.399-18.652 4.736-4.166 11.043-6.25 18.921-6.25 4.297 0 7.967.887 11.01 2.662 3.043 1.774 5.298 4.142 6.763 7.103 1.464 2.963 2.197 6.267 2.197 9.913zm-13.281.781c0-3.027-.707-5.298-2.124-6.812-1.416-1.513-3.605-2.27-6.566-2.27-3.289 0-6.08 1.074-8.375 3.223-2.295 2.148-3.882 5.583-4.761 10.302l-1.464 8.057c-.293 1.595-.44 3.076-.44 4.443 0 6.054 2.945 9.082 8.838 9.082 3.482 0 6.315-1.099 8.495-3.295 2.182-2.198 3.679-5.608 4.492-10.23l1.514-8.057c.261-1.431.391-2.913.391-4.443z" style="fill:#231f20;fill-rule:nonzero" transform="matrix(2.03828 0 0 2.03878 .664 38.743)"/></svg>