<svg version="1.0" width="800pt" height="320pt" viewBox="0 0 800 320" preserveAspectRatio="xMidYMid" xmlns="http://www.w3.org/2000/svg"><path d="M0 0h800v320H0z" fill="#fff" style="display:inline;fill:none;stroke-width:.8"/><path d="M452.164 29.683c-10.968 1.64-20.342 4.265-33.137 9.186-17.295 6.702-39.84 18.514-56.713 29.669a582.75 582.75 0 0 1-7.03 4.687c-7.64 5.015-33.888 25.919-43.59 34.73-.421.375-1.734 1.547-2.859 2.531-20.95 18.42-47.666 49.26-68.29 78.789-8.764 12.514-13.404 21.607-14.763 28.731-.235 1.453-.375 4.453-.235 6.562.188 3.234.516 4.453 1.781 6.984 3.281 6.42 10.734 10.78 21.982 12.795 6.422 1.125 18.889.656 27.794-1.078.328-.047.75 1.5 1.078 3.89 1.219 9 3.047 15.046 6.656 22.264 5.765 11.576 13.17 19.076 23.435 23.81 2.906 1.312 3.609 1.452 9.468 1.64 4.921.14 7.64-.047 12.186-.797 5.952-.984 12.045-1.64 20.154-2.156 2.437-.187 5.202-.375 6.093-.469.89-.093 9.749-.421 19.685-.75 9.937-.28 20.67-.656 23.904-.796 5.812-.328 5.859-.328 5.859-1.453 0-.844-.469-1.453-1.64-2.11-1.5-.89-2.438-.984-11.718-1.03-5.53-.047-12.374.093-15.233.28-2.812.235-9.046.61-13.826.938-4.781.281-9.421.61-10.312.703-2.203.281-18.935 1.172-21.466 1.172h-1.969l2.203-2.672c2.578-3.187 4.312-6.796 6.046-12.56 1.219-3.985 1.313-4.782 1.313-13.453l.046-9.28 3.75-.047c2.062-.047 4.172-.14 4.687-.187 4.921-.563 7.218-.89 11.39-1.687 2.671-.47 6.608-.891 8.717-.891 3.187 0 4.125-.188 5.015-.89l1.125-.891-1.265-.516c-2.062-.796-8.202-1.171-16.545-1.03-17.248.327-17.67.327-18.092-.423-.188-.375-1.031-2.812-1.828-5.39-4.875-15.186-14.108-26.716-25.544-31.871-2.203-1.031-3.797-1.313-7.312-1.5-5.53-.328-8.53.469-12.561 3.328-5.203 3.609-8.53 8.811-10.874 16.873-.75 2.578-1.453 4.78-1.594 4.874-.374.375-2.624-2.296-3.327-3.937-1.031-2.437-.89-7.358.234-10.64 3.984-11.436 17.342-23.95 30.747-28.777 8.108-2.906 21.982-6.328 33.98-8.343 2.438-.422 5.625-.938 7.031-1.172 2.531-.469 4.218-.703 15.936-2.11 8.67-1.03 20.341-2.061 28.59-2.577 3.984-.234 8.953-.516 11.015-.656 11.108-.75 46.12-.797 61.118-.094 8.578.375 15.702.797 15.796.89.843.797-7.546 19.78-12.796 29.013-5.062 8.859-11.249 18.233-15.045 22.826l-1.36 1.593-1.968-3.609c-3.328-6.14-6.468-10.358-10.499-14.201-5.952-5.625-11.249-8.343-17.201-8.905-6.046-.516-10.78 1.312-15.514 5.952-5.062 4.968-8.437 13.124-9.187 22.263-.562 6.375.047 15.14 1.5 21.092 1.266 5.343 4.64 14.389 6.703 18.045 3.75 6.562 10.03 13.873 14.483 16.92 2.905 1.921 7.92 4.03 11.108 4.593 3.234.61 43.26.656 59.806.094 9.655-.328 10.827-.469 13.733-1.547 3.468-1.312 3.937-1.594 3.421-2.11-.562-.562-11.295-.983-35.762-1.311-13.217-.188-24.044-.47-24.044-.563 0-.14.703-1.078 1.594-2.062 2.718-3.234 5.624-9.515 6.608-14.436.75-3.562 1.219-10.265 1.078-15.045-.14-5.156-.093-5.39.797-5.344.516.047 2.86.328 5.156.61 5.296.656 16.358.656 20.388.047 4.453-.703 10.218-2.719 12.936-4.547 4.547-2.953 9.374-9.186 12.468-15.982 2.671-5.86 6.75-20.014 9.233-31.966 1.64-7.827 5.25-26.434 6.843-34.918.703-3.937 2.812-19.217 3.234-23.67 1.36-13.78 1.735-18.138 2.11-24.84 1.218-20.81-1.36-39.606-6.937-50.667-4.265-8.577-11.812-17.342-19.264-22.404-3.656-2.53-5.484-3.515-10.546-5.671-7.17-3.093-27.325-4.265-40.167-2.343zm24.84 15.701c6.14.984 10.031 2.718 13.218 5.812 3.984 3.89 5.53 7.265 6.843 14.904 1.594 9.421-.234 33.794-4.077 54.745-1.5 8.296-6.75 31.543-7.172 32.012-.421.422-16.31.937-39.183 1.265-24.513.375-39.605.703-43.589.938-1.922.093-6.14.328-9.374.468-3.234.141-7.03.375-8.437.516-1.406.094-7.311.516-13.123.89-5.812.376-14.342 1.032-18.983 1.407-37.308 3.093-43.682 3.14-46.12.375-1.453-1.64-1.125-3.469 1.406-7.875 2.016-3.562 5.016-7.218 15.14-18.513 23.669-26.388 40.589-41.34 65.43-57.79 32.012-21.186 66.602-32.622 88.022-29.154zm-51.181 182.7c3.093 2.155 6.234 6.842 7.968 11.951 1.218 3.61 1.359 4.734 1.359 9.702 0 5.109-.094 5.859-1.266 8.296-3.421 7.312-11.248 4.734-16.217-5.343-2.484-5.015-3.421-8.952-3.421-13.78 0-4.359.281-5.765 1.5-8.202 2.203-4.406 6.046-5.39 10.077-2.625zm-116.19 4.592c7.076 3.422 12.513 17.577 10.451 27.326-.984 4.827-3.656 7.78-7.03 7.78-3.188 0-7.734-4.218-10.265-9.515-2.53-5.202-3.468-9.561-3.234-15.232.188-5.343 1.453-8.53 4.078-10.265 1.968-1.312 3.421-1.359 6-.093zM217.72 66.335c-.984 4.734-2.015 10.124-4.453 22.872-1.593 8.109-3.046 15.702-3.327 16.874a184.777 184.777 0 0 0-.938 5.296c-.515 3.375-.562 3.609-3.984 20.95-1.968 10.125-2.859 14.577-3.984 20.858-1.687 9.14-2.53 13.545-3.75 19.92-2.155 10.827-5.155 27.137-5.155 27.934 0 .563 1.64.656 11.343.563l11.342-.141.61-2.11c.327-1.17 1.546-7.264 2.718-13.591a2955.183 2955.183 0 0 0 2.812-14.764c.375-1.828 1.312-6.89 2.11-11.25a990.83 990.83 0 0 1 4.264-22.263c.516-2.718 1.266-6.514 1.594-8.436 1.031-5.953 4.734-25.497 6.796-35.856 1.875-9.467 2.484-12.608 4.03-21.326.423-2.202.845-4.546.985-5.296l.235-1.265h-23.06zm-38.761 1.922c-4.734 1.359-8.156 4.218-10.546 8.858-1.688 3.28-1.828 8.39-.328 11.717 1.359 3 4.874 6.234 8.061 7.453 5.39 2.015 12.42.281 16.452-4.078 7.077-7.687 5.577-18.748-3.187-23.154-2.531-1.265-7.5-1.64-10.452-.796zm-134.94 8.342c-4.264.938-10.03 2.11-14.998 3-3.327.562-3.187.375-4.171 5.156-.234 1.265-.937 4.78-1.453 7.733-.89 4.875-2.437 12.655-3.047 15.327-.234 1.078-.328 1.078-7.967 1.078-7.593 0-7.734 0-7.968 1.03-.235.985-.657 3.047-2.766 14.062l-.609 3.187h7.593c4.171 0 7.687.094 7.827.234.14.141.094 1.172-.14 2.25-5.297 26.622-8.671 45.605-9.093 51.37-.61 8.53 1.593 15.139 6.187 18.373 4.312 3 6.608 3.468 17.014 3.468 7.124 0 10.077-.234 13.357-.89 2.344-.516 4.36-1.032 4.547-1.172.234-.188.703-3.375 1.078-7.078.375-3.75.844-7.92.984-9.327.328-2.39.281-2.53-.562-2.203-.469.235-3.844.516-7.453.61-7.686.281-9.186-.14-10.405-3.047-1.265-3.046-.937-5.671 4.968-35.95l3.14-16.404 10.875-.14 10.827-.094.468-1.78c.235-.938.61-2.813.797-4.079.187-1.312.797-4.593 1.36-7.405l1.03-5.015H43.457l.235-1.078c.234-.938 1.78-9 4.734-24.841.656-3.562 1.218-6.656 1.218-6.89 0-.656-.984-.563-5.624.515zm641.417.188c-2.578.562-7.265 1.547-10.452 2.109-3.187.61-6.046 1.312-6.375 1.594-.562.421-2.765 10.873-4.5 21.372-.28 1.688-.749 3.937-1.03 5.015l-.469 2.016-7.78.093-7.734.141-.89 4.218c-.938 4.594-2.719 13.546-2.719 13.686 0 .094 3.468.141 7.734.141 6.28 0 7.733.14 7.733.656 0 .375-.422 2.719-.89 5.25-.516 2.578-1.36 7.17-1.922 10.264-.516 3.094-1.219 6.656-1.453 7.968-5.296 27.278-5.25 27.138-5.015 33.98.187 4.454.422 5.86 1.406 8.016 3.234 7.124 9.14 9.795 21.7 9.842 4.172 0 12.187-.89 16.64-1.828l1.64-.375.563-4.64c.28-2.578.656-6.046.843-7.733.14-1.688.375-3.89.563-4.875.234-1.734.187-1.828-.844-1.5-1.969.61-13.686.891-15.045.329-2.11-.797-3.187-3.094-3.187-6.61 0-2.764.375-5.014 2.624-17.107.375-2.062.89-4.921 1.125-6.327.375-2.25 1.453-7.968 3.984-20.764.375-2.062.844-3.89.984-4.124.141-.234 5.062-.422 10.921-.422h10.686l1.032-5.296c.562-2.86 1.406-6.984 1.874-9.14l.891-3.843h-10.968c-8.108 0-10.967-.14-10.967-.563 0-.562 1.687-9.561 4.218-22.404 2.156-11.06 2.062-10.31.844-10.264-.61.047-3.187.516-5.765 1.125zm-576.501 30.512c-.516.14-2.25.563-3.89.938-18.608 4.452-32.81 19.826-38.95 42.136-1.687 6.093-2.109 10.499-2.155 20.623 0 9.514.093 10.592 1.078 13.826 3.89 12.374 13.404 18.186 30.324 18.373 8.203.094 18.89-.984 24.139-2.437 5.343-1.406 8.811-2.437 9.983-2.906l1.265-.469v-9.14c0-7.124-.14-9.092-.562-8.858-2.484.985-11.67 3.656-15.14 4.312-6.186 1.219-16.404 1.172-20.388-.047-3.796-1.171-6.14-3.327-7.03-6.608-.75-2.531-.844-12.186-.094-12.936.235-.235 4.078-.703 8.577-1.078 7.968-.703 9.702-.938 16.827-2.39 9.514-2.016 19.404-6.563 24.138-11.203 2.578-2.53 5.859-6.796 5.859-7.64 0-.187.328-.937.703-1.64.937-1.781 2.109-7.733 2.109-10.593 0-5.39-1.922-10.686-5.297-14.389-2.437-2.671-7.968-5.765-12.748-7.03-2.766-.75-16.592-1.36-18.748-.844zm8.624 17.905c5.812 2.25 6.75 10.03 1.875 14.998-4.172 4.171-11.765 6.374-25.685 7.359l-3.422.234.328-1.687c.375-2.203 3.14-8.203 5.156-11.202 5.437-8.25 14.764-12.374 21.748-9.702zM754.1 107.346c-6 .937-11.014 2.578-16.826 5.484-4.968 2.437-9.093 5.484-13.64 10.077-8.436 8.53-13.545 18.514-16.497 32.059-.844 3.984-1.032 6.327-1.032 14.155-.046 10.686.375 12.795 3.61 19.123 3 5.858 8.53 10.592 14.576 12.467 6.75 2.062 10.405 2.531 18.56 2.25 9.374-.328 13.733-1.266 20.342-4.265 14.764-6.75 25.45-19.03 30.934-35.48 3.937-11.671 4.64-27.139 1.688-35.856-4.547-13.499-16.311-20.483-34.31-20.295-3.42.047-6.749.187-7.405.281zm11.155 21.232c5.531 2.39 7.828 7.078 7.734 15.936-.047 9.796-2.437 18.045-7.406 25.779-5.249 8.061-12.28 12.28-20.622 12.373-3.937.047-4.453-.047-7.5-1.593-5.811-2.906-7.592-7.218-7.124-17.342.844-17.81 10.218-32.669 22.592-35.903 3.468-.89 9.327-.515 12.326.75zM165.18 109.924c-.188.984-2.766 14.577-3.937 20.998-1.828 9.936-3.422 18.326-3.797 19.92-.61 2.624-3.187 15.888-3.703 18.982-.234 1.406-1.078 6.046-1.874 10.311-.844 4.265-1.781 9.327-2.156 11.249-.328 1.922-.844 4.453-1.125 5.624-.281 1.172-.516 2.672-.516 3.375v1.312h11.483c6.328 0 11.484-.14 11.484-.375 0-.187.515-2.859 1.124-5.952a472.661 472.661 0 0 0 2.578-13.358c2.344-12.514 3.328-17.576 5.062-26.247.89-4.5 2.016-10.405 2.484-13.124 1.64-9.374 5.812-31.075 6.375-32.95.234-.75-.516-.796-11.484-.796h-11.764zm394.036-.234c.047.468-1.266 7.358-2.86 15.373a2394.286 2394.286 0 0 0-3.796 19.451c-3.609 19.17-4.405 23.248-5.25 27.185-.608 2.859-.937 6.374-.983 9.842-.141 15.046 7.218 22.264 22.17 21.748 13.263-.469 24.653-8.812 34.495-25.31 1.453-2.437 2.719-4.359 2.813-4.265.093.094-.797 3-1.969 6.468-3.046 9.046-5.296 17.576-5.343 20.248v1.265l11.108-.093 11.155-.14 1.078-6.094a508.244 508.244 0 0 1 2.203-12.186c.61-3.375 1.547-8.53 2.11-11.483.562-2.953 1.499-7.921 2.108-11.015.61-3.093 1.219-6.562 1.406-7.733.141-1.172.47-2.953.704-3.984.234-1.031 1.734-8.53 3.28-16.64 1.547-8.108 3.14-16.216 3.516-17.997.375-1.781.703-3.703.703-4.312v-1.125h-22.92l-.468 2.437c-6.187 31.684-6.328 32.247-12.608 45.37-3.844 7.968-9.89 16.827-14.39 21.045-3.14 2.953-7.733 5.202-10.592 5.202-1.969 0-2.578-.234-4.078-1.593l-1.734-1.594v-5.577c0-3.328.328-7.03.797-9.28.984-4.64 2.624-13.03 2.953-15.233.14-.89.89-4.687 1.64-8.437.75-3.75 2.203-11.342 3.28-16.873 1.032-5.53 2.11-11.108 2.344-12.327.282-1.218.47-2.437.47-2.671 0-.282-4.594-.47-11.672-.47-10.873 0-11.717.048-11.67.798zm43.027 154.577v23.67l1.312.234c.703.187 2.156.468 3.234.75 1.078.234 4.03.421 6.609.421 10.967 0 16.826-4.827 18.466-15.232 1.031-6.797-1.125-14.015-5.015-16.733-4.359-3.047-10.499-2.625-14.436.984l-1.968 1.828.14-9.796.141-9.796h-8.483zm17.576-1.453c1.687.515 2.953 3.046 3.328 6.75.89 9.233-3.047 14.107-10.452 12.982l-2.11-.328.188-6.374c.14-5.297.375-6.796 1.218-8.671 1.172-2.672 1.875-3.422 3.938-4.312 1.5-.656 1.827-.656 3.89-.047zm137.563 1.922v24.138h8.437v-8.671c0-10.874.375-12.843 3.046-15.514 3.516-3.469 7.125-3.187 8.156.609.281 1.031.515 6.562.515 12.702v10.92l4.125-.14 4.078-.14.14-11.718c.047-7.078-.094-12.702-.375-14.155-.984-4.64-3.656-6.984-8.53-7.5-3.14-.28-7.452 1.22-9.608 3.422-.844.797-1.547 1.36-1.594 1.172-.047-.14 0-4.546.047-9.796l.094-9.468h-8.53zm-170.42-22.545c-2.015.89-2.999 2.484-2.999 4.734.047 5.25 7.171 6.796 9.655 2.062 1.453-2.859.047-6.093-2.952-6.937-2.156-.609-1.922-.609-3.703.141zm-36.745 2.156-3.515.234v44.058l7.499.14c8.53.141 12.42-.374 16.076-2.155 2.39-1.172 4.875-3.61 6.14-6.093.328-.61.703-2.531.844-4.312.234-2.86.14-3.516-.938-5.718-.843-1.688-1.828-2.86-3-3.61-.984-.609-2.108-1.265-2.483-1.5-.61-.374-.563-.515.234-.984 1.828-1.03 4.265-3.983 4.828-5.858 2.015-6.796-1.688-12.655-8.859-14.014-2.062-.375-12.28-.47-16.826-.188zm14.576 7.546c2.672 1.313 3.562 4.593 2.016 7.5-1.031 2.062-3.89 3.233-8.015 3.233h-3.422v-11.764l3.89.094c2.579.047 4.36.328 5.531.937zm-.28 18.186c2.858 1.312 3.702 2.484 3.702 5.202 0 4.453-2.672 6.375-8.952 6.515l-3.89.094v-12.702h3.655c2.484 0 4.172.281 5.484.89zm82.865-14.061c-7.405 2.484-10.827 8.624-10.311 18.326.375 8.015 3.234 12.186 9.608 14.295 3.14.985 11.67.797 15.42-.422l2.485-.796-.282-2.203c-.515-4.547-.375-4.36-2.671-3.516-1.313.516-3.562.797-6.703.797-4.452.047-4.78 0-6.42-1.265-2.11-1.594-2.579-2.484-2.954-5.25l-.328-2.109h20.201l.328-1.828c.89-5.296-1.874-12.14-5.905-14.764-3.094-1.968-8.718-2.53-12.468-1.265zm8.578 7.311c.984 1.266 1.734 3.844 1.265 4.547-.094.234-2.672.375-5.765.375-4.125 0-5.578-.14-5.765-.61-.328-.937.797-3.327 2.297-4.733 1.218-1.172 1.64-1.266 4.124-1.078 2.344.14 2.906.375 3.844 1.5zm30.7-7.592c-1.594.515-4.453 3-5.531 4.78-.469.797-.563.563-.563-1.78l-.047-2.672h-7.452l-.14 15.982c-.094 8.812 0 16.17.14 16.405.14.281 2.062.422 4.218.328l3.937-.14.282-9.843c.234-10.03.375-10.827 1.968-12.89 1.266-1.64 2.625-2.296 4.828-2.343h1.921l.282-3.797c.187-2.109.187-4.03.047-4.218-.329-.562-1.875-.469-3.89.188zm13.545.093c-5.343 1.172-5.343 1.172-4.968 4.828.187 1.687.421 3.187.515 3.28.047.094 1.547-.28 3.281-.796 1.969-.61 4.453-.984 6.562-.984 3 0 3.515.14 4.546 1.171 1.125 1.125 2.016 4.125 1.5 5.015-.14.188-1.125.375-2.203.375-3.093 0-8.905 1.688-11.53 3.281-3.468 2.156-4.921 4.828-4.921 9 .047 2.671.234 3.42 1.312 4.827 1.875 2.484 4.312 3.515 8.109 3.515 3.702 0 6.561-1.125 8.624-3.328l1.359-1.452v4.312h7.968V276.64c0-7.92-.188-12.936-.563-14.201-.703-2.484-2.859-4.828-5.53-6.046-2.766-1.219-9.75-1.547-14.061-.563zm11.483 18.983c.61.984-1.219 5.108-2.86 6.561-4.405 3.844-10.545-.703-6.28-4.687 1.875-1.78 8.39-3.093 9.14-1.874z" style="fill:#000;fill-opacity:1;stroke-width:.04687"/><path d="M740.227 255.783c-4.453.89-8.906 3.937-10.733 7.406-2.485 4.64-3.047 13.03-1.22 17.81 2.016 5.297 6 7.875 12.468 8.25 3.61.187 8.156-.422 9.515-1.266.469-.281.562-1.078.328-3.187-.422-3.75-.656-4.078-2.39-3.422-2.438.938-6.422.703-8.53-.468-4.64-2.625-5.11-12.561-.797-16.311 2.296-2.062 4.265-2.484 7.827-1.734 1.64.328 3 .562 3.093.468.094-.093.281-1.734.422-3.655l.281-3.516-1.828-.28c-3.843-.61-5.67-.61-8.436-.095z" style="display:inline;fill:#000;fill-opacity:1;stroke-width:.04687"/><path d="M584.9 272.47v16.45l4.124-.14 4.078-.14.14-16.312.094-16.263H584.9z" style="fill:#000;fill-opacity:1;stroke-width:.04687"/></svg>