<svg id="Ebene_1" version="1.1" width="800.753" height="320" xmlns="http://www.w3.org/2000/svg"><defs id="defs329"><style id="style327">.cls-1{fill:#141f33}</style></defs><path d="M0 0h800v320H0z" fill="#fff" id="path176"/><path d="M130.576 67.84H15.241C7.045 67.84.359 74.525.359 82.721v64.273c0 4.637 1.186 9.166 3.504 13.156l2.535 4.206 50.253 88.214c3.397 5.985 9.49 9.544 16.284 9.544 6.794 0 12.887-3.56 16.284-9.544l50.146-87.998v.161a46.52 46.52 0 0 0 6.093-23.024V82.722c0-8.25-6.686-14.883-14.882-14.883zM78.705 234.83c0 3.29-2.427 5.662-5.77 5.662-3.343 0-5.77-2.373-5.77-5.662v-87.998c0-3.29 2.427-5.662 5.77-5.662 3.343 0 5.77 2.534 5.77 5.662zm34.994-128.6c0 3.289-2.426 5.661-5.77 5.661-3.342 0-5.769-2.372-5.769-5.661v-5.446H78.651v22.161c11.161 2.642 20.49 12.348 20.49 23.833v48.636c0 3.29-2.427 5.662-5.77 5.662-3.343 0-5.77-2.373-5.77-5.662V146.78c0-7.28-7.332-12.94-14.72-12.94-7.387 0-14.72 5.66-14.72 12.94v48.636c0 3.29-2.426 5.662-5.77 5.662-3.342 0-5.769-2.373-5.769-5.662V146.78c0-11.485 9.328-21.19 20.49-23.833v-22.161h-23.51v5.446c0 3.289-2.426 5.661-5.769 5.661s-5.77-2.372-5.77-5.661V95.123c0-3.289 2.427-5.661 5.77-5.661h70.043c3.343 0 5.77 2.372 5.77 5.661v11.108z" id="path331" style="stroke-width:5.39204;fill:#456467"/><g id="g349" transform="matrix(5.39204 0 0 5.39204 .359 67.84)"><path class="cls-1" d="M38.87 5.38h5.99l1.84 13.14h.11l1.78-13.14h5.12L49.59 23.7h-6.63z" id="path333"/><path class="cls-1" d="M56.14 5.38h9.58V9.7h-4.54v3.37h3.48v2.87h-3.48v3.45h4.73v4.32h-9.77z" id="path335"/><path class="cls-1" d="M68.39 5.38h5.07v13.95h3.84v4.37h-8.91z" id="path337"/><path class="cls-1" d="M79.2 14.46c0-6.24 2.06-9.3 6.77-9.3 4.71 0 6.71 3.06 6.71 9.3s-2 9.47-6.71 9.47-6.77-3.04-6.77-9.47zm8.33 0c0-3.62-.47-5.01-1.56-5.01s-1.59 1.39-1.59 5.01.5 5.18 1.59 5.18 1.56-1.42 1.56-5.18z" id="path339"/><path class="cls-1" d="M95.35 5.38h5.93c4.43 0 5.96 1.75 5.96 4.76 0 2.03-.61 3.42-2.28 3.93v.03c2.03.47 2.78 2.01 2.78 4.23 0 3.48-1.56 5.37-6.01 5.37h-6.38zm6.01 7.66c.97 0 1.42-.53 1.42-1.87 0-1.42-.47-1.98-1.48-1.98h-.92v3.84h.97zm.17 6.85c.97 0 1.36-.64 1.36-2.2 0-1.34-.42-1.89-1.45-1.89h-1.06v4.09h1.14z" id="path341"/><path class="cls-1" d="M110.39 5.38h6.13c4.73 0 6.54 1.87 6.54 5.49 0 2.37-.64 3.79-2.53 4.34v.03c1.89.45 2.53 1.62 2.53 3.34v5.12h-5.07v-5.18c0-1.06-.45-1.48-1.42-1.48h-1.14v6.66h-5.04zm6.1 8.85c1.09 0 1.62-.58 1.62-2.28 0-1.7-.5-2.26-1.64-2.26h-1.03v4.54h1.06z" id="path343"/><path class="cls-1" d="M125.99 5.38h5.07V23.7h-5.07z" id="path345"/><path class="cls-1" d="m137.3 14.23-3.54-8.85H140l1.45 5.71 1.39-5.71h5.1l-3.45 8.91 3.68 9.41h-6.18l-1.5-5.9-1.48 5.9h-5.43l3.73-9.47z" id="path347"/></g><g id="g369" transform="matrix(5.39204 0 0 5.39204 .359 67.84)"><path class="cls-1" d="M100.39 27.99h1.59c1.29 0 1.89.65 1.89 2.07 0 1.03-.31 1.63-1.03 1.77.85.16 1.21.81 1.21 1.94 0 1.57-.6 2.29-1.89 2.29h-1.78v-8.07zm1.64 3.65c.85 0 1.21-.44 1.21-1.48s-.4-1.58-1.26-1.58h-.92v3.07h.97zm.12 3.83c.85 0 1.24-.55 1.24-1.78 0-1.05-.4-1.55-1.31-1.55h-1.02v3.32h1.09z" id="path351"/><path class="cls-1" d="M105.83 27.99h.66v8.07h-.66z" id="path353"/><path class="cls-1" d="M108.37 27.99h.67v4.86h.01l2.76-4.86h.75l-2.15 3.72 2.26 4.35h-.77l-1.91-3.78-.94 1.58v2.2h-.67v-8.07z" id="path355"/><path class="cls-1" d="M114.12 27.99h3.03v.63h-2.35v3.13h1.94v.52h-1.94v3.18h2.44v.63h-3.12v-8.07z" id="path357"/><path class="cls-1" d="M118.56 33.26h.63c0 1.67.32 2.31 1.25 2.31.83 0 1.26-.53 1.26-1.51 0-.55-.18-.9-.42-1.1-.25-.21-.67-.4-1.04-.59-.42-.2-.85-.39-1.14-.69-.27-.26-.55-.75-.55-1.63 0-1.4.72-2.16 1.86-2.16 1.36 0 1.79.78 1.79 3.07h-.63c0-1.97-.34-2.48-1.14-2.48-.75 0-1.23.52-1.23 1.53 0 .69.18 1.03.4 1.25.26.26.67.43 1.07.61.42.2.85.39 1.12.66.32.31.56.8.56 1.48 0 1.34-.66 2.13-1.93 2.13-1.45 0-1.88-1.01-1.88-2.89z" id="path359"/><path class="cls-1" d="M126.72 27.99h.67v3.57h2.73v-3.57h.66v8.07h-.66v-3.94h-2.73v3.94h-.67z" id="path361"/><path class="cls-1" d="M132.5 31.99c0-2.83.65-4.1 2.07-4.1s2.07 1.26 2.07 4.1-.65 4.17-2.07 4.17-2.07-1.3-2.07-4.17zm3.47 0c0-2.4-.44-3.47-1.4-3.47s-1.4 1.07-1.4 3.47c0 2.4.43 3.54 1.4 3.54s1.4-1.1 1.4-3.54z" id="path363"/><path class="cls-1" d="M138.35 27.99h1.1l1.46 6.78h.02l1.48-6.78h1.08v8.07h-.66l.04-7.51h-.02l-1.68 7.51h-.54l-1.68-7.51h-.02l.05 7.51h-.63z" id="path365"/><path class="cls-1" d="M145.32 27.99h3.03v.63H146v3.13h1.94v.52H146v3.18h2.44v.63h-3.11v-8.07z" id="path367"/></g></svg>