<svg version="1.0" xml:space="preserve" width="800" height="320" xmlns="http://www.w3.org/2000/svg"><path d="M0 0h800v320H0z" fill="#fff" style="clip-rule:evenodd;fill-rule:evenodd;stroke-width:.8;stroke-linejoin:round;stroke-miterlimit:2"/><path d="M119.58 105.2c14.833 10.712 21.15 13.734 28.567 22.249 7.417 8.515 17.031 17.03 31.59 17.855 14.558.824 51.916-7.417 74.99-17.855 23.348-10.438 80.483-37.083 100.536-44.5 20.052-7.416 59.332-24.447 93.12-23.348 33.786 1.099 73.066 9.614 112.072 23.348 39.28 13.735 48.345 15.383 63.453 13.735 29.667-3.296 35.985-26.37 44.5-34.886-15.932-2.197-26.37-2.197-53.84-8.515-27.468-6.318-66.748-23.348-87.625-32.688-21.15-9.614-45.598-18.953-73.891-17.855-28.568 1.1-71.969 11.537-94.218 18.954-22.25 7.416-74.99 27.469-103.558 39.006-28.842 11.811-79.11 31.589-98.613 36.259-13.735 3.021-23.349 6.317-37.083 8.24" fill="#009e3d" style="stroke-width:2.74689"/><path d="M373.392 168.927s41.203-2.197 54.938-3.296c13.734-1.099 39.006 5.219 58.234 12.635 18.953 7.417 45.598 18.954 67.573 22.25 22.25 3.297 60.157 18.13 99.438 6.318 39.006-11.537 50.817-18.953 60.157-34.885 9.614-15.932 15.931-28.568 15.931-41.204 0-12.635-5.219-9.614-11.536-5.219-6.318 4.12-31.864 17.855-66.75 21.151-34.885 3.297-59.333 5.22-92.02-5.219-32.689-10.713-59.333-24.447-83.506-31.864-24.447-7.416-40.104-11.537-62.354-8.515-22.25 3.296-25.272 9.614-28.568 15.932-3.021 6.318-3.021 21.15-3.021 28.568 0 7.416-8.516 23.348-8.516 23.348" fill="#0069b4" style="stroke-width:2.74689"/><path d="M714.83 81.027s-23.348 3.296-30.765 6.317c-7.416 3.297-17.03 5.22-13.734 10.713 3.296 5.22 4.12 7.417 17.03 6.318 12.636-1.099 21.151-4.12 23.349-9.614 1.923-5.219 4.12-13.734 4.12-13.734m-103.557 29.666s-21.151-6.318-31.59-10.438c-10.712-4.12-21.15-5.22-28.567-3.296-7.417 2.197-17.03 3.296-10.713 8.515 6.318 5.219 20.052 12.636 29.666 12.636h41.204zm-115.37-18.13L461.018 74.71s-7.417-3.296-15.932 0-13.735 5.219-9.614 9.614c4.12 4.12 11.537 8.515 21.15 8.515 9.615 0 18.954 0 23.35 1.099 4.394.824 15.931-1.373 15.931-1.373m-122.51 4.395s-8.516-1.1-14.834-1.1-21.151 3.297-27.469 5.22c-6.318 2.197-23.348 11.537-24.447 17.03-1.099 5.22-1.099 10.713 10.438 8.516 11.537-2.198 20.052-6.318 27.469-9.614 7.416-3.296 25.271-7.417 27.469-11.537 2.472-4.395 5.493-7.417 1.373-8.515M60.796 200.516h30.765l24.173 85.428h.275l24.447-85.428h29.666L133.04 309.293H97.33zm120.863 0h29.117v41.478h34.062v-41.478h29.117v108.777h-29.117v-46.697h-34.062v46.697H181.66zm111.799 0h49.993c20.327 0 35.435 8.79 35.435 27.47 0 13.734-6.867 21.425-19.228 25.27v.275c14.558 3.022 21.975 10.713 21.975 23.898 0 26.096-22.8 31.315-42.302 31.315h-45.873zm28.842 42.852h7.966c9.614 0 19.228-2.472 19.228-11.537 0-9.889-9.34-10.988-18.953-10.988h-8.516v22.525zm0 45.323h8.515c10.713 0 21.7-1.648 21.7-12.635 0-11.812-11.261-12.91-21.425-12.91h-8.79zm105.755-56.31h4.67l7.691 27.193h.275l8.24-27.194h4.12l-10.437 33.237h-4.395zm29.667 22.249c0 5.768 2.197 8.24 6.592 8.24 1.923 0 4.12-1.098 5.494-1.922l.275 3.57c-1.923.825-4.395 1.374-6.868 1.374-6.592 0-9.888-4.944-9.888-12.636 0-7.69 3.296-12.635 9.339-12.635 5.494 0 8.515 4.395 8.515 11.537v2.197h-13.46zm9.614-3.022c0-5.219-1.648-7.69-4.67-7.69-2.472 0-4.944 1.922-4.944 7.69zm8.515-4.944c0-1.648-.275-3.571-.275-5.22h3.846v3.847c1.373-3.022 3.296-4.12 6.867-4.12v3.845c-.55 0-1.099-.275-1.648-.275-3.021 0-5.219 2.747-5.219 7.966v12.91h-4.12v-18.953zm26.645-5.494h4.67l-9.615 10.988 10.439 13.46h-4.945l-8.79-12.087v12.086h-4.12v-35.984h4.12v21.426zm10.163 13.46c0 5.768 2.198 8.24 6.593 8.24 1.923 0 4.12-1.098 5.494-1.922l.274 3.57c-1.922.825-4.395 1.374-6.867 1.374-6.592 0-9.889-4.944-9.889-12.636 0-7.69 3.297-12.635 9.34-12.635 5.494 0 8.515 4.395 8.515 11.537v2.197h-13.46zm9.89-3.022c0-5.219-1.649-7.69-4.67-7.69-2.473 0-4.945 1.922-4.945 7.69zm8.24-21.975h4.12v14.833c1.099-1.922 3.296-3.57 6.043-3.57 4.395 0 7.142 2.472 7.142 7.69v17.031h-3.845V249.96c0-3.845-1.374-5.494-4.12-5.494-3.297 0-5.22 2.198-5.22 6.593v14.833h-4.12zm23.348 17.031c0-1.648-.274-3.571-.274-5.22h3.845l.275 3.847c1.373-3.022 3.296-4.12 6.867-4.12v3.845c-.55 0-1.099-.275-1.648-.275-3.021 0-5.219 2.747-5.219 7.966v12.91h-4.12v-18.953zm12.91 14.284c1.924 1.099 3.846 1.923 5.77 1.923 3.02 0 4.669-1.649 4.669-3.571 0-1.648-.824-2.747-3.022-3.846l-2.747-1.099c-3.57-1.648-4.67-3.296-4.67-6.318 0-4.12 3.022-7.141 7.967-7.141 1.923 0 3.845.274 5.219.824l-.275 3.57c-1.373-.549-3.021-1.098-4.67-1.098-2.746 0-4.12 1.373-4.12 3.296 0 1.923 1.374 3.022 4.12 4.12l1.374.55c3.021 1.099 4.944 3.296 4.944 6.318 0 4.12-2.197 7.69-7.966 7.69-2.472 0-4.944-.549-6.592-1.373zm16.482-19.778h4.395l5.22 20.602h.274l5.494-20.602h4.12l-7.417 24.447h-4.67zm25.82 13.46c0 5.768 2.198 8.24 6.593 8.24 1.923 0 4.12-1.098 5.494-1.922l.275 3.57c-1.923.825-4.395 1.374-6.867 1.374-6.593 0-9.89-4.944-9.89-12.636 0-7.69 3.297-12.635 9.34-12.635 5.494 0 8.516 4.395 8.516 11.537v2.197h-13.46zm9.89-3.022c0-5.219-1.649-7.69-4.67-7.69-2.472 0-4.944 1.922-4.944 7.69zm8.515-4.944c0-1.648-.275-3.571-.275-5.22h3.846l.275 3.847c1.373-3.022 3.296-4.12 6.867-4.12v3.845c-.55 0-1.099-.275-1.648-.275-3.022 0-5.22 2.747-5.22 7.966v12.91h-4.12v-18.953zm13.734-17.03h4.12v14.832c1.649-2.472 3.572-3.57 6.319-3.57 4.944 0 8.515 4.12 8.515 12.635 0 8.516-3.296 12.636-8.515 12.636-3.571 0-5.494-1.923-6.318-3.846l-.275 3.571h-3.846c0-1.373.275-3.021.275-4.395v-31.864zm9.34 33.237c3.57 0 5.494-3.297 5.494-9.34 0-6.043-1.649-9.34-5.494-9.34-3.571 0-5.494 3.022-5.494 9.34.275 6.043 1.923 9.34 5.494 9.34m31.314-2.473c0 1.649.275 3.571.275 5.22h-3.846l-.274-3.571c-1.374 2.746-3.297 3.845-6.318 3.845-4.395 0-7.142-2.472-7.142-7.691v-17.03h4.12v15.656c0 3.846 1.374 5.494 4.12 5.494 3.297 0 5.22-2.197 5.22-6.592v-14.833h4.12v19.502zm5.769-13.734c0-1.648-.275-3.571-.275-5.22h3.846l.274 3.572c1.374-2.747 3.297-3.846 6.318-3.846 4.395 0 7.142 2.472 7.142 7.691v17.031h-4.12v-15.657c0-3.846-1.374-5.494-4.12-5.494-3.297 0-5.22 2.198-5.22 6.593v14.833h-4.12v-19.503zm40.928 14.558c0 1.374.275 3.022.275 4.395h-3.846v-3.57c-1.098 1.922-2.746 3.845-6.317 3.845-4.945 0-8.516-4.12-8.516-12.636 0-8.515 3.297-12.635 8.516-12.635 2.747 0 4.67 1.099 6.317 3.57V229.36h4.12v31.863zm-9.614-17.03c-3.57 0-5.493 3.296-5.493 9.34 0 6.042 1.648 9.339 5.493 9.339 3.571 0 5.494-3.297 5.494-9.34 0-6.043-1.648-9.34-5.494-9.34m-287.874 30.766h4.396v14.284h11.536v-14.284h4.395v33.512h-4.395v-15.657h-11.536v15.657h-4.396zm29.942 22.25c0 5.768 2.197 8.24 6.592 8.24 1.923 0 4.12-1.098 5.494-1.922l.275 3.57c-1.923.825-4.395 1.374-6.868 1.374-6.592 0-9.888-4.944-9.888-12.636 0-7.691 3.296-12.635 9.339-12.635 5.494 0 8.515 4.395 8.515 11.537v2.197h-13.46zm9.614-3.022c0-4.944-1.648-7.691-4.67-7.691-2.472 0-4.944 1.923-4.944 7.691zm26.095 15.108c0 6.867-4.944 9.614-10.438 9.614-2.198 0-5.494-.824-7.142-1.373l.275-4.12c1.648 1.098 4.395 2.197 6.592 2.197 4.945 0 6.867-3.022 6.867-7.142v-3.846c-1.648 2.747-3.845 4.12-6.317 4.12-4.945 0-8.516-4.12-8.516-12.635s3.297-12.636 8.79-12.636c2.472 0 4.67 1.648 6.043 3.846l.275-3.571h3.846c0 1.373-.275 3.022-.275 4.395zm-9.34-3.846c3.572 0 5.494-3.296 5.494-9.34 0-6.042-1.648-9.338-5.493-9.338-3.571 0-5.494 3.296-5.494 9.339 0 6.043 1.923 9.34 5.494 9.34m15.932-19.778c1.922-1.374 4.395-1.923 6.867-1.923 3.57 0 5.768 1.648 6.592 2.197 1.1 1.1 2.198 2.473 2.198 6.044v12.635c0 1.374 0 2.747.275 3.846h-3.571l-.275-3.296c-1.099 1.923-3.022 3.57-6.867 3.57-4.12 0-7.142-2.472-7.142-7.141 0-4.67 3.021-8.24 11.537-8.24h2.472v-1.1c0-1.923-.275-2.747-.824-3.845-.824-1.1-2.472-1.648-4.12-1.648-2.473 0-4.945 1.098-6.318 2.472zm11.537 10.713h-2.747c-4.67 0-6.868 2.197-6.868 4.944 0 2.472 1.374 4.395 4.12 4.395 3.572 0 5.77-2.747 5.77-6.318v-3.021zm26.92 6.592c0 1.648.274 3.571.274 5.22h-3.846l-.275-3.572c-1.373 2.747-3.296 3.846-6.317 3.846-4.395 0-7.142-2.472-7.142-7.691v-17.031h4.12v15.657c0 3.846 1.373 5.494 4.12 5.494 3.297 0 5.22-2.198 5.22-6.593v-14.833h4.12v19.503zm4.669-9.889h10.438v3.571H546.72zm15.932-18.13h8.515c6.593 0 9.34 3.572 9.34 8.516 0 3.571-2.198 6.593-5.494 7.417 3.57.55 6.318 3.57 6.318 8.24s-3.297 9.065-10.439 9.065h-7.966v-33.237zm4.395 14.285h2.472c4.67 0 6.867-2.198 6.867-5.769 0-2.747-1.648-5.219-6.043-5.219h-3.296zm0 15.657h3.57c4.396 0 6.593-2.747 6.593-6.043 0-3.571-1.923-6.043-6.043-6.043h-4.12zm28.567-21.426c6.593 0 9.89 4.945 9.89 12.636 0 7.691-3.297 12.636-9.89 12.636-6.592 0-9.888-4.945-9.888-12.636 0-7.691 3.296-12.636 9.888-12.636m0 21.975c3.846 0 5.494-3.296 5.494-9.34 0-6.042-1.648-9.338-5.494-9.338-3.845 0-5.493 3.296-5.493 9.339-.275 6.043 1.648 9.34 5.493 9.34m31.864-1.649c0 1.374.275 3.022.275 4.395h-3.846l-.274-3.57c-1.1 1.922-2.747 3.845-6.318 3.845-4.945 0-8.516-4.12-8.516-12.636 0-8.515 3.297-12.635 8.516-12.635 2.747 0 4.67 1.098 6.318 3.57v-14.833h4.12V303.8zm-9.34-17.03c-3.57 0-5.493 3.296-5.493 9.339 0 6.043 1.648 9.34 5.494 9.34 3.57 0 5.494-3.297 5.494-9.34 0-6.043-1.649-9.34-5.494-9.34m17.855 10.439c0 5.768 2.197 8.24 6.592 8.24 1.923 0 4.12-1.098 5.494-1.922l.275 3.57c-1.923.825-4.395 1.374-6.868 1.374-6.592 0-9.888-4.944-9.888-12.636 0-7.691 3.296-12.635 9.339-12.635 5.494 0 8.515 4.395 8.515 11.537v2.197h-13.46zm9.888-3.022c0-4.944-1.648-7.691-4.67-7.691-2.471 0-4.944 1.923-4.944 7.691zm8.516-4.944c0-1.648-.275-3.571-.275-5.22h3.846l.274 3.572c1.374-2.747 3.297-3.846 6.318-3.846 4.395 0 7.142 2.472 7.142 7.691v17.03h-4.12v-15.656c0-3.846-1.374-5.494-4.12-5.494-3.297 0-5.22 2.197-5.22 6.592v14.834h-4.12V289.24zm21.975 14.284c1.923 1.098 3.846 1.922 5.768 1.922 3.022 0 4.67-1.648 4.67-3.57 0-1.649-.824-2.747-3.022-3.846l-2.746-1.099c-3.571-1.648-4.67-3.296-4.67-6.318 0-4.12 3.021-7.142 7.966-7.142 1.923 0 3.845.275 5.219.824l-.275 3.571c-1.373-.55-3.021-1.098-4.67-1.098-2.746 0-4.12 1.373-4.12 3.296 0 1.923 1.374 3.021 4.12 4.12l1.374.55c3.022 1.098 4.944 3.296 4.944 6.317 0 4.12-2.197 7.692-7.966 7.692-2.472 0-4.944-.55-6.592-1.374zm21.975-6.318c0 5.768 2.197 8.24 6.592 8.24 1.923 0 4.12-1.098 5.494-1.922l.275 3.57c-1.923.825-4.395 1.374-6.867 1.374-6.593 0-9.889-4.944-9.889-12.636 0-7.691 3.296-12.635 9.34-12.635 5.493 0 8.515 4.395 8.515 11.537v2.197h-13.46zm9.614-3.022c0-4.944-1.648-7.691-4.67-7.691-2.472 0-4.944 1.923-4.944 7.691zm11.537 3.022c0 5.768 2.198 8.24 6.593 8.24 1.922 0 4.12-1.098 5.493-1.922l.275 3.57c-1.923.825-4.395 1.374-6.867 1.374-6.593 0-9.889-4.944-9.889-12.636 0-7.691 3.296-12.635 9.34-12.635 5.493 0 8.515 4.395 8.515 11.537v2.197H719.5zm9.889-3.022c0-4.944-1.648-7.691-4.67-7.691-2.472 0-4.944 1.923-4.944 7.691z" style="stroke-width:2.74689"/></svg>