<svg width="800" height="320" xml:space="preserve" version="1.0" xmlns="http://www.w3.org/2000/svg"><path d="M0 0h800v320H0z" fill="#fff" style="clip-rule:evenodd;fill-rule:evenodd;stroke-width:.8;stroke-linejoin:round;stroke-miterlimit:2"/><path d="M560.67 88.428c0 8.81 7.2 15.79 16.007 15.79 6.662 0 12.57-3.759 17.297-8.163l-.859 30.828c-6.23 2.149-13.107 3.33-19.768 3.33-21.008 0-37.969-14.806-41.598-34.588h-43.692v-19.12h13.321c-1.397-4.94-7.305-7.09-11.925-7.09-9.56 0-15.148 8.379-15.148 17.295 0 9.774 5.8 18.798 16.33 18.798 4.727 0 8.917-2.149 11.172-6.231l27.503 10.097c-6.337 13.858-25.676 20.839-39.748 20.839-13.382 0-25.095-4.396-33.203-12.397l4.302 11.109h-30.726L419.192 92.08c-1.18-3.975-2.041-7.949-2.041-12.031h-.644c0 4.082-.859 8.056-2.041 12.031l-10.743 36.844h-30.726l31.37-80.992h24.924l15.37 39.68c.143-25.822 20.064-40.97 44.684-40.97 12.57 0 25.785 5.049 34.378 14.395 4.904 5.288 7.285 10.775 8.476 16.647 4.353-18.076 20.332-31.042 39.967-31.042 5.264 0 16.221.968 20.95 3.222l.858 30.292c-4.728-4.619-10.098-7.518-16.866-7.518-8.81 0-16.437 6.874-16.437 15.79" style="display:inline;fill:#00a0e3;fill-opacity:1;fill-rule:nonzero;stroke:none" transform="matrix(3.61173 0 0 -3.61173 -1346.306 478.707)"/><path d="m412.687 98.18-8.964 30.745h-30.726l13.85-35.76c4.542 2.275 13.545 5.68 25.84 5.016M456.408 80.48c13.506-9.121 26.262-17.737 54.373-18.36 4.97-.112 10.043.424 15.013 1.375 3.517 4.53 5.397 9.222 6.405 14.19a40.686 40.686 0 0 1 4.654-11.391c11.82 3.688 22.004 8.988 27.329 12.423-2.177 2.655-3.511 6.001-3.511 9.711 0 8.81 7.198 15.79 16.006 15.79 6.662 0 12.57-3.759 17.297-8.163l-.859 30.828c-6.23 2.149-13.107 3.33-19.768 3.33-21.008 0-37.969-14.806-41.598-34.588h-43.692v-19.12h13.321c-1.397-4.94-7.305-7.09-11.925-7.09-9.56 0-15.148 8.379-15.148 17.295 0 9.774 5.8 18.798 16.33 18.798 4.727 0 8.917-2.149 11.172-6.231l27.503 10.097c-6.337 13.858-25.676 20.839-39.748 20.839-13.382 0-25.095-4.396-33.203-12.397l4.302 11.109h-30.726L420.686 97.2c7.767-1.467 16.52-4.606 26.046-10.409 3.396-2.07 6.589-4.225 9.676-6.311" style="display:inline;fill:#61bb46;fill-opacity:1;fill-rule:evenodd;stroke:none" transform="matrix(3.61173 0 0 -3.61173 -1346.306 478.707)"/><path d="M387.368 91.786c6.905 3.645 28.545 12.006 58.04-5.966 3.344-2.037 6.512-4.178 9.577-6.246 13.824-9.337 26.881-18.156 55.737-18.797 22.882-.509 45.753 11.354 54.447 16.793l-1.498 1.722c-8.614-5.354-30.749-16.747-52.898-16.255-28.19.628-40.981 9.266-54.523 18.412-3.085 2.082-6.275 4.237-9.664 6.304-19.417 11.83-35.444 12.44-45.468 10.87-6.768-1.06-11.738-3.189-14.603-4.7l.853-2.137" style="display:inline;fill:#fff;fill-opacity:1;fill-rule:nonzero;stroke:none" transform="matrix(3.61173 0 0 -3.61173 -1346.306 478.707)"/></svg>