<svg width="800" height="320.003" xmlns="http://www.w3.org/2000/svg"><path d="M0 0h800v320H0z" fill="#fff" style="clip-rule:evenodd;fill-rule:evenodd;stroke-width:.8;stroke-linejoin:round;stroke-miterlimit:2"/><path fill="#52ae32" d="M130.738 88.869 152.736 28.5l59.841 22.818-19.098 8.758 45.987 100.878 41.125-92.032h52.225l-70.005 155.564h-46.719L150.48 79.789z" style="stroke-width:2.92909"/><path d="m614.42.527 45.283 45.343-45.342 45.694V69.01h-32.22c-17.106-.088-29.613 13.971-29.613 31.106v20.24h42.413v44.376h-42.413v59.754h-47.92v-124.37a77.504 77.504 0 0 1 77.65-77.415l32.22.205V.527z" fill="#f59c00" style="stroke-width:2.92909"/><path d="M370.104 146.718a31.312 31.312 0 1 0 31.37-31.634 31.663 31.663 0 0 0-31.37 31.634zm47.451 105.038a13.62 13.62 0 1 0 0-27.241h-16.14a77.797 77.797 0 1 1 0-155.564l77.153.264-22.349 22.32a77.826 77.826 0 0 1 5.507 104.275 61.862 61.862 0 0 1 16.9 42.296 59.431 59.431 0 0 1-58.406 59.46 2.49 2.49 0 0 1-.878.323h-90.48v22.114l-45.43-45.43 45.46-45.576v22.7z" fill="#4f84c4" style="stroke-width:2.92909"/></svg>