<svg viewBox="0 0 800 320" version="1.1" id="svg2" xml:space="preserve" xmlns="http://www.w3.org/2000/svg"><defs id="defs1"><path id="SVGID_00000132771776994441339210000010272632559138794632_" d="M211.22 68.4c0 7.41 6.04 13.42 13.49 13.42s13.48-6.01 13.48-13.42-6.04-13.42-13.48-13.42c-7.45 0-13.49 6-13.49 13.42"/><path id="SVGID_1_" d="M97.97 68.4c0 7.41 6.04 13.42 13.49 13.42s13.48-6.01 13.48-13.42-6.04-13.42-13.48-13.42c-7.45 0-13.49 6-13.49 13.42"/><path id="SVGID_00000044898771460269573090000010456118392746125217_" d="M120.62 68.4c0 7.41 6.04 13.42 13.49 13.42s13.49-6.01 13.49-13.42-6.04-13.42-13.49-13.42-13.49 6-13.49 13.42"/><path id="SVGID_00000127743730624216497450000002043249572621365943_" d="M143.27 68.4c0 7.41 6.04 13.42 13.48 13.42 7.45 0 13.48-6.01 13.48-13.42s-6.04-13.42-13.48-13.42-13.48 6-13.48 13.42"/><path id="SVGID_00000162329239644862310090000004140755303673011123_" d="M165.92 68.4c0 7.41 6.04 13.42 13.48 13.42 7.45 0 13.49-6.01 13.49-13.42s-6.04-13.42-13.49-13.42c-7.44 0-13.48 6-13.48 13.42"/><path id="SVGID_00000079476757253046130470000001117058738893821098_" d="M188.57 68.4c0 7.41 6.04 13.42 13.49 13.42s13.49-6.01 13.49-13.42-6.04-13.42-13.49-13.42-13.49 6-13.49 13.42"/><path id="B" d="M100.3-65.5h594.1v594.1H100.3z"/><clipPath id="A"><use href="#B" id="use1"/></clipPath><clipPath id="clipPath3061"><path d="M493.748 648.051h112.999v74.678H493.748v-74.678z" id="path3063"/></clipPath><clipPath id="clipPath6935"><path d="M549.227 732.295c-1.846-1.623-2.791-4.136-2.791-6.064v-8.709c0-1.684-.798-2.611-2.16-2.611-1.363 0-2.146.872-2.146 2.683v8.549c.21 3.412-2.252 8.278-8.329 8.278-7.689 0-8.539-7.051-8.539-8.286v-8.784c0-1.307-.385-2.481-2.063-2.481-1.401 0-2.104 1.421-2.104 2.519v8.949s.455 3.093-2.184 5.732c-2.638 2.638-6.146 2.269-6.146 2.269l-23.181-.004c-4.451-.001-7.423-2.486-7.423-7.008 0-1.157.411-4.411 4.453-6.847 4.041-2.437 4.701-3.627 4.661-4.329-.041-.702-.933-1.357-2.434-1.357h-10.597c-1.341 0-4.046.035-5.322 1.152-1.276 1.116-1.858 3.007-1.858 3.007l5.859.003c1.079 0 2.556.99 2.556 2.762 0 1.773-1.62 2.724-2.68 2.724h-5.858c.578 1.155 1.025 2.185 2.383 3.095 1.315.884 3.06.897 4.423.902l1.65.004v5.937l-3.258-.045c-7.382-.1-11.96-6.019-11.96-12.739 0-6.721 4.438-12.582 12.001-12.582h13.69c6.18 0 8.17 3.465 8.17 7.342s-3.34 6.106-5.445 7.631c-2.104 1.527-3.932 2.267-3.959 3.673-.016.866.977.739 1.773.739l11.794.004v-19.306h6.312v19.346l4.333-.004c.67-.001 1.156-.328 1.608-.779.451-.452.411-1.294.411-1.817v-9.198c0-5.954 4.701-7.793 8.291-7.793 5.47 0 8.456 4.243 8.456 8.204v9.087c0 1.558 1.155 2.276 2.101 2.214 1.405-.091 2.245-.536 2.245-2.514v-8.661c0-3.634 2.584-8.291 8.11-8.291 5.527 0 8.621 3.979 8.621 8.369v8.71c0 .729.117 1.275.737 1.906.689.702 1.572.567 1.572.567v6.061s-3.277-.013-5.773-2.209" id="path6937"/></clipPath><clipPath id="clipPath16"><path d="M-9-9h1209v1702H-9V-9z" id="path18"/></clipPath><clipPath id="clipPath3081"><path d="M485.037 646.354h128.667v81H485.037v-81z" id="path3083"/></clipPath><clipPath id="clipPath3029"><path d="M485.037 646.354h128.667v81H485.037v-81z" id="path3031"/></clipPath><style type="text/css" id="style1-4"></style></defs><path d="M0 0h800v320H0z" fill="#fff" id="path1" style="fill:none"/><g id="logo" transform="matrix(2.9629 0 0 2.96297 0 106.661)" style="stroke-width:.337504"><path id="Pfad_37" data-name="Pfad 37" d="m21.2 3.4-9.051 20.065L10.507 3.4H0l3.721 34.476H15.87L32.177 3.4z" transform="translate(0 -2.166)" style="stroke-width:.337504"/><path id="Pfad_38" data-name="Pfad 38" d="M74.876 3.4 54.3 37.876h10.689l2.882-5h11.784l.693 5h10.8L84.58 3.4h-9.7zm-2.59 21.853 5.035-8.719 1.24 8.719z" transform="translate(-34.49 -2.166)" style="stroke-width:.337504"/><path id="Pfad_39" data-name="Pfad 39" d="m175.246 15.608-1.532 7.406h4.123s-2.335 4.816-7.224 3.758c-4.3-.949-4.779-5.545-3.539-10.142 1.022-3.831 4.2-9.048 9.23-8.136 3.831.693 3.94 3.758 3.94 3.831 0 .036 9.7 0 9.7 0S191.626.249 176.6-.007c-15.067-.255-20.5 12.039-20.977 19.3-.477 7.261 2.549 16.161 13.384 16.707 5.8.292 9.887-3.977 9.887-3.977l-.109 3.685h7.078l4.232-20.1z" transform="translate(-98.815)" style="stroke-width:.337504"/><path id="Pfad_40" data-name="Pfad 40" d="M252.3 37.822 264.777 3.2h165.484v34.695z" transform="translate(-160.255 -2.039)" style="stroke-width:.337504;fill:#b80012"/></g></svg>