<svg version="1.1" id="Ebene_1" x="0" y="0" xml:space="preserve" width="800" height="320" xmlns="http://www.w3.org/2000/svg"><style type="text/css" id="style2">.st0{fill:#181716}</style><path d="M0 0h800v320H0z" fill="#fff" style="clip-rule:evenodd;fill-rule:evenodd;stroke-width:.8;stroke-linejoin:round;stroke-miterlimit:2" id="path735"/><g id="g30" transform="matrix(1.86303 0 0 1.86303 212.612 -53.138)"><path class="st0" id="polygon4" d="M99.3 161.8h-5.7l-5.7 17.6-5.6-17.6h-5.7l8.2 25H91z"/><path class="st0" d="M112.7 161.8h-11.3v25h5.5v-9h5.8c6.2 0 8.6-4 8.6-8s-2.4-8-8.6-8zm-1.5 11.8h-4.3v-7.5h4.3c2.6 0 4.8.6 4.8 3.7 0 3.2-2.3 3.8-4.8 3.8z" id="path6"/><path class="st0" id="polygon8" d="M124.7 161.8v25h19v-4.6h-13.5v-6.1h12.1v-4.3h-12.1v-5.4h13.2v-4.6z"/><path class="st0" id="polygon10" d="m97.9 193.2-1.5 4.9h-.1l-1.6-4.9h-1.5l2.3 6.4h1.6l2.3-6.4z"/><path class="st0" d="M106.2 193c-1.9 0-3.1 1.6-3.1 3.4 0 2 1.1 3.4 3.2 3.4 1.4 0 2.6-.8 2.9-2.2h-1.4c-.2.7-.8 1.1-1.6 1.1-1.2 0-1.7-.9-1.7-1.9h4.7c.3-2-1-3.8-3-3.8zm-1.7 2.8c0-1 .7-1.7 1.7-1.7s1.6.8 1.6 1.7z" id="path12"/><path class="st0" d="M114.8 194.4v-1.2h-1.3v6.5h1.4v-3.1c0-1.4.8-2.2 1.7-2.2.2 0 .4 0 .6.1V193h-.5c-.9 0-1.7.7-1.9 1.4z" id="path14"/><path class="st0" d="M124.4 193c-.7 0-1.5.4-1.9 1v-3.3H121v8.9h1.3v-.9c.4.9 1.4 1.1 2.2 1.1 1.9 0 2.8-1.6 2.8-3.4.1-1.8-.9-3.4-2.9-3.4zm-.2 5.7c-1.1 0-1.8-1-1.8-2.3 0-1.4.6-2.3 1.8-2.3 1.2 0 1.8 1.1 1.8 2.3 0 1.1-.5 2.3-1.8 2.3z" id="path16"/><path class="st0" id="rect18" d="M131.8 193.2h1.4v6.5h-1.4z"/><path class="st0" id="rect20" d="M131.8 190.7h1.4v1.3h-1.4z"/><path class="st0" d="M141.3 193c-.8 0-1.6.4-2 1.2v-.9H138v6.5h1.4V196c0-.9.6-1.7 1.6-1.7.8 0 1.2.4 1.3 1.4v4.1h1.4v-4.4c-.2-1.6-1-2.4-2.4-2.4z" id="path22"/><path class="st0" d="M152.8 194c-.5-.7-1.4-1-2.2-1-1.4 0-2.8 1-2.8 3.4 0 1.9 1 3.4 3 3.4.8 0 1.6-.3 2-1v.9h1.3v-8.9h-1.4v3.2zm-1.7 4.7c-1.2 0-1.8-1.1-1.8-2.2 0-1.2.5-2.3 1.8-2.3 1.1 0 1.8.8 1.8 2.3 0 1-.6 2.2-1.8 2.2z" id="path24"/><path class="st0" d="M161.7 193c-1.9 0-3.1 1.6-3.1 3.4 0 2 1.1 3.4 3.2 3.4 1.4 0 2.6-.8 2.9-2.2h-1.3c-.2.7-.8 1.1-1.6 1.1-1.2 0-1.7-.9-1.7-1.9h4.7c.2-2-1-3.8-3.1-3.8zm-1.7 2.8c0-1 .7-1.7 1.7-1.7s1.6.8 1.6 1.7z" id="path26"/><path class="st0" d="M172.1 194.2v-1.1h-1.3v-1.9h-1.4v1.9h-1.1v1.1h1.1v3.8c0 1.1.3 1.7 1.8 1.7.3 0 .6 0 .9-.1v-1.1h-.6c-.6 0-.7-.3-.7-.9v-3.5h1.3z" id="path28"/></g><path d="M497.47 59.39c-6.893-.187-13.414 2.235-18.444 6.893-5.03 4.657-8.011 10.991-8.197 17.885a25.631 25.631 0 0 0 3.54 13.972l-17.327 15.65c-8.01-6.707-18.071-10.806-29.25-11.178-3.54-.187-6.893.186-10.246.745l3.167 10.62c2.236-.373 4.471-.373 6.707-.373 12.296.372 22.915 6.707 29.436 16.022l3.912-3.54 21.611-19.562c3.727 2.422 8.198 4.099 13.228 4.285h.932c13.786 0 25.15-10.992 25.71-24.778.372-14.346-10.62-26.27-24.779-26.642zm-1.49 39.682c-7.639-.186-13.787-6.707-13.414-14.532.186-3.726 1.677-7.266 4.471-9.688a13.867 13.867 0 0 1 9.502-3.726h.558c7.639.187 13.787 6.707 13.414 14.532-.372 7.639-6.707 13.6-14.531 13.414z" id="path32" style="stroke-width:1.86303;fill:#009de2"/><path d="M512.747 163.72c-7.638-.187-14.532 3.353-18.63 9.128l-21.239-8.756c.932-3.54 1.49-7.266 1.677-11.178a48.52 48.52 0 0 0-9.502-30.554l-8.197 7.452c4.471 6.334 7.08 14.345 6.707 22.729-.186 6.707-2.236 12.855-5.403 18.258l10.247 4.285 21.61 8.942c0 .373 0 .745-.185 1.118-.373 12.11 9.128 22.356 21.238 22.915h.745c5.59 0 10.992-2.049 15.091-5.961 4.285-4.099 6.893-9.502 7.08-15.277.558-12.483-8.943-22.73-21.24-23.102zm6.334 29.621c-2.05 1.863-4.657 2.795-7.452 2.795-5.589-.186-10.06-5.03-9.874-10.62.186-5.588 4.844-9.873 10.247-9.873h.372c5.59.186 10.06 5.03 9.874 10.619 0 2.608-1.117 5.216-3.167 7.08z" id="path34" style="stroke-width:1.86303;fill:#e2000b"/><path d="M449.776 204.892h-1.117l-2.795-9.315c9.502-4.285 17.513-11.364 22.729-20.493l-10.247-4.285c-6.893 11.178-19.375 18.444-33.348 18.071-20.68-.745-36.888-18.071-36.143-38.75.56-18.445 14.532-33.35 32.044-35.771l-3.353-10.992-18.63-61.48c5.961-3.913 9.874-10.433 10.246-18.072.373-12.482-9.315-22.915-21.797-23.474-12.483-.372-22.916 9.315-23.474 21.798-.373 12.482 9.501 23.101 21.983 23.474h2.05l18.444 61.294a47.184 47.184 0 0 0-21.984 19.748l-65.951-24.779c0-.745.186-1.49.186-2.049.186-3.912-.56-7.825-2.236-11.55-5.961-13.228-21.425-19.004-34.652-13.228-9.502 4.098-15.09 13.227-15.463 22.915-.187 3.912.559 7.825 2.235 11.55 5.962 13.228 21.425 19.004 34.653 13.228 4.844-2.235 8.756-5.589 11.364-9.874l65.02 24.592c-1.118 3.913-1.863 7.825-2.05 12.11-.372 12.482 3.913 24.033 11.179 32.79l-77.13 74.148c-.559-.372-1.304-.745-2.049-1.118-16.767-8.01-36.888-1.117-44.9 15.65-2.048 4.285-3.166 8.942-3.353 13.414-.372 12.855 6.707 25.523 19.003 31.485 16.768 8.011 36.888 1.118 44.9-15.65 2.049-4.284 3.167-8.942 3.353-13.413.373-8.384-2.608-16.581-8.011-22.916l76.57-73.776c7.639 5.59 16.954 8.943 27.015 9.315 3.54.187 6.893-.186 10.06-.745l3.167 10.06c-3.726 3.168-6.334 7.825-6.52 13.228-.373 9.874 7.452 18.258 17.326 18.63 9.874.373 18.257-7.452 18.63-17.326.745-9.688-7.08-18.071-16.954-18.444zM375.814 22.688c.186-5.962 5.216-10.62 11.178-10.433 5.962.186 10.62 5.216 10.433 11.178-.186 5.961-5.216 10.62-11.178 10.433-5.962-.187-10.62-5.217-10.433-11.178zm-77.502 89.239c-7.266 3.353-15.836 0-19.19-7.266-.931-2.05-1.304-4.099-1.304-6.334.187-5.59 3.54-10.433 8.57-12.669 3.54-1.49 7.453-1.677 10.992-.373 3.54 1.305 6.52 4.1 8.011 7.639.932 2.05 1.304 4.099 1.304 6.334 0 5.59-3.167 10.433-8.383 12.669zm16.58 183.322c-2.607 5.217-6.892 9.13-12.482 11.179-5.589 2.049-11.55 1.676-16.767-.932-7.825-3.726-12.668-11.923-12.296-20.493.186-2.981.745-5.962 2.236-8.757 2.608-5.216 7.08-9.128 12.482-11.178 5.59-1.863 11.55-1.677 16.767.932 7.825 3.726 12.669 11.923 12.296 20.493-.186 3.167-.931 5.962-2.235 8.756zm133.953-66.137c-3.354-.187-6.148-2.981-5.962-6.335.186-3.353 2.981-6.148 6.334-5.961 3.354.186 6.149 2.98 5.962 6.334 0 3.353-2.98 6.148-6.334 5.962z" id="path36" style="stroke-width:1.86303;fill:#05a435"/></svg>