<svg height="320" width="800" xml:space="preserve" xmlns="http://www.w3.org/2000/svg"><defs><clipPath id="a" clipPathUnits="userSpaceOnUse"><path d="M138.024 37.469h126.071v14.985H138.024z"/></clipPath></defs><path d="M0 0h800v320H0z" fill="#fff" style="clip-rule:evenodd;fill-rule:evenodd;stroke-width:.8;stroke-linejoin:round;stroke-miterlimit:2"/><g clip-path="url(#a)" transform="matrix(6.339 0 0 -6.339 -874.357 451.756)" style="display:inline"><path style="display:inline;fill:#004873;fill-opacity:1;fill-rule:nonzero;stroke:none" d="M0 0c.157.074.397.238.456.238.06 0 .131-.119.191-.119.059 0 .178.074.272.129.013.057.012.125.013.18.002-.055 0-.143.004-.227a.43.43 0 0 1 .199-.035c.059 0 .234.04.35.063.086.018.224-.024.264.057.03-.022.095-.089.157-.143.087.051.184.123.263.19l.266-.262c.065.082.088.154.123.215.078-.046.22-.143.279-.143.06 0 .071.023.741.024.098.024.259.071.319.071.059 0 .038-.035.077-.095.091.051.186.123.242.166.033-.04.057-.088.112-.139h.215c.031.084.077.176.119.264.089.022.239-.127.392-.22A.376.376 0 0 1 5.136.3c.058.242.082.688.082.747 0 .06.007.332-.059.463-.033.069-.179.156-.238.156-.06 0-.116-.081-.16-.089a3.846 3.846 0 0 0-.519-.077c-.059 0-.321.143-.381.143s-.048-.072-.107-.072c-.06 0-.107.048-.167.048-.059 0-.048-.048-.107-.048-.06 0-.238.072-.298.072-.059 0-.136-.079-.184-.09a3.254 3.254 0 0 0-.459-.077c-.059 0-.083.071-.142.071-.06 0-.053-.03-.06-.047-.007.017-.05.058-.091.118a.57.57 0 0 1-.154-.167c-.089.038-.25-.011-.294.119-.093-.05-.163-.094-.223-.094-.059 0-.107.071-.167.071-.059 0-.201-.097-.281-.143l-.143.143c-.083-.025-.159-.095-.218-.095-.06 0-.055-.007-.11.046-.033.002-.074-.053-.101-.094-.006.035-.027.072-.036.138-.162-.019-.313-.09-.373-.09-.059 0-.071.048-.13.048-.06 0-.048-.048-.107-.048-.06 0-.12.048-.179.048a.7.7 0 0 1-.266-.097c-.011.036-.091.097-.151.097-.059 0-.142-.048-.202-.048-.06 0-.179.048-.464.048-.075 0-.203-.096-.262-.096-.06 0-.25.143-.31.143-.059 0-.059-.095-.119-.095-.187 0-.363.051-.574.286-.066-.112.005-.196-.145-.263-.019.001-.05.042-.081.071-.033.001-.045-.07-.105-.07-.059 0-.143.071-.202.071-.06 0-.226-.143-.286-.143-.059 0-.159.158-.248.262a.236.236 0 0 1-.073-.095.24.24 0 0 1-.072.095l-.092-.095s-.003 0-.01.044h-.895c-.059.004-.372.075-.431.075-.06 0-.107-.047-.167-.047-.056 0-.324.095-.595.095-.449 0-1.069-.397-1.057-.834.003-.095-.062-.238-.062-.297 0-.06.025-.147.004-.245h.445c.06-.005.139.049.203.116.014-.002.019-.052.073-.087a.276.276 0 0 1 .132-.034c.059 0 .214.071.274.071.059 0 .119-.071.179-.071.059 0 .13.071.19.071.059 0 .303-.118.495-.162v.107c.022.015.029.008.088.008.17 0 .107-.191.238-.191.137 0 .166.12.254.215.081-.046.198-.116.335-.19.157.224.297.147.419.214l.196-.191.095.095c.03-.041.049-.082.09-.143a.74.74 0 0 1 .176.191c.053-.044.148-.115.226-.166.031-.001.047.054.06.071.226-.071.661-.191.721-.191.059 0 .178.071.238.071.059 0 .09-.064.155-.119.04.031.047.072.107.072.059 0-.012-.048.047-.044h1.244c.006.044 0 .051.013.068.083-.024.231-.119.291-.119.06 0 .012.047.071.047C-.02.071-.037.03 0 0" transform="translate(258.664 41.5)"/><path style="display:inline;fill:#004873;fill-opacity:1;fill-rule:evenodd;stroke:none" d="M0 0v.227c.024.015.055.008.118.014.032.133.055.252.071.358H.32A.442.442 0 0 1 .334.308C.453.409.57.502.682.594.698.593.729.552.769.521.81.552.857.576.86.593.867.558.919.504.974.457h.531C1.493.5 1.441.521 1.48.594c.068-.024.156-.093.256-.16.027-.008.072.017.092.01.068-.06.138-.13.231-.208.041.06.06.125.098.167.132-.024.279-.001.846.006v.223c.021.015-.02.008.04.008.059 0 .321-.095.381-.095.059 0 .214.048.214.107 0-.059-.04-.019-.069-.069.331-.014.224-.038.284-.038.059 0 .278.072.405.095l.705-.142c.055.026.128.095.187.095.06 0 .06-.048.119-.048.06 0 .286.119.346.119.059 0 .226-.071.286-.071.059 0 .238.119.297.119.06 0 .334-.167.393-.167.06 0-.048.048.012.048s.167-.048.226-.048c.06 0-.237.048-.178.048.06 0-.047-.048.012-.048.06 0 .215.048.274.048.06 0 .226-.048.286-.048.059 0 .119.048.178.048.06 0 .027-.072.087-.068h.633c.007.044 0 .074.012.092.13-.047.275-.069.418-.104.044-.009-.09-.087-.031-.087.06 0 0 .047.06.047L9.974.452c.039-.063.062-.135.128-.217l.142.143c.006-.034.003-.095.014-.163.071.023.123.092.182.095h.75c.009.139.009.339.009.399 0 .059-.048.554-.101.852-.107.031-.202.078-.318.098-.009-.09-.009-.18-.018-.259-.098.07-.211.208-.313.323-.052.012-.131-.007-.217.082l-.365-.014c.077-.096.128-.194.213-.244-.034-.005-.047-.05-.107-.05-.17 0-.096.254-.121.308-.068-.025-.093-.07-.153-.07-.059 0-.166.143-.226.143-.059 0 0-.047-.059-.047-.06 0-.165.065-.26.071-.429.039-.312-.024-.372-.024-.059 0-.262.048-.321.048-.06 0 .054-.031.02-.072-.033.022-.044.048-.051.112-.065.007-.112-.04-.172-.04-.059 0-.023.047-.083.047a.303.303 0 0 1-.185-.072c-.056.114-.326.024-.427.054-.078.02-.161.11-.261.158v-.104s.028-.012-.032-.012c-.059 0-.238.072-.297.072-.06 0-.101-.031-.104-.048-.006.035-.004.095-.015.163-.166-.07-.203-.163-.262-.163-.06 0 .202.048.142.048-.059 0-.202-.048-.262-.048s-.357.048-.417.048c-.059 0-.131-.048-.19-.048-.06 0-.131.048-.191.048-.059 0-.297-.119-.357-.119-.059 0-.155.095-.214.095-.06 0-.173-.048-.252-.074-.013.037-.036.108-.076.168-.09-.051-.208-.166-.267-.166-.06 0-.25.143-.31.143-.059 0-.047-.07-.103-.09a.626.626 0 0 0-.254-.053c-.06 0-.131.072-.191.072-.059 0 .012-.119-.047-.119-.057 0-.349.11-.377.142-.249-.205-.472-.135-.632-.2-.024-.009-.054-.085-.113-.085h-.518c-.06 0-.134-.095-.194-.095-.059 0 0 .047-.059.044H1.3c-.007-.068-.005-.105-.015-.141-.029.023-.087.073-.147.073-.059 0-.158-.081-.229-.09-.119-.014-.266.039-.382.018-.191-.036-.389-.056-.569-.166-.092.048-.076.147-.076.256h-.22c-.056-.076-.036-.256-.095-.256-.131 0-.162.085-.223.214-.117-.128-.235-.269-.36-.402.17-.266.184-.542.246-.878.087-.006.208.036.289-.011C-.317.251-.173.096 0 0" transform="translate(252.85 45.084)"/><path style="fill:#004873;fill-opacity:1;fill-rule:evenodd;stroke:none" d="M0 0c-1.075-1.338-2.575-2.656-4.096-2.656-1.561 0-2.088 1.602-2.047 2.656.101 2.94 2.777 7.887 6.812 7.887a4.81 4.81 0 0 0 1.42-.203h2.088L1.845-2.453H-.628zm.473 5.935c-2.007 0-3.954-3.102-4.035-5.616-.02-.487.142-.568.264-.568.73-.02 4.014 3.264 4.48 5.637l.082.405a2.843 2.843 0 0 1-.791.142" transform="translate(220.593 40.148)"/><path style="fill:#004873;fill-opacity:1;fill-rule:nonzero;stroke:none" d="M0 0c-1.075-1.338-2.575-2.656-4.096-2.656-1.561 0-2.088 1.602-2.047 2.656.101 2.94 2.777 7.887 6.812 7.887a4.81 4.81 0 0 0 1.42-.203h2.088L1.845-2.453H-.628zm.473 5.935c-2.007 0-3.954-3.102-4.035-5.616-.02-.487.142-.568.264-.568.73-.02 4.014 3.264 4.48 5.637l.082.405a2.843 2.843 0 0 1-.791.142" transform="translate(220.593 40.148)"/><path style="fill:#004873;fill-opacity:1;fill-rule:evenodd;stroke:none" d="M0 0c-1.075-1.358-2.575-2.717-4.096-2.717-1.561 0-2.088 1.622-2.047 2.697.101 3.021 2.777 8.069 6.812 8.069.345 0 .71-.02 1.054-.101l.973 4.258H5.17L1.845-2.514H-.629zm.473 6.057c-2.007 0-3.954-3.184-4.035-5.738-.02-.507.162-.588.264-.588.75.02 3.994 3.345 4.48 5.778l.082.406a2.843 2.843 0 0 1-.791.142" transform="translate(236.114 40.208)"/><path style="fill:#004873;fill-opacity:1;fill-rule:nonzero;stroke:none" d="M0 0c-1.075-1.358-2.575-2.717-4.096-2.717-1.561 0-2.088 1.622-2.047 2.697.101 3.021 2.777 8.069 6.812 8.069.345 0 .71-.02 1.054-.101l.973 4.258H5.17L1.845-2.514H-.629zm.473 6.057c-2.007 0-3.954-3.184-4.035-5.738-.02-.507.162-.588.264-.588.75.02 3.994 3.345 4.48 5.778l.082.406a2.843 2.843 0 0 1-.791.142" transform="translate(236.114 40.208)"/><path style="fill:#004873;fill-opacity:1;fill-rule:evenodd;stroke:none" d="M0 0c-5.92 0-3.143 10.543 2.859 10.543C8.921 10.543 5.819 0 0 0m2.399 8.55C-.277 8.55-1.92 2.022.412 2.022c1.825 0 3.102 2.636 3.163 4.602.04 1.237-.264 1.926-1.176 1.926" transform="translate(243.803 37.492)"/><path style="fill:#004873;fill-opacity:1;fill-rule:nonzero;stroke:none" d="M0 0c-5.92 0-3.143 10.543 2.859 10.543C8.921 10.543 5.819 0 0 0m2.399 8.55C-.277 8.55-1.92 2.022.412 2.022c1.825 0 3.102 2.636 3.163 4.602.04 1.237-.264 1.926-1.176 1.926" transform="translate(243.803 37.492)"/><path style="fill:#004873;fill-opacity:1;fill-rule:nonzero;stroke:none" d="M0 0c-.466-2.129-1.318-4.501-1.845-6.752H.629L2.21.041c.304 1.297.487 3.527-1.662 3.527-1.562 0-2.94-1.277-3.954-2.574l.608 2.372h-2.494L-7.644-6.752h2.494l.467 1.947c.669 2.798 3.608 5.981 4.541 5.981.244 0 .203-.284.203-.527C.061.446.041.223 0 0" transform="translate(211.544 44.466)"/><path style="fill:#004873;fill-opacity:1;fill-rule:nonzero;stroke:none" d="m0 0 3.325 14.699-2.472.018L-2.494 0z" transform="translate(227.511 37.715)"/><path style="fill:#ccd41a;fill-opacity:1;fill-rule:nonzero;stroke:none" d="M0 0v-.866c0-1.003-.642-1.452-1.059-1.452-.65 0-.794.698-.794 1.307 0 .674.208 1.46.898 1.46C-.546.449-.321.281 0 0m.056.682c-.305.321-.674.449-1.123.449-1.203 0-1.676-1.219-1.676-2.222 0-.971.401-1.997 1.556-1.997.513 0 .93.232 1.211.641L-.008-3h.85v5.816H0V1.051S.016.81.056.682M-6.201.409l.04.586h-.858V-3h.85v1.917c0 .987.634 1.404 1.123 1.412.257 0 .449-.185.449-.522V-3h.851v2.904c0 .601-.409 1.179-1.139 1.179-.546 0-.995-.281-1.316-.674m-2.912-2.816L-9.153-3h.851V.995h-.851V-.923c0-.986-.633-1.395-1.123-1.403-.256 0-.449.176-.449.513V.995h-.85v-2.896c0-.61.417-1.187 1.147-1.187.537 0 .995.28 1.315.681m-5.15 2.768c.65 0 .795-.698.795-1.308 0-.673-.209-1.46-.899-1.46-.409 0-.642.169-.955.45v.858c0 1.019.65 1.46 1.059 1.46m-1.083.128.024.474v1.853h-.85V-3h.81s0 .256-.024.377c.313-.329.674-.465 1.131-.465 1.204 0 1.677 1.211 1.677 2.214 0 .978-.393 2.005-1.556 2.005a1.42 1.42 0 0 1-1.212-.642m-3.016-.048.04.554h-.858V-3h.85v1.917c0 .987.642 1.404 1.212 1.404l.224.762h-.313c-.489 0-.898-.257-1.155-.642m-3.409-.032c.505 0 .682-.457.682-.963h-1.436c.048.49.264.963.754.963m.216-3.497c.498 0 .923.096 1.372.24l-.184.65c-.385-.152-.674-.217-.995-.217-.738 0-1.147.49-1.187 1.228h2.35c.04 1.067-.257 2.27-1.532 2.27-1.163 0-1.717-1.067-1.717-2.086 0-.633.265-2.085 1.893-2.085M-25.598-3l1.709 3.995h-.754l-1.284-3.017-1.227 3.017h-.882L-26.392-3zm-4.468-.088c.73 0 1.508.377 1.508 1.243 0 .81-.722 1.067-1.331 1.34-.209.096-.554.24-.554.497 0 .297.297.417.594.417.248 0 .489-.056.818-.136l.209.674c-.345.064-.682.136-1.035.136-.81 0-1.396-.369-1.396-1.147 0-.834.69-1.051 1.308-1.324.232-.104.537-.24.537-.537 0-.321-.313-.49-.626-.49-.305 0-.65.113-1.035.281l-.216-.714c.417-.128.834-.24 1.219-.24M-33.194.441l.04.554h-.859V-3h.851v1.917c0 .987.641 1.404 1.211 1.404l.225.762h-.313c-.49 0-.899-.257-1.155-.642m-4.556 0 .032.522v1.853h-.851V-3h.851v1.933c0 1.003.625 1.42 1.123 1.428.256 0 .449-.177.449-.521V-3h.85v2.936c0 .609-.409 1.195-1.139 1.195-.545 0-.995-.289-1.315-.69m-3.41-.032c.505 0 .682-.457.682-.963h-1.436c.048.49.265.963.754.963m.217-3.497c.497 0 .922.096 1.372.24l-.185.65c-.385-.152-.674-.217-.995-.217-.738 0-1.147.49-1.187 1.228h2.35c.041 1.067-.256 2.27-1.532 2.27-1.163 0-1.717-1.067-1.717-2.086 0-.633.265-2.085 1.894-2.085M-44.337-3h1.14l-1.958 2.238 1.388 1.604-.706.217-1.524-1.741v3.498h-.85V-3h.85v1.893zm-4.7 3.441.04.554h-.859V-3h.851v1.917c0 .987.641 1.404 1.211 1.404l.225.762h-.313c-.49 0-.899-.257-1.155-.642m-3.41-.032c.506 0 .682-.457.682-.963h-1.436c.048.49.265.963.754.963m.217-3.497c.497 0 .922.096 1.372.24l-.185.65c-.385-.152-.674-.217-.995-.217-.738 0-1.147.49-1.187 1.228h2.351c.04 1.067-.257 2.27-1.533 2.27-1.163 0-1.716-1.067-1.716-2.086 0-.633.265-2.085 1.893-2.085M-55.976-3l1.934 5.455h-.77l-1.509-4.236-1.564 4.236h-.906L-56.778-3z" transform="translate(196.815 43.371)"/></g><path style="display:inline;fill:#004873;fill-opacity:1;fill-rule:nonzero;stroke:none;stroke-width:6.6018" d="M762.515 211.72c1.08-.47 2.73-1.509 3.135-1.509.413 0 .9.755 1.313.755.406 0 1.224-.47 1.87-.818.09-.361.082-.792.09-1.141.015.349 0 .906.027 1.439.392.203.956.222 1.368.222.406 0 1.61-.254 2.407-.4.59-.114 1.54.152 1.815-.361.206.14.653.564 1.08.906.597-.323 1.264-.78 1.808-1.204l1.828 1.66c.447-.519.605-.975.846-1.362.536.292 1.513.906 1.918.906.413 0 .489-.145 5.095-.152.674-.152 1.78-.45 2.193-.45.406 0 .262.222.53.602.625-.323 1.279-.78 1.664-1.052.227.254.392.558.77.881h1.478c.213-.532.53-1.115.818-1.673.612-.14 1.643.805 2.695 1.394.262-.196.447-.374.564-.545.399-1.534.564-4.361.564-4.735 0-.38.048-2.105-.406-2.935-.227-.437-1.23-.989-1.636-.989-.413 0-.798.514-1.1.564-1.128.248-3.156.488-3.569.488-.405 0-2.207-.906-2.62-.906-.412 0-.33.456-.735.456-.412 0-.736-.304-1.148-.304-.406 0-.33.304-.736.304-.412 0-1.636-.456-2.049-.456-.405 0-.935.5-1.265.57-.983.229-2.743.489-3.156.489-.405 0-.57-.45-.976-.45-.412 0-.364.19-.412.297-.049-.107-.344-.367-.626-.748-.474.343-.818.666-1.059 1.06-.612-.242-1.719.069-2.021-.755-.64.317-1.121.596-1.534.596-.405 0-.735-.45-1.148-.45-.405 0-1.382.614-1.932.906l-.983-.906c-.57.158-1.093.602-1.499.602-.412 0-.378.044-.756-.292-.227-.012-.509.336-.695.596-.04-.222-.185-.456-.247-.875-1.114.12-2.152.57-2.565.57-.405 0-.488-.304-.893-.304-.413 0-.33.305-.736.305-.413 0-.825-.305-1.23-.305-.413 0-1.3.317-1.83.615-.075-.228-.625-.615-1.038-.615-.406 0-.976.305-1.389.305-.412 0-1.23-.305-3.19-.305-.516 0-1.396.609-1.801.609-.413 0-1.72-.906-2.132-.906-.405 0-.405.602-.818.602-1.286 0-2.496-.324-3.946-1.813-.454.71.034 1.242-.997 1.667-.13-.006-.344-.266-.557-.45-.227-.006-.31.444-.722.444-.406 0-.983-.45-1.39-.45-.412 0-1.553.906-1.966.906-.405 0-1.093-1.002-1.705-1.66a1.51 1.51 0 0 0-.502.601 1.543 1.543 0 0 0-.495-.602l-.632.602s-.021 0-.068-.279h-6.154c-.405-.025-2.558-.475-2.963-.475-.413 0-.736.298-1.148.298-.385 0-2.228-.602-4.091-.602-3.087 0-7.35 2.516-7.268 5.287.02.602-.426 1.508-.426 1.882 0 .38.172.932.027 1.553h3.06c.412.032.956-.31 1.396-.735.096.012.13.33.501.551.125.077.502.216.908.216s1.471-.45 1.884-.45c.406 0 .818.45 1.23.45.406 0 .894-.45 1.307-.45.406 0 2.083.748 3.403 1.027v-.678c.152-.096.2-.051.605-.051 1.17 0 .736 1.21 1.637 1.21.942 0 1.141-.76 1.746-1.362.557.291 1.361.735 2.303 1.204 1.08-1.42 2.042-.932 2.881-1.356l1.348 1.21.653-.602c.206.26.337.52.619.907.474-.35.983-.825 1.21-1.211a19.61 19.61 0 0 0 1.554 1.052c.213.006.323-.342.412-.45 1.554.45 4.545 1.21 4.958 1.21.405 0 1.223-.45 1.636-.45.406 0 .619.406 1.066.755.275-.196.323-.456.735-.456.406 0-.083.304.323.279h8.554c.04-.28 0-.324.089-.432.57.153 1.588.755 2 .755.413 0 .084-.298.489-.298.412 0 .295.26.55.45"/></svg>