<?xml version="1.0" encoding="UTF-8" standalone="no"?>
<!-- Created with Inkscape (http://www.inkscape.org/) -->

<svg
   version="1.0"
   width="800"
   height="320"
   id="svg11121"
   sodipodi:docname="Verkehrsverbund Großraum Nürnberg.svg"
   inkscape:version="1.2.1 (9c6d41e410, 2022-07-14)"
   xmlns:inkscape="http://www.inkscape.org/namespaces/inkscape"
   xmlns:sodipodi="http://sodipodi.sourceforge.net/DTD/sodipodi-0.dtd"
   xmlns="http://www.w3.org/2000/svg"
   xmlns:svg="http://www.w3.org/2000/svg">
  <sodipodi:namedview
     id="namedview26216"
     pagecolor="#ffffff"
     bordercolor="#000000"
     borderopacity="0.25"
     inkscape:showpageshadow="2"
     inkscape:pageopacity="0.0"
     inkscape:pagecheckerboard="0"
     inkscape:deskcolor="#d1d1d1"
     showgrid="false"
     inkscape:zoom="0.97035431"
     inkscape:cx="399.85395"
     inkscape:cy="160.76602"
     inkscape:window-width="1920"
     inkscape:window-height="1017"
     inkscape:window-x="-8"
     inkscape:window-y="-8"
     inkscape:window-maximized="1"
     inkscape:current-layer="svg11121" />
  <defs
     id="defs11123" />
  <path
     d="M 0,0 H 800.00003 V 319.99999 H 0 Z"
     fill="#ffffff"
     style="clip-rule:evenodd;fill-rule:evenodd;stroke-width:0.8;stroke-linejoin:round;stroke-miterlimit:2"
     id="path1181-9" />
  <g
     transform="matrix(1.1663015,0,0,1.1663015,-228.98525,278.45149)"
     id="layer1">
    <g
       transform="matrix(5.7831028,0,0,5.7831028,-2029.0674,-4604.0309)"
       id="g11082">
      <path
         d="M 432.21,782.077 432,777.162 h -2.44 l 0.8,8.166 h 2.6 l 4.06,-8.166 h -2.45 z"
         style="font-size:9.2999px;font-family:fnt4;letter-spacing:0;word-spacing:0;fill:#221f1f;fill-rule:evenodd;stroke:#221f1f;stroke-width:0.174;stroke-linecap:butt;stroke-linejoin:miter;stroke-miterlimit:3.864;stroke-dasharray:none"
         id="path8069" />
      <path
         d="m 440.66,782.422 1.04,0.035 c -0.84,1.189 -1.74,1.199 -1.89,1.208 -0.35,0.019 -1.72,-0.287 -1.32,-2.429 0.29,-1.53 1.47,-2.34 2.31,-2.294 0.71,0.038 1.31,0.634 1.24,0.956 h 2.3 c 0.15,-1.136 -0.5,-2.639 -3.03,-2.954 -2.75,-0.343 -4.93,1.921 -5.1,4.36 -0.22,2.948 1.03,4.314 3.02,4.314 1.5,0 2.12,-0.593 2.66,-1.098 l -0.14,0.88 h 1.63 l 0.94,-4.44 h -3.5 z"
         style="font-size:9.2999px;font-family:fnt4;letter-spacing:0;word-spacing:0;fill:#221f1f;fill-rule:evenodd;stroke:#221f1f;stroke-width:0.174;stroke-linecap:butt;stroke-linejoin:miter;stroke-miterlimit:3.864;stroke-dasharray:none"
         id="path8071" />
      <path
         d="m 450.15,782.154 -1.63,-4.992 h -2.27 l -1.75,8.238 h 2.22 l 1.04,-4.68 1.73,4.68 h 2.18 l 1.75,-8.238 h -2.21 z"
         style="font-size:9.2999px;font-family:fnt4;letter-spacing:0;word-spacing:0;fill:#221f1f;fill-rule:evenodd;stroke:#221f1f;stroke-width:0.174;stroke-linecap:butt;stroke-linejoin:miter;stroke-miterlimit:3.864;stroke-dasharray:none"
         id="path8073" />
      <path
         d="m 442.19,767.575 c -0.36,-0.029 -0.73,-0.044 -1.09,-0.044 -7.45,0 -13.48,6.034 -13.48,13.478 0,0.382 0.01,0.76 0.04,1.133 l -0.04,10e-4 v 15.041 l -3.52,3.481 -3.77,-3.764 0.04,-14.757 c -0.02,-0.415 -0.04,-0.834 -0.04,-1.256 0,-8.461 5.07,-15.738 12.34,-18.958 l -0.03,0.015 9.55,5.63"
         style="font-size:9.2999px;font-family:fnt4;letter-spacing:0;word-spacing:0;fill:#00a676;fill-rule:evenodd;stroke:none;stroke-width:1.152;stroke-linecap:butt;stroke-linejoin:miter;stroke-miterlimit:3.864;stroke-dasharray:none"
         id="path8137" />
      <path
         d="m 429.07,787.517 c 0.15,0.327 0.32,0.651 0.51,0.97 3.72,6.447 11.97,8.315 18.41,4.593 0.33,-0.191 0.65,-0.394 0.96,-0.607 l 0.02,0.04 12.65,-7.387 5.29,1.309 -1.38,5.142 -12.93,7.212 c -0.35,0.23 -0.71,0.45 -1.07,0.661 -7.33,4.231 -16.16,3.478 -22.59,-1.207 l 0.03,0.023 0.1,-10.749"
         style="font-size:9.2999px;font-family:fnt4;letter-spacing:0;word-spacing:0;fill:#00a676;fill-rule:evenodd;stroke:none;stroke-width:1.152;stroke-linecap:butt;stroke-linejoin:miter;stroke-miterlimit:3.864;stroke-dasharray:none"
         id="path8139" />
      <path
         d="m 452.7,788.881 c 0.2,-0.299 0.4,-0.608 0.58,-0.927 3.73,-6.447 1.52,-14.69 -4.93,-18.412 -0.33,-0.191 -0.66,-0.366 -1,-0.526 l 0.02,-0.041 -12.88,-7.725 -1.26,-4.79 5.14,-1.378 12.62,7.615 c 0.37,0.187 0.74,0.385 1.11,0.596 7.33,4.231 11.09,12.26 10.25,20.164 v -0.037 l -9.65,5.461"
         style="font-size:9.2999px;font-family:fnt4;letter-spacing:0;word-spacing:0;fill:#00a676;fill-rule:evenodd;stroke:none;stroke-width:1.152;stroke-linecap:butt;stroke-linejoin:miter;stroke-miterlimit:3.864;stroke-dasharray:none"
         id="path8141" />
    </g>
  </g>
</svg>
