<svg width="800" height="320" version="1.0" xmlns="http://www.w3.org/2000/svg"><path d="M0 0h800v320H0z" fill="#fff" style="clip-rule:evenodd;fill-rule:evenodd;stroke-width:.8;stroke-linejoin:round;stroke-miterlimit:2"/><path d="M5.923 29.404h79.833v70.251H5.923z" style="fill:#fff;fill-opacity:1;fill-rule:nonzero;stroke:none" transform="translate(20.517 -7.064) scale(2.75388)"/><path d="M0 0v.029h-.138v.028h-.138v.028h-.11v.029h-.027v.029h-.028v.085h-.027V.37h-.028v.143h-.027v.142h-.028v.313h-.028v.171h-.027v.143h-.028v.113h-.027v.313h.027v.912h.028v.626h.027v.911h.028v.627h-.028v.142h.028v.057h-.028v.057h.028v.057h-.028v.142h.028v.143h-.028v.114h.028v.057h-.028v1.68h.028v.085h-.028v.057h.028v1.224h.028v.114h-.028v.086h.028V9.909h.027v.057h.028v.655h.027v1.281h.028v2.05h-.028v1.082h-.027v.114h.027v.143h.055v-.057h.055v-.057h.028v-.086h.027V14.949h.028v-.057h.028v-.028h.027v-.057h.055v-.029h.028v-.057h.027v-.057h.028v-.057h.028v-.256H0V14.066h.028v-.171h.027v-.142h.028v-.142H.11v-.143h.028v-.313h.027v-.142h.028v-.171H.22v-.171h.028v-.142h.028v-.143H.248v-.341H.22v-.342H.193v-.342H.165v-.313H.138v-.655H.11v-.398H.083v-.342H.055v-.342H.028v-.285H0v-.341h.028v-.228h.027v-.313h.028v-.171H.11v-.37h.028v-.712h.027v-.655H.138V4.955H.11v-.94h.028v-.313h.027v-.171h.028v-.285H.165v-.427H.138v-.655H.11v-.456h.028V.712H.11V.029H.083V0z" style="fill:#231f20;fill-opacity:1;fill-rule:nonzero;stroke:none" transform="matrix(13.49593 0 0 -13.49593 260.96 275.637)"/><path d="M0 0v.085h-.028v.057h-.027v.029h-.028v.114H-.11V.37h-.028V.512h-.055v.029h-.055v.028h-.028v.143h-.027v.142h-.028v.142h-.027v.143h-.028v.228h-.027v.341h-.028v.143h-.027v.17h-.028v.143h-.027v.199h-.028v.342h-.028v.142h-.027v1.196h-.028v.826h.028v.398h.027v.314h.028v.654h.028v.371h.027v.74h-.027v.37h-.028V9.14h.028v.399h.027v.74h.028v1.139h-.028v.114h-.027v.114h-.028v.512h.028v.541h.027v.427h.028v.428h-.028v.142h-.027v.199h-.028v.171h.028v.313h.027v.171h.028v.74h.11v-.028h.22v-.029h.055v-.028h.055v-.057H0v-.171h.028v-.057h.027v-.085h.028v-.029H.11v-.114h.028V14.55h.027v-.114h.028v-.512h.028v-.285h.027v-.513h.028v-.142H.248v-1.367H.221v-.142h.027v-.086H.221v-.541H.193v-.427h.028v-.569h.027v-.427h.028v-.114H.248v-.598H.221v-.826H.193v-.74H.165V7.09h.028v-.086H.165v-.569H.138v-.228h.027v-.085H.138v-.968H.11v-.399H.083v-.484H.055v-.285H.028v-.057h.027v-.085H.028V2.363h.027V.769h.028V0z" style="fill:#231f20;fill-opacity:1;fill-rule:nonzero;stroke:none" transform="matrix(13.49593 0 0 -13.49593 37.458 274.096)"/><path d="M0 0h-.692v.028h-.433v.029h-.433v.028h-1.414V.057h-.375V.028h-1.731v.029h-.144V.028h-.087v.029h-5.019v.028h-.058v.2h.029v.142h.029v.114h.028v.028H-10.213v.029h.058v.028h.086v.029h.087v.028h.086v.029h.116V.74h.115v.029h.115v.028h.289v.029h3.462V.797h1.442V.769h.202v.028h.231V.769h.116v.028h.23V.769h1.789V.74h.837V.712H.289V.683h.49V.655h.058v.028h.144V.655h.231v.028h.086V.655H1.5v.028h.808v.029h.115V.683h.029v.029h.116V.683H3v.029h1.414V.74h.058V.712h.115V.655h-.029V.626h-.057V.598h-.029V.569h-.116V.541H4.27V.512h-.058V.484h-.058V.455h-.086V.427h-.029V.398H4.01V.342h-.029V.313h-.029V.285h-.346V.256h-.288V.228h-.202V.199h-.231V.171h-.144V.142h-.375V.114h-.26V.085h-.231V.057h-.346V.028h-.404V0h-.49z" style="fill:#231f20;fill-opacity:1;fill-rule:nonzero;stroke:none" transform="matrix(13.49593 0 0 -13.49593 183.581 272.176)"/><path d="M0 0v.028h-.11v.029H-.413v.028h-.138v.029h-.165v.028h-.717v.029h-.11V.142h-.551V.114h-.413V.085h-1.378v.029h-.469v.028h-.551v.029h-.716V.142h-.358V.114h-.193V.085h-.331V.057h-.11v.028h-.386v.029h-.303v.028h-.221v.029h-.137v.028h-.386V.171h-.055V.142h-.083V.114h-.082V.085h-.138v.029h-.441v.028h-.165v.029h-.386V.142h-.248v.029h-.028v.085h.028v.143h.027v.114h.028v.113h.027v.029h.055v.028h.083v.029h.083V.74h.082v.029h.166v.028h.083v.029h.055v.028h.11v.029h.138v.028h.496V.94h.055V.911h2.865V.883h.276v.028h.138V.883h.138v.028H-2.094V.883h.11v.028h.165V.883h.552V.854h.661V.826h.579V.797h.055v.029h.137V.797h.359V.769h1.019V.74h.744V.712h.028V.74h.633v.029h1.213v.028h.331v.029h.027V.797h.166v.029h.661v.028h.027V.826h.028V.769h-.028V.74h-.027V.712h-.055V.683h-.028V.655h-.055V.626H4.987V.598h-.055V.57h-.027V.513h-.028V.484h-.055V.456h-.027V.427h-.138V.399h-.138V.37h-.138V.342h-.275V.313h-.138V.285h-.11V.256h-.166V.228h-.137V.199H3.252V.171h-.111V.142h-.165V.114h-.138V.085h-.137V.057H1.13V.028H.358V0z" style="fill:#231f20;fill-opacity:1;fill-rule:nonzero;stroke:none" transform="matrix(13.49593 0 0 -13.49593 175.798 80.42)"/><path d="M0 0c-.447-.448-.746-.711-1.299-.421-.48.251-.147 1.225-.147 1.225-.075 0-.324.135-.386.185-.061.047-.468.466-.614.759-.146.372.014.821.014.821.44.48.774-.03 1.013-.129.012.013.177-.02.318.107-.053.653-.26.86-.358 1.478-.05.314-.267 1.158.173 1.385.697.359 1.038-.333 1.29-.573.013.012.229-.055.267.226-.08.812-.421 2.857.04 3.302.311.3 1.265-.878 1.265-.878.025 0 .107-.174.147.066.093.558.055 2.09.985 2.09.419-.048.558-.826.625-1.293 0 0 .054-.132.253-.065.372.125.557 2.158 1.798 1.458.493-.432-.025-1.455-.119-1.692-.142-.536 0-.825-.113-1.226-1.078-.12-.606-.097-1.539-.11l-.372-.693-.058-6.509C2.475-.537 1.61-.786.751-.515.739-.511.16-.2 0 0" style="fill:#ed1c24;fill-opacity:1;fill-rule:nonzero;stroke:none" transform="matrix(13.49593 0 0 -13.49593 82.312 212.935)"/><path d="M0 0c-.447-.448-.746-.711-1.299-.421-.48.251-.147 1.225-.147 1.225-.075 0-.324.135-.386.185-.061.047-.468.466-.614.759-.146.372.014.821.014.821.44.48.774-.03 1.013-.129.012.013.177-.02.318.107-.053.653-.26.86-.358 1.478-.05.314-.267 1.158.173 1.385.697.359 1.038-.333 1.29-.573.013.012.229-.055.267.226-.08.812-.421 2.857.04 3.302.311.3 1.265-.878 1.265-.878.025 0 .107-.174.147.066.093.558.055 2.09.985 2.09.419-.048.558-.826.625-1.293 0 0 .054-.132.253-.065.372.125.557 2.158 1.798 1.458.493-.432-.025-1.455-.119-1.692-.142-.536 0-.825-.113-1.226-1.078-.12-.606-.097-1.539-.11l-.372-.693-.058-6.509C2.475-.537 1.61-.786.751-.515.739-.511.16-.2 0 0z" style="fill:none;stroke:#ed1c24;stroke-width:.599;stroke-linecap:butt;stroke-linejoin:miter;stroke-miterlimit:3.864;stroke-dasharray:none;stroke-opacity:1" transform="matrix(13.49593 0 0 -13.49593 82.312 212.935)"/><path d="M0 0c-.448-.447-.724-.648-1.277-.358-.48.251-.146 1.225-.146 1.225-.076 0-.324.135-.387.185-.06.047-.468.466-.613.759-.147.372.013.825.013.825.44.48.774-.034 1.013-.133.013.013.177-.02.319.107-.054.653-.261.86-.359 1.478-.049.314-.266 1.158.174 1.385.696.359 1.038-.333 1.29-.573.012.012.228-.055.266.226-.08.812-.398 2.81.04 3.302.288.322 1.265-.878 1.265-.878.025 0 .107-.174.147.066.093.558.055 2.09.985 2.09.457-.169.615-.845.681-1.311 0 0-.001-.114.197-.047.372.125.439 2.087 1.798 1.458.494-.432.294-1.058.414-1.408.026-.329.046-1.179-.067-1.58-1.078-.12-1.185-.027-2.118-.04l-.372-.693-.066-6.803c-.709-.05-1.827-.118-2.426.2C.76-.512.16-.2 0 0" style="fill:#1ba84f;fill-opacity:1;fill-rule:nonzero;stroke:none" transform="matrix(13.49593 0 0 -13.49593 82.01 213.785)"/><path d="M0 0s-.825.295-.425 1.187l.04.146c-.079 0-.295.161-.36.214-.118.091-.52.491-.52.505-.118.209-.25.589-.172.851 0 0 .094.48.319.57.572.229.606-.159.986-.316.013.013.066.08.092.08-.078.733-.27.899-.372 1.544-.052.328-.293.945.187 1.372.689.612 1.162-.291 1.557-.627-.04.734-.677 3.47.24 3.648.479.094 1.191-.787 1.198-.773.022-.015-.109 2.052 1.052 2.052.599-.147.733-.985.679-1.405.585-.14 1.146 2.324 2.197 1.525.333-.254.652-.652-.16-1.904-.147-.279-.2-.226-.187-.493 1.984.28 1.732-.558 1.279-.745l-5.22.067s-.364-.304-.372-.653C2.002 5.234 1.945.663 1.972.055 1.747-.215.02-.057 0 0" style="fill:#67bf60;fill-opacity:1;fill-rule:nonzero;stroke:none" transform="matrix(13.49593 0 0 -13.49593 98.723 223.142)"/><path d="m0 0 .004 8.691c-.002.573.442 1.041.982 1.041h5.458c.54 0 .982-.468.982-1.041V0H6.194v1.843H1.203V0H0" style="fill:#fff200;fill-opacity:1;fill-rule:nonzero;stroke:none" transform="matrix(13.49593 0 0 -13.49593 127.745 255.508)"/><path d="m0 0 .004 8.691c-.002.573.442 1.041.982 1.041h5.458c.54 0 .982-.468.982-1.041V0H6.194v1.843H1.203V0z" style="fill:none;stroke:#fff200;stroke-width:.899;stroke-linecap:butt;stroke-linejoin:miter;stroke-miterlimit:3.864;stroke-dasharray:none;stroke-opacity:1" transform="matrix(13.49593 0 0 -13.49593 127.745 255.508)"/><path d="m0 0 .004 8.691c-.002.573.442 1.041.982 1.041h5.458c.54 0 .982-.468.982-1.041V0H6.194v1.843H1.203V0H0" style="fill:#ed1c24;fill-opacity:1;fill-rule:nonzero;stroke:none" transform="matrix(13.49593 0 0 -13.49593 127.745 255.508)"/><path d="m0 0-.001 2.705c-.002.477.356.867.793.867h4.409c.436 0 .793-.39.793-.867V0H0" style="fill:#fff;fill-opacity:1;fill-rule:nonzero;stroke:none" transform="matrix(13.49593 0 0 -13.49593 137.439 183.35)"/><path d="M42.61 74.191h10.007v5.386H42.61zM61.825 74.191h10.008v5.386H61.825z" style="fill:#fff;fill-opacity:1;fill-rule:nonzero;stroke:none" transform="translate(20.517 -7.064) scale(2.75388)"/><path d="M0 0c3.81.391 9.165 2.563 13.789 2.44 0 0 .005-.84-.018-1.075C8.94 1.496 3.315-.959.271-1.051H.009L0 0" style="fill:#1ba84f;fill-opacity:1;fill-rule:nonzero;stroke:none" transform="matrix(13.49593 0 0 -13.49593 51.108 265.212)"/><path d="m0 0 9.608 14.74h3.027V0h-2.337v4.31H5.922L3.323 0zm7.485 6.594h2.827v4.352z" style="fill:#231f20;fill-opacity:1;fill-rule:evenodd;stroke:none" transform="matrix(13.49593 0 0 -13.49593 424.789 267.753)"/><path d="m0 0 9.608 14.74h3.027V0h-2.337v4.31H5.922L3.323 0zm7.485 6.594h2.827v4.352z" style="fill:none;stroke:#231f20;stroke-width:.031;stroke-linecap:butt;stroke-linejoin:miter;stroke-miterlimit:3.86;stroke-dasharray:none;stroke-opacity:1" transform="matrix(13.49593 0 0 -13.49593 424.789 267.753)"/><path d="M0 0h4.998L7.14-10.028l8.989 15.09h4.349L8.251-14.728l-5.006-.005z" style="fill:#03a751;fill-opacity:1;fill-rule:nonzero;stroke:none" transform="matrix(13.49593 0 0 -13.49593 290.508 68.98)"/><path d="m0 0 5.358.012c1.061.002 1.853-.062 2.374-.16A3.3 3.3 0 0 0 9.13-.755a3.657 3.657 0 0 0 1.027-1.232 3.596 3.596 0 0 0 .412-1.723 3.7 3.7 0 0 0-.506-1.901 3.26 3.26 0 0 0-1.376-1.297c.815-.261 1.445-.707 1.882-1.335.44-.632.658-1.373.658-2.224 0-.669-.14-1.321-.424-1.956-.284-.632-.671-1.14-1.161-1.517-.49-.378-1.095-.611-1.816-.7-.449-.052-1.538-.086-3.264-.1H0zm2.709-2.454v-3.408h1.772c1.055 0 1.71.018 1.966.052.462.058.826.233 1.092.525.265.292.396.676.396 1.153 0 .456-.112.827-.34 1.112-.231.285-.571.456-1.02.515-.269.034-1.039.051-2.313.051zm0-5.861v-3.94h2.502c.977 0 1.595.027 1.857.089.402.079.73.278.983.587.252.312.38.731.38 1.253 0 .442-.099.816-.293 1.125a1.681 1.681 0 0 1-.846.676c-.368.141-1.17.21-2.399.21H2.709" style="fill:#231f20;fill-opacity:1;fill-rule:evenodd;stroke:none" transform="matrix(13.49593 0 0 -13.49593 616.783 68.826)"/><path d="m0 0-.474 1.619h.291L.152.421l.325 1.198h.285L.287 0z" style="fill:#231f20;fill-opacity:1;fill-rule:nonzero;stroke:none" transform="matrix(13.49593 0 0 -13.49593 40.577 318.786)"/><path d="M0 0v1.619h.985v-.274H.267V.986h.667V.713H.267v-.44h.743V0z" style="fill:#231f20;fill-opacity:1;fill-rule:nonzero;stroke:none" transform="matrix(13.49593 0 0 -13.49593 52.711 318.786)"/><path d="M0 0v1.619h.564a.78.78 0 0 0 .309-.044.34.34 0 0 0 .153-.152.517.517 0 0 0 .06-.257A.483.483 0 0 0 .994.86.4.4 0 0 0 .735.715.667.667 0 0 0 .878.579C.916.53.967.443 1.032.316L1.193 0h-.32L.679.352a2.29 2.29 0 0 1-.142.239.209.209 0 0 1-.08.066.344.344 0 0 1-.135.019H.267V0zm.267.934h.199C.588.934.665.94.698.95c.033.011.06.033.081.065.02.032.031.075.031.129a.225.225 0 0 1-.031.124.159.159 0 0 1-.084.065 1.08 1.08 0 0 1-.218.012h-.21V.934" style="fill:#231f20;fill-opacity:1;fill-rule:evenodd;stroke:none" transform="matrix(13.49593 0 0 -13.49593 69.406 318.786)"/><path d="M0 0v1.619h.267V.9l.543.719h.361L.67.989 1.197 0H.85L.485.76.267.489V0z" style="fill:#231f20;fill-opacity:1;fill-rule:nonzero;stroke:none" transform="matrix(13.49593 0 0 -13.49593 87.503 318.786)"/><path d="M0 0v1.619h.985v-.274H.267V.986h.667V.713H.267v-.44h.742V0z" style="fill:#231f20;fill-opacity:1;fill-rule:nonzero;stroke:none" transform="matrix(13.49593 0 0 -13.49593 105.537 318.786)"/><path d="M0 0v1.619h.267V.982h.526v.637h.268V0H.793v.708H.267V0z" style="fill:#231f20;fill-opacity:1;fill-rule:nonzero;stroke:none" transform="matrix(13.49593 0 0 -13.49593 122.233 318.786)"/><path d="M0 0v1.619h.564a.79.79 0 0 0 .31-.044.338.338 0 0 0 .152-.152.517.517 0 0 0 .06-.257A.483.483 0 0 0 .994.86.398.398 0 0 0 .736.715.685.685 0 0 0 .878.579C.916.53.967.443 1.032.316L1.193 0H.874L.679.352a2.29 2.29 0 0 1-.142.239.209.209 0 0 1-.08.066.344.344 0 0 1-.135.019H.267V0zm.267.934h.199C.588.934.665.94.698.95c.033.011.06.033.081.065.02.032.031.075.031.129a.225.225 0 0 1-.031.124.159.159 0 0 1-.084.065 1.08 1.08 0 0 1-.218.012h-.21V.934" style="fill:#231f20;fill-opacity:1;fill-rule:evenodd;stroke:none" transform="matrix(13.49593 0 0 -13.49593 140.297 318.786)"/><path d="m0 0 .262.031c.029-.207.126-.31.289-.31.081 0 .145.021.191.063.046.042.07.095.07.158a.164.164 0 0 1-.099.156 1.93 1.93 0 0 1-.24.084.816.816 0 0 0-.251.113.437.437 0 0 0-.127.159.494.494 0 0 0-.046.213c0 .088.019.168.059.239.041.07.096.124.167.16a.574.574 0 0 0 .262.054.5.5 0 0 0 .365-.127.505.505 0 0 0 .139-.363L.773.615C.761.702.736.763.697.797.658.832.602.849.53.849A.27.27 0 0 1 .363.804.137.137 0 0 1 .305.691C.305.647.322.61.358.58a.76.76 0 0 1 .244-.1.954.954 0 0 0 .291-.123.418.418 0 0 0 .139-.167.591.591 0 0 0 .047-.247.508.508 0 0 0-.13-.355C.863-.508.727-.555.543-.556.218-.556.037-.37 0 0" style="fill:#231f20;fill-opacity:1;fill-rule:nonzero;stroke:none" transform="matrix(13.49593 0 0 -13.49593 157.441 311.678)"/><path d="M0 0v.273h.578v-.645A.706.706 0 0 0 .33-.549a.763.763 0 0 0-.321-.074.63.63 0 0 0-.347.096.657.657 0 0 0-.238.289 1.085 1.085 0 0 0-.088.454c0 .179.03.331.089.458a.677.677 0 0 0 .23.284.61.61 0 0 0 .341.093c.158 0 .285-.04.38-.121A.572.572 0 0 0 .56.575L.295.515a.34.34 0 0 1-.11.191.285.285 0 0 1-.189.066.338.338 0 0 1-.278-.134C-.352.55-.388.415-.388.233c0-.195.039-.343.115-.445a.314.314 0 0 1 .266-.131c.053 0 .107.012.163.036a.533.533 0 0 1 .151.101V0H0" style="fill:#231f20;fill-opacity:1;fill-rule:nonzero;stroke:none" transform="matrix(13.49593 0 0 -13.49593 183.391 310.752)"/><path d="M0 0v1.619h.985v-.274H.267V.986h.667V.713H.267v-.44h.742V0z" style="fill:#231f20;fill-opacity:1;fill-rule:nonzero;stroke:none" transform="matrix(13.49593 0 0 -13.49593 194.54 318.786)"/><path d="M0 0v1.619h.401L.642.515.88 1.619h.402V0h-.248v1.275L.77 0H.511L.25 1.275V0z" style="fill:#231f20;fill-opacity:1;fill-rule:nonzero;stroke:none" transform="matrix(13.49593 0 0 -13.49593 211.174 318.786)"/><path d="M0 0v1.619h.985v-.274H.267V.986h.667V.713H.267v-.44h.743V0z" style="fill:#231f20;fill-opacity:1;fill-rule:nonzero;stroke:none" transform="matrix(13.49593 0 0 -13.49593 232.088 318.786)"/><path d="M82.845 110.388h1.308v7.934h-1.308z" style="fill:#231f20;fill-opacity:1;fill-rule:nonzero;stroke:none" transform="translate(20.517 -7.064) scale(2.75388)"/><path d="M0 0v1.619h.261L.804.538v1.081h.25V0h-.27L.25 1.056V0z" style="fill:#231f20;fill-opacity:1;fill-rule:nonzero;stroke:none" transform="matrix(13.49593 0 0 -13.49593 255.774 318.786)"/><path d="m0 0 .262.031c.029-.207.126-.31.289-.31.081 0 .145.021.191.063.047.042.07.095.07.158a.172.172 0 0 1-.024.093.178.178 0 0 1-.074.063 2.038 2.038 0 0 1-.241.084.816.816 0 0 0-.251.113.437.437 0 0 0-.127.159.494.494 0 0 0-.046.213c0 .088.02.168.059.239.041.07.096.124.167.16a.574.574 0 0 0 .262.054.5.5 0 0 0 .365-.127.51.51 0 0 0 .14-.363L.773.615C.761.702.736.763.697.797.658.832.602.849.53.849A.27.27 0 0 1 .363.804.141.141 0 0 1 .358.58a.771.771 0 0 1 .244-.1.954.954 0 0 0 .291-.123.418.418 0 0 0 .139-.167.591.591 0 0 0 .047-.247.508.508 0 0 0-.13-.355C.863-.508.727-.555.543-.556.218-.556.037-.37 0 0" style="fill:#231f20;fill-opacity:1;fill-rule:nonzero;stroke:none" transform="matrix(13.49593 0 0 -13.49593 272.887 311.678)"/><path d="m0 0 .26-.1C.219-.282.152-.414.057-.498A.506.506 0 0 0-.29-.623a.514.514 0 0 0-.421.2c-.124.154-.186.362-.186.623 0 .276.062.492.187.648a.527.527 0 0 0 .436.203.5.5 0 0 0 .373-.152.654.654 0 0 0 .157-.321L-.009.5A.356.356 0 0 1-.11.701a.25.25 0 0 1-.178.071.285.285 0 0 1-.24-.128C-.59.559-.621.417-.621.221c0-.204.031-.349.091-.435a.276.276 0 0 1 .235-.129c.071 0 .132.027.183.081A.524.524 0 0 1 0 0" style="fill:#231f20;fill-opacity:1;fill-rule:nonzero;stroke:none" transform="matrix(13.49593 0 0 -13.49593 301.968 310.752)"/><path d="M0 0v1.619h.267V.982h.526v.637h.268V0H.793v.708H.267V0z" style="fill:#231f20;fill-opacity:1;fill-rule:nonzero;stroke:none" transform="matrix(13.49593 0 0 -13.49593 308.573 318.786)"/><path d="M0 0h-.292l-.115.368h-.531L-1.047 0h-.285l.517 1.619h.284zm-.494.641-.182.601-.18-.601z" style="fill:#231f20;fill-opacity:1;fill-rule:evenodd;stroke:none" transform="matrix(13.49593 0 0 -13.49593 342.78 318.786)"/><path d="M0 0v1.619h.91v-.274H.267V.962h.556V.688H.267V0z" style="fill:#231f20;fill-opacity:1;fill-rule:nonzero;stroke:none" transform="matrix(13.49593 0 0 -13.49593 344.717 318.786)"/><path d="M0 0v1.345h-.394v.274H.661v-.274H.267V0z" style="fill:#231f20;fill-opacity:1;fill-rule:nonzero;stroke:none" transform="matrix(13.49593 0 0 -13.49593 364.02 318.786)"/><path d="M0 0h-.292l-.116.368h-.53L-1.047 0h-.285l.517 1.619h.284zm-.494.641-.182.601-.18-.601z" style="fill:#231f20;fill-opacity:1;fill-rule:evenodd;stroke:none" transform="matrix(13.49593 0 0 -13.49593 397.636 318.786)"/><path d="M0 0v1.619h.401L.642.515.88 1.619h.402V0h-.248v1.275L.77 0H.511L.25 1.275V0z" style="fill:#231f20;fill-opacity:1;fill-rule:nonzero;stroke:none" transform="matrix(13.49593 0 0 -13.49593 399.5 318.786)"/><path d="M0 0h.531a.812.812 0 0 0 .306-.04.332.332 0 0 0 .149-.14.428.428 0 0 0 .061-.228.432.432 0 0 0-.052-.212.336.336 0 0 0-.135-.139.358.358 0 0 0 .185-.143.44.44 0 0 0 .067-.248.51.51 0 0 0-.085-.299.35.35 0 0 0-.201-.15 2.097 2.097 0 0 0-.374-.02H0zm.267-.269v-.375h.177c.106 0 .172.002.197.006a.168.168 0 0 1 .107.057.201.201 0 0 1 .038.128c0 .048-.01.087-.032.116a.126.126 0 0 1-.076.056 1.481 1.481 0 0 1-.256.012zm0-.644v-.433h.249c.109 0 .179.005.21.016a.159.159 0 0 1 .077.067.242.242 0 0 1 .032.129.234.234 0 0 1-.034.13.166.166 0 0 1-.09.071.828.828 0 0 1-.227.02H.267" style="fill:#231f20;fill-opacity:1;fill-rule:evenodd;stroke:none" transform="matrix(13.49593 0 0 -13.49593 427.365 296.935)"/><path d="M0 0h-.291l-.117.368h-.53L-1.047 0h-.285l.517 1.619h.284zm-.494.641-.182.601-.18-.601z" style="fill:#231f20;fill-opacity:1;fill-rule:evenodd;stroke:none" transform="matrix(13.49593 0 0 -13.49593 461.587 318.786)"/><path d="M0 0v.681l-.486.938h.314L.14.979l.307.64h.308L.267.679V0z" style="fill:#231f20;fill-opacity:1;fill-rule:nonzero;stroke:none" transform="matrix(13.49593 0 0 -13.49593 466.192 318.786)"/><path d="M0 0v1.619h.985v-.274H.267V.986h.668V.713H.267v-.44h.743V0z" style="fill:#231f20;fill-opacity:1;fill-rule:nonzero;stroke:none" transform="matrix(13.49593 0 0 -13.49593 478.188 318.786)"/><path d="M0 0v1.619h.564a.79.79 0 0 0 .31-.044.343.343 0 0 0 .152-.152.517.517 0 0 0 .06-.257A.483.483 0 0 0 .994.86.398.398 0 0 0 .736.715.71.71 0 0 0 .878.579C.916.53.967.443 1.032.316L1.193 0H.874L.679.352a2.29 2.29 0 0 1-.142.239.209.209 0 0 1-.08.066.342.342 0 0 1-.134.019H.267V0zm.267.934h.199C.587.934.665.94.698.95c.033.011.06.033.081.065.02.032.03.075.03.129 0 .052-.01.093-.03.124a.159.159 0 0 1-.084.065 1.08 1.08 0 0 1-.218.012h-.21V.934" style="fill:#231f20;fill-opacity:1;fill-rule:evenodd;stroke:none" transform="matrix(13.49593 0 0 -13.49593 494.885 318.786)"/><path d="M178.77 110.388h1.31v7.934h-1.31z" style="fill:#231f20;fill-opacity:1;fill-rule:nonzero;stroke:none" transform="translate(20.517 -7.064) scale(2.75388)"/><path d="m0 0 .262.031c.029-.207.126-.31.289-.31.081 0 .145.021.191.063.047.042.07.095.07.158a.164.164 0 0 1-.098.156 2.038 2.038 0 0 1-.241.084.816.816 0 0 0-.251.113.437.437 0 0 0-.127.159.494.494 0 0 0-.046.213c0 .088.019.168.059.239.041.07.096.124.167.16a.574.574 0 0 0 .262.054.5.5 0 0 0 .365-.127.51.51 0 0 0 .14-.363L.773.615C.761.702.736.763.697.797.658.832.602.849.53.849A.265.265 0 0 1 .364.804.136.136 0 0 1 .305.691C.305.647.323.61.358.58a.771.771 0 0 1 .244-.1.974.974 0 0 0 .292-.123.424.424 0 0 0 .138-.167.591.591 0 0 0 .047-.247.508.508 0 0 0-.13-.355C.863-.508.727-.555.543-.556.218-.556.037-.37 0 0" style="fill:#231f20;fill-opacity:1;fill-rule:nonzero;stroke:none" transform="matrix(13.49593 0 0 -13.49593 518.988 311.678)"/><path d="m0 0 .26-.1C.219-.282.152-.414.057-.498a.507.507 0 0 0-.348-.125.514.514 0 0 0-.42.2c-.124.154-.186.362-.186.623 0 .276.062.492.187.648a.527.527 0 0 0 .436.203.5.5 0 0 0 .373-.152.654.654 0 0 0 .157-.321L-.009.5A.356.356 0 0 1-.11.701a.25.25 0 0 1-.178.071.285.285 0 0 1-.24-.128C-.59.559-.621.417-.621.221c0-.204.03-.349.091-.435a.276.276 0 0 1 .235-.129c.071 0 .132.027.183.081A.524.524 0 0 1 0 0" style="fill:#231f20;fill-opacity:1;fill-rule:nonzero;stroke:none" transform="matrix(13.49593 0 0 -13.49593 548.07 310.752)"/><path d="M0 0v1.619h.268V.982h.525v.637h.268V0H.793v.708H.268V0z" style="fill:#231f20;fill-opacity:1;fill-rule:nonzero;stroke:none" transform="matrix(13.49593 0 0 -13.49593 554.672 318.786)"/><path d="M0 0v1.619h.985v-.274H.267V.986h.668V.713H.267v-.44h.742V0z" style="fill:#231f20;fill-opacity:1;fill-rule:nonzero;stroke:none" transform="matrix(13.49593 0 0 -13.49593 572.738 318.786)"/><path d="M0 0v1.619h.261L.804.538v1.081h.25V0h-.27L.25 1.056V0z" style="fill:#231f20;fill-opacity:1;fill-rule:nonzero;stroke:none" transform="matrix(13.49593 0 0 -13.49593 589.462 318.786)"/><path d="M0 0h.267v-.877c0-.136.004-.225.01-.266a.273.273 0 0 1 .084-.166.26.26 0 0 1 .177-.058c.062 0 .112.013.151.041a.208.208 0 0 1 .08.114c.014.05.022.155.022.316V0h.268v-.85c0-.218-.012-.375-.035-.472a.396.396 0 0 0-.157-.235.528.528 0 0 0-.322-.09.607.607 0 0 0-.324.074.43.43 0 0 0-.169.21C.017-1.272 0-1.106 0-.864V0" style="fill:#231f20;fill-opacity:1;fill-rule:nonzero;stroke:none" transform="matrix(13.49593 0 0 -13.49593 614.42 296.935)"/><path d="M0 0v1.619h.261L.804.538v1.081h.25V0h-.27L.25 1.056V0z" style="fill:#231f20;fill-opacity:1;fill-rule:nonzero;stroke:none" transform="matrix(13.49593 0 0 -13.49593 632.561 318.786)"/><path d="M0 0v1.345h-.394v.274H.66v-.274H.267V0z" style="fill:#231f20;fill-opacity:1;fill-rule:nonzero;stroke:none" transform="matrix(13.49593 0 0 -13.49593 654.624 318.786)"/><path d="M0 0v1.619h.985v-.274H.267V.986h.667V.713H.267v-.44h.742V0z" style="fill:#231f20;fill-opacity:1;fill-rule:nonzero;stroke:none" transform="matrix(13.49593 0 0 -13.49593 665.892 318.786)"/><path d="M0 0v1.619h.564a.783.783 0 0 0 .309-.044.34.34 0 0 0 .153-.152.517.517 0 0 0 .06-.257A.483.483 0 0 0 .994.86.4.4 0 0 0 .735.715.691.691 0 0 0 .878.579C.916.53.967.443 1.031.316L1.193 0h-.32L.679.352a2.29 2.29 0 0 1-.142.239.209.209 0 0 1-.08.066.344.344 0 0 1-.135.019H.267V0zm.267.934h.199C.587.934.665.94.698.95c.033.011.06.033.081.065.02.032.03.075.03.129 0 .052-.01.093-.03.124a.159.159 0 0 1-.084.065 1.08 1.08 0 0 1-.218.012h-.21V.934" style="fill:#231f20;fill-opacity:1;fill-rule:evenodd;stroke:none" transform="matrix(13.49593 0 0 -13.49593 682.59 318.786)"/><path d="M0 0v1.619h.401L.642.515.88 1.619h.402V0h-.248v1.275L.77 0H.511L.25 1.275V0z" style="fill:#231f20;fill-opacity:1;fill-rule:nonzero;stroke:none" transform="matrix(13.49593 0 0 -13.49593 700.593 318.786)"/><path d="M0 0h-.292l-.116.368h-.53L-1.047 0h-.285l.517 1.619h.284zm-.494.641-.182.601-.18-.601z" style="fill:#231f20;fill-opacity:1;fill-rule:evenodd;stroke:none" transform="matrix(13.49593 0 0 -13.49593 737.651 318.786)"/><path d="M261.063 110.388h1.309v7.934h-1.309z" style="fill:#231f20;fill-opacity:1;fill-rule:nonzero;stroke:none" transform="translate(20.517 -7.064) scale(2.75388)"/><path d="M0 0v1.619h.261L.804.538v1.081h.25V0h-.27L.25 1.056V0z" style="fill:#231f20;fill-opacity:1;fill-rule:nonzero;stroke:none" transform="matrix(13.49593 0 0 -13.49593 746.562 318.786)"/></svg>