<svg version="1.1" id="Ebene_1" x="0" y="0" xml:space="preserve" width="800.781" height="320" xmlns="http://www.w3.org/2000/svg"><style type="text/css" id="style1242">.st0{fill:#003d7c}</style><path d="M0 0h800v320H0z" fill="#fff" style="clip-rule:evenodd;fill-rule:evenodd;stroke-width:.8;stroke-linejoin:round;stroke-miterlimit:2" id="path735"/><path id="Pfad_1" class="st0" d="M742.229 243.271h5.812v-19.464c0-3.76 2.267-5.679 4.613-5.679 2.933 0 4.053 1.44 4.053 5.253v19.89h5.812v-21.917c0-5.866-2.8-7.892-7.225-7.892a8.375 8.375 0 0 0-7.466 4.133h-.133v-3.413h-5.493v29.036zm-19.998-17.757v-.587c0-3.786 1.147-7.466 4.853-7.466 3.28 0 4.48 2.8 4.48 6.506v1.6h-9.333zm15.145 4v-3.094c0-8.079-2.16-12.931-10.239-12.931-9.145 0-10.718 8.079-10.718 15.678 0 13.411 5.866 14.851 10.638 14.851 5.28.347 9.866-3.653 10.212-8.932a9.297 9.297 0 0 0-.026-1.493h-5.493c0 1.733-.48 6.479-4.666 6.479-4.373 0-4.853-4.96-4.853-8.852v-1.68h15.145zm-40.715-1.68c0-5.387.72-9.706 4.906-9.706s4.666 5.253 4.666 9.999-.48 10.345-5.012 10.345c-4.533 0-4.533-5.626-4.533-10.585m-5.04 17.917c0 2.347.96 7.466 9.626 7.466 7.786 0 10.825-4.266 10.825-11.358v-27.597h-5.519v3.546h-.107a6.456 6.456 0 0 0-6.399-4.319c-8.212 0-9.225 8.559-9.225 14.958 0 7.946 1.866 14.611 8.692 14.611 2.8.08 5.386-1.466 6.586-3.999h.106v4.72a4.786 4.786 0 0 1-4.132 5.385 8.072 8.072 0 0 1-.774.054c-2.106.24-4-1.28-4.212-3.387v-.08zm-26.263-2.506h5.813v-19.464c0-3.76 2.266-5.68 4.666-5.68 2.933 0 4.026 1.44 4.026 5.253v19.918h5.813V221.38c0-5.866-2.8-7.892-7.2-7.892a8.375 8.375 0 0 0-7.465 4.132h-.133v-3.412h-5.493v29.036zm-11.678-33.116h5.813v-5.812h-5.813zm0 33.116h5.813v-29.036h-5.813zm-17.251 0h5.812V225.94c0-5.386 3.173-6.585 5.813-6.585.827 0 1.653.106 2.453.346v-5.919a4.962 4.962 0 0 0-1.386-.187 7.153 7.153 0 0 0-6.72 5.28h-.106v-4.533h-5.84v29.063zm-11.119 0h5.52v-29.036h-5.813v20.29a4.566 4.566 0 0 1-4.266 4.853h-.507c-2.506 0-3.946-1.066-3.946-4.32v-20.823h-5.812v20.29c0 7.493 2.88 9.466 7.225 9.466a8.375 8.375 0 0 0 7.466-4.133h.133zM613.66 209.41h5.2v-5.812h-5.2zm8.932 0h5.2v-5.812h-5.2zm-38.048 33.89h5.812v-19.465c0-3.76 2.267-5.68 4.666-5.68 2.933 0 4.026 1.44 4.026 5.253v19.918h5.813V221.38c0-5.866-2.8-7.892-7.226-7.892-2.906 0-5.599 1.52-7.119 4l-.133-.08v-12.666h-5.813v38.528zm-17.598-24.718h4v18.025c0 5.919 1.92 7.012 5.865 7.012a20.12 20.12 0 0 0 4.72-.48v-4.32c-.693.107-1.413.16-2.107.134-1.973 0-2.64-.827-2.64-3.066V218.58h4.747v-4.266h-4.773v-8.265h-5.813v8.265h-3.999zm-9.119 24.717h5.813v-38.502h-5.813zm-20.237-17.73v-.588c0-3.786 1.12-7.465 4.853-7.465 3.28 0 4.479 2.8 4.479 6.506v1.6h-9.332zm15.145 3.999v-3.093c0-8.08-2.16-12.932-10.24-12.932-9.145 0-10.718 8.079-10.718 15.678 0 13.411 5.866 14.851 10.639 14.851 5.28.347 9.865-3.653 10.212-8.932a9.297 9.297 0 0 0-.027-1.493h-5.492c0 1.733-.48 6.48-4.666 6.48-4.373 0-4.853-4.96-4.853-8.853v-1.68h15.144zm-37.756-10.959h4v18.024c0 5.92 1.92 7.013 5.866 7.013a20.12 20.12 0 0 0 4.72-.48v-4.32c-.694.107-1.414.16-2.107.134-2.027 0-2.64-.827-2.64-3.067v-17.304h4.746v-4.266h-4.772v-8.266h-5.813v8.266h-4zm-15.01 0h3.999v18.024c0 5.92 1.92 7.013 5.866 7.013 1.573.053 3.146-.134 4.666-.48v-4.32c-.694.107-1.414.16-2.107.134-2.026 0-2.64-.827-2.64-3.067v-17.304h4.773v-4.266h-4.772v-8.266h-5.813v8.266h-4v4.266zm-9.093-8.426h5.813v-5.812h-5.813v5.812zm0 33.116h5.813v-29.036h-5.813zm-38.848 0h5.812v-32.076h.107l7.786 32.076h5.199l7.786-32.076h.106v32.076h5.813v-38.502h-9.386l-6.692 28.503h-.08l-6.826-28.503h-9.625z" style="stroke-width:2.66632"/><path id="Pfad_2" class="st0" d="M795.262 172c0 6.213-.907 10.293-4.906 10.293-4 0-4.906-4.133-4.906-10.719 0-7.839 1.2-10.532 4.532-10.532 4.48 0 5.306 4 5.28 10.959m.026 14.185h5.493v-38.502h-5.813v12.878h-.133a6.714 6.714 0 0 0-6.586-4.133c-4.426 0-8.932 1.974-8.932 14.905 0 9.999 2.693 15.625 9.466 15.625 2.88.186 5.519-1.6 6.399-4.32h.106zm-40.794 0h5.812V166.72c0-3.786 2.267-5.679 4.666-5.679 2.933 0 4.026 1.44 4.026 5.253v19.917h5.813v-21.944c0-5.865-2.8-7.892-7.199-7.892a8.375 8.375 0 0 0-7.466 4.133h-.133v-3.413h-5.493v29.01zm-11.092 0h5.492v-29.01h-5.812v20.29a4.566 4.566 0 0 1-4.266 4.853h-.507c-2.506 0-3.946-1.066-3.946-4.319v-20.824h-5.813v20.29c0 7.493 2.88 9.466 7.226 9.466a8.375 8.375 0 0 0 7.466-4.133h.133v3.36zM708.1 172c0-6.96.826-10.959 5.28-10.959 3.359 0 4.532 2.693 4.532 10.532 0 6.586-.853 10.719-4.906 10.719-4.026 0-4.906-4.106-4.906-10.292m-5.466 14.185h5.492v-3.547h.107a6.232 6.232 0 0 0 6.4 4.32c6.772 0 9.465-5.68 9.465-15.625 0-12.878-4.533-14.905-8.932-14.905a6.814 6.814 0 0 0-6.586 4.133h-.107v-12.878h-5.812zm-17.038 0h5.813v-17.358c0-5.386 3.173-6.586 5.812-6.586.827.027 1.653.133 2.453.347v-5.92a4.962 4.962 0 0 0-1.386-.186 7.153 7.153 0 0 0-6.72 5.28h-.106v-4.534h-5.813v29.01zm-19.944-17.758v-.587c0-3.786 1.147-7.465 4.853-7.465 3.28 0 4.48 2.8 4.48 6.505v1.6h-9.333zm15.145 4v-3.067c0-8.079-2.16-12.932-10.239-12.932-9.145 0-10.719 8.08-10.719 15.678 0 13.412 5.866 14.852 10.64 14.852 5.278.346 9.864-3.68 10.184-8.959a9.632 9.632 0 0 0-.026-1.52h-5.493c0 1.733-.48 6.506-4.666 6.506-4.373 0-4.853-4.96-4.853-8.852v-1.68zm-37.782 13.758h6.772l7.653-29.01h-6.213l-4.56 22.877h-.132l-5.04-22.877h-6.239zm-10.345-20.531v-1.307c0-3.6-1.68-7.945-9.04-7.945-5.998 0-9.891 2.56-9.891 7.972-.4 3.973 2.293 7.572 6.212 8.372l4.773 1.68a4.236 4.236 0 0 1 3.173 4.266c0 2.64-1.6 4.266-4.773 4.266-3.36 0-4.532-1.84-4.532-5.199v-.907h-5.2v1.067c0 5.626 2.213 8.985 9.572 8.985 5.866 0 10.399-2.64 10.399-8.852a7.839 7.839 0 0 0-6.293-8.372l-3.706-1.306c-3.066-1.12-4.08-2.027-4.08-4.267 0-2.693 1.814-3.786 4.187-3.786 3.04 0 3.84 2.16 3.84 4.48v.773h5.492zm-35.009 20.53h5.813v-17.357c0-5.386 3.172-6.586 5.812-6.586.8.027 1.627.133 2.4.347v-5.92a4.962 4.962 0 0 0-1.387-.186 7.152 7.152 0 0 0-6.719 5.28h-.106v-4.534h-5.813v29.01zm-25.97 0h5.813v-19.464c0-3.786 2.266-5.679 4.666-5.679 2.88 0 4.026 1.44 4.026 5.253v19.917h5.812v-21.944c0-5.865-2.8-7.892-7.225-7.892-2.907 0-5.6 1.52-7.12 4l-.133-.107v-12.612h-5.812v38.502zm-19.944-17.73v-.587c0-3.786 1.093-7.466 4.853-7.466 3.306 0 4.48 2.8 4.48 6.48v1.6h-9.333zm15.145 3.999v-3.093c0-8.079-2.16-12.932-10.239-12.932-9.145 0-10.719 8.08-10.719 15.678 0 13.412 5.866 14.852 10.639 14.852 5.28.346 9.865-3.68 10.185-8.959a9.632 9.632 0 0 0-.026-1.52h-5.52c0 1.733-.48 6.506-4.666 6.506-4.372 0-4.852-4.96-4.852-8.852v-1.68h15.144zm-44.821 13.732h5.812v-9.2l3.28-3.999 7.12 13.172h6.345l-9.865-17.838 8.745-11.198h-6.746l-8.799 12.158h-.106v-21.677h-5.813v38.528zm-16.985 0h5.813v-17.358c0-5.386 3.173-6.586 5.813-6.586.826.027 1.653.133 2.453.347v-5.92a4.962 4.962 0 0 0-1.387-.186 7.153 7.153 0 0 0-6.719 5.28h-.107v-4.534h-5.812v29.01zm-19.997-17.731v-.587c0-3.786 1.147-7.466 4.853-7.466 3.28 0 4.48 2.8 4.48 6.48v1.6h-9.333zm15.145 3.999v-3.093c0-8.079-2.16-12.932-10.239-12.932-9.145 0-10.718 8.08-10.718 15.678 0 13.412 5.865 14.852 10.638 14.852 5.28.346 9.839-3.68 10.185-8.986a9.632 9.632 0 0 0-.026-1.52h-5.493c0 1.734-.48 6.506-4.613 6.506-4.372 0-4.852-4.959-4.852-8.852v-1.68zm-39.248 13.732h7.839l9.705-38.502h-6.533l-6.932 30.716h-.107l-6.532-30.716h-6.533z" style="stroke-width:2.66632"/><path id="Pfad_3" d="M134.815 78.706c1.307-4.559-.773-8.905-5.866-8.905h-21.117c-5.333 0-8.186 2.56-9.412 7.892L69.81 175.6a64.458 64.458 0 0 0-1.813 6.746c-.613-2.213-1.066-4.186-1.626-6.64L38.934 77.214c-.72-4.453-4.666-7.652-9.172-7.412H7.1c-5.093 0-7.173 4.32-5.866 8.905l46.127 157.58a9.35 9.35 0 0 0 8.932 6.399H81.01a9.35 9.35 0 0 0 8.932-6.4z" style="stroke-width:2.66632;fill:#afca0b"/><path id="Pfad_4" class="st0" d="M308.152 235.512 294.634 76.92a8.439 8.439 0 0 0-8.105-7.12h-28.343a9.122 9.122 0 0 0-8.933 6.347l-21.17 95.16c-.533 2.08-2.453 12.506-2.453 12.506s-2.08-10.4-2.267-12.319l-20.21-95.32c-1.227-3.867-4.88-6.453-8.959-6.346h-29.036c-4.08.106-7.493 3.092-8.186 7.119l-13.758 158.592c-.453 3.466 2 6.613 5.44 7.066.213.027.453.053.666.053h20.397a8.523 8.523 0 0 0 8.186-7.119l7.679-104.04a34.243 34.243 0 0 0-.374-6.399c.64 2.027 1.2 4.08 1.627 6.16l18.85 86.708a9.09 9.09 0 0 0 8.906 6.346h21.41a9.122 9.122 0 0 0 8.933-6.346l19.917-86.709c.347-1.733 1.12-6.052 1.12-6.052a39.045 39.045 0 0 0-.613 6.346l7.946 104.013c0 3.84 4.319 7.119 8.185 7.119h20.637c3.467-.053 6.213-2.906 6.16-6.373 0-.24-.027-.48-.054-.72" style="stroke-width:2.66632"/><path id="Pfad_5" class="st0" d="M432.616 93.771V76.92c-.08-3.893-3.226-7.012-7.12-7.12H324.764c-3.892.08-7.012 3.227-7.119 7.12v16.824a7.277 7.277 0 0 0 7.12 7.12h33.168v134.648c.08 3.893 3.227 7.013 7.12 7.12h20.184c3.892-.08 7.012-3.227 7.119-7.12V100.917h33.169c3.892-.08 7.012-3.226 7.119-7.12" style="stroke-width:2.66632"/></svg>