<svg viewBox="0 4 800 320" xmlns="http://www.w3.org/2000/svg"><path d="M0 4h800v320H0Z" fill="#fff" style="stroke-width:.8"/><path d="m301.506 132.905-56.717 134.5h-40.512l-56.717-134.5h40.512l37.272 91.558 38.08-91.558zm86.696 134.5c-13.774 0-26.738-3.241-38.081-8.912-10.534-5.672-20.257-14.585-25.928-25.118-6.482-10.533-9.723-22.687-9.723-36.461 0-13.774 3.241-25.927 9.723-36.46 6.482-10.534 15.395-19.447 25.928-25.119 11.343-5.672 23.496-8.912 38.08-8.912 13.775 0 26.739 3.241 38.082 8.912 10.533 5.672 20.256 14.585 25.928 25.118 6.481 10.534 9.722 22.687 9.722 36.461 0 13.774-3.24 25.928-9.722 36.461-6.482 10.533-15.395 19.446-25.928 25.118-11.343 5.672-24.307 8.912-38.081 8.912zm0-32.41c10.533 0 18.635-3.241 25.118-10.533 6.482-7.292 9.722-16.205 9.722-28.358 0-11.344-3.24-21.067-9.722-28.359-6.482-7.292-15.395-10.533-25.118-10.533-10.534 0-18.636 3.241-25.118 10.533-6.482 7.292-9.723 16.205-9.723 28.359 0 11.343 3.241 21.066 9.723 28.358 6.482 7.292 14.584 10.533 25.118 10.533zm111.813-102.09h38.081v134.5h-38.08Zm19.446-19.446c-7.292 0-13.774-2.43-18.635-6.482-4.862-4.05-7.292-9.723-7.292-16.204 0-6.482 2.43-12.154 7.292-16.205 4.861-4.051 10.533-6.482 18.635-6.482 8.102 0 13.774 2.43 18.635 6.482 4.051 4.05 6.482 9.723 6.482 15.395 0 6.481-2.43 12.153-7.292 17.015-4.051 4.05-10.533 6.482-17.826 6.482zm82.645 153.945c-6.482 0-13.774-2.43-17.826-7.292-4.861-5.672-7.292-12.153-7.292-18.635 0-7.292 2.43-13.774 7.292-18.635 10.534-9.723 25.928-9.723 36.461 0 4.862 4.861 7.292 10.533 7.292 18.635 0 7.292-2.43 13.774-7.292 18.635-4.861 4.051-11.343 7.292-18.635 7.292z" fill="#f46c63" style="stroke-width:.706607"/></svg>