<svg xmlns="http://www.w3.org/2000/svg" viewBox="0 0 800 320"><path d="M0 0h800v320H0Z" fill="#fff" style="stroke-width:.8"/><g fill="#1a7bb9"><path d="M308.05 81.345c2.485 2.298 5.09 7.385 3.305 12.121 8.608 8.462 18.677 15.468 23.685 27.534 13.604.98 12.338 18.902 13.217 35.802.612 11.574 4.46 21.983 5.506 31.387 1.671 14.953-3.72 30.706-10.46 36.35-5.818 4.88-15.017 5.87-23.69 6.615 2.8-4.355 2.362-11.965 3.315-18.17 1.8-2.403 5.887-2.569 7.706-4.4 8.65-8.803 1.87-26.729 0-40.761-1.15-8.64-.63-19.538-2.762-25.89-1.446-4.305-8.332-7.818-11.016-11.565-3.393-4.737-5.829-10.16-9.917-14.878-4.28-4.935-8.557-9.17-12.664-12.113-.925-.911-.446-3.235-.553-4.963-33.113-5.47-64.781-16.895-103.543-13.212-3.669-3.858-10.133-8.918-18.727-9.364-14.736-.768-25.642 9.958-24.781 26.438-18.415 10.778-35.088 23.29-48.467 39.108-10.492 3.337-22.157 6.643-34.144 9.916-10.754 2.933-24.98 5.133-31.397 12.67-1.414 1.629-2.514 5.036-4.406 7.706-1.795 2.532-4.281 4.36-4.958 6.61-.782 2.592-.368 6.046-1.1 9.36-1.552 7.02-3.236 17.07-2.205 29.205 5.962 8.535 25.352 3.641 38.555 4.945.06 7.463 3.034 12.02 5.506 17.07-24.693-.46-57.89 7.642-61.674-13.756-1.827-10.312-.755-29.555.553-40.198.428-3.545 1.477-9.939 2.749-13.77 1.345-4.055 4.981-5.781 7.163-9.353 1.183-1.957 1.072-4.728 2.205-6.62 9.686-16.104 34.112-19.87 53.972-25.887 6.924-2.095 15.044-3.273 20.38-6.058 4.037-2.108 7.753-7.49 11.57-11.016 18.662-17.227 40.571-34.076 69.394-41.312 12.277-3.08 25.83-4.71 41.308-4.958 36.368-.59 64.012 11.527 96.375 15.408zm-137.694 6.611c20.228-1.1 19.427 29.795.553 29.74-18.369-.055-19.957-28.685-.553-29.74zM199 184.88c-2.312 13.746 5.64 41.188-6.61 43.508-13.31 2.528-10.465-15.518-10.465-28.644 0-10.05-1.827-23.119 1.105-28.643 2.007-3.752 7.996-5.782 11.573-7.707 4.595-2.49 7.859-3.669 12.66-6.62-5.47-8.292-13.12-14.418-20.38-20.923a666.77 666.77 0 0 1-14.317 18.713c-7.706 0-23.672-.898-37.998-2.757-.709-14.617 8.347-6.234 30.84-7.707 13.308-11.845 13.885-37.165 32.497-31.94 8.152 2.284 15.054 13.397 20.933 19.275 6.247 6.252 17.783 14.137 19.275 20.933 2.946 13.387-10.612 16.794-19.275 21.48-7.652 4.135-13.784 8.343-19.837 11.031zm-87.57-12.108c26.039-2.74 44.85 15.017 48.462 36.35 5.547 32.745-23.423 56.058-51.771 51.22-19.004-3.245-40.198-21.817-36.35-50.124 2.941-21.646 18.184-35.181 39.66-37.446zm-24.79 50.663c6.726 31.115 55.44 29.697 58.93-3.3 2.096-19.801-13.783-34.638-31.94-33.045-17.488 1.547-31.299 16.412-26.99 36.345zm174.043-50.663c26.102-2.605 46.05 15.51 48.467 39.112 3.122 30.434-23.64 53.811-52.871 48.457-18.732-3.425-35.6-20.099-35.798-43.514-.207-24.468 16.619-41.704 40.204-44.056zm-17.07 22.585c-17.13 17.139-5.46 51.334 21.48 51.22 11.123-.055 26.596-8.494 29.192-23.69 3.932-23.074-13.89-37.074-31.392-35.79-8.484.617-14.92 3.89-19.28 8.26z" stroke="#1a7bb9" stroke-width="1.1507913600000002"/><path d="M474.667 109.8v14.124l-.235 14.132c0 9.64-3.35 17.99-10.031 25.044-5.75 6.169-15.46 9.258-29.145 9.258-2.1 0-5.133-.06-9.102-.17h-8.632c-7.453 0-12.945.898-16.43 2.698-4.433 2.68-6.647 7.508-6.647 14.465v27.91h79.987v24.386H371.248v-58.023c0-11.094 3.18-19.925 9.556-26.489 6.376-6.564 14.81-9.833 25.302-9.833h24.602c13.838 0 20.753-5.888 20.753-17.66v-14.294c0-11.882-6.528-17.826-19.584-17.826h-60.404v-24.22h66.347c11.348 0 20.284 2.975 26.817 8.923 6.685 6.726 10.031 15.915 10.031 27.576zm129.646 60.03H528.64v28.432c0 12.554 6.767 18.838 20.293 18.838h59.925v24.546h-66.222c-11.422 0-20.33-2.859-26.71-8.576-7.001-6.385-10.482-15.413-10.482-27.074V111.31c0-11.656 3.108-20.822 9.323-27.493 6.224-6.67 14.81-10.008 25.767-10.008h68.327v24.552h-60.155c-13.365 0-20.049 6.168-20.049 18.502v28.763h75.674v24.205zm194.483 72.654H776.64V110.136L735.71 228.01c-3.965 11.555-9.516 17.333-16.67 17.333-4.286 0-7.77-1.68-10.492-5.05-1.629-2.243-3.379-5.999-5.252-11.26L661.434 110.13v132.353h-22.157V96.013c0-6.394 1.754-11.694 5.253-15.897 3.508-4.208 8.346-6.311 14.58-6.311 9.4 0 15.846 5.216 19.349 15.638l40.35 119.228 41.026-119.408c3.67-10.537 10.045-15.808 19.128-15.808 6.367 0 11.26 2.163 14.686 6.477 3.416 4.317 5.115 9.833 5.115 16.559v145.985z"/></g></svg>