<svg xmlns="http://www.w3.org/2000/svg" viewBox="0 0 800 320" xmlns:v="https://vecta.io/nano"><path d="M0 0h800v320H0Z" fill="#fff"/><path d="M65.881 130.66H15.843l-2.612 12.445h31.052l-25.647 26.146H38.2l25.109-25.766zm-51.015 42.42L2.8 185.365.347 198.188h57.078l2.154-12.445H22.106l12.365-12.683H14.866zm115.691-18.528c0-16.214-9.512-25.507-26.125-25.507-21.439 0-35.978 20.562-36.537 40.186h61.126c.738-3.829 1.197-7.4 1.396-10.83h-45.77l.36-.996c3.012-8.696 7.439-16.733 19.186-16.733 7.458 0 11.567 4.368 11.567 12.285 0 .539-.04 1.078-.06 1.596zM67.976 173.06c1.017 17.25 11.826 26.724 30.732 26.724 6.482 0 16.015-1.556 22.875-3.71l1.874-12.364c-6.123 2.653-14.857 4.447-21.838 4.447-11.806 0-17.849-4.826-18.807-15.096H67.956zm137.329-14.48c0-17.949-11.507-29.535-29.297-29.535-16.792 0-30.393 10.29-35.699 25.507h17.351c3.31-7.24 9.054-13.083 17.57-13.083 9.114 0 13.741 5.804 13.741 17.251s-6.562 28.639-20.621 28.639c-9.114 0-14.12-6.023-14.12-16.971 0-3.73.639-7.958 1.935-11.986h-17.011a45.024 45.024 0 0 0-1.257 10.65c0 19.245 10.85 30.752 29.038 30.752 22.576 0 38.351-16.952 38.351-41.203z" fill="#638d3f"/><path d="M265.434 140.133l3.29-6.82c-5.245-2.614-11.387-3.93-18.407-3.93-6.6 0-12.325 1.436-17.191 4.308s-8.595 6.96-11.169 12.245c-2.572 5.304-3.869 11.468-3.869 18.507 0 11.248 2.672 19.924 8.037 26.027s12.963 9.154 22.836 9.154c6.82 0 12.544-.877 17.17-2.653v-6.96c-5.983 1.715-11.308 2.572-15.994 2.572-7.598 0-13.462-2.433-17.57-7.319-4.108-4.865-6.162-11.786-6.162-20.72s2.134-15.536 6.382-20.542c4.268-5.006 10.072-7.499 17.43-7.499 5.066 0 10.132 1.217 15.218 3.65zm64.517 58.573l-26.345-68.624h-6.542l-26.484 68.624h7.877l8.237-21.737h26.844l8.336 21.737h8.057zm-40.485-28.898l7.877-21.18c1.256-3.589 2.214-6.88 2.892-9.872 1.078 3.89 2.114 7.18 3.11 9.873l7.779 21.18zm72.394.48l16.214 28.418h9.214L369.1 167.994c8.974-3.171 13.462-9.294 13.462-18.328 0-6.461-1.954-11.288-5.883-14.5s-9.992-4.806-18.209-4.806h-18.368v68.345h7.778v-28.419h13.96zM347.9 137.34h10.131c5.764 0 9.972.997 12.565 2.99 2.612 1.995 3.909 5.246 3.909 9.773s-1.276 7.798-3.849 10.03-6.601 3.351-12.085 3.351H347.9V137.32zm86.853 31.79c-2.633-2.932-7.479-5.665-14.5-8.217-4.187-1.535-7.298-2.932-9.312-4.188-2.035-1.256-3.47-2.653-4.328-4.168s-1.276-3.45-1.276-5.824c0-3.211 1.157-5.723 3.47-7.519 2.313-1.814 5.545-2.712 9.673-2.712 5.225 0 10.59 1.177 16.133 3.55l2.433-6.92c-5.583-2.494-11.706-3.75-18.368-3.75s-11.507 1.555-15.396 4.667c-3.868 3.11-5.823 7.299-5.823 12.564s1.336 9.095 4.008 12.205 7.12 5.804 13.362 8.077c4.467 1.616 7.777 3.072 9.971 4.348s3.75 2.672 4.667 4.188c.938 1.516 1.396 3.45 1.396 5.824 0 3.59-1.316 6.382-3.949 8.396s-6.542 3.012-11.727 3.012c-3.17 0-6.382-.34-9.612-1.017s-6.223-1.616-8.975-2.813v7.658c4.268 2.094 10.39 3.131 18.328 3.131 7.319 0 13.123-1.675 17.41-5.045 4.268-3.371 6.421-8.057 6.421-14.06 0-4.668-1.316-8.477-3.968-11.409zm71.298-38.77h-7.778v29.077h-35.28V130.36h-7.777v68.345h7.778v-32.168h35.279v32.148h7.778zm69.463 68.345l-26.326-68.624h-6.542l-26.484 68.624h7.877l8.237-21.737h26.844l8.336 21.737zm-40.485-28.898l7.877-21.18c1.256-3.589 2.214-6.88 2.892-9.872 1.077 3.89 2.114 7.18 3.11 9.873l7.779 21.18zm72.394.48l16.214 28.418h9.214l-18.188-30.712c8.974-3.171 13.462-9.294 13.462-18.328 0-6.461-1.954-11.288-5.883-14.5s-9.992-4.806-18.209-4.806h-18.368v68.345h7.778v-28.419h13.96zm-13.96-32.947h10.131c5.764 0 9.952.997 12.565 2.99s3.909 5.246 3.909 9.773-1.277 7.798-3.85 10.03-6.6 3.351-12.084 3.351h-10.67V137.32zm60.808 61.365V130.36h-7.778v68.345zm73.49-68.345h-7.279v39.208c-.06 1.954 0 5.226.22 9.792l.418 8.118h-.36l-36.516-57.118h-8.795v68.345h7.2v-38.85c0-5.603-.24-11.786-.738-18.507h.358l36.596 57.357h8.894zm48.802 39.647h14.978v21.04a56.3 56.3 0 0 1-13.602 1.636c-8.556 0-15.037-2.374-19.444-7.16-4.407-4.766-6.621-11.766-6.621-20.98s2.293-15.656 6.88-20.622c4.586-4.946 10.948-7.438 19.106-7.438 5.584 0 11.407 1.316 17.45 3.93l3.031-7c-6.162-2.672-12.823-4.029-19.963-4.029s-13.203 1.416-18.468 4.228c-5.245 2.813-9.274 6.9-12.065 12.245s-4.188 11.568-4.188 18.668c0 11.088 2.832 19.723 8.476 25.866 5.644 6.163 13.54 9.234 23.672 9.234 4.827 0 9.074-.299 12.744-.877a72.316 72.316 0 0 0 10.81-2.613V162.89h-22.775v7.1z" fill="#706f6f"/></svg>