<svg width="800" height="320" xmlns:xlink="http://www.w3.org/1999/xlink" xmlns="http://www.w3.org/2000/svg"><defs><linearGradient id="a" x1="520.26" y1="490.3" x2="756.55" y2="722.18" gradientUnits="userSpaceOnUse"><stop offset="0" stop-color="#f71818"/><stop offset=".11" stop-color="#f9441b"/><stop offset=".33" stop-color="#fb7b1e"/><stop offset=".72" stop-color="#fec600"/><stop offset=".8" stop-color="#fec902"/><stop offset=".87" stop-color="#fed509"/><stop offset=".94" stop-color="#fee716"/><stop offset="1" stop-color="#ffff25"/></linearGradient><linearGradient id="c" x1="246.25" y1="157.57" x2="519.96" y2="157.57" gradientUnits="userSpaceOnUse"><stop offset="0" stop-color="#ffff25"/><stop offset=".06" stop-color="#fee716"/><stop offset=".13" stop-color="#fed509"/><stop offset=".2" stop-color="#fec902"/><stop offset=".28" stop-color="#fec600"/><stop offset=".67" stop-color="#fb7b1e"/><stop offset=".89" stop-color="#f9441b"/><stop offset="1" stop-color="#f71818"/></linearGradient><linearGradient id="d" x1="270.92" y1="323.15" x2="602.78" y2="323.15" xlink:href="#a"/><linearGradient id="e" x1="660.32" y1="188.74" x2="501.85" y2="606.8" xlink:href="#a"/><linearGradient xlink:href="#a" id="b" gradientUnits="userSpaceOnUse" x1="520.26" y1="490.3" x2="756.55" y2="722.18"/></defs><path d="M0 0h800v320H0Z" fill="#fff" image-rendering="optimizeQuality" shape-rendering="geometricPrecision" style="clip-rule:evenodd;fill-rule:evenodd;stroke-width:1;stroke-linejoin:round;stroke-miterlimit:2"/><path d="M312.144 231.301v4.289c0 .924-.082 1.513-.25 1.767-.255.673-3.679 5.864-10.28 15.573-22.826 31.99-34.239 48.406-34.239 49.245h43.005c1.178 0 1.764.758 1.764 2.272v12.8c0 1.513-.755 2.272-2.268 2.272h-66.332c-1.178 0-1.767-.59-1.767-1.767v-8.008c1.134-2.271 15.617-23.139 43.443-62.613v-.758h-39.912c-1.683 0-2.522-.84-2.522-2.522v-12.547c0-1.513.758-2.271 2.271-2.271h64.819c1.513 0 2.268.758 2.268 2.271zM329.894 228.904h58.807c.25 0 .504.254.755.759v16.203c0 .21-.25.463-.755.758h-58.807c-.25 0-.504-.254-.755-.758v-16.203c0-.254.251-.505.755-.759zm0 36.32h58.807c.25 0 .504.253.755.758v16.203c0 .253-.25.504-.755.758h-58.807c-.25 0-.504-.254-.755-.758v-16.203c0-.21.251-.461.755-.759zm0 36.635h58.807c.25 0 .504.232.755.692v16.203c0 .254-.25.505-.755.758h-58.807c-.25 0-.504-.253-.755-.758v-16.203c0-.21.251-.442.755-.692zM406.022 229.095h16.457c.21 0 .442.254.693.759v51.83c0 10.801 5.422 17.509 16.268 20.112 1.514.17 2.964.254 4.352.254h.25c11.097 0 17.97-5.401 20.62-16.203.126-1.892.189-3.28.189-4.16v-51.83c0-.254.254-.505.758-.758h16.203c.25 0 .504.253.755.758v49.182c0 17.528-7.356 29.887-22.068 37.074-5.044 2.272-10.614 3.406-16.71 3.406-16.394 0-28.186-7.754-35.373-23.268-2.102-4.499-3.152-12.253-3.152-23.268v-43.13c0-.253.25-.504.755-.758zM529.954 229.976v13.81c-.253.463-.482.695-.695.695h-.25c-2.228 0-4.205.147-5.928.442-6.977 1.557-10.467 4.727-10.467 9.52v1.2c0 5.213 7.356 8.45 22.068 9.709 19.968 2.647 29.95 11.52 29.95 26.61 0 3.32-.63 6.726-1.893 10.213-5.673 11.56-16.835 17.34-33.48 17.34-8.324 0-15.68-1.428-22.068-4.288-7.4-4.12-12.315-9.646-14.756-16.583 1.094-.84 5.611-3.298 13.556-7.377.464 0 .696.147.696.441 4.204 8.07 11.012 12.106 20.429 12.106h3.784c1.344 0 2.773-.063 4.286-.188 8.24-1.933 12.36-5.191 12.36-9.775v-3.342c0-3.531-3.406-6.451-10.217-8.766-10.423-1.429-18.18-2.857-23.268-4.289-12.19-3.994-18.286-11.579-18.286-22.763 0-3.572.78-7.062 2.334-10.467 6.178-9.962 16.479-14.944 30.896-14.944.63.085.946.317.946.696z"/><path style="fill:url(#b)" d="m549.95 611.55 193.85 74.11-200.99-265.34-64.96 102.95z" transform="matrix(.31328 0 0 .31328 234.033 -5.363)"/><path style="fill:url(#c)" d="M464.6 98.82 261.13 25l206.61 265.15 67.09-101.57z" transform="matrix(.31328 0 0 .31328 234.033 -5.363)"/><path d="M464.31 370.64c107.21-63.12 143.99-140.02 137.81-218.53-68.53-40.07-137.81-53.35-137.81-53.35s78.27 106.08-29.87 174.05C326.3 340.78 237.73 369.62 283.05 455.1c19.17 36.17 64.71 67.88 110.87 92.46-10.37-52.17-9.12-130.1 70.39-176.91z" style="fill:url(#d)" transform="matrix(.31328 0 0 .31328 234.033 -5.363)"/><path d="M733.27 257.27c-25.61-41.68-63.76-72.5-102.15-94.95 6.18 78.51-30.6 155.42-137.81 218.53-79.51 46.81-80.77 124.75-70.39 176.91 62.94 33.53 127.04 53.78 127.04 53.78s-85.48-97.84 18.54-168.9c104.02-71.06 217.31-99.9 164.78-185.38z" style="fill:url(#e)" transform="matrix(.31328 0 0 .31328 234.033 -5.363)"/></svg>