<svg xmlns="http://www.w3.org/2000/svg" xml:space="preserve" id="svg2" version="1.1" viewBox="0 0 800 320"><defs id="defs1"><clipPath id="A"><use id="use1" href="#B"/></clipPath><clipPath id="clipPath720"><path id="path722" d="M161.41 202.283h25.996v-6.039H161.41v6.039z"/></clipPath><clipPath id="clipPath788"><path id="path790" d="M266.177 70.61h26.644v-5.822h-26.644v5.823z"/></clipPath><clipPath id="clipPath1034"><path id="path1036" d="M188.21 198.832h18.847v-6.47h-18.846v6.47z"/></clipPath><clipPath id="clipPath720-5"><path id="path722-1" d="M161.41 202.283h25.996v-6.039H161.41v6.039z"/></clipPath><clipPath id="clipPath788-1"><path id="path790-5" d="M266.177 70.61h26.644v-5.822h-26.644v5.823z"/></clipPath><clipPath id="clipPath1034-2"><path id="path1036-7" d="M188.21 198.832h18.847v-6.47h-18.846v6.47z"/></clipPath><clipPath id="clipPath6810"><path id="path6812" d="M.03 841.915h594.99V.055H.03v841.86z"/></clipPath><clipPath id="clipPath6948"><path id="path6950" d="M.03 841.915h594.99V.055H.03v841.86z"/></clipPath><clipPath id="clipPath7742"><path id="path7744" d="M.03 841.915h594.99V.055H.03v841.86z"/></clipPath><clipPath id="clipPath6810-7"><path id="path6812-9" d="M.03 841.915h594.99V.055H.03v841.86z"/></clipPath><clipPath id="clipPath6948-3"><path id="path6950-1" d="M.03 841.915h594.99V.055H.03v841.86z"/></clipPath><clipPath id="clipPath7742-9"><path id="path7744-8" d="M.03 841.915h594.99V.055H.03v841.86z"/></clipPath><linearGradient id="linearGradient22" x1=".09" x2=".91" y1="0" y2="0" gradientTransform="matrix(-189.61458 -483.51719 497.89435 -195.25268 297.857 759.148)" gradientUnits="userSpaceOnUse" spreadMethod="pad"><stop id="stop24" offset="0" style="stop-color:#fff484;stop-opacity:1"/><stop id="stop26" offset="1" style="stop-color:#7fb879;stop-opacity:1"/></linearGradient><linearGradient id="linearGradient40" x1=".02" x2=".98" y1="0" y2="0" gradientTransform="matrix(530.59306 596.13691 -595.63487 530.14621 378.365 -252.662)" gradientUnits="userSpaceOnUse" spreadMethod="pad"><stop id="stop42" offset="0" style="stop-color:#fe0;stop-opacity:1"/><stop id="stop44" offset="1" style="stop-color:#7fb879;stop-opacity:1"/></linearGradient><linearGradient id="linearGradient736" x1=".02" x2=".98" y1="0" y2="0" gradientTransform="matrix(530.59306 596.13691 -595.63487 530.14621 378.365 -252.662)" gradientUnits="userSpaceOnUse" spreadMethod="pad"><stop id="stop738" offset="0" style="stop-color:#fff69c;stop-opacity:1"/><stop id="stop740" offset="1" style="stop-color:#c3dbbc;stop-opacity:1"/></linearGradient><linearGradient id="linearGradient804" x1=".02" x2=".98" y1="0" y2="0" gradientTransform="matrix(530.59306 596.13691 -595.63487 530.14621 378.365 -252.662)" gradientUnits="userSpaceOnUse" spreadMethod="pad"><stop id="stop806" offset="0" style="stop-color:#fff7b2;stop-opacity:1"/><stop id="stop808" offset="1" style="stop-color:#cfe2c9;stop-opacity:1"/></linearGradient><linearGradient id="linearGradient858" x1=".02" x2=".98" y1="0" y2="0" gradientTransform="matrix(1.11577 -13.51781 9.8591 .81378 269.224 226.23)" gradientUnits="userSpaceOnUse" spreadMethod="pad"><stop id="stop860" offset="0" style="stop-color:#a7497f;stop-opacity:1"/><stop id="stop862" offset="1" style="stop-color:#ffd14a;stop-opacity:1"/></linearGradient><linearGradient id="linearGradient880" x1="0" x2="1" y1="0" y2="0" gradientTransform="matrix(0 11.8182 -8.57027 0 286.541 214.523)" gradientUnits="userSpaceOnUse" spreadMethod="pad"><stop id="stop882" offset="0" style="stop-color:#a7497f;stop-opacity:1"/><stop id="stop884" offset="1" style="stop-color:#ffd14a;stop-opacity:1"/></linearGradient><linearGradient id="linearGradient902" x1=".02" x2=".98" y1="0" y2="0" gradientTransform="matrix(1.11575 -13.51753 9.85741 .81364 163.048 215.035)" gradientUnits="userSpaceOnUse" spreadMethod="pad"><stop id="stop904" offset="0" style="stop-color:#fff;stop-opacity:1"/><stop id="stop906" offset="1" style="stop-color:#434342;stop-opacity:1"/></linearGradient><linearGradient id="linearGradient924" x1="0" x2="1" y1="0" y2="0" gradientTransform="matrix(0 11.8182 -8.56913 0 180.364 203.328)" gradientUnits="userSpaceOnUse" spreadMethod="pad"><stop id="stop926" offset="0" style="stop-color:#fff;stop-opacity:1"/><stop id="stop928" offset="1" style="stop-color:#434342;stop-opacity:1"/></linearGradient><linearGradient id="linearGradient946" x1=".28" x2=".72" y1="0" y2="0" gradientTransform="matrix(1.04608 -12.67312 9.79017 .80811 401.11 152.189)" gradientUnits="userSpaceOnUse" spreadMethod="pad"><stop id="stop948" offset="0" style="stop-color:#a2daf8;stop-opacity:1"/><stop id="stop950" offset="1" style="stop-color:#ffcd00;stop-opacity:1"/></linearGradient><linearGradient id="linearGradient968" x1=".3" x2=".7" y1="0" y2="0" gradientTransform="matrix(-.10913 11.89622 -8.67677 -.07959 418.465 140.902)" gradientUnits="userSpaceOnUse" spreadMethod="pad"><stop id="stop970" offset="0" style="stop-color:#a2daf8;stop-opacity:1"/><stop id="stop972" offset="1" style="stop-color:#ffcd00;stop-opacity:1"/></linearGradient><linearGradient id="linearGradient990" x1=".02" x2=".98" y1="0" y2="0" gradientTransform="matrix(1.11577 -13.51781 9.8591 .81378 314.596 234.699)" gradientUnits="userSpaceOnUse" spreadMethod="pad"><stop id="stop992" offset="0" style="stop-color:#a7497f;stop-opacity:1"/><stop id="stop994" offset="1" style="stop-color:#ffd14a;stop-opacity:1"/></linearGradient><linearGradient id="linearGradient1012" x1="0" x2="1" y1="0" y2="0" gradientTransform="matrix(0 11.81764 -8.57027 0 331.913 222.992)" gradientUnits="userSpaceOnUse" spreadMethod="pad"><stop id="stop1014" offset="0" style="stop-color:#a7497f;stop-opacity:1"/><stop id="stop1016" offset="1" style="stop-color:#ffd14a;stop-opacity:1"/></linearGradient><path id="B" d="M100.3-65.5h594.1v594.1H100.3Z"/></defs><path id="path1" fill="#fff" d="M.32.48h800v320H.32Z" style="fill:none"/><style id="style1" type="text/css">.st0{fill-rule:evenodd;clip-rule:evenodd;fill:#e3131e}.st1{display:none;fill:#858b95;enable-background:new}.st2{font-family:&quot;DBSansAlternate-BoldItalic&quot;}.st3{font-size:73.0039px}.st4{enable-background:new}.st5{fill:#858b95}.st6{display:none}.st7,.st8{display:inline}.st8{fill:#858b95}.st9{font-size:54.841px}.st10{display:inline;enable-background:new}</style><path id="path1-8" fill="#e33c3e" d="m245.832 70.515-37.453 40.83c10.158 14.22 15.72 31.152 15.72 48.983 0 22.618-8.807 43.886-24.813 59.89-15.994 15.992-37.263 24.812-59.88 24.812-22.632 0-43.903-8.82-59.894-24.812-16.007-16.006-24.814-37.273-24.814-59.89 0-46.188 37.193-83.842 83.208-84.647l44.011-48.003c-13.58-4.349-27.854-6.748-42.51-6.748C62.539 20.93 0 83.465 0 160.327c0 37.232 14.494 72.242 40.82 98.567 26.341 26.325 61.34 40.83 98.588 40.83 37.235 0 72.247-14.505 98.56-40.83 26.341-26.325 40.833-61.335 40.833-98.567 0-33.278-11.698-64.702-32.967-89.814m-46.41-40.79v-.178l-96.896 105.492h64.952L264.077 29.72M379.08 180.235h76.323c10.484 0 31.808 1.445 31.808 31.15.01 36.21-25.441 36.932-42.279 36.932H379.08Zm0-105.397h66.601c19.456 0 34.795 7.239 34.795 30.061 0 21.009-13.839 30.062-37.793 30.062H379.08Zm-56.131 218.757h123.114c17.206 0 47.515-2.536 66.234-18.105 24.309-20.285 28.426-42.004 28.426-55.772 0-31.506-16.47-54.696-32.557-66.652 19.837-15.923 25.81-38.39 25.81-54.328 0-10.865-5.236-69.174-98.397-69.174H322.95m315.407 150.665h76.336c10.472 0 31.809 1.445 31.809 31.151 0 36.21-25.454 36.931-42.293 36.931h-65.852zm0-105.397h66.601c19.455 0 34.795 7.24 34.795 30.062 0 21.008-13.839 30.061-37.793 30.061h-63.603zM582.239 293.59h123.087c17.219 0 47.528-2.536 66.248-18.105C795.883 255.199 800 233.48 800 219.712c0-31.505-16.47-54.696-32.557-66.652 19.837-15.923 25.81-38.39 25.81-54.327 0-10.866-5.236-69.175-98.396-69.175h-112.63" style="stroke-width:1"/></svg>