<svg viewBox="0 0 800 320" version="1.1" id="svg2" xml:space="preserve" xmlns:xlink="http://www.w3.org/1999/xlink" xmlns="http://www.w3.org/2000/svg"><defs id="defs1"><path id="B" d="M100.3-65.5h594.1v594.1H100.3z"/><path id="SVGID_1_" d="M97.97 68.4c0 7.41 6.04 13.42 13.49 13.42s13.48-6.01 13.48-13.42-6.04-13.42-13.48-13.42c-7.45 0-13.49 6-13.49 13.42"/><path id="SVGID_00000044898771460269573090000010456118392746125217_" d="M120.62 68.4c0 7.41 6.04 13.42 13.49 13.42s13.49-6.01 13.49-13.42-6.04-13.42-13.49-13.42-13.49 6-13.49 13.42"/><path id="SVGID_00000127743730624216497450000002043249572621365943_" d="M143.27 68.4c0 7.41 6.04 13.42 13.48 13.42 7.45 0 13.48-6.01 13.48-13.42s-6.04-13.42-13.48-13.42-13.48 6-13.48 13.42"/><path id="SVGID_00000162329239644862310090000004140755303673011123_" d="M165.92 68.4c0 7.41 6.04 13.42 13.48 13.42 7.45 0 13.49-6.01 13.49-13.42s-6.04-13.42-13.49-13.42c-7.44 0-13.48 6-13.48 13.42"/><path id="SVGID_00000079476757253046130470000001117058738893821098_" d="M188.57 68.4c0 7.41 6.04 13.42 13.49 13.42s13.49-6.01 13.49-13.42-6.04-13.42-13.49-13.42-13.49 6-13.49 13.42"/><path id="SVGID_00000132771776994441339210000010272632559138794632_" d="M211.22 68.4c0 7.41 6.04 13.42 13.49 13.42s13.48-6.01 13.48-13.42-6.04-13.42-13.48-13.42c-7.45 0-13.49 6-13.49 13.42"/><clipPath id="A"><use href="#B" id="use1"/></clipPath></defs><path d="M0 0h800v320H0z" fill="#fff" id="path1" style="fill:none"/><style type="text/css" id="style1">.st0{fill:#9d9c9b}</style><g id="g64" transform="matrix(2.45794 0 0 2.45795 86.466 -14.182)" style="stroke-width:.406845"><g id="g60" style="stroke-width:.406845"><g id="g29" style="stroke-width:.406845"><g id="g2" style="stroke-width:.406845"><path class="st0" d="m103.34 109.96-1.18 3.77h-1.75l4.2-12.59h2.07l4.2 12.59h-2.08l-1.21-3.77zm3.88-1.27-1.7-5.73-1.75 5.73z" id="path1-0" style="stroke-width:.406845"/><path class="st0" d="M110.96 113.78h-2.18l-.01-.04-1.2-3.73h-4.18l-1.18 3.77h-1.86l.02-.07 4.22-12.62h2.14l.01.03zm-2.11-.1h1.97l-4.17-12.48h-1.99l-4.17 12.48h1.64l1.18-3.77h4.33l.01.04zm-1.56-4.94h-3.59l.02-.07 1.8-5.9.05.16zm-3.46-.1h3.32l-1.63-5.5z" id="path2" style="stroke-width:.406845"/></g><g id="g4" style="stroke-width:.406845"><path class="st0" d="M114.43 106.95c.74-1.4 1.69-2.1 2.86-2.1.67.01 1.2.21 1.6.6.4.39.62.93.65 1.6.01.13.01.38.01.74v5.94h-1.88v-5.81c-.01-.23-.02-.46-.05-.67-.08-.66-.42-.99-1.02-1.01-.52.01-1 .28-1.43.82-.35.43-.58.94-.7 1.52-.04.16-.06.34-.08.53l-.03.47-.02.45v3.7h-1.88v-8.69h1.78v2.3z" id="path3" style="stroke-width:.406845"/><path class="st0" d="M119.6 113.78h-1.98v-5.86c-.01-.23-.02-.45-.05-.66-.08-.63-.4-.95-.97-.97-.5.01-.97.28-1.39.8-.35.42-.58.93-.69 1.5-.03.16-.06.33-.08.52l-.03.46-.02.45v3.75h-1.98v-8.79h1.88v2.12l.09-.19c.75-1.41 1.72-2.13 2.91-2.13.68.01 1.23.21 1.64.61.41.4.63.95.67 1.63.01.13.01.38.01.75v6.01zm-1.88-.1h1.78v-5.89c0-.36 0-.61-.01-.74-.03-.66-.25-1.18-.64-1.57-.39-.38-.92-.58-1.57-.59-1.14.01-2.09.7-2.82 2.08l-.28.59v-2.47h-1.68v8.58h1.78v-3.65l.02-.45.03-.47c.02-.19.05-.37.08-.53.11-.59.35-1.11.71-1.54.44-.55.94-.84 1.47-.84.62.02.99.37 1.07 1.06.03.22.05.44.05.68v5.75z" id="path4" style="stroke-width:.406845"/></g><g id="g6" style="stroke-width:.406845"><path class="st0" d="M126.5 106.54c-.54-.35-1.06-.56-1.58-.63-.09-.01-.18-.02-.27-.02-.81.01-1.2.31-1.2.92.01.36.13.65.37.85.12.11.31.24.57.38.17.1.41.24.72.43s.59.37.85.54c.37.25.66.5.87.76.18.23.33.53.42.9.06.23.09.45.09.68 0 .89-.35 1.57-1.05 2.04-.52.36-1.28.54-2.28.55-.65 0-1.29-.08-1.92-.24l-.37-.1v-1.7l.25.19c.19.14.44.28.73.42.33.17.63.28.92.33.14.04.3.05.49.04.79.02 1.28-.27 1.47-.86.03-.1.04-.19.04-.27-.01-.45-.34-.88-.97-1.27l-.76-.48-.96-.59c-.32-.2-.59-.45-.8-.75a2.014 2.014 0 0 1-.43-1.31c.01-.81.28-1.42.8-1.84.52-.42 1.26-.63 2.22-.64.29.01.59.03.9.07.24.04.54.09.89.18l.26.06v1.57z" id="path5" style="stroke-width:.406845"/><path class="st0" d="M124.01 113.98c-.65 0-1.3-.08-1.94-.24l-.4-.11v-1.84l.33.25c.19.14.43.28.72.41.32.16.63.27.91.33.14.04.3.05.48.04h.07c.73 0 1.17-.27 1.35-.82.03-.09.04-.18.04-.25-.01-.43-.33-.84-.95-1.23l-.76-.48-.96-.59c-.33-.21-.6-.46-.82-.77-.21-.27-.34-.56-.39-.86-.04-.14-.05-.3-.04-.48.01-.82.29-1.45.82-1.88.53-.42 1.29-.64 2.25-.65.29.01.59.03.91.07.25.04.55.1.89.18l.3.07v1.71l-.36-.25c-.53-.35-1.05-.56-1.55-.63-.09-.01-.18-.02-.26-.02-.44 0-.76.1-.95.29-.14.14-.2.34-.2.58.01.35.12.62.35.81.12.11.31.24.56.38.17.1.41.24.72.43.3.18.58.36.85.54.37.25.67.51.88.77.19.24.33.55.43.91.06.23.09.46.09.69 0 .9-.36 1.6-1.07 2.08-.52.36-1.3.55-2.3.56zm-2.24-.43.33.09c.63.16 1.27.24 1.91.24.98-.01 1.74-.19 2.25-.54.68-.46 1.03-1.13 1.03-2 0-.22-.03-.45-.09-.67-.09-.35-.23-.65-.41-.88-.2-.25-.49-.5-.86-.75-.26-.18-.55-.36-.84-.54-.31-.19-.55-.33-.72-.43-.26-.14-.46-.27-.58-.39-.25-.21-.38-.51-.38-.89 0-.28.07-.5.23-.65.2-.21.55-.31 1.02-.32.08 0 .18.01.27.02.52.07 1.06.29 1.6.64l.2.14v-1.44l-.22-.05c-.34-.08-.63-.14-.88-.18-.31-.04-.61-.07-.9-.07-.94.01-1.68.22-2.19.63-.51.41-.77 1.01-.78 1.8-.01.17.01.33.04.46.05.29.18.57.38.82.21.29.48.54.79.74l.96.59.76.48c.65.4.99.84 1 1.31 0 .09-.01.18-.05.29-.19.59-.67.9-1.45.9h-.15c-.16 0-.3-.02-.43-.05-.29-.05-.6-.17-.93-.34-.3-.14-.55-.28-.74-.42l-.17-.13z" id="path6" style="stroke-width:.406845"/></g><g id="g8" style="stroke-width:.406845"><path class="st0" d="M131.13 105.99c.17-.23.36-.43.57-.59.48-.38 1.04-.56 1.66-.56 2.1.01 3.16 1.52 3.18 4.54-.02 1.97-.59 3.32-1.72 4.03-.35.23-.71.37-1.08.43-.29.06-.61.09-.95.08-.44.01-.85-.03-1.23-.12-.89-.17-1.57-.65-2.01-1.44-.29-.53-.45-1.35-.47-2.49l-.01-.72v-8.01h1.88v5.1zm3.44 3.38c-.02-.86-.1-1.52-.24-1.99-.07-.25-.18-.5-.34-.73-.32-.49-.72-.73-1.19-.72-.54.01-.95.25-1.23.74-.14.21-.24.45-.3.72-.1.32-.15.65-.17.99-.02.34-.03.73-.02 1.16-.01.94.05 1.68.18 2.2.23.93.71 1.4 1.46 1.4.98-.02 1.57-.81 1.76-2.36.06-.51.09-.98.09-1.41z" id="path7" style="stroke-width:.406845"/><path class="st0" d="M132.9 113.98h-.18c-.4 0-.79-.04-1.16-.12-.91-.18-1.59-.67-2.05-1.46-.3-.53-.46-1.38-.48-2.51l-.01-.73v-8.07H131v4.99l.09-.12c.17-.24.37-.44.58-.6.48-.37 1.04-.57 1.67-.57h.03c2.12.01 3.21 1.55 3.24 4.59-.02 1.98-.6 3.36-1.74 4.08a2.8 2.8 0 0 1-1.1.44c-.27.05-.57.08-.87.08zm-.1-.11h.09c.3 0 .58-.03.85-.08.37-.06.73-.2 1.06-.42 1.11-.7 1.68-2.04 1.7-3.99-.02-2.96-1.08-4.47-3.13-4.48h-.03c-.6 0-1.14.18-1.6.54-.21.16-.4.35-.56.58l-.27.38v-5.21h-1.78v7.96l.01.72c.02 1.12.18 1.95.47 2.46.44.77 1.1 1.25 1.98 1.42.36.08.74.12 1.14.12zm-.09-.68c-.77-.01-1.28-.49-1.51-1.44-.12-.53-.19-1.27-.18-2.21-.01-.44 0-.83.02-1.17.02-.34.08-.68.18-1 .06-.27.16-.51.3-.73.29-.5.72-.76 1.28-.77h.01c.48 0 .89.25 1.22.75.16.24.27.5.35.75.14.47.23 1.15.24 2.01 0 .44-.03.91-.1 1.41-.19 1.57-.8 2.38-1.81 2.4zm.1-7.22h-.01c-.52.01-.92.25-1.19.72-.13.21-.23.44-.29.7-.09.32-.15.65-.17.98-.02.33-.03.72-.02 1.16-.01.93.05 1.67.18 2.19.22.91.68 1.36 1.41 1.37.95-.02 1.53-.8 1.71-2.32.06-.5.1-.97.1-1.4-.02-.85-.1-1.52-.24-1.98-.07-.24-.18-.49-.33-.72-.32-.46-.71-.7-1.15-.7z" id="path8" style="stroke-width:.406845"/></g><g id="g10" style="stroke-width:.406845"><path class="st0" d="M142.79 112.74c-.24.34-.6.63-1.07.87-.43.21-.87.32-1.32.31-.66 0-1.2-.2-1.64-.6-.47-.42-.7-.95-.71-1.58-.01-1.46 1.01-2.35 3.06-2.68.45-.08.94-.13 1.45-.16l.35-.02v-.95l-.02-.63c-.04-1.09-.46-1.65-1.25-1.67-.76 0-1.19.49-1.29 1.46l-.03.4h-1.99c.01-.21.02-.37.04-.47.16-1.15.89-1.84 2.17-2.07.38-.07.77-.11 1.18-.11.43 0 .84.05 1.23.14 1.17.27 1.78 1.06 1.82 2.37.01.2.01.46.01.76v5.61h-1.88v-1.16zm.11-3.07-.31.02c-1.36.14-2.17.55-2.44 1.25-.08.19-.12.39-.12.61-.01.18.02.37.09.55.16.53.5.79 1 .77.39 0 .75-.16 1.06-.47.42-.41.66-1 .7-1.75l.02-.64z" id="path9" style="stroke-width:.406845"/><path class="st0" d="M140.43 113.98h-.04c-.66 0-1.23-.21-1.67-.61-.47-.43-.72-.97-.72-1.62-.01-1.48 1.04-2.4 3.1-2.73.45-.08.94-.13 1.45-.16l.3-.02v-.9l-.02-.63c-.04-1.07-.43-1.6-1.2-1.62-.74 0-1.14.46-1.24 1.41l-.04.45h-2.09v-.05c.01-.21.02-.37.04-.48.16-1.17.91-1.88 2.22-2.11.38-.07.78-.11 1.19-.11.43 0 .85.05 1.25.15 1.19.28 1.82 1.09 1.86 2.42.01.2.01.46.01.76v5.66h-1.98v-1.04l-.02.03c-.25.35-.62.64-1.09.89-.43.2-.87.31-1.31.31zm1.2-8.4c.82.02 1.26.6 1.3 1.72l.02.63v1l-.4.02c-.51.03-.99.08-1.44.16-2.01.33-3.02 1.21-3.02 2.63 0 .62.24 1.14.69 1.55.42.39.96.59 1.6.59h.04c.43 0 .86-.1 1.26-.31.46-.23.82-.52 1.06-.85l.21-.32v1.28h1.78v-5.56c0-.3 0-.56-.01-.76-.04-1.27-.64-2.06-1.79-2.32-.75-.18-1.62-.18-2.39-.04-1.26.22-1.98.9-2.13 2.02-.02.1-.03.24-.03.42h1.89l.03-.36c.09-.99.54-1.5 1.33-1.5zm-.56 7.34c-.5 0-.84-.27-1-.81-.07-.19-.1-.38-.09-.57-.01-.22.03-.43.12-.63.27-.71 1.11-1.14 2.48-1.28l.37-.02-.03 1.03c-.04.77-.28 1.37-.71 1.79-.32.32-.68.49-1.09.49h-.05zm1.78-3.2-.26.01c-1.33.13-2.14.54-2.4 1.22-.08.19-.12.38-.11.59-.01.18.02.36.09.54.15.5.45.74.91.74h.05c.38 0 .72-.15 1.02-.46.41-.4.64-.98.68-1.72z" id="path10" style="stroke-width:.406845"/></g><g id="g12" style="stroke-width:.406845"><path class="st0" d="M151.47 107.87v-.21c-.01-1.35-.42-2.03-1.22-2.02-.57-.01-1.01.34-1.31 1.05-.2.46-.3 1.04-.3 1.74.01 1.2.23 2.17.67 2.92.61 1.04 1.42 1.55 2.44 1.53.44.01.86-.06 1.27-.19l.29-.1v.89l-.38.14c-.6.21-1.24.31-1.94.3-.87-.02-1.54-.13-2.01-.35-1.14-.5-1.87-1.51-2.18-3.01-.1-.45-.15-.95-.14-1.49.01-1.13.21-2.02.63-2.68.45-.76 1.1-1.23 1.94-1.42.35-.08.72-.12 1.11-.12.32 0 .62.03.93.08.3.05.59.14.85.27.81.41 1.25 1.17 1.33 2.28.01.09.01.22.01.39z" id="path11" style="stroke-width:.406845"/><path class="st0" d="M151.05 113.98h-.06c-.88-.02-1.56-.14-2.03-.35-1.15-.51-1.89-1.53-2.21-3.05-.1-.45-.15-.96-.14-1.5.01-1.13.22-2.04.63-2.71.46-.77 1.12-1.25 1.97-1.44.62-.14 1.36-.16 2.05-.04.31.05.6.15.87.28.82.41 1.28 1.19 1.36 2.32.01.09.01.22.01.4v.05h-2.09v-.27c-.01-1.33-.39-1.97-1.15-1.97h-.02c-.54 0-.96.34-1.25 1.02-.19.45-.29 1.03-.29 1.72.01 1.18.23 2.16.66 2.89.58 1 1.37 1.5 2.35 1.5h.11c.41 0 .81-.06 1.2-.19l.36-.12v1l-.42.16c-.59.19-1.23.3-1.91.3zm-.72-9.08c-.39 0-.76.04-1.1.12-.82.19-1.46.66-1.91 1.4-.41.65-.61 1.55-.62 2.66-.01.54.04 1.04.14 1.48.31 1.49 1.04 2.49 2.15 2.98.46.21 1.13.33 1.99.34h.06c.67 0 1.3-.1 1.86-.3l.35-.13v-.79l-.23.08c-.4.13-.81.19-1.23.19h-.11c-1.01 0-1.83-.52-2.43-1.55-.44-.75-.67-1.74-.68-2.94 0-.71.1-1.3.3-1.76.31-.72.77-1.08 1.35-1.08h.01c.83 0 1.25.7 1.27 2.07v.16h1.88c0-.15 0-.26-.01-.34-.08-1.09-.52-1.84-1.3-2.24-.26-.13-.54-.22-.84-.27a4.37 4.37 0 0 0-.9-.08z" id="path12" style="stroke-width:.406845"/></g><g id="g14" style="stroke-width:.406845"><path class="st0" d="M157.02 106.95c.33-.67.72-1.18 1.17-1.54.45-.36 1.01-.55 1.69-.56.66.01 1.19.21 1.59.6.4.4.61.93.65 1.6.01.13.01.38.01.74v5.94h-1.88v-5.81c-.01-.23-.02-.46-.05-.67-.08-.66-.42-.99-1.02-1.01-.52.01-1 .28-1.43.82-.35.43-.58.94-.7 1.52-.04.15-.07.33-.08.53l-.03.46c-.02.22-.02.37-.02.46v3.7h-1.88v-12.59h1.82v6.2z" id="path13" style="stroke-width:.406845"/><path class="st0" d="M162.17 113.78h-1.98v-5.86c-.01-.23-.02-.45-.05-.66-.08-.63-.4-.95-.97-.97-.5.01-.97.28-1.39.8-.35.42-.58.93-.69 1.5-.04.15-.07.33-.08.52l-.03.46c-.02.22-.02.37-.02.45v3.76h-1.98v-12.69h1.93v6l.07-.17c.33-.67.73-1.2 1.18-1.56.46-.37 1.04-.56 1.72-.57.67.01 1.22.21 1.62.62.4.4.63.95.66 1.63.01.13.01.38.01.75zm-1.88-.1h1.78v-5.89c0-.36 0-.61-.01-.74-.03-.65-.25-1.18-.63-1.56-.39-.38-.91-.58-1.55-.59-.66.01-1.22.2-1.66.55-.44.35-.83.87-1.15 1.53l-.27.62v-6.39h-1.72v12.48h1.78v-3.65c-.01-.08 0-.24.02-.46l.03-.46c.01-.2.04-.38.08-.54.11-.59.35-1.11.71-1.54.44-.55.94-.84 1.47-.84.62.02.98.37 1.07 1.06.03.22.05.44.05.68z" id="path14" style="stroke-width:.406845"/></g><g id="g16" style="stroke-width:.406845"><path class="st0" d="M166.01 108.75c.01.39.07.77.17 1.15.49 1.96 1.53 2.95 3.11 2.97.42.01.86-.06 1.31-.2l.41-.13v.89c-.24.1-.43.17-.55.21-.45.16-.95.25-1.49.28l-.54.02c-1.07.01-1.97-.25-2.68-.76-.77-.55-1.27-1.33-1.51-2.32a6.73 6.73 0 0 1-.21-1.82c-.01-.36.02-.72.07-1.07.06-.52.22-1 .47-1.46.42-.81 1.09-1.31 1.99-1.51.39-.08.81-.13 1.26-.13 1.04-.01 1.85.26 2.45.82.59.56.9 1.36.92 2.39v.35H166zm3.17-1.29c0-.11 0-.19-.01-.24-.01-.14-.04-.3-.08-.46-.19-.73-.66-1.11-1.41-1.13-.45 0-.82.16-1.13.49-.31.33-.48.69-.51 1.09l-.02.25z" id="path15" style="stroke-width:.406845"/><path class="st0" d="M168.39 113.98c-1.06 0-1.96-.26-2.67-.77-.78-.56-1.29-1.35-1.53-2.35a7.25 7.25 0 0 1-.22-1.84c-.01-.36.02-.72.07-1.07.07-.52.22-1.02.47-1.47.43-.82 1.11-1.34 2.02-1.54.4-.08.82-.13 1.27-.14h.07c1.02 0 1.83.28 2.42.84.6.57.92 1.38.93 2.42v.4h-5.17l.01.29c.01.38.07.77.17 1.14.48 1.93 1.51 2.91 3.07 2.93h.05c.4 0 .82-.07 1.24-.19l.48-.16v.99l-.03.01c-.25.1-.44.17-.56.21-.45.15-.96.25-1.51.28zm-.52-9.08h-.06c-.44.01-.86.05-1.25.13-.88.19-1.54.69-1.95 1.48-.24.45-.4.93-.46 1.44-.05.34-.08.7-.07 1.06-.01.64.07 1.25.21 1.81.23.98.74 1.75 1.49 2.3.69.5 1.57.75 2.61.75h.04l.53-.02c.54-.03 1.04-.12 1.48-.28.12-.03.29-.1.52-.19v-.78l-.34.11c-.43.13-.86.2-1.27.2h-.05c-1.61-.02-2.67-1.03-3.16-3.01-.1-.38-.16-.78-.17-1.16l-.01-.39h5.17v-.3c-.02-1.01-.32-1.8-.9-2.35-.58-.53-1.37-.8-2.36-.8zm1.36 2.61h-3.27l.02-.3c.04-.41.21-.79.53-1.12.32-.33.71-.5 1.17-.5.77.02 1.26.41 1.46 1.16a2.89 2.89 0 0 1 .09.72zm-3.16-.1h3.06c0-.08 0-.14-.01-.18-.01-.14-.04-.29-.08-.45-.19-.71-.63-1.07-1.36-1.09-.43 0-.8.16-1.09.47-.3.32-.47.67-.5 1.06z" id="path16" style="stroke-width:.406845"/></g><g id="g18" style="stroke-width:.406845"><path class="st0" d="M177.22 104.85c.08-.01.2-.02.38-.04v1.95l-.29-.01c-1.51-.02-2.33.76-2.48 2.33l-.03.63v4.02h-1.88v-8.69h1.79v2.21c.68-1.44 1.51-2.24 2.51-2.4z" id="path17" style="stroke-width:.406845"/><path class="st0" d="M174.85 113.78h-1.98v-8.79h1.89v2.04c.66-1.32 1.48-2.07 2.45-2.23.08-.01.21-.02.38-.04h.05v2.06l-.39-.01c-1.46 0-2.24.75-2.38 2.29l-.03.62v4.06zm-1.88-.1h1.78v-3.97l.03-.63c.14-1.58.98-2.38 2.48-2.38l.29.01v-1.84c-.14.01-.25.02-.32.03-.97.16-1.8.96-2.47 2.38l-.1.21v-2.39h-1.69z" id="path18" style="stroke-width:.406845"/></g><g id="g20" style="stroke-width:.406845"><path class="st0" d="M189.21 107.1c1.63.42 2.46 1.48 2.48 3.18 0 .94-.3 1.72-.9 2.33-.6.61-1.36.96-2.29 1.04-.38.04-.79.06-1.25.06l-.98.01h-2.5v-12.59H187.24c1.01.03 1.76.16 2.24.38 1.07.51 1.61 1.36 1.61 2.54-.01.6-.16 1.13-.47 1.61-.33.49-.76.84-1.3 1.05-.19.08-.43.16-.71.24zm-3.45-.73h.37c.24.01.47 0 .68-.01 1.44-.04 2.17-.72 2.19-2.05 0-1.24-.65-1.87-1.94-1.89-.21-.01-.43-.01-.67-.01h-.63zm0 6.09h.65c.23.01.44 0 .63-.01 1.71-.07 2.57-.86 2.58-2.38.01-.72-.21-1.3-.66-1.76-.42-.42-1-.64-1.75-.68-.13-.01-.26-.01-.4-.01l-.55.01-.49.01v4.82z" id="path19" style="stroke-width:.406845"/><path class="st0" d="M186.26 113.78h-2.55v-12.69h3.51c1.02.03 1.78.16 2.26.39 1.09.52 1.64 1.39 1.64 2.59-.01.6-.17 1.15-.48 1.64-.33.5-.78.86-1.32 1.07-.14.06-.32.12-.52.19l.43.09c1.65.42 2.5 1.51 2.52 3.23 0 .95-.31 1.75-.91 2.37-.61.62-1.39.97-2.33 1.05-.37.04-.8.06-1.26.06zm-2.44-.1h2.44l.98-.01c.46 0 .88-.02 1.25-.06.91-.08 1.68-.42 2.26-1.02.59-.6.89-1.37.89-2.3-.02-1.67-.84-2.73-2.44-3.14l-.81-.18.19-.06c.29-.09.52-.16.7-.24.52-.2.95-.54 1.27-1.03.3-.47.46-1 .47-1.58 0-1.15-.53-1.99-1.58-2.49-.47-.22-1.22-.35-2.22-.38h-3.41v12.49zm2.82-1.17H185.71v-4.92l1.09-.02c.14 0 .28 0 .41.01.76.04 1.36.27 1.79.69.46.47.68 1.07.68 1.8-.01 1.55-.89 2.36-2.63 2.43-.13.01-.27.01-.41.01zm-.83-.1h.6c.24.01.44 0 .62-.01 1.7-.07 2.52-.83 2.53-2.33.01-.7-.21-1.28-.65-1.73-.41-.41-.98-.63-1.72-.66-.12-.01-.26-.01-.4-.01l-.99.02v4.72zm.57-5.99H185.71v-4.05h.68c.24 0 .46 0 .67.01 1.32.02 1.99.67 1.99 1.94-.02 1.36-.77 2.06-2.24 2.1h-.43zm-.57-.1h.32c.24.01.47 0 .68-.01 1.43-.04 2.13-.69 2.14-2 0-1.22-.62-1.82-1.89-1.84-.21-.01-.43-.01-.67-.01h-.58z" id="path20" style="stroke-width:.406845"/></g><g id="g22" style="stroke-width:.406845"><path class="st0" d="M198.01 112.74c-.24.34-.6.63-1.07.87-.43.21-.87.32-1.32.31-.66 0-1.2-.2-1.64-.6-.47-.42-.7-.95-.71-1.58-.01-1.46 1.01-2.35 3.06-2.68.45-.08.94-.13 1.45-.16l.35-.02v-.95l-.02-.63c-.04-1.09-.46-1.65-1.25-1.67-.76 0-1.19.49-1.29 1.46l-.03.4h-1.99c.01-.21.02-.37.04-.47.16-1.15.89-1.84 2.17-2.07.38-.07.77-.11 1.18-.11.43 0 .84.05 1.23.14 1.17.27 1.78 1.06 1.82 2.37.01.2.01.46.01.76v5.61h-1.88v-1.16zm-3.81-9.4v-1.85h2v1.85zm3.93 6.33-.31.02c-1.36.14-2.17.55-2.44 1.25-.08.19-.12.39-.12.61-.01.18.02.37.09.55.16.53.5.79 1 .77.39 0 .75-.16 1.06-.47.42-.41.66-1 .7-1.75l.02-.64zm-.38-6.33v-1.85h2v1.85z" id="path21" style="stroke-width:.406845"/><path class="st0" d="M195.65 113.98h-.04c-.66 0-1.23-.21-1.67-.61-.47-.43-.72-.97-.72-1.62-.01-1.48 1.04-2.4 3.1-2.73.45-.08.94-.13 1.45-.16l.3-.02v-.9l-.02-.63c-.04-1.07-.43-1.6-1.2-1.62-.74 0-1.14.46-1.24 1.41l-.04.45h-2.09v-.05c.01-.21.02-.37.04-.48.16-1.17.91-1.88 2.22-2.11.38-.07.78-.11 1.19-.11.43 0 .85.05 1.25.15 1.19.28 1.82 1.09 1.86 2.42.01.2.01.46.01.76v5.66h-1.98v-1.04l-.02.03c-.25.35-.62.64-1.09.89-.42.2-.86.31-1.31.31zm1.21-8.4c.82.02 1.26.6 1.3 1.72l.02.63v1l-.4.02c-.51.03-.99.08-1.44.16-2.01.33-3.02 1.21-3.02 2.63 0 .62.24 1.14.69 1.55.42.39.96.59 1.6.59h.04c.43 0 .86-.1 1.26-.31.46-.23.82-.52 1.06-.85l.21-.32v1.28h1.78v-5.56c0-.3 0-.56-.01-.76-.04-1.27-.64-2.06-1.79-2.32-.39-.09-.8-.14-1.22-.14-.4 0-.79.04-1.17.11-1.26.22-1.98.9-2.13 2.02-.02.1-.03.24-.03.42h1.89l.03-.36c.09-1 .54-1.51 1.33-1.51zm-.56 7.34c-.5 0-.84-.27-1-.81-.07-.19-.1-.38-.09-.57-.01-.22.03-.43.12-.63.27-.71 1.11-1.14 2.48-1.28l.37-.02-.03 1.03c-.04.77-.28 1.37-.71 1.79-.32.32-.68.49-1.09.49h-.05zm1.78-3.2-.26.01c-1.33.13-2.14.54-2.4 1.22-.08.19-.12.38-.11.59-.01.18.02.36.09.54.15.5.45.74.91.74h.05c.38 0 .72-.15 1.02-.46.41-.4.64-.98.68-1.72zm1.73-6.33h-2.11v-1.95h2.11zm-2-.1h1.9v-1.75h-1.9zm-1.55.1h-2.11v-1.95h2.11zm-2.01-.1h1.9v-1.75h-1.9z" id="path22" style="stroke-width:.406845"/></g><g id="g24" style="stroke-width:.406845"><path class="st0" d="M207.5 101.14h1.88v12.59h-1.85v-1.41l-.21.32c-.58.86-1.37 1.29-2.36 1.29-2.01.02-3.03-1.52-3.06-4.62.01-2.41.77-3.85 2.3-4.31.3-.1.63-.14.99-.14.94-.01 1.66.37 2.16 1.15l.15.25zm-3.61 8.25c0 .34.02.71.06 1.12.02.32.07.62.14.89s.18.52.33.75c.29.5.7.74 1.24.72 1.17.01 1.75-1.12 1.75-3.37 0-.41-.01-.77-.04-1.09-.12-1.65-.69-2.49-1.72-2.5-.75.02-1.26.5-1.52 1.45-.1.3-.16.61-.19.9-.03.36-.06.74-.05 1.13z" id="path23" style="stroke-width:.406845"/><path class="st0" d="M204.93 113.98c-2.01 0-3.04-1.57-3.07-4.67.01-2.42.79-3.89 2.33-4.36.31-.1.65-.15 1.01-.15h.04c.93 0 1.65.39 2.16 1.17l.06.1v-4.97h1.98v12.69h-1.95v-1.29l-.11.17c-.59.87-1.39 1.31-2.4 1.31zm.31-9.08h-.04c-.35 0-.68.05-.98.14-1.5.45-2.26 1.89-2.26 4.26.03 3.03 1.03 4.57 2.97 4.57h.03c.97 0 1.75-.43 2.32-1.27l.3-.47v1.54h1.75v-12.48h-1.78v5.23l-.25-.41c-.47-.74-1.17-1.11-2.06-1.11zm.37 8.02c-.53 0-.95-.25-1.23-.75-.15-.23-.26-.48-.34-.76-.07-.28-.12-.58-.14-.9-.04-.4-.06-.78-.06-1.12-.01-.39.02-.77.07-1.14.03-.3.09-.61.19-.91.27-.97.8-1.47 1.57-1.48 1.05.02 1.65.88 1.77 2.55.02.32.04.69.04 1.1 0 2.27-.6 3.42-1.8 3.42-.03-.01-.05-.01-.07-.01zm.06-6.97c-.72.02-1.22.49-1.47 1.41-.09.3-.16.6-.19.89-.05.37-.08.75-.07 1.13 0 .34.02.71.06 1.11.02.32.07.61.14.88s.18.51.32.73c.28.49.67.72 1.2.7 1.14 0 1.71-1.12 1.71-3.32 0-.4-.01-.77-.04-1.09-.11-1.59-.67-2.42-1.66-2.44z" id="path24" style="stroke-width:.406845"/></g><g id="g26" style="stroke-width:.406845"><path class="st0" d="M213.25 108.75c.01.39.07.77.17 1.15.49 1.96 1.53 2.95 3.11 2.97.42.01.86-.06 1.31-.2l.41-.13v.89c-.24.1-.43.17-.55.21-.45.16-.95.25-1.49.28l-.54.02c-1.07.01-1.97-.25-2.68-.76-.77-.55-1.27-1.33-1.51-2.32a6.73 6.73 0 0 1-.21-1.82c-.01-.36.02-.72.07-1.07.06-.52.22-1 .47-1.46.42-.81 1.09-1.31 1.99-1.51.39-.08.81-.13 1.26-.13 1.04-.01 1.85.26 2.45.82.59.56.9 1.36.92 2.39v.35h-5.17zm3.18-1.29c0-.11 0-.19-.01-.24-.01-.14-.04-.3-.08-.46-.19-.73-.66-1.11-1.41-1.13-.45 0-.82.16-1.13.49-.31.33-.48.69-.51 1.09l-.02.25z" id="path25" style="stroke-width:.406845"/><path class="st0" d="M215.63 113.98c-1.06 0-1.96-.26-2.67-.77-.78-.56-1.29-1.35-1.53-2.35a7.25 7.25 0 0 1-.22-1.84c-.01-.36.02-.72.07-1.07.07-.52.22-1.02.47-1.47.43-.82 1.11-1.34 2.02-1.54.4-.08.82-.13 1.27-.14h.07c1.02 0 1.83.28 2.42.84.6.57.92 1.38.93 2.42v.4h-5.17l.01.29c.01.38.07.77.17 1.14.48 1.93 1.51 2.91 3.07 2.93h.05c.4 0 .82-.07 1.24-.19l.48-.16v.99l-.03.01c-.25.1-.44.17-.56.21-.45.15-.96.25-1.51.28zm-.52-9.08h-.06c-.44.01-.86.05-1.25.13-.88.19-1.54.69-1.95 1.48-.24.45-.4.93-.46 1.44-.05.34-.08.7-.07 1.06-.01.64.07 1.25.21 1.81.23.98.74 1.75 1.49 2.3.69.5 1.57.75 2.61.75h.04l.53-.02c.54-.03 1.04-.12 1.48-.28.12-.03.29-.1.52-.19v-.78l-.34.11c-.43.13-.86.2-1.27.2h-.05c-1.61-.02-2.67-1.03-3.16-3.01-.1-.38-.16-.78-.17-1.16l-.01-.39h5.17v-.3c-.02-1.01-.32-1.8-.9-2.35-.58-.53-1.37-.8-2.36-.8zm1.37 2.61h-3.27l.02-.3c.04-.41.21-.79.53-1.12.32-.33.71-.5 1.17-.5.77.02 1.26.41 1.46 1.16a2.89 2.89 0 0 1 .09.72zm-3.17-.1h3.06c0-.08 0-.14-.01-.18-.01-.14-.04-.29-.08-.45-.19-.71-.63-1.07-1.36-1.09-.43 0-.8.16-1.09.47-.3.32-.47.67-.5 1.06z" id="path26" style="stroke-width:.406845"/></g><g id="g28" style="stroke-width:.406845"><path class="st0" d="M224.46 104.85c.08-.01.2-.02.38-.04v1.95l-.29-.01c-1.51-.02-2.33.76-2.48 2.33l-.03.63v4.02h-1.88v-8.69h1.79v2.21c.68-1.44 1.51-2.24 2.51-2.4z" id="path27" style="stroke-width:.406845"/><path class="st0" d="M222.1 113.78h-1.98v-8.79h1.89v2.04c.66-1.32 1.48-2.07 2.45-2.23.08-.01.21-.02.38-.04h.05v2.06l-.39-.01c-1.46 0-2.24.75-2.38 2.29l-.03.62v4.06zm-1.88-.1H222v-3.97l.03-.63c.14-1.58.98-2.38 2.48-2.38l.29.01v-1.84c-.14.01-.25.02-.32.03-.97.16-1.8.96-2.47 2.38l-.1.21v-2.39h-1.69z" id="path28" style="stroke-width:.406845"/></g></g><g id="g59" style="stroke-width:.406845"><g id="g30" style="stroke-width:.406845"><path class="st0" d="M106.71 134.03c-.49 1.01-1.15 1.61-1.96 1.8-.22.06-.45.09-.7.08-1.09 0-1.82-.46-2.18-1.4-.11-.26-.19-.52-.21-.78-.03-.26-.04-.55-.04-.86l-.01-.73v-5.1h1.88v4.7c0 .33 0 .58.01.74.05 1.38.47 2.06 1.26 2.05.59 0 1.08-.31 1.48-.92.27-.42.45-1 .54-1.74l.04-.7.01-.57v-3.56h1.88v8.69h-1.79v-2.09c-.1.17-.16.31-.21.39z" id="path29" style="stroke-width:.406845"/><path class="st0" d="M104.11 135.96h-.07c-1.1 0-1.84-.48-2.21-1.44-.11-.27-.19-.53-.22-.8-.03-.26-.04-.54-.04-.87l-.01-.73v-5.15h1.98v4.75c0 .34 0 .58.01.74.05 1.33.45 2 1.19 2h.02c.57 0 1.05-.31 1.44-.9.26-.41.44-.99.53-1.72l.04-.7.01-.57v-3.61h1.98v8.79h-1.89v-1.91c-.04.09-.08.16-.1.2-.5 1.02-1.17 1.64-1.99 1.82-.22.08-.44.1-.67.1zm-.06-.1h.06c.22 0 .43-.03.63-.08.79-.18 1.44-.78 1.92-1.77.05-.08.11-.21.2-.41l.1-.22v2.28h1.69v-8.59h-1.78v3.51l-.01.57-.04.7c-.09.75-.27 1.34-.54 1.76-.41.62-.92.94-1.53.94h-.02c-.8 0-1.24-.7-1.29-2.09-.01-.16-.01-.4-.01-.75v-4.65h-1.78v5.05l.01.73c0 .32.01.6.04.86.03.25.1.51.21.77.36.92 1.05 1.37 2.12 1.37h.02z" id="path30" style="stroke-width:.406845"/></g><g id="g32" style="stroke-width:.406845"><path class="st0" d="M113.15 128.93c.74-1.39 1.69-2.09 2.86-2.1.67.01 1.2.21 1.6.6.4.39.62.93.65 1.6 0 .13.01.38.01.74v5.94h-1.88v-5.81c0-.23-.02-.46-.05-.67-.08-.65-.42-.99-1.02-1.01-.52 0-1 .28-1.43.82-.35.43-.58.94-.7 1.52-.03.16-.06.34-.08.53l-.04.47-.02.45v3.7h-1.88v-8.69h1.78v2.3z" id="path31" style="stroke-width:.406845"/><path class="st0" d="M118.33 135.76h-1.98v-5.86c0-.21-.02-.44-.05-.66-.08-.63-.4-.95-.97-.97-.5 0-.97.28-1.39.8-.35.42-.58.93-.69 1.5-.04.18-.06.35-.08.52l-.04.47-.02.44v3.75h-1.98v-8.79h1.88v2.13l.09-.2c.74-1.41 1.72-2.12 2.91-2.13.68.01 1.23.21 1.63.62.41.4.63.95.67 1.63 0 .08.01.31.01.75v6zm-1.88-.1h1.78v-5.89c0-.43-.01-.66-.01-.74-.04-.66-.25-1.18-.64-1.57-.39-.38-.91-.58-1.57-.59-1.14.01-2.09.71-2.82 2.08l-.28.59v-2.47h-1.68v8.59h1.78V132l.02-.45.04-.47c.01-.17.04-.34.08-.53.11-.59.35-1.11.71-1.54.45-.55.94-.84 1.47-.84.62.02.98.37 1.07 1.05.03.23.05.46.05.68z" id="path32" style="stroke-width:.406845"/></g><g id="g34" style="stroke-width:.406845"><path class="st0" d="M125.85 123.13h1.88v12.59h-1.85v-1.41l-.21.32c-.58.86-1.37 1.29-2.36 1.29-2.01.02-3.03-1.53-3.06-4.63.01-2.41.77-3.85 2.3-4.31.3-.1.63-.14.99-.14.94-.01 1.66.37 2.16 1.15l.15.25zm-3.61 8.25c0 .34.02.71.06 1.12.02.32.07.62.14.89s.18.52.33.75c.29.5.7.74 1.25.72 1.17.01 1.75-1.12 1.75-3.37 0-.41-.01-.77-.04-1.09-.12-1.65-.69-2.49-1.72-2.51-.75.02-1.26.5-1.52 1.45-.09.3-.16.61-.19.9-.04.37-.07.75-.06 1.14z" id="path33" style="stroke-width:.406845"/><path class="st0" d="M123.28 135.96c-2.01 0-3.05-1.57-3.08-4.68.01-2.42.79-3.89 2.33-4.36.31-.1.65-.15 1.01-.15h.04c.93 0 1.66.39 2.16 1.17l.06.1v-4.97h1.98v12.69h-1.95v-1.29l-.12.18c-.58.87-1.39 1.31-2.4 1.31zm.31-9.08h-.04c-.35 0-.68.05-.98.14-1.5.45-2.26 1.89-2.26 4.26.03 3.04 1.03 4.58 2.98 4.58h.03c.97 0 1.75-.43 2.32-1.27l.3-.47v1.54h1.75v-12.49h-1.78v5.23l-.24-.41c-.49-.73-1.19-1.11-2.08-1.11zm.37 8.03c-.53 0-.94-.25-1.23-.75-.15-.23-.26-.49-.34-.76-.08-.27-.12-.57-.14-.9-.04-.41-.06-.79-.06-1.12-.01-.39.02-.77.07-1.14.03-.29.09-.6.19-.91.27-.97.8-1.47 1.57-1.48 1.05.02 1.64.88 1.76 2.55.02.33.04.7.04 1.09 0 2.27-.6 3.42-1.79 3.42h-.07zm.06-6.97c-.73.02-1.22.48-1.48 1.41-.09.3-.16.61-.18.9-.05.36-.08.74-.07 1.13 0 .33.02.71.06 1.12.02.32.07.61.14.88.07.26.18.51.32.73.28.49.67.72 1.2.7 1.13 0 1.7-1.12 1.7-3.32 0-.39-.01-.76-.04-1.09-.1-1.62-.66-2.45-1.65-2.46z" id="path34" style="stroke-width:.406845"/></g><g id="g36" style="stroke-width:.406845"><path class="st0" d="M139.4 135.71h-2.1l-4.17-12.59h2.04l3.35 10.27 3.33-10.27h1.72z" id="path35" style="stroke-width:.406845"/><path class="st0" d="M139.44 135.76h-2.17l-.01-.03-4.19-12.65h2.14l.01.03 3.31 10.12 3.29-10.16h1.82l-.02.07zm-2.11-.1h2.03l4.13-12.49h-1.61l-3.36 10.38-.05-.15-3.34-10.23h-1.93z" id="path36" style="stroke-width:.406845"/></g><g id="g38" style="stroke-width:.406845"><path class="st0" d="M145.51 130.73c.01.39.07.77.17 1.16.49 1.96 1.53 2.95 3.11 2.97.42.01.86-.06 1.31-.2l.41-.14v.89c-.25.1-.43.17-.56.21-.45.15-.95.25-1.49.28l-.54.02c-1.07 0-1.96-.25-2.67-.76-.77-.55-1.27-1.33-1.51-2.32a6.73 6.73 0 0 1-.21-1.82c-.01-.36.02-.72.07-1.06.07-.52.22-1.01.47-1.46.42-.81 1.09-1.31 1.99-1.51.39-.08.81-.13 1.26-.14 1.04-.01 1.85.26 2.44.82.59.56.9 1.36.92 2.39v.35h-5.17zm3.17-1.29c0-.11 0-.19-.01-.24-.01-.14-.04-.3-.08-.46-.19-.73-.66-1.11-1.41-1.13-.45 0-.83.16-1.13.49-.31.32-.48.69-.51 1.09l-.02.25z" id="path37" style="stroke-width:.406845"/><path class="st0" d="M147.89 135.96c-1.07 0-1.97-.26-2.67-.77-.78-.56-1.29-1.35-1.53-2.35-.15-.58-.22-1.19-.22-1.84-.01-.36.02-.72.07-1.07.07-.52.23-1.02.47-1.48.43-.82 1.11-1.33 2.02-1.54.39-.08.82-.13 1.27-.14h.06c1.01 0 1.83.28 2.42.84.6.57.92 1.39.93 2.42v.4h-5.17l.01.29c.01.38.07.76.17 1.14.48 1.93 1.51 2.92 3.07 2.93h.06c.39 0 .81-.06 1.23-.19l.48-.16v.99l-.03.01c-.24.1-.43.17-.56.21-.46.16-.97.25-1.5.28zm-.52-9.08h-.06c-.45.01-.87.05-1.25.13-.88.19-1.54.69-1.95 1.49-.24.44-.39.93-.46 1.44-.05.34-.08.7-.07 1.06-.01.64.07 1.25.21 1.81.23.98.73 1.75 1.49 2.29.69.5 1.57.75 2.61.75h.03l.54-.02c.53-.03 1.02-.12 1.48-.27.12-.04.3-.1.52-.19v-.78l-.35.11c-.44.13-.86.2-1.26.2h-.06c-1.6-.02-2.67-1.03-3.16-3.01-.1-.39-.16-.78-.17-1.17l-.01-.39h5.17v-.3c-.02-1.01-.32-1.8-.9-2.35-.57-.53-1.36-.8-2.35-.8zm1.36 2.61h-3.27l.02-.3c.04-.41.21-.78.53-1.12.31-.33.71-.5 1.17-.5.77.02 1.26.41 1.46 1.16.04.16.07.31.08.46 0 .06.01.14.01.25zm-3.16-.1h3.06c0-.08 0-.14-.01-.19-.01-.15-.04-.3-.08-.45-.19-.72-.63-1.07-1.37-1.09-.43 0-.8.16-1.09.47-.3.32-.47.67-.5 1.06z" id="path38" style="stroke-width:.406845"/></g><g id="g40" style="stroke-width:.406845"><path class="st0" d="M156.72 126.83c.08-.01.2-.02.38-.03v1.95l-.29-.01c-1.51-.02-2.33.76-2.48 2.33l-.03.63v4.02h-1.88v-8.69h1.79v2.21c.68-1.44 1.51-2.24 2.51-2.41z" id="path39" style="stroke-width:.406845"/><path class="st0" d="M154.35 135.76h-1.98v-8.79h1.89v2.04c.66-1.32 1.48-2.07 2.45-2.24.08-.01.22-.02.38-.04h.05v2.06l-.39-.01c-1.46 0-2.23.75-2.38 2.29l-.03.62v4.07zm-1.88-.1h1.78v-3.97l.03-.63c.15-1.58.98-2.38 2.48-2.38l.29.01v-1.84c-.14.01-.25.02-.32.03-.97.17-1.81.96-2.47 2.38l-.09.2v-2.38h-1.69v8.58z" id="path40" style="stroke-width:.406845"/></g><g id="g42" style="stroke-width:.406845"><path class="st0" d="M166.15 135.71h-2.35l-3.21-4.34v4.34h-1.88v-12.59h1.88v7.42l3.01-3.52h2.1l-3.37 3.75z" id="path41" style="stroke-width:.406845"/><path class="st0" d="M166.25 135.76h-2.48l-.01-.02-3.12-4.22v4.24h-1.98v-12.69h1.98v7.34l2.93-3.44h2.24l-.08.08-3.35 3.72zm-2.43-.1h2.23l-3.79-4.89.03-.03 3.3-3.67h-1.97l-3.08 3.61v-7.51h-1.78v12.49h1.78v-4.44l.09.12z" id="path42" style="stroke-width:.406845"/></g><g id="g44" style="stroke-width:.406845"><path class="st0" d="M168.4 130.73c.01.39.07.77.17 1.16.49 1.96 1.53 2.95 3.11 2.97.42.01.86-.06 1.31-.2l.41-.14v.89c-.25.1-.43.17-.56.21-.45.15-.95.25-1.49.28l-.54.02c-1.07 0-1.96-.25-2.67-.76-.77-.55-1.27-1.33-1.51-2.32a6.73 6.73 0 0 1-.21-1.82c-.01-.36.02-.72.07-1.06.07-.52.22-1.01.47-1.46.42-.81 1.09-1.31 1.99-1.51.39-.08.81-.13 1.26-.14 1.04-.01 1.85.26 2.44.82.59.56.9 1.36.92 2.39v.35h-5.17zm3.18-1.29c0-.11 0-.19-.01-.24-.01-.14-.04-.3-.08-.46-.19-.73-.66-1.11-1.41-1.13-.45 0-.83.16-1.13.49-.31.32-.48.69-.51 1.09l-.02.25z" id="path43" style="stroke-width:.406845"/><path class="st0" d="M170.78 135.96c-1.07 0-1.97-.26-2.67-.77-.78-.56-1.29-1.35-1.53-2.35-.15-.58-.22-1.19-.22-1.84-.01-.36.02-.72.07-1.07.07-.52.23-1.02.47-1.48.43-.82 1.11-1.34 2.02-1.54.39-.08.82-.13 1.27-.14h.06c1.01 0 1.83.28 2.42.84.6.57.92 1.38.93 2.42v.4h-5.17l.01.29c.01.38.07.76.17 1.14.48 1.93 1.51 2.92 3.07 2.93h.06c.39 0 .81-.06 1.23-.19l.48-.16v.99l-.03.01c-.24.1-.43.17-.56.21-.46.16-.97.25-1.5.28zm-.52-9.08h-.06c-.45.01-.87.05-1.25.13-.88.19-1.54.69-1.95 1.49-.24.44-.39.93-.46 1.44-.05.35-.08.7-.07 1.06-.01.64.07 1.25.21 1.81.23.98.74 1.75 1.49 2.29.69.5 1.57.75 2.61.75h.03l.54-.02c.53-.03 1.02-.12 1.48-.27.12-.04.3-.1.52-.19v-.78l-.35.11c-.44.13-.86.2-1.26.2h-.06c-1.6-.02-2.67-1.03-3.16-3.01-.1-.39-.16-.78-.17-1.17l-.01-.39h5.17v-.3c-.02-1.01-.32-1.8-.9-2.35-.57-.53-1.36-.8-2.35-.8zm1.37 2.61h-3.27l.02-.3c.04-.41.21-.78.53-1.12.31-.33.71-.5 1.17-.5.77.02 1.26.41 1.46 1.16.04.16.07.31.08.46 0 .06.01.14.01.25zm-3.17-.1h3.06c0-.08 0-.14-.01-.19-.01-.15-.04-.3-.08-.45-.19-.72-.63-1.07-1.36-1.09-.44 0-.79.15-1.09.47-.3.32-.47.67-.5 1.06z" id="path44" style="stroke-width:.406845"/></g><g id="g46" style="stroke-width:.406845"><path class="st0" d="M177.31 128.93c.33-.67.72-1.18 1.17-1.54.45-.36 1.01-.55 1.69-.56.66.01 1.19.21 1.59.61.4.4.61.93.65 1.6.01.13.01.38.01.74v5.94h-1.88v-5.81c-.01-.23-.02-.46-.06-.67-.08-.65-.42-.99-1.02-1.01-.52 0-1 .28-1.43.82-.35.43-.58.94-.7 1.52-.04.15-.07.33-.08.53l-.03.46c-.02.22-.02.37-.02.46v3.7h-1.88v-12.59h1.82v6.2z" id="path45" style="stroke-width:.406845"/><path class="st0" d="M182.46 135.76h-1.98v-5.86c-.01-.24-.03-.46-.06-.66-.08-.63-.4-.95-.97-.97-.5 0-.97.28-1.39.8-.34.42-.58.92-.69 1.5-.04.15-.07.32-.08.52l-.03.46c-.02.2-.02.36-.02.45v3.76h-1.98v-12.69h1.92v6.01l.07-.17c.33-.67.73-1.2 1.18-1.56.46-.37 1.04-.56 1.72-.57.67.01 1.22.22 1.62.62.41.4.63.95.66 1.63.01.13.01.37.01.75v5.98zm-1.88-.1h1.78v-5.89c0-.38 0-.61-.01-.74-.03-.65-.25-1.18-.63-1.56-.39-.38-.91-.58-1.55-.59-.65.01-1.21.2-1.65.55-.44.36-.83.87-1.15 1.53l-.26.62v-6.39h-1.72v12.49h1.78v-3.66c-.01-.09 0-.25.02-.46l.03-.46c.01-.21.04-.38.08-.54.11-.59.35-1.11.71-1.54.44-.55.94-.84 1.47-.84.62.02.98.37 1.07 1.05.03.21.05.43.06.67v5.76z" id="path46" style="stroke-width:.406845"/></g><g id="g48" style="stroke-width:.406845"><path class="st0" d="M189.2 126.83c.08-.01.2-.02.38-.03v1.95l-.29-.01c-1.51-.02-2.33.76-2.48 2.33l-.03.63v4.02h-1.88v-8.69h1.79v2.21c.67-1.44 1.51-2.24 2.51-2.41z" id="path47" style="stroke-width:.406845"/><path class="st0" d="M186.83 135.76h-1.98v-8.79h1.89v2.04c.66-1.32 1.48-2.07 2.45-2.24.08-.01.21-.02.38-.04h.05v2.06l-.39-.01c-1.46 0-2.23.75-2.38 2.29l-.03.62v4.07zm-1.88-.1h1.78v-3.97l.03-.63c.15-1.58.98-2.38 2.48-2.38l.29.01v-1.84c-.14.01-.25.02-.32.03-.97.17-1.8.96-2.47 2.38l-.09.2v-2.38h-1.69v8.58z" id="path48" style="stroke-width:.406845"/></g><g id="g50" style="stroke-width:.406845"><path class="st0" d="M195.77 128.52c-.54-.35-1.06-.56-1.57-.63-.09-.01-.19-.02-.27-.02-.81.01-1.2.31-1.2.92.01.36.13.65.37.85.12.11.31.24.57.39.17.09.41.24.72.43s.59.37.84.54c.37.25.66.5.87.76.18.23.32.53.42.9.06.23.09.45.09.68 0 .89-.35 1.57-1.05 2.04-.52.36-1.28.54-2.28.55-.65 0-1.29-.08-1.92-.24l-.37-.1v-1.7l.25.19c.19.14.43.28.73.42.33.17.63.28.92.33.14.03.3.05.49.04.79.02 1.28-.27 1.47-.86.03-.09.05-.18.05-.27-.01-.45-.34-.88-.97-1.27l-.76-.48-.96-.59c-.32-.2-.59-.45-.8-.75-.2-.26-.33-.54-.39-.84-.04-.14-.05-.29-.04-.47.01-.81.28-1.43.8-1.84.52-.42 1.26-.63 2.23-.64.28.01.59.03.9.07.24.04.54.1.89.18l.26.06v1.57z" id="path49" style="stroke-width:.406845"/><path class="st0" d="M193.28 135.96c-.65 0-1.3-.08-1.94-.24l-.4-.11v-1.84l.33.25c.19.14.43.28.72.41.32.17.63.28.91.33.14.04.3.05.48.04h.08c.73 0 1.17-.27 1.34-.83.03-.09.04-.17.04-.25-.01-.43-.33-.84-.95-1.23l-.76-.48-.96-.59c-.32-.2-.6-.46-.82-.76-.21-.27-.34-.56-.4-.86-.04-.14-.05-.3-.04-.48.01-.82.29-1.46.82-1.88.53-.42 1.29-.64 2.25-.66.29.01.59.03.91.07.24.04.53.09.89.18l.3.07v1.71l-.36-.25c-.53-.35-1.05-.56-1.55-.63-.1-.01-.19-.02-.26-.02-.78.01-1.15.29-1.15.87.01.35.12.62.35.81.12.11.31.24.56.38.17.09.41.23.72.43.31.19.6.37.85.54.37.25.67.51.88.77.19.23.33.54.43.91.06.24.09.46.09.69 0 .9-.36 1.6-1.07 2.08-.51.38-1.28.56-2.29.57zm-2.24-.43.33.09c.63.16 1.27.24 1.91.24.98-.01 1.74-.19 2.25-.54.68-.46 1.03-1.13 1.03-2 0-.22-.03-.43-.09-.67-.09-.36-.23-.65-.41-.88-.21-.25-.49-.5-.86-.75-.25-.16-.53-.34-.84-.53-.32-.2-.55-.34-.72-.43-.27-.15-.46-.28-.58-.39-.25-.21-.38-.51-.38-.88 0-.64.42-.97 1.25-.97.08 0 .17.01.27.02.52.07 1.05.29 1.59.64l.2.14v-1.44l-.22-.05c-.36-.08-.64-.14-.88-.18-.31-.04-.62-.07-.9-.07-.94.01-1.68.22-2.19.63-.51.4-.77 1.01-.78 1.81-.01.18.01.33.04.46.05.29.18.56.38.83.21.29.48.54.79.74l.96.59.76.48c.65.4.99.84 1 1.31 0 .09-.02.19-.05.28-.18.59-.67.89-1.44.89h-.16c-.16 0-.3-.02-.42-.05-.29-.06-.61-.17-.93-.34-.3-.13-.55-.28-.74-.42l-.17-.13z" id="path50" style="stroke-width:.406845"/></g><g id="g52" style="stroke-width:.406845"><path class="st0" d="m209.73 126.49-.02-.37c-.02-.32-.1-.63-.21-.92-.32-.81-.97-1.22-1.93-1.22-1.3 0-2.14.77-2.53 2.3-.13.46-.21.93-.23 1.42-.04.45-.05.94-.04 1.47 0 1.38.14 2.46.39 3.26.33 1.05.81 1.75 1.44 2.08.32.17.67.28 1.06.32l.43.03.32-.02c.2-.02.42-.07.65-.16.23-.09.43-.2.58-.32l.16-.14v-4.48h-2.51v-1.27h4.51v6.24l-.29.18c-.82.49-1.68.8-2.57.94-.34.06-.67.09-1 .08-1.81 0-3.18-.66-4.11-2-.75-1.09-1.13-2.61-1.13-4.55-.01-.69.04-1.37.15-2.05.09-.62.24-1.2.46-1.74.23-.58.57-1.09 1.04-1.53.44-.41.94-.7 1.49-.88a5.59 5.59 0 0 1 1.68-.24c1.07.02 1.97.23 2.69.63.44.24.79.56 1.06.95.28.43.46.92.52 1.48l.03.5h-2.09z" id="path51" style="stroke-width:.406845"/><path class="st0" d="M208.01 135.96h-.1c-1.81 0-3.2-.68-4.14-2.02-.75-1.1-1.14-2.64-1.14-4.58-.01-.69.04-1.38.15-2.05.09-.62.24-1.21.46-1.75.23-.58.58-1.1 1.06-1.55.44-.42.95-.71 1.51-.89.52-.16 1.09-.24 1.69-.24 1.08.02 1.99.23 2.72.63.45.25.81.57 1.07.96.29.44.47.94.53 1.51l.04.56h-2.18l-.02-.42c-.02-.31-.09-.61-.21-.91-.31-.79-.95-1.18-1.89-1.18-1.27 0-2.1.77-2.48 2.26-.13.46-.21.93-.23 1.41-.04.44-.05.94-.04 1.46 0 1.37.14 2.46.39 3.24.32 1.04.8 1.73 1.41 2.05.31.17.67.28 1.05.32l.43.03.32-.02c.2-.02.41-.07.64-.16.22-.08.41-.19.57-.31l.14-.12v-4.41h-2.51v-1.37h4.61v6.32l-.31.19c-.82.49-1.69.81-2.59.95-.33.06-.64.09-.95.09zm-.08-.1h.08c.31 0 .62-.03.92-.08.89-.14 1.75-.45 2.56-.93l.26-.16v-6.17h-4.41v1.17h2.51v4.55l-.18.15c-.17.13-.37.24-.6.33-.23.09-.46.14-.66.17l-.33.02-.43-.03c-.4-.04-.76-.15-1.08-.33-.64-.33-1.13-1.04-1.46-2.1-.26-.79-.39-1.89-.4-3.27-.01-.53.01-1.03.04-1.47.02-.49.1-.97.23-1.43.39-1.54 1.26-2.33 2.58-2.33.99 0 1.65.42 1.98 1.25.12.3.19.62.22.94l.02.32h1.97l-.03-.45a3.27 3.27 0 0 0-.51-1.46 3.02 3.02 0 0 0-1.04-.93c-.71-.39-1.61-.6-2.67-.62-.59 0-1.15.08-1.66.24-.54.17-1.03.46-1.47.87-.46.43-.81.94-1.03 1.51-.21.53-.37 1.11-.45 1.73-.11.67-.16 1.35-.15 2.04 0 1.93.38 3.45 1.12 4.53.91 1.31 2.28 1.97 4.05 1.97h.02z" id="path52" style="stroke-width:.406845"/></g><g id="g54" style="stroke-width:.406845"><path class="st0" d="M216.27 128.77c.14-.27.29-.52.45-.74.56-.81 1.28-1.21 2.18-1.2.9 0 1.54.39 1.92 1.16.1.21.17.42.21.63.01.07.02.16.04.28l.11-.23c.1-.21.21-.41.35-.61.17-.26.36-.49.56-.67.2-.18.44-.32.71-.42.27-.1.56-.15.86-.15.66.02 1.18.24 1.57.66.39.42.59.96.63 1.61 0 .15.01.39.01.71v5.9h-1.88v-5.58c0-.08-.01-.22-.02-.44-.07-.95-.41-1.44-1.04-1.46-.79 0-1.34.63-1.65 1.89-.06.21-.1.41-.12.6l-.05.5-.03.43c-.01.14-.01.3-.01.46v3.61h-1.88v-5.41l-.01-.44c.01-1.08-.34-1.62-1.04-1.64-.83.02-1.4.63-1.71 1.85-.06.18-.09.39-.12.61l-.05.46-.04.47c-.02.23-.02.4-.02.51v3.59h-1.88v-8.69h1.77v2.06z" id="path53" style="stroke-width:.406845"/><path class="st0" d="M225.92 135.76h-1.98v-5.63c0-.07-.01-.21-.02-.44-.06-.93-.39-1.39-1-1.42-.76 0-1.29.63-1.6 1.85-.06.21-.1.41-.11.59l-.05.5-.03.43c-.01.13-.01.28-.01.46v3.66h-1.98v-5.46l-.01-.44c.01-1.04-.33-1.58-1-1.59-.8.02-1.36.63-1.66 1.81-.05.18-.09.38-.12.6l-.05.46-.04.47c-.02.25-.02.4-.02.5v3.64h-1.98v-8.79h1.87v1.9l.07-.13c.14-.27.29-.52.45-.75.56-.81 1.29-1.22 2.19-1.22h.04c.92 0 1.58.4 1.97 1.18.1.21.17.42.22.65.01.03.01.07.02.11l.03-.07c.1-.21.22-.42.35-.62.17-.26.36-.49.57-.67.21-.19.45-.33.73-.43.28-.1.57-.15.88-.15.68.02 1.21.25 1.6.68.39.43.6.98.64 1.64 0 .15.01.37.01.71v5.97zm-1.88-.1h1.78v-5.85c0-.33 0-.56-.01-.71-.04-.64-.24-1.17-.62-1.58-.37-.41-.88-.62-1.53-.64-.29 0-.58.05-.84.15-.26.09-.5.23-.7.41-.2.18-.39.4-.55.66-.14.19-.25.4-.35.6l-.18.4-.02-.19c-.01-.13-.02-.22-.04-.28-.04-.22-.11-.43-.21-.62-.37-.75-1-1.13-1.88-1.13h-.04c-.86 0-1.57.4-2.11 1.18-.16.23-.31.48-.44.74l-.26.49v-2.21h-1.67v8.59h1.78v-3.54c-.01-.1 0-.26.02-.52l.04-.47.05-.46c.02-.23.06-.43.12-.62.31-1.23.9-1.87 1.75-1.89.74.01 1.1.58 1.1 1.69l.01.44v5.36h1.78v-3.56c-.01-.18 0-.33.01-.47l.03-.43.05-.5c.02-.19.06-.39.12-.61.31-1.27.88-1.92 1.69-1.92.66.03 1.03.54 1.09 1.51.01.22.02.37.02.44v5.54z" id="path54" style="stroke-width:.406845"/></g><g id="g56" style="stroke-width:.406845"><path class="st0" d="M230.26 127.98c.17-.23.36-.43.57-.59.48-.37 1.04-.56 1.66-.56 2.1.01 3.16 1.53 3.19 4.54-.02 1.97-.59 3.32-1.72 4.03-.35.23-.71.37-1.08.43-.29.06-.61.09-.95.08-.44 0-.85-.03-1.24-.12-.89-.17-1.56-.65-2.01-1.44-.29-.53-.45-1.35-.47-2.49l-.01-.72v-8.01h1.88v5.1zm3.43 3.38c-.02-.86-.1-1.52-.24-2a2.83 2.83 0 0 0-.34-.73c-.32-.49-.72-.73-1.19-.72-.54.01-.95.25-1.23.74-.14.21-.24.45-.3.71-.09.32-.15.65-.17.99-.02.34-.03.73-.02 1.16-.01.94.05 1.67.18 2.2.23.93.71 1.4 1.46 1.4.98-.02 1.57-.8 1.76-2.36.06-.49.09-.96.09-1.39z" id="path55" style="stroke-width:.406845"/><path class="st0" d="M232.01 135.96H231.86c-.42 0-.8-.04-1.17-.12-.9-.17-1.59-.67-2.04-1.46-.3-.54-.46-1.36-.48-2.51l-.01-.72v-8.07h1.98v4.99l.09-.12c.17-.23.36-.43.58-.6.48-.38 1.04-.56 1.67-.56h.02c2.12.01 3.21 1.55 3.24 4.59-.02 1.98-.61 3.36-1.74 4.07a2.8 2.8 0 0 1-1.1.44c-.28.04-.58.07-.89.07zm-.08-.1h.08c.31 0 .6-.03.86-.08.37-.06.73-.2 1.06-.42 1.11-.7 1.68-2.04 1.7-3.99-.02-2.96-1.08-4.47-3.14-4.49h-.02c-.6 0-1.14.18-1.61.54-.21.16-.4.36-.56.58l-.27.38v-5.21h-1.78v7.96l.01.72c.02 1.12.18 1.95.47 2.46.44.77 1.11 1.25 1.98 1.41.36.08.74.12 1.15.12h.07zm-.1-.69c-.77 0-1.28-.49-1.51-1.44-.13-.53-.19-1.27-.18-2.21-.01-.43 0-.82.02-1.17s.08-.68.18-1.01c.06-.26.16-.51.3-.73.29-.5.72-.76 1.27-.77h.01c.48 0 .89.25 1.22.75.16.24.27.49.35.75.14.47.22 1.15.24 2.01 0 .43-.03.9-.1 1.41-.18 1.59-.79 2.4-1.8 2.41zm.1-7.22h-.01c-.52.01-.92.25-1.19.72-.13.21-.23.44-.29.7-.09.33-.15.65-.17.99-.02.34-.03.73-.02 1.16-.01.93.05 1.67.18 2.19.22.91.68 1.36 1.41 1.37.95-.02 1.53-.8 1.71-2.32.07-.51.1-.98.1-1.4-.02-.85-.1-1.52-.24-1.98-.07-.25-.18-.49-.33-.72-.32-.47-.7-.71-1.15-.71z" id="path56" style="stroke-width:.406845"/></g><g id="g58" style="stroke-width:.406845"><path class="st0" d="M239.9 129.78v5.94h-1.99v-12.59h1.99v5.38h4.59v-5.38h1.99v12.59h-1.99v-5.94z" id="path57" style="stroke-width:.406845"/><path class="st0" d="M246.53 135.76h-2.09v-5.94h-4.49v5.94h-2.09v-12.69h2.09v5.38h4.49v-5.38h2.09zm-1.99-.1h1.89v-12.49h-1.89v5.38h-4.69v-5.38h-1.89v12.49h1.89v-5.94h4.69z" id="path58" style="stroke-width:.406845"/></g></g></g><g id="g74" style="stroke-width:.406845"><g id="g72" style="stroke-width:.406845"><g id="g61" style="stroke-width:.406845"><defs id="defs60"><path id="path59" d="M97.97 68.4c0 7.41 6.04 13.42 13.49 13.42s13.48-6.01 13.48-13.42-6.04-13.42-13.48-13.42c-7.45 0-13.49 6-13.49 13.42"/></defs><clipPath id="SVGID_00000056421485689813012840000005844107249728442008_"><use xlink:href="#SVGID_1_" style="overflow:visible" id="use60"/></clipPath><radialGradient id="SVGID_00000077282314673887954120000003380845033678584734_" cx="-177.302" cy="522.315" r="1.238" gradientTransform="matrix(6.31225 0 0 -6.31222 1171.275 3347.591)" gradientUnits="userSpaceOnUse"><stop offset="0" style="stop-color:#fff" id="stop60"/><stop offset="1" style="stop-color:#005ea1" id="stop61"/></radialGradient><path style="fill:url(#SVGID_00000077282314673887954120000003380845033678584734_);stroke-width:.406845" clip-path="url(#SVGID_00000056421485689813012840000005844107249728442008_)" id="rect61" d="M97.97 54.98h26.97v26.84H97.97z"/></g><g id="g63" style="stroke-width:.406845"><defs id="defs61"><path id="path60" d="M120.62 68.4c0 7.41 6.04 13.42 13.49 13.42s13.49-6.01 13.49-13.42-6.04-13.42-13.49-13.42-13.49 6-13.49 13.42"/></defs><clipPath id="SVGID_00000147909697182074458600000017050692443441528206_"><use xlink:href="#SVGID_00000044898771460269573090000010456118392746125217_" style="overflow:visible" id="use61"/></clipPath><radialGradient id="SVGID_00000083082522351486373840000018240068895279259532_" cx="-177.02" cy="522.313" r="1.238" gradientTransform="matrix(6.31253 0 0 -6.3125 1178.768 3347.739)" gradientUnits="userSpaceOnUse"><stop offset="0" style="stop-color:#fff" id="stop62"/><stop offset="1" style="stop-color:#0082ad" id="stop63"/></radialGradient><path style="fill:url(#SVGID_00000083082522351486373840000018240068895279259532_);stroke-width:.406845" clip-path="url(#SVGID_00000147909697182074458600000017050692443441528206_)" id="rect63" d="M120.62 54.98h26.97v26.84h-26.97z"/></g><g id="g65" style="stroke-width:.406845"><defs id="defs63"><path id="path61" d="M143.27 68.4c0 7.41 6.04 13.42 13.48 13.42 7.45 0 13.48-6.01 13.48-13.42s-6.04-13.42-13.48-13.42-13.48 6-13.48 13.42"/></defs><clipPath id="SVGID_00000000920211334792737990000001319179692427646108_"><use xlink:href="#SVGID_00000127743730624216497450000002043249572621365943_" style="overflow:visible" id="use63"/></clipPath><radialGradient id="SVGID_00000180350041619318641610000001492973283828642435_" cx="-176.74" cy="522.315" r="1.238" gradientTransform="matrix(6.31225 0 0 -6.31222 1186.16 3347.591)" gradientUnits="userSpaceOnUse"><stop offset="0" style="stop-color:#fff" id="stop64"/><stop offset="1" style="stop-color:#007979" id="stop65"/></radialGradient><path style="fill:url(#SVGID_00000180350041619318641610000001492973283828642435_);stroke-width:.406845" clip-path="url(#SVGID_00000000920211334792737990000001319179692427646108_)" id="rect65" d="M143.27 54.98h26.97v26.84h-26.97z"/></g><g id="g67" style="stroke-width:.406845"><defs id="defs65"><path id="path62" d="M165.92 68.4c0 7.41 6.04 13.42 13.48 13.42 7.45 0 13.49-6.01 13.49-13.42s-6.04-13.42-13.49-13.42c-7.44 0-13.48 6-13.48 13.42"/></defs><clipPath id="SVGID_00000129166722791438377570000010326227705363312811_"><use xlink:href="#SVGID_00000162329239644862310090000004140755303673011123_" style="overflow:visible" id="use65"/></clipPath><radialGradient id="SVGID_00000031897732114020739970000002396646817059908027_" cx="-176.459" cy="522.315" r="1.238" gradientTransform="matrix(6.31225 0 0 -6.31222 1193.603 3347.591)" gradientUnits="userSpaceOnUse"><stop offset="0" style="stop-color:#fff" id="stop66"/><stop offset="1" style="stop-color:#cf1057" id="stop67"/></radialGradient><path style="fill:url(#SVGID_00000031897732114020739970000002396646817059908027_);stroke-width:.406845" clip-path="url(#SVGID_00000129166722791438377570000010326227705363312811_)" id="rect67" d="M165.92 54.98h26.97v26.84h-26.97z"/></g><g id="g69" style="stroke-width:.406845"><defs id="defs67"><path id="path63" d="M188.57 68.4c0 7.41 6.04 13.42 13.49 13.42s13.49-6.01 13.49-13.42-6.04-13.42-13.49-13.42-13.49 6-13.49 13.42"/></defs><clipPath id="SVGID_00000161611609406465120840000015931241966626527362_"><use xlink:href="#SVGID_00000079476757253046130470000001117058738893821098_" style="overflow:visible" id="use67"/></clipPath><radialGradient id="SVGID_00000125598127625668398650000017456231304960874156_" cx="-176.179" cy="522.315" r="1.238" gradientTransform="matrix(6.31225 0 0 -6.31222 1201.046 3347.591)" gradientUnits="userSpaceOnUse"><stop offset="0" style="stop-color:#fff" id="stop68"/><stop offset="1" style="stop-color:#ef7d00" id="stop69"/></radialGradient><path style="fill:url(#SVGID_00000125598127625668398650000017456231304960874156_);stroke-width:.406845" clip-path="url(#SVGID_00000161611609406465120840000015931241966626527362_)" id="rect69" d="M188.57 54.98h26.98v26.84h-26.98z"/></g><g id="g71" style="stroke-width:.406845"><defs id="defs69"><path id="path64" d="M211.22 68.4c0 7.41 6.04 13.42 13.49 13.42s13.48-6.01 13.48-13.42-6.04-13.42-13.48-13.42c-7.45 0-13.49 6-13.49 13.42"/></defs><clipPath id="SVGID_00000155850813088848782490000001954787064605586069_"><use xlink:href="#SVGID_00000132771776994441339210000010272632559138794632_" style="overflow:visible" id="use69"/></clipPath><radialGradient id="SVGID_00000039854002625842416820000018150594237871236248_" cx="-175.898" cy="522.313" r="1.238" gradientTransform="matrix(6.31253 0 0 -6.3125 1208.54 3347.739)" gradientUnits="userSpaceOnUse"><stop offset="0" style="stop-color:#fff" id="stop70"/><stop offset="1" style="stop-color:#fec800" id="stop71"/></radialGradient><path style="fill:url(#SVGID_00000039854002625842416820000018150594237871236248_);stroke-width:.406845" clip-path="url(#SVGID_00000155850813088848782490000001954787064605586069_)" id="rect71" d="M211.22 54.98h26.98v26.84h-26.98z"/></g></g><g id="g73" style="stroke-width:.406845"><path d="M49.41 18.47h.29l13.15 44.34H35.61l13.8-44.34M8.59 101.11h14.63l9.25-27.2h34.12L76 101.09h14.63L57.99 5.77H41.04z" id="path72" style="stroke-width:.406845;fill-rule:evenodd;clip-rule:evenodd;fill:#9d9c9c"/></g></g></g></svg>