<svg viewBox="0 0 800 320" xml:space="preserve" xmlns="http://www.w3.org/2000/svg"><path d="M.32.48h800v320H.32z" fill="#fff" style="fill:none"/><path d="M789.767 175.122c-6.731 0-9.651 7.085-9.651 11.996 0 3.941 2.033 6.641 6.151 6.641 1.504 0 3.37-.397 4.162-.797l3.235-17.263c-.67-.312-2.435-.579-3.897-.579m3.94 19.969c-1.856.928-4.781 1.682-7.79 1.682-6.156 0-9.43-3.895-9.43-9.562 0-7.216 4.338-15.007 13.37-15.007 1.766 0 3.497.352 4.292.664l2.127-11.331h3.672zm-21.188-14.79-2.96 15.983h-3.676l2.96-15.982c.093-.528.093-.882.093-1.283 0-2.744-1.858-4.071-4.958-4.071-2.123 0-3.983.44-5.223.929l-3.76 20.407h-3.716l4.2-22.664c2.44-1.019 5.49-1.682 8.852-1.682 5.312 0 8.322 2.477 8.322 6.637 0 .535-.041 1.153-.134 1.727m-27.35 14.743c-2.167.973-5.132 1.727-8.543 1.727-5.574 0-8.23-2.61-8.23-6.681 0-.624.045-1.377.174-2.039l2.876-15.627h3.721l-2.921 15.584a9.512 9.512 0 0 0-.134 1.545c0 2.659 1.37 4.12 4.827 4.12 2.033 0 3.892-.399 4.953-.841l3.81-20.408h3.674zm-29.993-20.053c-1.593 0-3.406.397-4.605.972l-3.186 17.046c.754.398 2.3.751 3.939.751 6.953 0 9.562-7.128 9.562-12.308 0-4.073-2.123-6.461-5.71-6.461m-4.555 21.781c-2.84 0-5.625-.754-7.313-1.684l6.247-33.552h3.716l-2.163 11.552c1.322-.578 3.186-.975 4.998-.975 5.225 0 8.455 3.543 8.455 9.034 0 6.552-3.23 15.625-13.94 15.625m-8.288-21.694a12.035 12.035 0 0 0-1.817-.13c-1.727 0-3.716.396-4.957.928l-3.763 20.407h-3.72l4.21-22.662c2.387-1.019 5.665-1.686 8.85-1.686.887 0 1.77.047 2.524.178zm-24.962-.309c-4.21 0-7.442 3.364-8.548 8.767l13.325-1.86c.13-.713.174-1.375.174-1.992 0-3.232-1.81-4.915-4.951-4.915m7.965 8.988-16.735 2.343c-.042.448-.042.843-.042 1.24 0 4.295 2.525 6.42 6.682 6.42 2.348 0 5.003-.662 6.731-1.547l.62 2.877c-1.86.973-4.738 1.682-7.925 1.682-6.017 0-9.607-3.452-9.607-9.475 0-7.524 4.564-15.36 12.752-15.36 5.178 0 8.057 3.1 8.057 7.88 0 1.328-.179 2.61-.533 3.94m-33.954 12.526h-4.25l-4.299-23.857h3.941l2.61 16.955c.176 1.19.263 2.564.312 3.582h.089c.306-.708 1.059-2.39 1.682-3.582l8.893-16.955h4.167zm-8.81-31.784h-.444c-3.056 0-5.625 1.33-6.2 4.694l-.574 3.231h5.309l-.528 2.791h-5.312l-3.899 21.07h-3.627l3.939-21.07h-3.362l.528-2.79h3.365l.574-3.234c.973-5.446 4.65-7.702 9.695-7.702.268 0 .663 0 1.066.044zm-19.159 3.1c-1.151 0-2.082-.93-2.082-1.993 0-1.418 1.15-2.565 2.659-2.565 1.151 0 2.078.924 2.078 1.993 0 1.37-1.15 2.565-2.656 2.565m-3.631 28.684h-3.67l4.424-23.857h3.676zm-4.532-21.204a12.057 12.057 0 0 0-1.817-.13c-1.727 0-3.716.395-4.957.927l-3.763 20.407h-3.721l4.21-22.662c2.392-1.019 5.664-1.686 8.85-1.686.887 0 1.773.047 2.527.178zm-33.658 15.009c0 2.254 1.676 3.894 5.44 3.894 1.816 0 3.988-.4 4.915-.798l1.728-9.387c-4.428.221-12.085.446-12.085 6.29m16.382-10.182-2.884 15.186c-1.944.972-5.179 1.68-8.41 1.68-5.753 0-8.631-2.657-8.631-6.331 0-8.322 9.878-8.85 16.111-9.207l.36-1.814c.085-.402.085-.8.085-1.15 0-2.613-1.99-3.501-4.912-3.501-2.216 0-5.003.712-6.771 1.508l-.487-2.657c1.941-.888 4.912-1.68 7.879-1.68 4.643 0 7.789 2.03 7.789 6.062 0 .575 0 1.239-.13 1.904m-15.506-12.397h-7.967l-5.316 28.777h-3.805l5.313-28.777h-7.97l.62-3.275h19.742zm-42.813 7.613c-6.728 0-9.653 7.087-9.653 11.998 0 3.941 2.04 6.641 6.155 6.641 1.505 0 3.366-.397 4.165-.797l3.227-17.263c-.662-.312-2.434-.579-3.894-.579m3.94 19.969c-1.856.928-4.781 1.682-7.79 1.682-6.156 0-9.433-3.895-9.433-9.562 0-7.216 4.34-15.007 13.372-15.007 1.77 0 3.498.352 4.291.664l2.129-11.331h3.67zm-21.184-14.79-2.969 15.983h-3.676l2.97-15.982c.088-.528.088-.882.088-1.283 0-2.744-1.86-4.071-4.96-4.071-2.122 0-3.983.44-5.223.929l-3.761 20.407h-3.718l4.207-22.664c2.434-1.019 5.486-1.682 8.85-1.682 5.314 0 8.323 2.477 8.323 6.637 0 .535-.042 1.153-.131 1.727m-27.35 14.743c-2.171.973-5.136 1.727-8.549 1.727-5.577 0-8.23-2.61-8.23-6.681 0-.624.045-1.377.176-2.039l2.878-15.627h3.72l-2.924 15.584a9.686 9.686 0 0 0-.132 1.545c0 2.659 1.374 4.12 4.827 4.12 2.033 0 3.892-.399 4.957-.841l3.805-20.408h3.679zm-30.552-11.507H452.46l.669-3.277h11.996zm-15.019-7.437c-1.106-.754-2.966-1.282-4.824-1.282-3.402 0-5.266 1.988-5.266 4.29 0 1.947 1.681 2.79 3.894 3.673 2.923 1.199 5.665 2.704 5.665 6.157 0 3.805-2.699 7.836-9.96 7.836-2.387 0-5.354-.71-6.995-1.683l1.73-2.747c1.284.754 3.674 1.42 5.579 1.42 4.16 0 5.844-2.436 5.844-4.605 0-1.991-1.771-2.878-4.076-3.808-2.786-1.108-5.4-2.611-5.4-6.02 0-3.85 2.876-7.391 8.985-7.391 2.613 0 5.046.707 6.509 1.68zm-16.879-1.02a12.017 12.017 0 0 0-1.815-.13c-1.727 0-3.718.396-4.957.927l-3.764 20.408h-3.721l4.207-22.662c2.39-1.02 5.667-1.686 8.857-1.686.883 0 1.768.047 2.522.177l-1.329 2.967zm-17.32 5.268-2.967 15.938h-3.67l2.92-15.893c.087-.486.13-.972.13-1.375 0-2.832-2.123-3.982-4.998-3.982-1.728 0-3.805.533-5.268 1.33l-3.676 19.92h-3.718l6.462-34.75h3.717l-2.254 11.864c1.68-.796 3.894-1.375 5.883-1.375 4.472 0 7.573 2.39 7.573 6.553 0 .53 0 1.151-.134 1.77m-31.958-5.577c-4.207 0-7.439 3.364-8.545 8.766l13.324-1.86a10.65 10.65 0 0 0 .176-1.991c0-3.232-1.812-4.915-4.955-4.915m7.965 8.988-16.731 2.343c-.042.447-.042.843-.042 1.24 0 4.295 2.52 6.42 6.681 6.42 2.347 0 5.002-.662 6.728-1.547l.624 2.876c-1.862.974-4.74 1.683-7.927 1.683-6.02 0-9.6-3.453-9.6-9.475 0-7.525 4.553-15.36 12.747-15.36 5.176 0 8.054 3.1 8.054 7.88a15.1 15.1 0 0 1-.533 3.94m-32.357.13 9.073 12.396h-4.2l-8.856-12.263h-.09l-2.304 12.263h-3.625l6.458-34.747h3.632l-4.03 21.78h.091l12.22-10.89h4.557zm-10.825-8.81a12.018 12.018 0 0 0-1.815-.129c-1.727 0-3.718.396-4.959.929l-3.763 20.407h-3.72l4.208-22.665c2.389-1.017 5.667-1.684 8.855-1.684.884 0 1.769.047 2.518.179zm-24.965-.306c-4.207 0-7.442 3.362-8.544 8.766l13.324-1.86c.131-.713.18-1.375.18-1.995 0-3.23-1.82-4.911-4.96-4.911m7.967 8.984-16.734 2.347c-.043.445-.043.841-.043 1.24 0 4.291 2.523 6.42 6.683 6.42 2.346 0 5.003-.662 6.73-1.549l.62 2.876c-1.86.974-4.737 1.683-7.923 1.683-6.023 0-9.605-3.453-9.605-9.475 0-7.523 4.558-15.36 12.746-15.36 5.18 0 8.057 3.098 8.057 7.879 0 1.33-.178 2.611-.531 3.939m-33.624 12.53h-4.077l-4.427-32.053h4.032l2.742 23.727c.176 1.642.263 3.72.263 4.338h.089c.268-.662.93-2.389 1.859-4.338l11.557-23.727h4.202zm217.034-74.97a11.74 11.74 0 0 0-1.816-.13c-1.727 0-3.713.397-4.954.925l-3.763 20.413h-3.72l4.203-22.667c2.394-1.023 5.669-1.685 8.854-1.685.89 0 1.77.045 2.524.18zm-24.965-.311c-4.205 0-7.438 3.366-8.541 8.766l13.32-1.857c.136-.709.178-1.374.178-1.995 0-3.23-1.814-4.914-4.957-4.914m7.966 8.99-16.732 2.344c-.044.441-.044.838-.044 1.24 0 4.295 2.526 6.42 6.688 6.42 2.342 0 4.999-.665 6.727-1.55l.62 2.876c-1.86.974-4.737 1.683-7.925 1.683-6.022 0-9.608-3.453-9.608-9.47 0-7.531 4.56-15.366 12.751-15.366 5.18 0 8.056 3.101 8.056 7.881 0 1.328-.176 2.61-.533 3.94m-31.083-8.85c-7.084 0-9.385 6.858-9.385 11.375 0 3.715 1.942 6.196 5.752 6.196 1.593 0 3.411-.354 4.694-.973l2.921-15.893c-.75-.402-2.3-.707-3.982-.707m3.805 21.465c-1.197 6.423-5.178 9.876-11.598 9.876-3.144 0-5.934-.755-7.704-1.774l1.641-2.83c1.373.794 3.85 1.458 6.195 1.458 4.293 0 7.039-2.476 7.837-6.73l.353-1.99c-1.37.622-3.273 1.02-5.089 1.02-5.135 0-8.5-3.454-8.5-8.896 0-6.2 3.32-14.568 13.856-14.568 2.921 0 5.58.754 7.216 1.686zm-17.71-21.288a11.807 11.807 0 0 0-1.82-.13c-1.721 0-3.714.397-4.953.925l-3.764 20.412h-3.722l4.21-22.667c2.393-1.022 5.665-1.684 8.85-1.684.888 0 1.771.045 2.526.18zm-20.356 19.964c-2.171.975-5.138 1.726-8.546 1.726-5.576 0-8.236-2.611-8.236-6.683 0-.62.047-1.374.18-2.035l2.877-15.627h3.72l-2.924 15.582a9.345 9.345 0 0 0-.134 1.547c0 2.657 1.373 4.122 4.827 4.122 2.037 0 3.896-.402 4.959-.845l3.805-20.406h3.679zm-29.997-20.053c-1.593 0-3.408.398-4.603.976l-3.188 17.043c.754.398 2.301.75 3.939.75 6.95 0 9.562-7.124 9.562-12.304 0-4.074-2.125-6.465-5.71-6.465m-4.56 21.777c-2.834 0-5.621-.749-7.308-1.68l6.244-33.553h3.721l-2.17 11.554c1.329-.575 3.183-.972 5.003-.972 5.223 0 8.455 3.537 8.455 9.03 0 6.552-3.232 15.623-13.945 15.623m-10.201-20.669c-1.105-.753-2.965-1.284-4.824-1.284-3.406 0-5.268 1.99-5.268 4.291 0 1.948 1.68 2.793 3.897 3.68 2.916 1.193 5.662 2.698 5.662 6.148 0 3.81-2.699 7.836-9.958 7.836-2.389 0-5.357-.706-6.997-1.68l1.727-2.745c1.285.752 3.676 1.416 5.582 1.416 4.163 0 5.84-2.436 5.84-4.605 0-1.992-1.769-2.876-4.072-3.804-2.788-1.108-5.4-2.612-5.4-6.023 0-3.85 2.877-7.394 8.987-7.394 2.611 0 5.044.711 6.507 1.685zm-25.71-1.195c-7.08 0-9.386 6.86-9.386 11.378 0 3.714 1.948 6.195 5.758 6.195 1.592 0 3.41-.354 4.693-.972l2.918-15.894c-.754-.402-2.303-.707-3.982-.707m3.806 21.467c-1.196 6.42-5.18 9.872-11.597 9.872-3.145 0-5.93-.754-7.704-1.771l1.641-2.83c1.373.793 3.85 1.459 6.195 1.459 4.296 0 7.04-2.478 7.836-6.73l.352-1.992c-1.372.622-3.272 1.02-5.088 1.02-5.138 0-8.499-3.453-8.499-8.896 0-6.198 3.317-14.568 13.857-14.568 2.917 0 5.574.755 7.215 1.687zm-23.734-1.328c-2.171.976-5.136 1.727-8.542 1.727-5.58 0-8.237-2.612-8.237-6.682 0-.62.047-1.377.176-2.036l2.881-15.627h3.72l-2.922 15.582a9.159 9.159 0 0 0-.135 1.547c0 2.656 1.369 4.121 4.827 4.121 2.036 0 3.895-.402 4.955-.844l3.806-20.406h3.678zM312.76 117.29a30.44 30.44 0 0 1-.307-3.673h-.088c-.134.356-.978 2.39-1.64 3.671l-6.859 12.974H314.8l-2.039-12.974zm3.943 25.235-1.459-9.343H302.36l-4.912 9.343h-4.12l17.398-32.05h4.38l5.495 32.048z" style="fill:#000;fill-opacity:1;fill-rule:nonzero;stroke:none;stroke-width:1.67618"/><path d="M47.225 110.344.186 196.25h27.657l30.171-55.157 19.382 55.156h27.657l-30.227-85.904z" style="fill:#0070ae;fill-opacity:1;fill-rule:nonzero;stroke:none;stroke-width:1.67618"/><path d="m90.071 110.344 30.172 85.904H147.9l47.036-85.904H167.28l-30.17 55.157-19.433-55.157H90.07z" style="fill:#50bede;fill-opacity:1;fill-rule:nonzero;stroke:none;stroke-width:1.67618"/><path d="m244.856 110.344-30.224 55.157-13.566-38.656-16.815 30.746 13.567 38.657h27.657l47.038-85.904z" style="fill:#c2ce00;fill-opacity:1;fill-rule:nonzero;stroke:none;stroke-width:1.67618"/><path d="M74.852 110.351H47.215v.002l10.808 30.746 16.829-30.746z" style="fill:#005386;fill-opacity:1;fill-rule:nonzero;stroke:none;stroke-width:1.67618"/><path d="M120.264 196.274H147.9l-10.807-30.748z" style="fill:#009ad5;fill-opacity:1;fill-rule:nonzero;stroke:none;stroke-width:1.67618"/><path d="M197.821 196.274h27.64l-10.811-30.748z" style="fill:#90b912;fill-opacity:1;fill-rule:nonzero;stroke:none;stroke-width:1.67618"/></svg>