<svg version="1.0" width="800" height="320" viewBox="-3.823 -3.823 346.653 138.539" xmlns="http://www.w3.org/2000/svg"><path d="M-3.823-3.862H342.83V134.8H-3.823z" fill="#fff" style="clip-rule:evenodd;fill-rule:evenodd;stroke-width:.346653;stroke-linejoin:round;stroke-miterlimit:2"/><path d="M-3.574 111.794h346.148V18.003H-3.574z" style="fill:#ffcb08;fill-opacity:1;fill-rule:nonzero;stroke:none;stroke-width:.764361"/><path d="M41.327 61.087v6.483h274.951v-6.483z" style="fill:#0073b2;fill-opacity:1;fill-rule:nonzero;stroke:none;stroke-width:.807211"/><path d="M132.409 63.566c0 12.297-9.98 22.28-22.277 22.28-12.298 0-22.281-9.983-22.281-22.28s9.983-22.277 22.28-22.277c12.298 0 22.278 9.98 22.278 22.277M70.051 63.566c0 12.297-9.984 22.28-22.28 22.28-12.298 0-22.278-9.983-22.278-22.28s9.98-22.277 22.277-22.277 22.281 9.98 22.281 22.277M194.77 63.566c0 12.297-9.983 22.28-22.28 22.28-12.298 0-22.281-9.983-22.281-22.28s9.983-22.277 22.28-22.277c12.298 0 22.282 9.98 22.282 22.277M257.203 63.566c0 12.297-9.983 22.28-22.28 22.28-12.298 0-22.282-9.983-22.282-22.28s9.984-22.277 22.281-22.277c12.298 0 22.281 9.98 22.281 22.277M319.557 63.566c0 12.297-9.984 22.28-22.28 22.28-12.298 0-22.282-9.983-22.282-22.28s9.984-22.277 22.281-22.277c12.297 0 22.281 9.98 22.281 22.277" style="fill:#0073b2;fill-opacity:1;fill-rule:evenodd;stroke:none;stroke-width:.807211"/><path d="M100.909 72.072h5.636v-2.267h.06c1.044 1.537 3.172 2.523 5.38 2.523 4.217 0 7.33-3.33 7.33-7.923 0-4.532-3.074-7.784-7.311-7.784-2.188 0-3.843.769-5.459 2.542v-8.671h-5.557v2.601h2.601V69.47h-2.68zm5.735-7.47c0-3.094 1.97-5.281 4.769-5.281 2.03 0 4.73 1.38 4.73 5.025 0 3.114-2.03 5.38-4.81 5.38-2.719 0-4.69-2.207-4.69-5.124zM164.827 64.563c0 4.552 3.37 7.962 7.883 7.962s7.923-3.41 7.923-7.962c0-4.533-3.37-7.942-7.883-7.942-4.553 0-7.923 3.41-7.923 7.942zm3.193 0c0-2.877 2.03-5.084 4.69-5.084 2.7 0 4.75 2.207 4.75 5.084 0 2.936-2.05 5.085-4.75 5.085-2.66 0-4.69-2.149-4.69-5.085zM245.115 69.47h-2.74V50.492h-5.852v2.601h2.877v5.952c-1.498-1.596-3.252-2.424-5.282-2.424-4.237 0-7.45 3.469-7.45 8.02 0 5.361 3.982 7.687 7.391 7.687 2.09 0 3.784-.789 5.34-2.483v2.227h5.716zm-15.254-4.927c0-2.995 2.03-5.222 4.69-5.222 2.878 0 4.849 2.07 4.849 5.084 0 3.055-2.01 5.321-4.809 5.321-2.798 0-4.73-2.108-4.73-5.183zM290.09 64.563c0 4.552 3.37 7.962 7.884 7.962 4.513 0 7.922-3.41 7.922-7.962 0-4.533-3.37-7.942-7.883-7.942-4.552 0-7.922 3.41-7.922 7.942zm3.193 0c0-2.877 2.03-5.084 4.69-5.084 2.7 0 4.75 2.207 4.75 5.084 0 2.936-2.05 5.085-4.75 5.085-2.66 0-4.69-2.149-4.69-5.085z" style="fill:#fff;fill-opacity:1;fill-rule:nonzero;stroke:none;stroke-width:.807211"/><path d="M42.055 53.562c.07-.61.461-.981 1.206-1.056 0 0 5.258-.552 10.02-.556 4.76-.011 10.014.532 10.014.532.745.075 1.136.47 1.21 1.08l1.672 20.95a21.75 21.75 0 0 1-3.224 4.102 22.213 22.213 0 0 1-3.469 2.83v-1.072l-12.057-.027-.012 1.537c0 .225-.09.441-.248.603a.847.847 0 0 1-.607.252h-2.483a.846.846 0 0 1-.607-.252.867.867 0 0 1-.248-.603l.039-2.07s-2.657-1.26-2.657-2.987l.083-4.761h-.015c.055-5.59.425-11.793 1.383-18.502zm4.154 2.082h14.012V53.49H46.21zm15.51 19.97a1.94 1.94 0 0 0 2.731 0 1.955 1.955 0 0 0 0-2.738 1.934 1.934 0 0 0-1.363-.568c-.513 0-1.002.205-1.368.568a1.955 1.955 0 0 0 0 2.74zm-12.834 2.41a.856.856 0 0 0 .607.251s1.944.19 3.91.19c1.987 0 3.985-.19 3.985-.19.233 0 .465-.09.627-.252a.879.879 0 0 0 .256-.61v-.935a.892.892 0 0 0-.252-.615.834.834 0 0 0-.6-.248s-1.986.193-3.972.193c-1.96 0-3.934-.193-3.934-.193a.846.846 0 0 0-.607.248.894.894 0 0 0-.272.615v.934c0 .233.09.45.252.611zm-6.436-2.41a1.933 1.933 0 1 0 2.728-2.738 1.925 1.925 0 0 0-2.728 0 1.95 1.95 0 0 0-.564 1.367c0 .517.205 1.005.564 1.372zm20.992-5.67c.6 0 1.092-.47 1.057-1.08l-1.025-10.702c-.067-.61-.457-1.1-1.064-1.1l-9.003.028-9.262-.028c-.6 0-.99.47-1.064 1.08l-.75 10.717a1.046 1.046 0 0 0 1.053 1.108s5.006.571 10.023.563c5.022-.004 10.035-.587 10.035-.587" style="fill:#fff;fill-opacity:1;fill-rule:evenodd;stroke:none;stroke-width:.807211"/></svg>