<svg xmlns="http://www.w3.org/2000/svg" viewBox="0 0 800.008 320"><path d="M0 0h800v320H0Z" fill="#fff" style="stroke-width:.8"/><g fill="#3c8125"><path d="M739.2 122.915c32.686-31.677 60.808-16.714 60.808-16.714l-10.904 36.24s-40.539-9.895-53.963 21.013l-18.996 126.445-35.471.265-4.139-4.59 26.425-179.877 31.677-.636 4.935 5.2-.372 12.681zM290.517 218.32c36.718 10.001 55.449 9.073 55.449 9.073 22.153-.557 37.408-5.704 36.904-47.437l-.85-21.94s-2.228-46.695-40.06-55.025c-1.486-.345-6.58-.477-8.862 0-43.802 10.029-49.054 63.726-50.195 80.76.079.105-27.194-10.534-27.194-10.534s.212-25.177-17.723-36.48c-3.422-2.652-30.563-13.9-30.563-13.9l-4.218 13.291-18.545-8.437c-8.118-3.581-14.644 8.437-5.704 12.84 0 .054 19.181 9.047 19.181 9.047l-6.739 21.517-16.449-7.27c-8.649-3.554-13.133 9.206-5.386 12.947 0 .053 16.37 7.588 16.37 7.588l-3.714 13.053s24.275 13.636 30.908 14.379c19.977 2.546 32.713-11.408 32.713-11.408l8.649 4.643 9.71 4.642 9.71 3.582s8.861 3.158 8.861 2.733c12.868 118.936 171.865 93.202 181.124-44.492-73.224 147.404-170.645 71.42-173.324 46.8m-2.999-33.375c31.89-86.038 88.507-40.14 92.804-10.904 1.008 3.608-6.712 19.022-24.726 21.676-35.179.717-67.918-9.1-68.05-10.772"/><path d="M525.656 218.319c36.744 10.001 55.448 9.073 55.448 9.073 22.153-.557 37.408-5.704 36.904-47.437l-.85-21.94s-2.227-46.695-40.06-55.025c-1.407-.292-6.633-.371-8.862 0-43.802 10.029-49.054 63.726-50.195 80.76.08.105-27.194-10.534-27.194-10.534s.212-25.177-17.722-36.48c-3.45-2.652-30.59-13.9-30.59-13.9l-4.22 13.291-18.544-8.437c-8.118-3.581-14.644 8.437-5.704 12.84 0 .054 19.182 9.047 19.182 9.047l-6.74 21.517-16.449-7.27c-8.649-3.554-13.133 9.206-5.385 12.947 0 .053 16.369 7.588 16.369 7.588l-3.714 13.053s24.275 13.636 30.908 14.379c19.977 2.546 32.713-11.408 32.713-11.408l8.649 4.643 9.71 4.642 9.71 3.582s8.862 3.158 8.862 2.733c12.867 118.936 171.864 93.202 181.123-44.492-73.224 147.404-170.644 71.42-173.324 46.8m-2.971-33.375c31.89-86.038 88.506-40.14 92.803-10.904 1.008 3.608-6.712 19.022-24.726 21.676-35.179.717-67.918-9.1-68.05-10.772m-409.18 88.294c-16.714 13.371-27.67 19.474-48.391 19.474-37.753 0-75.586-21.596-61.79-99.834 12.178-69.112 56.642-90.708 83.704-90.708 20.057 0 32.394 4.086 44.757 16.45l13.37-91.212 35.313.398 4.802 4.616-38.283 256.63-32.872-.292zM94.324 135.305c-27.405 0-44.093 30.75-48.948 55.396-7.137 36.081-6.712 72.455 34.994 66.67 14.565-2.016 25.071-10.214 34.092-21.913l11.567-79.751c-7.349-10.347-17.352-20.376-31.705-20.376"/></g></svg>