<svg xml:space="preserve" width="800" height="320" version="1.1" style="clip-rule:evenodd;fill-rule:evenodd;image-rendering:optimizeQuality;shape-rendering:geometricPrecision;text-rendering:geometricPrecision" viewBox="0 0 8333.334 3333.334" id="svg1" xmlns="http://www.w3.org/2000/svg"><defs id="defs1"><style type="text/css" id="style1">.fil0{fill:#373435;fill-rule:nonzero}</style></defs><path d="M0 0h8333.334v3333.333H0z" fill="#fff" id="path1-0" style="clip-rule:evenodd;fill:none;fill-rule:evenodd;stroke-width:59.3805;image-rendering:optimizeQuality;shape-rendering:geometricPrecision;text-rendering:geometricPrecision"/><g id="Layer_x0020_1" transform="matrix(1.4232 0 0 1.4232 52.097 286.878)"><path id="_2WF" class="fil0" d="M120.53 1051.56h1218.41V827.88H-.01l120.53 223.68zm301.32 448.79h917.09v-223.68H301.32zm301.32 448.79h861.42c-32.45-20.76-63.13-45.56-91.94-74.37-45.26-45.26-80.66-95.18-106.03-149.31H602.64zM2088.86 570.13v933.08c0 61.98-22.32 114.69-66.96 158.62-44.41 43.69-97.36 66.02-158.62 66.02-61.97 0-114.93-22.32-158.85-66.02-43.93-43.93-66.25-96.64-66.25-158.62V827.89h-226.06v676.03c0 124.42 43.93 230.8 132.26 319.14 88.33 88.33 194.72 132.26 319.61 132.26 123.95 0 230.33-43.93 318.9-132.26 88.33-88.33 132.02-194.72 132.02-319.14V570.13h216.14L2201.88 0l-329.17 570.13h216.14z"/><path id="_2WT" class="fil0" d="M2604.23 1063.13v83.14h250.04v-83.14zm398.93-7.76v424.53h83.5v-230.63l249.95 238.39v-424.54h-83.49v230.36l-249.96-238.13zm374.94 7.76v416.77h83.5v-166.81h124.89v-83.14H3461.6v-83.67h166.55v-83.14h-250.04zm568.05 424.62H3856.92l-98.76-227.36-98.76 227.36h-88.17l187.2-424.62 187.73 424.62zm234.87-426.65c-57.9 0-107.5 20.65-148.63 62.05-41.04 41.39-61.69 91.08-61.69 148.98 0 57.98 20.65 107.59 61.69 148.72 41.13 41.04 90.73 61.61 148.63 61.61 28.95 0 56.13-5.38 81.73-16.5 25.59-11.03 48.1-26.04 67.52-45.1l-59.49-59.49c-24.8 24.8-54.54 37.25-89.5 37.25-34.86 0-64.61-12.44-89.14-36.98-24.63-24.54-36.98-54.28-36.98-89.23 0-34.69 12.36-64.43 36.98-89.23 24.54-24.8 54.28-37.24 89.14-37.24 34.42 0 64.17 12.44 89.23 37.24l59.49-59.49c-19.42-18.89-41.93-33.89-67.52-45.01-25.6-11.12-52.69-16.5-81.73-16.5l.27-1.06zm179.96 2.03v416.77h83.5v-166.81h124.62v166.81h83.5v-416.77h-83.5v166.82h-124.62v-166.82zm-1474.07-102.5v821.59c0 113.56-192.52 112.61-192.52 0V1531.2h-84.02V1782.48c0 223.77 360.58 223.97 360.58 0V960.63h55.5l-50.56-87.56-50.54-87.54-50.54 87.54-50.56 87.56h62.67zm116.25 562.82v424.53h83.5v-230.63l249.95 238.39V1531.2h-83.49v230.36l-249.96-238.13zm479.17 7.76H3378.1v83.14h104.23v333.63h83.5v-333.63h104.24v-83.14h-104.24zm218.72 0v416.77h250.05v-83.14h-166.55v-83.67h124.89v-83.14h-124.89v-83.67h166.55v-83.14h-250.04zm288.8 416.77h83.5v-162.93l106.53 162.93h101.94l-94.18-145.1c27.45-10.33 42.19-17.57 59.75-42.46 17.57-24.8 26.39-47.57 26.39-78.64v-12.89c0-40.07-11.65-66.99-40.34-95.59-28.77-28.69-68.31-42.54-108.38-42.54h-135.48l.26 417.21zm320.3-416.77 166.55 424.62 75.99-206.62 77.58 206.62 166.55-424.62h-90.03l-76.52 196.56-76.79-196.56-76.79 196.56-76.79-196.56h-89.76zm517.74 0v416.77h250.05v-83.14h-166.55v-83.67h124.89v-83.14h-124.89v-83.67h166.55v-83.14H4827.9zm488.88-2.29c-57.81 0-107.5 20.65-148.54 62.05-41.04 41.39-61.69 91.08-61.69 148.98 0 57.99 20.65 107.85 61.69 148.98 41.04 41.04 90.73 61.61 148.54 61.61 57.9 0 107.41-20.56 148.72-61.61 41.31-41.13 61.96-91 61.96-148.98 0-14.74-1.23-28.69-4.06-41.83H5317.3v84.02h119.06c-8.83 24.63-24.01 44.84-45.45 60.72-21.45 15.8-45.98 23.57-73.35 23.57-34.86 0-64.61-12.44-89.14-37.07-24.54-24.63-36.98-54.46-36.98-89.41 0-34.6 12.44-64.34 36.98-89.23 24.54-24.8 54.28-37.25 89.14-37.25 34.33 0 64.08 12.44 89.06 37.25l59.4-59.49c-19.33-18.89-41.83-33.89-67.34-45.01-25.59-11.12-52.69-16.51-81.64-16.51zm365.32 336.98c-23.39 0-42.28-18.89-42.28-42.1h-84.2c0 34.86 12.44 64.61 37.16 89.32 24.8 24.8 54.55 37.24 89.59 37.24 34.78 0 64.52-12.44 89.32-37.24 24.8-24.71 37.24-54.46 37.24-89.32 0-23.57-6-42.98-17.56-57.99-19.94-25.59-48.89-45.54-81.02-54.81-29.83-8.83-27.01-5.74-51.9-21.71-12.18-7.76-18.09-19.15-18.09-34.15 0-23.04 19.15-42.19 42.28-42.19 22.77 0 42.01 19.15 42.01 41.92h84.02c0-34.69-12.44-64.43-37.24-89.23-24.8-24.8-54.55-37.25-89.32-37.25-35.04 0-64.78 12.44-89.5 37.25-24.8 24.8-37.25 54.54-37.25 89.23 0 23.04 5.74 42.19 17.04 57.63 19.15 26.13 47.48 47.13 78.29 57.72 29.3 10.06 22.06 7.5 52.16 18.62 14.3 5.21 21.27 16.59 21.27 34.42 0 23.04-19.24 42.19-42.28 42.19l.27.44zm-3077.86-635.95v83.14h250.04v-83.14zm0 174.58v83.14h250.04v-83.14zm1468.84 326.68v-117.39h46.78c17.39 0 39.1 4.41 51.28 16.77 12.09 12.44 16.5 23.83 16.5 40.87 0 17.39-4.41 31.33-16.5 43.43-12.18 12.18-21 16.59-38.3 16.59l-59.75-.26z"/></g></svg>