<svg viewBox="0 0 800 320" version="1.1" id="svg2" xml:space="preserve" xmlns="http://www.w3.org/2000/svg"><defs id="defs1"><path id="B" d="M100.3-65.5h594.1v594.1H100.3z"/><path id="SVGID_1_" d="M97.97 68.4c0 7.41 6.04 13.42 13.49 13.42s13.48-6.01 13.48-13.42-6.04-13.42-13.48-13.42c-7.45 0-13.49 6-13.49 13.42"/><path id="SVGID_00000044898771460269573090000010456118392746125217_" d="M120.62 68.4c0 7.41 6.04 13.42 13.49 13.42s13.49-6.01 13.49-13.42-6.04-13.42-13.49-13.42-13.49 6-13.49 13.42"/><path id="SVGID_00000127743730624216497450000002043249572621365943_" d="M143.27 68.4c0 7.41 6.04 13.42 13.48 13.42 7.45 0 13.48-6.01 13.48-13.42s-6.04-13.42-13.48-13.42-13.48 6-13.48 13.42"/><path id="SVGID_00000162329239644862310090000004140755303673011123_" d="M165.92 68.4c0 7.41 6.04 13.42 13.48 13.42 7.45 0 13.49-6.01 13.49-13.42s-6.04-13.42-13.49-13.42c-7.44 0-13.48 6-13.48 13.42"/><path id="SVGID_00000079476757253046130470000001117058738893821098_" d="M188.57 68.4c0 7.41 6.04 13.42 13.49 13.42s13.49-6.01 13.49-13.42-6.04-13.42-13.49-13.42-13.49 6-13.49 13.42"/><path id="SVGID_00000132771776994441339210000010272632559138794632_" d="M211.22 68.4c0 7.41 6.04 13.42 13.49 13.42s13.48-6.01 13.48-13.42-6.04-13.42-13.48-13.42c-7.45 0-13.49 6-13.49 13.42"/><clipPath id="A"><use href="#B" id="use1"/></clipPath><clipPath id="clipPath6935"><path d="M549.227 732.295c-1.846-1.623-2.791-4.136-2.791-6.064v-8.709c0-1.684-.798-2.611-2.16-2.611-1.363 0-2.146.872-2.146 2.683v8.549c.21 3.412-2.252 8.278-8.329 8.278-7.689 0-8.539-7.051-8.539-8.286v-8.784c0-1.307-.385-2.481-2.063-2.481-1.401 0-2.104 1.421-2.104 2.519v8.949s.455 3.093-2.184 5.732c-2.638 2.638-6.146 2.269-6.146 2.269l-23.181-.004c-4.451-.001-7.423-2.486-7.423-7.008 0-1.157.411-4.411 4.453-6.847 4.041-2.437 4.701-3.627 4.661-4.329-.041-.702-.933-1.357-2.434-1.357h-10.597c-1.341 0-4.046.035-5.322 1.152-1.276 1.116-1.858 3.007-1.858 3.007l5.859.003c1.079 0 2.556.99 2.556 2.762 0 1.773-1.62 2.724-2.68 2.724h-5.858c.578 1.155 1.025 2.185 2.383 3.095 1.315.884 3.06.897 4.423.902l1.65.004v5.937l-3.258-.045c-7.382-.1-11.96-6.019-11.96-12.739 0-6.721 4.438-12.582 12.001-12.582h13.69c6.18 0 8.17 3.465 8.17 7.342s-3.34 6.106-5.445 7.631c-2.104 1.527-3.932 2.267-3.959 3.673-.016.866.977.739 1.773.739l11.794.004v-19.306h6.312v19.346l4.333-.004c.67-.001 1.156-.328 1.608-.779.451-.452.411-1.294.411-1.817v-9.198c0-5.954 4.701-7.793 8.291-7.793 5.47 0 8.456 4.243 8.456 8.204v9.087c0 1.558 1.155 2.276 2.101 2.214 1.405-.091 2.245-.536 2.245-2.514v-8.661c0-3.634 2.584-8.291 8.11-8.291 5.527 0 8.621 3.979 8.621 8.369v8.71c0 .729.117 1.275.737 1.906.689.702 1.572.567 1.572.567v6.061s-3.277-.013-5.773-2.209" id="path6937"/></clipPath><style type="text/css" id="style1-4"></style></defs><path d="M0 0h800v320H0z" fill="#fff" id="path1" style="fill:none"/><g id="g64" transform="matrix(5.9812 0 0 5.98121 0 22.1)" style="stroke-width:1.25406"><path d="M19.023.155v7.421l-2.064.008c-1.704.004-3.884.023-5.528 1.125-1.698 1.139-2.256 2.424-2.978 3.87h7.322c1.325 0 3.35 1.188 3.35 3.403 0 2.216-1.847 3.452-3.196 3.453l-7.323.004s.728 2.365 2.322 3.76c1.597 1.395 4.977 1.44 6.653 1.44h13.247c1.877 0 2.99-.82 3.042-1.696.051-.876-.774-2.364-5.826-5.411-5.053-3.046-5.567-7.113-5.567-8.56 0-5.654 3.715-8.758 9.278-8.76L60.734.207s4.383-.461 7.681 2.836c3.297 3.298 2.73 7.165 2.73 7.165v11.186c0 1.373.879 3.15 2.63 3.15 2.096 0 2.58-1.467 2.58-3.1V10.46c0-1.544 1.061-10.357 10.671-10.357 7.598 0 10.675 6.083 10.412 10.348v10.686c0 2.264.98 3.353 2.683 3.353 1.703 0 2.7-1.158 2.7-3.263V10.344c0-2.412 1.18-5.553 3.489-7.58 3.12-2.747 7.216-2.76 7.216-2.76v7.573s-1.102-.17-1.965.709c-.774.788-.921 1.472-.921 2.382v10.886c0 5.488-3.868 10.462-10.775 10.462-6.91 0-10.14-5.819-10.14-10.364V10.828c0-2.474-1.049-3.029-2.806-3.144-1.182-.076-2.625.82-2.625 2.768v11.359c0 4.951-3.733 10.256-10.57 10.256-4.487 0-10.364-2.3-10.364-9.74V10.828c0-.654.05-1.707-.515-2.271-.564-.565-1.171-.973-2.009-.973l-5.416-.008v24.182h-7.889V7.629l-14.743.004c-.995 0-2.237-.159-2.217.924.033 1.756 2.319 2.682 4.95 4.59 2.63 1.907 6.804 4.693 6.804 9.54 0 4.845-2.486 9.177-10.21 9.177H15.001C5.547 31.864 0 24.538 0 16.137 0 7.737 5.721.339 14.95.212l4.072-.056" id="path6929" style="fill:#005da8;fill-opacity:1;fill-rule:nonzero;stroke:none;stroke-width:1.25406"/><g transform="matrix(1.25 0 0 -1.25 -580.224 918.13)" clip-path="url(#clipPath6935)" id="g6933" style="stroke-width:1.25406"><path d="M464.179 708.852H479.4v25.856h-15.221z" id="path6939" style="fill:#1ba77f;fill-opacity:1;fill-rule:nonzero;stroke:none;stroke-width:1.25406"/></g><path d="M128.874 45.959h4.879V44.77h-3.465v-1.575h3.114v-1.099h-3.114V40.72h3.392v-1.189h-4.806v6.428m-6.569 0h1.414v-2.07l.81-.82 1.935 2.89h1.774l-2.755-3.89 2.513-2.538h-1.766l-2.511 2.664v-2.664h-1.414v6.428m-5.154-5.329h1.549c.629 0 .971.269.971.89 0 .649-.342.919-.971.919h-1.549zm-1.413 5.329h1.413v-2.512h1.414c.71 0 .971.297 1.071.972.072.513.054 1.135.225 1.54h1.414c-.255-.36-.245-1.117-.271-1.522-.045-.648-.244-1.323-.937-1.503v-.018c.712-.289 1.017-.856 1.017-1.611 0-.973-.729-1.774-1.882-1.774h-3.464v6.428m-5.9 0h4.88V44.77h-3.467v-1.575h3.115v-1.099h-3.115V40.72h3.393v-1.189h-4.807v6.428m-.715-6.428h-1.386l-1.054 4.429h-.017l-1.099-4.429h-1.322l-1.117 4.375h-.02l-1.016-4.375h-1.412l1.7 6.428h1.432l1.07-4.375h.019l1.09 4.375h1.404l1.729-6.428M97.129 45.96h1.414V40.72h1.926v-1.189h-5.266v1.189h1.926v5.239m-6.745-5.239h1.007c1.404 0 1.855.827 1.855 2.124 0 1.422-.783 1.926-1.602 1.926h-1.26zm-1.414 5.239h2.773c1.962 0 2.917-1.387 2.917-3.25 0-2.134-1.252-3.178-2.917-3.178H88.97v6.428m-3.777-4.844h.018l.81 2.359h-1.665l.836-2.359zm-3.14 4.844h1.43l.505-1.432h2.402l.486 1.432h1.468L85.94 39.53h-1.447l-2.44 6.428m-2.794 0h1.414V40.72h1.926v-1.189h-5.266v1.189h1.926v5.239m-7.738-2.134c-.018 1.584 1.315 2.286 2.737 2.286 1.746 0 2.673-.881 2.673-2.061 0-1.459-1.44-1.755-1.908-1.873-1.612-.413-1.918-.477-1.918-.972 0-.541.523-.729.973-.729.675 0 1.223.199 1.268.973h1.369c0-1.487-1.232-2.072-2.574-2.072-1.161 0-2.403.63-2.403 1.945 0 1.207.962 1.575 1.916 1.828.946.252 1.91.369 1.91 1.062 0 .657-.758.802-1.253.802-.756 0-1.421-.334-1.421-1.189h-1.369m-7.318-3.195h1.547c.631 0 .973.269.973.89 0 .649-.342.919-.973.919h-1.547zm-1.413 5.329h1.413v-2.512h1.412c.713 0 .974.297 1.073.972.07.513.053 1.135.225 1.54h1.412c-.252-.36-.244-1.117-.27-1.522-.045-.648-.242-1.323-.936-1.503v-.018c.711-.289 1.017-.856 1.017-1.611 0-.973-.728-1.774-1.881-1.774H62.79v6.428m-5.901 0h4.879V44.77h-3.464v-1.575h3.114v-1.099h-3.114V40.72h3.392v-1.189H56.89v6.428m-2.109 0h.9v-3.475h-2.7v1.053h1.423c-.082.89-.613 1.385-1.532 1.385-1.268 0-1.747-1.08-1.747-2.15 0-1.126.479-2.206 1.747-2.206.667 0 1.198.369 1.36 1.08h1.35c-.152-1.457-1.395-2.269-2.71-2.269-1.988 0-3.16 1.487-3.16 3.394 0 1.855 1.172 3.34 3.16 3.34.622 0 1.27-.242 1.765-.881l.144.729m-11.526 0h1.324v-4.304h.017l2.674 4.304h1.414V39.53h-1.324v4.311h-.018l-2.682-4.31h-1.405v6.427m-3.776-4.844h.017l.811 2.359h-1.665zm-3.142 4.844h1.432l.503-1.432h2.404l.486 1.432h1.47l-2.406-6.428h-1.447l-2.442 6.428m-4.72 0h4.548V44.77H33.03v-5.239h-1.414v6.428m-5.153-5.329h1.547c.63 0 .973.269.973.89 0 .649-.343.919-.973.919h-1.547zm-1.414 5.329h1.414v-2.512h1.413c.71 0 .972.297 1.07.972.073.513.055 1.135.225 1.54h1.414c-.252-.36-.244-1.117-.27-1.522-.045-.648-.242-1.323-.936-1.503v-.018c.711-.289 1.016-.856 1.016-1.611 0-.973-.729-1.774-1.88-1.774H25.05v6.428m-5.9 0h4.879V44.77h-3.465v-1.575h3.113v-1.099h-3.113V40.72h3.393v-1.189H19.15v6.428" id="path7011" style="fill:#005da8;fill-opacity:1;fill-rule:nonzero;stroke:none;stroke-width:1.25406"/></g></svg>