<svg version="1.1" id="Layer_1" xmlns="http://www.w3.org/2000/svg" xmlns:xlink="http://www.w3.org/1999/xlink" x="0px" y="0px"
	 width="100%" viewBox="0 0 357 253" enable-background="new 0 0 357 253" xml:space="preserve">
<path fill="#FEFEFD" opacity="1.000000" stroke="none" 
	d="
M248.000000,254.000000 
	C165.333359,254.000000 83.166718,254.000000 1.000055,254.000000 
	C1.000037,169.666718 1.000037,85.333435 1.000018,1.000112 
	C119.999916,1.000074 238.999832,1.000074 357.999817,1.000037 
	C357.999878,85.333221 357.999878,169.666443 357.999939,253.999832 
	C321.500000,254.000000 285.000000,254.000000 248.000000,254.000000 
M223.600662,213.169128 
	C223.522354,213.351990 223.444046,213.534851 222.899078,214.292938 
	C222.585190,215.728317 221.998962,217.166000 222.011093,218.598618 
	C222.041321,222.167999 223.302582,225.204178 227.110641,226.185715 
	C230.686630,227.107422 232.822449,225.163269 234.876526,222.318237 
	C237.561829,218.598907 235.030045,215.273331 234.457535,212.020920 
	C233.792068,208.240585 230.802689,207.484558 227.058563,210.096405 
	C226.017883,210.956223 224.977203,211.816025 223.600662,213.169128 
M155.308167,208.079269 
	C148.897766,213.035599 148.094681,216.195755 151.179718,220.765228 
	C152.653183,217.391724 154.360397,213.483093 156.759079,209.185852 
	C156.500748,208.773804 156.242432,208.361755 155.308167,208.079269 
M186.659164,230.763718 
	C190.023087,228.300659 188.329590,224.756821 188.091583,221.841461 
	C187.937042,219.948578 186.126038,217.328278 184.434998,216.694763 
	C183.067017,216.182281 180.769989,218.149689 178.363617,218.995224 
	C177.920380,219.215469 177.477142,219.435699 176.501328,220.188614 
	C175.740738,222.642319 175.111115,225.146942 174.182251,227.535187 
	C173.276688,229.863541 172.065170,232.072876 170.315338,233.922028 
	C165.907333,227.587875 167.852768,220.491135 167.875046,213.623978 
	C167.885773,210.312286 168.956741,208.353592 172.848068,208.609650 
	C175.777512,208.802414 178.315292,207.732437 178.737000,203.421432 
	C171.937454,207.190552 164.084778,203.025177 158.016510,208.601974 
	C160.525543,208.601974 163.034592,208.601974 164.169586,208.601974 
	C164.169586,215.783981 163.846558,222.396378 164.296051,228.955841 
	C164.548019,232.632950 165.401932,236.879654 171.675842,235.945465 
	C172.962952,234.724609 174.250061,233.503769 175.617432,232.206787 
	C178.686127,233.961472 181.928253,237.020493 185.530441,231.913025 
	C185.689758,231.611923 185.849075,231.310837 186.659164,230.763718 
M210.687561,225.958862 
	C212.358902,224.763016 214.030243,223.567169 215.683533,223.248093 
	C215.119995,228.161484 214.556458,233.074890 213.274429,238.227463 
	C207.774887,239.713699 206.567337,238.697983 205.223755,230.998322 
	C202.449127,234.408051 202.230499,237.424072 205.151978,240.311920 
	C207.884766,243.013275 211.416794,242.453644 215.565338,238.608780 
	C221.593155,229.244919 217.870865,219.347061 218.485031,208.659821 
	C212.722824,211.554749 214.881958,215.856796 213.309204,219.403961 
	C212.206482,220.968170 211.103775,222.532379 209.236328,224.105499 
	C204.500504,222.279663 202.338806,217.565536 202.885147,210.564133 
	C203.050476,208.445389 202.910736,206.302841 202.910736,203.389648 
	C199.180328,209.540024 198.164413,215.283295 200.691849,221.198578 
	C202.366180,225.117233 205.047073,228.021500 210.687561,225.958862 
M274.479706,45.801662 
	C267.446228,60.167942 260.292358,74.477364 253.463745,88.940361 
	C251.750046,92.569962 249.539093,93.946304 245.588852,94.401428 
	C197.433731,99.949715 149.300110,105.684952 101.164528,111.402138 
	C93.635513,112.296371 92.560593,114.018074 94.859840,121.205421 
	C101.764107,142.787781 108.844406,164.315750 115.499207,185.974579 
	C117.094559,191.166824 119.510277,193.069809 125.027145,192.985779 
	C170.847870,192.287949 216.672882,191.869247 262.496643,191.371750 
	C269.910339,191.291275 271.035309,190.112534 270.043213,182.771713 
	C266.450012,156.185013 262.718201,129.616638 259.263000,103.012230 
	C258.872803,100.007645 259.906311,96.818161 260.428009,92.480972 
	C263.399658,94.525993 265.053406,95.565247 266.598724,96.746338 
	C270.965210,100.083641 275.122314,103.722740 279.664185,106.796288 
	C287.041748,111.788742 292.934906,110.447289 297.899139,102.987312 
	C299.373260,100.772125 300.645966,98.419540 301.954193,96.097954 
	C307.604187,86.071487 317.764526,85.475632 327.451202,83.954628 
	C328.102753,83.852341 329.065338,84.428482 329.581940,84.974289 
	C333.801147,89.432243 338.910828,89.013474 344.424011,88.402153 
	C350.214996,87.760033 352.686218,82.819717 356.869873,80.160141 
	C356.918243,80.129395 356.809174,79.850983 356.697327,79.339104 
	C354.710236,79.529312 352.673950,79.724236 350.273041,79.954056 
	C349.677399,77.078522 349.124176,74.407631 348.586548,71.812096 
	C351.774567,70.614250 354.410461,69.623856 357.617310,68.418938 
	C352.480042,67.407806 348.513306,65.728905 344.738190,66.084503 
	C338.309998,66.690025 331.832642,68.122528 328.187866,74.735077 
	C327.449066,76.075432 325.646667,77.503197 324.193329,77.671585 
	C310.015167,79.314301 298.582672,84.824692 292.847046,98.870613 
	C292.785004,99.022545 292.677338,99.156929 292.584076,99.294853 
	C289.562012,103.763382 287.461670,104.403221 283.139954,101.291420 
	C276.823059,96.743011 270.761047,91.840630 264.358246,86.910378 
	C270.432953,74.598854 276.391968,62.521786 283.022278,50.793278 
	C286.944458,53.336285 291.043945,54.418785 295.053894,51.258045 
	C298.041077,48.903458 301.528076,46.583488 303.261902,43.411495 
	C304.905609,40.404263 305.465424,36.145340 304.851624,32.733765 
	C304.119690,28.665262 300.010681,27.626663 296.141235,27.490358 
	C284.995972,27.097759 273.850006,26.685909 262.700684,26.480656 
	C260.440002,26.439037 257.997162,26.884207 255.927567,27.776146 
	C251.235352,29.798361 250.430557,34.917252 254.308731,38.262058 
	C255.851883,39.592976 258.074768,40.259701 260.093933,40.890133 
	C264.971649,42.413094 269.911682,43.736607 274.479706,45.801662 
M104.748474,164.899338 
	C95.985893,145.429794 78.533920,135.444672 58.492882,139.303406 
	C42.221626,142.436295 31.304190,152.494171 26.690456,168.359573 
	C22.069748,184.248978 25.993196,198.576630 38.144539,209.821854 
	C52.843761,223.424942 73.114929,224.762344 89.225029,214.042877 
	C105.036240,203.522293 111.198586,184.607727 104.748474,164.899338 
M283.027802,197.440964 
	C298.683594,219.469208 326.146454,227.095490 350.381256,216.144608 
	C357.639221,212.864990 358.738831,210.207275 356.098785,202.325623 
	C331.735687,219.436813 308.081482,210.762924 296.187469,198.929169 
	C281.474365,184.290558 278.379669,162.076355 288.629669,144.217117 
	C293.802582,135.204025 301.170074,128.700531 310.788483,124.899529 
	C327.097321,118.454597 342.342560,121.331650 356.684021,131.447922 
	C357.590088,120.269379 357.713165,119.807281 348.133789,116.383034 
	C342.105682,114.228233 335.558838,112.473167 329.226532,112.411743 
	C307.422699,112.200256 290.488770,121.716400 280.050171,140.929337 
	C269.799957,159.795517 271.150330,178.697296 283.027802,197.440964 
M338.593933,157.196503 
	C332.943329,154.904709 327.292725,152.612930 321.703827,150.346161 
	C316.387268,159.957382 315.088409,166.146027 318.326660,167.837479 
	C319.131012,165.632935 319.877441,163.463409 320.714111,161.329239 
	C321.531433,159.244476 322.440796,157.195786 323.298035,155.159164 
	C338.261383,160.813721 337.576782,158.999084 333.799957,169.631653 
	C331.084625,168.430450 328.417450,167.250549 325.099640,165.782837 
	C327.886536,164.586487 329.559967,163.868118 331.233398,163.149734 
	C329.310089,161.710663 327.386780,160.271591 325.063141,158.532990 
	C323.430237,162.407776 322.232452,165.250061 320.852600,168.524323 
	C326.293457,170.504410 331.219208,172.297043 337.288635,174.505890 
	C337.999725,168.437943 338.634705,163.019577 338.593933,157.196503 
M334.925598,177.667633 
	C328.196869,175.023987 321.468170,172.380325 313.083008,169.085876 
	C314.006714,171.321579 314.234161,173.635178 315.268738,174.082642 
	C320.909546,176.522400 326.739349,178.529556 332.524963,180.628113 
	C334.854401,181.473053 336.105286,180.831619 334.925598,177.667633 
M302.204498,173.758804 
	C300.650482,174.738922 299.096466,175.719025 297.542480,176.699127 
	C297.786163,177.267227 298.029877,177.835342 298.273590,178.403442 
	C302.017853,177.170914 305.805969,176.049515 309.467194,174.606354 
	C310.149506,174.337418 310.322388,172.776123 310.730408,171.811264 
	C309.647980,171.423859 308.394501,170.491364 307.519775,170.765854 
	C305.849274,171.290054 304.394562,172.501923 302.204498,173.758804 
M308.479401,184.927322 
	C307.035309,186.991028 305.591217,189.054733 303.554840,191.964859 
	C310.424103,189.292694 315.074066,183.326660 313.147186,178.923584 
	C311.548004,180.980484 310.232910,182.671997 308.479401,184.927322 
M215.412354,203.370956 
	C215.486145,204.402679 215.559937,205.434402 215.677948,207.084366 
	C218.655090,204.691254 219.276962,202.282578 217.403915,199.865875 
	C214.758270,196.452316 211.345612,196.931686 207.680634,198.599091 
	C210.389862,200.045105 212.792206,201.327332 215.412354,203.370956 
M351.401306,170.990036 
	C352.782928,170.905121 354.164520,170.820221 355.546143,170.735321 
	C355.582550,170.261368 355.618958,169.787430 355.655334,169.313492 
	C351.826874,168.694244 347.998413,168.075012 344.169952,167.455765 
	C344.037933,168.116669 343.905884,168.777573 343.773834,169.438477 
	C346.031281,169.955475 348.288757,170.472488 351.401306,170.990036 
M153.478806,223.495377 
	C153.478806,223.495377 153.439728,223.464569 153.478806,223.495377 
z"/>
<path fill="#07B5D5" opacity="1.000000" stroke="none" 
	d="
M282.350983,50.444717 
	C276.391968,62.521786 270.432953,74.598854 264.358246,86.910378 
	C270.761047,91.840630 276.823059,96.743011 283.139954,101.291420 
	C287.461670,104.403221 289.562012,103.763382 292.584076,99.294853 
	C292.677338,99.156929 292.785004,99.022545 292.847046,98.870613 
	C298.582672,84.824692 310.015167,79.314301 324.193329,77.671585 
	C325.646667,77.503197 327.449066,76.075432 328.187866,74.735077 
	C331.832642,68.122528 338.309998,66.690025 344.738190,66.084503 
	C348.513306,65.728905 352.480042,67.407806 357.617310,68.418938 
	C354.410461,69.623856 351.774567,70.614250 348.586548,71.812096 
	C349.124176,74.407631 349.677399,77.078522 350.273041,79.954056 
	C352.673950,79.724236 354.710236,79.529312 356.697327,79.339104 
	C356.809174,79.850983 356.918243,80.129395 356.869873,80.160141 
	C352.686218,82.819717 350.214996,87.760033 344.424011,88.402153 
	C338.910828,89.013474 333.801147,89.432243 329.581940,84.974289 
	C329.065338,84.428482 328.102753,83.852341 327.451202,83.954628 
	C317.764526,85.475632 307.604187,86.071487 301.954193,96.097954 
	C300.645966,98.419540 299.373260,100.772125 297.899139,102.987312 
	C292.934906,110.447289 287.041748,111.788742 279.664185,106.796288 
	C275.122314,103.722740 270.965210,100.083641 266.598724,96.746338 
	C265.053406,95.565247 263.399658,94.525993 260.428009,92.480972 
	C259.906311,96.818161 258.872803,100.007645 259.263000,103.012230 
	C262.718201,129.616638 266.450012,156.185013 270.043213,182.771713 
	C271.035309,190.112534 269.910339,191.291275 262.496643,191.371750 
	C216.672882,191.869247 170.847870,192.287949 125.027145,192.985779 
	C119.510277,193.069809 117.094559,191.166824 115.499207,185.974579 
	C108.844406,164.315750 101.764107,142.787781 94.859840,121.205421 
	C92.560593,114.018074 93.635513,112.296371 101.164528,111.402138 
	C149.300110,105.684952 197.433731,99.949715 245.588852,94.401428 
	C249.539093,93.946304 251.750046,92.569962 253.463745,88.940361 
	C260.292358,74.477364 267.446228,60.167942 274.931396,45.517776 
	C277.705750,46.970837 280.028381,48.707775 282.350983,50.444717 
M196.367355,182.143845 
	C197.212830,180.710297 198.748077,179.296417 198.789658,177.839935 
	C199.025391,169.580399 198.903763,161.310638 198.903763,153.131973 
	C206.820053,152.376114 208.715714,153.940292 208.912735,161.020248 
	C209.047104,165.848480 208.920654,170.683456 209.005356,175.513748 
	C209.132401,182.761032 210.578903,183.668533 218.161652,181.077652 
	C215.756104,169.741745 221.256546,157.051697 212.347870,146.655029 
	C219.547867,138.275192 218.312622,128.582840 215.501587,119.038048 
	C214.792511,116.630424 211.687317,113.722260 209.263290,113.263603 
	C203.218689,112.119865 196.932617,112.252357 190.657425,111.867302 
	C190.657425,135.932724 190.657425,158.833298 190.657425,182.152039 
	C192.497192,182.152039 193.974213,182.152039 196.367355,182.143845 
M169.052216,140.352417 
	C173.344498,138.860916 174.742706,141.110260 175.204193,144.920624 
	C175.811798,149.937561 172.235519,151.583878 168.695587,153.118515 
	C160.642761,156.609528 157.128952,162.689453 157.782913,171.351181 
	C158.149628,176.208237 159.164551,180.895569 164.344574,182.664795 
	C169.288834,184.353516 173.016830,181.996201 175.494904,177.167969 
	C177.204254,182.752228 178.046021,183.109467 183.269455,181.426025 
	C183.269455,169.276001 183.334137,157.318802 183.216110,145.363403 
	C183.191833,142.906952 182.778824,140.363724 182.034363,138.022888 
	C180.177704,132.184937 175.167847,129.370300 169.160614,130.464890 
	C162.138184,131.744461 157.974228,139.072403 159.837769,147.015900 
	C161.916550,147.015900 164.017532,147.015900 165.971802,147.015900 
	C166.847992,144.780441 167.617462,142.817245 169.052216,140.352417 
M248.213776,158.498047 
	C247.800797,151.724701 248.241318,144.757645 246.758957,138.227036 
	C244.902527,130.048492 234.400711,127.472221 228.425568,133.181061 
	C224.567123,136.867538 223.568710,141.595749 224.318359,146.891373 
	C226.818756,146.891373 229.025223,146.891373 231.351196,146.891373 
	C231.538254,145.738586 231.394775,144.693268 231.850586,144.175140 
	C233.222916,142.615204 234.828583,141.260529 236.343262,139.825806 
	C237.582565,141.523361 239.497955,143.065887 239.929688,144.948639 
	C241.056595,149.863129 237.055710,151.415085 233.614929,153.155533 
	C224.564011,157.733704 221.784241,162.793915 222.791992,172.815750 
	C223.233093,177.202225 224.689896,181.143646 229.179169,182.664261 
	C233.986237,184.292496 237.546097,182.084305 240.083084,177.942871 
	C240.164078,177.810654 240.607025,177.900177 240.961716,177.882263 
	C241.266495,184.050491 245.238724,182.084656 248.214340,181.745361 
	C248.214340,174.063477 248.214340,166.779602 248.213776,158.498047 
M135.608261,182.155960 
	C141.362152,182.155960 147.116043,182.155960 152.826004,182.155960 
	C152.826004,178.331100 152.826004,175.300934 152.826004,171.730881 
	C147.631058,171.730881 142.894104,171.730881 137.645645,171.730881 
	C137.645645,151.636551 137.645645,132.090851 137.645645,112.548157 
	C134.564987,112.548157 132.024414,112.548157 129.475861,112.548157 
	C129.475861,135.848969 129.475861,158.725754 129.475861,182.156845 
	C131.410797,182.156845 133.027710,182.156845 135.608261,182.155960 
z"/>
<path fill="#FCCA48" opacity="1.000000" stroke="none" 
	d="
M104.871559,165.269714 
	C111.198586,184.607727 105.036240,203.522293 89.225029,214.042877 
	C73.114929,224.762344 52.843761,223.424942 38.144539,209.821854 
	C25.993196,198.576630 22.069748,184.248978 26.690456,168.359573 
	C31.304190,152.494171 42.221626,142.436295 58.492882,139.303406 
	C78.533920,135.444672 95.985893,145.429794 104.871559,165.269714 
M97.250145,171.613220 
	C91.900665,153.361679 73.577156,143.439163 56.089626,149.324036 
	C38.719135,155.169510 29.682110,174.322800 36.251831,191.368683 
	C42.175392,206.738052 59.094971,215.158066 74.989815,210.646622 
	C91.586174,205.936050 100.794884,190.287018 97.250145,171.613220 
z"/>
<path fill="#FCCA48" opacity="1.000000" stroke="none" 
	d="
M282.822876,197.146820 
	C271.150330,178.697296 269.799957,159.795517 280.050171,140.929337 
	C290.488770,121.716400 307.422699,112.200256 329.226532,112.411743 
	C335.558838,112.473167 342.105682,114.228233 348.133789,116.383034 
	C357.713165,119.807281 357.590088,120.269379 356.684021,131.447922 
	C342.342560,121.331650 327.097321,118.454597 310.788483,124.899529 
	C301.170074,128.700531 293.802582,135.204025 288.629669,144.217117 
	C278.379669,162.076355 281.474365,184.290558 296.187469,198.929169 
	C308.081482,210.762924 331.735687,219.436813 356.098785,202.325623 
	C358.738831,210.207275 357.639221,212.864990 350.381256,216.144608 
	C326.146454,227.095490 298.683594,219.469208 282.822876,197.146820 
z"/>
<path fill="#E86551" opacity="1.000000" stroke="none" 
	d="
M282.686646,50.618996 
	C280.028381,48.707775 277.705750,46.970837 275.104858,45.187210 
	C269.911682,43.736607 264.971649,42.413094 260.093933,40.890133 
	C258.074768,40.259701 255.851883,39.592976 254.308731,38.262058 
	C250.430557,34.917252 251.235352,29.798361 255.927567,27.776146 
	C257.997162,26.884207 260.440002,26.439037 262.700684,26.480656 
	C273.850006,26.685909 284.995972,27.097759 296.141235,27.490358 
	C300.010681,27.626663 304.119690,28.665262 304.851624,32.733765 
	C305.465424,36.145340 304.905609,40.404263 303.261902,43.411495 
	C301.528076,46.583488 298.041077,48.903458 295.053894,51.258045 
	C291.043945,54.418785 286.944458,53.336285 282.686646,50.618996 
z"/>
<path fill="#F39D25" opacity="1.000000" stroke="none" 
	d="
M338.931824,157.398865 
	C338.634705,163.019577 337.999725,168.437943 337.288635,174.505890 
	C331.219208,172.297043 326.293457,170.504410 320.852600,168.524323 
	C322.232452,165.250061 323.430237,162.407776 325.063141,158.532990 
	C327.386780,160.271591 329.310089,161.710663 331.233398,163.149750 
	C329.559967,163.868118 327.886536,164.586487 325.099640,165.782837 
	C328.417450,167.250549 331.084625,168.430450 333.799957,169.631653 
	C337.576782,158.999084 338.261383,160.813721 323.298035,155.159164 
	C322.440796,157.195786 321.531433,159.244476 320.714111,161.329239 
	C319.877441,163.463409 319.131012,165.632935 318.326660,167.837479 
	C315.088409,166.146027 316.387268,159.957382 321.703827,150.346161 
	C327.292725,152.612930 332.943329,154.904709 338.931824,157.398865 
z"/>
<path fill="#EB7462" opacity="1.000000" stroke="none" 
	d="
M171.000214,236.000595 
	C165.401932,236.879654 164.548019,232.632950 164.296051,228.955841 
	C163.846558,222.396378 164.169586,215.783981 164.169586,208.601974 
	C163.034592,208.601974 160.525543,208.601974 158.016510,208.601974 
	C164.084778,203.025177 171.937454,207.190552 178.737000,203.421432 
	C178.315292,207.732437 175.777512,208.802414 172.848068,208.609650 
	C168.956741,208.353592 167.885773,210.312286 167.875046,213.623978 
	C167.852768,220.491135 165.907333,227.587875 170.652863,234.405701 
	C170.993652,235.259766 170.996933,235.630188 171.000214,236.000595 
z"/>
<path fill="#F39E26" opacity="1.000000" stroke="none" 
	d="
M335.222534,177.888504 
	C336.105286,180.831619 334.854401,181.473053 332.524963,180.628113 
	C326.739349,178.529556 320.909546,176.522400 315.268738,174.082642 
	C314.234161,173.635178 314.006714,171.321579 313.083008,169.085876 
	C321.468170,172.380325 328.196869,175.023987 335.222534,177.888504 
z"/>
<path fill="#EB7361" opacity="1.000000" stroke="none" 
	d="
M213.992905,237.988281 
	C214.556458,233.074890 215.119995,228.161484 215.792862,222.419815 
	C215.198837,220.725937 214.495483,219.860336 213.792130,218.994736 
	C214.881958,215.856796 212.722824,211.554749 218.485031,208.659821 
	C217.870865,219.347061 221.593155,229.244919 215.057831,238.690262 
	C214.282410,238.569031 214.096603,238.307877 213.992905,237.988281 
z"/>
<path fill="#EB705E" opacity="1.000000" stroke="none" 
	d="
M227.561768,210.054199 
	C230.802689,207.484558 233.792068,208.240585 234.457535,212.020920 
	C235.030045,215.273331 237.561829,218.598907 234.876526,222.318237 
	C232.822449,225.163269 230.686630,227.107422 227.110641,226.185715 
	C223.302582,225.204178 222.041321,222.167999 222.011093,218.598618 
	C221.998962,217.166000 222.585190,215.728317 223.513336,214.091736 
	C224.384079,213.928146 224.640549,213.965775 224.943130,214.254669 
	C225.032150,214.670746 225.075058,214.835556 225.036346,215.405762 
	C225.898743,218.352707 226.612335,221.026306 227.942200,223.346680 
	C228.292694,223.958267 230.618332,223.737289 231.896698,223.386856 
	C232.503616,223.220474 232.780731,221.850937 233.204315,221.032166 
	C231.796951,220.063171 230.648392,219.272385 229.176407,218.258896 
	C230.817169,218.065018 231.928314,217.933716 234.934662,217.578461 
	C232.503006,214.854980 230.894211,213.053116 229.114594,211.038651 
	C228.483078,210.568756 228.022430,210.311478 227.561768,210.054199 
z"/>
<path fill="#EA705E" opacity="1.000000" stroke="none" 
	d="
M210.014328,226.023087 
	C205.047073,228.021500 202.366180,225.117233 200.691849,221.198578 
	C198.164413,215.283295 199.180328,209.540024 202.910736,203.389648 
	C202.910736,206.302841 203.050476,208.445389 202.885147,210.564133 
	C202.338806,217.565536 204.500504,222.279663 209.627426,224.422073 
	C210.017136,225.166794 210.015732,225.594940 210.014328,226.023087 
z"/>
<path fill="#EC7968" opacity="1.000000" stroke="none" 
	d="
M171.338028,235.973022 
	C170.996933,235.630188 170.993652,235.259766 170.989166,234.611908 
	C172.065170,232.072876 173.276688,229.863541 174.182251,227.535187 
	C175.111115,225.146942 175.740738,222.642319 177.029938,220.126404 
	C177.652451,220.703247 177.746353,221.342300 177.728104,222.404236 
	C177.692337,230.811478 179.548340,232.898911 185.009918,231.362289 
	C185.008926,231.580338 185.005127,232.016434 185.005127,232.016434 
	C181.928253,237.020493 178.686127,233.961472 175.617432,232.206787 
	C174.250061,233.503769 172.962952,234.724609 171.338028,235.973022 
z"/>
<path fill="#F3A12E" opacity="1.000000" stroke="none" 
	d="
M302.527374,173.593567 
	C304.394562,172.501923 305.849274,171.290054 307.519775,170.765854 
	C308.394501,170.491364 309.647980,171.423859 310.730408,171.811264 
	C310.322388,172.776123 310.149506,174.337418 309.467194,174.606354 
	C305.805969,176.049515 302.017853,177.170914 298.273590,178.403442 
	C298.029877,177.835342 297.786163,177.267227 297.542480,176.699127 
	C299.096466,175.719025 300.650482,174.738922 302.527374,173.593567 
z"/>
<path fill="#EE8A7B" opacity="1.000000" stroke="none" 
	d="
M213.633667,238.107880 
	C214.096603,238.307877 214.282410,238.569031 214.767792,238.881042 
	C211.416794,242.453644 207.884766,243.013275 205.151978,240.311920 
	C202.230499,237.424072 202.449127,234.408051 205.223755,230.998322 
	C206.567337,238.697983 207.774887,239.713699 213.633667,238.107880 
z"/>
<path fill="#F4A12F" opacity="1.000000" stroke="none" 
	d="
M308.698608,184.645416 
	C310.232910,182.671997 311.548004,180.980484 313.147186,178.923584 
	C315.074066,183.326660 310.424103,189.292694 303.554840,191.964859 
	C305.591217,189.054733 307.035309,186.991028 308.698608,184.645416 
z"/>
<path fill="#EB7362" opacity="1.000000" stroke="none" 
	d="
M178.885071,219.017075 
	C180.769989,218.149689 183.067017,216.182281 184.434998,216.694763 
	C186.126038,217.328278 187.937042,219.948578 188.091583,221.841461 
	C188.329590,224.756821 190.023087,228.300659 186.342300,230.895508 
	C186.025436,231.027283 186.043686,231.046936 185.891647,230.732056 
	C185.170792,229.287369 184.601990,228.157593 184.362213,226.875793 
	C187.011002,221.942810 185.100342,218.885300 179.733612,219.183167 
	C179.262650,219.088623 179.073868,219.052856 178.885071,219.017075 
z"/>
<path fill="#EC7766" opacity="1.000000" stroke="none" 
	d="
M215.303436,202.990265 
	C212.792206,201.327332 210.389862,200.045105 207.680634,198.599091 
	C211.345612,196.931686 214.758270,196.452316 217.403915,199.865875 
	C219.276962,202.282578 218.655090,204.691254 215.677948,207.084366 
	C215.559937,205.434402 215.486145,204.402679 215.303436,202.990265 
z"/>
<path fill="#EF8B7C" opacity="1.000000" stroke="none" 
	d="
M156.067612,209.574463 
	C154.360397,213.483093 152.653183,217.391724 151.179718,220.765228 
	C148.094681,216.195755 148.897766,213.035599 155.667816,208.420685 
	C156.040833,209.032898 156.054230,209.303680 156.067612,209.574463 
z"/>
<path fill="#F5A73B" opacity="1.000000" stroke="none" 
	d="
M350.973755,170.989777 
	C348.288757,170.472488 346.031281,169.955475 343.773834,169.438477 
	C343.905884,168.777573 344.037933,168.116669 344.169952,167.455765 
	C347.998413,168.075012 351.826874,168.694244 355.655334,169.313492 
	C355.618958,169.787430 355.582550,170.261368 355.546143,170.735321 
	C354.164520,170.820221 352.782928,170.905121 350.973755,170.989777 
z"/>
<path fill="#FCEBE9" opacity="1.000000" stroke="none" 
	d="
M227.310165,210.075302 
	C228.022430,210.311478 228.483078,210.568756 229.036865,211.455399 
	C229.219330,213.658508 229.308655,215.232269 229.412323,217.058716 
	C227.602631,216.191299 226.360291,215.595810 225.117966,215.000336 
	C225.075058,214.835556 225.032150,214.670746 224.939865,213.951202 
	C224.572510,213.156265 224.254532,212.916046 223.936523,212.675827 
	C224.977203,211.816025 226.017883,210.956223 227.310165,210.075302 
z"/>
<path fill="#F19B8D" opacity="1.000000" stroke="none" 
	d="
M210.350952,225.990967 
	C210.015732,225.594940 210.017136,225.166794 210.009796,224.417633 
	C211.103775,222.532379 212.206482,220.968170 213.550659,219.199341 
	C214.495483,219.860336 215.198837,220.725937 215.801880,221.981430 
	C214.030243,223.567169 212.358902,224.763016 210.350952,225.990967 
z"/>
<path fill="#FBE6E3" opacity="1.000000" stroke="none" 
	d="
M178.624344,219.006149 
	C179.073868,219.052856 179.262650,219.088623 179.731216,219.527466 
	C180.007324,220.620361 180.003662,221.310181 179.640518,221.997238 
	C178.800781,221.990097 178.320511,221.985733 177.840271,221.981354 
	C177.746353,221.342300 177.652451,220.703247 177.296234,219.860062 
	C177.477142,219.435699 177.920380,219.215469 178.624344,219.006149 
z"/>
<path fill="#EB7765" opacity="1.000000" stroke="none" 
	d="
M223.768600,212.922485 
	C224.254532,212.916046 224.572510,213.156265 224.893753,213.699936 
	C224.640549,213.965775 224.384079,213.928146 223.746674,213.804123 
	C223.444046,213.534851 223.522354,213.351990 223.768600,212.922485 
z"/>
<path fill="#EF8B7C" opacity="1.000000" stroke="none" 
	d="
M153.459259,223.479980 
	C153.439728,223.464569 153.478806,223.495377 153.459259,223.479980 
z"/>
<path fill="#EB7362" opacity="1.000000" stroke="none" 
	d="
M185.267792,231.964722 
	C185.005127,232.016434 185.008926,231.580338 185.253082,231.176025 
	C185.679367,230.863464 185.861526,230.955200 186.043686,231.046936 
	C186.043686,231.046936 186.025436,231.027283 186.016922,231.018524 
	C185.849075,231.310837 185.689758,231.611923 185.267792,231.964722 
z"/>
<path fill="#EB7462" opacity="1.000000" stroke="none" 
	d="
M156.413345,209.380157 
	C156.054230,209.303680 156.040833,209.032898 156.005768,208.355896 
	C156.242432,208.361755 156.500748,208.773804 156.413345,209.380157 
z"/>
<path fill="#DEEBEF" opacity="1.000000" stroke="none" 
	d="
M195.909302,182.147949 
	C193.974213,182.152039 192.497192,182.152039 190.657425,182.152039 
	C190.657425,158.833298 190.657425,135.932724 190.657425,111.867302 
	C196.932617,112.252357 203.218689,112.119865 209.263290,113.263603 
	C211.687317,113.722260 214.792511,116.630424 215.501587,119.038048 
	C218.312622,128.582840 219.547867,138.275192 212.347870,146.655029 
	C221.256546,157.051697 215.756104,169.741745 218.161652,181.077652 
	C210.578903,183.668533 209.132401,182.761032 209.005356,175.513748 
	C208.920654,170.683456 209.047104,165.848480 208.912735,161.020248 
	C208.715714,153.940292 206.820053,152.376114 198.903763,153.131973 
	C198.903763,161.310638 199.025391,169.580399 198.789658,177.839935 
	C198.748077,179.296417 197.212830,180.710297 195.909302,182.147949 
M201.348709,142.260208 
	C207.141327,141.966339 208.585480,140.540070 208.825226,134.775635 
	C208.894180,133.117950 208.895126,131.452606 208.827423,129.794861 
	C208.550613,123.017220 205.857666,121.182091 198.908340,123.228279 
	C198.908340,128.623428 198.840286,134.093765 198.976547,139.559036 
	C198.998779,140.451263 199.923050,141.321014 201.348709,142.260208 
z"/>
<path fill="#E0EBF0" opacity="1.000000" stroke="none" 
	d="
M168.719574,140.603241 
	C167.617462,142.817245 166.847992,144.780441 165.971802,147.015900 
	C164.017532,147.015900 161.916550,147.015900 159.837769,147.015900 
	C157.974228,139.072403 162.138184,131.744461 169.160614,130.464890 
	C175.167847,129.370300 180.177704,132.184937 182.034363,138.022888 
	C182.778824,140.363724 183.191833,142.906952 183.216110,145.363403 
	C183.334137,157.318802 183.269455,169.276001 183.269455,181.426025 
	C178.046021,183.109467 177.204254,182.752228 175.494904,177.167969 
	C173.016830,181.996201 169.288834,184.353516 164.344574,182.664795 
	C159.164551,180.895569 158.149628,176.208237 157.782913,171.351181 
	C157.128952,162.689453 160.642761,156.609528 168.695587,153.118515 
	C172.235519,151.583878 175.811798,149.937561 175.204193,144.920624 
	C174.742706,141.110260 173.344498,138.860916 168.719574,140.603241 
M173.948898,171.076401 
	C174.488419,167.000992 175.027939,162.925568 175.663208,158.126953 
	C167.441971,162.317490 165.672775,164.084778 166.026505,168.388382 
	C166.169907,170.133163 167.131790,172.578476 168.449600,173.228577 
	C169.612579,173.802292 171.788651,172.322327 173.948898,171.076401 
z"/>
<path fill="#E0EBF0" opacity="1.000000" stroke="none" 
	d="
M248.214050,158.996887 
	C248.214340,166.779602 248.214340,174.063477 248.214340,181.745361 
	C245.238724,182.084656 241.266495,184.050491 240.961716,177.882263 
	C240.607025,177.900177 240.164078,177.810654 240.083084,177.942871 
	C237.546097,182.084305 233.986237,184.292496 229.179169,182.664261 
	C224.689896,181.143646 223.233093,177.202225 222.791992,172.815750 
	C221.784241,162.793915 224.564011,157.733704 233.614929,153.155533 
	C237.055710,151.415085 241.056595,149.863129 239.929688,144.948639 
	C239.497955,143.065887 237.582565,141.523361 236.343262,139.825806 
	C234.828583,141.260529 233.222916,142.615204 231.850586,144.175140 
	C231.394775,144.693268 231.538254,145.738586 231.351196,146.891373 
	C229.025223,146.891373 226.818756,146.891373 224.318359,146.891373 
	C223.568710,141.595749 224.567123,136.867538 228.425568,133.181061 
	C234.400711,127.472221 244.902527,130.048492 246.758957,138.227036 
	C248.241318,144.757645 247.800797,151.724701 248.214050,158.996887 
M240.115158,159.583649 
	C235.287857,158.987793 230.413361,163.475494 230.925491,168.564636 
	C231.106064,170.358994 232.829956,171.998047 233.849213,173.708023 
	C235.621262,172.540268 238.390366,171.723297 238.951126,170.129364 
	C240.013321,167.110168 239.808578,163.645233 240.115158,159.583649 
z"/>
<path fill="#DDEBF0" opacity="1.000000" stroke="none" 
	d="
M135.126434,182.156403 
	C133.027710,182.156845 131.410797,182.156845 129.475861,182.156845 
	C129.475861,158.725754 129.475861,135.848969 129.475861,112.548157 
	C132.024414,112.548157 134.564987,112.548157 137.645645,112.548157 
	C137.645645,132.090851 137.645645,151.636551 137.645645,171.730881 
	C142.894104,171.730881 147.631058,171.730881 152.826004,171.730881 
	C152.826004,175.300934 152.826004,178.331100 152.826004,182.155960 
	C147.116043,182.155960 141.362152,182.155960 135.126434,182.156403 
z"/>
<path fill="#FFFEFD" opacity="1.000000" stroke="none" 
	d="
M97.364754,172.020828 
	C100.794884,190.287018 91.586174,205.936050 74.989815,210.646622 
	C59.094971,215.158066 42.175392,206.738052 36.251831,191.368683 
	C29.682110,174.322800 38.719135,155.169510 56.089626,149.324036 
	C73.577156,143.439163 91.900665,153.361679 97.364754,172.020828 
z"/>
<path fill="#FCECE9" opacity="1.000000" stroke="none" 
	d="
M225.036346,215.405762 
	C226.360291,215.595810 227.602631,216.191299 229.412323,217.058716 
	C229.308655,215.232269 229.219330,213.658508 229.207718,211.668015 
	C230.894211,213.053116 232.503006,214.854980 234.934662,217.578461 
	C231.928314,217.933716 230.817169,218.065018 229.176407,218.258896 
	C230.648392,219.272385 231.796951,220.063171 233.204315,221.032166 
	C232.780731,221.850937 232.503616,223.220474 231.896698,223.386856 
	C230.618332,223.737289 228.292694,223.958267 227.942200,223.346680 
	C226.612335,221.026306 225.898743,218.352707 225.036346,215.405762 
z"/>
<path fill="#FCEEEB" opacity="1.000000" stroke="none" 
	d="
M185.891647,230.732056 
	C185.861526,230.955200 185.679367,230.863464 185.254059,230.957977 
	C179.548340,232.898911 177.692337,230.811478 177.728088,222.404236 
	C178.320511,221.985733 178.800781,221.990097 179.527039,222.290283 
	C179.336777,225.785934 180.882172,227.090622 183.965271,226.966751 
	C183.987717,226.987320 184.033188,227.027802 184.033188,227.027802 
	C184.601990,228.157593 185.170792,229.287369 185.891647,230.732056 
z"/>
<path fill="#FCEEEB" opacity="1.000000" stroke="none" 
	d="
M180.000000,222.000000 
	C180.003662,221.310181 180.007324,220.620361 180.013382,219.586243 
	C185.100342,218.885300 187.011002,221.942810 184.362213,226.875793 
	C184.033188,227.027802 183.987717,226.987320 183.951370,226.632904 
	C182.610016,224.852325 181.305008,223.426163 180.000000,222.000000 
z"/>
<path fill="#0CB5D5" opacity="1.000000" stroke="none" 
	d="
M200.889557,142.230682 
	C199.923050,141.321014 198.998779,140.451263 198.976547,139.559036 
	C198.840286,134.093765 198.908340,128.623428 198.908340,123.228279 
	C205.857666,121.182091 208.550613,123.017220 208.827423,129.794861 
	C208.895126,131.452606 208.894180,133.117950 208.825226,134.775635 
	C208.585480,140.540070 207.141327,141.966339 200.889557,142.230682 
z"/>
<path fill="#10B5D5" opacity="1.000000" stroke="none" 
	d="
M173.733154,171.412781 
	C171.788651,172.322327 169.612579,173.802292 168.449600,173.228577 
	C167.131790,172.578476 166.169907,170.133163 166.026505,168.388382 
	C165.672775,164.084778 167.441971,162.317490 175.663208,158.126953 
	C175.027939,162.925568 174.488419,167.000992 173.733154,171.412781 
z"/>
<path fill="#0EB5D5" opacity="1.000000" stroke="none" 
	d="
M240.122681,159.974564 
	C239.808578,163.645233 240.013321,167.110168 238.951126,170.129364 
	C238.390366,171.723297 235.621262,172.540268 233.849213,173.708008 
	C232.829956,171.998047 231.106064,170.358994 230.925491,168.564636 
	C230.413361,163.475494 235.287857,158.987793 240.122681,159.974564 
z"/>
<path fill="#FBE6E3" opacity="1.000000" stroke="none" 
	d="
M179.886520,222.293060 
	C181.305008,223.426163 182.610016,224.852325 183.928925,226.612335 
	C180.882172,227.090622 179.336777,225.785934 179.886520,222.293060 
z"/>
</svg>