<svg version="1.0" width="800" height="320" viewBox="-3.072 -3.072 247.183 98.967" xmlns="http://www.w3.org/2000/svg"><path d="M-3.19-3.072h247.418v98.967H-3.19z" fill="#fff" style="clip-rule:evenodd;fill-rule:evenodd;stroke-width:.247418;stroke-linejoin:round;stroke-miterlimit:2"/><path d="M187.377 64.628H-2.197L199.262 31.95l-11.885 32.677" style="fill:#00abee;fill-opacity:1;fill-rule:nonzero;stroke:none;stroke-width:.792828"/><path d="M187.377 64.628H-2.197L199.262 31.95z" style="fill:#239dd9;fill-opacity:1;stroke:#239dd9;stroke-width:.198207;stroke-linecap:butt;stroke-linejoin:miter;stroke-miterlimit:3.864;stroke-opacity:1"/><path d="M54.01 42.825h189.57L42.12 75.502 54.01 42.825" style="fill:#d9120d;fill-opacity:1;fill-rule:nonzero;stroke:none;stroke-width:.792828"/><path d="M54.01 42.825h189.57L42.12 75.502z" style="fill:none;stroke:#eb1923;stroke-width:.198207;stroke-linecap:butt;stroke-linejoin:miter;stroke-miterlimit:3.864;stroke-opacity:1"/><path d="M65.46 48.276h10.612l3.832-10.534h6.756l-3.833 10.534h10.611l11.03-30.32H93.855L90.14 28.173h-6.752l3.717-10.217H76.494L65.46 48.276" style="fill:#fff;fill-opacity:1;fill-rule:nonzero;stroke:none;stroke-width:.792828"/><path d="M65.46 48.276h10.612l3.832-10.534h6.756l-3.833 10.534h10.611l11.03-30.32H93.855L90.14 28.173h-6.752l3.717-10.217H76.494z" style="fill:none;stroke:#fff;stroke-width:3.23076;stroke-linecap:butt;stroke-linejoin:miter;stroke-miterlimit:3.864;stroke-opacity:1"/><path d="M98.738 48.276h10.533l3.585-9.849c.732-2.009 1.13-3.983 1.525-6.074h.326l3.894 15.923h10.541l11.033-30.32h-10.533l-3.314 9.09c-.933 2.57-1.401 5.187-1.881 7.72h-.326l-3.77-16.81h-10.58l-11.033 30.32" style="fill:#fff;fill-opacity:1;fill-rule:nonzero;stroke:none;stroke-width:.792828"/><path d="M98.738 48.276h10.533l3.585-9.852c.732-2.006 1.13-3.98 1.525-6.07h.326l3.894 15.922h10.541l11.033-30.32h-10.533l-3.314 9.086c-.933 2.575-1.401 5.188-1.881 7.723h-.326l-3.77-16.809h-10.58z" style="fill:none;stroke:#fff;stroke-width:3.23076;stroke-linecap:butt;stroke-linejoin:miter;stroke-miterlimit:3.864;stroke-opacity:1"/><path d="m164.297 17.956-9.004 13.797c-.98 1.487-1.84 2.97-2.393 4.499h-.24c.558-1.53.774-3.012.871-4.499l.995-13.797h-11.451l.7 30.32h9.292l22.685-30.32h-11.455" style="fill:#fff;fill-opacity:1;fill-rule:nonzero;stroke:none;stroke-width:.792828"/><path d="m164.297 17.956-9.004 13.797c-.98 1.483-1.84 2.97-2.393 4.499h-.24c.558-1.53.774-3.016.871-4.499l.995-13.797h-11.451l.7 30.32h9.292l22.685-30.32z" style="fill:none;stroke:#fff;stroke-width:3.23076;stroke-linecap:butt;stroke-linejoin:miter;stroke-miterlimit:3.864;stroke-opacity:1"/><path d="M65.345 48.404h10.688L79.9 37.78h6.802L82.84 48.404H93.53l11.114-30.568H93.953l-3.744 10.298h-6.805l3.743-10.298H76.46L65.345 48.404m33.277 0h10.61l3.613-9.934c.735-2.029 1.13-4.014 1.533-6.12h.325l3.921 16.054h10.615l11.114-30.568h-10.61l-3.33 9.16c-.944 2.593-1.417 5.23-1.904 7.785h-.322l-3.797-16.945h-10.654L98.622 48.404m65.787-30.568L155.3 31.738c-.987 1.502-1.858 3-2.42 4.545h-.24c.562-1.545.783-3.043.88-4.545l1.006-13.902h-11.579l.709 30.568h9.395l22.941-30.568h-11.583" style="fill:#191b1f;fill-opacity:1;fill-rule:nonzero;stroke:none;stroke-width:.792828"/></svg>