<svg width="800.404" height="320" xmlns="http://www.w3.org/2000/svg"><path d="M.404 0h800v320h-800z" fill="#fff"/><path d="M210.011 77.34h12.122l11.796 35.132 11.733-35.132h12.12v45.373h-8.102v-34.16l-11.278 34.16h-8.945l-11.343-34.16v34.16h-8.102V77.34zM267.311 76.238h8.621v8.491h-8.62zm.13 13.028h8.362v33.447h-8.362zM284.747 89.266h8.037v5.251c1.88-3.824 5.64-5.834 10.695-5.834 7.454 0 11.148 4.473 11.148 12.057v21.973h-8.36v-20.482c0-4.084-2.334-6.158-5.835-6.158-4.343 0-7.389 2.981-7.389 8.491v18.15h-8.296V89.265zM323.119 76.238h8.62v8.491h-8.62zm.13 13.028h8.361v33.447h-8.361zM338.351 113.963l8.103-1.685c.583 3.24 3.305 4.731 7.388 4.731 3.501 0 5.446-1.101 5.446-3.37 0-2.464-2.204-3.177-5.316-3.76l-4.407-.778c-5.121-.907-10.695-2.851-10.695-10.047 0-6.805 5.055-10.37 13.418-10.37 7.777 0 13.093 3.11 14.26 9.399l-7.973 1.684c-.324-3.176-2.723-4.731-6.611-4.731-3.436 0-5.186 1.296-5.186 3.435 0 2.463 2.074 3.306 5.186 3.889l5.25.973c5.055.907 10.11 2.787 10.11 9.464 0 7.194-5.832 10.63-13.676 10.63-7.13 0-13.806-2.723-15.297-9.464zM375.946 113.185V96.591h-5.769v-7.325h5.769v-7.648l8.362-2.333v9.981h6.741v7.325h-6.74v15.233c0 2.528.842 3.565 3.435 3.565h4.018v7.324h-6.287c-6.352 0-9.53-3.111-9.53-9.528zM396.235 106.444c0-10.112 5.51-17.76 16.14-17.76 10.89 0 15.297 7.842 15.297 17.5v2.14h-23.27c.519 5.574 3.241 8.361 8.297 8.361 3.76 0 6.028-1.426 7.065-4.278l7.843 1.685c-2.074 6.093-7.389 9.334-15.038 9.334-9.787 0-16.334-6.092-16.334-16.982zm23.27-3.76c-.26-4.731-2.528-7.26-7.13-7.26-4.603 0-7 2.529-7.779 7.26zM434.673 89.266h8.037v5.964c1.101-3.824 3.954-6.352 8.232-6.352h2.917v8.168h-2.982c-5.705 0-7.908 3.37-7.908 9.204v16.464h-8.296V89.266zM459.432 76.238h8.621v8.491h-8.62zm.13 13.028h8.363v33.447h-8.363zM476.545 111.37V89.266h8.296v20.742c0 4.149 2.205 6.223 5.705 6.223 4.148 0 6.87-3.37 6.87-8.62V89.266h8.362v33.448h-7.844v-5.704c-1.75 4.342-5.444 6.416-10.241 6.416-7.194 0-11.148-4.472-11.148-12.056zM514.918 89.266h8.102v4.927c1.686-3.63 5.121-5.51 9.204-5.51s7.778 1.88 8.945 6.158c1.945-4.278 5.899-6.158 10.696-6.158 5.898 0 10.63 3.694 10.63 10.825v23.206h-8.297v-21.261c0-3.63-1.945-5.38-5.056-5.38-3.5 0-6.223 2.398-6.223 7.13v19.51h-8.36v-21.26c0-3.63-1.945-5.38-5.057-5.38-3.435 0-6.222 2.398-6.222 7.13v19.51h-8.363V89.266zM588.682 96.591h-5.056v-7.325h5.056v-2.851c0-6.806 3.24-9.789 9.075-9.789h6.287v7.001h-4.019c-2.269 0-2.981.908-2.981 3.176v2.463h6.222v7.325h-6.222v26.122h-8.362zM609.1 111.37V89.266h8.297v20.742c0 4.149 2.203 6.223 5.704 6.223 4.149 0 6.87-3.37 6.87-8.62V89.266h8.363v33.448h-7.843v-5.704c-1.751 4.342-5.445 6.416-10.242 6.416-7.195 0-11.149-4.472-11.149-12.056zm4.862-33.965h7.195v7.454h-7.195zm12.445 0h7.195v7.454h-7.195zM647.539 89.266h8.037v5.964c1.102-3.824 3.954-6.352 8.232-6.352h2.917v8.168h-2.982c-5.704 0-7.907 3.37-7.907 9.204v16.464h-8.297V89.266zM682.67 77.34h9.205l11.797 35.975 11.862-35.975h9.139l-15.946 45.373H698.68L682.67 77.34zM725.71 106.444c0-10.112 5.51-17.76 16.14-17.76 10.89 0 15.298 7.842 15.298 17.5v2.14h-23.27c.518 5.574 3.24 8.361 8.296 8.361 3.76 0 6.029-1.426 7.066-4.278l7.843 1.685c-2.074 6.093-7.389 9.334-15.038 9.334-9.787 0-16.334-6.092-16.334-16.982zm23.271-3.76c-.26-4.731-2.528-7.26-7.13-7.26-4.603 0-7 2.529-7.78 7.26zM764.148 89.266h8.037v5.964c1.103-3.824 3.954-6.352 8.233-6.352h2.917v8.168h-2.983c-5.704 0-7.907 3.37-7.907 9.204v16.464h-8.297V89.266zM789.298 76.626h8.296v27.16l12.575-14.52h10.76l-12.705 13.548 13.288 19.9h-9.982l-8.945-13.807-4.99 5.315v8.491h-8.297V76.627zM823.458 106.444c0-10.112 5.51-17.76 16.14-17.76 10.889 0 15.297 7.842 15.297 17.5v2.14h-23.27c.518 5.574 3.24 8.361 8.297 8.361 3.76 0 6.028-1.426 7.065-4.278l7.843 1.685c-2.074 6.093-7.389 9.334-15.038 9.334-9.787 0-16.334-6.092-16.334-16.982zm23.27-3.76c-.26-4.731-2.528-7.26-7.13-7.26-4.603 0-7 2.529-7.779 7.26zM861.896 76.626h8.297v17.437c1.944-3.5 5.574-5.38 10.436-5.38 7.454 0 11.149 4.473 11.149 12.057v21.973h-8.362v-20.482c0-4.084-2.333-6.158-5.834-6.158-4.343 0-7.39 2.981-7.39 8.49v18.15h-8.296V76.626zM900.658 89.266h8.037v5.964c1.103-3.824 3.954-6.352 8.232-6.352h2.917v8.168h-2.982c-5.704 0-7.907 3.37-7.907 9.204v16.464h-8.297V89.266z" style="fill:#2a2623;stroke-width:0" transform="matrix(.8687 0 0 .8687 0 75.835)"/><g><path d="M210 7.59h20.871c8.233 0 12.122 5.51 12.122 11.15 0 4.407-2.268 8.816-6.87 10.307 5.509 1.556 8.296 6.093 8.296 10.954 0 6.741-5.121 12.964-14.714 12.964H210zm18.28 18.346c3.952 0 5.962-2.464 5.962-5.446 0-2.787-1.814-4.926-5.574-4.926h-10.112v10.371zm.517 18.99c4.797 0 6.936-2.98 6.936-6.286 0-3.176-2.204-5.899-6.547-5.899h-10.63v12.186h10.24zM249.8 43.76c0-7.324 5.768-9.204 10.63-9.917l6.74-.908c2.53-.388 4.215-.971 4.215-3.565 0-2.722-1.88-4.019-5.575-4.019-4.602 0-6.612 1.816-7.195 4.862l-7.843-1.685c1.62-6.612 7.26-9.594 15.492-9.594 9.074 0 13.482 3.63 13.482 11.15v22.88h-7.778v-5.703c-2.01 3.954-5.834 6.417-11.278 6.417-6.353 0-10.89-3.5-10.89-9.917zm13.288 3.047c4.926 0 8.297-3.046 8.297-7.779v-1.814c-1.233.453-2.529.777-4.408 1.037l-3.76.583c-2.399.324-5.056 1.102-5.056 4.084 0 2.593 1.815 3.889 4.927 3.889zM286.616 36.371c0-10.371 5.445-17.436 14.65-17.436 4.667 0 8.231 1.88 10.046 5.12V6.879h8.297v46.087h-7.778v-5.51c-1.361 3.436-4.861 6.223-10.565 6.223-9.14 0-14.65-6.936-14.65-17.307zm16.529 9.723c5.25 0 8.168-3.954 8.168-10.047 0-5.769-2.853-9.528-8.168-9.528-5.25 0-8.038 3.76-8.038 9.722 0 5.899 2.787 9.853 8.037 9.853zM326.74 36.695c0-10.112 5.51-17.76 16.139-17.76 10.89 0 15.298 7.843 15.298 17.5v2.14h-23.27c.518 5.574 3.24 8.361 8.296 8.361 3.76 0 6.029-1.425 7.066-4.278l7.842 1.686c-2.074 6.092-7.388 9.334-15.038 9.334-9.787 0-16.334-6.093-16.334-16.983zm23.27-3.76c-.26-4.73-2.528-7.26-7.131-7.26s-7 2.529-7.778 7.26zM365.307 19.518h8.037v5.25c1.88-3.824 5.64-5.834 10.695-5.834 7.454 0 11.148 4.473 11.148 12.057v21.974h-8.36V32.48c0-4.083-2.334-6.157-5.835-6.157-4.343 0-7.389 2.981-7.389 8.491v18.15h-8.297V19.518zM401.994 26.907h17.955v7.454h-17.955zM422.088 7.59h8.88l7.972 33.967 8.557-33.966h9.853l8.555 33.966 7.973-33.966h8.88l-11.537 45.374h-9.853l-8.945-33.447-8.945 33.447h-9.853L422.088 7.59zM486.065 41.621V19.518h8.297v20.743c0 4.148 2.204 6.222 5.704 6.222 4.149 0 6.872-3.37 6.872-8.62V19.517h8.36v33.447h-7.843V47.26c-1.75 4.342-5.444 6.417-10.241 6.417-7.194 0-11.149-4.473-11.149-12.057zm4.862-33.965h7.194v7.454h-7.194zm12.445 0h7.194v7.454h-7.194zM522.947 19.518h8.037v5.963c1.102-3.824 3.955-6.352 8.233-6.352h2.917v8.167h-2.983c-5.704 0-7.907 3.371-7.907 9.205v16.464h-8.297zM551.078 43.437V26.843h-5.769v-7.324h5.77v-7.65l8.361-2.333v9.982h6.742v7.325h-6.742v15.232c0 2.528.843 3.565 3.436 3.565h4.019v7.325h-6.288c-6.352 0-9.529-3.112-9.529-9.529zM575.709 43.437V26.843h-5.769v-7.324h5.769v-7.65l8.362-2.333v9.982h6.741v7.325h-6.74v15.232c0 2.528.842 3.565 3.435 3.565h4.018v7.325h-6.287c-6.352 0-9.529-3.112-9.529-9.529zM595.997 36.695c0-10.112 5.51-17.76 16.14-17.76 10.89 0 15.298 7.843 15.298 17.5v2.14h-23.27c.518 5.574 3.24 8.361 8.296 8.361 3.76 0 6.028-1.425 7.065-4.278l7.843 1.686c-2.074 6.092-7.388 9.334-15.038 9.334-9.787 0-16.334-6.093-16.334-16.983zm23.27-3.76c-.26-4.73-2.528-7.26-7.13-7.26-4.603 0-7 2.529-7.779 7.26zM634.5 19.518h8.102v4.926c1.686-3.63 5.122-5.51 9.205-5.51s7.778 1.88 8.945 6.159c1.944-4.279 5.898-6.158 10.695-6.158 5.899 0 10.631 3.695 10.631 10.825v23.205h-8.297v-21.26c0-3.63-1.945-5.38-5.056-5.38-3.5 0-6.223 2.398-6.223 7.13v19.51h-8.361v-21.26c0-3.63-1.945-5.38-5.056-5.38-3.436 0-6.223 2.398-6.223 7.13v19.51H634.5V19.518zM697.894 47.715v5.25h-7.779V6.878h8.297v17.76c1.75-3.435 5.38-5.704 10.306-5.704 9.14 0 14.39 7.066 14.39 17.243 0 10.435-5.51 17.5-14.649 17.5-5.51 0-9.205-2.656-10.565-5.962zm8.685-1.621c5.316 0 8.037-3.889 8.037-9.853s-2.657-9.658-7.907-9.658c-5.315 0-8.297 3.76-8.297 9.724 0 6.028 2.981 9.787 8.167 9.787zM728.034 36.695c0-10.112 5.51-17.76 16.14-17.76 10.89 0 15.298 7.843 15.298 17.5v2.14h-23.27c.518 5.574 3.24 8.361 8.296 8.361 3.76 0 6.028-1.425 7.066-4.278l7.842 1.686c-2.074 6.092-7.388 9.334-15.038 9.334-9.787 0-16.334-6.093-16.334-16.983zm23.27-3.76c-.26-4.73-2.528-7.26-7.13-7.26-4.603 0-7 2.529-7.778 7.26zM766.602 19.518h8.037v5.963c1.101-3.824 3.954-6.352 8.232-6.352h2.917v8.167h-2.982c-5.704 0-7.908 3.371-7.908 9.205v16.464h-8.296zM788.964 55.817l8.102-1.75c.453 3.176 2.852 5.51 7.973 5.51 5.25 0 8.361-2.658 8.361-7.714v-5.64c-1.814 3.566-5.638 5.64-10.435 5.64-7.844 0-14.39-5.315-14.39-16.205 0-11.084 6.741-16.723 14.779-16.723 4.99 0 8.36 2.204 9.918 5.25v-4.666h8.231v31.307c0 10.566-7.454 15.297-16.528 15.297-8.168 0-14.326-3.63-16.011-10.306zm16.075-10.955c4.343 0 8.103-2.723 8.103-9.14 0-6.157-3.436-9.139-7.973-9.139s-8.103 2.853-8.103 9.205c0 6.157 3.5 9.074 7.973 9.074z" style="fill:#2a2623;stroke-width:0" transform="matrix(.8687 0 0 .8687 0 75.835)"/></g><g><path d="M133.39 164.086c4.139-1.09 7.166-5.376 6.827-10.254-.423-6.048-6.149-12.444-19.728-9.762-4.942.979-8.988 2.417-12.87 4-4.075 1.663-7.97 3.486-12.53 5.106-4.697 1.668-8.64 2.39-11.705 2.13-2.758-.235-4.807-1.262-6.06-3.109-1.704-2.555.773-5.132 1.82-5.852 1.91-1.248 3.63-3.38 2.614-6.845-1.83.319-5.045 1.394-7.603 3.412-2.116 1.668-3.783 3.98-3.848 7.042.122 4.185 3.016 7.454 7.832 8.608 3.231.773 5.809 1.022 8.855.623 4.372-.572 9.71-2.479 19.335-6.083 8.993-3.469 14.049-4.958 17.923-5.133 2.43-.11 4.396.298 6.578 1.059 1.363.476 2.35 1.197 3.005 2.04a4.853 4.853 0 0 1 1.021 3.318c-.137 2.137-1.634 4.145-3.96 4.647a5.58 5.58 0 0 1-1.733.09c-.72-.07-1.503-.217-2.387-.381-2.61-.49-6.128-1.147-11.605-.543-3.286.361-7.276 1.177-12.197 2.754-10.269 3.291-17.933 4.61-23.85 4.836-8.38.322-13.253-1.547-17.057-3.1-.375-3.641-1.252-6.65-2.326-9.094-1.744-3.968-4.01-6.45-5.5-7.747 0 0 .863-.535 1.291-3.535-2.143-.428-5.17.778-5.17.778s-5.62-3.608-13.219-2.322c-2.9.507-4.28 1.301-5.075 2.613-6.038 2.217-6.53 2.598-8.07 3.487-1 .63-.915 1.47-.915 1.683 0 .486.254.788.365.92.16.185.307.355.307.693.016 1.757-.137 1.633.402 3.024.239.561.767.519 1.403.302 3.984-1.487 7.043-.327 7.239 2.368.156 2.324-2.01 3.993-4.905 4.226l-1.344.079c-.476.032-.794.074-.74.63.06.44.694 2.022.866 2.471.436 1.226.714 1.397 1.741 1.434 1.937.069 4.445-.413 5.25-.661 0 0-.085 2.455.682 5.798-6.71-2.418-11.832-3.169-17.515-2.962-5.677.204-9.45 1.368-11.952 2.772C.454 172.13 0 175.366 0 175.366c.032.004 6.53 1.534 9.192.782 1.805-.513 3.043-2.259 3.043-2.259s4.29.88 9.93 3.874a49.197 49.197 0 0 1 8.903 6.05c.113.097 7.202-3.131 7.55-3.26.875-.321 1.53.263 1.68.547.247.467.332 1.341-.351 1.797-.672.603-5.423 2.7-10 5.404-2.975 1.762-6.208 3.672-8.986 5.37-2.18-.28-3.127-.364-5.175-.343-4.377.048-7.256 3.873-7.256 6.672h17.024c.71-.258 7.828-1.71 15.017-3.149 5.226-1.046 10.49-2.084 13.353-2.65 1.284-.253 2.078-.412 2.185-.434.382-.086.898-.147 1.365-.605.234-.23.455-.559.64-1.04.133-.329.737-2.08.737-2.08l3.725-.36c4.972-.42 9.38-1.422 13.338-2.688 5.085-1.627 9.425-3.693 13.258-5.528 4.668-2.238 8.52-4.085 11.86-4.233-.537 3.3.238 5.868.763 8.398.501 2.41.775 4.784-.525 7.723-9.86 0-8.774 6.646-8.774 6.646h17.098s1.204-3.933 3.973-8.266c1.275-1.995 2.836-4.077 4.844-5.9.419-.376.381-.773.143-1.09-2.17-2.693-3.266-8.116-3.266-8.116-.186-.693.652-1.153.937-1.201.301-.053 1.113-.059 1.28.722 0 0 .38 3.761 3.942 7.036 2.254 2.066 4.99 3.695 7.717 4.98 3.28 1.544 6.55 2.592 8.963 3.306 2.757.815 3.064 1.735 3.064 2.01-.064 0-1.048.048-1.206.064-1.398.153-3.001.333-4.87 2.106-1.91 1.814-1.507 4.349-1.507 4.349h11.764c1.534 0 2.08-.905 2.613-2.635.345-1.111 1.736-6.751 1.832-7.138.46-1.714-.021-2.624-.614-3.137-1.349-1.352-2.989-2.537-4.5-3.485-2.453-1.536-4.57-2.451-4.57-2.451-.28-2.619-1.516-7.007-3.245-10.965-1.02-2.335-2.229-4.521-3.497-6.104zM32.65 145.546c1.773-1.059 4.103-1.33 6.02-1.104-.208 3.466-5.073 4.385-6.02 1.105zm-16.631 7.408a4.456 4.456 0 0 1 .335-.602c.037-.049.115-.02.12.04.069 1.366.852 3.477 4.662 3.953 3.604.455 6.314-.159 8.626-.841.26.624.19 1.608-1 2.047-1.074.328-3.995 1.18-8.536.699-4.24-.45-5.217-3.113-4.207-5.297zM133.39 94.335c4.138-1.09 7.165-5.376 6.826-10.254-.423-6.048-6.149-12.444-19.728-9.762-4.942.979-8.988 2.417-12.87 4-4.075 1.663-7.97 3.486-12.53 5.106-4.697 1.668-8.64 2.39-11.705 2.13-2.758-.235-4.807-1.262-6.06-3.109-1.704-2.555.773-5.132 1.82-5.852 1.91-1.248 3.63-3.38 2.614-6.845-1.83.319-5.045 1.394-7.603 3.412-2.116 1.668-3.783 3.98-3.848 7.042.122 4.185 3.016 7.454 7.832 8.608 3.231.773 5.809 1.022 8.855.623 4.372-.572 9.71-2.479 19.335-6.083 8.993-3.469 14.049-4.958 17.923-5.133 2.43-.11 4.396.298 6.578 1.059 1.363.476 2.35 1.197 3.005 2.04a4.853 4.853 0 0 1 1.021 3.318c-.137 2.137-1.634 4.145-3.96 4.647a5.58 5.58 0 0 1-1.733.09c-.72-.07-1.503-.217-2.387-.381-2.61-.49-6.128-1.147-11.605-.543-3.286.362-7.276 1.177-12.197 2.754-10.269 3.291-17.933 4.61-23.85 4.836-8.38.322-13.253-1.547-17.057-3.1-.375-3.641-1.252-6.65-2.326-9.094-1.744-3.967-4.01-6.45-5.5-7.747 0 0 .863-.534 1.291-3.534-2.143-.429-5.17.777-5.17.777s-5.62-3.608-13.219-2.322c-2.9.508-4.28 1.301-5.075 2.613-6.038 2.217-6.53 2.598-8.07 3.487-1 .63-.915 1.47-.915 1.683 0 .486.254.788.365.92.16.185.307.355.307.693.016 1.757-.137 1.633.402 3.024.239.561.767.519 1.403.302 3.984-1.487 7.043-.327 7.239 2.368.156 2.324-2.01 3.993-4.905 4.226l-1.344.079c-.476.032-.794.074-.74.63.06.44.694 2.022.866 2.471.436 1.225.714 1.397 1.741 1.434 1.937.069 4.445-.413 5.25-.661 0 0-.085 2.455.682 5.799-6.71-2.419-11.832-3.17-17.515-2.963-5.677.204-9.45 1.368-11.952 2.772C.454 102.38 0 105.616 0 105.616c.032.004 6.53 1.534 9.192.782 1.805-.513 3.043-2.259 3.043-2.259s4.29.88 9.93 3.874a49.197 49.197 0 0 1 8.903 6.05c.113.097 7.202-3.131 7.55-3.26.875-.321 1.53.263 1.68.547.247.467.332 1.342-.351 1.797-.672.603-5.423 2.7-10 5.404-2.975 1.762-6.208 3.672-8.986 5.37-2.18-.28-3.127-.364-5.175-.343-4.377.048-7.256 3.873-7.256 6.672h17.024c.71-.258 7.828-1.71 15.017-3.149 5.226-1.046 10.49-2.084 13.353-2.65 1.284-.253 2.078-.412 2.185-.434.382-.086.898-.147 1.365-.605.234-.23.455-.559.64-1.04.133-.329.737-2.08.737-2.08l3.725-.36c4.972-.42 9.38-1.422 13.338-2.688 5.085-1.627 9.425-3.693 13.258-5.528 4.668-2.238 8.52-4.085 11.86-4.233-.537 3.3.238 5.868.763 8.398.501 2.41.775 4.784-.525 7.723-9.86 0-8.774 6.646-8.774 6.646h17.098s1.204-3.933 3.973-8.266c1.275-1.995 2.836-4.077 4.844-5.9.419-.376.381-.773.143-1.09-2.17-2.693-3.266-8.116-3.266-8.116-.186-.693.652-1.154.937-1.201.301-.053 1.113-.059 1.28.722 0 0 .38 3.761 3.942 7.036 2.254 2.066 4.99 3.695 7.717 4.98 3.28 1.544 6.55 2.592 8.963 3.306 2.757.815 3.064 1.735 3.064 2.01-.064 0-1.048.048-1.206.064-1.398.153-3.001.333-4.87 2.105-1.91 1.815-1.507 4.35-1.507 4.35h11.764c1.534 0 2.08-.905 2.613-2.635.345-1.111 1.736-6.751 1.832-7.138.46-1.714-.021-2.624-.614-3.137-1.349-1.352-2.989-2.537-4.5-3.485-2.453-1.537-4.57-2.451-4.57-2.451-.28-2.619-1.516-7.007-3.245-10.965-1.02-2.336-2.229-4.521-3.497-6.104zM32.649 75.796c1.773-1.059 4.103-1.33 6.02-1.104-.208 3.466-5.073 4.385-6.02 1.105zm-16.631 7.407a4.456 4.456 0 0 1 .335-.601c.037-.049.115-.02.12.04.069 1.366.852 3.477 4.662 3.953 3.604.455 6.314-.159 8.626-.841.26.624.19 1.608-1 2.047-1.074.328-3.995 1.18-8.536.699-4.24-.45-5.217-3.113-4.207-5.297zM133.39 24.586c4.138-1.09 7.165-5.376 6.826-10.254-.423-6.048-6.149-12.444-19.728-9.762-4.942.978-8.988 2.417-12.87 4-4.075 1.663-7.97 3.486-12.53 5.106-4.697 1.668-8.64 2.39-11.705 2.13-2.758-.235-4.807-1.262-6.06-3.109-1.704-2.555.773-5.132 1.82-5.852 1.91-1.248 3.63-3.38 2.614-6.845-1.83.319-5.045 1.394-7.603 3.412-2.116 1.668-3.783 3.98-3.848 7.042.122 4.185 3.016 7.454 7.832 8.608 3.231.773 5.809 1.022 8.855.623 4.372-.572 9.71-2.479 19.335-6.083 8.993-3.469 14.049-4.958 17.923-5.133 2.43-.11 4.397.298 6.578 1.059 1.363.476 2.35 1.197 3.006 2.04a4.853 4.853 0 0 1 1.02 3.318c-.137 2.137-1.634 4.145-3.96 4.646a5.58 5.58 0 0 1-1.733.09c-.72-.068-1.503-.216-2.387-.38-2.61-.49-6.128-1.147-11.605-.543-3.286.361-7.276 1.177-12.197 2.754-10.269 3.291-17.933 4.61-23.85 4.836-8.38.322-13.253-1.547-17.056-3.1-.375-3.641-1.252-6.65-2.327-9.094-1.744-3.968-4.01-6.45-5.5-7.747 0 0 .863-.535 1.291-3.535-2.143-.428-5.17.778-5.17.778S44.742-.017 37.143 1.27c-2.9.507-4.28 1.301-5.074 2.613-6.039 2.217-6.53 2.598-8.07 3.487-1 .63-.916 1.47-.916 1.682 0 .487.254.789.365.921.16.185.307.355.307.693.016 1.757-.137 1.633.402 3.024.239.561.767.519 1.403.302 3.985-1.487 7.044-.327 7.239 2.368.156 2.324-2.01 3.993-4.905 4.226l-1.344.079c-.476.032-.794.074-.74.63.06.44.695 2.022.866 2.471.436 1.225.714 1.397 1.741 1.434 1.937.069 4.445-.413 5.25-.661 0 0-.085 2.455.682 5.798-6.71-2.418-11.832-3.169-17.515-2.962-5.677.204-9.45 1.368-11.952 2.772C.454 32.63 0 35.866 0 35.866c.032.004 6.53 1.534 9.192.782 1.805-.513 3.043-2.259 3.043-2.259s4.29.88 9.93 3.874a49.197 49.197 0 0 1 8.903 6.05c.113.097 7.202-3.131 7.55-3.26.875-.321 1.53.263 1.68.547.247.467.333 1.341-.351 1.797-.672.603-5.423 2.7-10 5.404-2.975 1.762-6.208 3.672-8.986 5.37-2.18-.28-3.127-.364-5.175-.343-4.377.048-7.256 3.873-7.256 6.672h17.024c.71-.258 7.828-1.71 15.017-3.149 5.226-1.046 10.49-2.084 13.353-2.65 1.284-.253 2.079-.412 2.185-.434.382-.086.898-.147 1.365-.605.234-.23.455-.559.64-1.04.133-.329.737-2.08.737-2.08l3.725-.36c4.972-.42 9.38-1.422 13.338-2.688 5.085-1.627 9.425-3.692 13.258-5.528 4.668-2.238 8.52-4.085 11.86-4.233-.537 3.3.238 5.869.764 8.398.5 2.41.774 4.784-.526 7.723-9.86 0-8.774 6.646-8.774 6.646h17.098s1.204-3.933 3.973-8.266c1.275-1.995 2.836-4.077 4.844-5.9.419-.376.381-.773.143-1.09-2.17-2.693-3.266-8.116-3.266-8.116-.186-.693.652-1.154.937-1.201.301-.053 1.113-.059 1.28.722 0 0 .38 3.761 3.942 7.036 2.254 2.066 4.99 3.695 7.717 4.98 3.28 1.544 6.55 2.592 8.963 3.306 2.757.815 3.064 1.735 3.064 2.01-.063 0-1.048.048-1.206.064-1.397.153-3.001.333-4.87 2.106-1.91 1.814-1.507 4.349-1.507 4.349h11.764c1.534 0 2.08-.905 2.614-2.635.344-1.111 1.735-6.751 1.831-7.138.46-1.714-.021-2.624-.614-3.137-1.349-1.352-2.989-2.537-4.5-3.485-2.453-1.536-4.57-2.451-4.57-2.451-.28-2.619-1.516-7.007-3.245-10.965-1.02-2.335-2.229-4.521-3.497-6.104zM32.649 6.046c1.773-1.059 4.103-1.33 6.02-1.104-.208 3.466-5.073 4.385-6.02 1.105zm-16.631 7.408a4.456 4.456 0 0 1 .335-.602c.037-.049.115-.02.12.04.069 1.366.852 3.477 4.662 3.953 3.604.455 6.314-.159 8.626-.841.26.624.19 1.608-1 2.047-1.074.328-3.995 1.18-8.536.699-4.24-.45-5.217-3.113-4.207-5.297z" style="fill:#2a2623;stroke-width:0" transform="matrix(.8687 0 0 .8687 0 75.835)"/></g></svg>