<svg width="800" height="320" xmlns="http://www.w3.org/2000/svg"><defs><clipPath id="a"><path data-name="Rechteck 77" fill="none" d="M0 0h172v38.092H0z"/></clipPath><clipPath id="b"><path data-name="Rechteck 71" fill="none" d="M0 0h24.969v38.091H0z"/></clipPath><clipPath id="c"><path data-name="Rechteck 73" fill="none" d="M0 0h14.344v23.8H0z"/></clipPath><clipPath id="d"><path data-name="Rechteck 75" fill="none" d="M0 0h24.715v38.091H0z"/></clipPath></defs><path d="M0 0h800v320H0z" fill="#fff" style="clip-rule:evenodd;fill-rule:evenodd;stroke-width:.8;stroke-linejoin:round;stroke-miterlimit:2"/><g data-name="Gruppe 378" style="fill:#916f6f"><g data-name="Gruppe 373" style="fill:#916f6f"><g data-name="Gruppe 370" clip-path="url(#a)" style="fill:#916f6f" transform="matrix(4.64983 0 0 4.64983 .226 73.026)"><g data-name="Gruppe 369" style="fill:#916f6f"><g data-name="Gruppe 368" clip-path="url(#a)" style="fill:#916f6f"><path data-name="Pfad 231" d="M212.613 3.9a3.629 3.629 0 0 0-3.4-2.369 3.64 3.64 0 0 0-3.3 2.113l-10.034 21.828-9.849-21.811a3.628 3.628 0 0 0-6.613 2.987l13.126 29.068a3.628 3.628 0 0 0 6.6.023l13.364-29.068a3.6 3.6 0 0 0 .106-2.775" transform="translate(-75.376 -.642)" fill="#fff" style="fill:#f19501;fill-opacity:1"/><path data-name="Pfad 232" d="M146.118 19.387A11.321 11.321 0 1 1 134.8 8.066a11.333 11.333 0 0 1 11.321 11.321M134.8.81a18.577 18.577 0 1 0 18.577 18.577A18.6 18.6 0 0 0 134.8.81" transform="translate(-48.914 -.341)" fill="#fff" style="fill:#f19501;fill-opacity:1"/><g data-name="Gruppe 357" opacity=".33" style="fill:#916f6f"><g data-name="Gruppe 356" style="fill:#fadcaa;fill-opacity:1"><g data-name="Gruppe 355" clip-path="url(#b)" style="fill:#fadcaa;fill-opacity:1" transform="translate(45.54 .001)"><g data-name="Gruppe 354" style="fill:#fadcaa;fill-opacity:1"><g data-name="Gruppe 353" clip-path="url(#b)" style="fill:#fadcaa;fill-opacity:1"><path data-name="Pfad 233" d="M93.637 29.991a11.431 11.431 0 0 1 0-21.047 18.535 18.535 0 0 1 9.809-7.144A18.465 18.465 0 1 0 98.1 37.935a18.319 18.319 0 0 0 5.343-.795 18.535 18.535 0 0 1-9.808-7.149" transform="translate(-79.056 -.423)" fill="#fff" style="fill:#fadcaa;fill-opacity:1"/></g></g></g></g></g><path data-name="Pfad 234" d="M30.532 1a12.354 12.354 0 0 0-8.97 3.849A12.354 12.354 0 0 0 12.593 1 12.747 12.747 0 0 0 0 13.87v20.436a3.628 3.628 0 1 0 7.256 0V13.87a5.486 5.486 0 0 1 5.337-5.612 5.485 5.485 0 0 1 5.336 5.612v20.436a3.633 3.633 0 0 0 7.266 0V13.87a5.343 5.343 0 1 1 10.673 0v20.436a3.628 3.628 0 1 0 7.256 0V13.87A12.747 12.747 0 0 0 30.532 1" transform="translate(0 -.422)" fill="#fff" style="fill:#f19501;fill-opacity:1"/><path data-name="Pfad 235" d="M243.608 16.03a10.945 10.945 0 0 1 10.33-7.32 9.673 9.673 0 0 1 9.52 7.32zm27.606 3.628c0-10.379-7.427-18.2-17.276-18.2a18.2 18.2 0 1 0 13.343 30.588 3.629 3.629 0 0 0-2.658-6.1 3.638 3.638 0 0 0-2.66 1.161 10.949 10.949 0 0 1-18.355-3.819h23.977a3.632 3.632 0 0 0 3.629-3.628" transform="translate(-99.214 -.612)" fill="#fff" style="fill:#f19501;fill-opacity:1"/><g data-name="Gruppe 362" opacity=".57" style="fill:#916f6f"><g data-name="Gruppe 361" style="fill:#916f6f"><g data-name="Gruppe 360" clip-path="url(#c)" style="fill:#916f6f" transform="translate(80.057 7.146)"><g data-name="Gruppe 359" style="fill:#916f6f"><g data-name="Gruppe 358" clip-path="url(#c)" style="fill:#916f6f"><path data-name="Pfad 236" d="M139.237 14.638c7.845 4.029 7.842 16.016 0 20.046a11.2 11.2 0 0 0 9.241.554 16.173 16.173 0 0 0 0-21.155 11.2 11.2 0 0 0-9.248.555" transform="translate(-138.658 -12.76)" fill="#fff" style="fill:#f6c26c;fill-opacity:1"/></g></g></g></g></g><g data-name="Gruppe 367" opacity=".57" style="fill:#916f6f"><g data-name="Gruppe 366" style="fill:#916f6f"><g data-name="Gruppe 365" clip-path="url(#d)" style="fill:#916f6f" transform="translate(56.237)"><g data-name="Gruppe 364" style="fill:#916f6f"><g data-name="Gruppe 363" clip-path="url(#d)" style="fill:#916f6f"><path data-name="Pfad 237" d="M111.759 29.825a11.415 11.415 0 0 1 0-20.718 18.656 18.656 0 0 1 9.9-7.383 18.467 18.467 0 1 0 0 35.485 18.658 18.658 0 0 1-9.9-7.384" transform="translate(-97.527 -.421)" fill="#fff" style="fill:#f6c26c;fill-opacity:1"/></g></g></g></g></g></g></g></g></g></g></svg>