<svg xmlns="http://www.w3.org/2000/svg" viewBox="0 0 800 320" xmlns:v="https://vecta.io/nano"><path d="M0 0h800v320H0Z" fill="#fff"/><path d="m206.974 197.856-72.346 80.92a3.014 3.014 0 0 1-2.147.949h-42.59c-.491 0-1.199-.228-1.439-.948-.228-.48-.228-1.2.228-1.427l66.169-78.306a3.574 3.574 0 0 0 0-4.282l-65.678-78.295c-.48-.48-.48-1.2-.24-1.907.228-.72.948-.96 1.427-.96h42.59c.719 0 1.439.24 2.147.96l71.878 80.92a2.169 2.169 0 0 1 0 2.376z" fill="#006eaf"/><path d="m.636 112.654 72.346-80.921a3.014 3.014 0 0 1 2.147-.948h42.59c.48 0 1.199.228 1.439.948.228.719.228 1.199-.24 1.427L52.52 111.466a3.574 3.574 0 0 0 0 4.282l65.678 78.066c.48.468.48 1.188.24 1.895-.228.719-.948.959-1.667.959H74.409a2.912 2.912 0 0 1-2.135-.96L.396 114.8c-.48-.72-.48-1.667.228-2.147z" fill="#fc0"/><path d="M338.82 158.11c-17.607.719-23.316 3.814-33.798 14.044l2.386-15.472v-.228h-.228c-12.857 1.416-24.526 3.802-33.33 8.084 0-.228-20.473 117.802-20.473 117.802h31.891l12.617-70.68c3.094-17.617 12.857-27.368 25.702-27.368 11.898 0 19.285 7.856 16.191 25.942l-12.857 72.106h31.891l13.565-75.68c4.761-29.744-12.617-49.498-33.558-48.55zm403.166 99.487-.24.228s-.228 0-.228-.228l-12.629-101.154-19.274 1.427c-12.377 35.225-25.702 68.544-41.174 100.195l-.228.24c-.251 0-.251-.228-.251-.228-1.656-34.997-6.417-67.596-12.606-101.622l-16.191 1.416a776.735 776.735 0 0 1 14.524 123.762h17.847a754.972 754.972 0 0 0 45.456-101.154c0-.228.24-.228.24-.228.228 0 .228.228.228.228 2.866 34.038 6.44 67.116 10.002 101.154h17.379c21.181-39.027 40.455-76.16 54.499-125.43l-17.127 1.428c-10.482 38.559-24.755 68.544-40.226 99.966zM581.572 155.974c-18.086 0-31.172 9.51-39.267 20.94l11.19-64.021c-6.189 0-12.138.948-16.671 3.083l-18.075 99.966c-8.096 44.988 6.189 70.21 39.975 70.21 42.841 0 60.688-42.6 60.688-80.44 0-28.317-10.47-49.738-37.84-49.738zM559.443 271.64c-21.66 0-30.464-18.098-24.755-51.176l.48-3.083c6.189-34.277 22.38-47.134 41.174-47.134 20.233 0 25.942 17.618 25.942 36.424.228 22.608-8.803 64.97-42.841 64.97zM505.184 158.11h-34.277c-10.231 32.85-22.836 65.449-32.839 85.203-.48.948-1.427.948-1.427-.228-.959-20.005-4.761-52.604-10.71-84.974h-34.746v.24c12.138 42.133 20.461 94.486 23.088 123.522h33.318c11.647-18.086 27.369-54.271 30.464-61.887 3.083-7.376 24.983-56.874 27.13-61.636.228 0 .228-.228 0-.228z" fill="#3a4044"/></svg>