<svg version="1.1" id="svg18" width="800" height="320" xmlns="http://www.w3.org/2000/svg"><defs id="defs1"><style id="style1">.cls-1{fill:none}.cls-3{fill:#fff}</style></defs><path d="M0 0h800v320H0z" fill="#fff" id="path1-4" style="stroke-width:.8"/><g id="g18" transform="translate(53.018 15.71) scale(1.78015)"><g id="Ebene_1"><path id="rect1" style="fill:#00305d" d="M0 0h386.2v163H0z"/><path class="cls-3" d="M355.4 35.1c.1 0 .2 0 .3-.1.5-.2 1-.5 1.4-.9.3-.3.8-.8 1-1.6.3-1.1 0-2.3-1.3-3.2-.4-.3-1-.7-1.6-.9-.6-.2-1.9-.6-3.5-.4-1.5.1-2.9.6-3.6.8-2 .6-3.8 1.3-5.7 2.1-1.3.5-2.4.9-3.8 1.3-.4.1-1.4.3-2.5.3s-1.9-.7-2.1-.9c-.6-.7-.7-1.6-.7-2.1.1-.8.4-1.3.8-1.7.4-.4 1-.8 1-.8h-.7c-.3 0-.6.1-.7.2-.2 0-.5.2-.9.5 0 0-.6.4-.9 1.1-.4.8-.4 1.4-.4 1.9 0 .7.5 1.7 1.8 2.4.9.5 2 .5 2.6.5 1.4 0 3.1-.5 4.8-1.1.9-.3 2.8-1.1 4.6-1.8 1.9-.7 3.7-1.4 4.7-1.5 2-.2 3.1.1 3.6.3 1.2.4 1.8 1 1.9 1.1 0 0 .6.7.6 1.4 0 1.2-1.3 2-2.3 2-1.1 0-2.2 0-3.3-.1-1.7 0-3.4.1-5 .6-1.4.4-2.8.8-4.1 1.1-1.1.3-2.2.5-3.3.6-1.3.1-2.6.1-3.9 0-1.8-.1-3.5-.6-5.1-1.5-.2 0-.3-.2-.3-.4-.1-.5-.3-1-.4-1.4-.3-1.4-1-2.7-1.9-3.8-.1-.1-.1-.3 0-.5.1-.3.2-.7.4-1-.4.1-.8.3-1.1.4-.5.2-1.1.2-1.6.2-.6 0-1.2-.2-1.9-.2-.8 0-1.6 0-2.4.3l-3.6 1.3s-.2 0-.3.3c-.1.2-.2.4-.2.7 0 .2 0 .5.3.8.1.2.2.3.4.4.2-.1.3-.2.4-.3.1 0 .2-.2.3-.2.4-.2.7-.2.9.2 0 0 0 .1.1.2 0 0 .3.6.3 1.2 0 .5-.3 1-.3 1.1-.3.5-.9 0-1.1-.2 0 .3 0 1 .3 1.3.2.3.5.2.6.2.5-.2 1-.6 1.3-.8h.3v2.4h-.6c-.4 0-.8 0-1.2-.1-1-.1-2.1-.2-3.1-.3-.3 0-.9 0-1-.3-.2-.4-.6-.8-1.3-1.1-.6-.3-1.6-.3-1.9-.3-.6 0-1 .1-1.5.4-.3.1-.5.3-.7.5 0 .1-.2.2-.2.3-.2.3-.3.6-.3.9v.3h2s.9 0 1.6.2c.5.2.7.7.8.8.1.2.3.3.4.4 2.4 1.5 5.9 2.5 8.3 4.1.1 0 .2.1.3.2-.2.2-.4.3-.6.4-.9.5-2.8 1.7-3.5 2.5-.4.4-.7.5-1.1.4-.8 0-1.6-.1-2.4-.1-.6 0-.9 0-1.4.3-.3.1-.7.4-.9.6-.3.4-.6.9-.5 1.4h9c.3 0 .5 0 .8-.1 3-.8 5.4-1.5 8.4-2.3.1 0 .2 0 .4-.1v-.8h.6c1.2 0 2.1 0 3.3-.2 1.2-.2 2.9-.7 4-1.3.4-.2.8-.5 1.2-.7 1.6-.9 2.7-1.3 4.4-1.9.5-.2.9-.3 1.4-.5h.5c0 .6-.2 5.4-.3 5.6h-.9c-.8 0-1.8.1-2.2.3-.4.1-.7.4-.8.4-.2.2-.4.4-.5.6-.2.3-.3.8-.3 1.1h7.5s2-4.9 3.8-6.8l.3.3c1 .9 2.2 1.7 3.5 2.3 1.3.6 2.5 1.1 3.8 1.7.1 0 .2.1.4.2-.5.1-1 .2-1.4.4-.3 0-.6.2-.9.4-.3.3-.5.5-.7.8-.2.3-.2.7-.2.7h6.3v-5.3c-1.2-.3-2.4-.5-3.7-.8 0-.8-.3-2.4-.8-3.8-.6-1.5-1.4-2.9-1.8-3.3" id="path1"/><path class="cls-3" d="M355.4 59.9c.1 0 .2 0 .3-.1.5-.2 1-.5 1.4-.9.3-.3.8-.8 1-1.6.3-1.1 0-2.3-1.3-3.2-.4-.3-1-.7-1.6-.9-.6-.2-1.9-.6-3.5-.4-1.5.1-2.9.6-3.6.8-2 .6-3.8 1.3-5.7 2.1-1.3.5-2.4.9-3.8 1.3-.4.1-1.4.3-2.5.3s-1.9-.7-2.1-.9c-.6-.7-.7-1.6-.7-2.1.1-.8.4-1.3.8-1.7.4-.4 1-.8 1-.8h-.7c-.3 0-.6.1-.7.2-.2 0-.5.2-.9.5 0 0-.6.4-.9 1.1-.4.8-.4 1.4-.4 1.9 0 .7.5 1.7 1.8 2.4.9.5 2 .5 2.6.5 1.4 0 3.1-.5 4.8-1.1.9-.3 2.8-1.1 4.6-1.8 1.9-.7 3.7-1.4 4.7-1.5 2-.2 3.1.1 3.6.3 1.2.4 1.8 1 1.9 1.1 0 0 .6.7.6 1.4 0 1.2-1.3 2-2.3 2-1.1 0-2.2 0-3.3-.1-1.7 0-3.4.1-5 .6-1.4.4-2.8.8-4.1 1.1-1.1.3-2.2.5-3.3.6-1.3.1-2.6.1-3.9 0-1.8-.1-3.5-.6-5.1-1.5-.2 0-.3-.2-.3-.4-.1-.5-.3-1-.4-1.4-.3-1.4-1-2.7-1.9-3.8-.1-.1-.1-.3 0-.5.1-.3.2-.7.4-1-.4.1-.8.3-1.1.4-.5.2-1.1.2-1.6.2-.6 0-1.2-.2-1.9-.2-.8 0-1.6 0-2.4.3l-3.6 1.3s-.2 0-.3.3c-.1.2-.2.4-.2.7 0 .2 0 .5.3.8.1.2.2.3.4.4.2-.1.3-.2.4-.3.1 0 .2-.2.3-.2.4-.2.7-.2.9.2 0 0 0 .1.1.2 0 0 .3.6.3 1.2 0 .5-.3 1-.3 1.1-.3.5-.9 0-1.1-.2 0 .3 0 1 .3 1.3.2.3.5.2.6.2.5-.2 1-.6 1.3-.8h.3v2.4h-.6c-.4 0-.8 0-1.2-.1-1-.1-2.1-.2-3.1-.3-.3 0-.9 0-1-.3-.2-.4-.6-.8-1.3-1.1-.6-.3-1.6-.3-1.9-.3-.6 0-1 .1-1.5.4-.3.1-.5.3-.7.5 0 .1-.2.2-.2.3-.2.3-.3.6-.3.9v.3h2s.9 0 1.6.2c.5.2.7.7.8.8.1.2.3.3.4.4 2.4 1.5 5.9 2.5 8.3 4.1.1 0 .2.1.3.2-.2.2-.4.3-.6.4-.9.5-2.8 1.7-3.5 2.5-.4.4-.7.5-1.1.4-.8 0-1.6-.1-2.4-.1-.6 0-.9 0-1.4.3-.3.1-.7.4-.9.6-.3.4-.6.9-.5 1.4h9c.3 0 .5 0 .8-.1 3-.8 5.4-1.5 8.4-2.3.1 0 .2 0 .4-.1v-.8h.6c1.2 0 2.1 0 3.3-.2 1.2-.2 2.9-.7 4-1.3.4-.2.8-.5 1.2-.7 1.6-.9 2.7-1.3 4.4-1.9.5-.2.9-.3 1.4-.5h.5c0 .6-.2 5.4-.3 5.6h-.9c-.8 0-1.8.1-2.2.3-.4.1-.7.4-.8.4-.2.2-.4.4-.5.6-.2.3-.3.8-.3 1.1h7.5s2-4.9 3.8-6.8l.3.3c1 .9 2.2 1.7 3.5 2.3 1.3.6 2.5 1.1 3.8 1.7.1 0 .2.1.4.2-.5.1-1 .2-1.4.4-.3 0-.6.2-.9.4-.3.3-.5.5-.7.8-.2.3-.2.7-.2.7h6.3V68c-1.2-.3-2.4-.5-3.7-.8 0-.8-.3-2.4-.8-3.8-.6-1.5-1.4-2.9-1.8-3.3" id="path2"/><path class="cls-3" d="M354.4 84.2s.2 0 .3-.1c.5-.2 1-.5 1.4-.9.3-.2.8-.8 1-1.5.3-1 0-2.2-1.3-3.1-.4-.3-1-.6-1.6-.8-.6-.2-1.8-.5-3.3-.4-1.4.1-2.8.5-3.4.7-1.9.6-3.6 1.3-5.4 2-1.2.5-2.3.9-3.6 1.3-.4.1-1.3.3-2.4.3-1.1 0-1.8-.6-2-.9-.6-.7-.7-1.5-.6-2 0-.7.4-1.2.8-1.6.4-.4.9-.7.9-.7h-.7c-.3 0-.5.1-.7.2-.2 0-.5.2-.8.4 0 0-.6.4-.9 1-.4.7-.4 1.3-.4 1.8 0 .7.5 1.6 1.8 2.3.9.4 1.9.5 2.5.5 1.3 0 2.9-.5 4.6-1.1.9-.3 2.6-1.1 4.4-1.7 1.8-.7 3.6-1.3 4.5-1.4 1.9-.2 2.9.1 3.4.3 1.1.4 1.7.9 1.8 1.1 0 0 .6.6.5 1.3 0 1.1-1.3 1.9-2.2 1.9-1 0-2.1 0-3.1-.1-1.6 0-3.2.1-4.8.6-1.3.4-2.6.7-3.9 1.1-1 .3-2.1.5-3.2.6-1.2.1-2.4.1-3.7 0-1.7-.1-3.3-.6-4.9-1.4-.2 0-.2-.2-.3-.4-.1-.5-.3-.9-.4-1.4-.3-1.4-1-2.5-1.8-3.6 0-.1-.1-.3 0-.4l.3-.9c-.4.1-.7.3-1.1.4-.5.2-1 .2-1.5.2-.6 0-1.2-.1-1.8-.2-.8 0-1.6 0-2.3.3l-3.5 1.2s-.2 0-.3.3c-.1.2-.2.4-.2.7 0 .2 0 .5.2.8.1.2.2.3.3.4.2-.1.3-.2.4-.3.1 0 .2-.2.3-.2.4-.2.6-.2.9.2 0 0 0 .1.1.2 0 0 .3.5.3 1.1 0 .5-.3 1-.3 1.1-.3.4-.9 0-1.1-.2 0 .3 0 .9.2 1.2.2.2.5.2.6.1.4-.2.9-.6 1.2-.8h.3V86h-.6c-.4 0-.8 0-1.1-.1-1 0-2-.2-3-.3-.3 0-.8 0-.9-.3-.2-.3-.6-.8-1.2-1.1-.6-.3-1.5-.3-1.8-.3-.5 0-1 .1-1.5.3-.3.1-.5.3-.7.5 0 0-.2.2-.2.3-.2.3-.3.6-.3.8v.3h1.9s.9 0 1.5.2c.5.2.6.6.7.8.1.2.2.3.4.4 2.3 1.4 5.6 2.4 7.9 3.9 0 0 .2.1.3.2-.2.2-.3.3-.6.4-.9.5-2.6 1.6-3.3 2.4-.4.4-.7.5-1.1.4-.8 0-1.5 0-2.3-.1-.6 0-.9 0-1.4.3-.3.1-.6.3-.9.6-.3.3-.6.8-.5 1.4h8.6c.2 0 .5 0 .7-.1 2.8-.8 5.1-1.4 8-2.2.1 0 .2 0 .4-.1v-.8h.6c1.1 0 2 0 3.2-.2 1.2-.2 2.7-.6 3.8-1.2.4-.2.8-.4 1.2-.7 1.5-.8 2.6-1.2 4.1-1.8.4-.2.8-.3 1.3-.5h.5c0 .6-.2 5.1-.3 5.4h-.9c-.7 0-1.7.1-2.1.3-.4.1-.7.4-.8.4-.2.2-.4.3-.5.5-.2.3-.3.7-.3 1h7.1s1.9-4.7 3.6-6.5c.1 0 .2.2.3.3 1 .9 2.1 1.6 3.3 2.2 1.2.5 2.4 1.1 3.6 1.6.1 0 .2 0 .4.2-.5.1-.9.2-1.4.4-.3 0-.6.2-.9.4-.3.2-.5.5-.7.8-.2.3-.1.7-.1.7h6v-5c-1.2-.3-2.3-.5-3.5-.8 0-.7-.2-2.3-.8-3.6-.5-1.4-1.4-2.7-1.7-3.2" id="path3"/><path class="cls-3" d="M354.8 108.3h-40.4l-11.8-13.4V22h64v72.9zm-39.7-1.5h39.1l11-12.5V23.5h-61.1v70.9l11 12.5z" id="path4"/><path class="cls-1" id="rect4" d="M0 0h386.2v163H0z"/><path class="cls-3" d="m40.1 131.2-7.5-9.7h-3.3l7.5 9.7-7.5 9.7h3.3zm-9.6 0-7.5-9.7h-3.3l7.5 9.7-7.5 9.7H23z" id="path5"/><path class="cls-3" d="m298.5 138.4-14.6-17.3h-2.4v20.2h2.2v-17.4l14.7 17.4h2.3v-20.2h-2.2z" id="path6"/><path class="cls-3" d="M331.8 131.7h13.7v-1.8h-13.7v-7h14.6v-1.8h-16.8v20.2h17v-1.8h-14.8z" id="path7"/><path class="cls-3" d="M274.2 141.3h2.2v-20.2h-2.2z" id="path8"/><path class="cls-3" d="M348.3 121.1v1.8h8.4v18.4h2.2v-18.4h8.4v-1.8h-19.1z" id="path9"/><path class="cls-3" id="polygon9" d="m157.4 123.9 14.7 17.4h2.3v-20.2h-2.2v17.3l-14.6-17.3h-2.4v20.2h2.2z"/><path class="cls-3" id="polygon10" d="M210.9 129.9v-7h14.6v-1.8h-16.8v20.2h17v-1.8h-14.8v-7.8h13.8v-1.8z"/><path class="cls-3" id="polygon11" d="M137.4 129.9v-7H152v-1.8h-16.9v20.2h17v-1.8h-14.7v-7.8h13.7v-1.8z"/><path class="cls-3" id="polygon12" d="M115 121.1h-2.2v20.2h2.2v-7l4.6-3.4 10.7 10.4h2.9l-11.9-11.7 11.4-8.5h-3.1L115 131.9z"/><path class="cls-3" d="M246.9 140.1c0-.2-.2-.5-.2-.8v-2.1c0-.6 0-1.3-.1-2 0-.7-.3-1.3-.7-1.9-.3-.6-.9-1.1-1.6-1.5-.3-.2-.7-.3-1.1-.4.9-.3 1.7-.8 2.3-1.4 1-1 1.5-2.2 1.5-3.6s-.2-1.9-.6-2.6c-.4-.7-1-1.2-1.8-1.7-.7-.4-1.6-.7-2.5-.9-.9-.2-2-.3-3-.3h-10.4v20.2h2.2v-8.9h8.1c1.4 0 2.4.1 3.1.4.7.3 1.2.6 1.5 1.1.3.5.5 1 .6 1.6v3.8c0 .7.2 1.3.6 1.8v.2h2.8l-.6-.6c-.1-.1-.3-.3-.3-.5zm-7.8-9.4H231v-7.8h8.1c.8 0 1.5 0 2.2.2.7.1 1.3.4 1.8.7.5.3.9.7 1.2 1.1.3.5.4 1 .4 1.7s-.1 1.3-.4 1.8c-.3.5-.7.9-1.2 1.3-.5.3-1.1.6-1.8.7-.7.2-1.5.2-2.3.2z" id="path12"/><path class="cls-3" d="M71.9 48.6c0 2.7-.5 5-1.4 6.8-.9 1.8-2.1 3.3-3.6 4.4-1.5 1.1-3.1 1.9-4.9 2.4-1.8.5-3.5.7-5.2.7H34.7V34.4h22.4c2 0 3.9.2 5.7.6 1.8.4 3.3 1.1 4.7 2.2 1.4 1.1 2.5 2.6 3.3 4.4.8 1.9 1.2 4.2 1.2 7m13.9 8.8c.8-3.1 1.1-6 1.1-8.6 0-2.6-.4-5.6-1.1-8.7-.8-3.1-2.2-6-4.3-8.7-2.1-2.7-5.1-4.9-8.9-6.6-3.9-1.8-8.9-2.7-15-2.7H19.6v86.3h15.1V75.3h23c6.1 0 11.1-.9 15-2.6 3.9-1.7 6.8-3.9 8.9-6.6 2.1-2.7 3.5-5.5 4.3-8.6m70.6 24.8c0 4.4-1.3 7.7-3.8 10.1-2.5 2.4-6.1 3.6-10.7 3.6h-26.7V69.1H142c4.6 0 8.2 1.1 10.7 3.4s3.8 5.6 3.8 9.8m-3.9-36.1c0 3.9-1.2 6.8-3.6 8.9-2.4 2.1-5.4 3.1-9.1 3.1h-24.7V34.4h24.7c4.1 0 7.3.9 9.4 2.7 2.2 1.8 3.3 4.8 3.3 9.2m2.8 15.7v-.2c3.9-1.7 7-4.1 9.1-7.2 2.1-3.1 3.2-6.8 3.2-11.2 0-7.2-2.3-12.5-7-16.1-4.7-3.5-10.9-5.3-18.6-5.3h-41.9v86.3h39.6c5.6 0 10.4-.6 14.4-1.9 4-1.2 7.3-2.9 9.9-5.1 2.6-2.1 4.5-4.7 5.7-7.6 1.2-2.9 1.8-6.1 1.8-9.5 0-5.9-1.4-10.8-4.1-14.7-2.7-3.9-6.8-6.4-12.1-7.6m54.3 46.4h-4.3c-2 4.1-4.4 9.4-5.3 11.7-1.2 3.2-2.9 8.2-3.9 11.5 0 .3-.2.6-.4.9-.2.3-.2.7-.5 1-.3.5-.6.5-.9 0-.7-1.6-1.4-3.2-2.1-4.9-.8-1.6-.6-1.2-1.6-3.1-1.5-2.7-4.7-2.6-5.1-2.7-.7 0-1.1.1-1.4.5-.2.4-.3.8-.2 1.3v1.5c.1.5.3 1 .5 1.4.9 2.4.8 2.4 1.8 4.7.9 2.3 2 4.3 3.1 6.5.5 1.2 1.6 2.1 3.2 2.7 1.6.6 3.2 1.1 4.9.9 1.8-.2 2.6-1 2.5-2.2v-3.4c.4-4.4 1.3-8.6 2.9-12.8 1.2-3.3 4.4-10.6 6.7-15.6M289.4 22h-15.3L258 88h-.2l-16.9-66h-15.5L208 88h-.2l-15.6-66h-15.3l22.7 86.3h5.9c.8-1.7 1.6-3.2 2.2-4.1.5-.8 1.1-1.3 1.9-1.6.7-.3 1.8-.4 3.1-.2-.3.5-.5 1-.7 1.4-.2.4-.4.9-.7 1.3-.4.9-1 2-1.6 3.2h5.4l17.6-66h.2l17.3 66h15.3L289.3 22z" id="path13"/><path class="cls-1" id="rect13" d="M0 0h386.2v163H0z"/><path class="cls-3" d="M325 127.5c-.4-1.2-1-2.3-1.9-3.3-.9-.9-2.1-1.7-3.5-2.3-1.5-.6-3.3-.8-5.5-.8h-8.2v20.2h8.1c2 0 3.7-.3 5.1-.8 1.4-.5 2.6-1.2 3.6-2.1 1-.9 1.7-2 2.1-3.2.4-1.2.7-2.6.7-4s-.2-2.5-.5-3.7zm-2.5 7.7c-.5 1.1-1.2 1.9-2.1 2.5-.9.6-1.9 1.1-2.9 1.4-1.1.3-2.2.4-3.3.4h-6.1v-16.6h7.7c.7 0 1.4.2 2.1.4.7.2 1.4.5 2 .8.6.3 1.2.8 1.7 1.4.5.6.9 1.4 1.2 2.3.3.9.5 2 .5 3.3 0 1.3-.3 3-.8 4z" id="path14"/><path class="cls-3" d="M269.3 132.9c-.5-.7-1.1-1.2-1.8-1.6-.5-.3-1-.5-1.4-.6 0 0 .2 0 .3-.1.6-.3 1.1-.6 1.6-1 .4-.4.8-.9 1-1.4.2-.5.4-1.1.4-1.7 0-.6-.1-1.3-.4-2-.3-.7-.7-1.3-1.4-1.8-.6-.5-1.4-.9-2.4-1.2-1-.3-2.2-.5-3.7-.5h-10v20.2h10c1.3 0 2.5-.1 3.5-.4 1.1-.2 2-.6 2.7-1.1.8-.5 1.4-1.1 1.8-1.8.4-.7.7-1.6.7-2.5 0-.9-.3-2-.8-2.6zm-15.6-10h7.7c.8 0 1.5 0 2.2.2.7.1 1.3.3 1.8.6s.9.6 1.2 1.1c.3.4.4.9.4 1.6 0 1.1-.4 1.9-1.4 2.6-.9.7-2.4 1-4.3 1h-7.7v-7zm12.6 15.6c-1.2.7-2.8 1-4.8 1h-7.7v-7.8h7.7c.8 0 1.5 0 2.3.2.8.1 1.5.3 2.1.6.6.3 1.1.7 1.5 1.2.4.5.6 1.1.6 1.8 0 1.3-.5 2.3-1.6 3z" id="path15"/><path class="cls-3" d="M108.6 140.7c-.1-.1-.3-.3-.3-.5s-.2-.5-.2-.8v-2.1c0-.6 0-1.3-.1-2 0-.7-.3-1.3-.7-1.9-.3-.6-.9-1.1-1.6-1.5-.3-.2-.7-.3-1.1-.4.9-.3 1.7-.8 2.3-1.4 1-1 1.5-2.2 1.5-3.6s-.2-1.9-.6-2.6c-.4-.7-1-1.2-1.8-1.7-.7-.4-1.6-.7-2.5-.9-.9-.2-1.9-.3-3-.3H90.1v20.2h2.2v-8.9h8.1c1.4 0 2.4.1 3.1.4.7.3 1.2.6 1.5 1.1.3.5.5 1 .6 1.6v3.8c0 .7.2 1.3.6 1.8v.2h2.8l-.6-.6zm-5.8-10.3c-.7.2-1.5.2-2.3.2h-8.1v-7.8h8.1c.8 0 1.5 0 2.2.2.7.1 1.3.4 1.8.7.5.3.9.7 1.2 1.1.3.5.4 1 .4 1.7s-.1 1.3-.4 1.8c-.3.5-.7.9-1.2 1.3-.5.3-1.1.6-1.8.7z" id="path16"/><path class="cls-3" d="M77.9 121.1h-2.1l-10 20.2h2.4l3-6.2h11l3 6.2h2.4l-9.8-20.2zm-5.8 12.2 4.8-9.8 4.6 9.8h-9.3z" id="path17"/><path class="cls-3" d="M66.5 123.9c-.5-.8-1.1-1.4-1.9-1.8-.7-.4-1.5-.7-2.4-.8-.8-.1-1.6-.2-2.3-.2H49.3v20.2h2.2v-8.7h7.8c2.5 0 4.4-.5 5.8-1.5 1.4-1 2.1-2.4 2.1-4.3s-.3-2.2-.8-3zm-1.8 4.4c-.2.5-.5.9-.9 1.3s-1 .7-1.7.9c-.7.2-1.6.4-2.6.4h-8v-8h8.2c1.1 0 2.1.1 2.7.4a5 5 0 0 1 1.6 1.1c.4.4.6.9.7 1.3.1.5.2.9.2 1.2 0 .3 0 .9-.3 1.4z" id="path18"/></g></g></svg>