<svg xmlns="http://www.w3.org/2000/svg" viewBox="0 0 800.425 320"><path d="M0 0h800v320H0Z" fill="#fff" style="stroke-width:.8"/><g transform="matrix(1.31685 0 0 1.31685 -153.63 -229.158)"><path d="M127.5 282h-10.2v-21.3h10.2v-20.4h25.7v20.4H170V282h-16.8v33.7c0 5 2.1 7.1 7.8 7.1h9.2v21.8h-13.1c-17.4 0-29.6-7.4-29.6-29.2zm51.7-21.3h25.7l11.8 59.9 14.2-59.9h27.2l14.2 59.6 11.8-59.6h24.2l-22.7 83.8h-28.4l-13.3-54.4-13.6 54.4H202Zm168.6 85c-22.4 0-37.4-12.5-38.6-28.7h25.4c.6 5.9 5.9 9.8 12.9 9.8 6.6 0 10.1-3 10.1-6.8 0-13.5-45.7-3.8-45.7-34.6 0-14.3 12.2-26 34.1-26 21.6 0 33.7 12 35.3 28.6h-23.7c-.8-5.7-5.1-9.5-12.3-9.5-6 0-9.3 2.4-9.3 6.5 0 13.4 45.4 3.9 45.8 35.2 0 14.6-12.9 25.5-34 25.5" fill="#010202"/><path d="m694.7 274.4-25.2-3.1c8.2 2 16.6 3.6 25.2 3.1m-155.3-8.1c-14.8-.4-29.7-1.1-44.6.6 14.8-.7 29.7-.2 44.6-.6m135.8 67.3c-16.3-4.1-32.9-5.1-49.5-6q24.75 2.85 49.5 6m-102.1-18.9c0-.3.1-.7.1-1a361.92 361.92 0 0 0-53.1-1.1l53 2.1m-141.5 20a7.039 7.039 0 0 0 6.9 1.3 8.6 8.6 0 0 1 3.5-.4 87.4 87.4 0 0 0 17.7.6q12.3-.9 24.6-.6c10.2.3 20.5 1 30.7.5a117.2 117.2 0 0 1 15.7.4c9.4.8 18.7.1 28.1 1 9.4.9 18.9.6 28.3 1.2 1.4.1 3 .1 4.4.3a138.991 138.991 0 0 0 14.3.2 1020.605 1020.605 0 0 0-174.2-4.5m263.5 9.4c18.6 1-4.8 3.9-8.6 4.4 2 2.6 11.6 2.2 11.7 5.5-8.5 2-16.8.9-25.2-.2-7.7-1-15.5-1.6-23.3-2.4-8.9-.9-18-.7-26.9-1.7-12.5-1.3-25.1-1.5-37.7-2.3-3-.2-6-.6-9-.6-12 .3-24-1.1-36-.9-4.4.1-8.9-.2-13.4-.1-6.8.2-13.7.9-20.5-.3-3.1-.5-6.5.3-9.6.3-7 0-13.9.9-21-.3-4.4-.7-9 .1-13.5 0-11.2-.1-22.5.4-33.6-1.6-3.3-.6-6.8-.4-10.1-2.5 1.3-2.2 3.8-1.5 5.5-3-.2-1-1.8-.9-1.8-2.1 0-1.3 1.5-1.3 2.1-2.2-2.3-2-2.3-2-1.3-4.3-11.3-1.2-9.6 1.1-21.4-1.2a4.971 4.971 0 0 1 4.4-2.7 13.95 13.95 0 0 0 4.4-1.4c-2.3-.5-4.6 0-5.9-2.1.5-1.8 2.4-.7 3.3-1.7-.1-1.9-2.3-.2-2.7-1.6 2.4-3.8 6.6-3.1 10.1-4.3-4.2-.1-7.8-1.8-11.7-3.4 2.6-4 6.8-2.2 10.9-3.6-4-1.5-7.4-.3-10.8-1 .1-2.6 1.2-3.8 3.8-4.6 2.1-.6 4.6.4 6.3-1.9-3.6-.3-7.4.7-10.4-2 .8-1.2.8-1.4 4-1.8 1.9-.2 2.2-2.9 4.3-2.5a16 16 0 0 1-5.8-3c-.6-1.7 1.9-1.2 1.5-2.7a11.5 11.5 0 0 1-5.7-1.2c.9-2.8 4.1-1.3 5.7-3.4H402c-1.3 0-2.9-.3-2.9-1.9 0-1.4 1.6-1.5 2.7-1.8 4.1-1.1 8.6-.1 12.5-2.6a6.861 6.861 0 0 0-4.9-2 4.139 4.139 0 0 1 3.1-1.6c-.9-.9-2.2-1.1-1.8-2.4.3-1.1 1.4-1.2 2.4-1.2 3.2.2 6.3-1.3 9.6-1-5.2-1.4-11 1.2-15.7-3 2-2.9 5.1-2.4 7.4-2.6 8.6-.6 3.7-2.4 12.2-3.3 11.2-1.2 67.7-5 78.5-5.5l36.9-1.2c16.6 0 67.2 2.8 76 3.3 12.3.7 100.9 9 106.5 14.1-4.8.7-1.4 6.4-5.8 7.7 1.2.4 1.8.7 2.6 1-2 4-5.2 3.5-8.7 2.5 2.6 3.7 7.7 3.3 10 8.3-3.3-1.6-5.4.6-8.5-.2 2.1 1.8 4.7 1.4 5.6 3.8-1 3.9-4.3 2-7.2 2.7 2.8 1.2 4.3 3.1 6.1 5.1-5.1 3.2-9.9-1.9-14.9.4 4.2.5 8.4.9 10.2 5.6-.4 1-2.1.8-2 2.4.4.9 1.3.2 1.8.6 1.3.8 3.9.1 3.7 2.6-.1 2.1-2.4 1.5-3.7 2.1 1.7 1.3 4.6.8 5.3 4.1-9.7 1-6 5.5-2.1 8.7-2.7 1.6-5.9 3.8-8.4 2.9-1-.3 3.4 4.4 3.7 7.7" fill="#ffe500"/><path d="M529.4 291.4c-1.6-.4-6.7-1-8.8.8-1.3 1.2-7.1 8.5-7.1 8.4.1-.6.8-9 .6-9.2a2.437 2.437 0 0 0-1.3-.4 53.218 53.218 0 0 0-6 .4 1.216 1.216 0 0 0-1.2 1.2c-.1.6-5.1 41.6-5.2 42.1a1.392 1.392 0 0 0 .5 1.4 1.485 1.485 0 0 0 1.4.4c.2-.1 6.8-2.5 7.1-2.6.5-.2 3.3-16.2 3.4-16.6.2.2 9.4 23.6 9.5 23.7.3.7.8.8 1.6.5l6.3-2.2-11.3-29.5a16.592 16.592 0 0 1 1.6-.6 20.185 20.185 0 0 0 6-3 14.92 14.92 0 0 0 5-8.8 6.343 6.343 0 0 0-.7-4.7 1.854 1.854 0 0 0-1.4-1.3zm-6.6 10.6c-1.6 3-3.6 4.8-6.2 5.5.2-.5.7-1.3 1.3-2.6.6-1.2 1.1-2.1 1.4-2.8.3-.6.8-1.4 1.3-2.3a27.213 27.213 0 0 1 1.6-2.5 18.393 18.393 0 0 1 1.7-2.2c.9 1.7.5 3.9-1.1 6.9zm-28.5-3.2a20.668 20.668 0 0 0-5.9-1.1c-.1 0-.2 0-.2.1-1.5 1.5-12.8 20.6-15.4 25.1-.1.3-.5.1-.5-.1l.2-20.4c0-.9-4.7-2.1-6.1-1.8-.6.1-3 23.4-3.1 26 0 7 10.5 8.2 14.1 3 .5-.7 6.2-9.5 8-12.3a.28.28 0 0 1 .5.2l-.4 15.7a.645.645 0 0 0 .6.6h6.9a.576.576 0 0 0 .6-.6c.4-4.5 2-31.1 2-32a2 2 0 0 0-1.3-2.4zm-25.7-4.8a1.327 1.327 0 0 0 1.1.8c6.1.5 6.2.1 6.4-2.4 0-.4.6-5 .5-5.1a25.119 25.119 0 0 0-6.2-.1c-.7 0-2.1 6.3-1.8 6.8z"/><use href="#a"/><use href="#a" x="116.7" y="-3.9"/><path d="M462.4 288c-.6-.1-3.5-.1-8.6-.1 0-1.2 2.2-15.8 2.5-16.9l19.5-1 1.2-.3v-.3l-.6-.3a6.116 6.116 0 0 0-1.4-.3c-.7-.2-1.3-.3-1.7-.4a11.924 11.924 0 0 0-4.7-.7c-2.8-.2-23.7.8-24.6 1-1.4.3-1.7 1.1-1 2.3a4.392 4.392 0 0 0 2.2 1.8c-.1 2.1-2.4 15.6-2.4 16.1-.4 0-5.7.4-6.3.5-.7.1-.9 1.7-.9 2.4 0 2 2.9.9 6.9.8l-7 43.7a3.024 3.024 0 0 0 .6 2.5 2.967 2.967 0 0 0 2.7.3c.2-.1 1.6-.5 4.3-1.2a7.686 7.686 0 0 1 1.2-.4c.7-.2 1.2-.4 1.6-.5.9-.3 7.1-41.2 7.7-44.5a.367.367 0 0 1 .1-.3l.1-.2.2-.1c2.4-.3 6.4-.6 12-1 1.9-.7.4-2.6-3.6-2.9zm191.2 33.5c-1.7.1-11.9 3.9-12.1 3.8a4.685 4.685 0 0 1-2.9-4c-.2-2.5-2.5-10 5.2-17.3.8.3.7 7.2 1 7.4.3.2 6.9-.6 7.1-.9.2-.3 1.7-16 1.7-16a15.259 15.259 0 0 0-6.9-.9c-.4 1-2.1 4.8-2.2 4.9a1.327 1.327 0 0 1-1 .3c-11.7 1.1-15.4 21.8-13.5 28a5.479 5.479 0 0 0 1.9 2.9 6.1 6.1 0 0 0 3 1.5 9.9 9.9 0 0 0 4.9-.8c.4-.2 14-7.5 15-8.3-.1-.3-.9-.6-1.2-.6zm-32.1-4.1c-1.3.2-13.2 9.4-13.2 9.4-.1-.3 3.4-27.7 3.5-28.1.1-.7-7.1-.9-8.8-.6-.9.2-5.7 37-5.8 37.9a2.115 2.115 0 0 0 .9 2.3 3.2 3.2 0 0 0 2.8.4c.6-.3 8.4-3 8.8-3.3.4-.3 17.2-16.5 17.1-16.9-.5-.1-4-1.3-5.3-1.1zm-28-49.2c-.2.1-9.5 30.9-9.5 30.9-.2.6-10.7-6.7-20.7 8.4-4.5 6.8-5 12.7-4.8 19.1a11.832 11.832 0 0 0 3.8 8.4 4.566 4.566 0 0 0 1.9 1.2c6.9 1.6 17.9-21 18.3-21.7.4-.7 1.7-3.1 2.2-4.2 0 0-2.5 27.9-1.7 28.7.4.4 9.5-4.3 9.6-4.4.1-.1 8-63.3 8.5-66.8 0-.5-7.4.2-7.6.4zm-25.9 58.4a18.242 18.242 0 0 1-1.2-4.3c-.1-1-.3-2.6-.4-4.9-.1-1.4 1.4-6.6 3.5-11.1a7.923 7.923 0 0 1 10.1-3.9c2.8 1.2-11.8 24-12 24.2zm130.9 8.8c-.2 0-5.3.9-5.5.9a2.537 2.537 0 0 1-1.6-.4c-.4-.3 1.1-9.7 1.6-9.7.7-.1 5.8.1 6.4.2.4.1-.9 8.8-.9 9zM686.7 299c-.1-1.7-8.1-2.4-9.4-1.1-3.7 1.9-10.1 12.3-10.1 12.3s2.5-43 1-43H663c-1.1 0-5 66.4-3.9 66.5h1.9c2.6-.1 6.6-.5 6.7-.9 4.3-22.9 11-27 11-26.9 0 1 .3 7.5.5 11 .3 8 .6 16.2 1 18.2.1.2.2.3.3.5a2.389 2.389 0 0 0 1.3.7h.4c.1 0 5.5-.9 5.9-1-.1-1.3-1.3-35.4-1.4-36.3z"/></g><defs><path id="a" d="M488.8 294.7c6.1.5 6.2.1 6.4-2.4 0-.4.6-5 .5-5.1a25.119 25.119 0 0 0-6.2-.1c-.6 0-2 6.3-1.7 6.8a.974.974 0 0 0 1 .8z"/></defs></svg>