<svg xmlns="http://www.w3.org/2000/svg" xml:space="preserve" id="svg2" version="1.1" viewBox="0 0 800 320"><defs id="defs1"><clipPath id="A"><use id="use1" href="#B"/></clipPath><path id="B" d="M100.3-65.5h594.1v594.1H100.3Z"/></defs><path id="path1" fill="#fff" d="M0 0h800v320H0Z" style="fill:none"/><style id="style1" type="text/css">.st0{fill-rule:evenodd;clip-rule:evenodd;fill:#e3131e}.st1{display:none;fill:#858b95;enable-background:new}.st2{font-family:&quot;DBSansAlternate-BoldItalic&quot;}.st3{font-size:73.0039px}.st4{enable-background:new}.st5,.st8{fill:#858b95}.st8{display:inline}.st9{font-size:54.841px}</style><g id="g1" style="stroke-width:.999999" transform="translate(0 108.288) scale(.91706)"><g id="_x31_zeilig" style="stroke-width:.999999"><g id="_xD83C__xDFA8_-Color_00000181773703948023319160000012159095120259199921_" style="stroke-width:.999999" transform="translate(24 50)"><path id="path1-9" d="M120.38-49.82c4.26-.06 8.38 1.58 11.42 4.57 3.05 2.98 4.78 7.06 4.81 11.32v80.3c-.03 8.95-7.28 16.2-16.23 16.23H-7.94c-4.28-.02-8.39-1.74-11.4-4.78A16.148 16.148 0 0 1-24 46.37v-80.3c-.02-4.25 1.68-8.33 4.7-11.31a15.84 15.84 0 0 1 11.36-4.58zM-7.94-38.35c-1.21-.1-2.41.33-3.29 1.17-.88.85-1.35 2.03-1.3 3.24v80.83c.07 1.04.52 2.03 1.27 2.78a4.28 4.28 0 0 0 3.32 1.23H120.6c1.21.03 2.38-.44 3.24-1.29.86-.86 1.32-2.03 1.29-3.24l-.23-80.25c.03-1.21-.44-2.37-1.29-3.22-.86-.85-2.03-1.3-3.24-1.25zm101.18 7.92c12.96 0 20.88 7.06 20.88 17.84-.13 7.9-5.31 14.84-12.85 17.21 8.95 1.11 15.62 8.82 15.43 17.84 0 14.63-9.98 20.71-28.28 20.71H62.38v-73.59h30.86zm-68.08-.11c18.93 0 29.54 12.05 29.54 36.48 0 21.34-7.23 37.05-29.54 37.23H-1.97v-73.71zm62.46 42.9h-7.69v18.76h7.48c2.97-.01 11.62-.28 11.68-9.46.01-4.02-2.29-9.3-11.47-9.3zm-67.97-31.2h-3.96v49.96h6.19c9.52 0 14.97-7.4 14.97-23.57.01-14.81-1.6-26.39-17.2-26.39zm65.74-.29h-5.45v17.84h6.88c2.51.25 5.01-.6 6.86-2.32a8.744 8.744 0 0 0 2.78-6.68c0-6.14-3.04-8.84-11.07-8.84z" class="st0" style="stroke-width:.999999"/></g><g id="g37" class="st4" style="stroke-width:.999999"><path id="path24" d="M267.81 31.06h19.57c4.73 0 8.5.82 11.3 2.46 3.83 2.21 5.74 5.73 5.74 10.55 0 5.25-1.63 9.24-4.88 11.98-1.92 1.59-4.73 2.85-8.41 3.78 2.42 1.14 4.24 3.35 5.45 6.63l6.67 17.68h-13.01l-5.81-15.97c-.69-1.9-1.46-3.24-2.32-4.03-1.02-.9-2.47-1.35-4.35-1.35h-3.28l-4.17 21.35h-12.8zm8.31 23.35h6.63c3.26 0 5.62-.69 7.09-2.07.74-.69 1.32-1.69 1.75-2.99.38-1.21.57-2.45.57-3.71 0-3.47-2.22-5.2-6.67-5.2h-6.67z" class="st5" style="stroke-width:.999999"/><path id="path25" d="M336.39 82.5c-1.9.74-3.33 1.25-4.28 1.53-2.85.86-5.88 1.28-9.09 1.28-5.99 0-10.4-1.56-13.22-4.67-2.28-2.52-3.42-5.95-3.42-10.3 0-4.63.89-9.13 2.67-13.47 1.83-4.47 4.82-7.84 8.98-10.12 3.21-1.78 6.89-2.67 11.05-2.67 4.25 0 7.63.94 10.12 2.82 2.57 1.95 3.85 4.71 3.85 8.27 0 5.97-3.53 9.92-10.59 11.87-3.26.9-7.95 1.46-14.08 1.68-.05.59-.07 1.1-.07 1.53 0 1.81.46 3.26 1.39 4.35 1.07 1.24 3.24 1.85 6.52 1.85 2.31 0 4.66-.33 7.06-1 1-.26 2.6-.79 4.81-1.57zm-17.03-20.32 1.25-.07c3.14-.21 5.6-.57 7.38-1.07 2.73-.78 4.1-2.3 4.1-4.56 0-2.88-1.49-4.31-4.46-4.31-3.07 0-5.3 1.52-6.7 4.56-.6 1.3-1.12 3.12-1.57 5.45z" class="st5" style="stroke-width:.999999"/><path id="path26" d="m388.19 45.24-7.34 37.64c-1.31 6.82-4.34 11.53-9.09 14.12-3.23 1.76-7.52 2.64-12.87 2.64-4.97 0-9.84-.84-14.62-2.53l1.75-8.95c.71.24 1.25.42 1.6.53 4.14 1.4 7.66 2.1 10.59 2.1 3.78 0 6.49-.77 8.13-2.32 1.4-1.33 2.38-3.4 2.92-6.2l1.21-6.13c-4.04 4.71-8.29 7.06-12.76 7.06-3.52 0-6.25-1.03-8.2-3.1-2.04-2.19-3.07-5.16-3.07-8.91s.7-7.84 2.1-12.26c3.11-9.7 9.27-14.54 18.47-14.54 4.32 0 8.02 1.33 11.09 3.99l2-3.14zm-13.55 9.38c-1.85-1.21-3.83-1.82-5.92-1.82-3.83 0-6.45 1.69-7.88 5.06-.59 1.43-1.13 3.43-1.6 6.02-.45 2.47-.68 4.42-.68 5.85 0 3.23 1.5 4.85 4.49 4.85 1.54 0 3.15-.45 4.81-1.35.88-.45 2.09-1.25 3.64-2.39z" class="st5" style="stroke-width:.999999"/><path id="path27" d="m390.01 84.13 7.24-37.57c4.42-.14 7.55-.94 9.38-2.39l2.74.64-7.66 39.32zm15.93-55.67c1.76 0 3.21.58 4.35 1.75 1.05 1.07 1.57 2.44 1.57 4.1 0 1.78-.57 3.27-1.71 4.46-1.26 1.31-2.82 1.96-4.67 1.96-1.76 0-3.21-.58-4.35-1.75-1.05-1.07-1.57-2.46-1.57-4.17 0-1.76.57-3.22 1.71-4.38 1.28-1.32 2.84-1.97 4.67-1.97z" class="st5" style="stroke-width:.999999"/><path id="path28" d="M435.06 44.07c5.42 0 9.57 1.5 12.44 4.49 2.61 2.73 3.92 6.21 3.92 10.44 0 4.73-.95 9.33-2.85 13.79-1.83 4.35-4.66 7.62-8.48 9.8-3.18 1.81-6.94 2.71-11.26 2.71-5.47 0-9.67-1.63-12.62-4.88-2.42-2.66-3.64-6.19-3.64-10.59 0-4.06.81-8.19 2.42-12.37 1.83-4.73 4.74-8.25 8.73-10.55 3.29-1.89 7.07-2.84 11.34-2.84zm-.92 8.2c-2.38 0-4.22.87-5.53 2.6-1.24 1.59-2.32 4.61-3.24 9.05-.64 3-.96 5.25-.96 6.77 0 4.23 1.81 6.34 5.42 6.34 3.47 0 5.93-1.94 7.38-5.81.59-1.59 1.16-3.97 1.71-7.13.43-2.4.64-4.36.64-5.88-.01-3.96-1.81-5.94-5.42-5.94z" class="st5" style="stroke-width:.999999"/><path id="path29" d="m477.73 84.13 10.3-53.08h19.29c4.89 0 8.73.89 11.51 2.67 3.16 2 4.74 5.06 4.74 9.2 0 3.71-1.05 6.71-3.14 9.02a12.07 12.07 0 0 1-4.56 3.17c-.76.31-1.92.65-3.49 1.03 3.21.57 5.58 1.66 7.13 3.28 1.78 1.85 2.67 4.44 2.67 7.77 0 11.29-7.7 16.93-23.1 16.93h-21.35zm14.44-9.23h7.63c6.7 0 10.05-2.97 10.05-8.91 0-3.85-2.36-5.78-7.09-5.78h-7.73zm4.35-22.49h7.06c4.85 0 7.27-2.42 7.27-7.27 0-3.14-1.88-4.71-5.63-4.71h-6.34z" class="st5" style="stroke-width:.999999"/><path id="path30" d="m568.02 45.03-7.59 39.1h-7.88l-1.68-6.31c-2.19 2.14-4.19 3.77-6.02 4.88-2.76 1.69-5.55 2.53-8.38 2.53-2.92 0-5.18-.9-6.77-2.71-1.38-1.57-2.07-3.75-2.07-6.56 0-1.35.19-3.02.57-4.99l4.85-24.99 11.91-.96-4.67 24.42c-.26 1.31-.39 2.31-.39 2.99 0 2.4 1.16 3.6 3.49 3.6 1.95 0 4.43-1.08 7.45-3.24l5.24-26.81z" class="st5" style="stroke-width:.999999"/><path id="path31" d="M600.36 55.58c-1.71-.93-3.16-1.59-4.35-2-2.12-.76-4.37-1.14-6.77-1.14-3.52 0-5.28 1.08-5.28 3.24 0 .81.31 1.49.93 2.03.69.59 1.94 1.27 3.74 2.03 3.71 1.57 6.25 2.96 7.63 4.17 1.95 1.76 2.92 4.23 2.92 7.42 0 4.4-1.37 7.82-4.1 10.27-2.64 2.38-6.62 3.57-11.94 3.57-3.66 0-6.87-.45-9.62-1.36-1.28-.43-2.88-1.14-4.78-2.14l1.64-8.45c1.85 1.02 3.54 1.82 5.06 2.39 2.35.9 4.86 1.35 7.52 1.35 3.78 0 5.67-1.21 5.67-3.64 0-1.24-.69-2.27-2.07-3.1-.67-.4-2.4-1.21-5.2-2.42-2.33-.97-4.11-2.11-5.35-3.42-1.62-1.71-2.42-4.11-2.42-7.2 0-3.99 1.29-7.14 3.88-9.45 2.71-2.4 6.63-3.6 11.76-3.6 3.42 0 6.48.48 9.16 1.43.9.31 2.09.84 3.56 1.6z" class="st5" style="stroke-width:.999999"/><path id="path32" d="m627.48 84.13 10.3-53.08h19.29c4.89 0 8.73.89 11.51 2.67 3.16 2 4.74 5.06 4.74 9.2 0 3.71-1.05 6.71-3.14 9.02a12.07 12.07 0 0 1-4.56 3.17c-.76.31-1.92.65-3.49 1.03 3.21.57 5.58 1.66 7.13 3.28 1.78 1.85 2.67 4.44 2.67 7.77 0 11.29-7.7 16.93-23.1 16.93h-21.35zm14.44-9.23h7.63c6.7 0 10.05-2.97 10.05-8.91 0-3.85-2.36-5.78-7.09-5.78h-7.73zm4.35-22.49h7.06c4.85 0 7.27-2.42 7.27-7.27 0-3.14-1.88-4.71-5.63-4.71h-6.34z" class="st5" style="stroke-width:.999999"/><path id="path33" d="M713.78 84.13H703.2l-1.35-6.31c-1.71 1.97-3.3 3.49-4.78 4.56-2.64 1.9-5.45 2.85-8.45 2.85-3.19 0-5.72-.98-7.59-2.92-2.16-2.26-3.24-5.62-3.24-10.09 0-4.11.68-8.35 2.03-12.73 1.64-5.23 4.25-9.14 7.84-11.73 3.16-2.28 6.75-3.42 10.77-3.42 4.16 0 7.66 1.44 10.52 4.31l2.42-3.39h7.49l-5.38 27.77c-.38 1.97-.57 3.66-.57 5.06 0 1.62.43 2.97 1.28 4.06zm-8.34-30.12c-1.45-.88-3.1-1.32-4.96-1.32-3.99 0-6.76 2.06-8.31 6.17-.71 1.9-1.31 4.18-1.78 6.84-.38 2.21-.57 4.1-.57 5.67 0 3.8 1.48 5.7 4.46 5.7 2.21 0 4.68-1.25 7.41-3.74z" class="st5" style="stroke-width:.999999"/><path id="path34" d="M716.21 98.68c5.39-5.13 10.85-10.74 16.36-16.83l-8.2-36.57h11.8l4.6 24.85c2.64-4.73 4.74-8.89 6.31-12.48 1.71-3.85 3.24-7.97 4.6-12.37h10.09c-2.07 6.46-4.3 12.12-6.7 16.97-3.73 7.53-8.19 14.69-13.37 21.46-3.54 4.63-8.06 9.62-13.55 14.97z" class="st5" style="stroke-width:.999999"/><path id="path35" d="M792.24 82.5c-1.9.74-3.33 1.25-4.28 1.53-2.85.86-5.88 1.28-9.09 1.28-5.99 0-10.4-1.56-13.22-4.67-2.28-2.52-3.42-5.95-3.42-10.3 0-4.63.89-9.13 2.67-13.47 1.83-4.47 4.82-7.84 8.98-10.12 3.21-1.78 6.89-2.67 11.05-2.67 4.25 0 7.63.94 10.12 2.82 2.57 1.95 3.85 4.71 3.85 8.27 0 5.97-3.53 9.92-10.59 11.87-3.26.9-7.95 1.46-14.08 1.68-.05.59-.07 1.1-.07 1.53 0 1.81.46 3.26 1.39 4.35 1.07 1.24 3.24 1.85 6.52 1.85 2.3 0 4.66-.33 7.06-1 1-.26 2.6-.79 4.81-1.57zM775.2 62.18l1.25-.07c3.14-.21 5.6-.57 7.38-1.07 2.73-.78 4.1-2.3 4.1-4.56 0-2.88-1.49-4.31-4.46-4.31-3.07 0-5.3 1.52-6.7 4.56-.59 1.3-1.12 3.12-1.57 5.45z" class="st5" style="stroke-width:.999999"/><path id="path36" d="m800.83 84.13 7.24-37.57c4.42-.14 7.54-.94 9.38-2.39l2.71.64-1.6 8.38c2.26-2.76 4.43-4.81 6.52-6.17 2.19-1.43 4.65-2.32 7.38-2.67l-2.14 10.73c-4.82.5-9.08 1.54-12.76 3.14l-5.03 25.92h-11.7z" class="st5" style="stroke-width:.999999"/><path id="path37" d="M866.6 84.13h-11.76l4.67-24.28c.21-1.14.32-2 .32-2.57 0-2.23-1.09-3.35-3.28-3.35-2.33 0-5.09 1.26-8.27 3.78l-5.17 26.41h-11.69l7.24-37.57c4.42-.14 7.54-.94 9.38-2.39l2.78.64-1.46 7.34c5.32-5.2 10.31-7.81 14.97-7.81 2.73 0 4.79.76 6.17 2.28 1.24 1.38 1.85 3.3 1.85 5.77 0 1.26-.18 2.8-.53 4.63z" class="st5" style="stroke-width:.999999"/></g></g></g></svg>