<svg xmlns="http://www.w3.org/2000/svg" viewBox="0 0 800 320" xmlns:v="https://vecta.io/nano"><path d="M0 0h800v320H0Z" fill="#fff"/><g fill="#fc0" transform="matrix(.9057 0 0 .9057 36.104 -68.94)"><path d="M341.383 427.757v-5.895h5.966v5.895z"/><use href="#A"/><use href="#A" x="19.176"/><use href="#A" x="38.353"/><path d="M303.03 408.581v-5.895h5.966v5.895zm19.177 0v-5.895h5.966v5.895z"/><use href="#B"/><path d="M358.145 411.066V400.2h10.867v10.867zm19.177 0V400.2h10.867v10.867zm19.177 0V400.2h10.938v10.867zm-112.645-21.662v-5.895h5.895v5.895zm17.969 1.278v-8.381h8.381v8.381zm17.898 1.208v-10.867h10.938v10.867z"/><use href="#C"/><use href="#D"/><use href="#D" x="19.176"/><use href="#E"/><path d="M264.677 370.298v-5.966h5.895v5.966z"/><use href="#B" x="-57.601" y="-38.282"/><path d="M300.544 372.784v-10.867h10.938v10.867z"/><use href="#E" x="-76.777" y="-19.176"/><use href="#E" x="-57.601" y="-19.176"/><path d="M245.5 351.122v-5.895h5.895v5.895z"/><use href="#B" x="-76.778" y="-57.459"/><use href="#C" x="-57.601" y="-38.283"/><use href="#E" x="-95.954" y="-38.353"/><path d="M245.5 331.945v-5.895h5.895v5.895z"/><use href="#C" x="-76.778" y="-57.459"/><use href="#D" x="-76.778" y="-57.459"/><path d="M226.253 312.839v-5.895h5.966v5.895z"/><use href="#B" x="-95.954" y="-95.741"/><use href="#C" x="-76.778" y="-76.565"/><path d="M280.089 316.533V303.18h13.424v13.353zm-54.618-29.618h7.6v7.6h-7.6z"/><use href="#C" x="-95.955" y="-95.741"/><path d="M260.913 297.356v-13.282h13.424v13.282z"/><use href="#A" x="-134.308" y="-153.2"/><use href="#C" x="-95.955" y="-114.918"/><use href="#D" x="-95.954" y="-114.918"/><use href="#A" x="-134.308" y="-172.377"/><path d="M243.014 257.866V247h10.867v10.867z"/><use href="#D" x="-95.954" y="-134.094"/><use href="#F"/><use href="#G"/><use href="#G" x="-19.176"/><path d="M398.203 428.538v-7.529h7.529v7.529zm102.702-19.957v-5.895h-5.966v5.895z"/><use href="#F" x="19.177" y="-19.176"/><path d="M463.759 409.788v-8.381h-8.452v8.381z"/><use href="#H"/><use href="#H" x="-19.177"/><use href="#H" x="-38.354"/><path d="M520.081 389.404v-5.895h-5.966v5.895z"/><use href="#I"/><use href="#J"/><use href="#J" x="-19.177"/><use href="#K"/><use href="#L"/><use href="#L" x="-19.176"/><path d="M539.258 370.298v-5.966h-5.966v5.966z"/><use href="#I" x="19.177" y="-19.176"/><use href="#M"/><use href="#K" x="38.353" y="-19.176"/><use href="#K" x="19.177" y="-19.176"/><use href="#F" x="95.955" y="-76.635"/><use href="#I" x="38.353" y="-38.353"/><use href="#M" x="19.176" y="-19.177"/><use href="#L" x="76.778" y="-38.353"/><use href="#F" x="95.955" y="-95.812"/><use href="#M" x="38.353" y="-38.353"/><use href="#L" x="95.955" y="-57.459"/><use href="#F" x="115.131" y="-114.918"/><use href="#I" x="57.53" y="-76.635"/><use href="#M" x="38.353" y="-57.459"/><path d="M523.775 316.533V303.18h-13.353v13.353zm47.089-22.018v-7.6h7.6v7.6z"/><use href="#J" x="76.777" y="-95.741"/><path d="M542.951 297.356v-13.282h-13.353v13.282z"/><use href="#G" x="134.308" y="-153.2"/><use href="#J" x="76.777" y="-114.918"/><use href="#L" x="115.131" y="-114.918"/><use href="#G" x="134.308" y="-172.376"/><path d="M560.92 257.866V247h-10.867v10.867z"/><use href="#L" x="115.131" y="-134.094"/><path d="M341.383 77.038v5.966h5.966v-5.966z"/><use href="#N"/><use href="#N" x="19.177"/><use href="#N" x="38.354"/><use href="#O"/><use href="#O" x="19.177"/><path d="M340.176 94.936v8.452h8.452v-8.452zm17.969-1.208v10.867h10.867V93.728Zm19.177 0v10.867h10.867V93.728Zm19.177 0v10.867h10.938V93.728Zm-112.645 21.663v5.895h5.895v-5.895zm17.969-1.278v8.381h8.381v-8.381zm17.898-1.208v10.867h10.938v-10.867z"/><use href="#P"/><use href="#Q"/><use href="#Q" x="19.176"/><use href="#R"/><path d="M264.677 134.497v5.895h5.895v-5.895zm17.898-1.208v8.381h8.452v-8.381zm17.969-1.278v10.867h10.938v-10.867z"/><use href="#R" x="-76.777" y="19.176"/><use href="#R" x="-57.601" y="19.176"/><path d="M245.5 153.673v5.895h5.895v-5.895zm17.898-1.207v8.381h8.452v-8.381z"/><use href="#P" x="-57.601" y="38.282"/><path d="M299.337 149.98v13.282h13.353V149.98ZM245.5 172.779v5.966h5.895v-5.966z"/><use href="#P" x="-76.778" y="57.459"/><use href="#Q" x="-76.778" y="57.459"/><use href="#O" x="-76.777" y="95.742"/><path d="M244.222 190.748v8.381h8.452v-8.381zm17.969-1.278v10.867h10.867V189.47Z"/><use href="#Q" x="-76.778" y="76.635"/><path d="M233.071 210.28v7.6h-7.6v-7.6z"/><use href="#P" x="-95.955" y="95.741"/><path d="M260.913 207.439v13.282h13.424v-13.282z"/><use href="#N" x="-134.307" y="153.2"/><use href="#P" x="-95.955" y="114.918"/><use href="#Q" x="-95.954" y="114.917"/><use href="#N" x="-134.307" y="172.377"/><use href="#P" x="-95.955" y="134.024"/><use href="#Q" x="-95.954" y="134.094"/><path d="M462.48 77.038v5.966h-5.895v-5.966z"/><use href="#S"/><use href="#S" x="-19.177"/><path d="M405.732 83.785h-7.529v-7.529h7.529zm95.173 12.429v5.895h-5.966v-5.895zm-19.248 0v5.895h-5.895v-5.895zm-17.898-1.278v8.452h-8.452v-8.452z"/><use href="#T"/><use href="#T" x="-19.177"/><use href="#T" x="-38.354"/><path d="M520.081 115.391v5.895h-5.966v-5.895z"/><use href="#U"/><use href="#V"/><use href="#V" x="-19.177"/><use href="#W"/><use href="#X"/><use href="#X" x="-19.176"/><path d="M539.258 134.497v5.895h-5.966v-5.895z"/><use href="#U" x="19.177" y="19.176"/><use href="#Y"/><use href="#W" x="38.353" y="19.176"/><use href="#W" x="19.177" y="19.176"/><path d="M558.435 153.673v5.895h-5.895v-5.895z"/><use href="#U" x="38.353" y="38.353"/><use href="#Y" x="19.176" y="19.176"/><path d="M504.598 149.98v13.282h-13.353V149.98Zm53.837 22.799v5.966h-5.895v-5.966z"/><use href="#Y" x="38.353" y="38.353"/><use href="#X" x="95.955" y="57.459"/><path d="M577.611 191.956v5.895h-5.895v-5.895z"/><use href="#U" x="57.53" y="76.635"/><path d="M541.744 189.47v10.867h-10.938V189.47Z"/><use href="#X" x="95.955" y="76.635"/><path d="M578.464 217.879h-7.6v-7.6h7.6z"/><use href="#V" x="76.777" y="95.741"/><path d="M542.951 207.439v13.282h-13.353v-13.282z"/><use href="#S" x="134.308" y="153.2"/><use href="#V" x="76.777" y="114.918"/><use href="#X" x="115.131" y="114.917"/><use href="#S" x="134.308" y="172.377"/><use href="#V" x="76.777" y="134.024"/><use href="#X" x="115.131" y="134.094"/><path d="M287.689 279.884h-10.086v-54.973h10.086v-2.486h-10.086l.071-17.33h19.177l-.071-18.324h10.157v-2.557H296.78l.071-17.259h19.177V147.92h38.353v-19.319h17.756v10.085h2.486v-10.085h55.186v10.085h2.486v-10.085h17.188v19.319h38.353v19.035h19.177l.071 17.259h-10.157v2.557h10.157l-.071 18.324h19.177v17.33h-10.086v2.486h10.086v54.973h-10.086v2.486h10.086v17.472h-19.177l.071 18.324h-10.157v2.486h10.157l-.071 17.472h-19.177v19.177h-38.353v18.964h-17.188V366.18h-2.486v10.085h-55.186V366.18h-2.486v10.085h-17.756v-18.964h-38.353v-19.177h-19.177l-.071-17.472h10.157v-2.486H296.78l.071-18.324h-19.177l-.071-17.472h10.086z"/></g><path d="M357.451 216.198a80.152 80.152 0 0 0-13.25-1.48c0 2.188 0 4.375-3.731 4.375s-3.86-1.866-5.275-1.995c-1.287 1.222-5.082 5.532-2.38 9.843a7.076 7.076 0 0 0 11.128 2.058c1.93-1.737 1.351-5.339 1.286-6.432s3.216-.643 4.696 1.801a23.737 23.737 0 0 0 7.526-8.105zm101.444-7.333c2.38 0 8.17.836 2.959 9.263a38.596 38.596 0 0 1-15.889 10.614s5.725 0 4.76 3.473-3.087 5.597-18.718 6.433-42.97-10.871-46.187-12.223c.771 3.024.964 10.807-5.34 10.293a5.082 5.082 0 0 1-4.695-5.468c.578-.643 4.696-1.48 3.859-4.182a20.456 20.456 0 0 0-13.895-8.812c-1.028 0-4.696 6.432-6.432 7.655 2.702 0 9.52.579 7.848 7.14a5.018 5.018 0 0 1-9.52.965c0-1.416 1.865 0 1.415-2.445 0-1.286-2.38-1.608-4.76 1.158a19.749 19.749 0 0 1-12.866 4.632 15.181 15.181 0 0 1-16.21-13.316 15.76 15.76 0 0 1 13.959-15.953 88.964 88.964 0 0 1 9.199 0c.707-1.029 1.415-3.216 0-4.31s.321-4.953 4.053-4.889 7.333 3.473 3.666 9.842c2.252 1.609 3.924 1.995 4.632 1.737s1.608-3.216 1.866-4.567a25.024 25.024 0 0 0-.515-12.48c-1.48-3.473-3.023-2.316-4.439-2.444s-3.023-1.994-3.216-4.825a5.403 5.403 0 0 1 5.468-5.082 10.292 10.292 0 0 1 7.012 6.433 54.292 54.292 0 0 0-1.93-22.193c-1.737-4.181-3.216-5.725-6.433-5.66s-2.958 2.187-5.146 3.216a6.755 6.755 0 0 1-1.737-10.228 11.128 11.128 0 0 1 8.105-2.445c.579-1.029.965-1.737 1.802-1.801 2.508 0 5.017 2.702 6.432 4.567a17.433 17.433 0 0 1 3.152 8.17 9.842 9.842 0 0 0 1.029-1.673c.385-.772 1.672-1.093 1.672-1.093a5.982 5.982 0 0 0 0-1.158 6.755 6.755 0 0 1-1.994-3.409c0-1.286.9-3.345.9-3.602a3.924 3.924 0 0 1-1.93-2.959 17.883 17.883 0 0 1 3.216-9.327c.515-.708 1.352-5.018-.771-5.275-5.468-.708-2.38 1.93-4.44 1.608-4.952-.836-4.888-11.192 1.03-12.865s9.906 4.696 10.807 6.432a104.21 104.21 0 0 1 5.274-15.824c3.99-9.907 6.433-10.164 6.433-13.38s-2.316-2.702-4.44-2.766c0-4.31 1.48-9.264 6.948-9.585a7.655 7.655 0 0 1 7.398 4.889 73.654 73.654 0 0 1 38.918-14.28 23.03 23.03 0 0 1 24.701 21.742 15.696 15.696 0 0 1-10.871 16.532c-4.375 1.093-8.941-6.047-4.567-11.257 0 0 5.146 3.859 7.526 1.994-2.509-.322-2.83-1.416-2.83-1.994s5.017-2.96 3.087-6.433c-.707-.771-2.187 3.86-4.696.9-1.48-2.894 1.351-8.169-7.655-8.49 1.48.771 7.205 9.456-.707 11.45-9.457 1.48 1.351-11.257-18.912-11.773a22.708 22.708 0 0 0-15.567 6.948c4.117.964 9.842 7.14-.322 11-1.157-1.545 2.509-4.31-5.017-3.345s-17.176 11.9-18.784 28.497a4.31 4.31 0 0 1 7.205 1.351c1.158 2.059-1.608 4.696-3.087 4.825a4.567 4.567 0 0 0-3.795 4.824c0 3.41-.772 6.948-3.538 8.17a4.117 4.117 0 0 1 1.158 3.795 4.182 4.182 0 0 1-2.766 3.151v.386a13.187 13.187 0 0 1 1.286 8.041c1.608-.772 5.918-2.573 7.848 1.222a5.403 5.403 0 0 1-2.573 7.72c-2.316.9-2.38.77-3.795-.58s-3.216.836-3.345 2.51-3.473 11.964-4.76 16.788a125.695 125.695 0 0 1-8.105 18.655 25.345 25.345 0 0 0 14.087 3.28 16.146 16.146 0 0 0 12.094-4.696c-1.158-.386-1.48-4.439.45-5.596a7.59 7.59 0 0 1 9.97 4.053c2.123 5.146 0 11.385-9.585 12.865a84.782 84.782 0 0 0 25.731 4.439c19.298.772 30.299-12.865 28.561-23.03s-3.601-7.075-8.876-5.145a6.432 6.432 0 0 1-1.093-10.357 15.503 15.503 0 0 1 7.011-3.216c.836-1.286 1.866-4.89 6.433-3.28s15.117 6.432 5.853 26.502z" fill="#fff"/><defs><path id="A" d="M359.779 421.01h7.6v7.529h-7.6z"/><path id="B" d="M340.176 409.788v-8.381h8.452v8.381z"/><path id="C" d="M338.969 391.89v-10.867h10.867v10.867z"/><path id="D" d="M356.867 393.168v-13.353h13.424v13.353z"/><path id="E" d="M395.291 393.168v-13.353h13.353v13.353z"/><path id="F" d="M462.48 427.757v-5.895h-5.895v5.895z"/><path id="G" d="M436.556 428.538v-7.529h7.6v7.529z"/><path id="H" d="M445.79 411.066V400.2h-10.938v10.867z"/><path id="I" d="M502.112 390.682v-8.381h-8.381v8.381z"/><path id="J" d="M484.143 391.89v-10.867h-10.867v10.867Z"/><path id="K" d="M447.068 393.168v-13.353h-13.424v13.353z"/><path id="L" d="M427.82 393.168v-13.353h-13.353v13.353z"/><path id="M" d="M503.391 372.784v-10.867h-10.938v10.867z"/><path id="N" d="M367.378 76.256v7.529h-7.6v-7.529z"/><path id="O" d="M303.03 96.214v5.895h5.966v-5.895z"/><path id="P" d="M338.969 112.905v10.867h10.867v-10.867z"/><path id="Q" d="M356.867 111.627v13.353h13.424v-13.353z"/><path id="R" d="M395.291 111.627v13.353h13.353v-13.353z"/><path id="S" d="M444.156 83.785h-7.6v-7.529h7.6z"/><path id="T" d="M445.79 93.728v10.867h-10.938V93.728Z"/><path id="U" d="M502.112 114.113v8.381h-8.381v-8.381z"/><path id="V" d="M484.143 112.905v10.867h-10.867v-10.867z"/><path id="W" d="M447.068 111.627v13.353h-13.424v-13.353Z"/><path id="X" d="M427.82 111.627v13.353h-13.353v-13.353Z"/><path id="Y" d="M503.391 132.011v10.867h-10.938v-10.867z"/></defs></svg>