<svg width="800" height="320" xmlns="http://www.w3.org/2000/svg"><defs><clipPath clipPathUnits="userSpaceOnUse" id="a"><path d="M274.981 29.109h89.765v26.924h-89.765z"/></clipPath></defs><path d="M0 0h800v320H0z" fill="#fff" style="stroke-width:.8"/><g clip-path="url(#a)" transform="matrix(8.95567 0 0 -8.95567 -2464.67 534.546)"><path d="M296.87 35.879h1.603v5.79h-1.604zM302.036 35.879h1.604v5.79h-1.604zM295.185 42.4h9.978v1.336h-9.978zM305.168 44.53l-4.988 3.297-4.99-3.296M279.693 42.29a4.07 4.07 0 0 1-1.599.337c-.54 0-1.238-.236-1.238-1.092 0-1.362 3.445-.787 3.445-3.422 0-1.722-1.362-2.375-2.95-2.375-.855 0-1.238.113-2.015.304l.147 1.418c.54-.292 1.16-.484 1.778-.484.597 0 1.396.304 1.396 1.013 0 1.498-3.444.878-3.444 3.479 0 1.756 1.362 2.398 2.746 2.398a5.93 5.93 0 0 0 1.88-.282M282.955 42.492h-2.252v1.238h6.08v-1.238h-2.252v-6.62h-1.576M287.672 43.73h1.576v-4.536c0-1.34.428-2.218 1.632-2.218 1.205 0 1.633.878 1.633 2.218v4.537h1.576V38.71c0-2.105-1.194-2.972-3.209-2.972s-3.208.867-3.208 2.972M312.503 42.21c-.608.282-1.396.417-2.027.417-1.835 0-2.848-1.238-2.848-2.848 0-1.598.99-2.803 2.668-2.803.428 0 .766.045 1.036.113v2.049h-1.666v1.238h3.174v-4.233c-.833-.225-1.7-.405-2.544-.405-2.544 0-4.311 1.272-4.311 3.929 0 2.69 1.643 4.199 4.311 4.199.912 0 1.632-.124 2.308-.327M316.808 43.73h1.78l3.084-7.857h-1.745l-.676 1.801h-3.185l-.687-1.8h-1.632zm.867-1.575h-.022l-1.137-3.242h2.296M322.863 43.73h1.7c1.688 0 3.704.057 3.704-2.127 0-.923-.62-1.689-1.622-1.824v-.022c.428-.034.676-.462.834-.81l1.26-3.074h-1.756l-.945 2.454c-.226.586-.428.81-1.092.81h-.507v-3.264h-1.576zm1.576-3.354h.518c.777 0 1.666.113 1.666 1.092 0 .946-.878 1.024-1.666 1.024h-.518M331.297 42.508h-2.263v1.244h6.11v-1.244h-2.263v-6.653h-1.584M358.158 39.82h.024v.007h-.024z" style="fill:#000;fill-opacity:1;fill-rule:nonzero;stroke:none"/><path d="M364.477 44.373c.042.089-.042.16-.071.226-.102.113-.22.184-.322.28-.083-.006-.107.065-.166.077 0-.006.006-.018-.006-.024.065-.042.137-.101.202-.155.03-.071.095-.077.107-.137.018-.041.042-.107.006-.148-.018.012-.06.006-.06.036-.089.005-.142.03-.226 0-.047-.036-.07-.114-.059-.173-.006-.077.09-.095.06-.179 0-.023-.036-.035-.024-.047-.042-.036-.12-.018-.179-.012-.012.042-.077.024-.119.036-.012.012.018.006 0 .017-.137.03-.274.09-.416.131l.011.012c-.095 0-.184.042-.273.066-.16.023-.316.017-.482.006a.53.53 0 0 1-.244-.108c-.155-.148-.244-.333-.345-.5-.042-.005-.024-.077-.072-.059.024.095.12.185.12.292a.305.305 0 0 1-.054.196c-.09.066-.149.179-.232.25-.078.036-.149.09-.22.131 0 0 .006.006.011.006-.017.012-.041.018-.059.006-.006-.042.06-.012.053-.054.018 0 .03-.012.048-.012.083-.095.16-.16.238-.256-.024-.017.024-.041.012-.053a.257.257 0 0 0-.083-.256c-.066-.065-.149-.113-.215-.184-.238-.286-.1-.655-.006-.964.09-.262.239-.542.227-.803-.036-.161.006-.346-.12-.482-.059-.006-.059-.066-.107-.066l.012-.012c-.035-.018-.113 0-.107-.041l-.303-.006c-.084.041-.137.053-.22.089.006.006.006.006.012.006-.155.095-.274.214-.393.31l.006.005c-.077.06-.143.131-.22.179l.006.006-.06.023.006.006c-.113.042-.202.155-.333.185l-.155.024h.006c-.166.012-.345.083-.506.107 0 .002.003.002.007.002-.04.026-.097.016-.137.033.006 0 .006.006.012.006-.036.024-.09.012-.131.03.006.006.012.006.018.006-.036.012-.072.024-.113.03l.004.001c-.088.015-.109.07-.207.07l.006.006c-.125.054-.25.09-.363.137l.006.012c-.023.012-.06 0-.083.03l.006.006c-.06.005-.101.06-.149.06l.012.011c-.107.036-.214.113-.291.167l.006.005-.048.03.006.006c-.018.024-.071.006-.06.042h.007c-.06.03-.096.065-.15.09.007.005 0 .017.007.023-.084.077-.19.125-.256.214a.328.328 0 0 0 .077.286c.054.041.101.1.155.125l-.006.006c.095.012.137.053.232.065v.006l.048.018c.017.042-.048.012-.036.053-.077.042-.143.06-.226.09v.006l-.078.035c.006.018-.03.03-.023.048.023.018.06.012.083.006a.643.643 0 0 1 .25-.077c.113.03.208.005.31.041.059-.036.166-.036.231-.018.036.012-.017.03-.017.048-.048.024-.09.065-.137.095l.006.006c-.078.054-.173.036-.25.054 0 0 0 .006.006.006-.03.023-.078.011-.113.03-.006.023-.078.059-.108.07.018.025-.047.013-.03.054.019.018.054.012.078.006.048-.03.131-.035.196-.053.054.035.15.006.185.053.167.012.351-.012.506.018.024.048-.054.066-.078.083-.03.006-.071 0-.089.024l.006.006a1.128 1.128 0 0 0-.149.066c.003.005.006.006.008.006-.127.003-.243.059-.365.053a.94.94 0 0 0-.13.107c.005.018-.013.024.011.03.06.006.13-.006.184.012l.012.024c.084.012.179 0 .25.03-.03.017-.06.047-.095.053.006.006.006.006.006.012-.09-.006-.143.047-.226.047-.006.042-.083.018-.09.078.036.041.138.018.203.018 0-.006-.03 0-.006-.006a.428.428 0 0 1 .31.035c.017.024.077.012.077.048.166.036.315-.09.47-.018-.006 0-.012 0-.012.006l.054.024c.011.024 0 .024 0 .053-.131 0-.268.143-.381.114-.101.053-.244.011-.357.041 0 .036-.095.018-.131.042l.012.012c-.066.006-.113.047-.155.083.113.018.244-.012.369.006.107.036.208.054.303.095.15.006.28-.006.435.012-.012.036.041.018.06.036-.019.018.035.018.017.047-.06.006-.13.042-.184.054l.006.006c-.066.024-.12.071-.179.065l.006.006c-.155-.006-.315-.023-.464-.012-.095.036-.19.09-.274.15.036.035.054.053.09.07.011.06-.078.036-.084.084.12.03.226.047.34.09 0 .029.07.035.059.053.107.035.238-.006.333.035.09.006.131.03.196.084.006.089-.118.041-.178.065a.75.75 0 0 1-.422.095c-.108-.047-.244-.03-.37-.023-.047.047-.118.023-.166.071.012.03.06.042.065.06.108.053.22.07.316.112-.006.006-.042.03-.024.024-.071.036-.137.036-.202.066-.113.018-.244.006-.357.024l.006.006-.084.023c.006.024.048 0 .06.024 0 0-.012-.006-.012 0 .071.018.155.018.232.024.149.042.268.155.405.16.083-.041.16.012.244.012.011.03.065.054.06.096h-.156c-.017.047-.1.018-.142.041 0 .006.006.006.011.006-.035.036-.1 0-.113.048l-.166.018s.006.006.012.006c-.292.065-.583.012-.869.023 0 .03.042.036.048.054.095.054.196.065.297.101l-.006.006.083.024-.018.012.06.024c.012.017.036.06.042.083-.006.006-.018 0-.024.006-.018-.012-.018-.018-.018-.03-.077.018-.149.036-.226.036-.012.041-.09.012-.107.053-.16.03-.345-.006-.494.006.09.078.226.084.291.173-.154-.018-.327.006-.5.024.007.006.013.006.018.006-.041 0-.089.023-.13-.012-.012-.173-.072-.316-.09-.494.024 0 .036-.012.054-.018-.012-.006 0-.006-.012-.012.06.006.054-.053.101-.06l.22-.202c.072-.1.161-.202.232-.31.102-.148.173-.297.244-.463.197-.464.137-1.047.054-1.571-.06-.363-.173-.708-.268-1.065-.018-.006-.03-.024-.047-.012.011.053-.06.06-.048.107-.095.083.006.214.018.315.143.53.333 1.137.25 1.666-.012.048.006.09-.006.12-.06.255-.107.47-.238.69-.072.178-.226.303-.316.452-.077.048-.119.113-.184.172-.072.006-.095.084-.16.096.005 0 .005.006.011.006-.06.035-.13.071-.19.113.006.023.041.012.06.012.094.011.077.119.124.178.018.22.09.47.083.672-.077-.154-.119-.374-.28-.476-.04-.07-.112-.065-.148-.113l.006-.006c-.048-.011-.06-.047-.113-.065-.054-.054-.036-.16-.12-.155-.047.042.013.143.025.197.035.083.137.077.202.13v.006l.077.03a.097.097 0 0 1 .024.042l-.166.024s.006.006.012.006a1.044 1.044 0 0 1-.274.006c.006-.018-.018-.018-.024-.018-.107-.054-.113-.203-.131-.28-.083-.018-.167-.065-.256-.101l.006-.006c-.065-.006-.089-.054-.154-.06l.006-.005-.09-.03c.006 0 .012 0 .012-.006l-.351-.167.006-.006-.09-.03.007-.005-.066-.03.006-.006c-.071-.03-.148-.054-.196-.101l.006-.006-.071-.024.006-.006a2.986 2.986 0 0 1-.244-.143c-.107-.06-.214-.071-.322-.1l.006-.007c-.065.012-.077-.06-.136-.065-.024-.03-.066-.072-.078-.113-.13-.15.006-.322-.06-.47-.005-.06.09-.024.108-.054.143-.024.28 0 .422-.024 0 0-.006-.006-.012-.006l.137-.006c.048-.012.024-.041.03-.071-.13-.054-.238-.12-.363-.167.006 0 .012 0 .018-.006-.048-.018-.09-.03-.13-.047-.025-.042.059-.03.04-.066.054-.018.036-.035.09-.053-.006 0-.006-.006-.012-.006.012-.024.042-.012.065-.03-.006-.006-.011-.006-.017-.006.017-.018.06-.006.065-.042.095-.041.202-.023.304.006-.006.03.03.018.047.03l-.006.006c.042.024.06.06.113.071l-.006.006c.066.042.137.09.208.131.125.054.268.06.393.09.066-.048.131-.12.197-.161.089.006.107-.048.196-.036a.981.981 0 0 1 .34.107l-.007.006c.065.018.09.084.149.095l-.006.006c.071.048.089.15.172.155.03-.042-.018-.09-.041-.119-.03-.047-.084-.095-.125-.155-.072-.065-.125-.083-.185-.13-.071 0-.1-.066-.172-.066.006 0 .018 0 .018-.006-.054-.018-.125-.006-.173-.036-.054-.006-.09-.017-.113-.06-.107-.118-.25-.22-.34-.35-.279-.304-.463-.673-.69-1.024-.035-.047-.089-.089-.142-.136-.054-.078-.125-.137-.179-.22-.077-.072-.1-.185-.148-.286-.066.041-.126.107-.197.143 0 0 .006.006.012.006-.042.023-.077.047-.107.065h.006l-.054.036.006.006c-.065.006-.03.041-.095.06-.13.136-.256.297-.369.451-.012.084-.06.155-.083.232-.024.006-.048.042-.048.066-.062.011-.05.054-.11.058-.148-.075-.337 0-.455-.147-.03-.096-.095-.167-.137-.274-.095-.131-.256-.25-.333-.387-.083-.053-.101-.113-.179-.166l.006-.006c-.071-.06-.136-.12-.208-.179-.137-.065-.143-.25-.178-.363.012-.09.03-.125.047-.22.048-.167-.065-.304-.149-.417a.51.51 0 0 0-.25-.089c.012 0 .007-.012.007-.018.071 0 .136 0 .196-.023a.29.29 0 0 0 .036-.102c-.03-.089-.03-.238-.054-.339l.03-.018c-.006-.006-.012-.012-.012-.017.119-.024.25-.006.357.005.012.03.083.018.107.03.054.03.125.048.19.072-.006.035.078.03.072.06.101.076.083.243.113.35l-.375.012c.018.03-.024.054 0 .083.083.03.184.054.28.084.012.071.017.154.077.196.036.077.125.107.19.16.066.024-.017.09 0 .138-.03.03-.035.071-.053.107-.054.047-.083.095-.149.119-.006.041.042.071.06.113.172.166.35.303.5.476.011.012.03.018.047.012.065.017.048-.036.095-.054.054-.095.149-.16.19-.238.066-.119.155-.214.18-.333.082-.143.07-.286.124-.434.012-.03.036-.048.042-.078.065-.047.184-.101.273-.13.09.011.102-.066.185-.048.006.13-.048.285-.006.44.024.048.042.113.071.173.024.017.036 0 .054-.012-.066-.197-.012-.381.024-.566-.012-.071.035-.113.041-.178-.095-.072-.19-.024-.291-.024.012.012.024.006.036.006-.107.012-.197.048-.304.065.006 0 .006.006.012.006-.178.006-.31.15-.482.173l.012.006c-.065.012-.131.036-.19 0 .006 0 .017.006.017-.006-.107-.03-.136-.185-.178-.274-.131-.166.036-.315.042-.476.011-.077.047-.154.047-.22.024-.297.03-.607.072-.898.023-.066.095-.108.113-.173.053-.006.089-.06.142-.06-.006-.005-.006-.005-.011-.005.023-.018.059-.006.077-.036h-.006c.053-.012.077-.054.13-.066l-.005-.006c.041-.035.077-.053.113-.095.018-.047.012-.1.041-.143a.743.743 0 0 0 .006-.303c.042-.024.036.042.066.048l-.006.006c.024.03.065.011.095.011.054-.07.125-.119.19-.184.018-.03.042-.06.06-.095.024-.006.071-.018.09.012.023.03.047.06.07.095.102.244.257.553.09.797-.054.036-.072.095-.12.12-.065-.156-.136-.245-.195-.4a.217.217 0 0 0-.09.018c.018.143.09.28.15.405-.049 0-.096 0-.132.024-.012.024-.036.047-.053.071-.036.143 0 .256.035.423-.012.012-.047-.006-.041.023l-.214.024c.017.006.035.006.053.006h-.137c.006 0 .018 0 .024-.006-.065.006-.125-.035-.173-.006-.035.226-.035.453-.041.673.137.047.274-.048.416-.078-.006-.006-.012-.012-.018-.012l.084-.023-.012-.012c.06-.006.077-.054.137-.06l-.018-.018c.03-.006.06-.006.083-.017l-.018-.018c.024-.006.054-.006.072-.024l-.012-.012c.053 0 .071-.054.119-.054l-.012-.011.065-.03-.012-.012c.072.012.06-.06.125-.054l-.011-.018c.023-.005.047-.005.07-.023-.005 0-.005-.006-.011-.006.095-.048.196-.09.286-.149.095-.024.196-.06.297-.101.071-.006.167-.03.232 0 .018.041.06.071.077.107.125.184.131.399.143.601.012-.012.036.018.048-.006.053-.244-.012-.494-.024-.738.066-.006.066-.065.131-.065l-.012-.012c.018-.012.06-.012.06-.036l.071-.03-.006-.006.06-.023-.018-.018c.023-.006.053-.006.077-.018-.018-.006-.006-.012-.006-.018.024 0 .036-.018.06-.024l-.013-.006c.066-.053.143-.053.197-.107h-.006c.071-.018.13-.071.196-.107h-.006l.084-.03-.012-.012.083-.023-.012-.012c.03-.006.06-.006.077-.03h-.006c.018-.018.054-.018.078-.024l-.006-.024c.077.024.083-.06.16-.053 0 0-.006-.006-.012-.006a2.01 2.01 0 0 1 .375-.131l-.006-.012c.16-.006.34-.101.482-.149.125.006.179-.053.298-.053 0 0-.006-.006-.006-.012.137-.024.262-.048.392-.06 0-.006-.023 0-.011-.006.077-.023.166-.012.244-.03l-.006-.005c.208.006.38-.066.589-.066-.006 0-.006-.006-.012-.006l.065-.024c.024-.184.03-.35.054-.529.024-.066.041-.143.06-.202.065-.054-.036-.066-.007-.12-.03.012-.041.06-.065.078-.042.083-.06.143-.107.214a1.835 1.835 0 0 0-.101.34c-.006.083-.137.035-.203.059.012.006.03.006.042.006l-.351.024c0 .003.005.005.009.006-.089.023-.195.018-.277.035.006.006.012 0 .018 0-.036.018-.072.024-.114.018.078-.226.167-.47.31-.666.095-.09.178-.197.256-.286.053.006.03-.054.077-.048.048-.107.179-.166.22-.285.006-.262.042-.47-.035-.732-.197-.238-.346-.536-.554-.732-.077-.077-.172-.119-.256-.196-.13-.084-.202-.25-.315-.351-.101-.042-.232-.096-.345-.096-.006-.03.036-.035.036-.059.006-.185-.155-.345-.173-.53.048-.006.09-.053.149-.035.119-.048.28-.024.416-.018.066.041.143-.006.197.047.13.06.214.19.255.328-.011.006-.035.012-.023.018-.113 0-.232.041-.334.047-.011.03 0 .077.012.113.125.03.298-.041.393.042l-.006.006c.054.041.083.107.155.119l-.006.006c.113.03.238.083.345.083v.006l.089.012c.012.083.012.208-.048.268-.011.035-.06.053-.047.095.155.196.297.434.494.583.071.048.154.065.214.101.101.066.208.12.28.19.012.036.083.108.047.167-.024.149-.053.304-.071.458.024.006.047 0 .06-.018-.007-.005-.007-.005-.013-.005.084-.024.143-.108.227-.137-.006 0-.006-.006-.012-.006.065-.012.095-.078.16-.095l-.018-.018c.03-.006.054-.006.084-.018-.006-.006-.012-.006-.018-.006.113-.042.214-.113.339-.137-.006 0-.006-.006-.012 0 .024-.036.101-.006.113-.048.137-.154.298-.32.423-.488.041-.065-.006-.113-.024-.172-.077-.274-.22-.506-.363-.738a2.855 2.855 0 0 1-.387-.464c-.03-.03-.065-.071-.113-.095l.006-.006a1.639 1.639 0 0 0-.387-.155c.03-.024.054-.071.048-.107a1.023 1.023 0 0 0-.19-.387c-.03-.03-.024-.053.005-.071.066-.018.12-.036.19-.048l-.005-.006c.172-.024.399-.024.571 0 .173.054.28.19.327.37-.017.005-.041.005-.041.017l-.209.024.006.006c-.053.018-.13 0-.184.024.024.041.036.089.071.113.12 0 .256.006.351-.006.066.083.113.16.197.232a.468.468 0 0 0 .22.09l-.006.005.226.024a.234.234 0 0 1-.053.256c-.012.03-.048.071-.072.077-.024.03-.042.065-.036.101.066.179.143.34.227.524.124.262.386.416.434.714-.006.083.042.19-.054.232-.03.041-.06.065-.077.09-.06 0-.036.053-.09.053-.059.065-.118.154-.172.214-.083.143-.178.244-.25.375a.297.297 0 0 0-.089.077l-.006.042c.137.273.327.53.452.791.125.28.31.678.143 1.018.024.012.048.012.054.035h.095c.041-.071.071-.107.107-.172.065-.006.036-.048.095-.054l-.018-.012.078-.012c.011-.017-.018-.012 0-.023.03-.006.06-.006.089-.024-.006 0-.006-.006-.012-.006l.09-.03c-.007 0-.007-.006-.013-.006l.066-.03c-.006-.006-.006-.006-.012-.006.012-.011.06-.023.036-.041.083-.095 0-.25-.042-.363.077.09.113.22.19.297a.827.827 0 0 1 .024.209c.018.006.03-.006.042-.024.012-.06.065-.072.083-.113.083-.024.173-.006.262-.018 0-.036.071-.024.06-.06h.041c.012.066-.006.131-.018.19-.06.09-.166.15-.184.263-.042.035-.078.065-.107.107.023.018.065.006.095-.012l-.012-.012c.024-.006.054-.006.078-.024l-.012-.006c.053-.03.13-.024.19-.006.078.006.09-.06.167-.047.024.012.071.006.066.035l.196.018c.018.048-.03.078-.042.113h.006c-.06.024-.119.054-.166.066-.03.03-.06.053-.084.089a.344.344 0 0 0-.077.012c-.006.018-.018.042.006.065a.394.394 0 0 0 .22-.012c0-.023.054-.017.072-.053.113-.036.166.071.237.083-.006 0-.011 0-.017.006.023.024.065.006.095.024-.024.024-.018.077-.066.071-.017.036-.083.018-.119.036l.012.012-.077.024c-.012.035-.06.065-.065.083-.042.018-.054.054-.102.06 0 .011.006.011-.006.023.048.024.107.006.155.012.012.042.071.024.071.048.072.036.143.06.209.042.018-.03.089-.018.13-.007l-.005.007.06.017c-.013.036.029.03.017.06-.012 0-.036 0-.042.024l.006.006c-.083.041-.16.077-.22.142-.137.036-.28-.023-.404.012-.024.036-.096.03-.143.042 0 .006.006.006.012.006a.42.42 0 0 1-.215-.042h.006c-.041 0-.077-.035-.113-.012.042.054.078.101.137.12a.368.368 0 0 0 .167.083l-.006.006c.13.035.297-.006.434.03l-.006.005.083.024-.006.006c.054.018.072.048.107.077.084.006.155-.023.233-.017.047.035.119.041.142.095a.267.267 0 0 0 .137.006c.066-.018.066.047.125.047 0 .024.03.03.042.054-.084.036-.16.101-.25.149-.042.047-.131.011-.202.03 0 .047-.048.005-.06.041.072-.012.131.042.196.042 0 .006.006.012 0 .017.066.042.131.078.197.072.047-.006.149-.083.226-.054-.006.036.042.018.06.036-.012.018.023.036.017.054-.03.006-.065.006-.095.017-.012.012-.06.048-.083.066 0 .006-.006.018 0 .024-.072-.012-.054.053-.12.053l.005.002a.665.665 0 0 1-.206.022.69.69 0 0 1-.256.149c.018.065.095.018.149.024-.006-.006-.006-.006-.012-.006.048-.03.119-.018.172-.012.09.036.155.101.25.09.024-.049.107-.007.125-.055.09-.017.185 0 .244.042.006.024.048.048.042.072-.083.005-.143.035-.208.065-.036.048-.096.065-.125.119-.024.018-.072-.006-.078.036l-.357.012c-.065.035-.113.077-.184.077 0 .006.012.006.018.006-.03.024-.09.012-.125.03l.018.012c-.06.017-.131.005-.19.023.029.06.118.06.16.096.083.005.172.005.25 0 .053-.054.16-.012.214-.054.137-.018.256-.012.399-.006.03.024.083.042.119.065.018.03.024.06.06.078.035.077.005.208-.048.274-.012.065-.107.1-.09.178.107.018.197-.077.298-.03 0 .006-.012.006-.012.012l.06.018c-.024.024.011.03.017.042zm-10.621 2.07a.226.226 0 0 1-.048-.03h-.119c.03.025.054.048.072.09.011.036-.03.071-.042.119-.03.006-.06.024-.101.006-.006.036.06.006.053.047a.568.568 0 0 0 .143 0h-.006c-.012-.035.066-.023.054-.053a.116.116 0 0 0 .03-.101c.005-.036-.018-.048-.036-.078zm1.267.536c-.047-.024-.125-.018-.178-.006-.024.042-.09.071-.107.119-.042.03-.09.018-.12.024 0 .047.084.012.078.053.077.012.149.036.226.06l-.012.006h.054c-.006 0-.006 0-.012-.006a.26.26 0 0 0 .089-.06.215.215 0 0 0-.018-.19" style="fill:#000;fill-opacity:1;fill-rule:nonzero;stroke:none"/><path d="m359.17 42.352.005-.002c.008 0 0 .002-.005.002M358.822 42.458l.008-.001c-.004.004-.006.003-.008.001M358.309 44.63l.01-.001h-.01M352.57 44.652H352.584c-.006.006-.012 0-.012 0M357.81 39.851h.002c.02 0 .008.002-.002 0M363.772 42.995l.008-.003c-.003.003-.006.003-.008.003M342.871 32.165h.316v18.811h-.316z" style="fill:#000;fill-opacity:1;fill-rule:nonzero;stroke:none"/></g></svg>