<svg version="1.1" id="layer" x="0" y="0" xml:space="preserve" width="800" height="320.17" xmlns="http://www.w3.org/2000/svg"><style type="text/css" id="style1">.st0{fill:#231815}</style><path d="M0 .17h800v320H0Z" fill="#fff" style="stroke-width:1.06667" id="path1-2"/><g id="g9" transform="matrix(.63873 0 0 .63873 192.187 -48.607)"><path class="st0" d="M53.4 148.5c4.5 2.8 9.7 4.5 16.9 4.5 9.4 0 17.2-4.8 17.2-15.7 0-15-35.1-16.9-35.1-36.9 0-12.3 10.7-19.9 24.2-19.9 3.7 0 9.7.5 15 2.5l-1.2 6.9c-3.4-1.9-8.8-2.8-13.9-2.8-7.9 0-16.5 3.3-16.5 13.1 0 15.3 35 15.4 35 37.8 0 15.4-13.3 21.6-25.1 21.6-7.4 0-13.2-1.5-17.3-3.3z" id="path1"/><path class="st0" d="M132.4 102.4h-12.7V86.5l-6.9 2.4v13.5h-11v5.9h11v32.6c0 10.2.5 18.6 12.7 18.6 3.4 0 6.8-.9 8.4-1.5l-.5-5.7c-2 .8-3.7 1.3-6.3 1.3-5.6 0-7.5-4.2-7.5-9.2v-36.1h12.7v-5.9z" id="path2"/><path class="st0" d="M175.8 149.3h-.2c-3 6.7-10.9 10.3-17.7 10.3-15.9 0-18.4-10.7-18.4-15.8 0-18.7 19.9-19.6 34.4-19.6h1.3v-2.8c0-9.5-3.4-14.4-12.7-14.4-5.8 0-11.3 1.3-16.4 4.6v-6.7c4.3-2.1 11.5-3.8 16.4-3.8 13.8 0 19.6 6.3 19.6 20.8v24.6c0 4.5 0 7.8.6 11.7h-6.8v-8.9zm-.7-19.2h-2c-11.9 0-26.2 1.2-26.2 13.5 0 7.3 5.3 10.1 11.6 10.1 16.2 0 16.5-14.1 16.5-20.2v-3.4z" id="path3"/><path class="st0" d="M241.5 158.2h-6.9v-8.9h-.2c-3.7 7.1-9.4 10.2-17.4 10.2-15.3 0-23-12.7-23-29.3 0-16.9 6.6-29.2 23-29.2 10.9 0 16.4 8 17.4 10.7h.2V76.1h6.9zm-23.4-4.6c12.3 0 16.5-13.1 16.5-23.3 0-10.2-4.3-23.3-16.5-23.3-13.1 0-16.5 12.5-16.5 23.3 0 10.9 3.4 23.3 16.5 23.3" id="path4"/><path class="st0" d="M281.2 108.3h-12.7v36.1c0 5.1 1.9 9.2 7.4 9.2 2.6 0 4.4-.5 6.4-1.3l.4 5.7c-1.6.7-5.1 1.5-8.4 1.5-12.3 0-12.7-8.4-12.7-18.6v-32.6h-11v-5.9h11V88.9l6.9-2.4v15.9h12.7z" id="path5"/><path class="st0" d="M377.4 131.5c0 22.6-16.6 28.1-27.7 28.1-11.2 0-27.7-5.5-27.7-28.1V81.8h7.6v49.7c0 12.5 6.9 21.5 20.2 21.5 13.2 0 20.2-9 20.2-21.5V81.8h7.6v49.7z" id="path6"/><path class="st0" id="rect6" d="M393.7 76.1h6.9v82.1h-6.9z"/><path class="st0" d="M484.4 158.2v-37.1c0-7.9-2.9-14.1-11.8-14.1-7.6 0-15 6.5-15 20.4v30.9h-6.9v-37.1c0-7.9-2.9-14.1-11.8-14.1-7.6 0-15 6.5-15 20.4v30.9H417v-42.7c0-4.3 0-8.7-.4-13.1h6.7v9.4l.2.1c2.2-3.8 5.5-10.9 17.4-10.9 4.9 0 13 2.1 14.8 11.8h.2c2.5-6.6 9.1-11.8 17.8-11.8 11.3 0 17.6 7.9 17.6 18.7v38.4h-6.9z" id="path7"/><path class="st0" id="polygon7" d="M300.2 272.4h-46.4v299.4h46.3z"/><path class="st0" d="M552.9 388.6c-21.9 0-45.2 10.1-56 31.6-10.1-22.3-27.9-31.6-52.9-31.6-17.4 0-38.7 7.2-53.2 29.2h-.8v-25.1h-43.5v178.6h46.7v-86.4c0-23.3 3.8-60.2 34.7-60.2 26.8 0 26.8 23.6 26.8 40.3v106.2h46.6v-86.4c0-23.3 3.8-60.2 34.8-60.2 26.8 0 26.8 23.6 26.8 40.3v106.2h44.2v-128c-1.4-31.8-15.9-54.5-54.2-54.5" id="path8"/><path class="st0" d="M211 572h-44.3v-24.3h-.7c-14.4 17.4-34.5 28.5-59 28.5-42.6 0-61.1-29.9-61.1-70.5V392.3h46.8v96c0 21.9.3 51.6 30.3 51.6 33.8 0 41.1-36.6 41.1-59.6v-88H211Z" id="path9"/></g></svg>