<svg xmlns="http://www.w3.org/2000/svg" xml:space="preserve" viewBox="0 0 800 320"><defs><path id="a" d="M100.3-65.5h594.1v594.1H100.3Z"/></defs><path fill="#fff" d="M0 0h800v320H0Z" style="fill:none"/><g style="stroke-width:.601506"><g style="stroke-width:.601506"><path d="M0 0h-1.474a.51.51 0 0 1-.471-.386l-.348-1.638c-.047-.213.089-.385.302-.385l1.481.001-2.578-12.118c-.214-.971.395-1.757 1.366-1.757h50.796c.971 0 1.93.786 2.144 1.757L54.682 1.86c.214.97-.4 1.757-1.37 1.757H2.547c-.97 0-1.936-.787-2.15-1.757Z" style="fill:#009036;fill-opacity:1;fill-rule:nonzero;stroke:none;stroke-width:.601506" transform="matrix(4.52141 0 0 -4.4988 552.568 131.533)"/></g><g style="stroke-width:.601506"><path d="M0 0a1.807 1.807 0 1 0 3.617 0A1.808 1.808 0 0 0 0 0" style="fill:#fff;fill-opacity:1;fill-rule:nonzero;stroke:none;stroke-width:.601506" transform="matrix(4.52141 0 0 -4.4988 566.391 188.517)"/></g><g style="stroke-width:.601506"><path d="m0 0 .002 1.133c0 2.733-.429 4.968-.73 7.317h-2.33a.508.508 0 0 1-.471-.386l-.075-.356-1.057-4.975-.418-1.972-.081-.375C-5.207.173-5.072 0-4.859 0h1.66z" style="fill:#fff;fill-opacity:1;fill-rule:nonzero;stroke:none;stroke-width:.601506" transform="matrix(4.52141 0 0 -4.4988 633.845 180.384)"/></g><g style="stroke-width:.601506"><path d="M0 0a3.685 3.685 0 1 0 6.423 0h9.321c.213 0 .423.174.47.387.024.223.097 1.151.111 1.418H9.578c-.305 0-.716.124-.591.705l.232 1.106.687 3.228c.048.213-.087.386-.301.386H2.879c-.214 0-.349.173-.302.386l.353 1.653a.51.51 0 0 0 .471.387h6.714c.213 0 .422.169.469.382l.204.956.146.686c.046.213-.088.386-.302.386H-3.623c-.213 0-.371.172-.324.385l.348 1.638a.508.508 0 0 0 .471.386h18.492v1.424a.385.385 0 0 1-.386.385H-4.99L-8.453 0Z" style="fill:#fff;fill-opacity:1;fill-rule:nonzero;stroke:none;stroke-width:.601506" transform="matrix(4.52141 0 0 -4.4988 560.046 196.652)"/></g><g style="stroke-width:.601506"><path d="M0 0c.918-.894 2.027-2.118 2.449-2.82h-9.178c-.109 0-.178.088-.154.198l.256 1.232.064.307.083.394.102.492A.26.26 0 0 0-6.137 0Z" style="fill:#fff;fill-opacity:1;fill-rule:nonzero;stroke:none;stroke-width:.601506" transform="matrix(4.52141 0 0 -4.4988 753.471 159.253)"/></g><g style="stroke-width:.601506"><path d="M0 0h-3.014a.818.818 0 0 1-.816-.625l-1.383-6.554-.143-.679c-.074-.373.085-.592.468-.592h8.316v-1.827c0-.988-.801-1.789-1.789-1.789h-9.677c.173 1.479.247 3.071.247 4.748 0 3.284-.63 6.02-.921 8.909-.042.188-.041.701-.04.818h3.675c.929 0 1.825-.216 2.945-.771C-1.389 1.247-.667.692 0 0" style="fill:#fff;fill-opacity:1;fill-rule:nonzero;stroke:none;stroke-width:.601506" transform="matrix(4.52141 0 0 -4.4988 677.47 142.37)"/></g><g style="stroke-width:.601506"><path d="M0 0a13.296 13.296 0 0 0 1.776-4.697h-6.048c-.219 0-.359.178-.31.398l.585 2.786.234 1.115c.048.22.265.398.485.398Z" style="fill:#fff;fill-opacity:1;fill-rule:nonzero;stroke:none;stroke-width:.601506" transform="matrix(4.52141 0 0 -4.4988 684.028 150.81)"/></g><g style="stroke-width:.601506"><path d="M0 0h12.581c2.795 0 2.903 2 2.901 2.527-.001.365-.001.696-.112 1.089l-11.853.002c-.305 0-.716.123-.59.705l.18.85.298 1.403.392 1.86.24 1.129a.792.792 0 0 0 .788.624h5.071c-.594.447-1.225.847-1.846 1.163-.965.497-1.94.714-2.835.714h-8.026c.501-.521.884-1.12 1.305-1.784l.057-.092C-.617 8.852-.052 7.257.258 5.495c0 0 .15-1.144.178-1.879l.001-1.827C.437 1.137.305.526 0 0" style="fill:#fff;fill-opacity:1;fill-rule:nonzero;stroke:none;stroke-width:.601506" transform="matrix(4.52141 0 0 -4.4988 699.188 196.652)"/></g><g style="stroke-width:.601506"><path d="M0 0c.971 0 1.931.787 2.144 1.757l3.465 16.385c.213.971-.401 1.758-1.371 1.758H-107.6c-.97 0-1.936-.787-2.15-1.757l-3.485-16.386c-.214-.97.395-1.757 1.366-1.757Z" style="fill:#009036;fill-opacity:1;fill-rule:nonzero;stroke:none;stroke-width:.601506" transform="matrix(4.52141 0 0 -4.4988 512.176 204.739)"/></g><g style="stroke-width:.601506"><path d="M0 0h6.925l.522 2.494H3.521L5.678 12.67H2.695Z" style="fill:#fff;fill-opacity:1;fill-rule:nonzero;stroke:none;stroke-width:.601506" transform="matrix(4.52141 0 0 -4.4988 342.527 188.547)"/></g><g style="stroke-width:.601506"><path d="M0 0h2.982l2.696 12.67H2.679Z" style="fill:#fff;fill-opacity:1;fill-rule:nonzero;stroke:none;stroke-width:.601506" transform="matrix(4.52141 0 0 -4.4988 378.164 188.547)"/></g><g style="stroke-width:.601506"><path d="M0 0h2.78l.809 3.993c.151.741.286 1.988.472 3.757h.117c.084-1.129.203-2.291.337-3.454L5.037 0h2.999l2.696 12.67H7.935L7.11 8.711c-.051-.287-.219-1.466-.489-3.555h-.067c-.169 1.886-.27 2.965-.303 3.235l-.556 4.279H2.679Z" style="fill:#fff;fill-opacity:1;fill-rule:nonzero;stroke:none;stroke-width:.601506" transform="matrix(4.52141 0 0 -4.4988 400.361 188.547)"/></g><g style="stroke-width:.601506"><path d="M0 0h2.982l2.696 12.67H2.679Z" style="fill:#fff;fill-opacity:1;fill-rule:nonzero;stroke:none;stroke-width:.601506" transform="matrix(4.52141 0 0 -4.4988 445.41 188.547)"/></g><g style="stroke-width:.601506"><path d="M0 0h6.759l.522 2.46H3.504l.624 2.965h3.787l.516 2.426H4.65l.506 2.41h3.773l.523 2.409H2.696Z" style="fill:#fff;fill-opacity:1;fill-rule:nonzero;stroke:none;stroke-width:.601506" transform="matrix(4.52141 0 0 -4.4988 467.525 188.547)"/></g><g style="stroke-width:.601506"><path d="M0 0h3.319l5.375 12.67H5.56L2.325 3.353l.303 9.317H-.236z" style="fill:#fff;fill-opacity:1;fill-rule:nonzero;stroke:none;stroke-width:.601506" transform="matrix(4.52141 0 0 -4.4988 35.6 188.547)"/></g><g style="stroke-width:.601506"><path d="M0 0h2.965l1.096 5.223h.741c.623 0 1.011-.354 1.011-.91 0-1.095-.523-2.342-.523-3.538 0-.303.034-.556.135-.775h3.1v.253c-.151.269-.202.572-.202.943 0 1.163.472 2.292.472 3.319 0 .876-.404 1.382-1.331 1.618C9.081 6.52 9.873 7.7 9.873 9.654c0 .994-.303 1.752-.943 2.291-.742.641-1.854.725-3.42.725H2.696Zm4.549 7.464.64 3.049h.658c.673 0 1.044-.404 1.044-1.112 0-1.23-.606-1.937-1.719-1.937z" style="fill:#fff;fill-opacity:1;fill-rule:nonzero;stroke:none;stroke-width:.601506" transform="matrix(4.52141 0 0 -4.4988 106.553 188.547)"/></g><g style="stroke-width:.601506"><path d="m0 0 .657 3.083h.657c.657 0 1.028-.387 1.028-1.112C2.342.741 1.735 0 .674 0Zm-4.549-7.582h4.431c2.982 0 4.431 1.332 4.431 4.162 0 1.112-.455 1.836-1.415 2.258C4.397-.657 5.189.556 5.189 2.426c0 2.089-1.382 2.662-4.364 2.662h-2.679zm3.386 2.157.725 3.42h.724c.691 0 1.112-.455 1.112-1.247 0-1.381-.657-2.173-1.803-2.173z" style="fill:#fff;fill-opacity:1;fill-rule:nonzero;stroke:none;stroke-width:.601506" transform="matrix(4.52141 0 0 -4.4988 171.623 154.439)"/></g><g style="stroke-width:.601506"><path d="m0 0-1.499-7.093c-.287-1.348-.438-2.291-.438-2.831 0-2.055 1.28-3.049 3.908-3.049 1.348 0 2.325.405 3.067 1.28.556.657.842 1.786 1.179 3.353L7.986 0H5.021L3.302-8.07c-.37-1.736-.522-2.645-1.55-2.645-.505 0-.808.303-.808.791 0 .287.101.843.286 1.685L2.965 0Z" style="fill:#fff;fill-opacity:1;fill-rule:nonzero;stroke:none;stroke-width:.601506" transform="matrix(4.52141 0 0 -4.4988 207.748 131.548)"/></g><g style="stroke-width:.601506"><path d="M0 0h2.78l.809 3.993c.151.741.286 1.988.472 3.757h.117c.085-1.129.203-2.291.338-3.454L5.038 0h2.999l2.696 12.67H7.936L7.11 8.711c-.051-.287-.219-1.466-.488-3.555h-.068c-.169 1.886-.27 2.965-.303 3.235l-.556 4.279H2.679Z" style="fill:#fff;fill-opacity:1;fill-rule:nonzero;stroke:none;stroke-width:.601506" transform="matrix(4.52141 0 0 -4.4988 240.14 188.547)"/></g><g style="stroke-width:.601506"><path d="M0 0h4.65c1.718 0 2.931.741 3.589 2.19.505 1.129.96 2.881 1.348 5.24.151.91.201 1.567.201 2.005 0 2.19-1.162 3.235-3.554 3.235H2.695Zm5.189 10.395h.674c.674 0 1.011-.354 1.011-1.078 0-.303-.051-.792-.185-1.432l-.607-2.881c-.388-1.853-.674-2.73-1.971-2.73h-.657Z" style="fill:#fff;fill-opacity:1;fill-rule:nonzero;stroke:none;stroke-width:.601506" transform="matrix(4.52141 0 0 -4.4988 284.882 188.547)"/></g><g style="stroke-width:.601506"><path d="M0 0h6.759l.522 2.46H3.505l.623 2.965h3.787l.516 2.426H4.65l.506 2.41H8.93l.522 2.409H2.696Z" style="fill:#fff;fill-opacity:1;fill-rule:nonzero;stroke:none;stroke-width:.601506" transform="matrix(4.52141 0 0 -4.4988 67.582 188.547)"/></g><g style="stroke-width:.601506"><path d="M0 0c-.213 0-.348.172-.301.385l.358 1.688a.508.508 0 0 0 .471.386h8.277c.213 0 .349-.172.302-.385L8.748.386A.508.508 0 0 0 8.277 0Z" style="fill:#009036;fill-opacity:1;fill-rule:nonzero;stroke:none;stroke-width:.601506" transform="matrix(4.52141 0 0 -4.4988 509.945 188.533)"/></g></g></svg>