<svg viewBox="0 0 800 320" xml:space="preserve" xmlns="http://www.w3.org/2000/svg"><defs><path id="a" d="M100.3-65.5h594.1v594.1H100.3z"/></defs><path d="M.32.48h800v320H.32z" fill="#fff" style="fill:none"/><path d="M560.67 88.428c0 8.81 7.2 15.79 16.007 15.79 6.662 0 12.57-3.759 17.297-8.163l-.859 30.828c-6.23 2.149-13.107 3.33-19.768 3.33-21.008 0-37.969-14.806-41.598-34.588h-43.692v-19.12h13.321c-1.397-4.94-7.305-7.09-11.925-7.09-9.56 0-15.148 8.379-15.148 17.295 0 9.774 5.8 18.798 16.33 18.798 4.727 0 8.917-2.149 11.172-6.231l27.503 10.097c-6.337 13.858-25.676 20.839-39.748 20.839-13.382 0-25.095-4.396-33.203-12.397l4.302 11.109h-30.726L419.192 92.08c-1.18-3.975-2.041-7.949-2.041-12.031h-.644c0 4.082-.859 8.056-2.041 12.031l-10.743 36.844h-30.726l31.37-80.992h24.924l15.37 39.68c.143-25.822 20.064-40.97 44.684-40.97 12.57 0 25.785 5.049 34.378 14.395 4.904 5.288 7.285 10.775 8.476 16.647 4.353-18.076 20.332-31.042 39.967-31.042 5.264 0 16.221.968 20.95 3.222l.858 30.292c-4.728-4.619-10.098-7.518-16.866-7.518-8.81 0-16.437 6.874-16.437 15.79" style="fill:#00a0e3;fill-opacity:1;fill-rule:nonzero;stroke:none" transform="matrix(2.03657 0 0 -1.57145 -759.634 335.768)"/><path d="m603.654 85.983 1.874-12.348h.044l.108 1.025.871 5.53 1.002 5.793h2.07l-3.224-16.421h-1.743l-3.179 16.42h2.177M616.874 85.983v-1.895h-3.682v-5.16h3.29v-1.894h-3.29v-5.575h3.682v-1.897h-5.859v16.42h5.859M618.505 85.983h2.614c1.589 0 4.072-.087 4.072-4.203 0-1.547-.458-3.898-2.265-4.225l3.027-7.993h-2.265l-2.962 8.037h-.043v-8.037h-2.178zm4.377-4.682c0 1.568-.196 2.875-1.851 2.831h-.348V78.71c1.633-.108 2.2.937 2.2 2.592M629.671 85.983l.023-7.949h.065l3.027 7.949h2.244l-3.224-7.949 3.485-8.472h-2.505l-3.072 8.472h-.043v-8.472h-2.178v16.42h2.178M642.518 85.983v-1.895h-3.681v-5.16h3.287v-1.894h-3.287v-5.575h3.68v-1.897h-5.859v16.42h5.86M646.326 85.983V79.58h3.29v6.403h2.176V69.562h-2.177v8.125h-3.289v-8.125h-2.178v16.42h2.178M654.38 85.983h2.616c1.59 0 4.072-.087 4.072-4.203 0-1.547-.458-3.898-2.265-4.225l3.027-7.993h-2.265l-2.963 8.037h-.043v-8.037h-2.178zm4.378-4.682c0 1.568-.195 2.875-1.85 2.831h-.349V78.71c1.634-.108 2.2.937 2.2 2.592M668.423 83.457c-.565.413-1.11.696-1.852.696-1.197 0-1.937-.98-1.937-2.111 0-.719.175-1.22.609-1.786l1.656-1.807c1.48-1.503 2.33-2.592 2.33-4.814 0-2.308-1.437-4.29-3.855-4.29-.848 0-1.72.24-2.396.785v2.2c.654-.48 1.308-.85 2.157-.85 1.35 0 1.916 1.067 1.916 2.287 0 3.267-4.596 3.92-4.596 8.232 0 2.308 1.22 4.201 3.68 4.201.828 0 1.613-.13 2.31-.544l-.022-2.2M678.87 78.23v-.262c0-3.135.459-8.622-3.92-8.622-3.898 0-4.354 3.745-4.354 8.384 0 4.595.37 8.47 4.16 8.47 2.33 0 3.44-1.176 4.007-3.353l-2.07-.848c-.217 1.087-.52 2.154-1.873 2.154-1.785 0-1.915-2.44-1.915-6.402 0-5.705.957-6.358 1.915-6.358.894 0 1.874.131 1.874 4.05v.893h-1.83v1.895h4.007M686.82 85.983v-1.895h-3.682v-5.16h3.29v-1.894h-3.29v-5.575h3.682v-1.897h-5.859v16.42h5.859M693.504 83.457c-.567.413-1.111.696-1.852.696-1.197 0-1.938-.98-1.938-2.111 0-.719.174-1.22.61-1.786l1.655-1.807c1.48-1.503 2.33-2.592 2.33-4.814 0-2.308-1.437-4.29-3.854-4.29-.85 0-1.721.24-2.396.785v2.2c.653-.48 1.306-.85 2.156-.85 1.349 0 1.917 1.067 1.917 2.287 0 3.267-4.597 3.92-4.597 8.232 0 2.308 1.221 4.201 3.682 4.201.827 0 1.611-.13 2.308-.544l-.021-2.2M701.948 85.983v-1.895h-3.68v-5.16h3.289v-1.894h-3.29v-5.575h3.68v-1.897h-5.858v16.42h5.859M705.757 85.983V71.459h3.66v-1.897h-5.838v16.42h2.178M712.895 85.983V71.459h3.66v-1.897h-5.837v16.42h2.177M722.91 83.457c-.567.413-1.11.696-1.852.696-1.197 0-1.938-.98-1.938-2.111 0-.719.174-1.22.61-1.786l1.655-1.807c1.482-1.503 2.33-2.592 2.33-4.814 0-2.308-1.437-4.29-3.854-4.29-.85 0-1.72.24-2.396.785v2.2c.653-.48 1.307-.85 2.156-.85 1.35 0 1.917 1.067 1.917 2.287 0 3.267-4.597 3.92-4.597 8.232 0 2.308 1.22 4.201 3.682 4.201.827 0 1.612-.13 2.308-.544l-.021-2.2M731.855 83.739c-.436.219-.893.414-1.394.414-3.048 0-3.07-4.443-3.07-6.489 0-2.177.173-6.271 3.158-6.271.478 0 .893.109 1.306.327v-1.918c-.544-.347-1.111-.456-1.742-.456-4.445 0-5.032 4.725-5.032 8.165 0 3.289.414 8.69 4.879 8.69.74 0 1.263-.11 1.895-.48V83.74M735.642 85.983V79.58h3.288v6.403h2.178V69.562h-2.178v8.125h-3.288v-8.125h-2.177v16.42h2.177M747.748 85.983l3.527-16.421h-2.199l-.61 3.203h-3.265l-.611-3.203h-2.135l3.572 16.42zm-.044-9.148-.827 5.969h-.043l-1.308-8.341h2.614l-.435 2.372M758.546 85.983v-1.895h-3.723v-5.16h3.353v-1.894h-3.353v-7.472h-2.179v16.42h5.902M765.815 85.983v-1.895h-2.46V69.562h-2.18v14.526h-2.57v1.895h7.21M602.652 44.684v16.42h2.723c2.962 0 3.791-1.633 3.791-4.4 0-1.611-.328-3.178-2.07-3.636v-.043c1.872-.588 2.309-2.025 2.309-3.854 0-3.029-1.11-4.487-4.138-4.487zm2.07 1.852c1.895-.088 2.375.892 2.375 2.699 0 1.808-.371 2.94-2.375 2.897zm.37 12.717h-.37v-5.38c2.026-.086 2.31 1.177 2.31 2.918 0 1.286-.436 2.483-1.94 2.462M612.278 64.457c0 .697.524 1.263 1.263 1.263.653 0 1.199-.566 1.199-1.198 0-.653-.525-1.263-1.199-1.263-.675 0-1.263.501-1.263 1.198zm3.506 0c0 .697.523 1.263 1.264 1.263.653 0 1.197-.566 1.197-1.198 0-.653-.5-1.263-1.197-1.263-.675 0-1.264.501-1.264 1.198zm.349-3.354 3.529-16.419h-2.2l-.61 3.201h-3.268l-.61-3.2h-2.133l3.57 16.418zm-.044-9.146-.827 5.967h-.045l-1.306-8.34h2.614l-.436 2.373M623.86 61.103c2.57 0 5.49-.174 5.49-8.493 0-7.577-2.528-7.926-6.426-7.926h-1.503v16.42zm-.262-1.85V46.536c3.594-.109 3.441 3.288 3.441 6.074 0 2.526.24 6.86-3.44 6.643M637.751 61.103V59.21h-3.681v-5.162h3.289v-1.895h-3.29v-5.574h3.682v-1.895h-5.86v16.42h5.86M639.774 61.103h2.614c1.588 0 4.072-.086 4.072-4.201 0-1.548-.458-3.9-2.265-4.226l3.027-7.992h-2.263l-2.963 8.035h-.045v-8.035h-2.177zm4.378-4.681c0 1.567-.195 2.874-1.852 2.831h-.349V53.83c1.634-.109 2.201.936 2.201 2.592M651.333 61.103l.022-7.948h.064l3.029 7.948h2.244l-3.224-7.948 3.485-8.47h-2.505l-3.072 8.47h-.043v-8.47h-2.178v16.418h2.178M658.712 61.103h2.614c1.59 0 4.072-.086 4.072-4.201 0-1.548-.458-3.9-2.265-4.226l3.028-7.992h-2.265l-2.962 8.035h-.044v-8.035h-2.178zm4.378-4.681c0 1.567-.196 2.874-1.852 2.831h-.348V53.83c1.633-.109 2.2.936 2.2 2.592M673.952 61.103V59.21h-3.68v-5.162h3.288v-1.895h-3.288v-5.574h3.68v-1.895h-5.858v16.42h5.858M675.975 44.684h2.178v16.42h-2.178zM686.187 58.578c-.565.413-1.11.696-1.85.696-1.199 0-1.938-.98-1.938-2.113 0-.717.174-1.218.608-1.785l1.656-1.807c1.481-1.503 2.331-2.591 2.331-4.813 0-2.308-1.437-4.29-3.856-4.29-.85 0-1.72.239-2.394.785v2.199c.653-.479 1.304-.85 2.156-.85 1.349 0 1.916 1.068 1.916 2.287 0 3.266-4.596 3.92-4.596 8.232 0 2.307 1.22 4.202 3.682 4.202.827 0 1.61-.13 2.308-.544l-.023-2.2M700.313 58.86c-.435.219-.894.414-1.395.414-3.048 0-3.069-4.442-3.069-6.49 0-2.176.173-6.27 3.157-6.27.48 0 .893.108 1.307.326v-1.916c-.544-.349-1.11-.458-1.743-.458-4.443 0-5.03 4.725-5.03 8.167 0 3.288.413 8.688 4.877 8.688.74 0 1.264-.109 1.896-.479v-1.981M706.364 61.103l3.53-16.419h-2.201l-.609 3.201h-3.268l-.61-3.2h-2.134l3.571 16.418zm-.043-9.146-.828 5.967h-.043l-1.308-8.34h2.616l-.437 2.373M713.83 61.103V46.58h3.659v-1.895h-5.836v16.42h2.177M718.948 61.103l1.547-11.127.086-1.22h.045l.651 5.511 1.134 6.836h1.698l1.788-12.238h.041l.59 5.27 1.001 6.968h2.113l-2.875-16.419h-1.743l-1.24 7.643-.501 4.138-.023.414h-.043l-.48-4.42-.152-.937-1.154-6.838h-1.786l-2.832 16.42h2.135M738.518 61.103l2.33-11.846h.044l.065.676.655 3.94 1.415 7.23h1.916l1.525-16.419h-2.133l-.394 6.12-.131 3.048-.043 2.155h-.044l-.37-2.351-1.698-8.972h-1.503l-2.112 11.323h-.045l-.63-11.323h-2.07l1.35 16.42h1.873M748.64 44.684v16.42h2.723c2.962 0 3.79-1.633 3.79-4.4 0-1.611-.327-3.178-2.069-3.636v-.043c1.873-.588 2.308-2.025 2.308-3.854 0-3.029-1.11-4.487-4.139-4.487zm2.069 1.852c1.895-.088 2.375.892 2.375 2.699 0 1.808-.37 2.94-2.375 2.897zm.371 12.717h-.371v-5.38c2.026-.086 2.31 1.177 2.31 2.918 0 1.286-.436 2.483-1.939 2.462M760.249 61.103v-6.4h3.287v6.4h2.179V44.684h-2.179v8.123h-3.287v-8.123h-2.18v16.42h2.18" style="fill:#00ae4d;fill-opacity:1;fill-rule:nonzero;stroke:none" transform="matrix(2.03657 0 0 -1.57145 -759.634 335.768)"/><path d="m586.808 96.61 26.014 88.207 26.015-88.206h-52.029" style="fill:#00a650;fill-opacity:1;fill-rule:nonzero;stroke:none" transform="matrix(2.03657 0 0 -1.57145 -759.634 335.768)"/><path d="M628.657 91.522h136.855m-360.233-51.17h360.233" style="fill:none;stroke:#00a0e3;stroke-width:2.03526;stroke-linecap:butt;stroke-linejoin:miter;stroke-miterlimit:4;stroke-dasharray:none;stroke-opacity:1" transform="matrix(2.03657 0 0 -1.57145 -759.634 335.768)"/><path d="m572.389 90.861 25.942 88.302 26.084-88.206-52.026-.096" style="fill:#00ae4d;fill-opacity:1;fill-rule:nonzero;stroke:none" transform="matrix(2.03657 0 0 -1.57145 -759.634 335.768)"/><path d="m412.687 98.18-8.964 30.745h-30.726l13.85-35.76c4.542 2.275 13.545 5.68 25.84 5.016M456.408 80.48c13.506-9.121 26.262-17.737 54.373-18.36 4.97-.112 10.043.424 15.013 1.375 3.517 4.53 5.397 9.222 6.405 14.19a40.686 40.686 0 0 1 4.654-11.391c11.82 3.688 22.004 8.988 27.329 12.423-2.177 2.655-3.511 6.001-3.511 9.711 0 8.81 7.198 15.79 16.006 15.79 6.662 0 12.57-3.759 17.297-8.163l-.859 30.828c-6.23 2.149-13.107 3.33-19.768 3.33-21.008 0-37.969-14.806-41.598-34.588h-43.692v-19.12h13.321c-1.397-4.94-7.305-7.09-11.925-7.09-9.56 0-15.148 8.379-15.148 17.295 0 9.774 5.8 18.798 16.33 18.798 4.727 0 8.917-2.149 11.172-6.231l27.503 10.097c-6.337 13.858-25.676 20.839-39.748 20.839-13.382 0-25.095-4.396-33.203-12.397l4.302 11.109h-30.726L420.686 97.2c7.767-1.467 16.52-4.606 26.046-10.409 3.396-2.07 6.589-4.225 9.676-6.311" style="fill:#61bb46;fill-opacity:1;fill-rule:evenodd;stroke:none" transform="matrix(2.03657 0 0 -1.57145 -759.634 335.768)"/><path d="M387.368 91.786c6.905 3.645 28.545 12.006 58.04-5.966 3.344-2.037 6.512-4.178 9.577-6.246 13.824-9.337 26.881-18.156 55.737-18.797 22.882-.509 45.753 11.354 54.447 16.793l-1.498 1.722c-8.614-5.354-30.749-16.747-52.898-16.255-28.19.628-40.981 9.266-54.523 18.412-3.085 2.082-6.275 4.237-9.664 6.304-19.417 11.83-35.444 12.44-45.468 10.87-6.768-1.06-11.738-3.189-14.603-4.7l.853-2.137" style="fill:#fff;fill-opacity:1;fill-rule:nonzero;stroke:none" transform="matrix(2.03657 0 0 -1.57145 -759.634 335.768)"/></svg>