<svg xmlns="http://www.w3.org/2000/svg" xml:space="preserve" viewBox="0 0 800 320"><defs><path id="a" d="M100.3-65.5h594.1v594.1H100.3Z"/></defs><path fill="#fff" d="M0 0h800v320H0Z" style="fill:none"/><g style="stroke-width:1.31701"><path d="M77.664 20.223h-6.966L64.665 0h6.288l3.313 12.264h.056L77.58 0h6.401M52.845 20.223h-6.966L39.846 0h6.288l3.312 12.264h.058L52.76 0h6.4M13 20.223H6.032L0 0h6.287l3.314 12.264h.057L12.915 0h6.401M80.961 28.956h.889c.365 0 1.35-.102 1.35-1.581 0-.956-.355-1.535-1.339-1.535h-.9zm-.535-3.567h1.379c1.236 0 1.929.62 1.929 1.914 0 1.343-.59 2.103-1.929 2.103h-1.379m-4.348-4.017h.568l2.115 3.257h.012V25.39h.506v4.017h-.585l-2.099-3.223h-.01v3.223h-.507m-1.13-1.451c0 1.012-.58 1.546-1.58 1.546-1.035 0-1.65-.477-1.65-1.546v-2.566h.536v2.566c0 .709.405 1.096 1.114 1.096.675 0 1.046-.387 1.046-1.096v-2.566h.534m-6.807 3.567h1.34c.46 0 .753-.281.753-.72 0-.524-.423-.67-.871-.67H68.14zm0-1.84h1.07c.607 0 .854-.219.854-.641 0-.556-.394-.635-.855-.635h-1.069zm-.533-1.727h1.456c.355 0 .821 0 1.062.147a.952.952 0 0 1 .474.838.929.929 0 0 1-.596.9v.011c.495.101.765.473.765.968 0 .59-.423 1.153-1.221 1.153h-1.94M65.12 27.24c.5 0 .928-.13.928-.714 0-.393-.214-.686-.714-.686h-1.327v1.4zm-1.648-1.851h1.89c.753 0 1.22.411 1.22 1.052 0 .484-.213.884-.697 1.019v.011c.467.09.563.433.602.827.033.393.01.832.236 1.108h-.596c-.152-.163-.068-.596-.147-.99-.056-.395-.15-.726-.668-.726h-1.305v1.716h-.535m-3.718-4.017h2.773v.451h-2.24v1.276h2.088v.45H60.29v1.39h2.256v.45h-2.79m-2.137 0h-.608l-1.417-4.017h.578l1.148 3.482h.011l1.159-3.482h.557m-4.612 1.176c-.063-.574-.444-.821-.996-.821-.45 0-.9.162-.9.686 0 .495.642.569 1.288.715.642.146 1.283.371 1.283 1.159 0 .855-.839 1.197-1.57 1.197-.9 0-1.659-.438-1.659-1.417h.506c0 .675.563.967 1.17.967.484 0 1.018-.15 1.018-.73 0-.552-.641-.647-1.283-.788-.641-.142-1.287-.327-1.287-1.063 0-.816.725-1.176 1.456-1.176.821 0 1.446.389 1.48 1.271m-5.316.675c.501 0 .929-.13.929-.714 0-.393-.214-.686-.715-.686H48.51v1.4zm-1.648-1.851h1.89c.754 0 1.222.411 1.222 1.052 0 .484-.215.884-.7 1.02v.01c.468.09.563.433.603.827.034.393.011.832.237 1.108h-.597c-.152-.163-.067-.596-.146-.99-.056-.395-.152-.726-.67-.726H48.51v1.716h-.534m-4.342-4.017h.534v1.727h2.115V25.39h.535v4.017h-.535v-1.84h-2.115v1.84h-.534m-3.719-4.017h2.774v.451H40.45v1.276h2.088v.45H40.45v1.39h2.255v.45h-2.79m-4.032-4.017h.533v2.002l2.038-2.002h.691l-1.694 1.621 1.762 2.396h-.675l-1.452-2.03-.67.624v1.406h-.533m-2.487-2.166c.502 0 .928-.13.928-.714 0-.393-.213-.686-.714-.686h-1.327v1.4zm-1.648-1.851h1.89c.753 0 1.22.411 1.22 1.052 0 .484-.213.884-.697 1.02v.01c.468.09.563.433.602.827.035.393.012.832.237 1.108h-.596c-.153-.163-.068-.596-.146-.99-.058-.395-.153-.726-.67-.726h-1.305v1.716h-.535M28.03 25.39h2.773v.451h-2.238v1.276h2.086v.45h-2.086v1.39h2.255v.45h-2.79m-2.137 0h-.608l-1.417-4.017h.58l1.147 3.482h.011l1.158-3.482h.557M82.969 34.888a1.36 1.36 0 0 1-1.103.55c-1.243 0-1.975-.927-1.975-2.085 0-1.194.732-2.122 1.975-2.122.822 0 1.598.507 1.694 1.418h-.845c-.1-.444-.432-.675-.849-.675-.792 0-1.091.675-1.091 1.379 0 .668.299 1.343 1.091 1.343.574 0 .907-.308.957-.866h-.89v-.659h1.688v2.173h-.562m-6.396-2.2h.968c.394 0 .608-.169.608-.574 0-.389-.214-.557-.608-.557h-.968zm-.883-1.818h2.166c.72 0 1.175.502 1.175 1.109 0 .472-.19.828-.635 1.008v.01c.433.112.557.534.584.94.018.253.011.726.17.95h-.884c-.107-.253-.095-.64-.14-.962-.062-.422-.225-.607-.67-.607h-.883v1.57h-.883m-3.87-4.018h3.004v.744h-2.12v.86h1.945v.686h-1.945v.985h2.165v.743H71.91m-3.301-.688h.945c.349 0 .651-.111.651-.527 0-.412-.257-.574-.635-.574h-.961Zm0-1.704h.894c.308 0 .54-.14.54-.478 0-.382-.293-.462-.608-.462h-.826Zm-.884-1.626h1.89c.765 0 1.283.249 1.283.996 0 .394-.198.67-.545.84.488.14.736.517.736 1.017 0 .815-.691 1.165-1.418 1.165h-1.946m-3.56-4.018h.883v3.275h1.957v.743h-2.84m-3.402-2.2h.966c.394 0 .609-.17.609-.574 0-.389-.215-.558-.61-.558h-.965Zm-.884-1.818h2.165c.72 0 1.176.501 1.176 1.109 0 .472-.191.827-.636 1.007v.012c.434.11.557.533.586.938.016.254.01.727.169.952h-.884c-.106-.254-.096-.642-.141-.963-.061-.422-.224-.607-.669-.607h-.882v1.57h-.884m-3.066-1.553h1.04l-.505-1.475h-.012l-.523 1.475zm.085-2.465h.906l1.501 4.018h-.916l-.305-.895h-1.501l-.315.895h-.895m-2.975-2.2h.967c.394 0 .608-.17.608-.574 0-.389-.214-.558-.608-.558h-.967zm-.884-1.818h2.166c.72 0 1.175.501 1.175 1.109 0 .472-.19.827-.635 1.007v.012c.433.11.556.533.585.938.016.254.011.727.169.952h-.883c-.107-.254-.096-.642-.14-.963-.063-.422-.226-.607-.67-.607h-.883v1.57h-.884m-2.801-.648c.793 0 1.09-.675 1.09-1.344 0-.703-.297-1.378-1.09-1.378-.793 0-1.092.675-1.092 1.378 0 .67.299 1.344 1.092 1.344zm0-3.465c1.243 0 1.975.928 1.975 2.121 0 1.16-.732 2.087-1.975 2.087s-1.974-.928-1.974-2.087c0-1.193.731-2.12 1.974-2.12m-3.702 4.112h-.995l-1.305-4.018h.912l.893 2.825h.012l.906-2.825h.911" style="fill:#4c575f;fill-opacity:1;fill-rule:nonzero;stroke:none;stroke-width:1.31701" transform="matrix(9.02965 0 0 9.02965 20.84 0)"/></g></svg>