<svg version="1.0" width="800" height="320.567" viewBox="0 0 2382.48 1373.847" xml:space="preserve" xmlns="http://www.w3.org/2000/svg"><path d="M-523.034 0h3428.548v1371.419H-523.034z" fill="#fff" style="clip-rule:evenodd;fill-rule:evenodd;stroke-width:3.42855;stroke-linejoin:round;stroke-miterlimit:2"/><path transform="matrix(19.51782 0 0 19.51782 -9393.118 -340.599)" style="fill:#000;fill-rule:nonzero;stroke:none;stroke-width:.28;stroke-linecap:butt;stroke-linejoin:bevel" d="M512.82 57.78h5.94l2.88 10.08 3.06-10.08h5.04l-5.4 14.58h-5.94zM531.72 57.78h5.76l3.06 10.08 3.06-10.08h5.04l-5.4 14.58h-5.94z"/><path d="M484.36 132.3c0 .36 0 .9.36 1.44.18.36.54.9 1.44.9 1.26 0 1.8-.9 1.8-1.62 0-.9-.9-1.26-2.16-1.62l-2.88-.72c-.9-.36-3.6-1.08-3.6-3.96 0-1.44.72-2.7 1.8-3.42 1.26-.9 3.06-1.26 5.04-1.26 3.24 0 6.48.9 6.66 5.04h-5.04c0-.54 0-1.08-.18-1.44-.36-.54-.72-.9-1.62-.9-.9 0-1.62.36-1.62 1.26s.72 1.26 1.44 1.44l3.96 1.08c1.44.36 3.42 1.26 3.42 3.96 0 5.04-5.76 5.04-7.02 5.04-2.88 0-7.2-.54-7.2-5.22z" style="fill:#000;fill-rule:nonzero;stroke:none;stroke-width:.28;stroke-linecap:butt;stroke-linejoin:bevel" transform="matrix(19.51782 0 0 19.51782 -8019.054 -1605.362)"/><path d="M419.02 117.54c0 19.44 15.84 35.1 35.28 35.1 4.5 0 8.82-.9 13.14-2.52l-2.7-6.3c-3.24 1.26-6.84 1.98-10.44 1.98-15.66 0-28.44-12.6-28.44-28.26 0-15.48 12.78-28.26 28.44-28.26 15.48 0 28.26 12.78 28.26 28.26v.36h6.84v-.36c0-19.44-15.84-35.1-35.1-35.1-19.44 0-35.28 15.66-35.28 35.1z" style="fill:#f60;fill-rule:nonzero;stroke:none;stroke-width:.28;stroke-linecap:butt;stroke-linejoin:bevel" transform="matrix(19.51782 0 0 19.51782 -8019.054 -1605.362)"/></svg>